<svg id="back_to_top" xmlns="http://www.w3.org/2000/svg" width="114" height="114" viewBox="0 0 114 114">
  <circle id="楕円形_31" data-name="楕円形 31" cx="57" cy="57" r="57" fill="#fff"/>
  <path id="Icon_awesome-arrow-right" data-name="Icon awesome-arrow-right" d="M17.007,5.326l1.982-2.033a2.1,2.1,0,0,1,3.026,0l17.355,17.8a2.23,2.23,0,0,1,0,3.105L22.015,42a2.1,2.1,0,0,1-3.026,0l-1.982-2.033a2.241,2.241,0,0,1,.036-3.142L27.8,26.311H2.143A2.166,2.166,0,0,1,0,24.113V21.182a2.166,2.166,0,0,1,2.143-2.2H27.8L17.043,8.468A2.225,2.225,0,0,1,17.007,5.326Z" transform="translate(34.353 60) rotate(-90)"/>
  <path id="パス_3637" data-name="パス 3637" d="M4.284,0H6.948V-11.106h3.78v-2.232H.54v2.232H4.284ZM18.522.252c3.528,0,5.958-2.646,5.958-6.966s-2.43-6.858-5.958-6.858-5.958,2.52-5.958,6.858C12.564-2.394,14.994.252,18.522.252Zm0-2.3c-1.98,0-3.24-1.818-3.24-4.662,0-2.862,1.26-4.572,3.24-4.572s3.24,1.71,3.24,4.572C21.762-3.87,20.5-2.052,18.522-2.052ZM27.99,0h2.664V-4.734h1.782c2.862,0,5.148-1.368,5.148-4.41,0-3.15-2.268-4.194-5.22-4.194H27.99Zm2.664-6.84v-4.374h1.512c1.836,0,2.808.522,2.808,2.07,0,1.53-.882,2.3-2.718,2.3Z" transform="translate(38 89)"/>
</svg>
