<svg xmlns="http://www.w3.org/2000/svg" xmlns:xlink="http://www.w3.org/1999/xlink" width="1001" height="463.498" viewBox="0 0 1001 463.498">
  <defs>
    <clipPath id="clip-path">
      <rect id="長方形_192" data-name="長方形 192" width="73.943" height="75.281" fill="#df7c8f"/>
    </clipPath>
    <clipPath id="clip-path-2">
      <rect id="長方形_194" data-name="長方形 194" width="64.121" height="39.195" fill="#e96f45"/>
    </clipPath>
    <clipPath id="clip-path-3">
      <rect id="長方形_193" data-name="長方形 193" width="72.765" height="73.226" fill="#ffb64b"/>
    </clipPath>
    <clipPath id="clip-path-4">
      <rect id="長方形_195" data-name="長方形 195" width="131.44" height="130.782" fill="#ffb64b"/>
    </clipPath>
  </defs>
  <g id="グループ_3243" data-name="グループ 3243" transform="translate(-150 -732.285)">
    <g id="グループ_2524" data-name="グループ 2524" transform="translate(996.057 732.285)">
      <g id="グループ_198" data-name="グループ 198" clip-path="url(#clip-path)">
        <path id="パス_813" data-name="パス 813" d="M58.359,37.647q0-18.266-.016-36.532c0-.819.21-1.1,1.06-1.091C61.62.04,61.62,0,61.62,2.257q0,35.752,0,71.5c0,1.533.292,1.454-1.4,1.447-2.157-.009-1.846.259-1.848-1.815q-.016-17.873,0-35.746" transform="translate(-26.299 -0.01)" fill="#df7c8f"/>
        <path id="パス_814" data-name="パス 814" d="M11.518,37.658q0-18.265-.022-36.53c0-.947.35-1.1,1.169-1.1,2.119.023,2.12-.008,2.12,2.113q0,35.8,0,71.609c0,1.511.291,1.465-1.4,1.458-2.177-.01-1.851.241-1.853-1.81q-.016-17.873,0-35.744" transform="translate(-5.182 -0.014)" fill="#df7c8f"/>
        <path id="パス_815" data-name="パス 815" d="M108.444,37.759c0,12.064-.014,24.128.025,36.193,0,1.031-.274,1.321-1.288,1.284-1.977-.072-1.98-.016-1.979-2.044q.015-30.271.029-60.541c0-3.835.009-7.67-.049-11.5-.013-.9.275-1.136,1.139-1.122,2.123.034,2.124,0,2.124,2.1Z" transform="translate(-47.412 -0.011)" fill="#df7c8f"/>
        <path id="パス_816" data-name="パス 816" d="M38.174,37.632c0,12.072-.013,24.145.023,36.217,0,1.041-.2,1.441-1.326,1.383-1.875-.094-1.878-.021-1.878-1.9q0-35.995-.027-71.99c0-1.113.316-1.375,1.366-1.328,1.839.082,1.842.02,1.842,1.85v35.77" transform="translate(-15.761 -0.003)" fill="#df7c8f"/>
        <path id="パス_817" data-name="パス 817" d="M49.9,37.644c0,12.11-.015,24.219.027,36.329,0,1.064-.324,1.3-1.307,1.267-1.895-.065-1.9-.014-1.9-1.9q0-35.881,0-71.762c0-1.7-.242-1.5,1.685-1.538.905-.019,1.536-.09,1.529,1.273-.069,12.109-.04,24.219-.04,36.329" transform="translate(-21.06 -0.016)" fill="#df7c8f"/>
        <path id="パス_818" data-name="パス 818" d="M128.6,37.589c0-12.068.013-24.137-.024-36.206,0-1.038.19-1.436,1.318-1.375,2.258.121,1.922-.247,1.923,2q.012,35.756-.007,71.512c0,.529.31,1.328-.23,1.546a5.182,5.182,0,0,1-2.75.055c-.4-.067-.222-.574-.224-.882-.013-3.054-.008-6.109-.008-9.163Z" transform="translate(-57.953 -0.001)" fill="#df7c8f"/>
        <path id="パス_819" data-name="パス 819" d="M81.78,37.612c0-12.066.017-24.132-.028-36.2,0-1.128.263-1.471,1.4-1.407,2.133.119,1.821-.218,1.821,1.871q.012,35.974-.007,71.946c0,.444.286,1.162-.281,1.29a5.176,5.176,0,0,1-2.749-.049c-.342-.114-.15-.677-.15-1.032q-.013-18.21-.007-36.421" transform="translate(-36.842 0)" fill="#df7c8f"/>
        <path id="パス_820" data-name="パス 820" d="M93.54,37.52c0-12.071.014-24.142-.024-36.213,0-1.035.28-1.331,1.3-1.292C96.7.088,96.7.031,96.7,1.91q0,35.934,0,71.867c0,1.524.283,1.414-1.425,1.43a3.268,3.268,0,0,0-.447,0c-.985.148-1.316-.192-1.312-1.255.041-12.145.026-24.29.026-36.435" transform="translate(-42.153 -0.005)" fill="#df7c8f"/>
        <path id="パス_821" data-name="パス 821" d="M23.208,37.655c0-12.181.013-24.362-.024-36.543,0-.96.354-1.09,1.162-1.079,2.023.026,2.023,0,2.023,1.99V73.768c0,1.447,0,1.447-1.426,1.448a3.865,3.865,0,0,0-.559,0c-.894.135-1.2-.169-1.2-1.136.04-11.882.032-23.765.037-35.648v-.782h-.014" transform="translate(-10.451 -0.014)" fill="#df7c8f"/>
        <path id="パス_822" data-name="パス 822" d="M120.045,37.63V73.72c0,1.487,0,1.487-1.514,1.487a5.451,5.451,0,0,0-.67,0c-.771.1-1.018-.206-1.011-1,.038-3.835.017-7.672.017-11.508q0-30.615,0-61.231c0-1.436,0-1.437,1.447-1.438a5.048,5.048,0,0,0,.67,0c.825-.112,1.087.213,1.08,1.057-.04,4.246-.018,8.491-.018,12.737v23.8" transform="translate(-52.672 -0.006)" fill="#df7c8f"/>
        <path id="パス_823" data-name="パス 823" d="M73.2,37.651V73.744c0,1.464,0,1.465-1.415,1.466a6.17,6.17,0,0,0-.781,0c-.8.1-.988-.249-.987-1.012q.03-30.617.019-61.234c0-3.911.038-7.822-.031-11.732C69.983.2,70.326-.006,71.267.021,73.195.078,73.2.03,73.2,2V37.651" transform="translate(-31.554 -0.008)" fill="#df7c8f"/>
        <path id="パス_824" data-name="パス 824" d="M3.137,37.628c0,12.069-.018,24.139.029,36.209,0,1.141-.289,1.571-1.4,1.376a1.429,1.429,0,0,0-.446,0C.326,75.357,0,75.01,0,73.949c.04-12.33.026-24.661.026-36.992C.026,25.074.04,13.191,0,1.307,0,.252.316-.017,1.315.019,3.134.085,3.137.032,3.137,1.867V37.628" transform="translate(0 -0.007)" fill="#df7c8f"/>
      </g>
    </g>
    <g id="グループ_2525" data-name="グループ 2525" transform="translate(1086.879 804.566)">
      <g id="グループ_202" data-name="グループ 202" transform="translate(0 0)" clip-path="url(#clip-path-2)">
        <path id="パス_838" data-name="パス 838" d="M32.973,2.84a1.808,1.808,0,0,0-1.271.823C29.866,5.7,28.01,7.711,26.222,9.786c-.9,1.04-1.6,1.052-2.508.008-1.826-2.109-3.758-4.128-5.575-6.245-.66-.768-1.042-.7-1.663.016-1.793,2.07-3.682,4.058-5.465,6.136C10.1,10.77,9.381,10.893,8.4,9.762,6.091,7.111,3.71,4.526,1.342,1.929.88,1.422.558,1.047,1.267.425c.68-.6,1.075-.5,1.632.14,1.976,2.253,4.025,4.443,5.992,6.7.594.681.962.694,1.554.014,1.73-1.988,3.517-3.926,5.276-5.889,1.482-1.653,1.7-1.654,3.237.05,1.73,1.919,3.494,3.81,5.171,5.774.649.758,1.031.734,1.663,0,1.757-2.032,3.578-4.01,5.376-6.007,1.241-1.377,1.6-1.391,2.82-.046,1.843,2.026,3.7,4.045,5.489,6.114.6.7.97.647,1.546-.014,1.8-2.063,3.651-4.083,5.488-6.115,1.172-1.3,1.557-1.308,2.714-.037,1.809,1.986,3.645,3.952,5.379,6,.752.89,1.178.774,1.876-.034C58.37,4.895,60.347,2.78,62.266.614c.5-.564.862-.919,1.614-.249S64.3,1.452,63.8,2c-2.364,2.6-4.73,5.2-7.053,7.834-.848.962-1.54,1.007-2.4.018-1.834-2.1-3.762-4.125-5.576-6.243-.694-.81-1.1-.781-1.769.008-1.712,2-3.5,3.938-5.267,5.9-1.37,1.522-1.578,1.525-3-.044Q36.07,6.544,33.443,3.589a4.167,4.167,0,0,1-.47-.749" transform="translate(-0.203 0)" fill="#e96f45"/>
        <path id="パス_839" data-name="パス 839" d="M31.413,40.283a9.018,9.018,0,0,1-.633.874c-1.82,2.046-3.678,4.059-5.472,6.128-.846.975-1.538,1.008-2.4.022-1.836-2.1-3.763-4.123-5.578-6.242-.694-.81-1.1-.769-1.771.011-1.752,2.037-3.576,4.011-5.379,6-1.215,1.342-1.512,1.355-2.682.064C5.171,44.577,2.868,41.991.534,39.433c-.5-.551-.858-.936-.079-1.611.758-.658,1.127-.3,1.624.256,1.955,2.2,3.964,4.359,5.891,6.586.626.723.99.8,1.65.032,1.78-2.08,3.635-4.1,5.473-6.127,1.15-1.27,1.551-1.268,2.724.021,1.74,1.911,3.513,3.795,5.164,5.78.821.986,1.3,1.128,2.19.05C26.843,42.384,28.7,40.5,30.414,38.5c.948-1.1,1.715-1.062,2.647.013,1.724,1.993,3.588,3.868,5.25,5.909.906,1.112,1.392.883,2.188-.06,1.7-2.013,3.525-3.918,5.251-5.91.9-1.034,1.64-1.021,2.533,0,1.73,1.987,3.606,3.855,5.251,5.908.964,1.2,1.483.9,2.305-.066,1.777-2.083,3.646-4.088,5.469-6.132.495-.554.867-1.121,1.722-.338.892.817.217,1.24-.24,1.752-2.275,2.541-4.593,5.045-6.826,7.621-.975,1.125-1.7,1.024-2.618-.046-1.753-2.035-3.626-3.968-5.37-6.011-.709-.83-1.136-.922-1.886-.039-1.771,2.088-3.671,4.065-5.457,6.141-.91,1.058-1.617,1.007-2.506-.02-1.794-2.07-3.654-4.08-5.494-6.108a1.95,1.95,0,0,0-1.217-.839" transform="translate(0 -8.902)" fill="#e96f45"/>
        <path id="パス_840" data-name="パス 840" d="M63.783,19.725a9.682,9.682,0,0,1-.581.8c-2.384,2.652-4.8,5.276-7.153,7.954-.91,1.037-1.627,1.02-2.518-.009-1.69-1.954-3.534-3.782-5.142-5.8-1.017-1.275-1.568-1.1-2.5.057-1.489,1.848-3.152,3.557-4.747,5.32-1.551,1.715-1.713,1.716-3.218.043-1.728-1.922-3.487-3.817-5.164-5.782-.667-.781-1.069-.837-1.766-.019-1.776,2.084-3.678,4.061-5.459,6.141-.948,1.107-1.685,1.085-2.623-.007-1.784-2.077-3.686-4.055-5.459-6.14-.7-.822-1.093-.752-1.757.024-1.713,2-3.5,3.939-5.27,5.895-1.355,1.5-1.593,1.509-2.9.07-2.3-2.523-4.565-5.071-6.864-7.591-.5-.553-.831-.958-.067-1.626s1.121-.3,1.621.258c1.954,2.2,3.965,4.359,5.893,6.586.64.74,1.018.761,1.665.011,1.719-2,3.516-3.927,5.28-5.886,1.383-1.537,1.678-1.543,3.024-.05,1.8,2,3.626,3.968,5.387,6,.6.691.963.654,1.544-.014,1.763-2.028,3.584-4,5.385-6,1.313-1.455,1.64-1.459,2.923-.037,1.766,1.957,3.572,3.88,5.274,5.891.746.881,1.169.79,1.873-.034,1.745-2.043,3.574-4.014,5.381-6,1.1-1.214,1.521-1.217,2.611-.016,1.736,1.913,3.5,3.8,5.165,5.78.837.993,1.356,1.234,2.314.062,1.8-2.2,3.767-4.256,5.682-6.357.281-.308.525-.893,1.11-.473a12.754,12.754,0,0,1,1.06.95" transform="translate(-0.033 -4.429)" fill="#e96f45"/>
      </g>
    </g>
    <g id="グループ_2526" data-name="グループ 2526" transform="translate(150 1049.366)">
      <g id="グループ_200" data-name="グループ 200" clip-path="url(#clip-path-3)">
        <path id="パス_825" data-name="パス 825" d="M60.2,36.6q0,17.557-.011,35.114c0,.46.269,1.124-.32,1.337a4.505,4.505,0,0,1-2.338.047c-.224-.042-.239-.31-.241-.521,0-.332-.006-.664-.006-1q0-34.991.015-69.981c0-.485-.349-1.208.311-1.432a3.576,3.576,0,0,1,2.324.064c.424.152.257.656.258,1.009.012,2.9.007,5.809.007,8.714V36.6" transform="translate(-22.191 0)" fill="#ffb64b"/>
        <path id="パス_826" data-name="パス 826" d="M41.156,37.559q0,16.939,0,33.876c0,1.374.014,1.309-1.348.939a1.91,1.91,0,0,1-1.661-2.219c.058-21.753.039-43.507.052-65.26,0-.5-.293-1.186.277-1.488a8.854,8.854,0,0,1,2.333-.826c.536-.11.332.464.335.73.02,2.407.012,4.815.012,7.223V37.559" transform="translate(-14.789 -0.996)" fill="#ffb64b"/>
        <path id="パス_827" data-name="パス 827" d="M76.46,72.616V71.38q0-33.611,0-67.223c0-1.468-.028-1.351,1.371-.99,1.33.343,1.56,1.072,1.558,2.321q-.057,31.99-.028,63.981c0,2.675,0,2.675-2.9,3.147" transform="translate(-29.66 -1.138)" fill="#ffb64b"/>
        <path id="パス_828" data-name="パス 828" d="M50.664,36.863q0,17.439-.023,34.878c0,.45.471,1.277-.461,1.351-1.658.134-2.347-.351-2.347-1.492q0-31.39,0-62.78c0-2.242-.012-4.484.009-6.726,0-.376-.225-.942.313-1.08a8.649,8.649,0,0,1,2.328-.3c.3.008.174.578.176.892.01,2.782.006,5.564.006,8.346V36.863" transform="translate(-18.541 -0.278)" fill="#ffb64b"/>
        <path id="パス_829" data-name="パス 829" d="M66.855,36.789q0-17.316.025-34.629c0-.477-.5-1.369.615-1.407,1.676-.056,2.238.318,2.238,1.474q0,34.693-.007,69.388c0,.378.215.941-.326,1.078a4.421,4.421,0,0,1-2.32.247c-.4-.119-.219-.746-.219-1.147q-.013-9.405-.006-18.809v-16.2" transform="translate(-25.9 -0.29)" fill="#ffb64b"/>
        <path id="パス_830" data-name="パス 830" d="M31.7,39.065q0,15.755,0,31.509c0,1.441.016,1.391-1.29.826a2.356,2.356,0,0,1-1.629-2.522q.085-29.954.039-59.908a3,3,0,0,1,2.441-2.594c.589-.037.425.406.428.683.019,1.7.011,3.4.011,5.1v26.9" transform="translate(-11.163 -2.473)" fill="#ffb64b"/>
        <path id="パス_831" data-name="パス 831" d="M85.9,39.211q0-15.628,0-31.257c0-1.457-.008-1.383,1.3-.794a2.669,2.669,0,0,1,1.676,2.887Q88.8,39.438,88.84,68.829a3.039,3.039,0,0,1-2.475,2.863c-.339.059-.457-.036-.458-.351,0-.332-.007-.664-.007-1V39.211" transform="translate(-33.322 -2.624)" fill="#ffb64b"/>
        <path id="パス_832" data-name="パス 832" d="M21.945,70.54c-1.763-1.1-2.915-2.175-2.9-4.58q.2-24.531,0-49.065a4.74,4.74,0,0,1,2.894-4.763Z" transform="translate(-7.39 -4.706)" fill="#ffb64b"/>
        <path id="パス_833" data-name="パス 833" d="M95.746,12.714c1.733,1.1,2.757,2.226,2.741,4.481q-.177,24.334,0,48.669a4.657,4.657,0,0,1-2.737,4.487Z" transform="translate(-37.141 -4.932)" fill="#ffb64b"/>
        <path id="パス_834" data-name="パス 834" d="M12.528,21.239V68.47C11.25,67,9.617,65.9,9.631,63.592c.076-12.321.112-24.644-.028-36.964-.029-2.523,1.508-3.831,2.925-5.389" transform="translate(-3.725 -8.239)" fill="#ffb64b"/>
        <path id="パス_835" data-name="パス 835" d="M105.029,68.511c-.171-2.305-.114-45.6.055-46.738,1.542,1.917,2.958,3.567,2.917,6.322-.172,11.368-.1,22.739-.037,34.108a6.018,6.018,0,0,1-1.5,4.427c-.466.506-.842,1.1-1.434,1.881" transform="translate(-40.702 -8.446)" fill="#ffb64b"/>
        <path id="パス_836" data-name="パス 836" d="M2.929,36.233v28.7c-3.63-5.762-4.172-21,0-28.7" transform="translate(0 -14.055)" fill="#ffb64b"/>
        <path id="パス_837" data-name="パス 837" d="M114.805,38.761a34.442,34.442,0,0,1,0,25.736Z" transform="translate(-44.535 -15.036)" fill="#ffb64b"/>
      </g>
    </g>
    <g id="グループ_2527" data-name="グループ 2527" transform="translate(219 1065)">
      <g id="グループ_204" data-name="グループ 204" clip-path="url(#clip-path-4)">
        <path id="パス_841" data-name="パス 841" d="M104.034,153.642c.859.247,1.537.656,1.5,1.689a1.39,1.39,0,0,1-1.463,1.493,1.506,1.506,0,0,1-1.653-1.519c-.049-.922.68-1.452,1.614-1.663" transform="translate(-22.237 -33.998)" fill="#ffb64b"/>
        <path id="パス_842" data-name="パス 842" d="M23.674,42.528c-.179.885-.605,1.54-1.62,1.555a1.372,1.372,0,0,1-1.509-1.434,1.473,1.473,0,0,1,1.447-1.68c.952-.074,1.477.627,1.682,1.559" transform="translate(-4.459 -9.064)" fill="#ffb64b"/>
        <path id="パス_843" data-name="パス 843" d="M93.862,167.051c-1.055-.022-1.66-.579-1.65-1.526a1.5,1.5,0,0,1,1.609-1.57,1.526,1.526,0,0,1,1.52,1.5,1.409,1.409,0,0,1-1.478,1.592" transform="translate(-20.021 -36.28)" fill="#ffb64b"/>
        <path id="パス_844" data-name="パス 844" d="M155.039,81.976c1.089.128,1.75.531,1.764,1.564A1.456,1.456,0,0,1,155.38,85.1a1.525,1.525,0,0,1-1.717-1.462c-.1-1,.662-1.406,1.376-1.666" transform="translate(-33.361 -18.14)" fill="#ffb64b"/>
        <path id="パス_845" data-name="パス 845" d="M167.029,93.793c-.092,1.033-.591,1.62-1.607,1.571a1.559,1.559,0,0,1,.065-3.117,1.453,1.453,0,0,1,1.542,1.547" transform="translate(-35.588 -20.412)" fill="#ffb64b"/>
        <path id="パス_846" data-name="パス 846" d="M44.118,103.942c-.137,1.139-.685,1.669-1.689,1.609a1.46,1.46,0,0,1-1.49-1.5,1.544,1.544,0,0,1,1.6-1.6,1.659,1.659,0,0,1,1.579,1.493" transform="translate(-8.889 -22.67)" fill="#ffb64b"/>
        <path id="パス_847" data-name="パス 847" d="M156.833,103.928c-.07,1.055-.561,1.623-1.581,1.629a1.479,1.479,0,0,1-1.58-1.409,1.527,1.527,0,0,1,1.5-1.693,1.627,1.627,0,0,1,1.661,1.473" transform="translate(-33.363 -22.67)" fill="#ffb64b"/>
        <path id="パス_848" data-name="パス 848" d="M145.105,115.785a1.377,1.377,0,0,1-1.629-1.343,1.455,1.455,0,0,1,1.494-1.684,1.471,1.471,0,0,1,1.638,1.55,1.385,1.385,0,0,1-1.5,1.476" transform="translate(-31.15 -24.951)" fill="#ffb64b"/>
        <path id="パス_849" data-name="パス 849" d="M31.885,115.769a1.3,1.3,0,0,1-1.138-1.519,1.564,1.564,0,0,1,3.126.093c-.04,1.013-.685,1.48-1.989,1.426" transform="translate(-6.675 -24.949)" fill="#ffb64b"/>
        <path id="パス_850" data-name="パス 850" d="M54.291,155.013c-.041,1.2-.462,1.832-1.512,1.825a1.561,1.561,0,0,1-.117-3.12,1.489,1.489,0,0,1,1.628,1.294" transform="translate(-11.113 -34.014)" fill="#ffb64b"/>
        <path id="パス_851" data-name="パス 851" d="M145.041,102.35c.848.3,1.606.727,1.564,1.712a1.457,1.457,0,0,1-1.669,1.469,1.385,1.385,0,0,1-1.462-1.5c-.007-.984.687-1.435,1.567-1.686" transform="translate(-31.151 -22.648)" fill="#ffb64b"/>
        <path id="パス_852" data-name="パス 852" d="M85.17,104.085a1.609,1.609,0,0,1-1.7,1.473,1.371,1.371,0,0,1-1.459-1.487,1.49,1.49,0,0,1,1.538-1.62c.918-.009,1.468.681,1.622,1.635" transform="translate(-17.806 -22.67)" fill="#ffb64b"/>
        <path id="パス_853" data-name="パス 853" d="M42.509,136.419c-.948-.2-1.653-.709-1.567-1.692a1.447,1.447,0,0,1,1.609-1.4,1.39,1.39,0,0,1,1.517,1.613c-.051.953-.723,1.321-1.56,1.484" transform="translate(-8.888 -29.501)" fill="#ffb64b"/>
        <path id="パス_854" data-name="パス 854" d="M44.1,155.181c-.073,1.025-.535,1.639-1.552,1.658a1.5,1.5,0,0,1-1.6-1.557,1.514,1.514,0,0,1,1.479-1.554,1.573,1.573,0,0,1,1.678,1.454" transform="translate(-8.89 -34.015)" fill="#ffb64b"/>
        <path id="パス_855" data-name="パス 855" d="M44.1,22.012a1.507,1.507,0,0,1-1.59,1.6,1.521,1.521,0,1,1,.034-3.039A1.434,1.434,0,0,1,44.1,22.012" transform="translate(-8.889 -4.553)" fill="#ffb64b"/>
        <path id="パス_856" data-name="パス 856" d="M54.278,21.994a1.552,1.552,0,1,1-1.49-1.42,1.335,1.335,0,0,1,1.49,1.42" transform="translate(-11.112 -4.553)" fill="#ffb64b"/>
        <path id="パス_857" data-name="パス 857" d="M85.168,134.832c-.175.962-.719,1.6-1.7,1.541a1.431,1.431,0,0,1-1.459-1.55,1.4,1.4,0,0,1,1.633-1.5c.965.031,1.363.653,1.526,1.507" transform="translate(-17.805 -29.502)" fill="#ffb64b"/>
        <path id="パス_858" data-name="パス 858" d="M115.752,93.9a1.365,1.365,0,0,1-1.551,1.463,1.488,1.488,0,0,1-1.508-1.645,1.471,1.471,0,0,1,1.529-1.477c.982-.012,1.518.57,1.53,1.659" transform="translate(-24.468 -20.411)" fill="#ffb64b"/>
        <path id="パス_859" data-name="パス 859" d="M104.025,92.147c.944.275,1.592.723,1.509,1.752a1.4,1.4,0,0,1-1.52,1.442,1.521,1.521,0,0,1-1.594-1.586c0-.916.741-1.418,1.6-1.608" transform="translate(-22.237 -20.39)" fill="#ffb64b"/>
        <path id="パス_860" data-name="パス 860" d="M105.554,145.036a1.479,1.479,0,0,1-1.452,1.589,1.552,1.552,0,1,1-.034-3.1,1.435,1.435,0,0,1,1.487,1.507" transform="translate(-22.237 -31.76)" fill="#ffb64b"/>
        <path id="パス_861" data-name="パス 861" d="M54.287,93.812c-.067.965-.528,1.593-1.557,1.55a1.56,1.56,0,0,1-.012-3.12,1.447,1.447,0,0,1,1.569,1.57" transform="translate(-11.113 -20.411)" fill="#ffb64b"/>
        <path id="パス_862" data-name="パス 862" d="M3.036,93.951a1.323,1.323,0,0,1-1.391,1.414A1.563,1.563,0,1,1,1.6,92.242c.905.022,1.436.589,1.435,1.709" transform="translate(-0.002 -20.411)" fill="#ffb64b"/>
        <path id="パス_863" data-name="パス 863" d="M95.376,134.889a1.566,1.566,0,0,1-1.7,1.48,1.527,1.527,0,1,1,.207-3.045,1.482,1.482,0,0,1,1.492,1.564" transform="translate(-20.02 -29.501)" fill="#ffb64b"/>
        <path id="パス_864" data-name="パス 864" d="M115.741,83.728a1.374,1.374,0,0,1-1.559,1.4,1.546,1.546,0,1,1,.287-3.074,1.356,1.356,0,0,1,1.272,1.672" transform="translate(-24.466 -18.154)" fill="#ffb64b"/>
        <path id="パス_865" data-name="パス 865" d="M83.669,167.049c-1.108-.016-1.659-.535-1.661-1.533a1.485,1.485,0,0,1,1.437-1.568,1.518,1.518,0,0,1,1.671,1.506,1.442,1.442,0,0,1-1.447,1.595" transform="translate(-17.805 -36.277)" fill="#ffb64b"/>
        <path id="パス_866" data-name="パス 866" d="M103.985,85.173c-.934-.206-1.653-.73-1.574-1.691a1.5,1.5,0,0,1,1.61-1.434,1.4,1.4,0,0,1,1.509,1.624c-.048.959-.7,1.336-1.545,1.5" transform="translate(-22.234 -18.155)" fill="#ffb64b"/>
        <path id="パス_867" data-name="パス 867" d="M54.279,83.515a1.44,1.44,0,0,1-1.551,1.617,1.483,1.483,0,0,1-1.548-1.5,1.467,1.467,0,0,1,1.606-1.578,1.353,1.353,0,0,1,1.493,1.463" transform="translate(-11.112 -18.156)" fill="#ffb64b"/>
        <path id="パス_868" data-name="パス 868" d="M22,85.17c-.934-.219-1.551-.7-1.46-1.735a1.393,1.393,0,0,1,1.588-1.381,1.441,1.441,0,0,1,1.492,1.518c0,.98-.661,1.483-1.621,1.6" transform="translate(-4.458 -18.156)" fill="#ffb64b"/>
        <path id="パス_869" data-name="パス 869" d="M93.857,71.831a1.383,1.383,0,0,1,1.487,1.538,1.568,1.568,0,0,1-3.134-.079,1.453,1.453,0,0,1,1.646-1.459" transform="translate(-20.02 -15.895)" fill="#ffb64b"/>
        <path id="パス_870" data-name="パス 870" d="M83.572,71.827a1.511,1.511,0,1,1-1.563,1.441,1.4,1.4,0,0,1,1.563-1.441" transform="translate(-17.805 -15.894)" fill="#ffb64b"/>
        <path id="パス_871" data-name="パス 871" d="M95.375,145.142c-.186.9-.716,1.558-1.682,1.476a1.5,1.5,0,0,1-1.488-1.681,1.458,1.458,0,0,1,1.572-1.411,1.579,1.579,0,0,1,1.6,1.617" transform="translate(-20.018 -31.759)" fill="#ffb64b"/>
        <path id="パス_872" data-name="パス 872" d="M93.829,54.3a1.417,1.417,0,0,1-1.617-1.383,1.566,1.566,0,1,1,3.128-.086c0,.942-.579,1.416-1.51,1.469" transform="translate(-20.02 -11.336)" fill="#ffb64b"/>
        <path id="パス_873" data-name="パス 873" d="M84.014,54.28c-1.369.043-1.935-.426-2-1.359A1.475,1.475,0,0,1,83.5,51.229a1.49,1.49,0,0,1,1.617,1.585,1.382,1.382,0,0,1-1.108,1.465" transform="translate(-17.805 -11.336)" fill="#ffb64b"/>
        <path id="パス_874" data-name="パス 874" d="M105.567,42.318c-.07,1.189-.56,1.761-1.579,1.767a1.508,1.508,0,0,1-1.573-1.443,1.534,1.534,0,0,1,1.523-1.671,1.578,1.578,0,0,1,1.629,1.347" transform="translate(-22.235 -9.065)" fill="#ffb64b"/>
        <path id="パス_875" data-name="パス 875" d="M104.114,33.931a1.669,1.669,0,0,1-1.693-1.562,1.508,1.508,0,0,1,1.58-1.6,1.4,1.4,0,0,1,1.533,1.427,1.564,1.564,0,0,1-1.419,1.733" transform="translate(-22.237 -6.809)" fill="#ffb64b"/>
        <path id="パス_876" data-name="パス 876" d="M115.743,32.393c-.057.911-.514,1.51-1.471,1.5a1.489,1.489,0,0,1-1.577-1.624,1.462,1.462,0,0,1,1.692-1.5,1.361,1.361,0,0,1,1.356,1.621" transform="translate(-24.468 -6.807)" fill="#ffb64b"/>
        <path id="パス_877" data-name="パス 877" d="M71.778,93.713a1.449,1.449,0,0,1,1.509-1.473A1.422,1.422,0,0,1,74.8,93.88a1.4,1.4,0,0,1-1.5,1.488c-1.048-.009-1.491-.641-1.525-1.655" transform="translate(-15.584 -20.411)" fill="#ffb64b"/>
        <path id="パス_878" data-name="パス 878" d="M73.229,40.9a1.564,1.564,0,0,1,1.572,1.5,1.412,1.412,0,0,1-1.45,1.68,1.358,1.358,0,0,1-1.55-1.413c-.1-1.05.536-1.5,1.428-1.761" transform="translate(-15.587 -9.05)" fill="#ffb64b"/>
        <path id="パス_879" data-name="パス 879" d="M33.912,21.984a1.567,1.567,0,0,1-1.609,1.63,1.456,1.456,0,0,1-1.56-1.466,1.4,1.4,0,0,1,1.4-1.576,1.552,1.552,0,0,1,1.767,1.412" transform="translate(-6.675 -4.55)" fill="#ffb64b"/>
        <path id="パス_880" data-name="パス 880" d="M115.756,165.571a1.313,1.313,0,0,1-1.413,1.464,1.444,1.444,0,0,1-1.646-1.511,1.531,1.531,0,1,1,3.059.047" transform="translate(-24.468 -36.278)" fill="#ffb64b"/>
        <path id="パス_881" data-name="パス 881" d="M126.033,32.456a1.5,1.5,0,1,1-2.989-.174,1.394,1.394,0,0,1,1.619-1.51c.927.057,1.379.673,1.37,1.684" transform="translate(-26.715 -6.808)" fill="#ffb64b"/>
        <path id="パス_882" data-name="パス 882" d="M32.307,40.876c.87.255,1.587.722,1.559,1.69a1.562,1.562,0,0,1-3.122-.005c-.021-.968.648-1.457,1.563-1.684" transform="translate(-6.675 -9.045)" fill="#ffb64b"/>
        <path id="パス_883" data-name="パス 883" d="M40.855,42.621c.188-.926.7-1.65,1.628-1.642a1.5,1.5,0,0,1,1.568,1.586,1.4,1.4,0,0,1-1.444,1.519c-1.033.076-1.444-.641-1.752-1.464" transform="translate(-8.87 -9.068)" fill="#ffb64b"/>
        <path id="パス_884" data-name="パス 884" d="M54.283,42.561c-.055,1-.544,1.563-1.58,1.525A1.491,1.491,0,0,1,51.186,42.6a1.51,1.51,0,0,1,1.552-1.63,1.467,1.467,0,0,1,1.545,1.591" transform="translate(-11.113 -9.066)" fill="#ffb64b"/>
        <path id="パス_885" data-name="パス 885" d="M104.038,167.055a1.55,1.55,0,1,1,1.5-1.445c-.03.962-.588,1.381-1.5,1.445" transform="translate(-22.236 -36.28)" fill="#ffb64b"/>
        <path id="パス_886" data-name="パス 886" d="M115.757,155.275c-.038.976-.469,1.594-1.522,1.564a1.563,1.563,0,0,1-.045-3.123,1.434,1.434,0,0,1,1.567,1.56" transform="translate(-24.468 -34.014)" fill="#ffb64b"/>
        <path id="パス_887" data-name="パス 887" d="M85.172,42.636c-.258.873-.731,1.511-1.743,1.447a1.39,1.39,0,0,1-1.416-1.539,1.478,1.478,0,0,1,1.572-1.569c.925.018,1.455.709,1.588,1.661" transform="translate(-17.806 -9.067)" fill="#ffb64b"/>
        <path id="パス_888" data-name="パス 888" d="M95.384,42.5c-.136.994-.634,1.591-1.637,1.575a1.464,1.464,0,0,1-1.54-1.449,1.512,1.512,0,0,1,1.52-1.659c.944-.04,1.464.653,1.657,1.533" transform="translate(-20.019 -9.066)" fill="#ffb64b"/>
        <path id="パス_889" data-name="パス 889" d="M83.612,3.039a1.365,1.365,0,0,1-1.6-1.374A1.446,1.446,0,0,1,83.514,0a1.465,1.465,0,0,1,1.613,1.568c0,.927-.6,1.4-1.514,1.469" transform="translate(-17.805 0)" fill="#ffb64b"/>
        <path id="パス_890" data-name="パス 890" d="M115.738,42.892a1.294,1.294,0,0,1-1.477,1.194,1.561,1.561,0,1,1,.056-3.122c.949.033,1.476.682,1.421,1.928" transform="translate(-24.47 -9.064)" fill="#ffb64b"/>
        <path id="パス_891" data-name="パス 891" d="M85.173,155.295c-.21.885-.636,1.554-1.654,1.546a1.407,1.407,0,0,1-1.51-1.453,1.476,1.476,0,0,1,1.49-1.66c.956-.053,1.461.655,1.675,1.568" transform="translate(-17.805 -34.016)" fill="#ffb64b"/>
        <path id="パス_892" data-name="パス 892" d="M133.232,42.576c.129-1.089.709-1.668,1.65-1.611a1.565,1.565,0,0,1-.146,3.123c-1.089,0-1.387-.721-1.5-1.512" transform="translate(-28.927 -9.064)" fill="#ffb64b"/>
        <path id="パス_893" data-name="パス 893" d="M146.662,42.536c-.193.927-.672,1.547-1.67,1.547a1.413,1.413,0,0,1-1.517-1.454,1.5,1.5,0,0,1,1.509-1.655c.937-.041,1.463.661,1.678,1.562" transform="translate(-31.15 -9.066)" fill="#ffb64b"/>
        <path id="パス_894" data-name="パス 894" d="M93.769,3.034a1.384,1.384,0,0,1-1.562-1.449,1.569,1.569,0,1,1,3.136.082c-.054.97-.683,1.36-1.574,1.367" transform="translate(-20.02 -0.003)" fill="#ffb64b"/>
        <path id="パス_895" data-name="パス 895" d="M32.271,153.637c.9.218,1.6.693,1.594,1.655a1.56,1.56,0,0,1-3.117.052c-.072-.977.652-1.44,1.523-1.707" transform="translate(-6.675 -33.997)" fill="#ffb64b"/>
        <path id="パス_896" data-name="パス 896" d="M115.747,145.062a1.384,1.384,0,0,1-1.418,1.573,1.48,1.48,0,0,1-1.633-1.561,1.461,1.461,0,0,1,1.639-1.546,1.34,1.34,0,0,1,1.412,1.534" transform="translate(-24.468 -31.76)" fill="#ffb64b"/>
        <path id="パス_897" data-name="パス 897" d="M21.925,54.3a1.314,1.314,0,0,1-1.381-1.431,1.545,1.545,0,1,1,3.084,0c-.043.878-.6,1.432-1.7,1.434" transform="translate(-4.46 -11.336)" fill="#ffb64b"/>
        <path id="パス_898" data-name="パス 898" d="M32.216,54.3a1.367,1.367,0,0,1-1.471-1.446,1.563,1.563,0,1,1,3.123.041c-.047.91-.637,1.4-1.652,1.4" transform="translate(-6.675 -11.336)" fill="#ffb64b"/>
        <path id="パス_899" data-name="パス 899" d="M42.376,54.3a1.444,1.444,0,0,1-1.437-1.6,1.568,1.568,0,0,1,3.133.112c0,1.038-.6,1.48-1.7,1.493" transform="translate(-8.888 -11.336)" fill="#ffb64b"/>
        <path id="パス_900" data-name="パス 900" d="M83.547,146.678c-.887-.174-1.509-.606-1.541-1.543a1.44,1.44,0,0,1,1.554-1.6,1.46,1.46,0,0,1,1.556,1.474c.037.987-.656,1.477-1.57,1.669" transform="translate(-17.805 -31.761)" fill="#ffb64b"/>
        <path id="パス_901" data-name="パス 901" d="M71.791,145.213c0-1.117.55-1.682,1.536-1.686a1.391,1.391,0,0,1,1.48,1.5,1.426,1.426,0,0,1-1.545,1.607,1.389,1.389,0,0,1-1.472-1.424" transform="translate(-15.587 -31.76)" fill="#ffb64b"/>
        <path id="パス_902" data-name="パス 902" d="M54.279,145.11a1.4,1.4,0,0,1-1.524,1.52,1.5,1.5,0,0,1-1.57-1.6,1.488,1.488,0,0,1,1.663-1.5,1.4,1.4,0,0,1,1.431,1.584" transform="translate(-11.113 -31.759)" fill="#ffb64b"/>
        <path id="パス_903" data-name="パス 903" d="M85.174,32.311c-.211.889-.662,1.6-1.651,1.571a1.448,1.448,0,0,1-1.513-1.62,1.432,1.432,0,0,1,1.477-1.494c.982-.03,1.477.625,1.687,1.542" transform="translate(-17.806 -6.808)" fill="#ffb64b"/>
        <path id="パス_904" data-name="パス 904" d="M71.771,32.544c.042-1.158.535-1.781,1.549-1.779A1.389,1.389,0,0,1,74.8,32.274a1.52,1.52,0,0,1-3.027.27" transform="translate(-15.583 -6.808)" fill="#ffb64b"/>
        <path id="パス_905" data-name="パス 905" d="M104.108,54.3a1.477,1.477,0,0,1-1.7-1.456,1.5,1.5,0,0,1,1.567-1.611,1.467,1.467,0,0,1,1.56,1.582,1.35,1.35,0,0,1-1.428,1.486" transform="translate(-22.234 -11.336)" fill="#ffb64b"/>
        <path id="パス_906" data-name="パス 906" d="M115.753,52.788c-.027.916-.416,1.476-1.416,1.5a1.436,1.436,0,0,1-1.643-1.5,1.48,1.48,0,0,1,1.624-1.566,1.424,1.424,0,0,1,1.436,1.568" transform="translate(-24.468 -11.333)" fill="#ffb64b"/>
        <path id="パス_907" data-name="パス 907" d="M44.092,145.213a1.576,1.576,0,1,1-1.419-1.684,1.506,1.506,0,0,1,1.419,1.684" transform="translate(-8.89 -31.758)" fill="#ffb64b"/>
        <path id="パス_908" data-name="パス 908" d="M22.024,146.673c-.957-.2-1.552-.7-1.48-1.726a1.4,1.4,0,0,1,1.564-1.418,1.461,1.461,0,0,1,1.515,1.511c.01.974-.644,1.493-1.6,1.632" transform="translate(-4.459 -31.76)" fill="#ffb64b"/>
        <path id="パス_909" data-name="パス 909" d="M145.377,54.295c-1.3.009-1.863-.5-1.9-1.414a1.483,1.483,0,0,1,1.552-1.648,1.506,1.506,0,0,1,1.582,1.631,1.373,1.373,0,0,1-1.232,1.431" transform="translate(-31.151 -11.337)" fill="#ffb64b"/>
        <path id="パス_910" data-name="パス 910" d="M155.217,54.3a1.443,1.443,0,0,1-1.538-1.577,1.565,1.565,0,0,1,3.128.058c0,1.025-.586,1.493-1.591,1.519" transform="translate(-33.366 -11.333)" fill="#ffb64b"/>
        <path id="パス_911" data-name="パス 911" d="M64.532,32.437a1.367,1.367,0,0,1-1.474,1.455,1.429,1.429,0,0,1-1.52-1.631,1.4,1.4,0,0,1,1.495-1.494c1.018,0,1.512.617,1.5,1.67" transform="translate(-13.361 -6.808)" fill="#ffb64b"/>
        <path id="パス_912" data-name="パス 912" d="M146.654,134.877a1.617,1.617,0,0,1-1.736,1.494,1.45,1.45,0,0,1-1.444-1.581,1.419,1.419,0,0,1,1.678-1.464c.952.055,1.376.655,1.5,1.551" transform="translate(-31.15 -29.501)" fill="#ffb64b"/>
        <path id="パス_913" data-name="パス 913" d="M115.746,134.591c.013,1.19-.521,1.781-1.514,1.788a1.526,1.526,0,1,1,.016-3.052c.946-.009,1.462.474,1.5,1.264" transform="translate(-24.466 -29.502)" fill="#ffb64b"/>
        <path id="パス_914" data-name="パス 914" d="M103.952,133.3c.956.055,1.547.461,1.583,1.437a1.447,1.447,0,0,1-1.527,1.635,1.471,1.471,0,0,1-1.592-1.451,1.5,1.5,0,0,1,1.536-1.621" transform="translate(-22.236 -29.496)" fill="#ffb64b"/>
        <path id="パス_915" data-name="パス 915" d="M54.281,134.707a1.553,1.553,0,1,1-3.1.211,1.449,1.449,0,0,1,1.57-1.59,1.342,1.342,0,0,1,1.529,1.379" transform="translate(-11.112 -29.503)" fill="#ffb64b"/>
        <path id="パス_916" data-name="パス 916" d="M33.912,134.754a1.587,1.587,0,0,1-1.6,1.618,1.457,1.457,0,0,1-1.562-1.465,1.4,1.4,0,0,1,1.4-1.581,1.541,1.541,0,0,1,1.769,1.427" transform="translate(-6.675 -29.5)" fill="#ffb64b"/>
        <path id="パス_917" data-name="パス 917" d="M22.093,133.3a1.533,1.533,0,1,1-.045,3.066,1.423,1.423,0,0,1-1.5-1.642,1.4,1.4,0,0,1,1.548-1.424" transform="translate(-4.46 -29.497)" fill="#ffb64b"/>
        <path id="パス_918" data-name="パス 918" d="M145.07,123.051c1.036.094,1.606.644,1.538,1.644-.064.943-.719,1.353-1.632,1.339a1.354,1.354,0,0,1-1.5-1.454,1.442,1.442,0,0,1,1.6-1.529" transform="translate(-31.15 -27.229)" fill="#ffb64b"/>
        <path id="パス_919" data-name="パス 919" d="M155.247,115.787a1.406,1.406,0,0,1-1.576-1.419,1.476,1.476,0,0,1,1.585-1.608,1.455,1.455,0,0,1,1.551,1.623c-.034.973-.629,1.386-1.559,1.4" transform="translate(-33.364 -24.951)" fill="#ffb64b"/>
        <path id="パス_920" data-name="パス 920" d="M104.367,115.778c-1.34.037-1.945-.551-1.957-1.5a1.464,1.464,0,0,1,1.52-1.519,1.442,1.442,0,0,1,1.606,1.55c.009.973-.524,1.428-1.169,1.466" transform="translate(-22.235 -24.952)" fill="#ffb64b"/>
        <path id="パス_921" data-name="パス 921" d="M93.763,115.786a1.383,1.383,0,0,1-1.555-1.427,1.567,1.567,0,1,1,3.133.034c-.04.952-.644,1.385-1.578,1.392" transform="translate(-20.02 -24.951)" fill="#ffb64b"/>
        <path id="パス_922" data-name="パス 922" d="M83.142,115.8c-.513.012-1.08-.453-1.131-1.39a1.558,1.558,0,1,1,3.113-.062c-.019.9-.583,1.427-1.981,1.452" transform="translate(-17.805 -24.951)" fill="#ffb64b"/>
        <path id="パス_923" data-name="パス 923" d="M42.934,115.771c-1.386.045-1.99-.524-2-1.49a1.571,1.571,0,0,1,3.142.032,1.3,1.3,0,0,1-1.141,1.458" transform="translate(-8.887 -24.952)" fill="#ffb64b"/>
        <path id="パス_924" data-name="パス 924" d="M21.6,115.776c-.561-.019-1.057-.53-1.055-1.469a1.432,1.432,0,0,1,1.6-1.548,1.419,1.419,0,0,1,1.484,1.519c-.006.981-.591,1.529-2.027,1.5" transform="translate(-4.461 -24.951)" fill="#ffb64b"/>
        <path id="パス_925" data-name="パス 925" d="M167.017,103.984c-.028.981-.471,1.521-1.422,1.575a1.492,1.492,0,0,1-1.686-1.469,1.508,1.508,0,0,1,1.544-1.639,1.485,1.485,0,0,1,1.564,1.533" transform="translate(-35.586 -22.67)" fill="#ffb64b"/>
        <path id="パス_926" data-name="パス 926" d="M145.064,64.537c-1.011-.017-1.584-.5-1.591-1.433a1.569,1.569,0,1,1,3.136.065,1.381,1.381,0,0,1-1.545,1.368" transform="translate(-31.151 -13.621)" fill="#ffb64b"/>
        <path id="パス_927" data-name="パス 927" d="M134.827,105.576a1.4,1.4,0,0,1-1.549-1.49,1.524,1.524,0,1,1,1.549,1.49" transform="translate(-28.936 -22.669)" fill="#ffb64b"/>
        <path id="パス_928" data-name="パス 928" d="M115.76,103.825c-.023,1.107-.418,1.68-1.388,1.733A1.467,1.467,0,0,1,112.7,104.1a1.492,1.492,0,0,1,1.507-1.655,1.444,1.444,0,0,1,1.557,1.38" transform="translate(-24.467 -22.668)" fill="#ffb64b"/>
        <path id="パス_929" data-name="パス 929" d="M93.839,105.579a1.565,1.565,0,1,1-.011-3.128,1.551,1.551,0,0,1,1.509,1.522c.062,1.007-.559,1.5-1.5,1.606" transform="translate(-20.021 -22.67)" fill="#ffb64b"/>
        <path id="パス_930" data-name="パス 930" d="M54.287,104.061c-.061.945-.507,1.486-1.467,1.5a1.482,1.482,0,0,1-1.631-1.519,1.51,1.51,0,0,1,1.588-1.593,1.5,1.5,0,0,1,1.51,1.614" transform="translate(-11.114 -22.669)" fill="#ffb64b"/>
        <path id="パス_931" data-name="パス 931" d="M32.262,102.355c.867.235,1.591.68,1.6,1.648a1.426,1.426,0,0,1-1.594,1.533,1.407,1.407,0,0,1-1.531-1.436c-.057-.977.626-1.466,1.52-1.744" transform="translate(-6.674 -22.649)" fill="#ffb64b"/>
        <path id="パス_932" data-name="パス 932" d="M33.918,73.225c-.112,1.037-.651,1.631-1.639,1.628a1.422,1.422,0,0,1-1.534-1.472,1.386,1.386,0,0,1,1.431-1.539,1.528,1.528,0,0,1,1.741,1.383" transform="translate(-6.675 -15.896)" fill="#ffb64b"/>
        <path id="パス_933" data-name="パス 933" d="M42.721,71.836a1.349,1.349,0,0,1,1.351,1.5,1.57,1.57,0,0,1-3.137,0c.032-.946.635-1.524,1.786-1.5" transform="translate(-8.888 -15.896)" fill="#ffb64b"/>
        <path id="パス_934" data-name="パス 934" d="M23.668,104.118c-.221.869-.682,1.488-1.707,1.441a1.356,1.356,0,0,1-1.415-1.516,1.466,1.466,0,0,1,1.545-1.593c.919,0,1.47.685,1.578,1.669" transform="translate(-4.461 -22.67)" fill="#ffb64b"/>
        <path id="パス_935" data-name="パス 935" d="M3.029,104.332a1.272,1.272,0,0,1-1.455,1.226,1.433,1.433,0,0,1-1.568-1.584,1.46,1.46,0,0,1,1.5-1.528c.948-.008,1.542.594,1.523,1.886" transform="translate(-0.001 -22.669)" fill="#ffb64b"/>
        <path id="パス_936" data-name="パス 936" d="M155.481,95.423c-1.166-.125-1.786-.719-1.8-1.616a1.5,1.5,0,0,1,1.617-1.557,1.467,1.467,0,0,1,1.506,1.484,1.649,1.649,0,0,1-1.322,1.688" transform="translate(-33.367 -20.413)" fill="#ffb64b"/>
        <path id="パス_937" data-name="パス 937" d="M54.279,32.467a1.407,1.407,0,0,1-1.6,1.417A1.525,1.525,0,0,1,51.183,32.2a1.5,1.5,0,0,1,1.586-1.432c.975.023,1.516.589,1.51,1.7" transform="translate(-11.112 -6.808)" fill="#ffb64b"/>
        <path id="パス_938" data-name="パス 938" d="M42.559,30.678c.959.262,1.606.73,1.508,1.747a1.442,1.442,0,0,1-1.545,1.438,1.524,1.524,0,0,1-1.577-1.607c.016-.934.752-1.406,1.614-1.578" transform="translate(-8.89 -6.788)" fill="#ffb64b"/>
        <path id="パス_939" data-name="パス 939" d="M83.565,95.407c-.972-.136-1.563-.635-1.557-1.628a1.446,1.446,0,0,1,1.453-1.532,1.5,1.5,0,0,1,1.652,1.519c.034.944-.609,1.483-1.548,1.641" transform="translate(-17.805 -20.412)" fill="#ffb64b"/>
        <path id="パス_940" data-name="パス 940" d="M93.589,20.525c1.044.075,1.691.468,1.753,1.419a1.569,1.569,0,1,1-3.135.083,1.491,1.491,0,0,1,1.382-1.5" transform="translate(-20.02 -4.542)" fill="#ffb64b"/>
        <path id="パス_941" data-name="パス 941" d="M44.108,93.728c-.1.986-.557,1.626-1.563,1.635a1.558,1.558,0,0,1-.1-3.114,1.55,1.55,0,0,1,1.668,1.479" transform="translate(-8.891 -20.412)" fill="#ffb64b"/>
        <path id="パス_942" data-name="パス 942" d="M22.164,95.4c-1.009-.084-1.588-.561-1.624-1.564a1.436,1.436,0,0,1,1.379-1.589,1.48,1.48,0,0,1,1.7,1.459A1.572,1.572,0,0,1,22.164,95.4" transform="translate(-4.459 -20.41)" fill="#ffb64b"/>
        <path id="パス_943" data-name="パス 943" d="M146.651,73.291a1.554,1.554,0,0,1-1.65,1.56,1.418,1.418,0,0,1-1.528-1.476,1.379,1.379,0,0,1,1.44-1.532,1.528,1.528,0,0,1,1.737,1.448" transform="translate(-31.15 -15.896)" fill="#ffb64b"/>
        <path id="パス_944" data-name="パス 944" d="M155.429,71.836a1.351,1.351,0,0,1,1.38,1.475,1.569,1.569,0,0,1-3.136.038c.017-.937.6-1.535,1.756-1.513" transform="translate(-33.365 -15.896)" fill="#ffb64b"/>
        <path id="パス_945" data-name="パス 945" d="M115.75,22.013a1.4,1.4,0,0,1-1.52,1.61,1.524,1.524,0,1,1,.025-3.048,1.333,1.333,0,0,1,1.5,1.438" transform="translate(-24.467 -4.553)" fill="#ffb64b"/>
        <path id="パス_946" data-name="パス 946" d="M3.034,83.472c-.006,1.1-.553,1.641-1.451,1.661a1.54,1.54,0,1,1,.07-3.076,1.29,1.29,0,0,1,1.381,1.415" transform="translate(-0.001 -18.157)" fill="#ffb64b"/>
        <path id="パス_947" data-name="パス 947" d="M145.035,85.177c-.932-.208-1.619-.673-1.562-1.689a1.428,1.428,0,0,1,1.563-1.439,1.46,1.46,0,0,1,1.57,1.451c.052,1.009-.673,1.459-1.57,1.677" transform="translate(-31.15 -18.156)" fill="#ffb64b"/>
        <path id="パス_948" data-name="パス 948" d="M93.693,81.971c1.017.178,1.682.611,1.648,1.63a1.471,1.471,0,0,1-1.495,1.505A1.5,1.5,0,0,1,92.2,83.578c-.03-.97.655-1.434,1.488-1.607" transform="translate(-20.019 -18.138)" fill="#ffb64b"/>
        <path id="パス_949" data-name="パス 949" d="M32.265,82c.942.111,1.607.584,1.6,1.562a1.564,1.564,0,0,1-3.125.075c-.045-.97.561-1.491,1.523-1.637" transform="translate(-6.674 -18.144)" fill="#ffb64b"/>
        <path id="パス_950" data-name="パス 950" d="M42.6,82c.864.167,1.484.579,1.47,1.547a1.457,1.457,0,0,1-1.61,1.561,1.481,1.481,0,0,1-1.522-1.526A1.6,1.6,0,0,1,42.6,82" transform="translate(-8.889 -18.145)" fill="#ffb64b"/>
        <path id="パス_951" data-name="パス 951" d="M23.672,32.371c-.237.882-.693,1.591-1.719,1.516a1.561,1.561,0,0,1,.218-3.113c.9.055,1.368.7,1.5,1.6" transform="translate(-4.461 -6.809)" fill="#ffb64b"/>
        <path id="パス_952" data-name="パス 952" d="M146.658,32.409c-.272.852-.745,1.56-1.737,1.473a1.475,1.475,0,0,1-1.441-1.705,1.44,1.44,0,0,1,1.576-1.407,1.651,1.651,0,0,1,1.6,1.639" transform="translate(-31.15 -6.808)" fill="#ffb64b"/>
        <path id="パス_953" data-name="パス 953" d="M52.741,167.062a1.521,1.521,0,0,1-1.558-1.515,1.5,1.5,0,0,1,1.614-1.592,1.468,1.468,0,0,1,1.472,1.7c-.049.987-.639,1.369-1.527,1.41" transform="translate(-11.113 -36.279)" fill="#ffb64b"/>
        <path id="パス_954" data-name="パス 954" d="M83.551,85.174c-.933-.2-1.6-.653-1.544-1.681a1.41,1.41,0,0,1,1.545-1.443A1.458,1.458,0,0,1,85.118,83.5c.052,1-.644,1.478-1.567,1.671" transform="translate(-17.805 -18.156)" fill="#ffb64b"/>
        <path id="パス_955" data-name="パス 955" d="M33.92,32.408c-.278.84-.724,1.579-1.727,1.473a1.5,1.5,0,0,1-1.447-1.7,1.462,1.462,0,0,1,1.578-1.408c.973.037,1.453.688,1.6,1.64" transform="translate(-6.673 -6.808)" fill="#ffb64b"/>
        <path id="パス_956" data-name="パス 956" d="M93.766,30.7c.915.182,1.592.632,1.57,1.629a1.56,1.56,0,0,1-3.119.026c-.067-.947.631-1.453,1.549-1.656" transform="translate(-20.021 -6.793)" fill="#ffb64b"/>
        <path id="パス_957" data-name="パス 957" d="M134.781,23.648a1.476,1.476,0,0,1-1.5-1.406,1.389,1.389,0,0,1,1.433-1.668,1.413,1.413,0,0,1,1.61,1.519c.026.9-.534,1.434-1.545,1.555" transform="translate(-28.937 -4.552)" fill="#ffb64b"/>
        <path id="パス_958" data-name="パス 958" d="M123.026,83.576a1.393,1.393,0,0,1,1.458-1.519,1.539,1.539,0,0,1,.1,3.075,1.413,1.413,0,0,1-1.556-1.556" transform="translate(-26.711 -18.157)" fill="#ffb64b"/>
        <path id="パス_959" data-name="パス 959" d="M136.355,83.56c-.111.949-.593,1.563-1.513,1.57a1.416,1.416,0,0,1-1.561-1.575,1.385,1.385,0,0,1,1.61-1.5c.939.039,1.347.689,1.464,1.508" transform="translate(-28.938 -18.156)" fill="#ffb64b"/>
        <path id="パス_960" data-name="パス 960" d="M93.822,156.873a1.563,1.563,0,0,1-1.6-1.6,1.56,1.56,0,0,1,3.119-.023c.034.985-.592,1.484-1.514,1.624" transform="translate(-20.022 -34.016)" fill="#ffb64b"/>
        <path id="パス_961" data-name="パス 961" d="M71.779,155.352a1.487,1.487,0,0,1,1.554-1.633,1.564,1.564,0,0,1-.074,3.124c-.974-.012-1.4-.593-1.48-1.491" transform="translate(-15.585 -34.015)" fill="#ffb64b"/>
        <path id="パス_962" data-name="パス 962" d="M167,83.863a1.375,1.375,0,0,1-1.49,1.263,1.541,1.541,0,1,1,.106-3.073c.909.072,1.419.616,1.384,1.81" transform="translate(-35.588 -18.155)" fill="#ffb64b"/>
        <path id="パス_963" data-name="パス 963" d="M165.473,71.825c.921.041,1.494.435,1.532,1.418a1.4,1.4,0,0,1-1.518,1.606,1.42,1.42,0,0,1-1.574-1.427,1.463,1.463,0,0,1,1.56-1.6" transform="translate(-35.588 -15.893)" fill="#ffb64b"/>
        <path id="パス_964" data-name="パス 964" d="M13.312,93.864c-.107.891-.507,1.515-1.486,1.5a1.566,1.566,0,0,1-.035-3.128c1.017-.018,1.487.643,1.521,1.624" transform="translate(-2.239 -20.411)" fill="#ffb64b"/>
        <path id="パス_965" data-name="パス 965" d="M134.849,71.832a1.381,1.381,0,0,1,1.473,1.5,1.4,1.4,0,0,1-1.6,1.522,1.511,1.511,0,0,1,.124-3.019" transform="translate(-28.938 -15.895)" fill="#ffb64b"/>
        <path id="パス_966" data-name="パス 966" d="M33.926,93.827c-.235.868-.654,1.587-1.67,1.533a1.557,1.557,0,0,1,.009-3.113c.965-.016,1.461.659,1.66,1.58" transform="translate(-6.675 -20.412)" fill="#ffb64b"/>
        <path id="パス_967" data-name="パス 967" d="M155.143,40.839c.931.276,1.639.681,1.657,1.677a1.4,1.4,0,0,1-1.43,1.535,1.506,1.506,0,0,1-1.7-1.459c-.1-.989.712-1.4,1.474-1.753" transform="translate(-33.362 -9.037)" fill="#ffb64b"/>
        <path id="パス_968" data-name="パス 968" d="M105.554,22.033a1.475,1.475,0,0,1-1.586,1.581,1.46,1.46,0,0,1-1.554-1.479,1.478,1.478,0,0,1,1.617-1.561,1.4,1.4,0,0,1,1.523,1.459" transform="translate(-22.236 -4.553)" fill="#ffb64b"/>
        <path id="パス_969" data-name="パス 969" d="M64.529,93.992A1.328,1.328,0,0,1,63.1,95.366a1.561,1.561,0,1,1,.045-3.121c.9.049,1.4.648,1.382,1.747" transform="translate(-13.361 -20.411)" fill="#ffb64b"/>
        <path id="パス_970" data-name="パス 970" d="M115.749,73.319a1.368,1.368,0,0,1-1.423,1.535,1.51,1.51,0,1,1-.014-3.011,1.318,1.318,0,0,1,1.437,1.476" transform="translate(-24.467 -15.897)" fill="#ffb64b"/>
        <path id="パス_971" data-name="パス 971" d="M104.086,71.823c.914.083,1.461.528,1.45,1.5a1.564,1.564,0,0,1-3.126.014,1.492,1.492,0,0,1,1.676-1.516" transform="translate(-22.235 -15.893)" fill="#ffb64b"/>
        <path id="パス_972" data-name="パス 972" d="M95.389,93.8c-.181.907-.626,1.588-1.632,1.561a1.556,1.556,0,0,1-.034-3.112c.962-.034,1.481.617,1.667,1.551" transform="translate(-20.021 -20.413)" fill="#ffb64b"/>
        <path id="パス_973" data-name="パス 973" d="M85.166,22.035c-.141.988-.69,1.609-1.665,1.576A1.429,1.429,0,0,1,82,22.105a1.4,1.4,0,0,1,1.444-1.532c1.026-.069,1.514.552,1.718,1.462" transform="translate(-17.804 -4.551)" fill="#ffb64b"/>
        <path id="パス_974" data-name="パス 974" d="M145.057,146.678c-.907-.165-1.533-.621-1.584-1.526a1.564,1.564,0,0,1,3.12-.2c.041.962-.71,1.435-1.536,1.725" transform="translate(-31.15 -31.76)" fill="#ffb64b"/>
        <path id="パス_975" data-name="パス 975" d="M126.041,93.841c-.067.878-.467,1.5-1.437,1.525a1.391,1.391,0,0,1-1.56-1.568,1.408,1.408,0,0,1,1.585-1.554c.92.034,1.381.658,1.412,1.6" transform="translate(-26.715 -20.411)" fill="#ffb64b"/>
        <path id="パス_976" data-name="パス 976" d="M136.361,93.845c-.211.9-.633,1.6-1.688,1.519a1.4,1.4,0,0,1-1.394-1.588,1.424,1.424,0,0,1,1.462-1.535c1.014-.038,1.475.663,1.621,1.6" transform="translate(-28.937 -20.411)" fill="#ffb64b"/>
        <path id="パス_977" data-name="パス 977" d="M145.146,95.433c-1.085-.179-1.7-.7-1.668-1.672a1.463,1.463,0,0,1,1.488-1.509,1.515,1.515,0,0,1,1.636,1.539c.026.971-.7,1.411-1.456,1.642" transform="translate(-31.151 -20.413)" fill="#ffb64b"/>
        <path id="パス_978" data-name="パス 978" d="M126.037,145c-.023.977-.476,1.63-1.5,1.631a1.38,1.38,0,0,1-1.5-1.475,1.408,1.408,0,0,1,1.495-1.631,1.394,1.394,0,0,1,1.5,1.474" transform="translate(-26.713 -31.76)" fill="#ffb64b"/>
        <path id="パス_979" data-name="パス 979" d="M54.282,52.783a1.343,1.343,0,0,1-1.417,1.506,1.461,1.461,0,0,1-1.682-1.483A1.493,1.493,0,0,1,52.8,51.221a1.464,1.464,0,0,1,1.48,1.562" transform="translate(-11.113 -11.334)" fill="#ffb64b"/>
        <path id="パス_980" data-name="パス 980" d="M64.528,145.091a1.378,1.378,0,0,1-1.421,1.54,1.55,1.55,0,1,1,.028-3.1,1.36,1.36,0,0,1,1.393,1.559" transform="translate(-13.361 -31.76)" fill="#ffb64b"/>
        <path id="パス_981" data-name="パス 981" d="M33.921,145.016c-.162.945-.66,1.619-1.626,1.6a1.492,1.492,0,0,1-1.551-1.607,1.433,1.433,0,0,1,1.478-1.491c.987-.041,1.48.6,1.7,1.494" transform="translate(-6.675 -31.758)" fill="#ffb64b"/>
        <path id="パス_982" data-name="パス 982" d="M134.622,54.3a1.329,1.329,0,0,1-1.339-1.517,1.453,1.453,0,0,1,1.6-1.553,1.418,1.418,0,0,1,1.44,1.558,1.45,1.45,0,0,1-1.7,1.511" transform="translate(-28.938 -11.336)" fill="#ffb64b"/>
        <path id="パス_983" data-name="パス 983" d="M52.748,71.825c.911.045,1.491.43,1.522,1.419a1.4,1.4,0,0,1-1.518,1.606,1.426,1.426,0,0,1-1.572-1.428,1.469,1.469,0,0,1,1.568-1.6" transform="translate(-11.112 -15.893)" fill="#ffb64b"/>
        <path id="パス_984" data-name="パス 984" d="M21.973,71.831a1.445,1.445,0,0,1,1.654,1.55,1.394,1.394,0,0,1-1.517,1.468,1.4,1.4,0,0,1-1.566-1.559,1.358,1.358,0,0,1,1.429-1.459" transform="translate(-4.46 -15.895)" fill="#ffb64b"/>
        <path id="パス_985" data-name="パス 985" d="M22,20.518c1.055.132,1.617.66,1.624,1.54a1.439,1.439,0,0,1-1.6,1.545,1.388,1.388,0,0,1-1.482-1.479c.006-1.029.732-1.384,1.458-1.606" transform="translate(-4.461 -4.54)" fill="#ffb64b"/>
        <path id="パス_986" data-name="パス 986" d="M136.351,134.8c-.088.926-.555,1.551-1.471,1.573a1.413,1.413,0,0,1-1.6-1.531,1.361,1.361,0,0,1,1.424-1.522c1.06-.056,1.49.578,1.644,1.48" transform="translate(-28.938 -29.5)" fill="#ffb64b"/>
        <path id="パス_987" data-name="パス 987" d="M32.3,64.539c-.992-.025-1.569-.528-1.555-1.447a1.427,1.427,0,0,1,1.611-1.536,1.413,1.413,0,0,1,1.52,1.472c.019,1.033-.619,1.492-1.577,1.511" transform="translate(-6.675 -13.621)" fill="#ffb64b"/>
        <path id="パス_988" data-name="パス 988" d="M83.616,13.339c-.981-.05-1.576-.493-1.6-1.433a1.558,1.558,0,0,1,3.11-.146c.055,1.015-.583,1.5-1.506,1.579" transform="translate(-17.806 -2.289)" fill="#ffb64b"/>
        <path id="パス_989" data-name="パス 989" d="M93.882,126.053c-1.037-.019-1.66-.493-1.673-1.409a1.569,1.569,0,0,1,3.137,0,1.368,1.368,0,0,1-1.464,1.41" transform="translate(-20.02 -27.235)" fill="#ffb64b"/>
        <path id="パス_990" data-name="パス 990" d="M83.577,126.046a1.368,1.368,0,0,1-1.564-1.392,1.386,1.386,0,0,1,1.536-1.581,1.412,1.412,0,0,1,1.577,1.559c-.015.934-.634,1.379-1.549,1.414" transform="translate(-17.806 -27.233)" fill="#ffb64b"/>
        <path id="パス_991" data-name="パス 991" d="M105.555,104.013a1.416,1.416,0,0,1-1.455,1.546,1.5,1.5,0,0,1-1.686-1.474,1.571,1.571,0,1,1,3.141-.072" transform="translate(-22.235 -22.671)" fill="#ffb64b"/>
        <path id="パス_992" data-name="パス 992" d="M32.273,126.051c-.953-.048-1.545-.54-1.527-1.459a1.416,1.416,0,0,1,1.616-1.519,1.391,1.391,0,0,1,1.517,1.462c.013,1.033-.631,1.484-1.606,1.516" transform="translate(-6.675 -27.233)" fill="#ffb64b"/>
        <path id="パス_993" data-name="パス 993" d="M93.8,10.33c.955.049,1.575.511,1.544,1.552a1.574,1.574,0,0,1-3.132.043A1.442,1.442,0,0,1,93.8,10.33" transform="translate(-20.021 -2.286)" fill="#ffb64b"/>
        <path id="パス_994" data-name="パス 994" d="M134.49,115.785c-.657,0-1.174-.482-1.208-1.419a1.433,1.433,0,0,1,1.524-1.613,1.389,1.389,0,0,1,1.514,1.46c.021.963-.483,1.567-1.83,1.571" transform="translate(-28.937 -24.95)" fill="#ffb64b"/>
        <path id="パス_995" data-name="パス 995" d="M54.278,114.5a1.3,1.3,0,0,1-1.516,1.283,1.432,1.432,0,0,1-1.578-1.564,1.455,1.455,0,0,1,1.56-1.461c.955.021,1.55.579,1.533,1.743" transform="translate(-11.113 -24.95)" fill="#ffb64b"/>
        <path id="パス_996" data-name="パス 996" d="M22.009,126.045a1.314,1.314,0,0,1-1.46-1.355,1.385,1.385,0,0,1,1.482-1.621,1.406,1.406,0,0,1,1.6,1.525c.006.909-.566,1.416-1.621,1.451" transform="translate(-4.461 -27.232)" fill="#ffb64b"/>
        <path id="パス_997" data-name="パス 997" d="M134.771,64.536a1.321,1.321,0,0,1-1.487-1.422,1.523,1.523,0,1,1,1.487,1.422" transform="translate(-28.938 -13.619)" fill="#ffb64b"/>
        <path id="パス_998" data-name="パス 998" d="M73.171,20.541c1.085.045,1.6.583,1.641,1.473a1.509,1.509,0,1,1-3.015.143,1.432,1.432,0,0,1,1.374-1.616" transform="translate(-15.588 -4.545)" fill="#ffb64b"/>
        <path id="パス_999" data-name="パス 999" d="M13.307,42.645a1.372,1.372,0,0,1-1.425,1.444c-1.066.035-1.545-.559-1.567-1.554a1.412,1.412,0,0,1,1.57-1.569c.907.018,1.4.648,1.422,1.68" transform="translate(-2.239 -9.065)" fill="#ffb64b"/>
        <path id="パス_1000" data-name="パス 1000" d="M64.532,42.685a1.33,1.33,0,0,1-1.43,1.4,1.561,1.561,0,0,1-.119-3.119c.975-.033,1.54.572,1.549,1.718" transform="translate(-13.36 -9.065)" fill="#ffb64b"/>
        <path id="パス_1001" data-name="パス 1001" d="M104.141,10.333a1.35,1.35,0,0,1,1.4,1.453c.017,1.058-.593,1.523-1.578,1.529a1.4,1.4,0,0,1-1.547-1.441c0-.933.589-1.539,1.729-1.541" transform="translate(-22.235 -2.286)" fill="#ffb64b"/>
        <path id="パス_1002" data-name="パス 1002" d="M134.693,146.667a1.527,1.527,0,0,1-1.414-1.737,1.378,1.378,0,0,1,1.563-1.4,1.449,1.449,0,0,1,1.473,1.686,1.537,1.537,0,0,1-1.622,1.452" transform="translate(-28.936 -31.759)" fill="#ffb64b"/>
        <path id="パス_1003" data-name="パス 1003" d="M13.293,53a1.274,1.274,0,0,1-1.35,1.29,1.367,1.367,0,0,1-1.639-1.441,1.437,1.437,0,0,1,1.521-1.622c.865-.021,1.45.537,1.467,1.772" transform="translate(-2.237 -11.334)" fill="#ffb64b"/>
        <path id="パス_1004" data-name="パス 1004" d="M63.1,115.784a1.349,1.349,0,0,1-1.563-1.4,1.416,1.416,0,0,1,1.534-1.628,1.371,1.371,0,0,1,1.461,1.527,1.318,1.318,0,0,1-1.431,1.5" transform="translate(-13.359 -24.951)" fill="#ffb64b"/>
        <path id="パス_1005" data-name="パス 1005" d="M2,54.289c-1.443.03-1.977-.565-1.992-1.522a1.435,1.435,0,0,1,1.474-1.537,1.421,1.421,0,0,1,1.552,1.584c0,.962-.492,1.424-1.035,1.476" transform="translate(-0.002 -11.336)" fill="#ffb64b"/>
        <path id="パス_1006" data-name="パス 1006" d="M104.148,64.539c-1.154,0-1.769-.571-1.736-1.535a1.439,1.439,0,0,1,1.561-1.452,1.408,1.408,0,0,1,1.563,1.565,1.311,1.311,0,0,1-1.388,1.421" transform="translate(-22.235 -13.62)" fill="#ffb64b"/>
        <path id="パス_1007" data-name="パス 1007" d="M93.786,64.54c-1.031-.035-1.606-.561-1.58-1.469a1.437,1.437,0,0,1,1.641-1.512,1.409,1.409,0,0,1,1.5,1.491c.007,1.059-.651,1.469-1.56,1.49" transform="translate(-20.019 -13.621)" fill="#ffb64b"/>
        <path id="パス_1008" data-name="パス 1008" d="M83.888,64.527c-1.238.024-1.83-.412-1.875-1.357a1.557,1.557,0,1,1,3.113-.073,1.321,1.321,0,0,1-1.238,1.431" transform="translate(-17.806 -13.62)" fill="#ffb64b"/>
        <path id="パス_1009" data-name="パス 1009" d="M114.835,115.755c-1.519.083-2.113-.5-2.148-1.438a1.437,1.437,0,0,1,1.451-1.554,1.4,1.4,0,0,1,1.607,1.508c.032.966-.47,1.422-.91,1.483" transform="translate(-24.466 -24.952)" fill="#ffb64b"/>
        <path id="パス_1010" data-name="パス 1010" d="M42.49,10.326c.986.046,1.6.487,1.581,1.542a1.38,1.38,0,0,1-1.514,1.448,1.417,1.417,0,0,1-1.621-1.37,1.464,1.464,0,0,1,1.553-1.621" transform="translate(-8.887 -2.285)" fill="#ffb64b"/>
        <path id="パス_1011" data-name="パス 1011" d="M155.489,64.534c-1.169.018-1.787-.478-1.818-1.377a1.569,1.569,0,1,1,3.137-.036,1.3,1.3,0,0,1-1.319,1.413" transform="translate(-33.365 -13.623)" fill="#ffb64b"/>
        <path id="パス_1012" data-name="パス 1012" d="M126.038,104.1a1.5,1.5,0,0,1-3-.082,1.434,1.434,0,0,1,1.423-1.575c.968-.057,1.534.568,1.576,1.656" transform="translate(-26.714 -22.669)" fill="#ffb64b"/>
        <path id="パス_1013" data-name="パス 1013" d="M64.524,22.347a1.3,1.3,0,0,1-1.45,1.272,1.386,1.386,0,0,1-1.541-1.564,1.392,1.392,0,0,1,1.628-1.475c.937.048,1.389.613,1.364,1.766" transform="translate(-13.36 -4.553)" fill="#ffb64b"/>
        <path id="パス_1014" data-name="パス 1014" d="M73.655,3.036c-1.314-.007-1.819-.484-1.857-1.424a1.511,1.511,0,1,1,3.016.007c-.038.9-.542,1.443-1.159,1.417" transform="translate(-15.588 0)" fill="#ffb64b"/>
        <path id="パス_1015" data-name="パス 1015" d="M73.787,167.028c-1.4.045-1.9-.439-1.988-1.374a1.513,1.513,0,1,1,3.012-.122c-.005.895-.478,1.472-1.024,1.5" transform="translate(-15.587 -36.277)" fill="#ffb64b"/>
        <path id="パス_1016" data-name="パス 1016" d="M64.531,165.64a1.328,1.328,0,0,1-1.515,1.4,1.375,1.375,0,0,1-1.477-1.627,1.5,1.5,0,1,1,2.991.231" transform="translate(-13.361 -36.278)" fill="#ffb64b"/>
        <path id="パス_1017" data-name="パス 1017" d="M64.525,53.073c-.035.656-.436,1.206-1.428,1.219a1.374,1.374,0,0,1-1.562-1.53,1.41,1.41,0,0,1,1.455-1.533c.95-.023,1.552.551,1.535,1.844" transform="translate(-13.36 -11.336)" fill="#ffb64b"/>
        <path id="パス_1018" data-name="パス 1018" d="M165.873,64.517c-1.345.063-1.958-.516-1.971-1.451a1.446,1.446,0,0,1,1.477-1.519c1.065-.063,1.51.576,1.595,1.525a1.185,1.185,0,0,1-1.1,1.445" transform="translate(-35.586 -13.618)" fill="#ffb64b"/>
        <path id="パス_1019" data-name="パス 1019" d="M42.682,126.051c-1.112-.016-1.775-.515-1.749-1.508a1.425,1.425,0,0,1,1.537-1.468,1.4,1.4,0,0,1,1.6,1.522,1.358,1.358,0,0,1-1.392,1.455" transform="translate(-8.887 -27.234)" fill="#ffb64b"/>
        <path id="パス_1020" data-name="パス 1020" d="M52.9,126.049c-1.137-.008-1.756-.568-1.72-1.532a1.394,1.394,0,0,1,1.528-1.446c1.009.019,1.563.49,1.56,1.536a1.3,1.3,0,0,1-1.368,1.442" transform="translate(-11.112 -27.233)" fill="#ffb64b"/>
        <path id="パス_1021" data-name="パス 1021" d="M71.773,83.624c.088-1.119.676-1.635,1.66-1.569a1.546,1.546,0,0,1-.121,3.081,1.44,1.44,0,0,1-1.539-1.512" transform="translate(-15.583 -18.156)" fill="#ffb64b"/>
        <path id="パス_1022" data-name="パス 1022" d="M64.528,83.663a1.5,1.5,0,1,1-3-.079,1.407,1.407,0,0,1,1.6-1.526c.923.029,1.411.592,1.4,1.6" transform="translate(-13.36 -18.157)" fill="#ffb64b"/>
        <path id="パス_1023" data-name="パス 1023" d="M124.8,54.294c-1.175.011-1.7-.449-1.765-1.389a1.435,1.435,0,0,1,1.461-1.677,1.4,1.4,0,0,1,1.527,1.594c-.023.917-.479,1.456-1.224,1.473" transform="translate(-26.712 -11.335)" fill="#ffb64b"/>
        <path id="パス_1024" data-name="パス 1024" d="M126.04,155.363c-.074.846-.459,1.463-1.443,1.478a1.393,1.393,0,0,1-1.555-1.571,1.411,1.411,0,0,1,1.441-1.553c.994-.038,1.52.594,1.556,1.645" transform="translate(-26.715 -34.014)" fill="#ffb64b"/>
        <path id="パス_1025" data-name="パス 1025" d="M104.223,126.044c-1.186,0-1.8-.529-1.81-1.409a1.442,1.442,0,0,1,1.6-1.56,1.379,1.379,0,0,1,1.525,1.583,1.3,1.3,0,0,1-1.313,1.385" transform="translate(-22.236 -27.234)" fill="#ffb64b"/>
        <path id="パス_1026" data-name="パス 1026" d="M115.733,124.093c.049,1.357-.4,1.89-1.354,1.946a1.494,1.494,0,1,1-.119-2.974c.954.013,1.41.53,1.473,1.028" transform="translate(-24.468 -27.232)" fill="#ffb64b"/>
        <path id="パス_1027" data-name="パス 1027" d="M134.727,33.93a1.525,1.525,0,0,1-1.445-1.72,1.4,1.4,0,0,1,1.541-1.445,1.435,1.435,0,0,1,1.494,1.522,1.561,1.561,0,0,1-1.589,1.643" transform="translate(-28.937 -6.808)" fill="#ffb64b"/>
        <path id="パス_1028" data-name="パス 1028" d="M134.459,126.034a1.276,1.276,0,0,1-1.176-1.487,1.357,1.357,0,0,1,1.495-1.476,1.391,1.391,0,0,1,1.548,1.592c-.031.94-.629,1.407-1.866,1.372" transform="translate(-28.938 -27.233)" fill="#ffb64b"/>
        <path id="パス_1029" data-name="パス 1029" d="M10.3,83.417a1.364,1.364,0,0,1,1.511-1.362,1.543,1.543,0,0,1-.016,3.084c-1-.021-1.507-.628-1.5-1.722" transform="translate(-2.237 -18.157)" fill="#ffb64b"/>
        <path id="パス_1030" data-name="パス 1030" d="M155.363,126.05c-1.055-.014-1.678-.5-1.693-1.41a1.411,1.411,0,0,1,1.578-1.561c1,.023,1.6.513,1.562,1.566a1.355,1.355,0,0,1-1.446,1.406" transform="translate(-33.364 -27.235)" fill="#ffb64b"/>
        <path id="パス_1031" data-name="パス 1031" d="M71.784,104.229c.03-1.274.681-1.813,1.61-1.781a1.433,1.433,0,0,1,1.416,1.6,1.412,1.412,0,0,1-1.621,1.515,1.36,1.36,0,0,1-1.405-1.334" transform="translate(-15.586 -22.669)" fill="#ffb64b"/>
        <path id="パス_1032" data-name="パス 1032" d="M10.291,134.755a1.387,1.387,0,0,1,1.59-1.428,1.335,1.335,0,0,1,1.408,1.512,1.358,1.358,0,0,1-1.408,1.537,1.443,1.443,0,0,1-1.59-1.621" transform="translate(-2.234 -29.502)" fill="#ffb64b"/>
        <path id="パス_1033" data-name="パス 1033" d="M52.805,64.542c-1.044-.019-1.654-.575-1.624-1.544a1.546,1.546,0,0,1,3.088.116c0,1-.563,1.394-1.464,1.428" transform="translate(-11.112 -13.621)" fill="#ffb64b"/>
        <path id="パス_1034" data-name="パス 1034" d="M42.655,64.54c-1.1,0-1.74-.523-1.72-1.511a1.571,1.571,0,0,1,3.139.065c.01,1-.6,1.374-1.419,1.445" transform="translate(-8.888 -13.621)" fill="#ffb64b"/>
        <path id="パス_1035" data-name="パス 1035" d="M126.034,42.7a1.341,1.341,0,0,1-1.389,1.388,1.384,1.384,0,0,1-1.6-1.519,1.426,1.426,0,0,1,1.547-1.6c.889,0,1.424.6,1.444,1.73" transform="translate(-26.715 -9.065)" fill="#ffb64b"/>
        <path id="パス_1036" data-name="パス 1036" d="M64.522,104.363a1.282,1.282,0,0,1-1.472,1.2,1.4,1.4,0,0,1-1.512-1.61,1.427,1.427,0,0,1,1.5-1.5c.956,0,1.52.633,1.486,1.92" transform="translate(-13.361 -22.668)" fill="#ffb64b"/>
        <path id="パス_1037" data-name="パス 1037" d="M64.51,134.394c.061,1.383-.481,1.976-1.464,1.984a1.376,1.376,0,0,1-1.51-1.453,1.391,1.391,0,0,1,1.5-1.6,1.273,1.273,0,0,1,1.473,1.072" transform="translate(-13.36 -29.501)" fill="#ffb64b"/>
        <path id="パス_1038" data-name="パス 1038" d="M71.786,134.7a1.394,1.394,0,0,1,1.65-1.378,1.531,1.531,0,0,1-.119,3.052,1.451,1.451,0,0,1-1.531-1.674" transform="translate(-15.586 -29.501)" fill="#ffb64b"/>
        <path id="パス_1039" data-name="パス 1039" d="M126.031,21.892c-.016,1.184-.557,1.732-1.477,1.727a1.393,1.393,0,0,1-1.516-1.625,1.367,1.367,0,0,1,1.559-1.416,1.308,1.308,0,0,1,1.435,1.314" transform="translate(-26.713 -4.553)" fill="#ffb64b"/>
        <path id="パス_1040" data-name="パス 1040" d="M64.534,73.246a1.358,1.358,0,0,1-1.378,1.6,1.376,1.376,0,0,1-1.621-1.508A1.352,1.352,0,0,1,63,71.843a1.337,1.337,0,0,1,1.531,1.4" transform="translate(-13.36 -15.897)" fill="#ffb64b"/>
        <path id="パス_1041" data-name="パス 1041" d="M22.046,64.538c-.985-.036-1.508-.523-1.5-1.467a1.4,1.4,0,0,1,1.6-1.524,1.5,1.5,0,1,1-.1,2.991" transform="translate(-4.461 -13.619)" fill="#ffb64b"/>
        <path id="パス_1042" data-name="パス 1042" d="M64.534,155.444a1.341,1.341,0,0,1-1.479,1.4,1.564,1.564,0,0,1-.016-3.126c.991,0,1.5.642,1.5,1.729" transform="translate(-13.361 -34.014)" fill="#ffb64b"/>
        <path id="パス_1043" data-name="パス 1043" d="M126.027,134.611c.028,1.153-.489,1.765-1.481,1.767a1.527,1.527,0,0,1-.016-3.053,1.316,1.316,0,0,1,1.5,1.286" transform="translate(-26.714 -29.502)" fill="#ffb64b"/>
        <path id="パス_1044" data-name="パス 1044" d="M13.308,104.176a1.364,1.364,0,0,1-1.5,1.384c-1.075-.005-1.5-.626-1.5-1.615a1.409,1.409,0,0,1,1.487-1.5c.98-.021,1.5.65,1.509,1.734" transform="translate(-2.239 -22.668)" fill="#ffb64b"/>
        <path id="パス_1045" data-name="パス 1045" d="M104.2.122a1.377,1.377,0,0,1,1.34,1.583c-.065.974-.651,1.36-1.571,1.344a1.4,1.4,0,0,1-1.546-1.573c.052-.849.621-1.42,1.777-1.354" transform="translate(-22.236 -0.026)" fill="#ffb64b"/>
        <path id="パス_1046" data-name="パス 1046" d="M126.027,73.153c-.013,1.211-.579,1.718-1.5,1.7a1.381,1.381,0,0,1-1.49-1.641,1.344,1.344,0,0,1,1.579-1.368,1.279,1.279,0,0,1,1.407,1.308" transform="translate(-26.713 -15.897)" fill="#ffb64b"/>
        <path id="パス_1047" data-name="パス 1047" d="M11.7,71.824c1.149.04,1.579.6,1.587,1.528a1.333,1.333,0,0,1-1.463,1.5A1.387,1.387,0,0,1,10.3,73.238a1.345,1.345,0,0,1,1.4-1.414" transform="translate(-2.236 -15.893)" fill="#ffb64b"/>
        <path id="パス_1048" data-name="パス 1048" d="M52.625,10.322c.993.033,1.588.4,1.642,1.382a1.37,1.37,0,0,1-1.48,1.614,1.405,1.405,0,0,1-1.6-1.371,1.454,1.454,0,0,1,1.441-1.625" transform="translate(-11.112 -2.284)" fill="#ffb64b"/>
        <path id="パス_1049" data-name="パス 1049" d="M1.669,71.834a1.3,1.3,0,0,1,1.366,1.453A1.375,1.375,0,0,1,1.5,74.852a1.376,1.376,0,0,1-1.5-1.469c0-.959.528-1.548,1.66-1.548" transform="translate(-0.002 -15.895)" fill="#ffb64b"/>
        <path id="パス_1050" data-name="パス 1050" d="M73.276,54.3A1.349,1.349,0,0,1,71.8,52.846a1.441,1.441,0,0,1,1.526-1.62,1.414,1.414,0,0,1,1.484,1.649A1.362,1.362,0,0,1,73.276,54.3" transform="translate(-15.588 -11.335)" fill="#ffb64b"/>
        <path id="パス_1051" data-name="パス 1051" d="M115.75,11.846a1.34,1.34,0,0,1-1.454,1.476,1.4,1.4,0,0,1-1.607-1.511,1.424,1.424,0,0,1,1.657-1.47,1.326,1.326,0,0,1,1.4,1.505" transform="translate(-24.467 -2.287)" fill="#ffb64b"/>
        <path id="パス_1052" data-name="パス 1052" d="M73.575,115.786c-1.221,0-1.729-.47-1.777-1.409a1.425,1.425,0,0,1,1.5-1.624,1.364,1.364,0,0,1,1.5,1.452c.023.979-.455,1.564-1.228,1.581" transform="translate(-15.588 -24.95)" fill="#ffb64b"/>
        <path id="パス_1053" data-name="パス 1053" d="M64.532,1.633A1.323,1.323,0,0,1,63,3.027a1.334,1.334,0,0,1-1.461-1.493A1.4,1.4,0,0,1,63.163.011a1.387,1.387,0,0,1,1.368,1.622" transform="translate(-13.361 -0.001)" fill="#ffb64b"/>
        <path id="パス_1054" data-name="パス 1054" d="M115.757,63.016c-.02,1.054-.531,1.517-1.479,1.519A1.4,1.4,0,0,1,112.695,63a1.533,1.533,0,0,1,3.062.016" transform="translate(-24.468 -13.62)" fill="#ffb64b"/>
        <path id="パス_1055" data-name="パス 1055" d="M73.364,126.044c-.91-.014-1.527-.386-1.56-1.376a1.508,1.508,0,1,1,3.013-.128,1.325,1.325,0,0,1-1.452,1.5" transform="translate(-15.589 -27.233)" fill="#ffb64b"/>
        <path id="パス_1056" data-name="パス 1056" d="M73.238,64.537a1.333,1.333,0,0,1-1.438-1.5,1.351,1.351,0,0,1,1.48-1.487,1.381,1.381,0,0,1,1.529,1.6,1.335,1.335,0,0,1-1.571,1.388" transform="translate(-15.589 -13.619)" fill="#ffb64b"/>
        <path id="パス_1057" data-name="パス 1057" d="M126.017,114.612c-.063.7-.536,1.2-1.523,1.173a1.32,1.32,0,0,1-1.454-1.485,1.4,1.4,0,0,1,1.614-1.532c.921.041,1.411.649,1.364,1.844" transform="translate(-26.714 -24.953)" fill="#ffb64b"/>
        <path id="パス_1058" data-name="パス 1058" d="M73.273,71.833a1.508,1.508,0,0,1,.134,3.013A1.383,1.383,0,0,1,71.8,73.322a1.364,1.364,0,0,1,1.473-1.49" transform="translate(-15.589 -15.895)" fill="#ffb64b"/>
        <path id="パス_1059" data-name="パス 1059" d="M1.535,115.788A1.379,1.379,0,0,1,0,114.352a1.436,1.436,0,0,1,1.552-1.6,1.408,1.408,0,0,1,1.478,1.64,1.315,1.315,0,0,1-1.5,1.4" transform="translate(0 -24.95)" fill="#ffb64b"/>
        <path id="パス_1060" data-name="パス 1060" d="M64.531,11.793c-.028,1.085-.588,1.537-1.52,1.526a1.338,1.338,0,0,1-1.475-1.482,1.371,1.371,0,0,1,1.616-1.493,1.3,1.3,0,0,1,1.379,1.448" transform="translate(-13.361 -2.288)" fill="#ffb64b"/>
        <path id="パス_1061" data-name="パス 1061" d="M3.034,63.134c-.036.977-.577,1.4-1.53,1.4A1.354,1.354,0,0,1,0,63.057a1.415,1.415,0,0,1,1.647-1.51,1.368,1.368,0,0,1,1.383,1.586" transform="translate(-0.001 -13.618)" fill="#ffb64b"/>
        <path id="パス_1062" data-name="パス 1062" d="M11.387,64.527c-.529-.02-1.071-.473-1.081-1.439a1.363,1.363,0,0,1,1.575-1.536A1.355,1.355,0,0,1,13.3,63.1c-.015.947-.521,1.452-1.91,1.429" transform="translate(-2.238 -13.62)" fill="#ffb64b"/>
        <path id="パス_1063" data-name="パス 1063" d="M72.925,10.352c1.271-.046,1.819.435,1.873,1.372a1.323,1.323,0,0,1-1.347,1.589c-.99.048-1.634-.378-1.653-1.45a1.326,1.326,0,0,1,1.127-1.511" transform="translate(-15.589 -2.29)" fill="#ffb64b"/>
        <path id="パス_1064" data-name="パス 1064" d="M13.292,114.348a1.337,1.337,0,0,1-1.5,1.437,1.333,1.333,0,0,1-1.487-1.459,1.408,1.408,0,0,1,1.589-1.563,1.355,1.355,0,0,1,1.4,1.585" transform="translate(-2.237 -24.952)" fill="#ffb64b"/>
        <path id="パス_1065" data-name="パス 1065" d="M123.038,11.624a1.321,1.321,0,0,1,1.523-1.281c1.08.012,1.5.637,1.456,1.63a1.317,1.317,0,0,1-1.588,1.341c-.954-.051-1.414-.6-1.391-1.69" transform="translate(-26.714 -2.289)" fill="#ffb64b"/>
        <path id="パス_1066" data-name="パス 1066" d="M124.494,126.043a1.332,1.332,0,0,1-1.457-1.48,1.37,1.37,0,0,1,1.612-1.49,1.336,1.336,0,0,1,1.374,1.564c-.02.965-.583,1.4-1.529,1.406" transform="translate(-26.713 -27.233)" fill="#ffb64b"/>
        <path id="パス_1067" data-name="パス 1067" d="M64.535,124.413c-.023,1.17-.565,1.624-1.5,1.627a1.326,1.326,0,0,1-1.5-1.447,1.382,1.382,0,0,1,1.593-1.523,1.3,1.3,0,0,1,1.406,1.343" transform="translate(-13.361 -27.232)" fill="#ffb64b"/>
        <path id="パス_1068" data-name="パス 1068" d="M13.3,124.456c-.027,1.1-.533,1.6-1.489,1.587a1.333,1.333,0,0,1-1.508-1.434,1.363,1.363,0,0,1,1.566-1.537,1.328,1.328,0,0,1,1.431,1.384" transform="translate(-2.238 -27.233)" fill="#ffb64b"/>
        <path id="パス_1069" data-name="パス 1069" d="M124.22,64.527c-.694-.026-1.188-.524-1.184-1.476a1.494,1.494,0,1,1,2.986.085c-.028.96-.58,1.413-1.8,1.391" transform="translate(-26.713 -13.619)" fill="#ffb64b"/>
        <path id="パス_1070" data-name="パス 1070" d="M63.483,64.522c-1.334.034-1.906-.422-1.942-1.369a1.385,1.385,0,0,1,1.52-1.6,1.347,1.347,0,0,1,1.469,1.487c.009.949-.454,1.466-1.046,1.487" transform="translate(-13.361 -13.619)" fill="#ffb64b"/>
        <path id="パス_1071" data-name="パス 1071" d="M13.334,32.4a1.419,1.419,0,0,1-1.511,1.5,1.237,1.237,0,0,1-1.365-1.047c-.089-.509,1.278-2.088,1.719-2.072.557.021,1.135.766,1.156,1.617" transform="translate(-2.27 -6.812)" fill="#ffb64b"/>
        <path id="パス_1072" data-name="パス 1072" d="M134.732,153.648c.815.142,1.567.515,1.478,1.353-.1.97-1.076,1.458-1.888,1.644-.666.153-1.019-.573-1.051-1.274-.048-1.035.6-1.47,1.461-1.723" transform="translate(-28.935 -33.999)" fill="#ffb64b"/>
        <path id="パス_1073" data-name="パス 1073" d="M154.491,136.139c-.571-.386-.986-.846-.838-1.469a1.518,1.518,0,0,1,1.66-1.35c.369.024.909.043.739.537a4.665,4.665,0,0,1-1.561,2.282" transform="translate(-33.354 -29.5)" fill="#ffb64b"/>
        <path id="パス_1074" data-name="パス 1074" d="M34.006,12.111a1.473,1.473,0,0,1-1.574,1.381c-.53.008-1.329-.114-1.192-.7.232-.994,1.3-1.332,2.166-1.631.507-.176.559.468.6.95" transform="translate(-6.78 -2.463)" fill="#ffb64b"/>
        <path id="パス_1075" data-name="パス 1075" d="M165.069,115.784c-.855-.412-1.323-.933-1.127-1.781a1.487,1.487,0,0,1,1.136-1.184c.7-.178,1.084,0,.849.758-.229.741-.559,1.449-.858,2.206" transform="translate(-35.585 -24.951)" fill="#ffb64b"/>
        <path id="パス_1076" data-name="パス 1076" d="M52.861,3.308c-.64-.045-1.462-.248-1.277-.852.287-.936,1.456-.827,2.25-1.152.669-.273.5.337.5.619.009.989-.588,1.373-1.474,1.385" transform="translate(-11.194 -0.273)" fill="#ffb64b"/>
        <path id="パス_1077" data-name="パス 1077" d="M42.723,163.882c.727.278,1.425.621,1.452,1.573.009.289,0,.781-.448.586-.831-.357-1.956-.425-2.281-1.395-.114-.34.684-.684,1.276-.765" transform="translate(-8.997 -36.264)" fill="#ffb64b"/>
        <path id="パス_1078" data-name="パス 1078" d="M3.323,124.595c.012.511-.189,1.237-.6,1.1-.895-.3-.988-1.35-1.335-2.125-.208-.466.234-.5.539-.49.991.019,1.37.618,1.4,1.517" transform="translate(-0.289 -27.234)" fill="#ffb64b"/>
        <path id="パス_1079" data-name="パス 1079" d="M143.509,22.021a5.322,5.322,0,0,1,1.836,1.691c-1.406.114-1.613-.071-1.836-1.691" transform="translate(-31.158 -4.873)" fill="#ffb64b"/>
      </g>
    </g>
  </g>
</svg>
