<svg xmlns="http://www.w3.org/2000/svg" width="39.516" height="48.168" viewBox="0 0 39.516 48.168">
  <g id="cross.svg" transform="translate(-1180.648 -90)">
    <path id="パス_3635" data-name="パス 3635" d="M4.716.168A3.594,3.594,0,0,0,7.548-1.14l-.936-1.1a2.449,2.449,0,0,1-1.836.876c-1.4,0-2.316-1.164-2.316-3.1,0-1.908,1.008-3.06,2.352-3.06a2.339,2.339,0,0,1,1.644.744L7.38-7.908a3.622,3.622,0,0,0-2.6-1.14C2.532-9.048.648-7.332.648-4.4.648-1.44,2.472.168,4.716.168ZM9.576,0h5.388V-1.488H11.352v-7.4H9.576ZM20.184.168c2.352,0,3.972-1.764,3.972-4.644s-1.62-4.572-3.972-4.572-3.972,1.68-3.972,4.572S17.832.168,20.184.168Zm0-1.536c-1.32,0-2.16-1.212-2.16-3.108s.84-3.048,2.16-3.048,2.16,1.14,2.16,3.048S21.5-1.368,20.184-1.368ZM29.148.168c2.052,0,3.264-1.236,3.264-2.688a2.453,2.453,0,0,0-1.788-2.412L29.46-5.424c-.756-.3-1.38-.528-1.38-1.164,0-.588.492-.936,1.272-.936a2.833,2.833,0,0,1,1.884.732l.9-1.116a3.941,3.941,0,0,0-2.784-1.14c-1.8,0-3.072,1.116-3.072,2.568a2.573,2.573,0,0,0,1.8,2.388l1.188.5c.792.336,1.332.54,1.332,1.2,0,.624-.492,1.02-1.416,1.02a3.494,3.494,0,0,1-2.256-.984l-1.02,1.224A4.732,4.732,0,0,0,29.148.168ZM34.584,0h5.58V-1.488h-3.8V-3.864h3.12V-5.352H36.36V-7.4h3.672V-8.892H34.584Z" transform="translate(1180 138)"/>
    <rect id="長方形_59" data-name="長方形 59" width="38.624" height="4.361" rx="2" transform="translate(1188.688 90) rotate(45)"/>
    <rect id="長方形_60" data-name="長方形 60" width="38.624" height="4.36" rx="2" transform="translate(1216 93.083) rotate(135)"/>
  </g>
</svg>
