<svg xmlns="http://www.w3.org/2000/svg" xmlns:xlink="http://www.w3.org/1999/xlink" width="48" height="48" viewBox="0 0 48 48">
  <defs>
    <clipPath id="clip-path">
      <circle id="楕円形_77" data-name="楕円形 77" cx="24" cy="24" r="24" transform="translate(562 5068)" fill="#f3a185"/>
    </clipPath>
  </defs>
  <g id="グループ_2842" data-name="グループ 2842" transform="translate(-562 -5068)">
    <circle id="楕円形_81" data-name="楕円形 81" cx="24" cy="24" r="24" transform="translate(562 5068)" fill="#ffe7ab"/>
    <g id="マスクグループ_47" data-name="マスクグループ 47" clip-path="url(#clip-path)">
      <g id="j168_12_3" transform="translate(554 5074.855)">
        <path id="パス_3023" data-name="パス 3023" d="M155.859,364.557l3.733-8.428a4.5,4.5,0,0,0,.22-3.031l-3.065-10.991L141.83,328.475l-11.952,13.632-4.631,8.117a5.934,5.934,0,0,0-.621,4.306l3.491,14.771s-4.6.5-5.282,4.917v.741a.9.9,0,0,0,.9.9h10.972a.9.9,0,0,0,.9-.815l.576-5.748-1.069-13.6a2.929,2.929,0,0,1,.847-2.3l5.519-5.533a2.872,2.872,0,0,1,4.194.136l5.646,6.448-2.169,10.1.478,4.775a.751.751,0,0,0,.748.676h9.113a.751.751,0,0,0,.751-.75v-.616C159.678,364.972,155.859,364.557,155.859,364.557Z" transform="translate(-106.413 -288.419)" fill="#2ba7c8"/>
        <path id="パス_3024" data-name="パス 3024" d="M193.114,127.331h-.689c-7.767,0-11.443,1.748-11.443,1.748V159.56H195.1l2.758,2.514,6.7-2.514V129.079S200.882,127.331,193.114,127.331Z" transform="translate(-157.343 -111.852)" fill="#fff"/>
        <path id="パス_3025" data-name="パス 3025" d="M81.132,132.656c-7.875,1.67-7.6,7.948-7.848,15.754l-1.3,7.562-5.663,9.138,4.543,3.969,6.9-9.69,1.086,9.6A1.476,1.476,0,0,0,80.3,170.3h5.161a3.3,3.3,0,0,0,3.34-3.682l-2.11-22.439" transform="translate(-56.745 -116.524)" fill="#2ba7c8"/>
        <path id="パス_3026" data-name="パス 3026" d="M350.176,163.489l-.782-1.474a22.287,22.287,0,0,1-2.152-6.22c-1.218-6.278-4.4-10.864-8.763-12.822l-4.185,9.588a14.871,14.871,0,0,0-1.233,6.446l.557,16.663a4.135,4.135,0,0,0,4.033,3.682h5.161A1.178,1.178,0,0,0,344,178.043l-1.159-12.323c1.379,2.856,5.608,8.5,7.114,8.623h4.412Z" transform="translate(-290.765 -125.576)" fill="#2ba7c8"/>
        <path id="パス_3027" data-name="パス 3027" d="M337.476,618.6l.478,5.28a.751.751,0,0,0,.748.677h9.113a.751.751,0,0,0,.751-.751v-.616c-.568-3.67-4.387-4.59-4.387-4.59h-6.7Z" transform="translate(-296.094 -542.745)" fill="#6c859b"/>
        <path id="パス_3028" data-name="パス 3028" d="M12.589,404.21l-4.271,1.2a2.912,2.912,0,0,0-1.539,1.054L5.6,408.042a2.581,2.581,0,0,0-.366,2.422l.8,2.235a1.537,1.537,0,0,0,2.76.277l1.187-1.959,3.355-.806-.558,2.277a1.017,1.017,0,0,0,1.9.7l1.275-2.54,1.183-3.31Z" transform="translate(-3.087 -354.022)" fill="#20ab9a"/>
        <path id="パス_3029" data-name="パス 3029" d="M191.6,508.4l-1.468,1.624-.654-1.624h-2.416l.818-1.607-.436-2.323-.382-1.669,2.269-2.178.293.944,1.017,1.016,1.9-1.96.864,2.032v.7a9.815,9.815,0,0,0-1.688,1.97A4.419,4.419,0,0,0,191.6,508.4Z" transform="translate(-164.127 -439.236)" fill="#20ab9a"/>
        <path id="パス_3030" data-name="パス 3030" d="M445.208,332.549l.277-.546-.213-.093-.271.534a1.414,1.414,0,0,1-2.523-1.276l.2-.387-.406-.176-.08.157c-.351.693-1.549,1.65-2.243,1.3s-.632-1.881-.28-2.575l0-.01-.406-.176a1.414,1.414,0,0,1-2.516-1.289l2.97-5.862a2.719,2.719,0,0,1,2.969-.229l4.582,2.317a12.284,12.284,0,0,1,3.948,2.748,1.158,1.158,0,0,1-.1.679l-3.381,6.159a1.414,1.414,0,0,1-2.523-1.276Z" transform="translate(-381.69 -281.53)" fill="#20ab9a"/>
        <path id="パス_3031" data-name="パス 3031" d="M175.865,25.635h0l-.3-.991c-1.343-4.465-7.289-7.328-12.236-5.843S155,25.949,156.347,30.414l.3,1.006a3.5,3.5,0,0,0,2.169,6.648c2.023,3.652,7.235,5.793,11.653,4.467s7.583-5.98,7.257-10.14l.156-.047a3.505,3.505,0,1,0-2.02-6.713Z" transform="translate(-134.147 -15.526)" fill="#20ab9a"/>
        <path id="パス_3032" data-name="パス 3032" d="M266.927,187.689c.183.609-.173.566-.181.869s.274.91-.161.83-.6-1.417-.6-1.417Z" transform="translate(-233.372 -164.674)" fill="#fff"/>
        <path id="パス_3033" data-name="パス 3033" d="M272.472,103.287a1.92,1.92,0,1,1-1.92-1.918A1.919,1.919,0,0,1,272.472,103.287Z" transform="translate(-235.691 -88.939)" fill="#fff"/>
        <path id="パス_3034" data-name="パス 3034" d="M187.065,294.738v-1.644l.877-1.786c.572-.01,1.765,1.052,1.765,1.052l-.293,1.275.732,1.1.089,1.127-1.5,1.23-1.67-.653,1.149-.887Z" transform="translate(-164.126 -255.586)" fill="#156089"/>
        <path id="パス_3035" data-name="パス 3035" d="M337.545,310.281l1.106.567v1.258l1.5.405-.067,1.23-1.237.3v1.135l-1.3.468Z" transform="translate(-296.154 -272.233)" fill="#156089"/>
        <path id="パス_3036" data-name="パス 3036" d="M423.678,201.6l-1.268,1.327.675,1.337-.675,1.8.051.735,1.4.735.582.935h1.476l-2.238-6.871" transform="translate(-370.613 -176.876)" fill="#156089"/>
        <path id="パス_3037" data-name="パス 3037" d="M136.186,656.443l-.576,6.357a.9.9,0,0,1-.9.815H123.739a.9.9,0,0,1-.9-.9v-.742c.684-4.419,5.282-5.527,5.282-5.527Z" transform="translate(-107.772 -575.948)" fill="#156089"/>
        <path id="パス_3038" data-name="パス 3038" d="M151.692,435.362l3.065,10.991a3.881,3.881,0,0,1-.19,2.613l-4.078,9.206.847.092.026-.244-.028.244h0l.026-.244-.028.244a4.234,4.234,0,0,1,.564.118,5.137,5.137,0,0,1,1.894.951,3.829,3.829,0,0,1,.861,1,4.114,4.114,0,0,1,.522,1.494l.615-.1h-.623v.616a.129.129,0,0,1-.129.129h-9.113a.127.127,0,0,1-.087-.033.126.126,0,0,1-.042-.083l-.469-4.678,2.214-10.313-5.852-6.682a3.5,3.5,0,0,0-5.1-.165l-5.519,5.533a3.551,3.551,0,0,0-1.037,2.508c0,.092,0,.185.011.28h0l1.064,13.544-.57,5.693h0a.282.282,0,0,1-.281.254H119.285a.282.282,0,0,1-.282-.282v-.742h-.622l.615.1a4.91,4.91,0,0,1,.988-2.342,5.013,5.013,0,0,1,1.174-1.069,6.513,6.513,0,0,1,1.776-.809c.247-.071.452-.115.593-.141.071-.013.125-.021.159-.026l.037-.005h.008l-.04-.353.038.353h0l-.04-.353.038.353.7-.076-3.653-15.456a5.312,5.312,0,0,1,.556-3.855l4.631-8.117a.622.622,0,0,0-1.082-.616L120.251,443a6.555,6.555,0,0,0-.686,4.757l3.491,14.771.606-.143-.067-.618a6.1,6.1,0,0,0-.82.164,7.582,7.582,0,0,0-2.815,1.391,5.993,5.993,0,0,0-1.372,1.565,6.316,6.316,0,0,0-.824,2.321l-.007.047v.79a1.526,1.526,0,0,0,1.527,1.525h10.972a1.526,1.526,0,0,0,1.52-1.375h0l.581-5.8-1.073-13.655h0c0-.059-.007-.119-.007-.18a2.308,2.308,0,0,1,.674-1.63l5.519-5.533a2.235,2.235,0,0,1,1.592-.661,2.239,2.239,0,0,1,1.692.767l5.44,6.213-2.124,9.894.488,4.872a1.373,1.373,0,0,0,1.367,1.236h9.113a1.373,1.373,0,0,0,1.374-1.372v-.664l-.007-.047a5.223,5.223,0,0,0-1.051-2.476,5.3,5.3,0,0,0-1.24-1.132,6.535,6.535,0,0,0-1.789-.817,5.485,5.485,0,0,0-.854-.182l-.067.618.569.252,3.733-8.428a5.123,5.123,0,0,0,.251-3.45l-3.065-10.991a.622.622,0,0,0-1.2.333Z" transform="translate(-103.318 -381.284)" fill="#156089"/>
        <path id="パス_3039" data-name="パス 3039" d="M337.476,618.6l.478,5.28a.751.751,0,0,0,.748.677h9.113a.751.751,0,0,0,.751-.751v-.616c-.568-3.67-4.387-4.59-4.387-4.59h-6.7Z" transform="translate(-296.094 -542.745)" fill="#156089"/>
        <path id="パス_3040" data-name="パス 3040" d="M286.566,386.792l-.411-4.374a.623.623,0,0,0-1.24.116l.411,4.374a.623.623,0,0,0,1.24-.116" transform="translate(-249.975 -335.03)" fill="#156089"/>
        <path id="パス_3041" data-name="パス 3041" d="M278.509,296.737a.73.73,0,0,1-.739.815.916.916,0,0,1-.893-.815.73.73,0,0,1,.739-.815A.916.916,0,0,1,278.509,296.737Z" transform="translate(-242.922 -259.635)" fill="#156089"/>
        <path id="パス_3042" data-name="パス 3042" d="M156.283,217.08l2.3,23.071v0q.014.148.014.291a2.7,2.7,0,0,1-.777,1.929,2.726,2.726,0,0,1-1.957.783H150.7a.762.762,0,0,1-.288-.058.888.888,0,0,1-.365-.28.8.8,0,0,1-.167-.414l-2.069-22a.622.622,0,0,0-1.239.116l2.069,22a2.02,2.02,0,0,0,.218.739,2.132,2.132,0,0,0,.75.818,2.038,2.038,0,0,0,1.091.322h5.161a3.909,3.909,0,0,0,3.979-3.955q0-.2-.019-.407v-.011l-2.3-23.064a.622.622,0,0,0-1.239.123Z" transform="translate(-128.596 -189.861)" fill="#156089"/>
        <path id="パス_3043" data-name="パス 3043" d="M333.453,138.274l-4.185,9.588a15.492,15.492,0,0,0-1.294,6.2q0,.258.009.519h0l.557,16.682,0,.018a4.54,4.54,0,0,0,.491,1.661,4.857,4.857,0,0,0,1.707,1.859,4.584,4.584,0,0,0,2.454.726h5.161a1.823,1.823,0,0,0,1.3-.527,1.8,1.8,0,0,0,.526-1.282c0-.06,0-.12-.008-.178v-.015L338.1,151.527a.622.622,0,0,0-1.239.116l2.07,22.008v0c0,.024,0,.046,0,.066a.557.557,0,0,1-.161.4.575.575,0,0,1-.415.163h-5.161a3.257,3.257,0,0,1-1.228-.244,3.61,3.61,0,0,1-1.489-1.137,3.372,3.372,0,0,1-.7-1.738l-.62.058.622-.021-.557-16.663h0q-.008-.237-.008-.475a14.25,14.25,0,0,1,1.19-5.7l4.185-9.588a.622.622,0,0,0-1.141-.5Z" transform="translate(-287.757 -120.991)" fill="#156089"/>
        <path id="パス_3044" data-name="パス 3044" d="M246.677,383.1h5.42l2.8,3.084,2.042-1.221a.622.622,0,1,0-.639-1.067l-1.166.7-2.484-2.737h-5.972a.622.622,0,1,0,0,1.244Z" transform="translate(-215.882 -335.031)" fill="#156089"/>
        <path id="パス_3045" data-name="パス 3045" d="M75.227,127.6a11.4,11.4,0,0,0-2.738.93,8.3,8.3,0,0,0-3.241,2.825,10.694,10.694,0,0,0-1.329,2.871,23.243,23.243,0,0,0-.838,5.07c-.131,1.8-.162,3.7-.222,5.611l.622.02-.611-.117-1.245,6.485-5.88,9.489,5.458,4.769,7.3-10.25a.622.622,0,0,0-1.014-.721l-6.5,9.13-3.628-3.169,5.445-8.787,1.3-6.758,0-.049c.062-1.958.093-3.867.226-5.644a25.121,25.121,0,0,1,.521-3.738,12,12,0,0,1,.794-2.38,7.325,7.325,0,0,1,2.118-2.733,8.88,8.88,0,0,1,3.725-1.634.622.622,0,1,0-.258-1.217Z" transform="translate(-52.418 -111.938)" fill="#156089"/>
        <path id="パス_3046" data-name="パス 3046" d="M341.981,128.814a14.754,14.754,0,0,1,4.616,1.747,14.063,14.063,0,0,1,4.841,4.858,21.076,21.076,0,0,1,2.589,6.991,22.917,22.917,0,0,0,2.213,6.393l.782,1.474a.622.622,0,0,0,1.1-.582l-.782-1.474a21.669,21.669,0,0,1-2.091-6.048,20.609,20.609,0,0,0-4.212-9.442,14.851,14.851,0,0,0-3.8-3.24,16,16,0,0,0-5-1.9.622.622,0,1,0-.249,1.219Z" transform="translate(-299.609 -111.938)" fill="#156089"/>
        <path id="パス_3047" data-name="パス 3047" d="M457.483,357.815l-1.829,3.61a1.036,1.036,0,0,1-.394.422,1.068,1.068,0,0,1-.547.151,1.04,1.04,0,0,1-.891-.505,1.064,1.064,0,0,1-.152-.546,1.028,1.028,0,0,1,.112-.468h0l1.829-3.61a.523.523,0,0,0-.933-.472l-1.829,3.61h0a2.074,2.074,0,0,0-.225.941,2.108,2.108,0,0,0,.3,1.083,2.086,2.086,0,0,0,1.789,1.013,2.114,2.114,0,0,0,1.084-.3,2.082,2.082,0,0,0,.789-.846l1.829-3.61a.523.523,0,0,0-.933-.472Z" transform="translate(-397.122 -312.443)" fill="#156089"/>
        <path id="パス_3048" data-name="パス 3048" d="M438.541,328.224a3.3,3.3,0,0,0,1,1.031,2.152,2.152,0,0,0,1.143.337,2.249,2.249,0,0,0,1.254-.4,2.707,2.707,0,0,0,.848-.927l0-.009,2.661-5.251a2.944,2.944,0,0,0-1.3-3.959l-7.331-3.707a2.949,2.949,0,0,0-3.963,1.3l-.429.847-2.231,4.4,0,.01a2.709,2.709,0,0,0-.248,1.127,2.4,2.4,0,0,0,.143.826,2.078,2.078,0,0,0,.839,1.045,2.857,2.857,0,0,0,1.561.4c.083,0,.168,0,.254-.007a.522.522,0,1,0-.059-1.043c-.068,0-.133.006-.2.006a2.15,2.15,0,0,1-.748-.117,1.224,1.224,0,0,1-.349-.194,1.021,1.021,0,0,1-.3-.4,1.328,1.328,0,0,1-.1-.518,1.67,1.67,0,0,1,.152-.69l-.475-.219.467.236,2.227-4.4.429-.847a1.89,1.89,0,0,1,.714-.769,1.918,1.918,0,0,1,.985-.274,1.894,1.894,0,0,1,.858.205l7.331,3.707a1.89,1.89,0,0,1,.77.714,1.911,1.911,0,0,1,.274.984,1.889,1.889,0,0,1-.206.857l-2.657,5.243.467.236-.458-.253a1.669,1.669,0,0,1-.517.566,1.2,1.2,0,0,1-.67.22,1.1,1.1,0,0,1-.59-.179,2.276,2.276,0,0,1-.679-.713.523.523,0,0,0-.878.569Z" transform="translate(-377.227 -276.394)" fill="#156089"/>
        <path id="パス_3049" data-name="パス 3049" d="M477.547,367.962l-1.829,3.61a2.076,2.076,0,0,0-.225.94,2.109,2.109,0,0,0,.3,1.083,2.086,2.086,0,0,0,1.789,1.013,2.114,2.114,0,0,0,1.084-.3,2.083,2.083,0,0,0,.789-.846l1.829-3.61a.523.523,0,0,0-.933-.472l-1.829,3.61a1.036,1.036,0,0,1-.394.422,1.067,1.067,0,0,1-.547.151,1.04,1.04,0,0,1-.891-.505,1.063,1.063,0,0,1-.151-.546,1.032,1.032,0,0,1,.112-.468l1.829-3.61a.523.523,0,0,0-.933-.472Z" transform="translate(-417.186 -322.59)" fill="#156089"/>
        <path id="パス_3050" data-name="パス 3050" d="M12.09,402.674l-1.17,3.274-1.258,2.506a.388.388,0,0,1-.148.161.4.4,0,0,1-.206.057.4.4,0,0,1-.339-.194.4.4,0,0,1-.055-.2.382.382,0,0,1,.011-.092l.8-3.27-4.6,1.106L3.8,408.2a.9.9,0,0,1-.344.333.912.912,0,0,1-.433.108.938.938,0,0,1-.518-.154.887.887,0,0,1-.346-.45l-.8-2.235a1.959,1.959,0,0,1,.277-1.839l1.183-1.576a2.287,2.287,0,0,1,1.209-.828l4.271-1.2a.622.622,0,1,0-.337-1.2l-4.271,1.2a3.531,3.531,0,0,0-1.868,1.279L.642,403.218a3.2,3.2,0,0,0-.454,3.005l.8,2.235a2.137,2.137,0,0,0,.827,1.066,2.183,2.183,0,0,0,1.209.363,2.136,2.136,0,0,0,1.842-1.04l1.053-1.737,2.109-.507-.315,1.286v0a1.639,1.639,0,0,0,1.591,2.03,1.64,1.64,0,0,0,1.467-.9l1.292-2.574,1.2-3.346a.622.622,0,0,0-1.172-.418Z" transform="translate(0 -350.194)" fill="#156089"/>
        <path id="パス_3051" data-name="パス 3051" d="M251.131,205.958c.776,1.7,1.427,3.043,1.964,4.287l-.982,8.9,1.351,2.611a.7.7,0,0,0,1.2.074c.569-.834,1.317-1.931,1.438-2.105.2-.287.206-9.048.206-9.048l3.491-8.523a10.885,10.885,0,0,1-1.8,1.709c-.6.395-2.009,3.44-2.715,5.033a.45.45,0,0,1-.827-.013l-1.357-3.261-1.963.335" transform="translate(-220.336 -177.367)" fill="#156089"/>
        <path id="パス_3052" data-name="パス 3052" d="M408.311,324.643a20.767,20.767,0,0,0,1.058,1.881c.425.682.912,1.4,1.425,2.117a.571.571,0,0,0,.926-.667c-.5-.692-.973-1.4-1.383-2.052a19.7,19.7,0,0,1-1-1.773.571.571,0,0,0-1.028.5Z" transform="translate(-358.193 -284.116)" fill="#156089"/>
        <path id="パス_3053" data-name="パス 3053" d="M185.505,501.51l-.388-.35-.907,1-.473-1.176H181.82l.512-1.006-.47-2.507-.318-1.392,1.444-1.386.042.135.038.123,1.485,1.483,1.718-1.775.514,1.209v.592h.523l-.35-.388c-.007.006-.32.289-.7.688-.189.2-.395.429-.587.67a5.152,5.152,0,0,0-.513.754,3.793,3.793,0,0,0-.41,1.8,5.819,5.819,0,0,0,.128,1.187,4.807,4.807,0,0,0,.134.509l.5-.169-.388-.35.388.35.5-.168-.153.052.153-.051h0l-.153.052.153-.051a4.8,4.8,0,0,1-.207-1.361,2.764,2.764,0,0,1,.286-1.3,4.159,4.159,0,0,1,.408-.6,10.761,10.761,0,0,1,.777-.858c.115-.115.214-.21.284-.276l.081-.075.021-.019,0,0h0l.173-.156v-1.037l-1.214-2.856-2.076,2.145-.55-.549-.505-1.629-3.093,2.969.445,1.948.4,2.138-1.123,2.208h2.915l.834,2.073,2.235-2.473-.1-.29Z" transform="translate(-158.029 -432.345)" fill="#156089"/>
        <path id="パス_3054" data-name="パス 3054" d="M175.646,7.465a10.887,10.887,0,0,0-2.9-4.485A11.225,11.225,0,0,0,168.316.45a10.991,10.991,0,0,0-5.387-.211A15.136,15.136,0,0,0,161.1.76a10.934,10.934,0,0,0-2.446,1.217,11.072,11.072,0,0,0-4.884,8.326,11.433,11.433,0,0,0,.495,4.205l1.169,3.885c.083.275.164.551.249.826a.549.549,0,0,0,.367.386.559.559,0,0,0,.663-.324c.248-.45.547-.87.806-1.313a6.778,6.778,0,0,0,.753-1.726,3.778,3.778,0,0,0-.051-2.06,6.014,6.014,0,0,0-1.033-2c-.041-.052-.012-.073.019-.126.021-.037.043-.073.067-.109a1.234,1.234,0,0,1,.126-.163,1.3,1.3,0,0,1,.336-.244c.549-.3,1.126-.542,1.671-.85a14.069,14.069,0,0,0,3.965-3.646q.1-.125.2-.252c.024-.031.063-.11.1-.126s.1.053.144.081q.262.182.537.344a6.631,6.631,0,0,0,1.205.556,1.113,1.113,0,0,0,.957-.063,1.086,1.086,0,0,0,.52-.77c.053-.353.088-.709.131-1.064l.075-.605a.6.6,0,0,1,.207-.452c.334-.251.69.049.98.223.391.236.775.482,1.15.743a9.978,9.978,0,0,1,1.892,1.629,3.887,3.887,0,0,1,.572.847,1.353,1.353,0,0,1,.056.486,5.836,5.836,0,0,0,.072.581,4.348,4.348,0,0,0,.879,2.083,8.179,8.179,0,0,0,3.04,1.923,1.725,1.725,0,0,0,.657.262.547.547,0,0,0,.531-.509.867.867,0,0,0-.057-.3l-.122-.406L175.9,8.288C175.818,8.013,175.738,7.737,175.646,7.465Z" transform="translate(-134.891)" fill="#156089"/>
        <path id="パス_3055" data-name="パス 3055" d="M199.1,121.311a6.566,6.566,0,0,1,.271,1.9,9.291,9.291,0,0,1-1.944,5.443,9.755,9.755,0,0,1-4.913,3.534,8.977,8.977,0,0,1-2.583.37,10.444,10.444,0,0,1-5.58-1.653,8.857,8.857,0,0,1-2.085-1.848,6.8,6.8,0,0,1-1.248-2.315.594.594,0,0,0-1.138.342,7.981,7.981,0,0,0,1.463,2.72,10.512,10.512,0,0,0,3.786,2.877,11.593,11.593,0,0,0,4.8,1.064,10.169,10.169,0,0,0,2.925-.42,10.938,10.938,0,0,0,5.522-3.96,10.467,10.467,0,0,0,2.181-6.154,7.759,7.759,0,0,0-.321-2.238.594.594,0,0,0-1.138.342Z" transform="translate(-157.801 -105.764)" fill="#156089"/>
        <path id="パス_3056" data-name="パス 3056" d="M152.711,131.037a2.912,2.912,0,1,1-1.678-5.576l-.342-1.137a4.1,4.1,0,1,0,2.362,7.85l-.342-1.137Z" transform="translate(-129.649 -109.079)" fill="#156089"/>
        <path id="パス_3057" data-name="パス 3057" d="M328.172,84.628a4.093,4.093,0,0,0,2.748-5.1h0a4.1,4.1,0,0,0-5.11-2.745l.343,1.137a2.914,2.914,0,0,1,3.63,1.95h0a2.911,2.911,0,0,1-1.952,3.626l.342,1.137Z" transform="translate(-285.858 -67.21)" fill="#156089"/>
        <path id="パス_3058" data-name="パス 3058" d="M259.767,153.606a.284.284,0,1,0-.164-.544l-.8.239a.521.521,0,0,1-.526-.138l-.113-.118a.134.134,0,0,0-.226.132l.16.532a.38.38,0,0,0,.473.254Z" transform="translate(-226.307 -134.241)" fill="#156089"/>
        <path id="パス_3059" data-name="パス 3059" d="M267.286,175.508a1.343,1.343,0,0,0-2.558.768.248.248,0,0,0,.32.239l1.052-.316,1.052-.316A.248.248,0,0,0,267.286,175.508Z" transform="translate(-232.266 -153.268)" fill="#156089"/>
        <path id="パス_3060" data-name="パス 3060" d="M270.148,77.867l-1.159.348a.5.5,0,1,0,.289.959l1.159-.348a.5.5,0,1,0-.289-.96Z" transform="translate(-235.691 -68.3)" fill="#156089"/>
        <path id="パス_3061" data-name="パス 3061" d="M210.128,95.887l-1.159.348a.5.5,0,1,0,.289.959l1.159-.348a.5.5,0,1,0-.289-.96Z" transform="translate(-183.031 -84.11)" fill="#156089"/>
        <path id="パス_3062" data-name="パス 3062" d="M270.021,100.839h-.343a1.577,1.577,0,1,1-.462-1.114,1.568,1.568,0,0,1,.462,1.114h.685a2.263,2.263,0,1,0-2.263,2.26,2.262,2.262,0,0,0,2.263-2.26Z" transform="translate(-233.24 -86.491)" fill="#156089"/>
        <ellipse id="楕円形_122" data-name="楕円形 122" cx="1.92" cy="1.918" rx="1.92" ry="1.918" transform="translate(26.019 14.931)" fill="#156089"/>
        <path id="パス_3063" data-name="パス 3063" d="M213.1,177.94a.457.457,0,1,1-.457-.456A.456.456,0,0,1,213.1,177.94Z" transform="translate(-186.17 -155.72)" fill="#156089"/>
        <path id="パス_3064" data-name="パス 3064" d="M231.214,189.858a.189.189,0,1,1-.189-.189A.189.189,0,0,1,231.214,189.858Z" transform="translate(-202.53 -166.411)" fill="#156089"/>
        <path id="パス_3065" data-name="パス 3065" d="M227.629,170.592a.694.694,0,1,1-.694-.693A.693.693,0,0,1,227.629,170.592Z" transform="translate(-198.499 -149.065)" fill="#156089"/>
        <ellipse id="楕円形_123" data-name="楕円形 123" cx="0.86" cy="0.859" rx="0.86" ry="0.859" transform="translate(35.921 18.175)" fill="#156089"/>
        <ellipse id="楕円形_124" data-name="楕円形 124" cx="0.347" cy="0.347" rx="0.347" ry="0.347" transform="translate(37.641 20.834)" fill="#156089"/>
        <ellipse id="楕円形_125" data-name="楕円形 125" cx="0.752" cy="0.751" rx="0.752" ry="0.751" transform="translate(39.023 17.532)" fill="#156089"/>
        <path id="パス_3066" data-name="パス 3066" d="M322.524,167.274a.356.356,0,1,1-.356-.356A.356.356,0,0,1,322.524,167.274Z" transform="translate(-282.349 -146.45)" fill="#156089"/>
      </g>
    </g>
  </g>
</svg>
