<svg xmlns="http://www.w3.org/2000/svg" width="280" height="200" viewBox="0 0 280 200">
  <g id="グループ_2639" data-name="グループ 2639" transform="translate(-500 -779)">
    <g id="グループ_2638" data-name="グループ 2638" transform="translate(-6.709 3.381)">
      <g id="j104_4_1" transform="translate(680.976 789.561)">
        <path id="パス_193" data-name="パス 193" d="M363.205,12.388A34.558,34.558,0,0,0,353.14,4.977,44.781,44.781,0,0,0,338.909.634,71.39,71.39,0,0,0,329.619,0c-10.965,0-18.127,2.885-22.077,5.585a2.164,2.164,0,0,0,2.443,3.572h0c3.134-2.144,9.436-4.831,19.634-4.83a67.1,67.1,0,0,1,8.727.6,38.909,38.909,0,0,1,18.075,7.139,22.433,22.433,0,0,1,5.1,5.163,11.146,11.146,0,0,1,1.261,2.4,5.886,5.886,0,0,1,.39,1.994,4.035,4.035,0,0,1-.032.51,8.921,8.921,0,0,1-1.8,4.315,13.441,13.441,0,0,1-4.666,3.7,14.428,14.428,0,0,0-1.245-2.631,14.946,14.946,0,0,0-3.616-3.848,37.2,37.2,0,0,0-7.5-4.386,37.726,37.726,0,0,0-7.363-2.512,42.111,42.111,0,0,0-8.56-.9,28.887,28.887,0,0,0-10.834,1.868,12.19,12.19,0,0,0-3.706,2.285,6.993,6.993,0,0,0-1.284,1.6,5.46,5.46,0,0,0-.633,1.725,5.439,5.439,0,0,0-.284,1.7,5.558,5.558,0,0,0,.877,2.947,8.438,8.438,0,0,0,1.732,1.954,18.06,18.06,0,0,0,4.222,2.543,47.839,47.839,0,0,0,8.172,2.691,83.256,83.256,0,0,0,8.76,1.624,56.223,56.223,0,0,0,7.277.489A41.345,41.345,0,0,0,353.2,36.032a12.677,12.677,0,0,1-4.063,8.319,19.226,19.226,0,0,1-5.7,3.7c-.128-.2-.258-.39-.4-.578a14.559,14.559,0,0,0-5.48-4.382,25.368,25.368,0,0,0-10.616-2.4,18.312,18.312,0,0,0-3.279.278,9.73,9.73,0,0,0-4.149,1.669,5.461,5.461,0,0,0-1.5,1.709,4.817,4.817,0,0,0-.593,2.329,5.35,5.35,0,0,0,.045.68,4.92,4.92,0,0,0,.758,2.025,8.216,8.216,0,0,0,2.6,2.438,19.2,19.2,0,0,0,5.442,2.194,26.286,26.286,0,0,0,6.277.789,20.37,20.37,0,0,0,2.493-.147,40.984,40.984,0,0,0,5.8-1.134c0,.06.008.118.008.178a5.883,5.883,0,0,1-.6,2.543,10.94,10.94,0,0,1-3.827,4.146,28.831,28.831,0,0,1-8.507,3.743A2.164,2.164,0,1,0,329.1,68.3c5.417-1.539,9.355-3.641,12.033-6.148a13.6,13.6,0,0,0,3.03-4.047,10.213,10.213,0,0,0,1.018-4.4,9.687,9.687,0,0,0-.139-1.632l.063-.026a21.775,21.775,0,0,0,9.448-7.392,16.411,16.411,0,0,0,3.007-9.382c0-.246-.013-.49-.025-.734.612-.273,1.2-.564,1.773-.877a17.337,17.337,0,0,0,5.478-4.585,13.268,13.268,0,0,0,2.648-6.38v0a8.246,8.246,0,0,0,.068-1.066,10.18,10.18,0,0,0-.65-3.47A17.9,17.9,0,0,0,363.205,12.388Zm-28.7,37.973a16.094,16.094,0,0,1-1.96.114,21.477,21.477,0,0,1-7.674-1.449,9.246,9.246,0,0,1-2.476-1.4,2.741,2.741,0,0,1-.529-.576.634.634,0,0,1-.111-.248.949.949,0,0,1-.009-.125.506.506,0,0,1,.027-.175.84.84,0,0,1,.272-.347,4.442,4.442,0,0,1,1.747-.787,12.907,12.907,0,0,1,3.15-.35,21.119,21.119,0,0,1,8.752,1.974,10.665,10.665,0,0,1,3.424,2.512A37.449,37.449,0,0,1,334.51,50.361Zm1.472-17.835a66.809,66.809,0,0,1-14.014-3.267,18.21,18.21,0,0,1-4.719-2.449,4.521,4.521,0,0,1-1.041-1.09,1.228,1.228,0,0,1-.225-.662,1.14,1.14,0,0,1,.081-.406l.087-.232.032-.245a1.081,1.081,0,0,1,.146-.4,3.76,3.76,0,0,1,1.182-1.144,13.476,13.476,0,0,1,4.32-1.725,28.71,28.71,0,0,1,6.567-.71,37.791,37.791,0,0,1,7.677.808,28.653,28.653,0,0,1,4.106,1.245,39.731,39.731,0,0,1,6.993,3.439A21.759,21.759,0,0,1,350,27.78a9.16,9.16,0,0,1,1.74,1.981,10.08,10.08,0,0,1,.907,1.944,36.417,36.417,0,0,1-9.946,1.274A51.927,51.927,0,0,1,335.982,32.526Z" transform="translate(-306.599)" fill="#3e485c"/>
      </g>
      <g id="j124_12_10_1_" data-name="j124_12_10 (1)" transform="translate(569.709 822.75)">
        <path id="パス_2485" data-name="パス 2485" d="M152.664,421.46c-3.139,2.548-13.158,6.069-16.256,6.334s-17.421-5.05-17.421-5.05v37.77H38.492v-36.82s-12.045,4.207-14.727,4.1-12.293-2.572-15.583-5.609-4.688-10.875-3.257-11.96c1.41-1.072,26.266-40.24,27.041-41.463a.162.162,0,0,1,.02-.028L46.644,377.7,31.986,402.547l48.306-14.825,47.894,14.825-14.111-25.4s14.458-8.442,15.277-7.133,23.14,35.255,24.473,39.131S155.8,418.913,152.664,421.46Z" transform="translate(-0.061 -328.09)" fill="#fad06c"/>
        <path id="パス_2486" data-name="パス 2486" d="M192.557,426.479a15.166,15.166,0,0,1,0,3.557c-.269.872,22.721,30.7,22.721,30.7s2.455,1.913,4.2,1.718,4.1-3.179,4.1-3.179l22.486-32.189L234.589,422.9l-15.105-11.257Z" transform="translate(-142.244 -361.074)" fill="#fff"/>
        <path id="パス_2487" data-name="パス 2487" d="M222.115,291.085l4.471-1.917a10.022,10.022,0,0,0-9.8-7.925v-2.959c0-13.331-13.907-26.058-28.661-26.058s-28.661,12.727-28.661,26.058v3a10.02,10.02,0,0,0-8.843,7.78l4.064,2.569-2.85,4.827a10.009,10.009,0,0,0,8.093,4.809c2.526,11.663,15.023,21.81,28.2,21.81s25.663-10.14,28.195-21.8h.466a10.007,10.007,0,0,0,8.374-4.524Z" transform="translate(-111.268 -243.311)" fill="#ffd7c5"/>
        <path id="パス_2488" data-name="パス 2488" d="M412.924,290.139l-11.152,6.081-3.424-5.82v-7.451c0-.831.016-1.647-.016-2.462a31.23,31.23,0,0,0-4.239-14.674,29.506,29.506,0,0,0-2.4-3.49,1.576,1.576,0,0,1,1.092.652c2.136-2.576,4.924-1.924,9.7,1.859,3.473,2.772,7.435,14.12,7.859,16.843A64.628,64.628,0,0,0,412.924,290.139Z" transform="translate(-289.35 -250.109)" fill="#ffd7c5"/>
        <path id="パス_2489" data-name="パス 2489" d="M136.569,262.323a31.567,31.567,0,0,0-4.5,7.941,32.768,32.768,0,0,0-2.12,11.919v8.233l-3.424,5.8-11.136-6.081a64.634,64.634,0,0,0,2.576-8.462c.424-2.723,4.386-14.071,7.859-16.843,4.777-3.782,7.565-4.435,9.7-1.859A1.592,1.592,0,0,1,136.569,262.323Z" transform="translate(-85.24 -250.109)" fill="#ffd7c5"/>
        <line id="線_42" data-name="線 42" y1="35.006" transform="translate(115.761 96.132)" fill="none"/>
        <path id="パス_2490" data-name="パス 2490" d="M377.263,289.736c-7.547-1.312-12.642-13.456-11.5-18.643-3.024-2.688-2.446-5.215-.134-5.633a3.194,3.194,0,0,0,2.2-1.562c.935-1.577,3.408-2.2,4.276-.914,2.136-2.57,4.924-1.915,9.695,1.868,3.479,2.759,7.434,14.113,7.862,16.831a65.248,65.248,0,0,0,2.57,8.471l-11.137,6.074Z" transform="translate(-268.663 -250.12)" fill="#ffd7c5"/>
        <line id="線_43" data-name="線 43" x2="19.628" y2="34.554" transform="translate(110.848 48.325)" fill="#ffd7c5"/>
        <line id="線_44" data-name="線 44" x2="21.875" y2="7.156" transform="translate(103.087 66.016)" fill="#ffd7c5"/>
        <path id="パス_2491" data-name="パス 2491" d="M130.372,289.736c7.547-1.312,12.641-13.456,11.5-18.643,3.024-2.688,2.446-5.215.134-5.633a3.194,3.194,0,0,1-2.2-1.562c-.935-1.577-3.408-2.2-4.276-.914-2.136-2.57-4.924-1.915-9.695,1.868-3.479,2.759-7.434,14.113-7.862,16.831a65.287,65.287,0,0,1-2.57,8.471l11.137,6.074Z" transform="translate(-85.252 -250.12)" fill="#ffd7c5"/>
        <line id="線_45" data-name="線 45" x1="19.628" y2="34.554" transform="translate(23.245 48.325)" fill="#ffd7c5"/>
        <line id="線_46" data-name="線 46" x1="21.875" y2="7.156" transform="translate(28.759 66.016)" fill="#ffd7c5"/>
        <path id="パス_2492" data-name="パス 2492" d="M397.72,273.885s-1.783-3.909-4.767-5.13" transform="translate(-290.278 -255.522)" fill="#ffd7c5"/>
        <path id="パス_2493" data-name="パス 2493" d="M175.362,273.885s1.783-3.909,4.767-5.13" transform="translate(-129.542 -255.522)" fill="#ffd7c5"/>
        <path id="パス_2494" data-name="パス 2494" d="M131.727,601.145v29.74h-3.559v-29.74a1.779,1.779,0,1,1,3.559,0Z" transform="translate(-94.68 -499.747)" fill="#3e485c"/>
        <path id="パス_2495" data-name="パス 2495" d="M284.819,445.163h3.55a.812.812,0,1,0,0-1.624H286a1.488,1.488,0,0,1-1.324-.809l-.213-.416a.384.384,0,0,0-.726.175v1.588A1.086,1.086,0,0,0,284.819,445.163Z" transform="translate(-209.597 -383.577)" fill="#3e485c"/>
        <path id="パス_2496" data-name="パス 2496" d="M327.678,376.439l3.271,1.119a1.432,1.432,0,0,0,.927-2.71l-3.271-1.119a1.432,1.432,0,1,0-.927,2.71Z" transform="translate(-241.344 -333.011)" fill="#3e485c"/>
        <path id="パス_2497" data-name="パス 2497" d="M240.023,377.557l3.271-1.119a1.432,1.432,0,1,0-.927-2.711l-3.271,1.119a1.432,1.432,0,0,0,.927,2.711Z" transform="translate(-175.908 -333.01)" fill="#3e485c"/>
        <path id="パス_2498" data-name="パス 2498" d="M238.778,412.805l3.039.754-2.345,1.565a1.141,1.141,0,0,0,1.267,1.9l4.5-3a1.141,1.141,0,0,0-.359-2.057l-5.548-1.376a1.141,1.141,0,0,0-.55,2.216Z" transform="translate(-175.747 -360.272)" fill="#3e485c"/>
        <path id="パス_2499" data-name="パス 2499" d="M241.227,419.165Z" transform="translate(-178.197 -366.632)" fill="#156089"/>
        <path id="パス_2500" data-name="パス 2500" d="M320.945,414.023l4.5,3a1.141,1.141,0,0,0,1.267-1.9h0l-2.346-1.565,3.039-.754a1.141,1.141,0,0,0-.549-2.216l-5.548,1.376a1.142,1.142,0,0,0-.359,2.057Z" transform="translate(-236.711 -360.272)" fill="#3e485c"/>
        <path id="パス_2501" data-name="パス 2501" d="M267.617,473.454a16.866,16.866,0,0,1,11.651,0,1.021,1.021,0,0,0,1.418-1.3c-1.132-2.722-3.11-4.964-7.244-4.964a7.813,7.813,0,0,0-7.244,4.964A1.021,1.021,0,0,0,267.617,473.454Z" transform="translate(-196.582 -402.111)" fill="#3e485c"/>
        <path id="パス_2502" data-name="パス 2502" d="M287.569,649.388a2.331,2.331,0,1,0-2.331-2.331A2.331,2.331,0,0,0,287.569,649.388Z" transform="translate(-210.708 -533.256)" fill="#3e485c"/>
        <circle id="楕円形_90" data-name="楕円形 90" cx="2.331" cy="2.331" r="2.331" transform="translate(74.53 126.476)" fill="#3e485c"/>
        <path id="パス_2507" data-name="パス 2507" d="M75.77,241.3c.261-.163.505-.342.75-.522.1-.065.261-.245.359-.261.114-.016.245.228.342.326.375.489.766.945,1.174,1.386a18.841,18.841,0,0,0,2.837,2.511,3.167,3.167,0,0,0,2.674.62,3.085,3.085,0,0,0,2.054-1.68c.44-.929.831-1.875,1.239-2.8.228-.538.473-1.06.7-1.6a1.671,1.671,0,0,1,.929-1.06c1.125-.424,1.859.685,2.495,1.4.881.978,1.728,1.957,2.543,2.983.745.944,1.473,1.922,2.136,2.94.057.2.116.4.18.6a26.3,26.3,0,0,0,2.39,5.361,4.611,4.611,0,0,1-.254,1.288c-.114.538-.212,1.093-.277,1.647a12.479,12.479,0,0,0,.685,6.424c1.386,3.245,4.157,5.495,6.734,7.761.473.424.962,1.092,1.582,1.271a1.566,1.566,0,0,0,1.875-.962,2.561,2.561,0,0,0,.082-.864v-6.328l1.773,3.006a1.678,1.678,0,0,0-.761.213,1.7,1.7,0,0,0-.637,2.314l2.352,4.141a8.375,8.375,0,0,1-2.566,2.266,8.271,8.271,0,0,1-2.072.826,21.283,21.283,0,0,0,.132-2.311,1.7,1.7,0,1,0-3.394,0h0a20.013,20.013,0,0,1-2.224,8.937A28.368,28.368,0,0,1,91.5,292.1a27.459,27.459,0,0,1-14.639,4.463,26.3,26.3,0,0,1-10.052-2.067,29.841,29.841,0,0,1-12.085-9.225,24.562,24.562,0,0,1-3.554-6.31A19.236,19.236,0,0,1,49.9,272.2a1.7,1.7,0,0,0-3.394,0,21.231,21.231,0,0,0,.136,2.312,8.274,8.274,0,0,1-2.076-.827A8.377,8.377,0,0,1,42,271.415l2.352-4.141a1.7,1.7,0,0,0-.637-2.314,1.678,1.678,0,0,0-.761-.213l1.76-2.985v6.568a1.592,1.592,0,0,0,.7,1.353,1.571,1.571,0,0,0,2.071-.342c1.044-1.027,2.218-1.924,3.294-2.935a19.827,19.827,0,0,0,3.473-4.093,10.958,10.958,0,0,0,1.565-5.69,17.39,17.39,0,0,0-.734-5.017,26.533,26.533,0,0,0,1.351-2.576c.077-.019.154-.038.231-.054,1.744-.358,3.522-.554,5.267-.945C66.965,246.891,71.6,244.233,75.77,241.3Zm-4.126,72.148L55.954,291.567a33.663,33.663,0,0,0,4.441,3.39,31.941,31.941,0,0,0,11.249,4.5Zm9.38-13.81a30.624,30.624,0,0,0,7.189-2.009,33.384,33.384,0,0,0,8.294-4.973L81.025,313.575v-13.94ZM32.243,257.352c.188-.533.412-1.183.646-1.889.3-.905.614-1.9.885-2.856a24.177,24.177,0,0,0,.626-2.669c.036-.235.133-.673.28-1.211a60.549,60.549,0,0,1,2.95-8.076,36.419,36.419,0,0,1,2.092-4.056,15.19,15.19,0,0,1,1.037-1.5,5.837,5.837,0,0,1,.881-.92,22.352,22.352,0,0,1,3.51-2.375,7.277,7.277,0,0,1,1.263-.522,3.229,3.229,0,0,1,.9-.146,1.673,1.673,0,0,1,.809.192c.028.015.058.035.086.052-.155.126-.307.254-.451.386a14.628,14.628,0,0,0-3.049,4.207,1.223,1.223,0,0,0,2.224,1.016h0a12.658,12.658,0,0,1,1.177-1.945,10.093,10.093,0,0,1,1.324-1.5,5.822,5.822,0,0,1,1.415-.969,1.7,1.7,0,0,0,.369-.185,1.208,1.208,0,0,0,.276-.229,1.7,1.7,0,0,0,.145-.169.51.51,0,0,1,.112-.01,1.756,1.756,0,0,1,1.347.777,5.248,5.248,0,0,0,.381.549c-.124.1-.251.2-.381.31a13.139,13.139,0,0,0-3.639,4.948,1.223,1.223,0,1,0,2.258.939,10.694,10.694,0,0,1,2.965-4.023c.3-.255.577-.462.824-.634a4.79,4.79,0,0,0,.948.277,1.233,1.233,0,0,1,.341.108.382.382,0,0,1,.163.13.329.329,0,0,1,.039.186,1.781,1.781,0,0,1-.274.83,5.83,5.83,0,0,1-1.228,1.442,1.7,1.7,0,0,0-.53,1.632,6,6,0,0,1,.12,1.272,15.2,15.2,0,0,1-.782,4.4,21.971,21.971,0,0,1-3.8,7.138,13.145,13.145,0,0,1-2.721,2.544,7.6,7.6,0,0,1-2.953,1.251,1.7,1.7,0,0,0-1.171.81l-2.995,5.079Zm.158,30.954,7.814-13.756a11.608,11.608,0,0,0,7.11,3.523,25.281,25.281,0,0,0,1.76,4.579c.028.056.059.111.088.167Zm72.146-5.486a26.139,26.139,0,0,0,1.181-2.671q.384-1.024.673-2.076a11.611,11.611,0,0,0,7.1-3.523l7.814,13.756Zm8.509-20.876-2.995-5.079a1.7,1.7,0,0,0-1.171-.81,8.291,8.291,0,0,1-3.9-1.972,18.735,18.735,0,0,1-4.62-6.47,21.853,21.853,0,0,1-1.3-3.7,13.617,13.617,0,0,1-.441-3.192,5.969,5.969,0,0,1,.12-1.27,1.691,1.691,0,0,0-.53-1.634A5.83,5.83,0,0,1,97,236.374a1.782,1.782,0,0,1-.274-.83.42.42,0,0,1,.022-.151.233.233,0,0,1,.091-.111,1.024,1.024,0,0,1,.429-.162,4.826,4.826,0,0,0,.949-.278,10.856,10.856,0,0,1,.963.756A10.668,10.668,0,0,1,102,239.5a1.223,1.223,0,1,0,2.258-.939,13.141,13.141,0,0,0-3.639-4.947c-.131-.111-.257-.212-.381-.31a5.256,5.256,0,0,0,.38-.549,1.62,1.62,0,0,1,.605-.558,1.8,1.8,0,0,1,.431-.173,1.217,1.217,0,0,0,.553.451,5.639,5.639,0,0,1,1.64,1.086,11.161,11.161,0,0,1,1.832,2.26c.216.345.382.644.491.852.055.1.1.186.121.239l.028.058.005.012h0a1.223,1.223,0,0,0,2.225-1.015h0a14.871,14.871,0,0,0-1.387-2.317,12.612,12.612,0,0,0-1.662-1.89c-.078-.072-.164-.14-.246-.21a2.221,2.221,0,0,1,.34-.228,1.675,1.675,0,0,1,.809-.192,3.22,3.22,0,0,1,.9.146,8.907,8.907,0,0,1,2.022.947,26.593,26.593,0,0,1,2.751,1.95,6.316,6.316,0,0,1,1.024,1.1,23.164,23.164,0,0,1,2.108,3.522,59.311,59.311,0,0,1,2.765,6.587c.369,1.044.68,2.008.911,2.8a16.338,16.338,0,0,1,.431,1.75,24.177,24.177,0,0,0,.626,2.669c.406,1.434.911,2.956,1.316,4.129.076.22.147.423.215.616Zm39.429,35.783a1.367,1.367,0,0,0-.09-.171l-24.832-39.7a1.7,1.7,0,0,0-2.336-.542,1.452,1.452,0,0,0-.126.1c-.159-.432-.652-1.79-1.158-3.347-.273-.831-.55-1.724-.783-2.548a20.315,20.315,0,0,1-.489-2.1c-.073-.444-.192-.958-.359-1.573a63.4,63.4,0,0,0-3.131-8.576,39.718,39.718,0,0,0-2.295-4.443,18.2,18.2,0,0,0-1.276-1.842,9.011,9.011,0,0,0-1.427-1.464,25.67,25.67,0,0,0-4.068-2.735,11.043,11.043,0,0,0-1.859-.762,6.63,6.63,0,0,0-1.855-.281,5.1,5.1,0,0,0-2.38.579,5.52,5.52,0,0,0-.762.493,3.835,3.835,0,0,0-1.292-.224,4.839,4.839,0,0,0-.974.118A31.124,31.124,0,0,0,80.14,218.241a42.783,42.783,0,0,0-5.413-.082,31.243,31.243,0,0,0-19.81,8.266,30.833,30.833,0,0,0-2.226,2.27,4.8,4.8,0,0,0-.941-.114,3.833,3.833,0,0,0-1.292.224,5.581,5.581,0,0,0-.766-.493,5.072,5.072,0,0,0-2.38-.579,6.6,6.6,0,0,0-1.85.281,12.3,12.3,0,0,0-2.816,1.3,29.92,29.92,0,0,0-3.11,2.2,9.494,9.494,0,0,0-1.618,1.7,26.357,26.357,0,0,0-2.438,4.056,62.167,62.167,0,0,0-2.935,6.979c-.387,1.1-.718,2.12-.97,2.992a19.2,19.2,0,0,0-.526,2.168,20.539,20.539,0,0,1-.538,2.27c-.379,1.333-.864,2.808-1.26,3.946-.2.567-.367,1.052-.493,1.39-.057.167-.106.3-.138.391-.045-.033-.082-.069-.126-.1a1.7,1.7,0,0,0-2.34.542l-24.827,39.7c-.037.061-.061.106-.094.171a12.6,12.6,0,0,0,5.727,16.688,45.393,45.393,0,0,0,6.09,2.645,21.649,21.649,0,0,0,6.958,1.174,24.284,24.284,0,0,0,8.165-1.5l7.1-2.5,4.675-1.651a1.7,1.7,0,0,0-1.129-3.2l-11.768,4.153a21.025,21.025,0,0,1-7.039,1.309,18.272,18.272,0,0,1-5.886-1,42.378,42.378,0,0,1-5.641-2.458,9.122,9.122,0,0,1-3.746-3.452A9.281,9.281,0,0,1,3.4,303.144a9.17,9.17,0,0,1,.868-3.885L29.03,259.651a1.259,1.259,0,0,0,.086-.167,1.769,1.769,0,0,0,.224.151l11.14,6.073a1.628,1.628,0,0,0,.742.2L21.77,300.152a1.7,1.7,0,1,0,2.951,1.675l5.189-9.135,21.029-6.881c.506.75,1.044,1.476,1.618,2.185a1.6,1.6,0,0,0-.954.3,1.626,1.626,0,0,0-.375,2.275l20.8,29,0,.008a5.343,5.343,0,0,0,8.6,0l23.344-31.541a1.63,1.63,0,0,0,.082-1.81l19.753,6.461L129,301.827a1.7,1.7,0,1,0,2.951-1.675L112.5,265.908a1.631,1.631,0,0,0,.742-.2l11.136-6.073a1.845,1.845,0,0,0,.228-.151c.028.057.049.114.082.167l24.771,39.608a9.2,9.2,0,0,1-4.215,12.123,42.6,42.6,0,0,1-5.641,2.458,18.292,18.292,0,0,1-5.886,1,21.018,21.018,0,0,1-7.039-1.309l-11.768-4.153a1.7,1.7,0,0,0-1.129,3.2l.938.33a1.7,1.7,0,0,0-.656,1.333v35.006h3.4V314.243a1.653,1.653,0,0,0-.045-.379l8.136,2.87h0a24.292,24.292,0,0,0,8.165,1.5,21.606,21.606,0,0,0,6.954-1.174,45.444,45.444,0,0,0,6.094-2.645,12.59,12.59,0,0,0,5.723-16.688Z" transform="translate(0 -218.111)" fill="#3e485c"/>
      </g>
    </g>
    <rect id="長方形_331" data-name="長方形 331" width="280" height="200" transform="translate(500 779)" fill="none"/>
  </g>
</svg>
