<svg xmlns="http://www.w3.org/2000/svg" xmlns:xlink="http://www.w3.org/1999/xlink" width="280" height="200" viewBox="0 0 280 200">
  <defs>
    <clipPath id="clip-path">
      <rect id="長方形_334" data-name="長方形 334" width="15.755" height="21.768" fill="#ffb64b"/>
    </clipPath>
  </defs>
  <g id="グループ_2831" data-name="グループ 2831" transform="translate(-907 -3934)">
    <rect id="長方形_429" data-name="長方形 429" width="280" height="200" transform="translate(907 3934)" fill="none"/>
    <g id="グループ_2827" data-name="グループ 2827" transform="translate(301.727 -543.477)">
      <g id="グループ_2694" data-name="グループ 2694" transform="translate(640 4497)">
        <path id="パス_2961" data-name="パス 2961" d="M224.215,93.354V14.9A12.441,12.441,0,0,0,211.789,2.47H110.34A12.441,12.441,0,0,0,97.915,14.9V93.354" transform="translate(-75.273 -1.899)" fill="#a8d4ff"/>
        <path id="パス_2963" data-name="パス 2963" d="M228.039,191.284l-112.907.862v-73.1l112.907-.862Z" transform="translate(-88.509 -106.488)" fill="#b4b4b5"/>
        <path id="パス_2968" data-name="パス 2968" d="M178.148,414.218,160.695,395.5H34.4l-17.453,18.72A6.112,6.112,0,0,0,21.411,424.5H173.679a6.112,6.112,0,0,0,4.469-10.279" transform="translate(-11.753 -304.043)" fill="#a8d4ff"/>
        <path id="パス_2969" data-name="パス 2969" d="M333.24,455.049l-3.551-8.215a4.34,4.34,0,0,0-3.984-2.618H308.282a4.34,4.34,0,0,0-3.984,2.618l-3.552,8.215Z" transform="translate(-231.202 -341.495)" fill="#b4b4b5"/>
        <path id="パス_2970" data-name="パス 2970" d="M226.69,108.96V35.99a6.627,6.627,0,0,0-6.626-6.627H118.615a6.627,6.627,0,0,0-6.626,6.627v72.97h114.7ZM113.969,35.99a4.647,4.647,0,0,1,4.646-4.647H220.064a4.647,4.647,0,0,1,4.646,4.647V47.634H113.969V35.99m0,13.624H224.71V106.98H113.969V49.614" transform="translate(-86.092 -22.573)" fill="#b4b4b5"/>
        <path id="パス_2975" data-name="パス 2975" d="M147.387,91.484V13.418A13.43,13.43,0,0,0,133.972,0H32.523A13.43,13.43,0,0,0,19.107,13.418V91.484L1.919,109.919a6.989,6.989,0,0,0-1.92,4.8,7.252,7.252,0,0,0,1.954,4.933,6.981,6.981,0,0,0,5.159,2.208H159.381a6.98,6.98,0,0,0,5.159-2.208,7.251,7.251,0,0,0,1.954-4.933,6.988,6.988,0,0,0-1.919-4.8ZM24.441,5.334A11.4,11.4,0,0,1,32.523,1.98H133.972a11.451,11.451,0,0,1,11.435,11.437V90.884H21.087V13.418a11.4,11.4,0,0,1,3.353-8.083M163.095,118.3a4.99,4.99,0,0,1-3.714,1.582H7.113A4.993,4.993,0,0,1,3.4,118.3a5.279,5.279,0,0,1-1.418-3.579,5,5,0,0,1,1.388-3.453l17.16-18.406H145.966l17.16,18.406.724-.675-.724.675a5,5,0,0,1,1.387,3.453,5.278,5.278,0,0,1-1.419,3.579" transform="translate(0 0)" fill="#156089"/>
        <path id="パス_2976" data-name="パス 2976" d="M126.578,441.683H102.151L97.461,452.53H40.478v1.981H188.251V452.53H131.268ZM99.625,452.516l3.827-8.853h21.825l3.828,8.853Z" transform="translate(-31.117 -339.548)" fill="#156089"/>
        <rect id="長方形_374" data-name="長方形 374" width="168.048" height="121.864" transform="translate(0 0)" fill="none"/>
        <rect id="長方形_426" data-name="長方形 426" width="112.485" height="12.186" rx="6.093" transform="translate(26.844 7.499)" fill="#b4b4b5"/>
      </g>
      <g id="j196_12_14" transform="translate(699.987 4542.333) rotate(-17)">
        <path id="パス_2548" data-name="パス 2548" d="M.317,5.389a1.618,1.618,0,0,1,2.5-2.047l3.331,3.6L9.237,1.5a2.756,2.756,0,0,1,4.813-.166,17.469,17.469,0,0,1,2.508,6.15C17.1,10.24,10.138,14.912,8.5,16.9l-1.889.569-3.8-1.945.365-3.875L3.124,9.187Z" transform="translate(100.257 2.112)" fill="#ffd7c5"/>
        <path id="パス_2549" data-name="パス 2549" d="M10.92,0,24.813,6.826,53.379,30.7s5.239-3.618,9.932.375l.668.774A1.245,1.245,0,0,1,63.85,33.6L52.421,43.476a1.245,1.245,0,0,1-1.672-.039L44.972,37.96,8.231,16.623l-1.484-.45L0,6.172Z" transform="translate(54.846 83.249)" fill="#6c859b"/>
        <path id="パス_2550" data-name="パス 2550" d="M1.284,30.033a4.532,4.532,0,0,0,4.237-1.508L29.157,0,36.4,6.018,4.29,48.948,0,29.476A2.992,2.992,0,0,0,1.284,30.033Z" transform="translate(73.287 12.938)" fill="#20ab9a"/>
        <path id="パス_2551" data-name="パス 2551" d="M16.271,5.389a1.618,1.618,0,0,0-2.5-2.047l-3.331,3.6L7.351,1.5a2.756,2.756,0,0,0-4.813-.166A17.468,17.468,0,0,0,.03,7.483C-.509,10.24,6.45,14.912,8.084,16.9l1.889.569,3.8-1.945-.365-3.875.052-2.461Z" transform="translate(2.714 0.858)" fill="#ffd7c5"/>
        <path id="パス_2552" data-name="パス 2552" d="M53.362,0,39.469,6.826,10.9,30.7S5.664,27.077.971,31.07L.3,31.844A1.245,1.245,0,0,0,.431,33.6L11.86,43.476a1.245,1.245,0,0,0,1.672-.039L19.31,37.96,56.05,16.623l1.484-.45,6.747-10Z" transform="translate(4.398 83.249)" fill="#6c859b"/>
        <path id="パス_2553" data-name="パス 2553" d="M39.677,4.358S32.989,0,21.306,0,2.562,6.2,2.562,6.735V22.7L4.115,44.353l.043.426L.367,48.788s-1.5.807,1.55,2.348a14.186,14.186,0,0,0,3,1.093l.045.446,3.574,2.2c3.075.958,6.8,1.182,9.368-.756l2.085-1.44c1.16-.874,2.228-1.691,3.388-.817L25.3,53.31A10,10,0,0,0,34.3,54.872l3.378-2.008,4.812-1.812a2.183,2.183,0,0,0,.486-3.449l-3.24-3.249L40.782,22.7V8.605Z" transform="translate(39.517 40.857)" fill="#20ab9a"/>
        <path id="パス_2554" data-name="パス 2554" d="M1.108,4.485A1.758,1.758,0,0,0,.254,5.57c-.091.337-.192.706-.253.9-.13.42,10.951,14.8,10.951,14.8a3.763,3.763,0,0,0,2.026.828c.843-.094,1.975-1.532,1.975-1.532l10.7-14.432a1.3,1.3,0,0,0-.5-1.955L21.273,2.416l-.7-.4a14.913,14.913,0,0,0-15.139.1Z" transform="translate(47.378 38.149)" fill="#fff"/>
        <path id="パス_2555" data-name="パス 2555" d="M35.119,30.033a4.532,4.532,0,0,1-4.237-1.508L7.247,0,0,6.018l32.114,42.93L36.4,29.476A2.992,2.992,0,0,1,35.119,30.033Z" transform="translate(13.07 12.938)" fill="#20ab9a"/>
        <path id="パス_2556" data-name="パス 2556" d="M32.011,13.988h0V12.562C32.011,6.135,25.308,0,18.2,0S4.383,6.136,4.383,12.562V14.01a4.83,4.83,0,0,0,.224,9.635c1.217,5.622,7.241,10.514,13.59,10.514S30.565,29.27,31.786,23.65h.225a4.831,4.831,0,0,0,0-9.661Z" transform="translate(41.912 10.889)" fill="#ffd7c5"/>
        <path id="パス_2557" data-name="パス 2557" d="M115.622,57.82l-.05-.042a8.753,8.753,0,0,0-2.8-1.628,8.2,8.2,0,0,0-2.713-.454,10.1,10.1,0,0,0-3.872.818,10.8,10.8,0,0,0-1.028.5l-25.62-21.02a.847.847,0,0,0-.406-.18c.177-.053.349-.1.512-.15a2.125,2.125,0,0,0,1.148-.8,2.148,2.148,0,0,0-.1-2.649L77.17,28.039,78.7.906a.857.857,0,1,0-1.711-.1h0L75.42,28.624l3.968,4.7a.42.42,0,0,1,.1.278.446.446,0,0,1-.083.259.406.406,0,0,1-.226.155A25.7,25.7,0,0,0,69.9,38.647a2.05,2.05,0,0,1-.714.387,3.062,3.062,0,0,1-.921.128,7.886,7.886,0,0,1-2.815-.66A23.688,23.688,0,0,1,61.2,36.154c-.582-.4-1.067-.752-1.4-1.008-.168-.128-.3-.231-.389-.3l-.1-.08-.024-.02-.006-.005a.851.851,0,0,0-.468-.191.861.861,0,0,0,.022-.188V28.332a.857.857,0,1,0-1.714,0v6.029a.853.853,0,0,0,.265.618,32.32,32.32,0,0,1-3.075,2.106,20.033,20.033,0,0,1-2.888,1.457,7.741,7.741,0,0,1-2.72.622,3.059,3.059,0,0,1-.921-.128,2.047,2.047,0,0,1-.714-.388,25.7,25.7,0,0,0-9.281-4.635.406.406,0,0,1-.226-.155.446.446,0,0,1-.083-.259.42.42,0,0,1,.1-.278l3.968-4.7L39.977.809a.857.857,0,1,0-1.711.1h0L39.8,28.039l-3.527,4.174a2.141,2.141,0,0,0,1.048,3.449c.152.043.312.089.477.139a.85.85,0,0,0-.495.191h0L11.683,57.011a10.824,10.824,0,0,0-1.029-.5A10.1,10.1,0,0,0,6.781,55.7a8.2,8.2,0,0,0-2.713.454,8.748,8.748,0,0,0-2.8,1.628l-.05.043-.711.823a2.1,2.1,0,0,0,.216,2.965l11.429,9.876a2.1,2.1,0,0,0,2.822-.066l5.7-5.407,37.723-21.7.017-.012.017.012,37.723,21.7,5.7,5.407a2.1,2.1,0,0,0,2.821.066l11.43-9.876h0a2.1,2.1,0,0,0,.216-2.965Zm-57.2-14.977a.852.852,0,0,0-.872-.015l-37.3,21.455-7.174-6.2L38.389,37.317a.854.854,0,0,0-.013-1.335,23.062,23.062,0,0,1,7.589,3.977,3.764,3.764,0,0,0,1.3.711,4.774,4.774,0,0,0,1.436.208,9.514,9.514,0,0,0,3.455-.784,25.343,25.343,0,0,0,4.569-2.522c.8-.544,1.418-1.012,1.757-1.277a34.071,34.071,0,0,0,3.108,2.148,22.381,22.381,0,0,0,3.219,1.651,9.514,9.514,0,0,0,3.455.784,4.773,4.773,0,0,0,1.436-.208,3.766,3.766,0,0,0,1.3-.711,22.881,22.881,0,0,1,7.4-3.915.829.829,0,0,0-.067.067.857.857,0,0,0,.119,1.206l25.312,20.768-7.174,6.2-37.3-21.455A.853.853,0,0,0,58.422,42.843Z" transform="translate(0 56.248)" fill="#156089"/>
        <path id="パス_2558" data-name="パス 2558" d="M0,0Z" transform="translate(78.457 93.565)" fill="#156089"/>
        <path id="パス_2559" data-name="パス 2559" d="M30.344,10.335l.024,1.153L29.9,11.1,5.733,40.268a3.781,3.781,0,0,1-2.777,1.3,3.258,3.258,0,0,1-.646-.064,2.15,2.15,0,0,1-.92-.387A.857.857,0,0,0,.323,42.454a3.837,3.837,0,0,0,1.649.727,4.979,4.979,0,0,0,.984.1A5.489,5.489,0,0,0,7.018,41.4l.011-.012,23.1-27.876,5.96,4.95L9.081,54.566a.857.857,0,0,0,1.372,1.027h0L38.435,18.186l-.607-.5c.044-.042.087-.084.134-.128.551-.518,1.29-1.151,2.084-1.84a40.364,40.364,0,0,0,3.555-3.37,10.773,10.773,0,0,0,1.328-1.782,3.918,3.918,0,0,0,.588-1.908,2.512,2.512,0,0,0-.045-.478h0a16.569,16.569,0,0,0-.93-3.163,23.569,23.569,0,0,0-1.685-3.265A3.582,3.582,0,0,0,39.764,0,3.636,3.636,0,0,0,37.93.494a3.589,3.589,0,0,0-1.365,1.44h0L34.017,6.418,31.528,3.629l0,0a2.473,2.473,0,0,0-3.463-.2h0A2.475,2.475,0,0,0,27.7,6.756ZM29.189,4.712h0a.76.76,0,0,1,1.063.063l3.794,4.252a.857.857,0,0,0,1.279-1.141h0l-.1-.117,2.842-5.005.007-.014a1.868,1.868,0,0,1,.724-.774,1.933,1.933,0,0,1,1.878-.032,1.873,1.873,0,0,1,.715.691,21.891,21.891,0,0,1,1.566,3.028A14.834,14.834,0,0,1,43.788,8.5a.793.793,0,0,1,.014.151,1.85,1.85,0,0,1-.2.752,8.338,8.338,0,0,1-1.415,1.949,42.808,42.808,0,0,1-3.431,3.211c-.586.508-1.145.99-1.631,1.431-.224.2-.431.4-.62.584l-4.479-3.719a.848.848,0,0,0,.081-.375l-.058-2.733L29.077,5.737a.753.753,0,0,1-.149-.451A.76.76,0,0,1,29.189,4.712Z" transform="translate(69.472 0)" fill="#156089"/>
        <path id="パス_2560" data-name="パス 2560" d="M14.32,16.458l11.25-15.2A.786.786,0,1,0,24.307.318h0l-9.8,13.243V6.514H9.987V13.5L1.424,1.556a.786.786,0,1,0-1.277.916L10.176,16.459h0a2.578,2.578,0,0,0,4.145,0Z" transform="translate(45.73 43.464)" fill="#156089"/>
        <path id="パス_2561" data-name="パス 2561" d="M1.124,0A1.124,1.124,0,1,0,2.247,1.123,1.124,1.124,0,0,0,1.124,0Z" transform="translate(57.108 69.985)" fill="#156089"/>
        <path id="パス_2562" data-name="パス 2562" d="M1.124,0A1.124,1.124,0,1,0,2.247,1.124,1.124,1.124,0,0,0,1.124,0Z" transform="translate(57.108 77.328)" fill="#156089"/>
        <path id="パス_2563" data-name="パス 2563" d="M.362,10.128a9.909,9.909,0,0,0,1.706,2.385,44.27,44.27,0,0,0,3.573,3.349c.589.51,1.141.986,1.6,1.4.162.147.309.285.446.416l-.606.5L35.064,55.593a.857.857,0,1,0,1.372-1.027h0L9.431,18.464l5.96-4.95,23.1,27.877.01.011a5.487,5.487,0,0,0,4.062,1.876,4.981,4.981,0,0,0,.984-.1.857.857,0,0,0-.338-1.68,3.276,3.276,0,0,1-.646.064,3.779,3.779,0,0,1-2.777-1.3L15.615,11.1l-.467.388.024-1.153,2.645-3.579h0a2.474,2.474,0,0,0-3.825-3.13l0,0L11.5,6.418,8.954,1.934h0A3.587,3.587,0,0,0,7.587.494,3.645,3.645,0,0,0,4.026.436,3.591,3.591,0,0,0,2.661,1.749,23.561,23.561,0,0,0,.976,5.013a16.583,16.583,0,0,0-.929,3.16A2.477,2.477,0,0,0,0,8.655,3.53,3.53,0,0,0,.362,10.128Zm1.365-1.62v0a14.847,14.847,0,0,1,.835-2.844A21.88,21.88,0,0,1,4.129,2.633a1.873,1.873,0,0,1,.714-.691,1.933,1.933,0,0,1,1.878.032,1.87,1.87,0,0,1,.724.774l.008.017,2.841,5-.1.117A.857.857,0,1,0,11.47,9.026h0l3.794-4.252a.761.761,0,0,1,1.175.963L13.47,9.754l-.058,2.733a.849.849,0,0,0,.081.375L9.013,16.583c-.093-.092-.182-.182-.284-.278-.6-.562-1.346-1.2-2.134-1.885a38.89,38.89,0,0,1-3.4-3.217,9.133,9.133,0,0,1-1.118-1.49,2.285,2.285,0,0,1-.363-1.059A.756.756,0,0,1,1.727,8.508Z" transform="translate(1.856 0)" fill="#156089"/>
        <path id="パス_2564" data-name="パス 2564" d="M0,0V0H0Z" transform="translate(1.902 8.173)" fill="#156089"/>
        <path id="パス_2565" data-name="パス 2565" d="M1.258,1.57a2.16,2.16,0,0,1,1.766,0,1.12,1.12,0,0,0,1.129-.046C4.442,1.279,4.246.6,3.591.31a3.546,3.546,0,0,0-2.9,0C.037.6-.159,1.28.13,1.524A1.117,1.117,0,0,0,1.258,1.57Z" transform="translate(61.381 22.162)" fill="#156089"/>
        <path id="パス_2566" data-name="パス 2566" d="M1.258,1.57a2.16,2.16,0,0,1,1.766,0,1.12,1.12,0,0,0,1.129-.046C4.442,1.279,4.246.6,3.591.31a3.546,3.546,0,0,0-2.9,0C.037.6-.159,1.28.13,1.524A1.117,1.117,0,0,0,1.258,1.57Z" transform="translate(50.801 22.162)" fill="#156089"/>
        <path id="パス_2567" data-name="パス 2567" d="M.523,1.474H2.234a.392.392,0,0,0,0-.783H1.091A.717.717,0,0,1,.452.3L.35.1A.185.185,0,0,0,0,.185V.951A.523.523,0,0,0,.523,1.474Z" transform="translate(56.919 33)" fill="#156089"/>
        <path id="パス_2568" data-name="パス 2568" d="M3.773,2.029a.55.55,0,0,0-.287-.513L.813.067a.55.55,0,0,0-.524.968h0l1.656.9-1.6.661A.55.55,0,0,0,.76,3.61l2.674-1.1A.55.55,0,0,0,3.773,2.029Z" transform="translate(51.148 27.535)" fill="#156089"/>
        <path id="パス_2569" data-name="パス 2569" d="M3.433,2.593h0l-1.6-.661,1.657-.9A.55.55,0,0,0,2.962.067L.288,1.516a.55.55,0,0,0,.053.992l2.674,1.1a.55.55,0,1,0,.419-1.017Z" transform="translate(61.541 27.535)" fill="#156089"/>
        <path id="パス_2570" data-name="パス 2570" d="M.04.681A3.483,3.483,0,0,0,3.531,3.074,3.766,3.766,0,0,0,7.023.681.492.492,0,0,0,6.339.057a6.025,6.025,0,0,1-2.808.5A6.023,6.023,0,0,1,.723.057.492.492,0,0,0,.04.681Z" transform="translate(54.7 36.991)" fill="#156089"/>
        <path id="パス_2571" data-name="パス 2571" d="M5,28.363a12.2,12.2,0,0,0,.848,2.208A15.3,15.3,0,0,0,11.3,36.5a14.864,14.864,0,0,0,7.936,2.409,15.293,15.293,0,0,0,10.124-4.084,14.718,14.718,0,0,0,3.262-4.256,12.184,12.184,0,0,0,.848-2.208,5.648,5.648,0,0,0,1.552-10.815V15.826c0-.4,0-.792-.01-1.187a15.009,15.009,0,0,0-2.042-7.068,15.445,15.445,0,0,0-4.839-5.1A15.112,15.112,0,0,0,21.117.06,20.805,20.805,0,0,0,18.505.025,15.051,15.051,0,0,0,14.8.662,15.261,15.261,0,0,0,5.057,9.717a15.779,15.779,0,0,0-1.016,5.747v1.877A5.646,5.646,0,0,0,5,28.363ZM2.811,19.917a4.028,4.028,0,0,1,1.23-.839v.011c0,.4,0,.793,0,1.189a.756.756,0,0,0,.331.654.769.769,0,0,0,1-.165c.5-.5,1.066-.932,1.583-1.414l.077-.075a5.371,5.371,0,0,0,2.22,2.241A.988.988,0,0,0,10.7,20.51,14.777,14.777,0,0,1,15.165,7.5a2.081,2.081,0,0,1,2.919-.014c.586.568,1.148,1.114,1.378,1.07,1.06-.23,1.366-1.984,2.58-1.606,2.806.871,4.917,6.157,4.7,9.984a.96.96,0,0,0,1.62.766,7.217,7.217,0,0,0,1.428-1.979,4.683,4.683,0,0,0,.281.963,11.258,11.258,0,0,0,3.245,3.743c.228.2.462.519.762.606a.753.753,0,0,0,.9-.461,1.2,1.2,0,0,0,.043-.414V19.4a4.059,4.059,0,0,1,.64.518A4.007,4.007,0,0,1,33.8,26.642a10.252,10.252,0,0,0,.065-1.111.818.818,0,1,0-1.636,0h0a9.648,9.648,0,0,1-1.072,4.308,13.674,13.674,0,0,1-4.868,5.284,13.233,13.233,0,0,1-7.056,2.152,13.669,13.669,0,0,1-9.023-3.657,13.091,13.091,0,0,1-2.9-3.778,9.649,9.649,0,0,1-1.072-4.308.818.818,0,1,0-1.636,0,10.255,10.255,0,0,0,.065,1.111,4.009,4.009,0,0,1-1.86-6.725Z" transform="translate(38.993 6.911)" fill="#156089"/>
      </g>
      <g id="グループ_2825" data-name="グループ 2825" transform="matrix(0.875, -0.485, 0.485, 0.875, 710.677, 4514.934)">
        <path id="パス_2514" data-name="パス 2514" d="M1.045,3.236,2.9.961A.589.589,0,1,0,1.991.216L.133,2.492a.589.589,0,0,0,.912.745Z" transform="translate(15.093 1.317)" fill="#ffb64b"/>
        <path id="パス_2513" data-name="パス 2513" d="M.942,4.1a.589.589,0,0,0,.527-.645L1.174.53A.589.589,0,1,0,0,.648L.3,3.571A.589.589,0,0,0,.942,4.1Z" transform="translate(9.876 0)" fill="#ffb64b"/>
        <path id="パス_2515" data-name="パス 2515" d="M2.491,2.9a.589.589,0,1,0,.745-.912L.961.133a.589.589,0,0,0-.745.912Z" transform="translate(2.149 3.044)" fill="#ffb64b"/>
        <g id="グループ_2648" data-name="グループ 2648" transform="translate(3.897 8.968)">
          <g id="グループ_2647" data-name="グループ 2647" clip-path="url(#clip-path)">
            <path id="パス_2512" data-name="パス 2512" d="M.252,9.764a9.156,9.156,0,0,0,2.328,3.942c.175.18.286.3.332.358a.32.32,0,0,1,.035.051l.009.025A2.364,2.364,0,0,1,3,14.5c.015.206.035.5.074.893l-.06,1.992a3.787,3.787,0,0,0,1.8,3.343l.775.476a3.788,3.788,0,0,0,3.767.115l.8-.429a3.787,3.787,0,0,0,2-3.226l.06-1.993c.062-.385.1-.672.126-.875.021-.159.039-.267.053-.324a.31.31,0,0,1,.019-.064l.012-.018a1.042,1.042,0,0,1,.108-.118c.063-.063.155-.147.274-.256a9.786,9.786,0,0,0,2.04-2.583,7.488,7.488,0,0,0,.9-3.318A7.878,7.878,0,0,0,0,7.638,7.328,7.328,0,0,0,.252,9.764" transform="translate(0 0)" fill="#ffb64b"/>
          </g>
        </g>
        <path id="パス_159" data-name="パス 159" d="M0,8.192a9.706,9.706,0,0,0,1.3,4.675c.13.233.211.384.241.458a.339.339,0,0,1,.022.061l0,.028a2.514,2.514,0,0,1-.057.383c-.041.215-.1.519-.169.935L.732,16.756h0a4.014,4.014,0,0,0,.928,3.918l.662.7a4.015,4.015,0,0,0,3.825,1.151l.939-.218a4.015,4.015,0,0,0,2.935-2.754l.609-2.024c.169-.377.285-.661.369-.862.065-.157.113-.262.143-.318a.33.33,0,0,1,.037-.06l.018-.016a1.129,1.129,0,0,1,.143-.091c.082-.046.2-.107.351-.187a10.37,10.37,0,0,0,2.8-2.085,7.938,7.938,0,0,0,1.831-3.15A8.35,8.35,0,1,0,.329,5.948,7.763,7.763,0,0,0,0,8.192Zm5.5,6.992,1.057-3.513,1.411.424L6.912,15.609Zm2.57,2.277-6.059.671c-.006-.073-.01-.146-.01-.22a2.56,2.56,0,0,1,.109-.741h0l.415-1.378Zm.572,1.675A2.575,2.575,0,0,1,6.761,20.9l-.938.218a2.575,2.575,0,0,1-2.454-.738l-.662-.7a2.569,2.569,0,0,1-.5-.758l6.72-.744ZM1.708,6.362a6.911,6.911,0,1,1,13.235,3.982,6.5,6.5,0,0,1-1.5,2.582,8.94,8.94,0,0,1-2.411,1.791,6.6,6.6,0,0,0-.593.332,1.658,1.658,0,0,0-.378.341,1.841,1.841,0,0,0-.2.313c-.081.157-.144.314-.228.514L9.55,16.4l-1.863-.56,1.057-3.514.973.293A1.526,1.526,0,1,0,10.6,9.7l-.287-.087a1.525,1.525,0,0,0-1.9,1.022L8.2,11.32,6.791,10.9,7,10.21a1.526,1.526,0,0,0-1.022-1.9l-.287-.086a1.526,1.526,0,0,0-.879,2.922l.973.293L4.725,14.951l-1.863-.56c.023-.119.044-.228.062-.324a3.552,3.552,0,0,0,.082-.652,1.568,1.568,0,0,0-.036-.338,2.009,2.009,0,0,0-.167-.454c-.068-.14-.146-.278-.243-.453A8.275,8.275,0,0,1,1.44,8.192,6.317,6.317,0,0,1,1.708,6.362Zm7.269,5.191.206-.685a.709.709,0,0,1,.262-.371.712.712,0,0,1,.63-.108l.287.087a.71.71,0,0,1,.371.262.716.716,0,0,1-.577,1.14.711.711,0,0,1-.207-.031Zm-2.962-.891-.973-.293a.711.711,0,0,1-.371-.262.718.718,0,0,1-.139-.423.721.721,0,0,1,.293-.578A.712.712,0,0,1,5.455,9l.287.087a.71.71,0,0,1,.371.262.714.714,0,0,1,.108.63Z" transform="matrix(0.966, -0.259, 0.259, 0.966, 0, 9.692)" fill="#3e485c"/>
        <g id="グループ_2649" data-name="グループ 2649" transform="translate(1.434 0)">
          <path id="パス_162" data-name="パス 162" d="M1.045,3.236,2.9.961A.589.589,0,1,0,1.991.216L.133,2.492a.589.589,0,0,0,.912.745Z" transform="translate(12.944 1.317)" fill="#3e485c"/>
          <path id="パス_163" data-name="パス 163" d="M.942,4.1a.589.589,0,0,0,.527-.645L1.174.53A.589.589,0,1,0,0,.648L.3,3.571A.589.589,0,0,0,.942,4.1Z" transform="translate(7.728 0)" fill="#3e485c"/>
          <path id="パス_164" data-name="パス 164" d="M2.491,2.9a.589.589,0,1,0,.745-.912L.961.133a.589.589,0,0,0-.745.912Z" transform="translate(0 3.044)" fill="#3e485c"/>
        </g>
      </g>
      <g id="グループ_2826" data-name="グループ 2826" transform="translate(685.868 4510.722)">
        <path id="多角形_20" data-name="多角形 20" d="M8.649,5.054a3,3,0,0,1,5.311,0l.412.784a3,3,0,0,0,2.059,1.545L17.5,7.6a3,3,0,0,1,1.645,4.934l-.908,1.021A3,3,0,0,0,17.5,15.9l.145,1.231a3,3,0,0,1-4.3,3.044l-.711-.35a3,3,0,0,0-2.649,0l-.711.35a3,3,0,0,1-4.3-3.044L5.111,15.9a3,3,0,0,0-.738-2.345l-.908-1.021A3,3,0,0,1,5.111,7.6l1.067-.217A3,3,0,0,0,8.237,5.838Z" transform="matrix(0.891, -0.454, 0.454, 0.891, 0, 11.66)" fill="#fad06c"/>
        <g id="多角形_21" data-name="多角形 21" transform="matrix(0.891, -0.454, 0.454, 0.891, 1.739, 10.264)" fill="none">
          <path d="M8.649,5.054a3,3,0,0,1,5.311,0l.412.784a3,3,0,0,0,2.059,1.545L17.5,7.6a3,3,0,0,1,1.645,4.934l-.908,1.021A3,3,0,0,0,17.5,15.9l.145,1.231a3,3,0,0,1-4.3,3.044l-.711-.35a3,3,0,0,0-2.649,0l-.711.35a3,3,0,0,1-4.3-3.044L5.111,15.9a3,3,0,0,0-.738-2.345l-.908-1.021A3,3,0,0,1,5.111,7.6l1.067-.217A3,3,0,0,0,8.237,5.838Z" stroke="none"/>
          <path d="M 11.3047342300415 5.449260711669922 C 11.12307357788086 5.449260711669922 10.67317390441895 5.501371383666992 10.41951370239258 5.984090805053711 L 10.00740337371826 6.768350601196289 C 9.305403709411621 8.104280471801758 8.054523468017578 9.042580604553223 6.575504302978516 9.342670440673828 L 5.508344650268555 9.55919075012207 C 4.996744155883789 9.662990570068359 4.813552856445312 10.05791091918945 4.758543014526367 10.22288036346436 C 4.703533172607422 10.38785076141357 4.613033294677734 10.81367015838623 4.959943771362305 11.20377063751221 L 5.867473602294922 12.22428035736084 C 6.81606388092041 13.29093074798584 7.264103889465332 14.71573066711426 7.096714019775391 16.13336181640625 L 6.951343536376953 17.36432075500488 C 6.907593727111816 17.7347297668457 7.055563926696777 17.98928070068359 7.187394142150879 18.13759994506836 C 7.381823539733887 18.3563404083252 7.664403915405273 18.48694038391113 7.943284034729004 18.48694038391113 C 8.091254234313965 18.48694038391113 8.24018383026123 18.45058059692383 8.385933876037598 18.37886047363281 L 9.097233772277832 18.02886009216309 C 9.780213356018066 17.69280052185059 10.54355335235596 17.51515960693359 11.30474376678467 17.51515960693359 C 12.06591415405273 17.51515960693359 12.82925415039062 17.69279098510742 13.5122537612915 18.02886009216309 L 14.22353363037109 18.37885093688965 C 14.36929416656494 18.45057106018066 14.51823329925537 18.48694038391113 14.66620445251465 18.48694038391113 C 14.94501399993896 18.48694038391113 15.22756385803223 18.35631942749023 15.42203330993652 18.13753128051758 C 15.55388355255127 17.98919105529785 15.70187377929688 17.73464012145996 15.65814399719238 17.36432075500488 L 15.51277351379395 16.13336181640625 C 15.34536361694336 14.7157506942749 15.79340362548828 13.29095077514648 16.74199295043945 12.22430038452148 L 17.6495532989502 11.20376014709473 C 17.9964542388916 10.81367015838623 17.90595436096191 10.38785076141357 17.85094451904297 10.22288036346436 C 17.79593276977539 10.05791091918945 17.61274337768555 9.662990570068359 17.10113334655762 9.55919075012207 L 16.03397369384766 9.342660903930664 C 14.55496406555176 9.042580604553223 13.30408382415771 8.104280471801758 12.60210418701172 6.768369674682617 L 12.18996334075928 5.984090805053711 C 11.93630409240723 5.501371383666992 11.48639392852783 5.449260711669922 11.3047342300415 5.449260711669922 M 11.30473899841309 3.449260711669922 C 12.35152626037598 3.449260711669922 13.39831352233887 3.984090805053711 13.96040344238281 5.053750991821289 L 14.37253379821777 5.838020324707031 C 14.79193305969238 6.636150360107422 15.54805374145508 7.20332145690918 16.43166351318359 7.382600784301758 L 17.49883270263672 7.599130630493164 C 19.76616287231445 8.059160232543945 20.68149375915527 10.804030418396 19.14406394958496 12.53283023834229 L 18.23651313781738 13.55336093902588 C 17.66687393188477 14.1939001083374 17.3984432220459 15.04752063751221 17.49897384643555 15.89880084991455 L 17.64434432983398 17.1297607421875 C 17.92325401306152 19.49155044555664 15.4744234085083 21.22335052490234 13.34054374694824 20.17337989807129 L 12.62924385070801 19.82337951660156 C 11.79405403137207 19.41242027282715 10.8154239654541 19.41242027282715 9.980243682861328 19.82337951660156 L 9.268933296203613 20.17337989807129 C 7.135063171386719 21.22334861755371 4.686233520507812 19.49155044555664 4.965143203735352 17.1297607421875 L 5.110513687133789 15.89880084991455 C 5.211032867431641 15.04752063751221 4.94261360168457 14.1939001083374 4.372974395751953 13.55336093902588 L 3.465423583984375 12.53283023834229 C 1.927993774414062 10.804030418396 2.843324661254883 8.059160232543945 5.110652923583984 7.599130630493164 L 6.177824020385742 7.382610321044922 C 7.061423301696777 7.203330993652344 7.817553520202637 6.636150360107422 8.236953735351562 5.838020324707031 L 8.649073600769043 5.053750991821289 C 9.211163520812988 3.984090805053711 10.2579517364502 3.449260711669922 11.30473899841309 3.449260711669922 Z" stroke="none" fill="#3e485c"/>
        </g>
      </g>
    </g>
  </g>
</svg>
