<svg xmlns="http://www.w3.org/2000/svg" width="280" height="200" viewBox="0 0 280 200">
  <g id="グループ_2829" data-name="グループ 2829" transform="translate(-116 -3934)">
    <rect id="長方形_427" data-name="長方形 427" width="280" height="200" transform="translate(116 3934)" fill="none"/>
    <g id="グループ_2823" data-name="グループ 2823" transform="translate(-2.906 -488.041)">
      <g id="j108_4_11" transform="translate(173.606 4443.673)">
        <path id="パス_2660" data-name="パス 2660" d="M172.964,16.424c0-.332.019-1.784.019-1.784l-3.33-2.675s.23-1.807,1.377-2.2c-.249-1.643-.929-2.807-.283-3.989s5.081-2.347,5.081-2.347,5.392,3.056,5.643,4.233-2.7,7.75-2.474,8.008-1.452,8.315-1.452,8.315Z" transform="translate(-130.215 -2.658)" fill="#ffd7c5"/>
        <path id="パス_2661" data-name="パス 2661" d="M12.439,410.44c1.3-.589-4.506-13-7.029-19.128s-.64-13.38,6.976-14.407,16.3-1.8,16.3-1.8l20.349,16.725-6.375,30.414-9.721,20.73-6.5-4.5,5.357-16.548-.419-22.786L21.225,396.89l2.337,13.7-4.871,6.421Z" transform="translate(-3.381 -291.167)" fill="#ffd7c5"/>
        <path id="パス_2662" data-name="パス 2662" d="M14.655,121c-.26-1.154-.094-14.953,13.03-15.727S47.444,103.9,47.444,103.9s7.677-16.34,4.046-40.988c2.3-.084,7.988-.01,7.988-.01s5.581,15.2-3.373,55.957c1.526,14.152,2.2,28.941,2.2,28.941s-3.2,5.315-8.1,3.915-10.784-3.043-10.784-3.043-13.906-12.637-15.951-13.438a9.692,9.692,0,0,0-3.728-.7Z" transform="translate(-9.924 -47.69)" fill="#fad06c"/>
        <path id="パス_2663" data-name="パス 2663" d="M47.985,240.8s12.077,12.535,13.767,13.772,3.335-2.28,3.335-2.28l7.653-13.918s-4.115-2.078-12.773-2.248S47.985,240.8,47.985,240.8Z" transform="translate(-37.248 -183.284)" fill="#fff"/>
        <path id="パス_2664" data-name="パス 2664" d="M49.934,400.553c0-.107,0-.223,0-.344a.8.8,0,0,0-1.356-.575,2.754,2.754,0,0,1-1.113.753c-1.273.366-4.37,3.982-13.306-1.58a.835.835,0,0,0-.3-.113c-3.127-.506-2.9.309-3.651-1-.762-1.331-13.236-11.111-14.412-12.258s-6.592-.859-9.009.776c-2.085,1.41-2.934,3.994-2.877,6.945a.794.794,0,0,0,1.205.654c2.449-1.523,5.034-1.772,6.9-.239,2.146,1.768,10.8,11.674,12.074,13.192s7.45,9.26,9.1,11.259S40.2,423.29,42.7,423.8a48.758,48.758,0,0,0,6.117.635.8.8,0,0,0,.836-.789Z" transform="translate(-3.029 -298.651)" fill="#6c859b"/>
        <path id="パス_2665" data-name="パス 2665" d="M50.065,115.056h0l-.725-4.613c-.965-6.141-8.289-11-15.081-9.927s-12.273,7.94-11.307,14.081l.728,4.634a4.673,4.673,0,0,0,1.661,9.173c2.007,5.19,8.5,8.959,14.56,8s11.08-6.531,11.4-12.085l.215-.034a4.673,4.673,0,0,0-1.451-9.232Z" transform="translate(-14.072 -78.26)" fill="#ffd7c5"/>
        <path id="パス_2666" data-name="パス 2666" d="M65.939,181.251a3.735,3.735,0,1,1-4.27-3.111A3.737,3.737,0,0,1,65.939,181.251Z" transform="translate(-45.42 -138.242)" fill="#fff0de"/>
        <path id="パス_2667" data-name="パス 2667" d="M110.516,174.233a3.735,3.735,0,1,1-4.27-3.111A3.737,3.737,0,0,1,110.516,174.233Z" transform="translate(-80.023 -132.795)" fill="#fff0de"/>
        <path id="パス_2668" data-name="パス 2668" d="M6.936,334.221c-.823-.463-1-.988-1.516-2.842a47.417,47.417,0,0,1-.949-8.144c.1-.669-.291-2.448,3.051-2.651s4.277-.812,5.65-.258.972,2.893-.042,3.078a1.712,1.712,0,0,1,.538,3.3c1.886.575,2.09,3.352.2,3.659,1.346.252,2.384,1.931,1.2,2.8a4.587,4.587,0,0,1-1.747.938,22.778,22.778,0,0,0-4.2.647A2.567,2.567,0,0,1,6.936,334.221Z" transform="translate(-1.817 -248.755)" fill="#ffd7c5"/>
        <path id="パス_2669" data-name="パス 2669" d="M71.75,168.469a4.429,4.429,0,0,0-4.823-.254.608.608,0,1,0,.609,1.053,3.215,3.215,0,1,1-1.276,1.369.608.608,0,1,0-1.091-.537,4.429,4.429,0,0,0-.448,2.033l-1.586.25a4.44,4.44,0,0,0-1.631-2.3,4.429,4.429,0,0,0-4.823-.255.608.608,0,0,0,.4,1.128.6.6,0,0,0,.21-.074,3.216,3.216,0,1,1-1.276,1.369.608.608,0,1,0-1.091-.537,4.428,4.428,0,1,0,8.4,1.868l1.584-.249a4.441,4.441,0,0,0,1.631,2.3,4.392,4.392,0,0,0,3.294.8h0a4.431,4.431,0,0,0,1.917-7.957Z" transform="translate(-42.28 -130.111)" fill="#156089"/>
        <path id="パス_2670" data-name="パス 2670" d="M197.986,313.239a.829.829,0,1,0-1.646.189h0c.683,5.954,1.237,10.26,1.618,14.3s.593,7.824.593,12.767q0,.526,0,1.071a.829.829,0,1,0,1.657.01q0-.55,0-1.081c0-4.99-.215-8.841-.6-12.923S198.668,319.182,197.986,313.239Z" transform="translate(-152.401 -242.576)" fill="#156089"/>
        <path id="パス_2671" data-name="パス 2671" d="M123.833,419.01a.684.684,0,1,0,1.355-.183l-.779-5.779a.684.684,0,1,0-1.355.183Z" transform="translate(-95.514 -320.161)" fill="#156089"/>
        <path id="パス_2672" data-name="パス 2672" d="M116.236,350.151a1.086,1.086,0,1,0-.932,1.223A1.086,1.086,0,0,0,116.236,350.151Z" transform="translate(-88.547 -271.068)" fill="#156089"/>
        <path id="パス_2673" data-name="パス 2673" d="M119.38,381.6a1.087,1.087,0,1,0-1.222-.932A1.087,1.087,0,0,0,119.38,381.6Z" transform="translate(-91.711 -294.534)" fill="#156089"/>
        <path id="パス_2674" data-name="パス 2674" d="M203.52,68.608a.829.829,0,1,0-1.649.159h0l.327,3.4q.582,6.064.582,12.149a127.087,127.087,0,0,1-1.918,21.993l-2.5,14.249a.829.829,0,1,0,1.632.287l2.5-14.249a128.758,128.758,0,0,0,1.943-22.281q0-6.158-.59-12.308Z" transform="translate(-153.962 -52.673)" fill="#156089"/>
        <path id="パス_2675" data-name="パス 2675" d="M49.146,3.014,46.077.773A4.014,4.014,0,0,0,41.683.549h0l-1.419.83A4.009,4.009,0,0,0,38.34,5.573h0l.021.139-.383.471a3.4,3.4,0,0,0,.725,4.953l1.826,1.244-.01.955-1.186.043.486,5.751q.3,3.6.3,7.2a84.936,84.936,0,0,1-.817,11.732,4.459,4.459,0,0,0-.462-.447,5.546,5.546,0,0,0-1.874-1,6.647,6.647,0,0,0-.991-.23l-.3-1.917a14.563,14.563,0,0,0-3.751-7.692,14.777,14.777,0,0,0-7.191-4.249,14.512,14.512,0,0,0-5.8-.259l-.367.058-.367.058a14.511,14.511,0,0,0-5.441,2.028A14.756,14.756,0,0,0,5.99,34.746a14.557,14.557,0,0,0,.021,4.4l.38,2.416a.785.785,0,0,0-.627.131A5.465,5.465,0,0,0,6.8,51.132l-.021.334a16.9,16.9,0,0,1-2.192,7.3l-.08.139a1.243,1.243,0,0,0,1.1,1.863,14.837,14.837,0,0,0-2.4,5.548L2.25,70.868a.829.829,0,0,0,.33.846A3.256,3.256,0,0,0,.395,75.188L1.45,84.019a3.252,3.252,0,0,0,2.262,2.724A8.963,8.963,0,0,0,0,93.957a8.764,8.764,0,0,0,.133,1.522c.082.464.179.932.283,1.4,0,.068-.008.136-.008.2s0,.137.007.2a.754.754,0,0,0,.2.462,51.762,51.762,0,0,0,1.662,5.341c1.391,3.791,3.108,7.431,4.489,10.291.69,1.429,1.3,2.665,1.731,3.613.217.474.392.877.51,1.186.059.154.1.285.132.383a1.116,1.116,0,0,1,.039.167l.011.118c-1.8.513-6.052,2.21-7.167,7l-.079,1.04a1.271,1.271,0,0,0,1.171,1.363l15.364,1.161a1.27,1.27,0,0,0,1.347-1.048L20.049,119a1.5,1.5,0,0,0,.026-.7v0l-2.691-13.471c1.405,1.728,2.653,3.3,3.654,4.436,1.018,1.149,2.137,2.813,3.445,4.654A54.218,54.218,0,0,0,28,118.437a.825.825,0,0,0-.275.6l-.144,11.582-4.518,13.958-3.524,7.281a1.206,1.206,0,0,0,.467,1.549l12.516,7.529a1.2,1.2,0,0,0,1.652-.412l.509-.847c2.253-5.519-2.231-9.94-2.231-9.94L32,149.466a.825.825,0,0,0,.2-.276l7.868-17.859,1.075-5.058a23.2,23.2,0,0,0,4.062.35q.71,0,1.448-.04l.71-.039.3-24.634a.76.76,0,1,0-1.52-.019l-.284,23.2q-.331.009-.656.009a21.529,21.529,0,0,1-4.234-.407.822.822,0,0,0-.644-.141,18.923,18.923,0,0,1-3.877-1.368,21.052,21.052,0,0,1-4.861-3.284,37.662,37.662,0,0,1-5.376-6.18c-.753-1.04-1.448-2.049-2.111-2.977a31.364,31.364,0,0,0-1.928-2.491c-.723-.818-1.615-1.92-2.619-3.161-1.506-1.862-3.263-4.037-5.118-6.07a34.283,34.283,0,0,0-5.745-5.237,4.261,4.261,0,0,0-1.3-.58,5.564,5.564,0,0,0-1.416-.175,6.95,6.95,0,0,0-1.928.281,6.29,6.29,0,0,0-2.364,1.251q-.026-.3-.026-.607a7.216,7.216,0,0,1,1.485-4.362,7.436,7.436,0,0,1,3.877-2.652.822.822,0,0,0,.337-.2A5.388,5.388,0,0,1,8.561,86.6a4.585,4.585,0,0,1,1.591.288,10.688,10.688,0,0,1,2.485,1.424c.9.646,1.917,1.442,3.135,2.3l11.853,9.814a.715.715,0,0,0,.3.145,2.211,2.211,0,0,0,.5.192,2.906,2.906,0,0,0,.713.081,7.944,7.944,0,0,0,.817-.057,6.836,6.836,0,0,1,.7-.049,2.018,2.018,0,0,1,.422.039,1.257,1.257,0,0,1,.359.134l.045.025,2.335.886a17.083,17.083,0,0,0,2.845,1.3,9.585,9.585,0,0,0,3.063.543,7.3,7.3,0,0,0,3.119-.688l2.739-1.277A.684.684,0,0,0,45,100.455h0l-2.739,1.277a5.923,5.923,0,0,1-2.542.56,8.228,8.228,0,0,1-2.626-.471,15.847,15.847,0,0,1-2.66-1.22l-.045-.025-2.35-.892a2.646,2.646,0,0,0-.681-.247,3.362,3.362,0,0,0-.708-.07,8.044,8.044,0,0,0-.838.057,6.752,6.752,0,0,1-.674.049,1.57,1.57,0,0,1-.38-.04.946.946,0,0,1-.137-.047.7.7,0,0,0-.075-.076h0l-11.9-9.85-.023-.016c-1.591-1.116-2.849-2.155-4.088-2.948a11.214,11.214,0,0,0-1.206-.675,2.84,2.84,0,0,0,.422-.327,2.467,2.467,0,0,0,.544-.753,2.317,2.317,0,0,0,.212-.973,2.736,2.736,0,0,0-.186-.969,4,4,0,0,0-.538-.961c.025-.026.051-.051.075-.079a2.332,2.332,0,0,0-.208-3.3c-.051-.045-.1-.087-.158-.127a2.336,2.336,0,0,0,.547-1.5,2.364,2.364,0,0,0-.016-.276v0a2.324,2.324,0,0,0-1.074-1.7,3.706,3.706,0,0,0,.32-1.432,2.469,2.469,0,0,0-.245-1.1,2.41,2.41,0,0,0-1.055-1.065A2.961,2.961,0,0,0,8.6,70.94q-.122,0-.244.01H8.349l-4.083.488-.518.062a.826.826,0,0,0,.123-.289l.962-4.549a13.171,13.171,0,0,1,2.16-4.981A12.3,12.3,0,0,1,8.03,60.425a16.125,16.125,0,0,0,3.859-1.4.72.72,0,0,0,.094.86L23.4,71.993l0,0a2.452,2.452,0,0,0,3.911-.528l8.815-16.031a.72.72,0,0,0,.073-.21,16.045,16.045,0,0,0,6.381-.268,1.244,1.244,0,0,0,.521-2.126l-.119-.108a16.889,16.889,0,0,1-3.938-5.371q.7-2.8,1.217-5.637l.034.005h0c.027-.171.044-.337.055-.5a86.375,86.375,0,0,0,1.294-14.887q0-3.666-.31-7.333L40.98,14.84l6.344-.231a.76.76,0,0,0-.055-1.52l-5.23.19.018-1.7-2.5-1.7a1.865,1.865,0,0,1-.612-.69,1.881,1.881,0,0,1-.156-1.309A2.44,2.44,0,0,0,41.006,9.3h.049l.488-.01a2.446,2.446,0,0,0,2.387-2.262l.092-1.212A.76.76,0,1,0,42.506,5.7l-.092,1.212a.926.926,0,0,1-.9.856l-.484.01h-.02a.926.926,0,0,1-.915-.787L39.84,5.331l0-.014a2.5,2.5,0,0,1,1.194-2.625l1.419-.83h0A2.5,2.5,0,0,1,45.182,2L48.25,4.243a2.5,2.5,0,0,1,.911,2.764l-1.506,4.822a.76.76,0,1,0,1.45.454h0L50.612,7.46a4.022,4.022,0,0,0-1.466-4.446ZM32.163,122.337a21.106,21.106,0,0,0,5.7,3.081q.8.283,1.661.506l-1.04,4.894-7.8,17.7a.821.821,0,0,0-.041.127l-5.984-3.6,4.582-14.154.136-10.994A26.325,26.325,0,0,0,32.163,122.337ZM18.45,118.62v0ZM2.848,95.569a4.877,4.877,0,0,1,1.44-.74,5.486,5.486,0,0,1,1.687-.278A4.06,4.06,0,0,1,7,94.677a2.745,2.745,0,0,1,.84.371,26.207,26.207,0,0,1,3.641,3.087c1.267,1.255,2.524,2.661,3.721,4.068a.817.817,0,0,0,.01.232l3.2,16.028-7.756-.586c-.029-.085-.058-.17-.093-.261-.167-.44-.4-.971-.693-1.6-.508-1.091-1.185-2.462-1.937-4.03-1.128-2.351-2.427-5.143-3.565-8.054A51.439,51.439,0,0,1,2.04,96.556a1.86,1.86,0,0,1,.185-.347A2.894,2.894,0,0,1,2.848,95.569ZM4.417,72.7l4.053-.485q.065-.005.133-.005a1.738,1.738,0,0,1,.535.084,1.32,1.32,0,0,1,.622.405,1.029,1.029,0,0,1,.174.31,1.251,1.251,0,0,1,.067.421,2.466,2.466,0,0,1-.23.964.653.653,0,0,0-.033.1h-.03a2.236,2.236,0,0,0-.28.017l-2.508.3a.637.637,0,0,0,.151,1.265l2.531-.3-.017,0a.984.984,0,0,1,.123-.007,1.069,1.069,0,0,1,1.056.937,1.127,1.127,0,0,1,.008.127,1.066,1.066,0,0,1-.267.7,1.055,1.055,0,0,1-.669.354h0l-2.511.3a.637.637,0,0,0,.151,1.266h0l2.511-.3h0a1.064,1.064,0,0,1,.252,2.113l-2.511.3a.637.637,0,0,0,.151,1.265l2.511-.3a2.35,2.35,0,0,0,.3-.059.649.649,0,0,0,.058.1h0a2.765,2.765,0,0,1,.386.676,1.463,1.463,0,0,1,.1.518,1.035,1.035,0,0,1-.095.439,1.286,1.286,0,0,1-.454.515A1.738,1.738,0,0,1,10,85l-1.325.158-.109,0A6.855,6.855,0,0,0,7,85.347a.82.82,0,0,0-.439,0h0c-.109.031-.217.065-.324.1l-1.316.157a2.019,2.019,0,0,1-.239.014,1.988,1.988,0,0,1-1.97-1.753L1.659,75.037A1.987,1.987,0,0,1,3.4,72.827Zm22.74-3.956-.919-6.819-2.166.292-2.166.292.911,6.76-9.785-10.38a.717.717,0,0,0-.491-.225,16.65,16.65,0,0,0,1.93-1.3q.409.253.835.482a14.987,14.987,0,0,0,7.029,1.814,13.094,13.094,0,0,0,2.04-.158,13.743,13.743,0,0,0,4.7-1.682,15.521,15.521,0,0,0,4.069-3.4,16.737,16.737,0,0,0,1.612.5ZM38.215,44.217l-.149-.105a3.633,3.633,0,0,1-1.207,1.069,3.9,3.9,0,0,1-.422.2c-.02-.285-.05-.569-.095-.853a.791.791,0,1,0-1.562.246h0a8.45,8.45,0,0,1,.1,1.31,10.2,10.2,0,0,1-.84,3.949,13.592,13.592,0,0,1-3.92,5.162,12.676,12.676,0,0,1-5.99,2.755,11.532,11.532,0,0,1-1.794.139,13.658,13.658,0,0,1-8.1-2.79,12.234,12.234,0,0,1-2.849-3.006,9.2,9.2,0,0,1-1.435-3.61.791.791,0,1,0-1.562.246,9.9,9.9,0,0,0,.228,1.056A3.882,3.882,0,0,1,5.136,46.72a3.928,3.928,0,0,1-.048-.609,3.886,3.886,0,0,1,1.533-3.084l.164,1.044a.715.715,0,0,0,1.288.307C8.95,43.151,11.42,41,11.085,38.187a7.976,7.976,0,0,0-.823-2.765l9.483-1.493a2.628,2.628,0,0,0,2.2-2.277l.5-4.049,2.065,3.806a2.627,2.627,0,0,0,2.717,1.342l3.266-.514a7.988,7.988,0,0,0,.065,2.884c.545,2.781,3.555,4.069,4.766,4.967a.715.715,0,0,0,1.131-.688l-.211-1.34.086.021a3.858,3.858,0,0,1,1.741.972,2.482,2.482,0,0,1,.517.78,2.693,2.693,0,0,1,.2,1.043,3.781,3.781,0,0,1-.049.6l.027,0Q38.51,42.851,38.215,44.217Z" transform="translate(0 0)" fill="#156089"/>
        <path id="パス_2676" data-name="パス 2676" d="M42.129,333.014h0Z" transform="translate(-32.702 -258.496)" fill="#156089"/>
        <path id="パス_2677" data-name="パス 2677" d="M106.853,159.194a1.08,1.08,0,0,0,1.085-.126,2.087,2.087,0,0,1,1.687-.266,1.083,1.083,0,0,0,1.071-.213c.239-.278-.049-.894-.719-1.076a3.427,3.427,0,0,0-2.768.436C106.625,158.328,106.54,159,106.853,159.194Z" transform="translate(-82.804 -122.174)" fill="#156089"/>
        <path id="パス_2678" data-name="パス 2678" d="M61.7,166.3a1.08,1.08,0,0,0,1.085-.126,2.088,2.088,0,0,1,1.687-.266,1.083,1.083,0,0,0,1.071-.213c.239-.278-.049-.894-.719-1.076a3.428,3.428,0,0,0-2.768.436C61.468,165.437,61.382,166.113,61.7,166.3Z" transform="translate(-47.751 -127.693)" fill="#156089"/>
        <path id="パス_2679" data-name="パス 2679" d="M94.938,209.526l1.634-.257a.379.379,0,0,0-.118-.748l-1.092.172a.693.693,0,0,1-.668-.277l-.128-.176a.179.179,0,0,0-.321.133l.115.731A.506.506,0,0,0,94.938,209.526Z" transform="translate(-73.154 -161.585)" fill="#156089"/>
        <path id="パス_2680" data-name="パス 2680" d="M66.629,191.685a.532.532,0,0,0,.731.178l2.388-1.455a.532.532,0,0,0-.1-.956l-2.772-.983a.532.532,0,0,0-.355,1h0l1.717.609-1.433.873A.532.532,0,0,0,66.629,191.685Z" transform="translate(-51.362 -146.271)" fill="#156089"/>
        <path id="パス_2681" data-name="パス 2681" d="M114.795,179.868a.531.531,0,0,0-.745-.1l-2.336,1.787a.532.532,0,0,0,.2.94l2.719.651a.532.532,0,0,0,.248-1.035h0l-1.631-.391,1.447-1.107A.533.533,0,0,0,114.795,179.868Z" transform="translate(-86.553 -139.457)" fill="#156089"/>
        <path id="パス_2682" data-name="パス 2682" d="M93.637,222.49a7.854,7.854,0,0,1-5.364.844.476.476,0,0,0-.559.7,3.367,3.367,0,0,0,3.694,1.762,3.642,3.642,0,0,0,2.975-2.811A.476.476,0,0,0,93.637,222.49Z" transform="translate(-68.03 -172.631)" fill="#156089"/>
      </g>
      <g id="j108_4_15" transform="translate(231.266 4443.673)">
        <path id="パス_2683" data-name="パス 2683" d="M172.963,16.424c0-.332.019-1.784.019-1.784l-3.33-2.675s.23-1.807,1.377-2.2c-.249-1.643-.929-2.807-.283-3.989s5.081-2.347,5.081-2.347,5.392,3.056,5.644,4.233-2.7,7.75-2.474,8.008-1.452,8.315-1.452,8.315Z" transform="translate(-129.754 -3.424)" fill="#ffd7c5"/>
        <path id="パス_2684" data-name="パス 2684" d="M12.438,410.44c1.3-.589-4.506-13-7.029-19.128s-.64-13.38,6.976-14.407,16.3-1.8,16.3-1.8l20.349,16.725-6.375,30.414-9.721,20.73-6.5-4.5,5.357-16.548-.419-22.786L21.224,396.89l2.337,13.7-4.871,6.421Z" transform="translate(-3.38 -291.167)" fill="#ffd7c5"/>
        <path id="パス_2685" data-name="パス 2685" d="M14.654,121c-.26-1.154-.094-14.953,13.03-15.727S47.443,103.9,47.443,103.9s7.677-16.34,4.046-40.988c2.3-.084,7.988-.01,7.988-.01s5.581,15.2-3.373,55.957c1.526,14.152,2.2,28.941,2.2,28.941s-3.2,5.315-8.1,3.915-10.784-3.043-10.784-3.043-13.906-12.637-15.951-13.438a9.692,9.692,0,0,0-3.728-.7Z" transform="translate(-9.29 -48.766)" fill="#fad06c"/>
        <path id="パス_2686" data-name="パス 2686" d="M47.984,240.8s12.077,12.535,13.767,13.772,3.335-2.28,3.335-2.28l7.653-13.918s-4.115-2.078-12.773-2.248S47.984,240.8,47.984,240.8Z" transform="translate(-37.247 -183.284)" fill="#fff"/>
        <path id="パス_2687" data-name="パス 2687" d="M49.934,400.553c0-.107,0-.223,0-.344a.8.8,0,0,0-1.356-.575,2.754,2.754,0,0,1-1.113.753c-1.273.366-4.37,3.982-13.307-1.58a.836.836,0,0,0-.3-.113c-3.127-.506-2.9.309-3.651-1-.762-1.331-13.236-11.111-14.412-12.258s-6.592-.859-9.009.776c-2.085,1.41-2.934,3.994-2.877,6.945a.794.794,0,0,0,1.205.654c2.449-1.523,5.034-1.772,6.9-.239,2.146,1.768,10.8,11.674,12.074,13.192s7.45,9.26,9.1,11.259S40.2,423.29,42.7,423.8a48.758,48.758,0,0,0,6.117.635.8.8,0,0,0,.836-.789Z" transform="translate(-3.029 -298.651)" fill="#6c859b"/>
        <path id="パス_2688" data-name="パス 2688" d="M50.065,115.056h0l-.725-4.613c-.966-6.141-8.289-11-15.081-9.927s-12.273,7.94-11.307,14.081l.728,4.634A4.673,4.673,0,0,0,25.34,128.4c2.008,5.19,8.5,8.959,14.56,8s11.08-6.531,11.4-12.085l.215-.034a4.673,4.673,0,0,0-1.451-9.232Z" transform="translate(-14.071 -78.26)" fill="#ffd7c5"/>
        <path id="パス_2689" data-name="パス 2689" d="M6.935,334.221c-.823-.463-1-.988-1.516-2.842a47.42,47.42,0,0,1-.949-8.144c.1-.669-.291-2.448,3.051-2.651s4.277-.812,5.65-.258.972,2.893-.043,3.078a1.712,1.712,0,0,1,.538,3.3c1.886.575,2.09,3.352.2,3.659,1.346.252,2.384,1.931,1.2,2.8a4.587,4.587,0,0,1-1.747.938,22.78,22.78,0,0,0-4.2.647A2.567,2.567,0,0,1,6.935,334.221Z" transform="translate(-1.816 -248.549)" fill="#ffd7c5"/>
        <path id="パス_2690" data-name="パス 2690" d="M52.9,247.455a.723.723,0,0,0-.03,1.021l11.411,12.1.005.005a2.452,2.452,0,0,0,3.911-.528l8.815-16.031a.722.722,0,1,0-1.265-.7h0l-7.7,14.007-.919-6.819-2.166.292-2.166.292.911,6.76-9.785-10.38A.722.722,0,0,0,52.9,247.455Z" transform="translate(-40.884 -188.591)" fill="#156089"/>
        <path id="パス_2691" data-name="パス 2691" d="M197.986,313.239a.829.829,0,1,0-1.646.189h0c.683,5.954,1.237,10.26,1.618,14.3s.593,7.824.593,12.767q0,.527,0,1.073a.829.829,0,1,0,1.657.01q0-.55,0-1.082c0-4.989-.215-8.841-.6-12.922S198.668,319.181,197.986,313.239Z" transform="translate(-152.401 -242.576)" fill="#156089"/>
        <path id="パス_2692" data-name="パス 2692" d="M123.833,419.01a.684.684,0,1,0,1.355-.183l-.779-5.779a.684.684,0,1,0-1.355.183Z" transform="translate(-95.514 -320.161)" fill="#156089"/>
        <path id="パス_2693" data-name="パス 2693" d="M116.236,350.151a1.086,1.086,0,1,0-.931,1.223A1.086,1.086,0,0,0,116.236,350.151Z" transform="translate(-88.547 -271.068)" fill="#156089"/>
        <path id="パス_2694" data-name="パス 2694" d="M119.379,381.6a1.087,1.087,0,1,0-1.222-.932A1.087,1.087,0,0,0,119.379,381.6Z" transform="translate(-91.71 -294.534)" fill="#156089"/>
        <path id="パス_2695" data-name="パス 2695" d="M203.519,68.608a.829.829,0,1,0-1.649.159h0l.326,3.4q.582,6.064.582,12.149a127.087,127.087,0,0,1-1.918,21.993l-2.5,14.249a.829.829,0,1,0,1.632.287l2.5-14.249a128.736,128.736,0,0,0,1.943-22.281q0-6.158-.59-12.308Z" transform="translate(-153.961 -52.673)" fill="#156089"/>
        <path id="パス_2696" data-name="パス 2696" d="M55.814,3.014,52.745.773A4.014,4.014,0,0,0,48.351.549l-1.419.829a4.009,4.009,0,0,0-1.924,4.195h0l.021.139-.383.471a3.4,3.4,0,0,0,.725,4.953L47.2,12.381l-.011.955L46,13.378l.486,5.751q.3,3.6.3,7.2a85,85,0,0,1-.614,10.175,28.588,28.588,0,0,1-3.142-5.869A15.08,15.08,0,0,0,31.6,20.606c-.44-.1-.864-.169-1.279-.23a11.024,11.024,0,0,0-1.867-.815c-3.328-.727-15.634,1.114-17.262,13.3C10.181,40.4,10.5,42.71,8.75,45.1a.874.874,0,0,0,.838,1.352,5.829,5.829,0,0,0,.6-.1,5.457,5.457,0,0,0,5.446,5.228c.076,0,.153-.006.23-.009a11.635,11.635,0,0,0,.874,1.588,14.42,14.42,0,0,0,5.241,4.7A14.987,14.987,0,0,0,29,59.67a13.092,13.092,0,0,0,2.04-.158,13.745,13.745,0,0,0,4.7-1.681,15.538,15.538,0,0,0,5.3-5.06,12.9,12.9,0,0,0,2.038-5.711,5.534,5.534,0,0,0,1.213-.5l.056-.033q-.578,2.352-1.291,4.673c-.156.505-.283.9-.373,1.159-.04.116-.073.2-.092.251-.013.02-.028.038-.04.06a.76.76,0,0,0,.313,1.029h0a.765.765,0,0,0,.633.04.758.758,0,0,0,.254-.159.811.811,0,0,0,.092-.1.918.918,0,0,0,.073-.114c.029-.054.047-.094.066-.137.032-.075.063-.156.1-.255.105-.293.249-.737.429-1.323a85.6,85.6,0,0,0,2.414-9.934l.034.005h0c.027-.171.044-.337.055-.5.036-.209.075-.417.109-.625.306-.028.615-.065.934-.122a.623.623,0,0,0,.363-1.015c-.265-.308-.589-.7-.947-1.165a86.47,86.47,0,0,0,.834-11.961q0-3.666-.31-7.332l-.352-4.161,6.343-.231a.76.76,0,0,0-.055-1.52l-5.23.19.019-1.7-2.5-1.7a1.867,1.867,0,0,1-.612-.69,1.883,1.883,0,0,1-.156-1.309A2.441,2.441,0,0,0,47.673,9.3h.049l.487-.01A2.446,2.446,0,0,0,50.6,7.023l.092-1.212A.76.76,0,1,0,49.173,5.7l-.092,1.212a.926.926,0,0,1-.9.856l-.484.01h-.02a.925.925,0,0,1-.915-.787l-.251-1.657,0-.015A2.5,2.5,0,0,1,47.7,2.691l1.42-.83A2.5,2.5,0,0,1,51.849,2l3.069,2.241a2.5,2.5,0,0,1,.911,2.764l-1.506,4.822a.76.76,0,1,0,1.45.454h0L57.28,7.46a4.02,4.02,0,0,0-1.467-4.446ZM42.935,52.332h0v0Zm1.947-8.115-.149-.105a3.632,3.632,0,0,1-1.207,1.068,3.9,3.9,0,0,1-.422.2c-.02-.285-.05-.569-.095-.853a.791.791,0,1,0-1.562.246h0a8.425,8.425,0,0,1,.1,1.31,10.2,10.2,0,0,1-.84,3.949,13.594,13.594,0,0,1-3.92,5.162,12.676,12.676,0,0,1-5.99,2.755A11.532,11.532,0,0,1,29,58.088a13.657,13.657,0,0,1-8.1-2.79,12.231,12.231,0,0,1-2.849-3.006,9.2,9.2,0,0,1-1.435-3.61.791.791,0,1,0-1.562.246,9.957,9.957,0,0,0,.228,1.056A3.882,3.882,0,0,1,11.8,46.72a3.923,3.923,0,0,1-.048-.609c0-.1.005-.2.013-.3a13.29,13.29,0,0,0,6.345-6.635,23.376,23.376,0,0,0,1.6-8.369c3.715,2.823,6.013,2.477,9.671,2.176,6.364-.523,7.049,3.307,9.826,5.207a12.428,12.428,0,0,0,6.226,2.43c.007.083.012.168.012.257a3.782,3.782,0,0,1-.049.6l.027,0Q45.178,42.851,44.882,44.217Z" transform="translate(-6.668 0)" fill="#156089"/>
        <path id="パス_2697" data-name="パス 2697" d="M42.129,333.014h0Z" transform="translate(-32.702 -258.496)" fill="#156089"/>
        <path id="パス_2698" data-name="パス 2698" d="M46.914,296.152a.76.76,0,0,0-.769.751l-.284,23.2q-.331.009-.656.009a21.526,21.526,0,0,1-4.234-.407.822.822,0,0,0-.644-.141,18.925,18.925,0,0,1-3.877-1.368,21.053,21.053,0,0,1-4.861-3.284,37.662,37.662,0,0,1-5.376-6.18c-.753-1.04-1.448-2.049-2.111-2.977a31.414,31.414,0,0,0-1.928-2.491c-.723-.818-1.615-1.92-2.619-3.161-1.506-1.862-3.263-4.037-5.118-6.07A34.284,34.284,0,0,0,8.694,288.8a4.259,4.259,0,0,0-1.3-.58,5.565,5.565,0,0,0-1.416-.175,6.951,6.951,0,0,0-1.928.281,6.289,6.289,0,0,0-2.364,1.251q-.026-.3-.026-.606a7.218,7.218,0,0,1,1.485-4.363,7.438,7.438,0,0,1,3.877-2.652.819.819,0,0,0,.337-.2,5.39,5.39,0,0,1,1.207-.147,4.584,4.584,0,0,1,1.591.288,10.693,10.693,0,0,1,2.485,1.424c.9.646,1.916,1.442,3.135,2.3l11.852,9.814a.715.715,0,0,0,.3.145,2.213,2.213,0,0,0,.5.192,2.907,2.907,0,0,0,.713.081,7.944,7.944,0,0,0,.817-.057,6.823,6.823,0,0,1,.7-.049,2.023,2.023,0,0,1,.422.039,1.257,1.257,0,0,1,.359.134l.045.025,2.335.886a17.093,17.093,0,0,0,2.845,1.3,9.584,9.584,0,0,0,3.063.543,7.3,7.3,0,0,0,3.119-.688l2.739-1.277A.684.684,0,0,0,45,295.467h0l-2.739,1.277a5.921,5.921,0,0,1-2.541.56,8.226,8.226,0,0,1-2.625-.471,15.859,15.859,0,0,1-2.66-1.22l-.045-.025-2.35-.892a2.648,2.648,0,0,0-.681-.247,3.364,3.364,0,0,0-.708-.07,8.04,8.04,0,0,0-.838.057,6.742,6.742,0,0,1-.674.049,1.574,1.574,0,0,1-.38-.04.923.923,0,0,1-.137-.047.715.715,0,0,0-.075-.076h0l-11.9-9.85-.023-.016c-1.591-1.116-2.849-2.155-4.088-2.948a11.22,11.22,0,0,0-1.206-.675,2.858,2.858,0,0,0,.422-.327,2.472,2.472,0,0,0,.544-.753,2.316,2.316,0,0,0,.212-.973,2.735,2.735,0,0,0-.186-.969,4.006,4.006,0,0,0-.538-.961c.025-.026.051-.051.075-.079a2.332,2.332,0,0,0-.208-3.3q-.076-.067-.158-.127a2.336,2.336,0,0,0,.548-1.5,2.307,2.307,0,0,0-.017-.277,2.333,2.333,0,0,0-.776-1.475,2.357,2.357,0,0,0-.3-.221,3.707,3.707,0,0,0,.32-1.432,2.468,2.468,0,0,0-.245-1.1,2.411,2.411,0,0,0-1.055-1.065A2.961,2.961,0,0,0,8.6,265.95q-.122,0-.244.01H8.349l-4.083.488-.518.062a.826.826,0,0,0,.123-.289l.962-4.549a13.171,13.171,0,0,1,2.16-4.981,10.96,10.96,0,0,1,3.045-2.924,7.621,7.621,0,0,1,1.278-.649,3.961,3.961,0,0,1,.852-.24.829.829,0,0,0-.222-1.643h0a5.57,5.57,0,0,0-1.229.337,9.931,9.931,0,0,0-2.42,1.388,13.1,13.1,0,0,0-2.65,2.762,14.83,14.83,0,0,0-2.437,5.607l-.962,4.549a.828.828,0,0,0,.33.846,3.256,3.256,0,0,0-2.209,3.083,3.286,3.286,0,0,0,.023.39l1.055,8.831a3.253,3.253,0,0,0,2.262,2.724A8.966,8.966,0,0,0,0,288.968a8.755,8.755,0,0,0,.133,1.521c.082.464.179.932.283,1.4,0,.068-.008.136-.008.2s0,.137.007.2a.753.753,0,0,0,.2.462A51.684,51.684,0,0,0,2.283,298.1c1.391,3.791,3.108,7.431,4.489,10.291.69,1.429,1.3,2.665,1.731,3.613.217.474.392.877.51,1.186.059.154.1.285.132.383a1.117,1.117,0,0,1,.039.167l.011.118c-1.8.513-6.052,2.21-7.167,7l-.079,1.04a1.271,1.271,0,0,0,1.171,1.363l15.364,1.161a1.271,1.271,0,0,0,1.347-1.048l.218-9.366a1.5,1.5,0,0,0,.026-.7l-2.691-13.471c1.405,1.728,2.653,3.3,3.654,4.436,1.018,1.149,2.137,2.813,3.445,4.654A54.2,54.2,0,0,0,28,313.448a.826.826,0,0,0-.275.6l-.144,11.582-4.518,13.958-3.524,7.281a1.206,1.206,0,0,0,.467,1.549l12.516,7.529a1.2,1.2,0,0,0,1.652-.412l.509-.847c2.253-5.519-2.231-9.94-2.231-9.94L32,344.477a.822.822,0,0,0,.2-.276l7.868-17.859,1.075-5.057a23.2,23.2,0,0,0,4.063.35q.71,0,1.448-.04l.71-.039.3-24.633A.76.76,0,0,0,46.914,296.152ZM4.923,280.617a2.013,2.013,0,0,1-.239.014,1.988,1.988,0,0,1-1.97-1.753l-1.055-8.831a2.024,2.024,0,0,1-.014-.239A1.988,1.988,0,0,1,3.4,267.837l1.021-.122,4.053-.485c.043,0,.087-.005.133-.005a1.74,1.74,0,0,1,.535.084,1.324,1.324,0,0,1,.622.405,1.026,1.026,0,0,1,.174.31,1.251,1.251,0,0,1,.067.421,2.459,2.459,0,0,1-.23.963.627.627,0,0,0-.033.1h-.03a2.24,2.24,0,0,0-.28.017l-2.508.3a.637.637,0,0,0,.151,1.265l2.511-.3h0a.986.986,0,0,1,.123-.007,1.07,1.07,0,0,1,1.056.938,1.047,1.047,0,0,1,.008.126,1.07,1.07,0,0,1-.937,1.057h0l-2.511.3a.637.637,0,0,0,.151,1.266h0l2.511-.3h0a1.068,1.068,0,0,1,1.181.93,1.09,1.09,0,0,1,.007.126,1.07,1.07,0,0,1-.937,1.057l-2.511.3a.637.637,0,0,0,.151,1.265l2.511-.3a2.343,2.343,0,0,0,.3-.059.65.65,0,0,0,.058.1h0a2.762,2.762,0,0,1,.386.676,1.462,1.462,0,0,1,.1.518,1.035,1.035,0,0,1-.095.439,1.287,1.287,0,0,1-.454.515,1.737,1.737,0,0,1-.692.274l-1.325.158-.108,0A6.861,6.861,0,0,0,7,280.358a.821.821,0,0,0-.439,0h0c-.109.031-.217.065-.324.1ZM7.94,307c-1.128-2.351-2.426-5.143-3.565-8.054a51.467,51.467,0,0,1-2.335-7.379,1.858,1.858,0,0,1,.185-.347,2.878,2.878,0,0,1,.624-.64,4.877,4.877,0,0,1,1.44-.741,5.486,5.486,0,0,1,1.687-.278A4.06,4.06,0,0,1,7,289.687a2.744,2.744,0,0,1,.84.371,26.224,26.224,0,0,1,3.641,3.087c1.267,1.255,2.524,2.661,3.721,4.067a.811.811,0,0,0,.01.232l3.2,16.028-7.756-.586c-.029-.085-.058-.17-.093-.261-.167-.44-.4-.971-.693-1.6C9.369,309.939,8.692,308.568,7.94,307Zm30.543,18.83-7.8,17.7a.821.821,0,0,0-.041.127l-5.984-3.6,4.582-14.154.137-10.994a26.343,26.343,0,0,0,2.786,2.436,21.106,21.106,0,0,0,5.7,3.081q.8.283,1.661.506Z" transform="translate(0 -195.011)" fill="#156089"/>
        <path id="パス_2699" data-name="パス 2699" d="M106.852,159.194a1.08,1.08,0,0,0,1.085-.126,2.087,2.087,0,0,1,1.687-.266,1.083,1.083,0,0,0,1.071-.213c.24-.278-.05-.894-.719-1.076a3.427,3.427,0,0,0-2.768.436C106.625,158.328,106.539,159,106.852,159.194Z" transform="translate(-82.804 -122.174)" fill="#156089"/>
        <path id="パス_2700" data-name="パス 2700" d="M64.466,165.912a1.083,1.083,0,0,0,1.071-.213c.24-.278-.05-.894-.719-1.076a3.428,3.428,0,0,0-2.768.436c-.582.379-.668,1.055-.355,1.245a1.08,1.08,0,0,0,1.085-.126A2.086,2.086,0,0,1,64.466,165.912Z" transform="translate(-47.751 -127.692)" fill="#156089"/>
        <path id="パス_2701" data-name="パス 2701" d="M94.938,209.526l1.634-.257a.379.379,0,0,0-.117-.748l-1.092.172a.693.693,0,0,1-.668-.277l-.128-.176a.179.179,0,0,0-.321.133l.115.731A.506.506,0,0,0,94.938,209.526Z" transform="translate(-73.154 -161.585)" fill="#156089"/>
        <path id="パス_2702" data-name="パス 2702" d="M69.649,189.451l-2.772-.983a.532.532,0,0,0-.355,1h0l1.717.609-1.433.873a.532.532,0,0,0,.553.909l2.388-1.455a.532.532,0,0,0-.1-.956Z" transform="translate(-51.361 -146.271)" fill="#156089"/>
        <path id="パス_2703" data-name="パス 2703" d="M114.878,182.111h0l-1.631-.391,1.447-1.107a.532.532,0,0,0-.646-.846l-2.336,1.787a.532.532,0,0,0,.2.94l2.719.651a.532.532,0,0,0,.248-1.035Z" transform="translate(-86.552 -139.456)" fill="#156089"/>
        <path id="パス_2704" data-name="パス 2704" d="M93.636,222.49a7.854,7.854,0,0,1-5.364.844.476.476,0,0,0-.559.7,3.367,3.367,0,0,0,3.694,1.762,3.642,3.642,0,0,0,2.975-2.811A.476.476,0,0,0,93.636,222.49Z" transform="translate(-68.029 -172.631)" fill="#156089"/>
      </g>
      <g id="j108_2_8" transform="translate(289.475 4434.894)">
        <path id="パス_2620" data-name="パス 2620" d="M20.144,418.128c-.022-.411-5.375-13.98-8.343-20.554s-1.172-14.529,7.1-15.915,17.711-2.536,17.711-2.536L59.4,396.593l-5.877,33.3-9.869,22.889-8.659-4.67,5.085-19.728.32-23.218-11.151-2.088L32.28,417.9l-5.086,7.155Z" transform="translate(-7.922 -287.109)" fill="#6c859b"/>
        <path id="パス_2621" data-name="パス 2621" d="M167.981,17.927c-.008-.361-.042-1.942-.042-1.942l-3.726-2.792s.187-1.974,1.424-2.446c-.33-1.778-1.113-3.02-.45-4.328s5.459-2.732,5.459-2.732,5.989,3.133,6.3,4.4-2.672,8.524-2.414,8.8-1.29,9.094-1.29,9.094Z" transform="translate(-124.358 -2.792)" fill="#ffd7c5"/>
        <path id="パス_2622" data-name="パス 2622" d="M17.41,127.618c-.324-1.246-.632-16.259,13.655-17.565s21.5-2.187,21.5-2.187,7.795-18.043,2.962-44.72c2.51-.173,8.712-.293,8.712-.293s6.625,16.33-1.7,60.977c2.165,15.337,3.427,31.4,3.427,31.4s-3.3,5.894-8.7,4.544A59.863,59.863,0,0,1,46.355,155.6s-3.322,4.649-4.917,4.517-2.606-3.56-2.606-3.56-9.045-12.969-11.3-13.768a10.6,10.6,0,0,0-4.09-.631Z" transform="translate(-10.892 -47.034)" fill="#fad06c"/>
        <path id="パス_2623" data-name="パス 2623" d="M48.9,245.648s13.616,13.206,15.5,14.492,3.557-2.6,3.557-2.6l7.855-15.407s-4.562-2.115-14.01-1.994S48.9,245.648,48.9,245.648Z" transform="translate(-37.029 -181.854)" fill="#fff"/>
        <path id="パス_2624" data-name="パス 2624" d="M48.836,121.5l-.248-1.481a9.957,9.957,0,0,0-.356-1.434c-.028-.275-.063-.55-.109-.827-1.255-7.5-8.708-12.517-16.648-11.2s-13.36,8.476-12.105,15.98a13.119,13.119,0,0,0,.379,1.613q.032.325.085.648l.251,1.5a5.084,5.084,0,0,0,1.9,9.964c2.243,5.627,9.361,9.662,15.969,8.562s12.024-7.217,12.319-13.264l.234-.039A5.085,5.085,0,1,0,48.836,121.5Z" transform="translate(-10.231 -80.561)" fill="#ffd7c5"/>
        <path id="パス_2625" data-name="パス 2625" d="M10.755,341.941C9.841,341.467,9.626,340.9,9,338.9a51.459,51.459,0,0,1-1.323-8.823c.081-.731-.4-2.652,3.234-2.991s4.636-1.034,6.153-.48,1.162,3.112.063,3.349a1.862,1.862,0,0,1,.7,3.569c2.077.558,2.4,3.571.343,3.973,1.477.227,2.668,2.016,1.411,3a5,5,0,0,1-1.873,1.082,24.942,24.942,0,0,0-4.556.852A2.806,2.806,0,0,1,10.755,341.941Z" transform="translate(-3.949 -247.636)" fill="#ffd7c5"/>
        <path id="パス_2628" data-name="パス 2628" d="M93.63,211.472l1.78-.3a.412.412,0,1,0-.137-.813l-1.19.2a.758.758,0,0,1-.732-.294l-.142-.19a.2.2,0,0,0-.349.149l.134.795A.552.552,0,0,0,93.63,211.472Z" transform="translate(-70.32 -159.031)" fill="#156089"/>
        <path id="パス_2629" data-name="パス 2629" d="M79.632,244.751a.9.9,0,0,0-1.216.4h0l-7.834,15.366-1.211-7.191-2.352.394-2.352.395,1.2,7.123L54.943,250.406a.9.9,0,1,0-1.274,1.28l12.88,12.768h0a2.8,2.8,0,0,0,4.432-.743l9.047-17.746A.9.9,0,0,0,79.632,244.751Z" transform="translate(-40.441 -185.275)" fill="#156089"/>
        <path id="パス_2630" data-name="パス 2630" d="M201.8,314.288a.9.9,0,0,0-1.789.264h0c.99,6.681,1.765,11.444,2.33,15.963a141.414,141.414,0,0,1,1.074,14.564.9.9,0,0,0,1.808-.048,143.205,143.205,0,0,0-1.087-14.739C203.566,325.724,202.79,320.955,201.8,314.288Z" transform="translate(-151.462 -237.426)" fill="#156089"/>
        <path id="パス_2631" data-name="パス 2631" d="M54.881,305.905a.9.9,0,0,0-1.049.729h0l-5.454,30.4L40.541,356.46l-7.209-4.012,3.458-16.558.25-23.963a.9.9,0,0,0-1.8-.084.9.9,0,0,0-.253-.122s-1.865-.536-3.892-1.072c-1.014-.268-2.068-.537-2.96-.74-.446-.1-.851-.188-1.2-.25-.173-.031-.332-.057-.478-.075a3.414,3.414,0,0,0-.419-.031c-.042,0-.081,0-.121,0a.911.911,0,0,0-.2.038l-.174-.852a.9.9,0,0,0-1.771.361l3.119,15.24-11.39-.488c-.122-.4-.293-.878-.511-1.451-.422-1.107-1.01-2.54-1.685-4.208-1.012-2.5-2.22-5.526-3.347-8.719a82.335,82.335,0,0,1-2.853-9.708,8.047,8.047,0,0,1,14.762-5.833l6.751,11.206a.9.9,0,0,0,1.55-.93h0l-6.751-11.206a9.8,9.8,0,0,0-5.737-4.384,2.674,2.674,0,0,0,.482-.717,2.5,2.5,0,0,0,.222-1.034,2.919,2.919,0,0,0-.22-1.088,4.323,4.323,0,0,0-.639-1.07c.018-.02.037-.038.054-.058a2.533,2.533,0,0,0-.289-3.584,2.5,2.5,0,0,0-.208-.157,2.524,2.524,0,0,0,.518-1.949h0a2.537,2.537,0,0,0-.869-1.552,2.568,2.568,0,0,0-.361-.256,4.107,4.107,0,0,0,.3-1.465,2.724,2.724,0,0,0-.263-1.2,2.6,2.6,0,0,0-1.144-1.164,3.212,3.212,0,0,0-1.49-.361,3.257,3.257,0,0,0-.371.021h-.013l-4.433.675-.563.086a.894.894,0,0,0,.124-.319l.889-4.982a14.31,14.31,0,0,1,2.18-5.494A11.944,11.944,0,0,1,14.8,259.67a8.339,8.339,0,0,1,1.371-.751,4.342,4.342,0,0,1,.921-.291.9.9,0,1,0-.3-1.779h0a6.078,6.078,0,0,0-1.328.41,10.842,10.842,0,0,0-2.59,1.595,14.264,14.264,0,0,0-2.793,3.1,16.11,16.11,0,0,0-2.46,6.184l-.889,4.982a.9.9,0,0,0,.39.909,3.539,3.539,0,0,0-2.261,3.855l1.463,9.567a3.556,3.556,0,0,0,2.565,2.886,9.8,9.8,0,0,0-3.553,9.817,106.834,106.834,0,0,0,5.079,15.693c.917,2.328,1.769,4.387,2.4,5.978.317.795.579,1.473.766,2,.093.263.167.489.218.666a2.6,2.6,0,0,1,.083.351l.094.757.568.024a10.23,10.23,0,0,0-6.112,7.3l-.049,1.134A1.384,1.384,0,0,0,9.719,335.5l16.8.719a1.385,1.385,0,0,0,1.432-1.187l1.179-8.787h0v-.007l.12-.891-.3-.013-2.861-13.975c.035,0,.087.007.151.015.192.024.481.075.824.146.6.124,1.373.308,2.185.514,1.219.308,2.532.664,3.538.942.5.139.93.259,1.231.344l.35.1.124.035a.9.9,0,0,0,.731-.107l-.233,22.347-3.306,15.832L31.1,351.2l-3.773,8.461a1.31,1.31,0,0,0,.565,1.668l13.917,7.746a1.316,1.316,0,0,0,1.788-.506l.525-.94c1.758-4.727-.9-8.588-2.17-10.074a.9.9,0,0,0,.224-.321l7.949-19.7,5.487-30.586A.9.9,0,0,0,54.881,305.905ZM10.175,289.051a2.217,2.217,0,0,1-.331.025,2.168,2.168,0,0,1-2.14-1.838l-1.463-9.567a2.2,2.2,0,0,1-.025-.33,2.166,2.166,0,0,1,1.842-2.136l1.109-.169,4.4-.67a1.87,1.87,0,0,1,.207-.012,1.9,1.9,0,0,1,.58.09,1.4,1.4,0,0,1,.666.436,1.235,1.235,0,0,1,.262.809,2.756,2.756,0,0,1-.217,1,.691.691,0,0,0-.033.115,2.544,2.544,0,0,0-.336.028l-2.726.415a.693.693,0,1,0,.21,1.371l2.728-.415h0a1.129,1.129,0,0,1,.172-.013,1.165,1.165,0,0,1,.752.279,1.148,1.148,0,0,1,.4.7,1.193,1.193,0,0,1,.013.174,1.166,1.166,0,0,1-.985,1.145h0l-2.727.416a.693.693,0,1,0,.21,1.371h0l2.728-.415a1.153,1.153,0,0,1,.926.265,1.158,1.158,0,0,1-.577,2.024l-2.727.415a.693.693,0,1,0,.21,1.371l2.728-.415a2.523,2.523,0,0,0,.327-.075.714.714,0,0,0,.067.1h0a2.972,2.972,0,0,1,.456.748,1.542,1.542,0,0,1,.121.573,1.118,1.118,0,0,1-.1.466,1.422,1.422,0,0,1-.479.561,1.9,1.9,0,0,1-.734.314l-.268.041c-.148-.007-.3-.014-.444-.014a9.858,9.858,0,0,0-3.02.474c-.118.038-.235.079-.351.121Z" transform="translate(-3.655 -194.501)" fill="#156089"/>
        <path id="パス_2632" data-name="パス 2632" d="M5.915,45.84A5.947,5.947,0,0,0,9.529,56.51l.067,0a12.6,12.6,0,0,0,.965,1.717,15.688,15.688,0,0,0,5.708,5.035A16.437,16.437,0,0,0,23.89,65.2a14.4,14.4,0,0,0,2.38-.2,15.018,15.018,0,0,0,5.081-1.867,16.938,16.938,0,0,0,5.714-5.517,14.132,14.132,0,0,0,2.173-6.028,5.969,5.969,0,0,0,1.539-.641q-.54,2.54-1.224,5.053c-.152.555-.277.989-.365,1.271-.038.123-.07.216-.089.266a.894.894,0,0,0-.133.465.9.9,0,0,0,.9.9h0a.917.917,0,0,0,.632-.253.967.967,0,0,0,.112-.127,1.062,1.062,0,0,0,.087-.14,1.7,1.7,0,0,0,.073-.162c.034-.086.065-.177.1-.287.106-.326.247-.814.424-1.459a93.545,93.545,0,0,0,3.3-24.668,94.106,94.106,0,0,0-.648-10.992l-.522-4.435,6.832-.47a.9.9,0,1,0-.125-1.8l-5.619.387-.039-1.809-2.82-1.785a1.955,1.955,0,0,1-.682-.73,1.986,1.986,0,0,1-.235-.937c0-.063,0-.126.01-.189a2.738,2.738,0,0,0,2.338,1.309c.05,0,.1,0,.143,0h0l.528-.028a2.74,2.74,0,0,0,2.594-2.616l.057-1.322a.9.9,0,0,0-1.806-.077l-.057,1.322a.934.934,0,0,1-.884.892l-.525.028h-.054a.935.935,0,0,1-.918-.763L41.833,6l0-.016a2.639,2.639,0,0,1,1.176-2.817l1.519-.952h0a2.655,2.655,0,0,1,2.9.054l3.426,2.329a2.64,2.64,0,0,1,1.062,2.892l-1.471,5.3a.9.9,0,0,0,1.743.482h0l1.472-5.3A4.441,4.441,0,0,0,51.871,3.1L48.444.773A4.462,4.462,0,0,0,43.562.682h0l-1.519.952a4.434,4.434,0,0,0-1.985,4.707h0l.022.117-.381.5a3.768,3.768,0,0,0,.985,5.471l2,1.267.02.927-1.3.089.743,6.316a92.287,92.287,0,0,1,.635,10.782,92.473,92.473,0,0,1-.517,9.749q-.147-.146-.3-.278A5.888,5.888,0,0,0,39.937,40.2a7.2,7.2,0,0,0-1.427-.285l-.026-.137c1.9-.633,3.442-2.957,3.139-3.84-.348-1.013-3.618-.87-5.383-3.217h0c-.178-.308-.362-.611-.559-.9a16.1,16.1,0,0,0-11.5-7A15.894,15.894,0,0,0,19.387,25c-.029-.045-.088-.031-.17.032l-.547.1a15.934,15.934,0,0,0-1.969.511c-3.534.773-9.806,1.866-14.154,1.048A1.2,1.2,0,0,0,1.13,27.909a11.588,11.588,0,0,0,2.1,5.255A.863.863,0,0,1,2.435,34.5L1.3,34.409A1.2,1.2,0,0,0,.055,35.962a21.676,21.676,0,0,0,2.552,5.445A51.757,51.757,0,0,0,5.915,45.84ZM39.444,57.213h0v0Zm-16.91-17.17A11.922,11.922,0,0,0,24.5,35.67a1.04,1.04,0,0,1,1.8-.452A22.171,22.171,0,0,0,36,41.547l.227,1.186a2.614,2.614,0,0,0,3.058,2.073l.156-.03L38.851,41.7c.131.025.262.055.391.091A4.048,4.048,0,0,1,41.1,42.833a2.661,2.661,0,0,1,.551.845,3.017,3.017,0,0,1,.209,1.13q-.25,1.758-.567,3.508l-.1-.066a3.957,3.957,0,0,1-1.278,1.2,4.289,4.289,0,0,1-.634.309,10.756,10.756,0,0,0-.131-1.2.863.863,0,0,0-1.7.285h0a9.171,9.171,0,0,1,.126,1.525,11.145,11.145,0,0,1-.9,4.28,14.815,14.815,0,0,1-4.22,5.614A13.839,13.839,0,0,1,25.983,63.3a12.643,12.643,0,0,1-2.094.172A14.956,14.956,0,0,1,15.1,60.493,13.284,13.284,0,0,1,12,57.268a9.978,9.978,0,0,1-1.589-3.886.863.863,0,0,0-1.7.285,10.7,10.7,0,0,0,.242,1.076,4.218,4.218,0,0,1-2.655-6.9,4.348,4.348,0,0,1,.377-.389l.656,3.429.156-.03a2.609,2.609,0,0,0,2.078-3.051l3.648-5.3a1.043,1.043,0,0,1,1.9.51,1.642,1.642,0,0,0,2.388,1.334A13.769,13.769,0,0,0,22.534,40.043Z" transform="translate(0.001)" fill="#156089"/>
        <path id="パス_2633" data-name="パス 2633" d="M140.57,423.8h0l-2.942,1.485a6.82,6.82,0,0,1-3.084.654,12.557,12.557,0,0,1-3.332-.494,16.508,16.508,0,0,1-3.112-1.226l-2.258-1.171a4.34,4.34,0,0,0-1.819-.482c0-.019,0-.038,0-.057l-1.054-6.258a.9.9,0,0,0-1.783.3l1.054,6.258c0,.02.011.038.016.058a4.327,4.327,0,0,0-1.561,1.047l-1.75,1.843A.9.9,0,0,0,120.254,427l1.75-1.843a2.536,2.536,0,0,1,3.005-.5l2.258,1.171a18.3,18.3,0,0,0,3.459,1.362,14.361,14.361,0,0,0,3.819.56,8.616,8.616,0,0,0,3.9-.848l2.942-1.485a.9.9,0,1,0-.816-1.61Z" transform="translate(-89.886 -314.656)" fill="#156089"/>
        <path id="パス_2634" data-name="パス 2634" d="M120.873,353.951a1.185,1.185,0,1,0-.972,1.362A1.185,1.185,0,0,0,120.873,353.951Z" transform="translate(-89.754 -267.299)" fill="#156089"/>
        <path id="パス_2635" data-name="パス 2635" d="M124.984,385.494a1.183,1.183,0,1,0-1.365-.97A1.183,1.183,0,0,0,124.984,385.494Z" transform="translate(-93.603 -290.155)" fill="#156089"/>
        <path id="パス_2636" data-name="パス 2636" d="M205.427,68.415a.9.9,0,0,0-1.793.231h0l.477,3.687a137.919,137.919,0,0,1-.248,37.18L201.635,125.1a.9.9,0,0,0,1.79.255l2.227-15.586A139.693,139.693,0,0,0,205.9,72.1Z" transform="translate(-152.691 -51.214)" fill="#156089"/>
        <path id="パス_2637" data-name="パス 2637" d="M45.5,339.229h0Z" transform="translate(-34.453 -256.897)" fill="#156089"/>
        <path id="パス_2638" data-name="パス 2638" d="M87.444,227.887a.707.707,0,0,0,.809-.127,6.284,6.284,0,0,0,5.264-1,.706.706,0,0,0,.8-.179c.326-.3.382-.728.164-.9l-.672-.572a.612.612,0,0,0-.783.077.636.636,0,0,0-.2.638,5.113,5.113,0,0,1-4.283.815.634.634,0,0,0-.419-.521.611.611,0,0,0-.756.216l-.413.779C86.82,227.351,87.031,227.728,87.444,227.887Z" transform="translate(-65.821 -170.386)" fill="#156089"/>
        <path id="パス_2639" data-name="パス 2639" d="M104.448,160.948a1.181,1.181,0,0,0,1.179-.175,2.283,2.283,0,0,1,1.83-.349,1.184,1.184,0,0,0,1.161-.27c.251-.311-.086-.97-.823-1.144a3.75,3.75,0,0,0-3,.572C104.17,160.014,104.1,160.752,104.448,160.948Z" transform="translate(-78.94 -120.341)" fill="#156089"/>
        <path id="パス_3021" data-name="パス 3021" d="M69.649,189.451l-2.772-.983a.532.532,0,0,0-.355,1h0l1.717.609-1.433.873a.532.532,0,0,0,.553.909l2.388-1.455a.532.532,0,0,0-.1-.956Z" transform="translate(-50.003 -141.239)" fill="#156089"/>
        <path id="パス_3022" data-name="パス 3022" d="M114.878,182.111h0l-1.631-.391,1.447-1.107a.532.532,0,0,0-.646-.846l-2.336,1.787a.532.532,0,0,0,.2.94l2.719.651a.532.532,0,0,0,.248-1.035Z" transform="translate(-85.193 -134.424)" fill="#156089"/>
      </g>
    </g>
  </g>
</svg>
