<svg xmlns="http://www.w3.org/2000/svg" xmlns:xlink="http://www.w3.org/1999/xlink" width="127.16" height="115.614" viewBox="0 0 127.16 115.614">
  <defs>
    <clipPath id="clip-path">
      <rect id="長方形_334" data-name="長方形 334" width="42.836" height="59.186" fill="#ffb64b"/>
    </clipPath>
  </defs>
  <g id="parts" transform="translate(-307.488 -1381.282)">
    <g id="グループ_2650" data-name="グループ 2650" transform="translate(-456.829 181.818) rotate(-19)">
      <path id="パス_2514" data-name="パス 2514" d="M490.264,26.921l5.052-6.186a1.6,1.6,0,0,0-2.479-2.025L487.785,24.9a1.6,1.6,0,0,0,2.479,2.025Z" transform="translate(-74.293 1395.55)" fill="#ffb64b"/>
      <path id="パス_2513" data-name="パス 2513" d="M441.644,11.141a1.6,1.6,0,0,0,1.432-1.753l-.8-7.948a1.6,1.6,0,1,0-3.185.321l.8,7.948A1.6,1.6,0,0,0,441.644,11.141Z" transform="translate(-40.135 1410.09)" fill="#ffb64b"/>
      <path id="パス_2515" data-name="パス 2515" d="M390.464,37.67a1.6,1.6,0,1,0,2.025-2.479L386.3,30.137a1.6,1.6,0,0,0-2.025,2.479Z" transform="translate(-5.754 1388.589)" fill="#ffb64b"/>
      <g id="グループ_2648" data-name="グループ 2648" transform="translate(382.689 1434.474)">
        <g id="グループ_2647" data-name="グループ 2647" clip-path="url(#clip-path)">
          <path id="パス_2512" data-name="パス 2512" d="M.686,26.548A24.9,24.9,0,0,0,7.017,37.265c.476.49.777.81.9.975a.87.87,0,0,1,.094.138l.024.067a6.428,6.428,0,0,1,.114.988c.042.56.094,1.353.2,2.429l-.164,5.416a10.3,10.3,0,0,0,4.9,9.09L15.2,57.662a10.3,10.3,0,0,0,10.242.311l2.18-1.167a10.3,10.3,0,0,0,5.443-8.772l.164-5.42c.168-1.047.267-1.826.342-2.38.058-.431.1-.725.143-.882a.843.843,0,0,1,.053-.173l.033-.05a2.832,2.832,0,0,1,.295-.321c.171-.171.421-.4.745-.7a26.608,26.608,0,0,0,5.547-7.023,20.359,20.359,0,0,0,2.443-9.02,21.419,21.419,0,0,0-42.818-1.3,19.925,19.925,0,0,0,.677,5.78" transform="translate(0 0)" fill="#ffb64b"/>
        </g>
      </g>
      <path id="パス_159" data-name="パス 159" d="M0,22.275A26.389,26.389,0,0,0,3.54,34.986c.353.633.573,1.043.656,1.246a.922.922,0,0,1,.059.167l.006.076a6.835,6.835,0,0,1-.155,1.043c-.111.585-.275,1.411-.461,2.542l-1.655,5.5v0A10.913,10.913,0,0,0,4.515,56.209l1.8,1.9a10.917,10.917,0,0,0,10.4,3.13l2.552-.593a10.916,10.916,0,0,0,7.981-7.489l1.656-5.5c.46-1.026.775-1.8,1-2.343.178-.426.306-.713.388-.864a.9.9,0,0,1,.1-.163l.048-.045a3.069,3.069,0,0,1,.39-.248c.222-.126.54-.292.954-.508A28.2,28.2,0,0,0,39.4,37.819a21.584,21.584,0,0,0,4.978-8.565A22.7,22.7,0,1,0,.895,16.171,21.108,21.108,0,0,0,0,22.275ZM14.956,41.286l2.874-9.553,3.836,1.154-2.873,9.553Zm6.988,6.191L5.469,49.3c-.017-.2-.028-.4-.028-.6a6.961,6.961,0,0,1,.3-2.015v0l1.127-3.748ZM23.5,52.032a7,7,0,0,1-5.119,4.8l-2.552.593a7,7,0,0,1-6.672-2.007l-1.8-1.9a6.986,6.986,0,0,1-1.346-2.062l18.271-2.023ZM4.643,17.3A18.79,18.79,0,1,1,40.628,28.126a17.666,17.666,0,0,1-4.09,7.02,24.307,24.307,0,0,1-6.556,4.87,17.934,17.934,0,0,0-1.614.9,4.508,4.508,0,0,0-1.028.927,5.006,5.006,0,0,0-.543.852c-.219.428-.392.853-.62,1.4l-.212.508L20.9,43.076l2.873-9.553,2.645.8a4.148,4.148,0,1,0,2.389-7.944l-.78-.235a4.146,4.146,0,0,0-5.167,2.778l-.56,1.863-3.836-1.155.561-1.864a4.148,4.148,0,0,0-2.777-5.167l-.78-.235a4.148,4.148,0,0,0-2.39,7.944l2.645.8-2.874,9.553L7.784,39.127c.061-.325.118-.621.168-.882a9.658,9.658,0,0,0,.224-1.773,4.264,4.264,0,0,0-.1-.92,5.462,5.462,0,0,0-.453-1.235c-.186-.379-.4-.757-.66-1.232a22.5,22.5,0,0,1-3.05-10.813A17.176,17.176,0,0,1,4.643,17.3ZM24.408,31.413l.561-1.863a1.928,1.928,0,0,1,.712-1.009,1.935,1.935,0,0,1,1.712-.294l.781.235a1.931,1.931,0,0,1,1.008.711,1.948,1.948,0,0,1-1.568,3.1,1.932,1.932,0,0,1-.562-.083Zm-8.052-2.423-2.644-.8a1.932,1.932,0,0,1-1.009-.713,1.953,1.953,0,0,1-.378-1.15,1.961,1.961,0,0,1,.8-1.571,1.935,1.935,0,0,1,1.712-.294l.781.235a1.929,1.929,0,0,1,1.008.712,1.94,1.94,0,0,1,.295,1.714Z" transform="matrix(0.966, -0.259, 0.259, 0.966, 372.094, 1436.443)" fill="#3e485c"/>
      <g id="グループ_2649" data-name="グループ 2649" transform="translate(375.993 1410.09)">
        <path id="パス_162" data-name="パス 162" d="M490.264,26.921l5.052-6.186a1.6,1.6,0,0,0-2.479-2.025L487.785,24.9a1.6,1.6,0,0,0,2.479,2.025Z" transform="translate(-452.229 -14.54)" fill="#3e485c"/>
        <path id="パス_163" data-name="パス 163" d="M441.644,11.141a1.6,1.6,0,0,0,1.432-1.753l-.8-7.948a1.6,1.6,0,1,0-3.185.321l.8,7.948A1.6,1.6,0,0,0,441.644,11.141Z" transform="translate(-418.07 0)" fill="#3e485c"/>
        <path id="パス_164" data-name="パス 164" d="M390.464,37.67a1.6,1.6,0,1,0,2.025-2.479L386.3,30.137a1.6,1.6,0,0,0-2.025,2.479Z" transform="translate(-383.691 -21.501)" fill="#3e485c"/>
      </g>
    </g>
    <g id="グループ_2652" data-name="グループ 2652" transform="translate(40.84 8.225)">
      <path id="多角形_20" data-name="多角形 20" d="M20.055,5.054a3,3,0,0,1,5.311,0L29.542,13A3,3,0,0,0,31.6,14.545l8.709,1.767a3,3,0,0,1,1.645,4.934l-6.223,7a3,3,0,0,0-.738,2.345l1.1,9.352a3,3,0,0,1-4.3,3.044l-7.76-3.819a3,3,0,0,0-2.649,0l-7.76,3.819a3,3,0,0,1-4.3-3.044l1.1-9.352a3,3,0,0,0-.738-2.345l-6.223-7a3,3,0,0,1,1.645-4.934l8.709-1.767A3,3,0,0,0,15.879,13Z" transform="matrix(0.891, -0.454, 0.454, 0.891, 266.648, 1448.2)" fill="#fad06c"/>
      <g id="多角形_21" data-name="多角形 21" transform="matrix(0.891, -0.454, 0.454, 0.891, 270.142, 1445.396)" fill="none">
        <path d="M20.055,5.054a3,3,0,0,1,5.311,0L29.542,13A3,3,0,0,0,31.6,14.545l8.709,1.767a3,3,0,0,1,1.645,4.934l-6.223,7a3,3,0,0,0-.738,2.345l1.1,9.352a3,3,0,0,1-4.3,3.044l-7.76-3.819a3,3,0,0,0-2.649,0l-7.76,3.819a3,3,0,0,1-4.3-3.044l1.1-9.352a3,3,0,0,0-.738-2.345l-6.223-7a3,3,0,0,1,1.645-4.934l8.709-1.767A3,3,0,0,0,15.879,13Z" stroke="none"/>
        <path d="M 22.71047782897949 6.449253082275391 L 18.53444862365723 14.39628219604492 C 17.6920280456543 15.9993724822998 16.19097709655762 17.12532234191895 14.41618728637695 17.48541259765625 L 5.707187652587891 19.25242233276367 C 5.707183837890625 19.2524242401123 5.707168579101562 19.25241279602051 5.707176208496094 19.2524299621582 C 5.707176208496094 19.2524299621582 5.707176208496094 19.25243186950684 5.707176208496094 19.25243186950684 L 11.93037796020508 26.25025367736816 C 13.06868743896484 27.53025245666504 13.60632705688477 29.24002265930176 13.40543746948242 30.94113349914551 L 12.30104827880859 40.29306411743164 L 20.06145858764648 36.47453308105469 C 20.88103866577148 36.07124328613281 21.79704856872559 35.85808181762695 22.71047782897949 35.85808181762695 C 23.62388801574707 35.85808181762695 24.53988838195801 36.07124328613281 25.35947799682617 36.47452163696289 L 33.11986923217773 40.29304504394531 C 33.11988067626953 40.29303741455078 33.11989212036133 40.29302978515625 33.11990737915039 40.29305267333984 L 32.01552581787109 30.9411735534668 C 31.81461715698242 29.24004364013672 32.35225677490234 27.5302619934082 33.49057769775391 26.25025367736816 L 39.7137565612793 19.25243186950684 C 39.71376037597656 19.2524299621582 39.71376419067383 19.25242614746094 39.71376800537109 19.25242233276367 L 31.00474739074707 17.48541259765625 C 29.22993850708008 17.12531280517578 27.7288875579834 15.99934196472168 26.88649749755859 14.39624404907227 L 22.71047782897949 6.449253082275391 M 22.71047210693359 3.449253082275391 C 23.75726127624512 3.449253082275391 24.80404853820801 3.984081268310547 25.36613845825195 5.053741455078125 L 29.54215812683105 13.000732421875 C 29.96155738830566 13.79886245727539 30.71768760681152 14.36604309082031 31.60128784179688 14.54532241821289 L 40.31029891967773 16.31233215332031 C 42.57762908935547 16.77236366271973 43.49295806884766 19.51724243164062 41.95552825927734 21.24604225158691 L 35.73234558105469 28.24386215209961 C 35.1627082824707 28.88440322875977 34.89427947998047 29.73802185058594 34.99481964111328 30.58930206298828 L 36.09920883178711 39.94122314453125 C 36.37811660766602 42.30302429199219 33.92927551269531 44.03482055664062 31.79540824890137 42.98484420776367 L 24.03497695922852 39.16630172729492 C 23.19978713989258 38.75534057617188 22.22115707397461 38.75534057617188 21.38597869873047 39.16630172729492 L 13.62554740905762 42.98484420776367 C 11.49167251586914 44.03481292724609 9.042839050292969 42.30302047729492 9.321746826171875 39.94122314453125 L 10.4261360168457 30.58930206298828 C 10.52666854858398 29.73802185058594 10.25824737548828 28.88440322875977 9.688606262207031 28.24385261535645 L 3.465415954589844 21.24604225158691 C 1.927997589111328 19.51724243164062 2.843318939208984 16.77236366271973 5.11065673828125 16.31233215332031 L 13.81965827941895 14.54532241821289 C 14.70326805114746 14.36604309082031 15.45938873291016 13.79886245727539 15.87879753112793 13.0007438659668 L 20.05480766296387 5.053741455078125 C 20.61689758300781 3.984081268310547 21.6636848449707 3.449253082275391 22.71047210693359 3.449253082275391 Z" stroke="none" fill="#3e485c"/>
      </g>
    </g>
  </g>
</svg>
