<svg xmlns="http://www.w3.org/2000/svg" xmlns:xlink="http://www.w3.org/1999/xlink" width="210.883" height="255.652" viewBox="0 0 210.883 255.652">
  <defs>
    <clipPath id="clip-path">
      <rect id="長方形_334" data-name="長方形 334" width="32.856" height="45.396" fill="#ffb64b"/>
    </clipPath>
  </defs>
  <g id="parts" transform="translate(-187.987 -176.244)">
    <g id="グループ_2660" data-name="グループ 2660" transform="matrix(0.875, -0.485, 0.485, 0.875, -795.247, -860.728)">
      <path id="パス_2514" data-name="パス 2514" d="M489.6,24.871l3.875-4.745a1.228,1.228,0,0,0-1.9-1.553L487.7,23.317a1.228,1.228,0,0,0,1.9,1.553Z" transform="translate(-83.854 1394.716)" fill="#ffb64b"/>
      <path id="パス_2513" data-name="パス 2513" d="M441.047,8.545a1.228,1.228,0,0,0,1.1-1.345l-.614-6.1a1.228,1.228,0,1,0-2.443.246l.614,6.1A1.228,1.228,0,0,0,441.047,8.545Z" transform="translate(-46.391 1410.09)" fill="#ffb64b"/>
      <path id="パス_2515" data-name="パス 2515" d="M388.886,35.831a1.228,1.228,0,1,0,1.553-1.9l-4.744-3.876a1.228,1.228,0,0,0-1.553,1.9Z" transform="translate(-7.115 1386.661)" fill="#ffb64b"/>
      <g id="グループ_2648" data-name="グループ 2648" transform="translate(380.221 1428.793)">
        <g id="グループ_2647" data-name="グループ 2647" clip-path="url(#clip-path)">
          <path id="パス_2512" data-name="パス 2512" d="M.526,20.362a19.1,19.1,0,0,0,4.856,8.221c.365.376.6.621.692.748a.668.668,0,0,1,.072.106l.018.052a4.93,4.93,0,0,1,.087.758c.032.43.072,1.038.154,1.863L6.28,36.263a7.9,7.9,0,0,0,3.76,6.972l1.615.993a7.9,7.9,0,0,0,7.856.239l1.672-.895a7.9,7.9,0,0,0,4.175-6.728l.126-4.157c.129-.8.2-1.4.263-1.825.045-.331.08-.556.11-.676a.647.647,0,0,1,.04-.133l.026-.038a2.172,2.172,0,0,1,.226-.247c.131-.131.323-.306.572-.534a20.408,20.408,0,0,0,4.254-5.387,15.616,15.616,0,0,0,1.874-6.919,16.428,16.428,0,0,0-32.842-1,15.283,15.283,0,0,0,.52,4.433" transform="translate(0 0)" fill="#ffb64b"/>
        </g>
      </g>
      <path id="パス_159" data-name="パス 159" d="M0,17.085a20.241,20.241,0,0,0,2.715,9.749c.27.486.44.8.5.955a.707.707,0,0,1,.045.128l0,.058a5.243,5.243,0,0,1-.119.8c-.085.449-.211,1.083-.353,1.95L1.526,34.944h0a8.37,8.37,0,0,0,1.936,8.17l1.382,1.46a8.373,8.373,0,0,0,7.977,2.4l1.957-.455A8.373,8.373,0,0,0,20.9,40.775l1.27-4.222c.353-.787.594-1.378.77-1.8.136-.327.235-.547.3-.662a.689.689,0,0,1,.078-.125l.037-.034a2.354,2.354,0,0,1,.3-.19c.17-.1.414-.224.732-.39a21.626,21.626,0,0,0,5.835-4.347,16.555,16.555,0,0,0,3.819-6.569A17.414,17.414,0,1,0,.686,12.4,16.19,16.19,0,0,0,0,17.085ZM11.472,31.667l2.2-7.327,2.942.885-2.2,7.327Zm5.36,4.748L4.2,37.815c-.013-.152-.022-.305-.022-.458A5.339,5.339,0,0,1,4.4,35.811h0l.865-2.875Zm1.194,3.493A5.371,5.371,0,0,1,14.1,43.593l-1.957.455a5.37,5.37,0,0,1-5.117-1.539l-1.382-1.46a5.358,5.358,0,0,1-1.032-1.582l14.014-1.552ZM3.561,13.268a14.412,14.412,0,1,1,27.6,8.305,13.55,13.55,0,0,1-3.137,5.384A18.644,18.644,0,0,1,23,30.692a13.756,13.756,0,0,0-1.238.692,3.458,3.458,0,0,0-.789.711,3.839,3.839,0,0,0-.416.653c-.168.328-.3.654-.475,1.071l-.162.389L16.032,33.04l2.2-7.327,2.029.61A3.181,3.181,0,1,0,22.1,20.229l-.6-.18a3.18,3.18,0,0,0-3.963,2.131l-.43,1.429-2.942-.886.43-1.429a3.182,3.182,0,0,0-2.13-3.963l-.6-.18a3.181,3.181,0,0,0-1.833,6.093l2.029.61-2.2,7.327L5.97,30.011c.047-.249.091-.476.129-.676a7.408,7.408,0,0,0,.172-1.36A3.271,3.271,0,0,0,6.2,27.27a4.19,4.19,0,0,0-.348-.947c-.143-.291-.305-.581-.506-.945A17.257,17.257,0,0,1,3,17.084,13.174,13.174,0,0,1,3.561,13.268Zm15.16,10.827.43-1.429a1.479,1.479,0,0,1,.546-.774,1.484,1.484,0,0,1,1.313-.226l.6.18a1.481,1.481,0,0,1,.773.546,1.494,1.494,0,0,1-1.2,2.377,1.482,1.482,0,0,1-.431-.064Zm-6.176-1.858-2.028-.61a1.482,1.482,0,0,1-.774-.547,1.5,1.5,0,0,1-.29-.882,1.5,1.5,0,0,1,.61-1.2,1.484,1.484,0,0,1,1.313-.225l.6.18a1.48,1.48,0,0,1,.773.546,1.488,1.488,0,0,1,.226,1.314Z" transform="matrix(0.966, -0.259, 0.259, 0.966, 372.094, 1430.303)" fill="#3e485c"/>
      <g id="グループ_2649" data-name="グループ 2649" transform="translate(375.085 1410.09)">
        <path id="パス_162" data-name="パス 162" d="M489.6,24.871l3.875-4.745a1.228,1.228,0,0,0-1.9-1.553L487.7,23.317a1.228,1.228,0,0,0,1.9,1.553Z" transform="translate(-460.429 -15.374)" fill="#3e485c"/>
        <path id="パス_163" data-name="パス 163" d="M441.047,8.545a1.228,1.228,0,0,0,1.1-1.345l-.614-6.1a1.228,1.228,0,1,0-2.443.246l.614,6.1A1.228,1.228,0,0,0,441.047,8.545Z" transform="translate(-422.966 0)" fill="#3e485c"/>
        <path id="パス_164" data-name="パス 164" d="M388.886,35.831a1.228,1.228,0,1,0,1.553-1.9l-4.744-3.876a1.228,1.228,0,0,0-1.553,1.9Z" transform="translate(-383.691 -23.429)" fill="#3e485c"/>
      </g>
    </g>
    <g id="グループ_2661" data-name="グループ 2661" transform="translate(-78.661 -1209.885)">
      <path id="多角形_20" data-name="多角形 20" d="M15.51,5.054a3,3,0,0,1,5.311,0L23.5,10.147a3,3,0,0,0,2.059,1.545l5.664,1.149a3,3,0,0,1,1.645,4.934l-4.105,4.616a3,3,0,0,0-.738,2.345l.722,6.116a3,3,0,0,1-4.3,3.044L19.491,31.46a3,3,0,0,0-2.649,0L11.89,33.9a3,3,0,0,1-4.3-3.044l.722-6.116a3,3,0,0,0-.738-2.345L3.465,17.774a3,3,0,0,1,1.645-4.934l5.664-1.149a3,3,0,0,0,2.059-1.545Z" transform="matrix(0.891, -0.454, 0.454, 0.891, 266.648, 1443.512)" fill="#fad06c"/>
      <g id="多角形_21" data-name="多角形 21" transform="matrix(0.891, -0.454, 0.454, 0.891, 269.443, 1441.269)" fill="none">
        <path d="M15.51,5.054a3,3,0,0,1,5.311,0L23.5,10.147a3,3,0,0,0,2.059,1.545l5.664,1.149a3,3,0,0,1,1.645,4.934l-4.105,4.616a3,3,0,0,0-.738,2.345l.722,6.116a3,3,0,0,1-4.3,3.044L19.491,31.46a3,3,0,0,0-2.649,0L11.89,33.9a3,3,0,0,1-4.3-3.044l.722-6.116a3,3,0,0,0-.738-2.345L3.465,17.774a3,3,0,0,1,1.645-4.934l5.664-1.149a3,3,0,0,0,2.059-1.545Z" stroke="none"/>
        <path d="M 18.16615104675293 6.449256896972656 L 15.48977088928223 11.54243659973145 C 14.64737129211426 13.14554786682129 13.14632034301758 14.27151679992676 11.37150001525879 14.63161659240723 L 5.707191467285156 15.7808780670166 L 9.8125 20.39720726013184 C 10.9508113861084 21.67720794677734 11.48845100402832 23.38697814941406 11.28756141662598 25.08808708190918 L 10.56527137756348 31.20442771911621 L 15.51714134216309 28.76784706115723 C 16.33672142028809 28.36455726623535 17.25273132324219 28.15139770507812 18.16616058349609 28.15139770507812 C 19.07957077026367 28.15139770507812 19.99557113647461 28.36455726623535 20.81516075134277 28.76783752441406 L 25.76700973510742 31.20440673828125 C 25.76701927185059 31.20439910888672 25.76702690124512 31.20439338684082 25.76704025268555 31.20441818237305 L 25.04475021362305 25.08808708190918 C 24.84387016296387 23.38699722290039 25.38150024414062 21.67723655700684 26.51982116699219 20.39719772338867 L 30.62512969970703 15.78087997436523 C 30.62512588500977 15.7808780670166 30.6251220703125 15.7808780670166 30.62512016296387 15.7808780670166 L 24.96081924438477 14.63160705566406 C 23.18600082397461 14.27150726318359 21.68494033813477 13.14554786682129 20.84255027770996 11.54244804382324 L 18.16616058349609 6.449256896972656 C 18.16615676879883 6.449256896972656 18.1661548614502 6.449256896972656 18.16615104675293 6.449256896972656 M 18.1661548614502 3.449256896972656 C 19.21294403076172 3.449256896972656 20.25973129272461 3.984088897705078 20.82181930541992 5.053749084472656 L 23.49821090698242 10.14693832397461 C 23.91761016845703 10.94506645202637 24.67374038696289 11.51223754882812 25.55735015869141 11.6915168762207 L 31.22166061401367 12.84078788757324 C 33.4890022277832 13.30081748962402 34.40433120727539 16.04568672180176 32.86690139770508 17.77448654174805 L 28.76158142089844 22.39080810546875 C 28.19195175170898 23.03135681152344 27.92352104187012 23.88497734069824 28.02405166625977 24.73625755310059 L 28.74634170532227 30.85258674621582 C 29.0252513885498 33.21438980102539 26.5764217376709 34.94618606567383 24.44255065917969 33.89620590209961 L 19.49065971374512 31.45961761474609 C 18.65546989440918 31.04865646362305 17.67683982849121 31.04865646362305 16.84166145324707 31.45961761474609 L 11.8897705078125 33.89620590209961 C 9.755897521972656 34.94618606567383 7.307060241699219 33.21438980102539 7.585969924926758 30.85258674621582 L 8.308259963989258 24.73625755310059 C 8.408790588378906 23.88497734069824 8.140371322631836 23.03135681152344 7.570730209350586 22.39080810546875 L 3.465419769287109 17.77448654174805 C 1.927989959716797 16.04568672180176 2.843318939208984 13.30081748962402 5.110660552978516 12.84078788757324 L 10.77497100830078 11.6915283203125 C 11.65857124328613 11.51224708557129 12.41470146179199 10.94506645202637 12.8341007232666 10.14693832397461 L 15.51049041748047 5.053749084472656 C 16.07258033752441 3.984088897705078 17.1193675994873 3.449256896972656 18.1661548614502 3.449256896972656 Z" stroke="none" fill="#3e485c"/>
      </g>
    </g>
    <g id="j196_12_14" transform="translate(209.129 277.853) rotate(-17)">
      <path id="パス_2548" data-name="パス 2548" d="M548.035,11.582a2.032,2.032,0,0,1,3.14-2.571l4.184,4.518,3.88-6.833a3.462,3.462,0,0,1,6.046-.209,21.942,21.942,0,0,1,3.15,7.724c.677,3.463-8.064,9.332-10.117,11.827l-2.373.715-4.777-2.443.458-4.868-.066-3.091Z" transform="translate(-421.709 -2.162)" fill="#ffd7c5"/>
      <path id="パス_2549" data-name="パス 2549" d="M302.882,470.378l17.45,8.574,35.88,29.981s6.58-4.545,12.475.471l.839.972a1.564,1.564,0,0,1-.161,2.206l-14.356,12.4a1.564,1.564,0,0,1-2.1-.049l-7.257-6.879-46.148-26.8-1.864-.565-8.475-12.563Z" transform="translate(-220.277 -365.814)" fill="#6c859b"/>
      <path id="パス_2550" data-name="パス 2550" d="M396.461,106.82a5.692,5.692,0,0,0,5.322-1.894L431.471,69.1l9.1,7.559-40.337,53.922-5.388-24.458A3.758,3.758,0,0,0,396.461,106.82Z" transform="translate(-302.795 -52.848)" fill="#ffb64b"/>
      <path id="パス_2551" data-name="パス 2551" d="M35.673,11.582a2.032,2.032,0,0,0-3.14-2.571L28.349,13.53,24.469,6.7a3.462,3.462,0,0,0-6.046-.209,21.94,21.94,0,0,0-3.15,7.724c-.677,3.463,8.064,9.332,10.117,11.827l2.373.715,4.777-2.443-.458-4.868.066-3.091Z" transform="translate(-11.827 -3.737)" fill="#ffd7c5"/>
      <path id="パス_2552" data-name="パス 2552" d="M72.966,470.378l-17.45,8.574-35.88,29.981s-6.58-4.545-12.475.471l-.839.972a1.564,1.564,0,0,0,.161,2.206l14.356,12.4a1.564,1.564,0,0,0,2.1-.049l7.257-6.879,46.148-26.8,1.864-.565,8.475-12.563Z" transform="translate(-0.416 -365.814)" fill="#6c859b"/>
      <path id="パス_2553" data-name="パス 2553" d="M255.091,231.317s-8.4-5.474-23.076-5.474-23.543,7.791-23.543,8.46v20.05l1.95,27.2.054.535-4.761,5.036s-1.879,1.014,1.947,2.949a17.823,17.823,0,0,0,3.769,1.373l.057.561,4.49,2.758c3.862,1.2,8.535,1.484,11.766-.95l2.618-1.808c1.457-1.1,2.8-2.125,4.256-1.026l2.419,1.823a12.566,12.566,0,0,0,11.3,1.962l4.243-2.522,6.044-2.276a2.741,2.741,0,0,0,.61-4.333l-4.07-4.081,1.315-27.2v-17.7Z" transform="translate(-155.618 -174.526)" fill="#ffb64b"/>
      <path id="パス_2554" data-name="パス 2554" d="M256.487,217.724a2.208,2.208,0,0,0-1.073,1.362c-.114.423-.242.887-.318,1.134-.163.528,13.755,18.59,13.755,18.59a4.727,4.727,0,0,0,2.544,1.04c1.058-.118,2.48-1.924,2.48-1.924L287.316,219.8a1.631,1.631,0,0,0-.634-2.455l-4.868-2.218-.874-.507a18.732,18.732,0,0,0-19.015.129Z" transform="translate(-195.585 -164.175)" fill="#fff"/>
      <path id="パス_2555" data-name="パス 2555" d="M100.887,106.82a5.692,5.692,0,0,1-5.322-1.894L65.877,69.1l-9.1,7.559,40.337,53.922L102.5,106.12A3.758,3.758,0,0,1,100.887,106.82Z" transform="translate(-40.358 -52.848)" fill="#ffb64b"/>
      <path id="パス_2556" data-name="パス 2556" d="M264.974,78.462h0V76.67c0-8.072-8.419-15.778-17.351-15.778S230.273,68.6,230.273,76.67v1.819a6.067,6.067,0,0,0,.281,12.1c1.529,7.062,9.095,13.206,17.07,13.206s15.536-6.139,17.068-13.2h.282a6.068,6.068,0,0,0,0-12.135Z" transform="translate(-172.123 -47.215)" fill="#ffd7c5"/>
      <path id="パス_2557" data-name="パス 2557" d="M145.228,388.416l-.062-.053a10.994,10.994,0,0,0-3.511-2.044,10.3,10.3,0,0,0-3.408-.57,12.69,12.69,0,0,0-4.864,1.028,13.564,13.564,0,0,0-1.292.624L99.911,361a1.064,1.064,0,0,0-.51-.226c.223-.067.439-.131.643-.188a2.67,2.67,0,0,0,1.443-1,2.7,2.7,0,0,0-.126-3.327l-4.43-5.243,1.926-34.081a1.076,1.076,0,1,0-2.149-.121h0l-1.974,34.938,4.984,5.9a.528.528,0,0,1,.131.349.56.56,0,0,1-.1.325.51.51,0,0,1-.284.2A32.28,32.28,0,0,0,87.8,364.334a2.573,2.573,0,0,1-.9.487,3.844,3.844,0,0,1-1.157.161,9.906,9.906,0,0,1-3.536-.828,29.752,29.752,0,0,1-5.333-2.951c-.731-.5-1.34-.945-1.764-1.267-.212-.161-.377-.29-.489-.379l-.126-.1-.031-.025-.008-.007a1.069,1.069,0,0,0-.588-.24,1.082,1.082,0,0,0,.028-.236v-7.573a1.076,1.076,0,1,0-2.153,0v7.573a1.071,1.071,0,0,0,.333.776,40.6,40.6,0,0,1-3.863,2.645,25.16,25.16,0,0,1-3.627,1.83,9.724,9.724,0,0,1-3.417.781,3.841,3.841,0,0,1-1.157-.161,2.57,2.57,0,0,1-.9-.487,32.275,32.275,0,0,0-11.658-5.821.51.51,0,0,1-.284-.2.56.56,0,0,1-.1-.325.527.527,0,0,1,.131-.349l4.984-5.9-1.974-34.938a1.076,1.076,0,1,0-2.149.122h0l1.926,34.081-4.43,5.243a2.689,2.689,0,0,0,1.316,4.332c.19.053.392.112.6.174a1.068,1.068,0,0,0-.622.239h0L14.674,387.4a13.6,13.6,0,0,0-1.292-.624,12.689,12.689,0,0,0-4.864-1.028,10.3,10.3,0,0,0-3.408.57A10.988,10.988,0,0,0,1.6,388.363l-.063.054-.893,1.034a2.641,2.641,0,0,0,.272,3.725l14.356,12.4a2.641,2.641,0,0,0,3.544-.083l7.165-6.792,47.382-27.254c.008,0,.014-.011.021-.016s.014.011.022.016l47.382,27.254,7.165,6.792a2.641,2.641,0,0,0,3.543.083l14.356-12.405h0a2.641,2.641,0,0,0,.271-3.724ZM73.382,369.6a1.071,1.071,0,0,0-1.095-.018L25.436,396.534l-9.011-7.786,31.793-26.085a1.073,1.073,0,0,0-.017-1.677,28.969,28.969,0,0,1,9.532,5,4.727,4.727,0,0,0,1.636.893,6,6,0,0,0,1.8.261,11.95,11.95,0,0,0,4.339-.984,31.831,31.831,0,0,0,5.739-3.167c1.005-.683,1.781-1.271,2.207-1.6a42.8,42.8,0,0,0,3.9,2.7,28.11,28.11,0,0,0,4.043,2.073,11.95,11.95,0,0,0,4.339.984,5.994,5.994,0,0,0,1.8-.261,4.73,4.73,0,0,0,1.636-.893,28.74,28.74,0,0,1,9.295-4.918,1.038,1.038,0,0,0-.085.084,1.077,1.077,0,0,0,.149,1.515l31.793,26.085-9.011,7.786L74.477,369.586A1.071,1.071,0,0,0,73.382,369.6Z" transform="translate(0 -245.141)" fill="#156089"/>
      <path id="パス_2558" data-name="パス 2558" d="M440.477,525.3Z" transform="translate(-341.931 -407.775)" fill="#156089"/>
      <path id="パス_2559" data-name="パス 2559" d="M428.15,12.98l.031,1.449-.587-.488L397.237,50.578a4.749,4.749,0,0,1-3.488,1.628,4.092,4.092,0,0,1-.811-.081,2.7,2.7,0,0,1-1.155-.486,1.076,1.076,0,0,0-1.341,1.684,4.819,4.819,0,0,0,2.071.913,6.254,6.254,0,0,0,1.236.123,6.894,6.894,0,0,0,5.1-2.356l.014-.015,29.011-35.014,7.486,6.217L401.442,68.537a1.077,1.077,0,1,0,1.724,1.29h0l35.147-46.984-.762-.633c.055-.053.109-.105.168-.16.693-.651,1.621-1.446,2.617-2.311a50.7,50.7,0,0,0,4.465-4.233,13.53,13.53,0,0,0,1.669-2.239,4.921,4.921,0,0,0,.738-2.4,3.152,3.152,0,0,0-.057-.6v0A20.81,20.81,0,0,0,445.982,6.3a29.6,29.6,0,0,0-2.117-4.1A4.5,4.5,0,0,0,439.982,0a4.567,4.567,0,0,0-2.3.621,4.508,4.508,0,0,0-1.714,1.809h0l-3.2,5.632-3.126-3.5,0-.005a3.107,3.107,0,0,0-4.35-.256h0a3.108,3.108,0,0,0-.455,4.19ZM426.7,5.917h0A.955.955,0,0,1,428.035,6l4.766,5.341A1.076,1.076,0,1,0,434.407,9.9h0l-.131-.147,3.57-6.287.009-.018a2.347,2.347,0,0,1,.909-.972,2.428,2.428,0,0,1,2.359-.04,2.352,2.352,0,0,1,.9.868,27.5,27.5,0,0,1,1.967,3.8,18.634,18.634,0,0,1,1.048,3.571,1,1,0,0,1,.017.19,2.324,2.324,0,0,1-.255.945,10.473,10.473,0,0,1-1.777,2.448,53.77,53.77,0,0,1-4.31,4.034c-.736.639-1.439,1.243-2.049,1.8-.282.256-.541.5-.779.734l-5.625-4.672a1.065,1.065,0,0,0,.1-.471l-.073-3.432-3.729-5.046a.945.945,0,0,1-.187-.567A.955.955,0,0,1,426.7,5.917Z" transform="translate(-302.775)" fill="#156089"/>
      <path id="パス_2560" data-name="パス 2560" d="M274.729,264.69l14.13-19.1a.987.987,0,1,0-1.586-1.174h0l-12.307,16.634V252.2h-5.679v8.772l-10.756-15a.987.987,0,1,0-1.6,1.151l12.6,17.568h0a3.238,3.238,0,0,0,5.206,0Z" transform="translate(-199.302 -189.426)" fill="#156089"/>
      <path id="パス_2561" data-name="パス 2561" d="M322.032,392.913a1.411,1.411,0,1,0,1.411,1.411A1.411,1.411,0,0,0,322.032,392.913Z" transform="translate(-248.89 -305.009)" fill="#156089"/>
      <path id="パス_2562" data-name="パス 2562" d="M322.032,434.138a1.411,1.411,0,1,0,1.411,1.411A1.412,1.412,0,0,0,322.032,434.138Z" transform="translate(-248.89 -337.011)" fill="#156089"/>
      <path id="パス_2563" data-name="パス 2563" d="M10.876,12.721a12.446,12.446,0,0,0,2.142,3,55.605,55.605,0,0,0,4.488,4.207c.74.641,1.433,1.239,2.012,1.765.2.185.388.358.56.523l-.761.632L54.463,69.828a1.076,1.076,0,1,0,1.724-1.29h0L22.266,23.192l7.486-6.217L58.765,51.991l.012.014a6.892,6.892,0,0,0,5.1,2.356,6.257,6.257,0,0,0,1.236-.123,1.076,1.076,0,0,0-.425-2.111,4.114,4.114,0,0,1-.812.081,4.747,4.747,0,0,1-3.488-1.628L30.035,13.942l-.587.487.03-1.448,3.323-4.5h0A3.108,3.108,0,0,0,28,4.553l0,.005-3.127,3.5-3.2-5.632h0A4.506,4.506,0,0,0,19.951.621,4.578,4.578,0,0,0,15.478.547,4.511,4.511,0,0,0,13.764,2.2a29.594,29.594,0,0,0-2.117,4.1,20.829,20.829,0,0,0-1.167,3.969,3.111,3.111,0,0,0-.058.605A4.434,4.434,0,0,0,10.876,12.721Zm1.714-2.035v0A18.648,18.648,0,0,1,13.64,7.11a27.482,27.482,0,0,1,1.968-3.8,2.353,2.353,0,0,1,.9-.868,2.427,2.427,0,0,1,2.359.04,2.349,2.349,0,0,1,.91.973l.011.021,3.568,6.284-.131.147a1.077,1.077,0,1,0,1.606,1.434h0L29.594,6a.955.955,0,0,1,1.476,1.21l-3.729,5.045-.072,3.433a1.066,1.066,0,0,0,.1.471L21.742,20.83c-.117-.115-.228-.228-.356-.349-.752-.707-1.69-1.508-2.68-2.368a48.849,48.849,0,0,1-4.271-4.041,11.472,11.472,0,0,1-1.4-1.871,2.87,2.87,0,0,1-.456-1.33A.949.949,0,0,1,12.591,10.686Z" transform="translate(-8.09 -0.001)" fill="#156089"/>
      <path id="パス_2564" data-name="パス 2564" d="M10.679,45.886v0h0Z" transform="translate(-8.29 -35.618)" fill="#156089"/>
      <path id="パス_2565" data-name="パス 2565" d="M346.189,126.4a2.713,2.713,0,0,1,2.218,0,1.407,1.407,0,0,0,1.418-.058c.363-.308.117-1.156-.706-1.525a4.454,4.454,0,0,0-3.64,0c-.823.368-1.069,1.218-.706,1.525A1.4,1.4,0,0,0,346.189,126.4Z" transform="translate(-267.511 -96.588)" fill="#156089"/>
      <path id="パス_2566" data-name="パス 2566" d="M286.793,126.4a2.713,2.713,0,0,1,2.218,0,1.407,1.407,0,0,0,1.418-.058c.363-.308.117-1.156-.706-1.525a4.454,4.454,0,0,0-3.64,0c-.823.368-1.069,1.218-.706,1.525A1.4,1.4,0,0,0,286.793,126.4Z" transform="translate(-221.403 -96.588)" fill="#156089"/>
      <path id="パス_2567" data-name="パス 2567" d="M320.215,187.124h2.149a.492.492,0,0,0,0-.983h-1.437a.9.9,0,0,1-.8-.49L320,185.4a.233.233,0,0,0-.439.106v.962A.657.657,0,0,0,320.215,187.124Z" transform="translate(-248.065 -143.823)" fill="#156089"/>
      <path id="パス_2568" data-name="パス 2568" d="M291.9,157.135a.691.691,0,0,0-.361-.644l-3.358-1.821a.691.691,0,0,0-.658,1.215h0l2.081,1.128-2.015.83a.691.691,0,0,0,.526,1.278l3.358-1.384A.691.691,0,0,0,291.9,157.135Z" transform="translate(-222.914 -120.002)" fill="#156089"/>
      <path id="パス_2569" data-name="パス 2569" d="M349.822,157.843h0l-2.015-.83,2.081-1.128a.691.691,0,0,0-.658-1.215l-3.358,1.821a.691.691,0,0,0,.066,1.246l3.358,1.384a.691.691,0,1,0,.526-1.278Z" transform="translate(-268.21 -120.002)" fill="#156089"/>
      <path id="パス_2570" data-name="パス 2570" d="M307.152,208.535a4.375,4.375,0,0,0,4.385,3.006,4.73,4.73,0,0,0,4.385-3.006.618.618,0,0,0-.859-.785,10.208,10.208,0,0,1-7.054,0A.618.618,0,0,0,307.152,208.535Z" transform="translate(-238.395 -161.217)" fill="#156089"/>
      <path id="パス_2571" data-name="パス 2571" d="M225.2,74.425a15.324,15.324,0,0,0,1.065,2.773,19.217,19.217,0,0,0,6.847,7.45,18.67,18.67,0,0,0,9.968,3.025,19.209,19.209,0,0,0,12.717-5.13,18.486,18.486,0,0,0,4.1-5.345,15.306,15.306,0,0,0,1.065-2.773,7.095,7.095,0,0,0,1.95-13.584V58.678c0-.5,0-.994-.013-1.491a18.852,18.852,0,0,0-2.565-8.878,19.4,19.4,0,0,0-6.078-6.4,18.981,18.981,0,0,0-8.816-3.031,26.133,26.133,0,0,0-3.28-.044,18.9,18.9,0,0,0-4.657.8A19.169,19.169,0,0,0,225.27,51a19.82,19.82,0,0,0-1.276,7.218v2.358A7.092,7.092,0,0,0,225.2,74.425Zm-2.754-10.609a5.059,5.059,0,0,1,1.545-1.053v.014c0,.5,0,1,0,1.493a.949.949,0,0,0,.416.822.966.966,0,0,0,1.258-.207c.634-.622,1.339-1.171,1.989-1.776l.1-.094a6.746,6.746,0,0,0,2.789,2.815,1.242,1.242,0,0,0,1.812-1.268,18.561,18.561,0,0,1,5.61-16.345,2.614,2.614,0,0,1,3.667-.018c.736.713,1.442,1.4,1.73,1.344,1.332-.289,1.716-2.492,3.241-2.018,3.525,1.094,6.176,7.734,5.907,12.54a1.206,1.206,0,0,0,2.035.963,9.065,9.065,0,0,0,1.794-2.485,5.881,5.881,0,0,0,.353,1.209c.841,1.964,2.518,3.322,4.076,4.7.287.254.581.652.957.761a.946.946,0,0,0,1.133-.579,1.505,1.505,0,0,0,.054-.52v-.949a5.1,5.1,0,0,1,.8.651,5.033,5.033,0,0,1-2.337,8.447,12.88,12.88,0,0,0,.082-1.4,1.027,1.027,0,1,0-2.055,0h0a12.119,12.119,0,0,1-1.346,5.411,17.175,17.175,0,0,1-6.115,6.637,16.622,16.622,0,0,1-8.862,2.7,17.17,17.17,0,0,1-11.333-4.594,16.442,16.442,0,0,1-3.644-4.745,12.12,12.12,0,0,1-1.346-5.411,1.027,1.027,0,1,0-2.055,0,12.88,12.88,0,0,0,.082,1.4,5.035,5.035,0,0,1-2.336-8.447Z" transform="translate(-169.941 -30.12)" fill="#156089"/>
    </g>
  </g>
</svg>
