<svg xmlns="http://www.w3.org/2000/svg" width="280" height="200" viewBox="0 0 280 200">
  <g id="グループ_2830" data-name="グループ 2830" transform="translate(-486 -3934)">
    <rect id="長方形_428" data-name="長方形 428" width="280" height="200" transform="translate(486 3934)" fill="none"/>
    <g id="グループ_2828" data-name="グループ 2828" transform="translate(184.888 -521.233)">
      <path id="パス_2849" data-name="パス 2849" d="M61.25,76.785h0A2.244,2.244,0,0,0,63.5,74.39l-.235-3.458a2.664,2.664,0,0,0-2.56-2.48l-6.076-.228a2.87,2.87,0,0,0-2.6,1.437c-1.367,2.38-3.167,4.582-3.538,5.324l-2.646,5.861,1.741,6.125,5.372-4.407,1.309-2.428a1.247,1.247,0,0,1,1.1-.394l2.43.353c2.523.231,4.128-.895,3.807-2.84Z" transform="translate(343.192 4421.209)" fill="#ffd7c5"/>
      <path id="パス_2850" data-name="パス 2850" d="M193.8,413.844l.8,49.846s7.425.805,8.529,7.939v1.2a1.46,1.46,0,0,1-1.461,1.459H183.951a1.46,1.46,0,0,1-1.454-1.316l-9.673-50.878h-.549l-8.743,41.6-.93,9.28a1.46,1.46,0,0,1-1.454,1.316H143.432a1.46,1.46,0,0,1-1.461-1.459v-1.2c1.1-7.134,8.529-7.939,8.529-7.939l.441-49.846,21.3-12.167Z" transform="translate(269.297 4164.866)" fill="#ffd7c5"/>
      <path id="パス_2851" data-name="パス 2851" d="M155.261,408.763l-7.38,30.415h58.536l-7.38-30.415-22.4-13.7-19.657,9.524Z" transform="translate(265.679 4167.634)" fill="#e96f45"/>
      <path id="パス_2852" data-name="パス 2852" d="M221.424,199.671v36.659l-4.106,1.783-3.5,1.089a11.748,11.748,0,0,1-10.551-1.829l-2.26-1.7a3.824,3.824,0,0,0-4.6,0l-2.26,1.7A11.747,11.747,0,0,1,183.6,239.2l-3.5-1.089-3.511-1.519V180.972c0-.624,8.282-7.889,21.987-7.889s21.551,5.105,21.551,5.105l1.3,4.974v16.508Z" transform="translate(242.684 4340.597)" fill="#e96f45"/>
      <path id="パス_2853" data-name="パス 2853" d="M49.113,137.43c-2.274,8.745-1.772,25.469-3.483,35.439l-3.356-6c-3.186-2.711-3.392-8.671-3.392-8.671-1.341-.1-20.515-.125-28.188-3.532-3.356-1.5-6.011-3.6-6.313-7.264-.622-7.59,5.9-25.633,5.9-25.633l.928-1.108,10.853,2.965s-4.228,14.245-4.049,16.873c.018.26.08.4.194.414a2.12,2.12,0,0,0,1.665-.653l2.559-2.639a9.607,9.607,0,0,1,13.726-.07l1.1,1.11a4.831,4.831,0,0,0,5.281,1.079A60.665,60.665,0,0,1,49.113,137.43Z" transform="translate(375.101 4380.895)" fill="#e96f45"/>
      <path id="パス_2854" data-name="パス 2854" d="M433.034,76.784h0a2.244,2.244,0,0,1-2.255-2.395l.235-3.458a2.664,2.664,0,0,1,2.56-2.48l6.076-.229a2.87,2.87,0,0,1,2.6,1.437c1.367,2.38,3.167,4.582,3.538,5.324l2.646,5.861L446.7,86.969l-5.372-4.407-1.309-2.428a1.247,1.247,0,0,0-1.1-.394l-2.43.353c-2.523.231-4.128-.895-3.807-2.84Z" transform="translate(47.28 4421.21)" fill="#ffd7c5"/>
      <path id="パス_2855" data-name="パス 2855" d="M355.043,137.43c2.274,8.745.173,25.469,1.883,35.439l4.956-6c3.186-2.711,3.392-8.671,3.392-8.671,1.341-.1,20.515-.125,28.188-3.532,3.356-1.5,6.011-3.6,6.313-7.264.622-7.59-5.9-25.633-5.9-25.633l-.928-1.108-10.853,2.965s4.228,14.245,4.049,16.873c-.018.26-.08.4-.194.414a2.12,2.12,0,0,1-1.665-.653l-2.559-2.639a9.607,9.607,0,0,0-13.725-.07l-1.1,1.11a4.831,4.831,0,0,1-5.281,1.079A60.665,60.665,0,0,0,355.043,137.43Z" transform="translate(105.498 4380.895)" fill="#e96f45"/>
      <path id="パス_2856" data-name="パス 2856" d="M209.147,166.353s-.37,1.411-.522,1.9,12.846,17.337,12.846,17.337a4.417,4.417,0,0,0,2.377.97c.989-.11,2.316-1.795,2.316-1.795l13.674-18.417-6.259-2.848-.816-.472a17.515,17.515,0,0,0-17.759.121Z" transform="translate(218.058 4350.136)" fill="#fff"/>
      <path id="パス_2857" data-name="パス 2857" d="M218.962,30.686h0V25.031c0-7.528-7.863-14.715-16.2-14.715s-16.2,7.187-16.2,14.715v5.68A5.657,5.657,0,0,0,186.815,42c1.428,6.586,8.494,12.316,15.942,12.316S217.266,48.587,218.7,42h.264a5.659,5.659,0,1,0,0-11.317Z" transform="translate(238.977 4465.724)" fill="#ffd7c5"/>
      <ellipse id="楕円形_115" data-name="楕円形 115" cx="4.531" cy="4.526" rx="4.531" ry="4.526" transform="translate(428.801 4493.965)" fill="#fff0de"/>
      <ellipse id="楕円形_116" data-name="楕円形 116" cx="4.531" cy="4.526" rx="4.531" ry="4.526" transform="translate(441.052 4493.965)" fill="#fff0de"/>
      <path id="パス_2858" data-name="パス 2858" d="M234.164,710.4h0Z" transform="translate(196.111 3925.227)" fill="#231815"/>
      <path id="パス_2859" data-name="パス 2859" d="M197.429,466.525a10.1,10.1,0,0,0-2.363-2.157,12.52,12.52,0,0,0-3.423-1.562c-.288-.083-.548-.147-.772-.2l-.9-17.55h8.882l-8.659-31.722a1.036,1.036,0,0,0-2,.544l7.945,29.108H140.315l7.9-28.929a1,1,0,0,0,.6.508l3.5,1.089a12.756,12.756,0,0,0,11.455-1.986l2.26-1.7a2.818,2.818,0,0,1,3.388,0l2.26,1.7a12.756,12.756,0,0,0,11.455,1.986l3.5-1.089a1,1,0,1,0-.6-1.917h0l-3.5,1.089a10.741,10.741,0,0,1-9.648-1.672l-2.26-1.7a4.819,4.819,0,0,0-1.905-.862c0-.022.007-.043.007-.065v-7.062a1.005,1.005,0,0,0-2.011,0v7.062c0,.022.005.043.007.065a4.813,4.813,0,0,0-1.905.863l-2.26,1.7a10.741,10.741,0,0,1-9.647,1.672l-3.5-1.089a1,1,0,0,0-1.206.536,1.032,1.032,0,0,0-1.94.151h0L137.6,445.061h8.243l-.994,17.549c-.144.032-.3.069-.474.114a12.25,12.25,0,0,0-4.545,2.246,9.678,9.678,0,0,0-2.215,2.527,10.2,10.2,0,0,0-1.33,3.747l-.012.076v1.275a2.465,2.465,0,0,0,2.466,2.463h17.717a2.465,2.465,0,0,0,2.454-2.22l.926-9.245,3.125-18.531h9.373l4.477,27.836h0a2.461,2.461,0,0,0,2.445,2.161h17.717a2.465,2.465,0,0,0,2.466-2.463V471.32l-.012-.076A9.938,9.938,0,0,0,197.429,466.525Zm-39.441-4.052H146.872l.987-17.413h13.066Zm29.968-17.413.9,17.413H177.174l-2.8-17.413Z" transform="translate(271.363 4162.785)" fill="#156089"/>
      <path id="パス_2860" data-name="パス 2860" d="M269.148,327.8a1.316,1.316,0,1,0,1.318,1.316A1.317,1.317,0,0,0,269.148,327.8Z" transform="translate(170.23 4219.344)" fill="#156089"/>
      <path id="パス_2861" data-name="パス 2861" d="M269.148,368.98a1.316,1.316,0,1,0,1.318,1.316A1.317,1.317,0,0,0,269.148,368.98Z" transform="translate(170.23 4187.689)" fill="#156089"/>
      <path id="パス_2862" data-name="パス 2862" d="M224.481,197.112H221.83v8.182L211.785,191.3a.921.921,0,0,0-1.5,1.073l11.756,16.372.008.011a3.023,3.023,0,0,0,4.862,0l13.2-17.811a.921.921,0,0,0-1.482-1.1h0l-11.494,15.513v-8.255h-2.652Z" transform="translate(214.6 4325.679)" fill="#156089"/>
      <path id="パス_2863" data-name="パス 2863" d="M290.975,83.418a2.537,2.537,0,0,1,2.072,0,1.315,1.315,0,0,0,1.324-.054c.339-.287.109-1.078-.66-1.422a4.165,4.165,0,0,0-3.4,0c-.769.343-1,1.136-.66,1.422A1.313,1.313,0,0,0,290.975,83.418Z" transform="translate(153.572 4408.627)" fill="#156089"/>
      <path id="パス_2864" data-name="パス 2864" d="M237.309,83.418a2.537,2.537,0,0,1,2.072,0,1.315,1.315,0,0,0,1.324-.054c.339-.287.109-1.078-.66-1.422a4.165,4.165,0,0,0-3.4,0c-.769.343-1,1.136-.66,1.422A1.313,1.313,0,0,0,237.309,83.418Z" transform="translate(194.828 4408.627)" fill="#156089"/>
      <ellipse id="楕円形_117" data-name="楕円形 117" cx="1.787" cy="1.785" rx="1.787" ry="1.785" transform="translate(431.386 4496.464)" fill="#156089"/>
      <path id="パス_2865" data-name="パス 2865" d="M296.207,110.423a1.787,1.787,0,1,0-1.787,1.785A1.791,1.791,0,0,0,296.207,110.423Z" transform="translate(151.163 4387.827)" fill="#156089"/>
      <path id="パス_2866" data-name="パス 2866" d="M269.491,138.206a.459.459,0,1,0,0-.917h-1.342a.841.841,0,0,1-.749-.457l-.121-.235a.217.217,0,0,0-.41.1v.9a.614.614,0,0,0,.614.613Z" transform="translate(170.968 4366.424)" fill="#156089"/>
      <path id="パス_2867" data-name="パス 2867" d="M262.726,156.168a.68.68,0,0,0-.871-.079.707.707,0,0,0-.348.656,5.68,5.68,0,0,1-4.848,0,.705.705,0,0,0-.348-.656.679.679,0,0,0-.871.079l-.614.765c-.2.239-.05.7.368.955a.784.784,0,0,0,.91.029,6.982,6.982,0,0,0,5.958,0,.785.785,0,0,0,.911-.029c.418-.259.569-.716.368-.955Z" transform="translate(180.296 4351.441)" fill="#156089"/>
      <path id="パス_2868" data-name="パス 2868" d="M241.047,93.833a5.351,5.351,0,0,0-1.934.359.737.737,0,1,0,.532,1.374,3.893,3.893,0,1,1-1.787,1.4.737.737,0,0,0-1.207-.848,5.348,5.348,0,0,0-.92,2.347h-1.948a5.375,5.375,0,0,0-7.254-4.271.737.737,0,1,0,.532,1.374,3.892,3.892,0,1,1-1.787,1.4.737.737,0,0,0-1.207-.848,5.369,5.369,0,1,0,9.717,3.817h1.945a5.367,5.367,0,0,0,5.32,4.63h0a5.364,5.364,0,1,0,0-10.729Z" transform="translate(204.623 4399.208)" fill="#156089"/>
      <path id="パス_2869" data-name="パス 2869" d="M150.516,263.938a1,1,0,0,0-1.09.911c-.04.449-.059.9-.059,1.342a19.6,19.6,0,0,0,1,5.947,31.546,31.546,0,0,0,3.322,6.986c.352.56.681,1.049.967,1.458V305.8a1.005,1.005,0,0,0,2.01,0V282.316a1,1,0,0,0,.58-1.619h0c-.008-.009-.233-.285-.589-.772a1,1,0,0,0-.575-.815,33.653,33.653,0,0,1-1.811-2.979,27.535,27.535,0,0,1-2-4.647,17.573,17.573,0,0,1-.892-5.294q0-.584.051-1.164A1,1,0,0,0,150.516,263.938Z" transform="translate(261.298 4268.443)" fill="#156089"/>
      <path id="パス_2870" data-name="パス 2870" d="M368.77,278.056c-.317.505-.615.949-.875,1.323a1,1,0,0,0-1.774.64v24.646a1.005,1.005,0,0,0,2.01,0V282.236a1,1,0,0,0,.335-.261h0a32.769,32.769,0,0,0,3.158-4.824,29.635,29.635,0,0,0,2.17-5.014,19.6,19.6,0,0,0,1-5.947q0-.668-.059-1.341a1.005,1.005,0,0,0-2,.177q.051.581.051,1.164a17.605,17.605,0,0,1-.905,5.334A29.55,29.55,0,0,1,368.77,278.056Z" transform="translate(94.669 4268.444)" fill="#156089"/>
      <path id="パス_2871" data-name="パス 2871" d="M123.77,34.342c-1.051-3.336-1.892-5.66-1.9-5.669a1,1,0,0,0-.873-.659,1,1,0,0,0-.028-.372,1,1,0,0,0-1.235-.7l-1.877.512-2.4-5.307-.007-.015a4.746,4.746,0,0,0-.252-.43c-.17-.263-.385-.57-.635-.922-.749-1.052-1.813-2.513-2.677-4.018a3.792,3.792,0,0,0-3.292-1.9c-.05,0-.1,0-.146,0h0l-6.075.229a3.586,3.586,0,0,0-3.445,3.338L98.7,21.88c-.005.075-.008.149-.008.22a3.165,3.165,0,0,0,1.944,2.915c-.007.092-.012.184-.012.274a3.046,3.046,0,0,0,.319,1.386,2.922,2.922,0,0,0,.632.831,3.663,3.663,0,0,0,1.385.777,5.728,5.728,0,0,0,1.727.246q.348,0,.713-.034l.025,0,2.45-.356h0l.053,0a.394.394,0,0,1,.237.08l.884,1.639-1.158.316.292.984.045.152c.221.751,1.222,4.17,2.164,7.746.471,1.787.928,3.614,1.264,5.158.168.771.306,1.471.4,2.053.037.227.067.436.089.622-.111-.1-.25-.241-.421-.418l-2.228-2.3a10.61,10.61,0,0,0-15.158-.081l-1.1,1.114a3.842,3.842,0,0,1-2.729,1.14,3.8,3.8,0,0,1-1.453-.288c-.548-.226-1.2-.549-1.906-.919-1.065-.553-2.268-1.209-3.535-1.8-.435-.2-.877-.394-1.325-.573v-8.22a6.606,6.606,0,0,0,1.1-10.969C85.658,12.144,75.907,1.259,67.673,2.049c-11.71-7.342-21.082,7.187-24.4,10.1C38.8,16.092,40.469,22.2,42.36,24.3a6.61,6.61,0,0,0,1.855,10.239v8.816c-.405.189-.8.384-1.194.58-.81.409-1.582.824-2.292,1.193s-1.358.692-1.906.919a3.8,3.8,0,0,1-1.453.288,3.84,3.84,0,0,1-2.729-1.14l-1.1-1.114a10.609,10.609,0,0,0-15.158.082l-2.228,2.3c-.158.163-.288.3-.394.394l-.027.024c.053-.441.148-1.005.275-1.647.479-2.436,1.4-5.973,2.205-8.882.4-1.456.772-2.757,1.042-3.694.135-.469.245-.846.321-1.106l.088-.3.031-.1.292-.984-1.158-.316.884-1.639a.394.394,0,0,1,.237-.08l.053,0h0l2.45.356.025,0q.365.033.713.034a5.876,5.876,0,0,0,1.55-.194,3.6,3.6,0,0,0,1.805-1.08,2.871,2.871,0,0,0,.529-.9,3.129,3.129,0,0,0,.18-1.062c0-.091,0-.182-.012-.274A3.165,3.165,0,0,0,29.188,22.1c0-.071,0-.143-.007-.216h0l-.235-3.458A3.586,3.586,0,0,0,25.5,15.087l-6.075-.229h0c-.048,0-.1,0-.146,0a3.791,3.791,0,0,0-3.292,1.9c-.658,1.145-1.433,2.269-2.1,3.2-.331.467-.634.886-.883,1.244-.125.179-.236.343-.333.494a4.748,4.748,0,0,0-.252.43l-.008.015-2.4,5.307-1.877-.512a1,1,0,0,0-1.235.7.994.994,0,0,0-.028.372,1,1,0,0,0-.873.659c0,.012-1.5,4.139-2.994,9.3C2.265,40.546,1.515,43.382.95,46.1A38.717,38.717,0,0,0,0,53.553c0,.408.014.8.045,1.178A8.154,8.154,0,0,0,.776,57.54,8.89,8.89,0,0,0,3.335,60.7a16.4,16.4,0,0,0,3.614,2.122,33.129,33.129,0,0,0,7.327,2.049A104.058,104.058,0,0,0,26.448,66.18c1.8.1,3.372.157,4.558.193.593.018,1.09.031,1.467.043l.471.015c.123,0,.215.009.25.012a1,1,0,1,0,.151-2h0c-.119-.009-.265-.014-.47-.021-.76-.025-2.264-.057-4.222-.141-2.934-.126-6.873-.369-10.728-.876-1.927-.253-3.833-.572-5.575-.972a25.625,25.625,0,0,1-4.582-1.442A12.492,12.492,0,0,1,3.782,58.4a6.33,6.33,0,0,1-1.184-1.7,6.144,6.144,0,0,1-.549-2.124c-.026-.313-.038-.652-.038-1.014a36.9,36.9,0,0,1,.908-7.046c.825-3.966,2.072-8.265,3.111-11.563.52-1.649.988-3.049,1.325-4.036.169-.493.305-.883.4-1.149l.108-.3.028-.077.009-.025a1,1,0,0,0,.058-.386l9.52,2.6c-.374,1.287-1.059,3.681-1.747,6.255-.509,1.906-1.019,3.909-1.4,5.639-.193.866-.354,1.663-.47,2.353-.058.345-.1.664-.136.955a7.337,7.337,0,0,0-.052.8,3.269,3.269,0,0,0,.018.356,2.058,2.058,0,0,0,.049.281,1.533,1.533,0,0,0,.082.241,1.231,1.231,0,0,0,.317.438,1.129,1.129,0,0,0,.681.278h0c.082,0,.164.007.247.007a3.091,3.091,0,0,0,.806-.1,2.575,2.575,0,0,0,.546-.216,3.279,3.279,0,0,0,.648-.466c.187-.168.354-.342.533-.526l2.228-2.3A8.6,8.6,0,0,1,32.109,45.5l1.1,1.114a5.837,5.837,0,0,0,6.38,1.3c.65-.269,1.339-.615,2.066-.993,1.089-.566,2.263-1.2,3.453-1.757a16.3,16.3,0,0,1,3.514-1.24,1,1,0,0,0,.634-1.543,13.157,13.157,0,0,1,1.271-.363A18.9,18.9,0,0,0,53.945,44.8a17.455,17.455,0,0,0,9.309,2.822,16.808,16.808,0,0,0,6.419-1.314,18.891,18.891,0,0,0,6.305-4.3,12.293,12.293,0,0,1,2.482.855,1,1,0,0,0,.8,1.052h0a13.379,13.379,0,0,1,2.255.7l.093.056a.463.463,0,0,0,.2.064c.718.3,1.44.639,2.146,1,.781.395,1.545.8,2.271,1.182s1.416.724,2.066.993a5.837,5.837,0,0,0,6.38-1.3l1.1-1.114a8.6,8.6,0,0,1,12.283.066l2.228,2.3c.159.164.309.319.472.47a4.018,4.018,0,0,0,.4.327,2.646,2.646,0,0,0,.762.382,3.016,3.016,0,0,0,.9.126c.082,0,.164,0,.247-.007h0a1.129,1.129,0,0,0,.436-.114,1.147,1.147,0,0,0,.3-.214,1.238,1.238,0,0,0,.266-.395,1.721,1.721,0,0,0,.121-.461,3.162,3.162,0,0,0,.024-.41,7.4,7.4,0,0,0-.052-.8c-.061-.545-.17-1.191-.313-1.919-.5-2.543-1.432-6.094-2.239-9.028-.487-1.77-.93-3.311-1.2-4.255l9.52-2.6a1,1,0,0,0,.058.386L120,29.4c.17.473,1.647,4.619,3.076,9.607.715,2.493,1.417,5.2,1.938,7.748a36.111,36.111,0,0,1,.857,6.8c0,.362-.013.7-.038,1.014a6.146,6.146,0,0,1-.549,2.124,6.883,6.883,0,0,1-2,2.444,14.43,14.43,0,0,1-3.172,1.853,31.269,31.269,0,0,1-6.866,1.907,102.152,102.152,0,0,1-11.927,1.281c-1.774.1-3.331.155-4.508.191-.589.018-1.082.031-1.463.042l-.487.015c-.135,0-.237.009-.327.016a1,1,0,1,0,.151,2h0c.049,0,.192-.01.385-.017.736-.024,2.265-.057,4.242-.142,2.969-.128,6.958-.373,10.9-.891,1.974-.259,3.937-.587,5.763-1.005a27.582,27.582,0,0,0,4.95-1.565,14.428,14.428,0,0,0,4.619-3.04,8.351,8.351,0,0,0,1.553-2.242,8.153,8.153,0,0,0,.731-2.809c.031-.376.045-.769.045-1.178a38.7,38.7,0,0,0-.95-7.454C126.084,42.025,124.822,37.679,123.77,34.342ZM14.079,22.941c.023-.046.075-.135.148-.248.136-.212.342-.506.587-.851.739-1.04,1.843-2.55,2.773-4.168A1.947,1.947,0,0,1,19.28,16.7l.073,0h0l6.075.229A1.743,1.743,0,0,1,27.1,18.55l.235,3.458c0,.03,0,.061,0,.092a1.324,1.324,0,0,1-1.323,1.32H26.01A1.323,1.323,0,0,1,24.7,22.237l-.144-1.359a.922.922,0,0,0-1.833.194h0l.144,1.359a3.158,3.158,0,0,0,2.678,2.793c0,.022,0,.046,0,.067a1.344,1.344,0,0,1-.136.619,1.212,1.212,0,0,1-.265.347,1.973,1.973,0,0,1-.747.407,4.033,4.033,0,0,1-1.212.167c-.172,0-.352-.008-.541-.025l-2.4-.349h0a2.1,2.1,0,0,0-1.858.663l-.07.077-1.185,2.2-5.319-1.451Zm68.446,9.075a4.73,4.73,0,0,1-1.3.913c.168-2.284.276-4.461.276-6.288,0-.213,0-.417-.008-.616a.9.9,0,0,0,.023-.191V24.6a4.733,4.733,0,0,1,1.675,1.6,4.7,4.7,0,0,1-.666,5.812ZM42.605,28.692a4.666,4.666,0,0,1,.712-2.488,4.727,4.727,0,0,1,1.763-1.649v.286c-.048.535-.074,1.133-.074,1.8,0,1.827.108,4,.276,6.288a4.731,4.731,0,0,1-1.3-.913A4.677,4.677,0,0,1,42.605,28.692Zm28.925,14.49a15.54,15.54,0,0,1-8.277,2.52,14.882,14.882,0,0,1-5.683-1.168,16.866,16.866,0,0,1-6.833-5.209,13.86,13.86,0,0,1-2.009-3.563,11.643,11.643,0,0,1-.464-1.559l.643-10.536c4.352-4.044,9.625-12.81,11.807-16.6A89.028,89.028,0,0,0,77.663,24.69l.58,9.5a12.116,12.116,0,0,1-1,2.8A16.028,16.028,0,0,1,71.531,43.182Zm38.028-15.987-.07-.077a2.1,2.1,0,0,0-1.552-.685,2.06,2.06,0,0,0-.306.023h0l-2.4.349c-.188.017-.369.025-.541.025a4.187,4.187,0,0,1-1.1-.133,1.907,1.907,0,0,1-.965-.55,1.161,1.161,0,0,1-.217-.37,1.427,1.427,0,0,1-.079-.486c0-.021,0-.045,0-.067a3.157,3.157,0,0,0,2.678-2.793l.144-1.359a.922.922,0,0,0-1.833-.193h0l-.144,1.359a1.323,1.323,0,0,1-1.307,1.183h-.009a1.324,1.324,0,0,1-1.323-1.32c0-.031,0-.061,0-.089v0l.235-3.458a1.743,1.743,0,0,1,1.675-1.623l6.075-.229h0l.073,0a1.947,1.947,0,0,1,1.693.977c.709,1.234,1.517,2.4,2.19,3.351.336.474.639.893.874,1.231.117.169.218.317.3.438s.125.2.148.248l2.258,5-5.319,1.451Z" transform="translate(376.124 4471.342)" fill="#156089"/>
      <path id="パス_2872" data-name="パス 2872" d="M426.82,94.615v0h0Z" transform="translate(48.007 4398.609)" fill="#231815"/>
    </g>
  </g>
</svg>
