<svg id="parts" xmlns="http://www.w3.org/2000/svg" width="182.319" height="231.48" viewBox="0 0 182.319 231.48">
  <path id="パス_3023" data-name="パス 3023" d="M209.417,423.077l9.788-22.1a11.8,11.8,0,0,0,.577-7.948l-8.037-28.816-39.109-35.741L141.3,364.216,129.158,385.5a15.557,15.557,0,0,0-1.628,11.29l9.154,38.727s-12.055,1.308-13.848,12.892v1.944a2.371,2.371,0,0,0,2.371,2.37h28.766a2.371,2.371,0,0,0,2.36-2.136l1.51-15.07-2.8-35.655a7.678,7.678,0,0,1,2.22-6.026l14.47-14.507a7.531,7.531,0,0,1,10.995.356l14.8,16.905-5.686,26.49L193.1,435.6a1.969,1.969,0,0,0,1.96,1.772H218.95a1.969,1.969,0,0,0,1.97-1.968v-1.615C219.429,424.164,209.417,423.077,209.417,423.077Z" transform="translate(-79.777 -223.454)" fill="#4287c6"/>
  <path id="パス_3024" data-name="パス 3024" d="M212.79,127.331h-1.806c-20.364,0-30,4.584-30,4.584v79.916H218l7.231,6.59,17.555-6.59V131.915S233.154,127.331,212.79,127.331Z" transform="translate(-119.001 -86.747)" fill="#fff"/>
  <path id="パス_3025" data-name="パス 3025" d="M105.144,132.656c-20.648,4.379-19.928,20.838-20.575,41.3l-3.4,19.827L66.326,217.745l11.912,10.407,18.1-25.406,2.848,25.16a3.871,3.871,0,0,0,3.775,3.446h13.531a8.644,8.644,0,0,0,8.757-9.654l-5.533-58.831" transform="translate(-41.207 -90.36)" fill="#4287c6"/>
  <path id="パス_3026" data-name="パス 3026" d="M377.947,196.763,375.9,192.9a58.434,58.434,0,0,1-5.642-16.309c-3.193-16.461-11.526-28.483-22.974-33.616l-10.972,25.139a38.989,38.989,0,0,0-3.234,16.9l1.46,43.688a10.842,10.842,0,0,0,10.573,9.654h13.531a3.088,3.088,0,0,0,3.128-3.431l-3.039-32.31c3.616,7.488,14.7,22.275,18.652,22.608h11.567Z" transform="translate(-222.181 -97.361)" fill="#4287c6"/>
  <path id="パス_3027" data-name="パス 3027" d="M337.476,618.6l1.254,13.844a1.969,1.969,0,0,0,1.96,1.774h23.892a1.969,1.969,0,0,0,1.97-1.968v-1.615c-1.49-9.622-11.5-12.035-11.5-12.035H337.476Z" transform="translate(-228.978 -419.72)" fill="#6c859b"/>
  <path id="パス_3028" data-name="パス 3028" d="M24.77,404.21l-11.2,3.152a7.634,7.634,0,0,0-4.034,2.762l-3.1,4.133a6.768,6.768,0,0,0-.958,6.35l2.1,5.861a4.029,4.029,0,0,0,7.235.726l3.113-5.137,8.8-2.114-1.463,5.97a2.667,2.667,0,0,0,4.975,1.829l3.344-6.661,3.1-8.677Z" transform="translate(0.144 -272.626)" fill="#20ab9a"/>
  <path id="パス_3029" data-name="パス 3029" d="M198.963,521.013l-3.848,4.258-1.715-4.258h-6.335l2.143-4.213-1.143-6.09-1-4.377,5.948-5.709.767,2.474,2.667,2.664,4.975-5.138,2.265,5.329v1.83a25.734,25.734,0,0,0-4.425,5.165C197.4,516.419,198.963,521.013,198.963,521.013Z" transform="translate(-126.924 -339.673)" fill="#20ab9a"/>
  <path id="パス_3030" data-name="パス 3030" d="M459.176,350.329l.726-1.432-.559-.243-.71,1.4a3.707,3.707,0,0,1-6.616-3.346l.513-1.013-1.063-.462-.209.413c-.921,1.818-4.061,4.325-5.881,3.4s-1.656-4.933-.735-6.75l.013-.025-1.065-.463a3.706,3.706,0,0,1-6.6-3.38l7.788-15.369a7.13,7.13,0,0,1,7.784-.6l12.013,6.075c5.1,2.676,8.47,4.8,10.351,7.206a3.037,3.037,0,0,1-.274,1.781l-8.865,16.149a3.706,3.706,0,0,1-6.615-3.345Z" transform="translate(-292.641 -216.565)" fill="#20ab9a"/>
  <path id="パス_3031" data-name="パス 3031" d="M210.587,37.36h0l-.782-2.6c-3.522-11.707-19.111-19.213-32.081-15.319s-21.833,18.742-18.311,30.449l.794,2.637a9.188,9.188,0,0,0,5.688,17.429c5.3,9.576,18.97,15.188,30.551,11.711s19.881-15.679,19.027-26.585l.41-.123a9.19,9.19,0,1,0-5.3-17.6Z" transform="translate(-101.209 -10.857)" fill="#20ab9a"/>
  <path id="パス_3032" data-name="パス 3032" d="M268.449,187.689c.48,1.6-.455,1.483-.475,2.277s.718,2.385-.421,2.176-1.563-3.714-1.563-3.714Z" transform="translate(-180.474 -127.347)" fill="#fff"/>
  <path id="パス_3033" data-name="パス 3033" d="M278.7,106.4a5.035,5.035,0,1,1-5.034-5.029A5.032,5.032,0,0,1,278.7,106.4Z" transform="translate(-182.267 -68.779)" fill="#fff"/>
  <path id="パス_3034" data-name="パス 3034" d="M187.065,300.3v-4.31l2.3-4.684c1.5-.027,4.627,2.757,4.627,2.757l-.769,3.343,1.919,2.894.233,2.955-3.932,3.226-4.379-1.713,3.013-2.326Z" transform="translate(-126.924 -197.652)" fill="#156089"/>
  <path id="パス_3035" data-name="パス 3035" d="M337.545,310.281l2.9,1.487v3.3l3.938,1.063-.175,3.226-3.243.79v2.977l-3.418,1.226Z" transform="translate(-229.024 -210.526)" fill="#156089"/>
  <path id="パス_3036" data-name="パス 3036" d="M425.733,201.6l-3.323,3.48,1.77,3.5-1.77,4.725.135,1.926,3.661,1.926,1.526,2.451h3.87L425.733,201.6" transform="translate(-286.605 -136.784)" fill="#156089"/>
  <path id="パス_3037" data-name="パス 3037" d="M157.841,656.443l-1.51,16.667a2.37,2.37,0,0,1-2.36,2.136H125.206a2.37,2.37,0,0,1-2.372-2.369v-1.944c1.794-11.585,13.848-14.49,13.848-14.49Z" transform="translate(-83.343 -445.397)" fill="#156089"/>
  <path id="パス_3038" data-name="パス 3038" d="M206.727,436.641l8.037,28.816a10.175,10.175,0,0,1-.5,6.851l-10.691,24.136,2.22.241.069-.639-.074.639h0l.069-.639-.074.639a11.111,11.111,0,0,1,1.478.31,13.468,13.468,0,0,1,4.965,2.495,10.04,10.04,0,0,1,2.259,2.615,10.787,10.787,0,0,1,1.369,3.918l1.613-.249h-1.632v1.615a.337.337,0,0,1-.338.337H191.612a.333.333,0,0,1-.227-.087.329.329,0,0,1-.109-.216l-1.229-12.266,5.8-27.04L180.509,450.6a9.164,9.164,0,0,0-13.38-.434l-14.47,14.507a9.311,9.311,0,0,0-2.72,6.575c0,.24.009.485.029.733v0l2.791,35.509-1.495,14.925v0a.739.739,0,0,1-.736.666H121.762a.739.739,0,0,1-.739-.738v-1.945H119.39l1.613.249a12.874,12.874,0,0,1,2.589-6.142,13.142,13.142,0,0,1,3.078-2.8,17.077,17.077,0,0,1,4.657-2.12c.647-.186,1.186-.3,1.556-.371.185-.034.327-.056.418-.069l.1-.013.019,0h0l-.1-.926.1.926h0l-.1-.926.1.926,1.837-.2L125.673,468.4a13.926,13.926,0,0,1,1.457-10.108l12.142-21.281a1.632,1.632,0,0,0-2.836-1.615l-12.142,21.281a17.185,17.185,0,0,0-1.8,12.472l9.154,38.727,1.589-.375-.176-1.621a16.006,16.006,0,0,0-2.15.429,19.879,19.879,0,0,0-7.38,3.647,15.714,15.714,0,0,0-3.6,4.1,16.559,16.559,0,0,0-2.159,6.084l-.019.123v2.07a4,4,0,0,0,4,4h28.766a4,4,0,0,0,3.984-3.606v0l1.524-15.214-2.813-35.8v0c-.013-.155-.018-.312-.018-.471a6.052,6.052,0,0,1,1.768-4.273l14.47-14.507a5.861,5.861,0,0,1,4.173-1.732,5.872,5.872,0,0,1,4.437,2.011l14.264,16.289-5.568,25.941,1.28,12.774a3.6,3.6,0,0,0,3.584,3.24H215.5a3.6,3.6,0,0,0,3.6-3.6v-1.74l-.019-.124a13.694,13.694,0,0,0-2.757-6.493,13.909,13.909,0,0,0-3.251-2.968,17.138,17.138,0,0,0-4.692-2.142,14.365,14.365,0,0,0-2.24-.478l-.176,1.621,1.492.66,9.787-22.1a13.431,13.431,0,0,0,.657-9.046l-8.037-28.816a1.632,1.632,0,0,0-3.145.874Z" transform="translate(-79.899 -294.858)" fill="#156089"/>
  <path id="パス_3039" data-name="パス 3039" d="M337.476,618.6l1.254,13.844a1.969,1.969,0,0,0,1.96,1.774h23.892a1.969,1.969,0,0,0,1.97-1.968v-1.615c-1.49-9.622-11.5-12.035-11.5-12.035H337.476Z" transform="translate(-228.978 -419.72)" fill="#156089"/>
  <path id="パス_3040" data-name="パス 3040" d="M289.248,394.8l-1.079-11.468a1.632,1.632,0,0,0-3.25.3L286,395.1a1.632,1.632,0,0,0,3.25-.3" transform="translate(-193.313 -259.088)" fill="#156089"/>
  <path id="パス_3041" data-name="パス 3041" d="M281.162,298.06a1.913,1.913,0,0,1-1.938,2.137,2.4,2.4,0,0,1-2.341-2.137,1.914,1.914,0,0,1,1.939-2.138A2.4,2.4,0,0,1,281.162,298.06Z" transform="translate(-187.859 -200.783)" fill="#156089"/>
  <path id="パス_3042" data-name="パス 3042" d="M172.036,218.188l6.029,60.489v-.01q.036.387.036.763a7.07,7.07,0,0,1-2.037,5.057,7.147,7.147,0,0,1-5.13,2.053H157.4a2,2,0,0,1-.754-.151,2.329,2.329,0,0,1-.957-.733,2.11,2.11,0,0,1-.439-1.086l-5.425-57.685a1.632,1.632,0,0,0-3.25.305L152,284.876a5.3,5.3,0,0,0,.573,1.938,5.591,5.591,0,0,0,1.968,2.144,5.344,5.344,0,0,0,2.86.843h13.531a10.249,10.249,0,0,0,10.431-10.371q0-.528-.05-1.066l0-.028-6.027-60.471a1.632,1.632,0,0,0-3.248.323Z" transform="translate(-99.447 -146.825)" fill="#156089"/>
  <path id="パス_3043" data-name="パス 3043" d="M342.338,138.88l-10.972,25.139a40.618,40.618,0,0,0-3.392,16.248q0,.677.023,1.36v0l1.462,43.738,0,.048a11.9,11.9,0,0,0,1.288,4.354,12.734,12.734,0,0,0,4.476,4.875,12.017,12.017,0,0,0,6.434,1.9h13.531a4.779,4.779,0,0,0,3.4-1.381,4.726,4.726,0,0,0,1.379-3.362c0-.158-.008-.313-.021-.466l0-.041-5.424-57.667a1.632,1.632,0,0,0-3.25.305l5.427,57.7v-.007c.006.063.008.121.008.174a1.46,1.46,0,0,1-.421,1.055,1.507,1.507,0,0,1-1.089.427H341.661a8.54,8.54,0,0,1-3.219-.639,9.464,9.464,0,0,1-3.9-2.982,8.839,8.839,0,0,1-1.827-4.556l-1.625.153,1.631-.054-1.46-43.688v0q-.022-.622-.021-1.246a37.362,37.362,0,0,1,3.12-14.945l10.972-25.139a1.632,1.632,0,0,0-2.992-1.3Z" transform="translate(-222.53 -93.566)" fill="#156089"/>
  <path id="パス_3044" data-name="パス 3044" d="M247.686,385.116H261.9l7.339,8.085,5.353-3.2a1.631,1.631,0,1,0-1.676-2.8l-3.056,1.827-6.513-7.175H247.686a1.63,1.63,0,1,0,0,3.26Z" transform="translate(-166.948 -259.089)" fill="#156089"/>
  <path id="パス_3045" data-name="パス 3045" d="M100.339,127.619a29.879,29.879,0,0,0-7.179,2.438,21.748,21.748,0,0,0-8.5,7.408,28.039,28.039,0,0,0-3.485,7.526,60.939,60.939,0,0,0-2.2,13.293c-.344,4.726-.424,9.692-.583,14.712l1.631.051-1.6-.307-3.265,17L59.744,214.621l14.311,12.5L93.2,200.25a1.631,1.631,0,0,0-2.659-1.89L73.487,222.3l-9.512-8.309,14.276-23.039,3.4-17.719,0-.129c.162-5.133.244-10.138.592-14.8a65.862,65.862,0,0,1,1.366-9.8,31.451,31.451,0,0,1,2.081-6.24,19.206,19.206,0,0,1,5.553-7.166,23.282,23.282,0,0,1,9.766-4.285,1.63,1.63,0,1,0-.678-3.19Z" transform="translate(-40.536 -86.565)" fill="#156089"/>
  <path id="パス_3046" data-name="パス 3046" d="M342.789,130.811a38.683,38.683,0,0,1,12.1,4.579,36.87,36.87,0,0,1,12.692,12.736,55.256,55.256,0,0,1,6.789,18.33,60.087,60.087,0,0,0,5.8,16.763l2.051,3.864a1.632,1.632,0,0,0,2.884-1.527l-2.051-3.864a56.813,56.813,0,0,1-5.482-15.856c-1.85-9.534-5.424-18.07-11.043-24.756a38.938,38.938,0,0,0-9.976-8.494,41.96,41.96,0,0,0-13.115-4.97,1.631,1.631,0,1,0-.653,3.2Z" transform="translate(-231.696 -86.565)" fill="#156089"/>
  <path id="パス_3047" data-name="パス 3047" d="M465.362,360.58l-4.8,9.465a2.715,2.715,0,0,1-1.032,1.107,2.8,2.8,0,0,1-1.433.4,2.726,2.726,0,0,1-2.337-1.325,2.789,2.789,0,0,1-.4-1.431,2.694,2.694,0,0,1,.294-1.227h0l4.8-9.465a1.371,1.371,0,0,0-2.447-1.237l-4.8,9.464h0a5.438,5.438,0,0,0-.591,2.467,5.527,5.527,0,0,0,.788,2.84,5.469,5.469,0,0,0,4.689,2.656,5.543,5.543,0,0,0,2.843-.786,5.457,5.457,0,0,0,2.069-2.219l4.8-9.465a1.371,1.371,0,0,0-2.447-1.237Z" transform="translate(-307.105 -241.621)" fill="#156089"/>
  <path id="パス_3048" data-name="パス 3048" d="M452.475,349.634a8.665,8.665,0,0,0,2.632,2.7,5.643,5.643,0,0,0,3,.884,5.9,5.9,0,0,0,3.288-1.045,7.1,7.1,0,0,0,2.223-2.431l.013-.024,6.976-13.766a7.718,7.718,0,0,0-3.406-10.379l-19.221-9.72a7.731,7.731,0,0,0-10.39,3.4l-1.126,2.221-5.85,11.544-.012.025a7.1,7.1,0,0,0-.651,2.956,6.281,6.281,0,0,0,.375,2.166,5.449,5.449,0,0,0,2.2,2.74,7.493,7.493,0,0,0,4.093,1.061c.218,0,.44-.006.666-.019a1.37,1.37,0,1,0-.154-2.735c-.179.01-.35.015-.512.015a5.639,5.639,0,0,1-1.962-.308,3.215,3.215,0,0,1-.915-.51,2.676,2.676,0,0,1-.788-1.051,3.48,3.48,0,0,1-.261-1.359,4.375,4.375,0,0,1,.4-1.808l-1.245-.574,1.223.619,5.84-11.524,1.126-2.221a4.954,4.954,0,0,1,1.873-2.017,5.028,5.028,0,0,1,2.584-.718,4.967,4.967,0,0,1,2.248.539l19.221,9.72a4.956,4.956,0,0,1,2.019,1.871,5.009,5.009,0,0,1,.718,2.581,4.951,4.951,0,0,1-.539,2.246l-6.965,13.745,1.224.619-1.2-.663a4.377,4.377,0,0,1-1.356,1.485,3.158,3.158,0,0,1-1.755.577,2.885,2.885,0,0,1-1.547-.47,5.966,5.966,0,0,1-1.781-1.869,1.371,1.371,0,0,0-2.3,1.493Z" transform="translate(-291.72 -213.743)" fill="#156089"/>
  <path id="パス_3049" data-name="パス 3049" d="M480.879,368.427l-4.8,9.465a5.442,5.442,0,0,0-.59,2.465,5.528,5.528,0,0,0,.787,2.84,5.469,5.469,0,0,0,4.69,2.656,5.543,5.543,0,0,0,2.843-.786,5.461,5.461,0,0,0,2.069-2.218l4.8-9.465a1.371,1.371,0,0,0-2.447-1.237l-4.8,9.464a2.715,2.715,0,0,1-1.032,1.106,2.8,2.8,0,0,1-1.433.4,2.728,2.728,0,0,1-2.337-1.325,2.789,2.789,0,0,1-.4-1.432,2.706,2.706,0,0,1,.294-1.228l4.8-9.465a1.371,1.371,0,0,0-2.447-1.238Z" transform="translate(-322.622 -249.468)" fill="#156089"/>
  <path id="パス_3050" data-name="パス 3050" d="M31.7,408.411,28.63,417l-3.3,6.571a1.018,1.018,0,0,1-.388.421,1.05,1.05,0,0,1-.54.15,1.038,1.038,0,0,1-.888-.508,1.035,1.035,0,0,1-.145-.527,1,1,0,0,1,.029-.241l2.1-8.573-12.062,2.9-3.464,5.719a2.357,2.357,0,0,1-.9.872,2.392,2.392,0,0,1-1.137.282,2.458,2.458,0,0,1-1.358-.4,2.326,2.326,0,0,1-.907-1.181l-2.1-5.861a5.135,5.135,0,0,1,.727-4.821l3.1-4.133a6,6,0,0,1,3.171-2.171l11.2-3.152a1.63,1.63,0,1,0-.885-3.138l-11.2,3.152a9.258,9.258,0,0,0-4.9,3.353l-3.1,4.132a8.39,8.39,0,0,0-1.19,7.879l2.1,5.86a5.6,5.6,0,0,0,2.169,2.794,5.723,5.723,0,0,0,3.169.952,5.6,5.6,0,0,0,4.831-2.726l2.76-4.555,5.53-1.329-.826,3.371v-.005A4.3,4.3,0,0,0,24.4,427.4a4.3,4.3,0,0,0,3.846-2.37l3.388-6.749,3.136-8.772a1.632,1.632,0,0,0-3.074-1.1Z" transform="translate(0 -270.815)" fill="#156089"/>
  <path id="パス_3051" data-name="パス 3051" d="M251.131,212.124c2.034,4.465,3.741,7.978,5.148,11.241L253.705,246.7l3.543,6.845a1.834,1.834,0,0,0,3.144.194c1.491-2.187,3.454-5.062,3.77-5.52.521-.753.541-23.722.541-23.722l9.152-22.345a28.541,28.541,0,0,1-4.729,4.479c-1.578,1.035-5.267,9.018-7.119,13.2a1.18,1.18,0,0,1-2.169-.034l-3.558-8.551-5.148.878" transform="translate(-170.392 -137.163)" fill="#156089"/>
  <path id="パス_3052" data-name="パス 3052" d="M408.4,325.969a54.443,54.443,0,0,0,2.773,4.931c1.114,1.788,2.39,3.682,3.737,5.549a1.5,1.5,0,0,0,2.429-1.749c-1.31-1.815-2.551-3.658-3.625-5.381a51.675,51.675,0,0,1-2.619-4.65,1.5,1.5,0,0,0-2.7,1.3Z" transform="translate(-277.001 -219.715)" fill="#156089"/>
  <path id="パス_3053" data-name="パス 3053" d="M194.247,515.684l-1.018-.918-2.377,2.63-1.241-3.082h-5.026l1.342-2.638-1.233-6.573-.834-3.648,3.786-3.634.11.354.1.324,3.892,3.889,4.505-4.653L197.6,500.9v1.552h1.371l-.918-1.017c-.018.016-.84.757-1.831,1.8-.5.524-1.035,1.124-1.54,1.756a13.514,13.514,0,0,0-1.344,1.977,9.945,9.945,0,0,0-1.076,4.707,15.259,15.259,0,0,0,.337,3.111,12.6,12.6,0,0,0,.35,1.335l1.3-.442-1.018-.918,1.018.918,1.3-.441-.4.136.4-.134v0l-.4.136.4-.134a12.586,12.586,0,0,1-.542-3.567,7.246,7.246,0,0,1,.75-3.413,10.9,10.9,0,0,1,1.071-1.562,28.21,28.21,0,0,1,2.038-2.249c.3-.3.562-.551.744-.723.091-.086.163-.153.212-.2l.054-.049.013-.012,0,0,.453-.408v-2.718l-3.183-7.488-5.444,5.623-1.442-1.44-1.324-4.27-8.11,7.784,1.167,5.106,1.052,5.606-2.945,5.788h7.643l2.188,5.434,5.859-6.484-.259-.761Z" transform="translate(-122.208 -334.345)" fill="#156089"/>
  <path id="パス_3054" data-name="パス 3054" d="M211.168,19.573a28.543,28.543,0,0,0-7.6-11.758,29.43,29.43,0,0,0-11.62-6.637A28.817,28.817,0,0,0,177.825.626a39.685,39.685,0,0,0-4.783,1.366,28.668,28.668,0,0,0-6.413,3.191,29.029,29.029,0,0,0-12.8,21.83,29.976,29.976,0,0,0,1.3,11.025l3.065,10.185c.217.722.431,1.445.652,2.166A1.439,1.439,0,0,0,159.8,51.4a1.466,1.466,0,0,0,1.738-.849c.649-1.179,1.434-2.281,2.113-3.443a17.769,17.769,0,0,0,1.975-4.525,9.906,9.906,0,0,0-.133-5.4,15.769,15.769,0,0,0-2.709-5.257c-.107-.135-.031-.192.05-.331.056-.1.114-.192.176-.285a3.238,3.238,0,0,1,.331-.428,3.406,3.406,0,0,1,.881-.639c1.44-.783,2.952-1.422,4.381-2.228,4.121-2.323,7.49-5.881,10.4-9.559q.259-.328.514-.66c.063-.082.166-.287.252-.33s.275.14.378.212q.686.478,1.408.9a17.386,17.386,0,0,0,3.159,1.459,2.918,2.918,0,0,0,2.508-.166,2.848,2.848,0,0,0,1.363-2.019c.14-.925.23-1.86.344-2.788l.2-1.587a1.574,1.574,0,0,1,.542-1.186c.875-.657,1.81.127,2.568.585,1.024.618,2.033,1.264,3.014,1.948a26.16,26.16,0,0,1,4.959,4.272,10.192,10.192,0,0,1,1.5,2.221,3.547,3.547,0,0,1,.147,1.275,15.3,15.3,0,0,0,.19,1.525,11.4,11.4,0,0,0,2.3,5.462c2.079,2.482,5.107,3.72,7.971,5.041a4.523,4.523,0,0,0,1.722.687,1.434,1.434,0,0,0,1.393-1.334,2.274,2.274,0,0,0-.149-.778l-.321-1.065-3.129-10.4C211.62,21.009,211.409,20.286,211.168,19.573Z" transform="translate(-104.315 0)" fill="#156089"/>
  <path id="パス_3055" data-name="パス 3055" d="M230.314,122.551a17.217,17.217,0,0,1,.711,4.973,24.36,24.36,0,0,1-5.1,14.272,25.576,25.576,0,0,1-12.881,9.265,23.538,23.538,0,0,1-6.771.971,27.382,27.382,0,0,1-14.63-4.334,23.221,23.221,0,0,1-5.466-4.845,17.818,17.818,0,0,1-3.273-6.069,1.558,1.558,0,0,0-2.984.9,20.924,20.924,0,0,0,3.835,7.131,27.561,27.561,0,0,0,9.927,7.543,30.394,30.394,0,0,0,12.592,2.79,26.661,26.661,0,0,0,7.668-1.1,28.678,28.678,0,0,0,14.479-10.382,27.443,27.443,0,0,0,5.719-16.136,20.343,20.343,0,0,0-.843-5.869,1.558,1.558,0,0,0-2.984.9Z" transform="translate(-122.032 -81.79)" fill="#156089"/>
  <path id="パス_3056" data-name="パス 3056" d="M160.727,141.924a7.633,7.633,0,1,1-4.4-14.62l-.9-2.981a10.746,10.746,0,1,0,6.192,20.58l-.9-2.98Z" transform="translate(-100.261 -84.354)" fill="#156089"/>
  <path id="パス_3057" data-name="パス 3057" d="M332,97.642a10.732,10.732,0,0,0,7.205-13.382h0a10.75,10.75,0,0,0-13.4-7.2l.9,2.98a7.64,7.64,0,0,1,9.516,5.113h0a7.632,7.632,0,0,1-5.118,9.508l.9,2.98Z" transform="translate(-221.062 -51.976)" fill="#156089"/>
  <path id="パス_3058" data-name="パス 3058" d="M262.735,154.583a.745.745,0,1,0-.429-1.426l-2.086.626a1.367,1.367,0,0,1-1.378-.361l-.3-.309a.352.352,0,0,0-.592.345l.42,1.395a1,1,0,0,0,1.241.667Z" transform="translate(-175.01 -103.812)" fill="#156089"/>
  <path id="パス_3059" data-name="パス 3059" d="M271.435,176.837c-.679-1.017-2.141-2.64-4.259-2s-2.442,2.8-2.448,4.018a.65.65,0,0,0,.839.626l2.757-.828,2.757-.827A.65.65,0,0,0,271.435,176.837Z" transform="translate(-179.618 -118.527)" fill="#156089"/>
  <path id="パス_3060" data-name="パス 3060" d="M272.607,77.9l-3.039.912a1.313,1.313,0,1,0,.757,2.515l3.039-.912a1.314,1.314,0,1,0-.757-2.516Z" transform="translate(-182.266 -52.818)" fill="#156089"/>
  <path id="パス_3061" data-name="パス 3061" d="M212.587,95.921l-3.039.912a1.313,1.313,0,1,0,.757,2.515l3.039-.912a1.314,1.314,0,1,0-.757-2.516Z" transform="translate(-141.543 -65.045)" fill="#156089"/>
  <path id="パス_3062" data-name="パス 3062" d="M276.805,104.505h-.9a4.134,4.134,0,1,1-1.211-2.922,4.111,4.111,0,0,1,1.211,2.922h1.8a5.933,5.933,0,1,0-5.932,5.926,5.93,5.93,0,0,0,5.932-5.926Z" transform="translate(-180.371 -66.886)" fill="#156089"/>
  <ellipse id="楕円形_122" data-name="楕円形 122" cx="5.034" cy="5.029" rx="5.034" ry="5.029" transform="translate(68.219 39.146)" fill="#156089"/>
  <path id="パス_3063" data-name="パス 3063" d="M214.583,178.679a1.2,1.2,0,1,1-1.2-1.2A1.2,1.2,0,0,1,214.583,178.679Z" transform="translate(-143.97 -120.423)" fill="#156089"/>
  <path id="パス_3064" data-name="パス 3064" d="M231.828,190.165a.5.5,0,1,1-.5-.5A.5.5,0,0,1,231.828,190.165Z" transform="translate(-156.622 -128.69)" fill="#156089"/>
  <path id="パス_3065" data-name="パス 3065" d="M229.879,171.716a1.819,1.819,0,1,1-1.819-1.817A1.818,1.818,0,0,1,229.879,171.716Z" transform="translate(-153.505 -115.276)" fill="#156089"/>
  <ellipse id="楕円形_123" data-name="楕円形 123" cx="2.255" cy="2.252" rx="2.255" ry="2.252" transform="translate(94.18 47.652)" fill="#156089"/>
  <ellipse id="楕円形_124" data-name="楕円形 124" cx="0.91" cy="0.909" rx="0.91" ry="0.909" transform="translate(98.689 54.623)" fill="#156089"/>
  <ellipse id="楕円形_125" data-name="楕円形 125" cx="1.971" cy="1.969" rx="1.971" ry="1.969" transform="translate(102.312 45.966)" fill="#156089"/>
  <path id="パス_3066" data-name="パス 3066" d="M323.68,167.851a.934.934,0,1,1-.934-.933A.934.934,0,0,1,323.68,167.851Z" transform="translate(-218.349 -113.254)" fill="#156089"/>
</svg>
