<svg xmlns="http://www.w3.org/2000/svg" width="280" height="200" viewBox="0 0 280 200">
  <g id="グループ_2641" data-name="グループ 2641" transform="translate(-834 -779)">
    <g id="j104_8_8" transform="translate(921 701.645)">
      <path id="パス_2430" data-name="パス 2430" d="M106.908,409.012c0,19.237-16.751,23.424-16.751,23.424l0,7.423H12.427l.108-5.383a47.66,47.66,0,0,1-7.651-25.464c0-8.539,4.012-23.528,7.651-28.96,0,0,1.344-2.368,2.884-4.879.712-1.16,1.464-2.352,2.144-3.356a14,14,0,0,1,1.816-2.32,25.8,25.8,0,0,1,5.944-3.835,17.627,17.627,0,0,1,6.975-1.812l19.959-15.226,20.91,15.226c2.392,0,6.707,2.188,11.471,5.947C94.761,377.772,106.908,392.83,106.908,409.012Z" transform="translate(-0.482 -182.948)" fill="#2ba7c8"/>
      <path id="パス_2431" data-name="パス 2431" d="M106.558,368.8s-8.079,1.76-8.323,2.551c-.113.365,5.853,4.076,10.6,10.388A104.26,104.26,0,0,1,118.847,399.2s2.227,1.735,3.813,1.559,4.738-4.289,4.738-4.289l21.584-29.676-14.7-1.874L122.66,354.661Z" transform="translate(-74.101 -188.475)" fill="#fff"/>
      <path id="パス_2432" data-name="パス 2432" d="M318.229,554.229s8.35,11.431,10.437,11.123,6.985-8.087,2.354-11.123S318.229,554.229,318.229,554.229Z" transform="translate(-240.051 -337.998)" fill="#ffd7c5"/>
      <path id="パス_2433" data-name="パス 2433" d="M128.262,417.131c4.424-.469,12.773-4.643,12.773-4.643a4.018,4.018,0,0,1,0,5.5c-2.467,3.036-4.744,6.452-3.985,8.159s2.511,7.612,2.511,7.612l-11.62,9.52s-17.269-8.4-17.269-10.112,1.914-9.877,1.914-9.877-7.087-3.8-8.865-6.162,1.477-6.207,2.739-7.169,1.745,1.577,7.438,4.234S128.262,417.131,128.262,417.131Z" transform="translate(-77.849 -230.033)" fill="#ffd7c5"/>
      <path id="パス_2434" data-name="パス 2434" d="M109.419,162.031h0v-9.826c0-13.08-13.646-25.568-28.124-25.568s-28.124,12.488-28.124,25.568v9.869a9.831,9.831,0,0,0,.455,19.609c2.479,11.444,14.742,21.4,27.668,21.4s25.182-9.949,27.666-21.388h.457a9.832,9.832,0,1,0,0-19.664Z" transform="translate(-33.378 -16.47)" fill="#ffd7c5"/>
      <path id="パス_2435" data-name="パス 2435" d="M22.632,168.162a18.874,18.874,0,0,1-1.249-6.632,1.665,1.665,0,1,0-3.33,0,20.889,20.889,0,0,0,.132,2.261,8.127,8.127,0,0,1-4.441-12.947,10.593,10.593,0,0,0,1.944.375v8.1c3.948-1.48,5.543-5.712,6.171-9.464,1.512-.851,5.038-2.23,6.71-3.624C42.186,134.883,47.841,123.263,55.384,129c-.593,5.4,8.311,14.075,14.626,18.117.617.4,3.692,1.947,4.2,2.4.586,3.833,2.149,8.276,6.218,9.8v-9.956a8.212,8.212,0,0,1,2.015,2.194,8.154,8.154,0,0,1-4.94,12.236,20.868,20.868,0,0,0,.128-2.26,1.665,1.665,0,1,0-3.33,0,19.635,19.635,0,0,1-2.182,8.768,27.837,27.837,0,0,1-9.911,10.755,26.948,26.948,0,0,1-14.365,4.379,25.81,25.81,0,0,1-9.864-2.028,29.278,29.278,0,0,1-11.859-9.051A24.119,24.119,0,0,1,22.632,168.162Zm26.3,43.908-.009.009.009-.009Zm6.14-5.1c-1.417,1.153-2.849,2.324-3.965,3.245-.553.456-1.026.849-1.386,1.153-.343-.158-.788-.382-1.307-.658-2.1-1.118-5.3-3.022-8.041-4.756-1.37-.867-2.63-1.694-3.578-2.355-.473-.33-.869-.619-1.15-.838-.088-.069-.16-.128-.222-.18a4.177,4.177,0,0,1,.054-.56,16.415,16.415,0,0,1,.358-1.616c.242-.922.552-1.951.811-2.936.129-.494.246-.978.334-1.447a7.683,7.683,0,0,0,.151-1.4,3.737,3.737,0,0,0-.073-.767,2.57,2.57,0,0,0-.36-.889,5.783,5.783,0,0,0-1.325-1.376,20.087,20.087,0,0,0-2.858-1.723c-.754-.4-1.518-.79-2.227-1.2a10.635,10.635,0,0,1-2.585-1.924,3.607,3.607,0,0,1-.65-.98,2.621,2.621,0,0,1-.215-1.06,3.931,3.931,0,0,1,.2-1.182,6.651,6.651,0,0,1,.326-.822c.212-.019.413-.031.591-.031a1.735,1.735,0,0,0,1.272-.557q1.189.922,2.464,1.739a30.266,30.266,0,0,0,16.157,4.9,29.135,29.135,0,0,0,11.14-2.282,32.314,32.314,0,0,0,3.293-1.6,4.755,4.755,0,0,1,.084.864,5.136,5.136,0,0,1-.7,2.519,9.259,9.259,0,0,1-1.724,2.155,7.812,7.812,0,0,0-1.9,8.549l1.676,4.234C58.663,204.054,56.882,205.5,55.068,206.975ZM61,197.358a4.447,4.447,0,0,1-.182-1.257,4.5,4.5,0,0,1,1.407-3.266,12.54,12.54,0,0,0,2.34-2.95,8.466,8.466,0,0,0,1.122-4.138,8.275,8.275,0,0,0-.426-2.6c-.013-.038-.033-.071-.048-.108a32.846,32.846,0,0,0,2.982-2.364,17.351,17.351,0,0,0,.9,5.344ZM102.2,209.484a59.746,59.746,0,0,0-9.219-15.79,77.529,77.529,0,0,0-9.371-9.631c-.388-.332-.772-.656-1.156-.976a11.519,11.519,0,0,0,1.172-3.727,20.061,20.061,0,0,0-3.328-13.03,11.479,11.479,0,0,0,2.1-19.657c1.632-8.455,1.516-24.86-15.915-32.747-7.112-9.366-27.946-12.7-40.181-4.343-11.207,7.655-14.875,26.128-21.142,28.88a2.084,2.084,0,0,0-1.02,2.668,17.19,17.19,0,0,0,6.519,8.311c-.076.116-.16.228-.232.348A11.5,11.5,0,0,0,18.862,167.3a24.7,24.7,0,0,0,1.724,4.491,29.521,29.521,0,0,0,5.508,7.571c-.376.06-.756.136-1.148.228a25.311,25.311,0,0,0-5.243,1.988,35.943,35.943,0,0,0-5.736,3.623,1.744,1.744,0,1,0,2.124,2.767,34.123,34.123,0,0,1,3.492-2.356,27.978,27.978,0,0,1,3.3-1.66c.24-.1.472-.192.7-.28a6.62,6.62,0,0,0-.084,1.04,5.915,5.915,0,0,0,.5,2.412,6.985,6.985,0,0,0,1.08,1.7,11.682,11.682,0,0,0,2.568,2.152c1.388.888,2.852,1.588,4.04,2.24a14.169,14.169,0,0,1,1.5.912,3.69,3.69,0,0,1,.608.532,4.39,4.39,0,0,1-.056.516c-.064.42-.2.976-.356,1.584-.244.916-.556,1.948-.812,2.947-.132.5-.248,1-.336,1.476a7.9,7.9,0,0,0-.148,1.428,3.783,3.783,0,0,0,.1.9,2.592,2.592,0,0,0,.476,1.02,3.837,3.837,0,0,0,.284.312c.176.168.364.324.58.5.408.324.92.7,1.528,1.116,2.12,1.464,5.38,3.512,8.279,5.215,1.448.856,2.8,1.62,3.884,2.184.548.284,1.02.516,1.432.692a5.939,5.939,0,0,0,.6.232c.1.032.2.06.328.088a2.464,2.464,0,0,0,.468.052,2.031,2.031,0,0,0,.512-.072,1.793,1.793,0,0,0,.368-.152,1.716,1.716,0,0,0,.388-.3v0c.008-.008.092-.084.2-.184.44-.376,1.38-1.16,2.52-2.1,1.716-1.4,3.9-3.179,5.648-4.6.876-.708,1.644-1.332,2.2-1.776s.88-.712.88-.712l.952-.772-1.3-3.3a1.713,1.713,0,0,0,.724-.58l7.551-10.57c2.036,3.887,5.084,7.123,8.287,7.559a1.6,1.6,0,0,0,1.448-2.536c-2.344-3.487-1.24-6,.292-8.647,1.368,1.152,2.756,2.423,4.072,3.707a68.423,68.423,0,0,1,5.46,5.971,56.247,56.247,0,0,1,8.691,14.862A37.279,37.279,0,0,1,101.5,224.01a30.751,30.751,0,0,1-3.912,15.162,14.208,14.208,0,0,1-12.963,7.691,19.963,19.963,0,0,1-7.04-1.336,17.644,17.644,0,0,1-5.424-3.184c-.732-.656-1.64-1.532-2.652-2.556-3.552-3.579-8.4-8.939-12.339-13.386-1.968-2.224-3.716-4.223-4.972-5.667-.628-.72-1.132-1.3-1.476-1.7-.176-.2-.308-.356-.4-.46l-.136-.16a1.746,1.746,0,1,0-2.648,2.276s.212.248.6.688.94,1.088,1.628,1.88l-24.618,4.407a1.705,1.705,0,0,0,.048-.476l-.372-6.323a1.745,1.745,0,0,0-3.484.2l.372,6.323a1.736,1.736,0,0,0,.28.84l-.936.168a1.743,1.743,0,1,0,.616,3.431l30.774-5.511c1.172,1.332,2.484,2.816,3.864,4.363,2.388,2.672,4.968,5.519,7.347,8.055.636.676,1.256,1.328,1.852,1.948-1.5.372-9.527,2.332-19.155,4.231-5.028.992-10.491,1.972-15.679,2.7a106.629,106.629,0,0,1-13.991,1.2,26.12,26.12,0,0,1-5.168-.412,7.738,7.738,0,0,1-1.58-.484c-.08-.036-.148-.072-.216-.108a1.726,1.726,0,0,0-.88-.812,21.086,21.086,0,0,1-4.028-7.967,40.1,40.1,0,0,1-1.32-10.746A80.356,80.356,0,0,1,6.8,206.82a75.757,75.757,0,0,1,2.9-8.315c.48-1.136.944-2.124,1.372-2.928a13.387,13.387,0,0,1,1.1-1.8,1.749,1.749,0,0,0-.32-2.448,1.148,1.148,0,0,0-.124-.084,1.74,1.74,0,0,0-2.324.4,16.71,16.71,0,0,0-1.42,2.292,51.66,51.66,0,0,0-2.66,6.143,92.6,92.6,0,0,0-3.672,13.034A76.569,76.569,0,0,0,0,228.281a43.4,43.4,0,0,0,1.448,11.69,24.4,24.4,0,0,0,4.984,9.582v6.383H9.919v-4.343a16.24,16.24,0,0,0,2.192.44,33.927,33.927,0,0,0,4.568.268,112.222,112.222,0,0,0,14.987-1.308c8.2-1.168,16.919-2.916,23.606-4.367S66.6,244.007,66.611,244a1.725,1.725,0,0,0,1.172-1c.748.74,1.436,1.4,2.048,1.944a21.184,21.184,0,0,0,6.507,3.843,23.516,23.516,0,0,0,8.283,1.568c.036,0,.072,0,.108,0v5.587h3.492v-5.915a17.363,17.363,0,0,0,5.176-1.808,18.324,18.324,0,0,0,7.227-7.335,34.208,34.208,0,0,0,4.36-16.869A40.83,40.83,0,0,0,102.2,209.484Z" transform="translate(0 0)" fill="#3e485c"/>
      <path id="パス_2436" data-name="パス 2436" d="M286.011,532.383a1.745,1.745,0,0,0,2.452.273,10.329,10.329,0,0,0,1.607-1.73,17.043,17.043,0,0,0,2.593-5.016,5.751,5.751,0,0,0,.292-1.8,5.875,5.875,0,0,0-.819-2.964,8.15,8.15,0,0,0-3.705-3.2,14,14,0,0,0-5.883-1.174,22.508,22.508,0,0,0-5.734.8,1.734,1.734,0,0,0-1.154,1.008L265.3,508.239a1.745,1.745,0,0,0-2.464,2.471l19.611,19.554a1.745,1.745,0,0,0,2.464-2.471l-6.94-6.92a18.842,18.842,0,0,1,4.581-.615,9.377,9.377,0,0,1,5.385,1.4,4.019,4.019,0,0,1,1.188,1.239,2.383,2.383,0,0,1,.346,1.209,2.259,2.259,0,0,1-.117.711,13.559,13.559,0,0,1-2.054,3.991,8.99,8.99,0,0,1-.779.9c-.092.093-.162.157-.2.193l-.039.034,0,0h0A1.744,1.744,0,0,0,286.011,532.383Z" transform="translate(-197.877 -303.94)" fill="#3e485c"/>
      <path id="パス_2438" data-name="パス 2438" d="M136.832,314.765a3.11,3.11,0,0,0,3.1-3.1h0a3.1,3.1,0,0,0-6.2,0h0A3.11,3.11,0,0,0,136.832,314.765Z" transform="translate(-100.878 -153.702)" fill="#3e485c"/>
      <path id="パス_2439" data-name="パス 2439" d="M224.506,314.765a3.11,3.11,0,0,0,3.1-3.1h0a3.1,3.1,0,0,0-6.2,0h0A3.11,3.11,0,0,0,224.506,314.765Z" transform="translate(-167.013 -153.702)" fill="#3e485c"/>
      <path id="パス_2440" data-name="パス 2440" d="M180.378,340.092h3.484a.8.8,0,1,0,0-1.593h-2.328a1.46,1.46,0,0,1-1.3-.794l-.209-.408a.377.377,0,0,0-.712.172v1.558A1.065,1.065,0,0,0,180.378,340.092Z" transform="translate(-135.262 -175.222)" fill="#3e485c"/>
      <path id="パス_2441" data-name="パス 2441" d="M222.81,273.868H226.2a1.405,1.405,0,0,0,0-2.81H222.81a1.405,1.405,0,1,0,0,2.81Z" transform="translate(-167.013 -125.411)" fill="#3e485c"/>
      <path id="パス_2442" data-name="パス 2442" d="M135.135,273.868h3.392a1.405,1.405,0,1,0,0-2.81h-3.392a1.405,1.405,0,1,0,0,2.81Z" transform="translate(-100.877 -125.411)" fill="#3e485c"/>
      <path id="パス_2443" data-name="パス 2443" d="M172.281,388.629a9.891,9.891,0,0,1,7.373,0,1.11,1.11,0,1,0,.878-2.039h0a12.1,12.1,0,0,0-9.128,0,1.11,1.11,0,1,0,.877,2.039Z" transform="translate(-128.789 -211.886)" fill="#3e485c"/>
    </g>
    <rect id="長方形_332" data-name="長方形 332" width="280" height="200" transform="translate(834 779)" fill="none"/>
  </g>
</svg>
