<svg xmlns="http://www.w3.org/2000/svg" width="236" height="198" viewBox="0 0 236 198">
  <g id="グループ_3133" data-name="グループ 3133" transform="translate(-195 -523)">
    <g id="parts" transform="translate(343.941 523)">
      <g id="グループ_2662" data-name="グループ 2662" transform="translate(0 0)">
        <path id="パス_2535" data-name="パス 2535" d="M21.979,10.806h0a9.883,9.883,0,0,0-.713-3.673,10.987,10.987,0,0,0-3.24-4.385A12.027,12.027,0,0,0,12.964.3c-.393-.087-.785-.154-1.175-.2a12.184,12.184,0,0,0-6.545.972,10.855,10.855,0,0,0-4.8,4.18,3.047,3.047,0,1,0,5.2,3.184h0A4.77,4.77,0,0,1,7.763,6.619a6.1,6.1,0,0,1,3.276-.473q.306.038.617.106a5.82,5.82,0,0,1,3.118,1.8,4.655,4.655,0,0,1,.836,1.342,3.779,3.779,0,0,1,.278,1.408,3.969,3.969,0,0,1-.03.487,3.771,3.771,0,0,1-.428,1.336,4.5,4.5,0,0,1-1.539,1.624,5.723,5.723,0,0,1-2.441.856,6.114,6.114,0,0,0-3.41,1.525,5.664,5.664,0,0,0-1.188,1.515,5.479,5.479,0,0,0-.609,1.913L6.065,21.49a3.046,3.046,0,1,0,6.045.751l.136-1.1A11.61,11.61,0,0,0,18.592,18.3a10.378,10.378,0,0,0,2.2-2.779A9.875,9.875,0,0,0,21.9,12.039,10.054,10.054,0,0,0,21.979,10.806Z" transform="translate(7.514 3.085) rotate(8)" fill="#df7c8f"/>
        <path id="パス_2537" data-name="パス 2537" d="M4.055.028a3.613,3.613,0,1,0,3.138,4.03A3.61,3.61,0,0,0,4.055.028Z" transform="translate(7.842 31.215) rotate(8)" fill="#df7c8f"/>
        <path id="パス_2536" data-name="パス 2536" d="M23.241,7.776a12.012,12.012,0,0,0-3.54-4.8h0A13.051,13.051,0,0,0,14.208.322C13.784.229,13.36.157,12.939.1A13.59,13.59,0,0,0,11.261,0,13.086,13.086,0,0,0,5.845,1.16,11.878,11.878,0,0,0,.6,5.737a4.07,4.07,0,1,0,6.94,4.254l0-.006A3.756,3.756,0,0,1,9.21,8.576a4.959,4.959,0,0,1,2.051-.432,5.43,5.43,0,0,1,.675.042h0c.173.022.347.051.523.09h0a4.8,4.8,0,0,1,2.567,1.475h0a3.632,3.632,0,0,1,.653,1.044,2.756,2.756,0,0,1,.2,1.028,2.928,2.928,0,0,1-.022.36,2.732,2.732,0,0,1-.313.976,3.479,3.479,0,0,1-1.193,1.249,4.7,4.7,0,0,1-2,.7h0a7.135,7.135,0,0,0-3.978,1.783h0a6.683,6.683,0,0,0-1.4,1.79h0a6.5,6.5,0,0,0-.723,2.273l-.178,1.432a4.07,4.07,0,1,0,8.077,1l.041-.332A12.553,12.553,0,0,0,20.3,20.089h0a11.4,11.4,0,0,0,2.412-3.054h0a10.9,10.9,0,0,0,1.23-3.845h0a11.091,11.091,0,0,0,.084-1.359v-.056l0-.017A10.916,10.916,0,0,0,23.241,7.776Zm-1.33,5.162a8.846,8.846,0,0,1-1,3.121h0a9.355,9.355,0,0,1-1.98,2.5h0a10.587,10.587,0,0,1-5.788,2.589l-.791.1-.234,1.889a2.024,2.024,0,0,1-2,1.774,2.038,2.038,0,0,1-.253-.016,2.024,2.024,0,0,1-1.773-2,2.068,2.068,0,0,1,.016-.253l.178-1.432a4.452,4.452,0,0,1,.495-1.555h0a4.633,4.633,0,0,1,.973-1.241,5.089,5.089,0,0,1,2.841-1.267h0a6.745,6.745,0,0,0,2.878-1.013,5.524,5.524,0,0,0,1.885-2h0a4.8,4.8,0,0,0,.543-1.694h0a5,5,0,0,0,.038-.612h0a4.81,4.81,0,0,0-.35-1.786h0A5.674,5.674,0,0,0,16.567,8.4,6.839,6.839,0,0,0,12.9,6.276q-.358-.079-.711-.122h0a7.463,7.463,0,0,0-.928-.058,7,7,0,0,0-2.9.615,5.789,5.789,0,0,0-2.57,2.212h0a2.01,2.01,0,0,1-.749.716,2.036,2.036,0,0,1-.977.25A2.026,2.026,0,0,1,2.3,8.84a2.042,2.042,0,0,1-.25-.978,2.009,2.009,0,0,1,.3-1.054A9.83,9.83,0,0,1,6.692,3.026a11.04,11.04,0,0,1,4.569-.977,11.573,11.573,0,0,1,1.426.089c.359.045.72.106,1.081.186A11,11,0,0,1,18.4,4.563h0A9.96,9.96,0,0,1,21.34,8.538a8.864,8.864,0,0,1,.639,3.286v.008h0a9,9,0,0,1-.069,1.1Z" transform="translate(3.753 0) rotate(8)" fill="#3e485c"/>
        <path id="パス_2538" data-name="パス 2538" d="M5.2.036h0A4.637,4.637,0,1,0,8.116,1.579,4.654,4.654,0,0,0,5.2.036Zm2,4.921A2.589,2.589,0,0,1,4.638,7.226a2.64,2.64,0,0,1-.323-.02A2.588,2.588,0,0,1,2.047,4.642a2.618,2.618,0,0,1,.02-.323h0a2.587,2.587,0,0,1,2.562-2.27,2.62,2.62,0,0,1,.323.02l.126-1.016L4.953,2.069A2.588,2.588,0,0,1,7.2,4.957Z" transform="translate(4.079 28.131) rotate(8)" fill="#3e485c"/>
      </g>
      <g id="グループ_2659" data-name="グループ 2659" transform="translate(14.992 33.263)">
        <path id="パス_2508" data-name="パス 2508" d="M17.136,8.425h0A7.7,7.7,0,0,0,16.58,5.56a8.566,8.566,0,0,0-2.526-3.419A9.377,9.377,0,0,0,10.108.233C9.8.165,9.5.113,9.191.075a9.5,9.5,0,0,0-5.1.758A8.463,8.463,0,0,0,.35,4.092,2.375,2.375,0,1,0,4.4,6.574h0A3.719,3.719,0,0,1,6.052,5.161a4.755,4.755,0,0,1,2.554-.369q.239.03.481.083a4.537,4.537,0,0,1,2.431,1.4,3.629,3.629,0,0,1,.652,1.046,2.946,2.946,0,0,1,.216,1.1,3.094,3.094,0,0,1-.023.379,2.94,2.94,0,0,1-.334,1.041,3.51,3.51,0,0,1-1.2,1.266,4.462,4.462,0,0,1-1.9.667,4.767,4.767,0,0,0-2.658,1.189,4.416,4.416,0,0,0-.926,1.182,4.272,4.272,0,0,0-.475,1.492l-.139,1.117a2.375,2.375,0,1,0,4.713.586l.106-.855a9.052,9.052,0,0,0,4.947-2.217A8.091,8.091,0,0,0,16.207,12.1a7.7,7.7,0,0,0,.869-2.716A7.839,7.839,0,0,0,17.136,8.425Z" transform="translate(10.897 3.12) rotate(24)" fill="#ffb64b"/>
        <path id="パス_2511" data-name="パス 2511" d="M3.161.022A2.817,2.817,0,1,0,5.608,3.164,2.815,2.815,0,0,0,3.161.022Z" transform="translate(5.098 24.273) rotate(24)" fill="#ffb64b"/>
        <path id="パス_2509" data-name="パス 2509" d="M18.12,6.063a9.365,9.365,0,0,0-2.76-3.739h0A10.175,10.175,0,0,0,11.077.251c-.33-.073-.661-.129-.989-.17A10.6,10.6,0,0,0,8.779,0,10.2,10.2,0,0,0,4.557.9,9.261,9.261,0,0,0,.468,4.473,3.173,3.173,0,1,0,5.879,7.79l0,0a2.928,2.928,0,0,1,1.3-1.1,3.867,3.867,0,0,1,1.6-.337,4.234,4.234,0,0,1,.526.033h0c.135.017.27.04.408.07h0a3.742,3.742,0,0,1,2,1.15h0a2.832,2.832,0,0,1,.509.814,2.148,2.148,0,0,1,.16.8,2.283,2.283,0,0,1-.017.281,2.13,2.13,0,0,1-.244.761,2.712,2.712,0,0,1-.93.974,3.668,3.668,0,0,1-1.562.545h0a5.563,5.563,0,0,0-3.1,1.39h0a5.21,5.21,0,0,0-1.093,1.4h0a5.07,5.07,0,0,0-.564,1.772l-.139,1.116a3.173,3.173,0,1,0,6.3.783l.032-.259a9.787,9.787,0,0,0,4.762-2.317h0a8.887,8.887,0,0,0,1.881-2.381h0a8.495,8.495,0,0,0,.959-3h0a8.647,8.647,0,0,0,.066-1.06V9.168A8.511,8.511,0,0,0,18.12,6.063Zm-1.037,4.025a6.9,6.9,0,0,1-.779,2.434h0a7.294,7.294,0,0,1-1.544,1.952h0a8.254,8.254,0,0,1-4.512,2.018l-.617.077-.182,1.472a1.578,1.578,0,0,1-1.562,1.383,1.589,1.589,0,0,1-.2-.012,1.578,1.578,0,0,1-1.383-1.563,1.612,1.612,0,0,1,.012-.2l.139-1.117a3.471,3.471,0,0,1,.386-1.212h0a3.612,3.612,0,0,1,.759-.967,3.967,3.967,0,0,1,2.215-.988h0a5.259,5.259,0,0,0,2.244-.79,4.307,4.307,0,0,0,1.47-1.558h0A3.74,3.74,0,0,0,13.953,9.7h0a3.9,3.9,0,0,0,.03-.477h0a3.75,3.75,0,0,0-.273-1.393h0a4.424,4.424,0,0,0-.794-1.278,5.332,5.332,0,0,0-2.859-1.655q-.279-.061-.554-.1h0a5.819,5.819,0,0,0-.724-.045,5.461,5.461,0,0,0-2.259.479,4.513,4.513,0,0,0-2,1.724h0a1.567,1.567,0,0,1-.584.558,1.587,1.587,0,0,1-.762.2,1.579,1.579,0,0,1-1.38-.818A1.592,1.592,0,0,1,1.6,6.13a1.567,1.567,0,0,1,.233-.822A7.664,7.664,0,0,1,5.217,2.359,8.607,8.607,0,0,1,8.78,1.6a9.023,9.023,0,0,1,1.112.069c.28.035.561.083.843.145a8.579,8.579,0,0,1,3.611,1.746h0a7.765,7.765,0,0,1,2.293,3.1,6.91,6.91,0,0,1,.5,2.562v.006h0a7.021,7.021,0,0,1-.053.861Z" transform="translate(8.741 0) rotate(24)" fill="#3e485c"/>
        <path id="パス_2510" data-name="パス 2510" d="M4.058.028h0a3.615,3.615,0,1,0,2.27,1.2A3.629,3.629,0,0,0,4.058.028ZM5.614,3.864a2.018,2.018,0,0,1-2,1.769,2.059,2.059,0,0,1-.252-.015,2.018,2.018,0,0,1-1.768-2,2.041,2.041,0,0,1,.016-.252h0a2.017,2.017,0,0,1,2-1.769,2.043,2.043,0,0,1,.252.016L3.96.82l-.1.793A2.018,2.018,0,0,1,5.614,3.864Z" transform="translate(2.941 21.152) rotate(24)" fill="#3e485c"/>
      </g>
    </g>
    <g id="parts-2" data-name="parts" transform="translate(195 552.5)">
      <g id="グループ_2637" data-name="グループ 2637" transform="translate(49.729 16.389)">
        <g id="j163_15_0">
          <path id="パス_2444" data-name="パス 2444" d="M155.35,303.722l19.514,2.712c11.918,0,10.865-13.567,3.606-18l-23.3-11.6H103.926l-23.3,11.6c-7.259,4.436-8.313,18,3.606,18l19.514-2.712H155.35Z" transform="translate(-58.535 -223)" fill="#2ba7c8"/>
          <path id="パス_2445" data-name="パス 2445" d="M276.188,293.8v37.449H223.873V291.245c0-.3,1.646-1.923,4.706-3.724a41.417,41.417,0,0,1,20.948-5.491,53.988,53.988,0,0,1,22.241,4.443,24.624,24.624,0,0,1,2.907,1.519L276,293.082Z" transform="translate(-178.836 -227.205)" fill="#2ba7c8"/>
          <path id="パス_2446" data-name="パス 2446" d="M268.217,272.943a7.38,7.38,0,0,1,0,2.026c-.177.575,14.989,20.255,14.989,20.255s1.619,1.262,2.773,1.133,2.7-2.1,2.7-2.1l15.955-21.516-7.829-2.942a20.746,20.746,0,0,0-21.879-.359Z" transform="translate(-217.038 -215.649)" fill="#fff"/>
          <path id="パス_2447" data-name="パス 2447" d="M253.94,235.791l-2.008-2.346a3.681,3.681,0,0,0-2.794-1.32h-6.071a3.627,3.627,0,0,0-2.335.866l-8.4,7.054,3.62,5.776c6.032,1.332,12.547-7.136,12.547-7.136l4.225.061a1.585,1.585,0,0,0,1.308-.682A1.868,1.868,0,0,0,253.94,235.791Z" transform="translate(-187.999 -187.832)" fill="#ffd7c5"/>
          <path id="パス_2448" data-name="パス 2448" d="M385.8,232.991a3.628,3.628,0,0,0-2.336-.866H377.39a3.681,3.681,0,0,0-2.794,1.32l-2.008,2.346a1.868,1.868,0,0,0-.092,2.272,1.586,1.586,0,0,0,1.308.682l4.225-.061s6.515,8.467,12.548,7.136l3.62-5.776Z" transform="translate(-301.143 -187.832)" fill="#ffd7c5"/>
          <path id="パス_2449" data-name="パス 2449" d="M273.824,113.406h0v-1.952c0-8.795-9.174-17.191-18.908-17.191s-18.908,8.4-18.908,17.191v1.981a6.61,6.61,0,0,0,.306,13.185c1.666,7.695,9.911,14.389,18.6,14.389s16.93-6.69,18.6-14.381h.308a6.611,6.611,0,0,0,0-13.222Z" transform="translate(-184.21 -75.225)" fill="#ffd7c5"/>
          <path id="パス_2450" data-name="パス 2450" d="M512.672,174.986a1.886,1.886,0,0,1,1.427,3.491c-.964.394-3.935-.406-3.942-.426S511.708,175.38,512.672,174.986Z" transform="translate(-412.811 -141.483)" fill="#fff"/>
          <path id="パス_2451" data-name="パス 2451" d="M595.04,195.708a1.886,1.886,0,0,1-1.59,3.42c-.944-.439-2.377-3.162-2.368-3.18S594.1,195.269,595.04,195.708Z" transform="translate(-478.296 -158.243)" fill="#fff"/>
          <path id="パス_2452" data-name="パス 2452" d="M650.208,254.281a1.886,1.886,0,0,1-3.48,1.453c-.4-.961.377-3.938.4-3.946S649.807,253.32,650.208,254.281Z" transform="translate(-523.231 -203.744)" fill="#fff"/>
          <path id="パス_2453" data-name="パス 2453" d="M679.774,327.021a1.886,1.886,0,1,1-3.737.5c-.139-1.032,1.381-3.707,1.4-3.709S679.635,325.989,679.774,327.021Z" transform="translate(-547.033 -262.027)" fill="#fff"/>
          <path id="パス_2454" data-name="パス 2454" d="M695.276,407.041a1.885,1.885,0,1,1-3.759.3c-.082-1.038,1.585-3.624,1.606-3.626S695.194,406,695.276,407.041Z" transform="translate(-559.564 -326.678)" fill="#fff"/>
          <path id="パス_2455" data-name="パス 2455" d="M698.932,490.568a1.886,1.886,0,0,1-3.768-.164c.045-1.04,2.014-3.4,2.035-3.4S698.977,489.527,698.932,490.568Z" transform="translate(-562.516 -394.075)" fill="#fff"/>
          <path id="パス_2456" data-name="パス 2456" d="M185.637,174.986a1.886,1.886,0,1,0-1.427,3.491c.964.394,3.934-.406,3.942-.426S186.6,175.38,185.637,174.986Z" transform="translate(-148.111 -141.483)" fill="#fff"/>
          <path id="パス_2457" data-name="パス 2457" d="M103.548,195.708a1.886,1.886,0,0,0,1.59,3.42c.945-.439,2.377-3.162,2.368-3.18S104.492,195.269,103.548,195.708Z" transform="translate(-82.907 -158.243)" fill="#fff"/>
          <path id="パス_2458" data-name="パス 2458" d="M53.927,254.281a1.886,1.886,0,0,0,3.48,1.453c.4-.961-.377-3.938-.4-3.946S54.329,253.32,53.927,254.281Z" transform="translate(-43.519 -203.744)" fill="#fff"/>
          <path id="パス_2459" data-name="パス 2459" d="M24.265,327.021a1.886,1.886,0,0,0,3.737.5c.139-1.032-1.381-3.707-1.4-3.709S24.4,325.989,24.265,327.021Z" transform="translate(-19.622 -262.027)" fill="#fff"/>
          <path id="パス_2460" data-name="パス 2460" d="M8.743,407.041a1.886,1.886,0,1,0,3.76.3c.082-1.038-1.585-3.624-1.606-3.626S8.825,406,8.743,407.041Z" transform="translate(-7.07 -326.678)" fill="#fff"/>
          <path id="パス_2461" data-name="パス 2461" d="M5.078,490.568a1.886,1.886,0,1,0,3.768-.164c-.045-1.04-2.014-3.4-2.035-3.4S5.033,489.527,5.078,490.568Z" transform="translate(-4.109 -394.075)" fill="#fff"/>
          <path id="パス_2462" data-name="パス 2462" d="M353.48,501.087a1.538,1.538,0,1,0,1.538,1.538A1.537,1.537,0,0,0,353.48,501.087Z" transform="translate(-284.787 -405.473)" fill="#231815"/>
          <path id="パス_2463" data-name="パス 2463" d="M351.3,273.562h2.342a.536.536,0,0,0,0-1.072h-1.565a.982.982,0,0,1-.874-.534l-.141-.274a.253.253,0,0,0-.479.116v1.048A.716.716,0,0,0,351.3,273.562Z" transform="translate(-283.687 -219.73)" fill="#231815"/>
          <path id="パス_2464" data-name="パス 2464" d="M344.93,294.794l-2.5-1.464a2.431,2.431,0,0,0-2.494,0l-2.5,1.464a1.978,1.978,0,0,0-.914,1.718v.411a1.81,1.81,0,0,0,1.666,1.925h5.992a1.81,1.81,0,0,0,1.666-1.925v-.411A1.977,1.977,0,0,0,344.93,294.794Z" transform="translate(-272.307 -237.08)" fill="#3e485c"/>
          <path id="パス_2465" data-name="パス 2465" d="M315.945,196.586a3.816,3.816,0,0,1-2.907,1.225.906.906,0,0,0-.942.791,1.087,1.087,0,0,0,1.113,1.056,5.17,5.17,0,0,0,3.939-1.66,1.087,1.087,0,0,0,.021-1.534A.905.905,0,0,0,315.945,196.586Z" transform="translate(-252.541 -158.826)" fill="#3e485c"/>
          <path id="パス_2466" data-name="パス 2466" d="M491.657,282.085Z" transform="translate(-397.842 -228.259)" fill="#231815"/>
          <path id="パス_2467" data-name="パス 2467" d="M105.382,57.01a5.116,5.116,0,0,1-.672-.045L101.9,52.445l7.656-6.43a2.508,2.508,0,0,1,1.616-.6h6.071a2.56,2.56,0,0,1,1.943.929l2.008,2.346a.72.72,0,0,1,.164.467.73.73,0,0,1-.131.425.47.47,0,0,1-.377.214h-.013l-4.779-.069-.342.445h0a27,27,0,0,1-3.4,3.516,17.776,17.776,0,0,1-3.358,2.328A7.963,7.963,0,0,1,105.382,57.01Zm35.5,1.611-.714.964a1.116,1.116,0,0,0-1.9-1.029h0a19.828,19.828,0,0,1-6.1,4.422,16.951,16.951,0,0,1-15.024-.141,19.788,19.788,0,0,1-6.233-4.755,1.107,1.107,0,0,0-.477-.317c.39-.218.77-.449,1.137-.692a25.855,25.855,0,0,0,4.237-3.611c.587-.613,1.041-1.137,1.331-1.484l3.69.053h.029a2.709,2.709,0,0,0,2.2-1.149h0a2.988,2.988,0,0,0-.152-3.651l-2.008-2.346a4.8,4.8,0,0,0-3.645-1.712h-6.071a4.749,4.749,0,0,0-3.055,1.128l-5.52,4.636a5.52,5.52,0,0,1-1.1-1.3,5.494,5.494,0,0,1,.818-6.724,5.532,5.532,0,0,1,1.28-.953v1.5a1.013,1.013,0,0,0,1.733.713c.386-.393.934-.849,1.537-1.377,6.509-3.086,10.875-10.1,11.264-14,.635,5.684,2.346,9.661,10.811,12.439a5.166,5.166,0,0,0,3.883,1.607,1.213,1.213,0,0,0,.816-.342c2.985.663,6.551,1.24,10.825,1.743a1.006,1.006,0,0,0,1.643-.78V40.017a5.542,5.542,0,0,1,1.177.892A5.491,5.491,0,0,1,147,48.938L141.48,44.3a4.748,4.748,0,0,0-3.055-1.128h-6.071a4.8,4.8,0,0,0-3.645,1.712L126.7,47.231a2.988,2.988,0,0,0-.151,3.653l.335.467h.086a2.676,2.676,0,0,0,1.775.682h.031l3.689-.053a29.942,29.942,0,0,0,3.3,3.358,20.09,20.09,0,0,0,3.811,2.649,13.2,13.2,0,0,0,1.337.6c-.01.012-.022.022-.032.035Zm3.336-1.611a6.466,6.466,0,0,1-1.787-.269,11.7,11.7,0,0,1-3.158-1.533,23.665,23.665,0,0,1-3.858-3.294c-.486-.507-.873-.949-1.138-1.261-.132-.156-.233-.28-.3-.363L133.9,50.2l-.017-.022,0,0h0l-.342-.445-4.779.069h-.013a.467.467,0,0,1-.376-.214h0a.729.729,0,0,1-.131-.425.719.719,0,0,1,.164-.467l2.008-2.346a2.561,2.561,0,0,1,1.944-.929h6.071a2.507,2.507,0,0,1,1.615.6l7.656,6.43-2.809,4.519A5.158,5.158,0,0,1,144.215,57.01Zm6.924,26.708a1.034,1.034,0,0,0-.183-.016,1.174,1.174,0,0,0-1.172,1.175v18.162h2.345V84.877A1.17,1.17,0,0,0,151.139,83.718ZM178.688,68.2a12.364,12.364,0,0,0-4.383-4.733l-.043-.024-23.344-11.62a1.117,1.117,0,0,0-.748-.086s0,0,0-.005a1.078,1.078,0,0,0-.054-.094,1.044,1.044,0,0,0-.059-.094.937.937,0,0,0-.07-.078c-.027-.03-.054-.059-.083-.086-.008-.008-.013-.016-.022-.024l-1.148-.963a7.732,7.732,0,0,0-2.625-12.84V34.4a20.615,20.615,0,0,0-3.555-11.574,20.92,20.92,0,0,0-8.7-7.32,10.4,10.4,0,1,0-18.094.038A20.812,20.812,0,0,0,104.53,28.247a20.617,20.617,0,0,0-.936,6.15v3.117A7.736,7.736,0,0,0,99.58,48.794a7.845,7.845,0,0,0,1.285,1.6l-1.148.963c-.008.008-.013.016-.022.024-.03.027-.056.057-.083.086a.967.967,0,0,0-.07.078c-.022.03-.04.062-.059.094a1.072,1.072,0,0,0-.054.094.009.009,0,0,1,0,.005,1.118,1.118,0,0,0-.747.086L75.335,63.442l-.043.024A12.364,12.364,0,0,0,70.909,68.2a13.059,13.059,0,0,0-1.573,6.085,10.175,10.175,0,0,0,.583,3.458,8.235,8.235,0,0,0,3.3,4.173,11.35,11.35,0,0,0,6.257,1.63h.078l17.909-2.49v21.984h2.345V80.469a1.1,1.1,0,0,0,.29-.909,1.116,1.116,0,0,0-1.113-.963,1.622,1.622,0,0,0-.167-.04,1.035,1.035,0,0,0-.183-.016,1.136,1.136,0,0,0-.613.177L79.414,81.3a10.441,10.441,0,0,1-3.633-.6,6.714,6.714,0,0,1-1.9-1.078,5.968,5.968,0,0,1-1.735-2.342,7.788,7.788,0,0,1-.567-3,10.781,10.781,0,0,1,1.307-5.029,10.143,10.143,0,0,1,3.55-3.859L99.676,53.825a1.069,1.069,0,0,0,.3-.229l3.55,5.709,1.167,1.88-5.873,3.571-11.969,7.28a1.121,1.121,0,0,0,1.165,1.915l10.8-6.57,8.971-5.456-.153-.247-1.535-2.466a9.129,9.129,0,0,0,1.683-.32,10.99,10.99,0,0,0,1.218-.433,1.114,1.114,0,0,0,.21,1.095c.164.191.334.376.505.559a22.072,22.072,0,0,0,6.437,4.741,19.2,19.2,0,0,0,16.946.156,22.083,22.083,0,0,0,6.365-4.488L127.546,76.64V67.158h-6.188v9.393L109.717,60.317a1.294,1.294,0,0,0-.091-.113,1.173,1.173,0,0,0-1.866,1.4c.016.027.032.051.051.078l13.717,19.128.008.013a3.613,3.613,0,0,0,1.32,1.1,3.635,3.635,0,0,0,3.189,0,3.593,3.593,0,0,0,1.32-1.1l2.065-2.789,13.335-18.02a1.175,1.175,0,0,0,.218-.863c.167.027.336.043.508.059L141.8,61.925,151.14,67.6l10.439,6.349a1.121,1.121,0,0,0,1.164-1.915l-11.791-7.169L144.9,61.186l1.821-2.928,2.9-4.66a1.071,1.071,0,0,0,.3.229L173.166,65.4a10.141,10.141,0,0,1,3.55,3.859,10.814,10.814,0,0,1,1.307,5.029,7.9,7.9,0,0,1-.449,2.694,5.992,5.992,0,0,1-2.415,3.058,9.083,9.083,0,0,1-4.98,1.267L151.14,78.657l-.384-.054a1.12,1.12,0,0,0-.306,2.219l.691.1,18.9,2.627h.078A12.769,12.769,0,0,0,174.6,82.8a8.989,8.989,0,0,0,2.536-1.441,8.225,8.225,0,0,0,2.383-3.211,10.026,10.026,0,0,0,.742-3.867A13.073,13.073,0,0,0,178.688,68.2Z" transform="translate(-56.106)" fill="#3e485c"/>
          <path id="パス_2468" data-name="パス 2468" d="M505.285,174.539a.957.957,0,0,0,.184.181.94.94,0,0,0,.148.091,1,1,0,0,0,.093.041c.033.013.049.017.065.023.057.018.111.033.191.055.273.073.783.2,1.377.309a10.824,10.824,0,0,0,1.883.209,4.15,4.15,0,0,0,.557-.034,2.35,2.35,0,0,0,.575-.147,2.852,2.852,0,0,0,1.562-3.721h0a2.852,2.852,0,0,0-3.721-1.562h0a2.521,2.521,0,0,0-.63.389,6.394,6.394,0,0,0-.868.9,16.56,16.56,0,0,0-1.039,1.446c-.136.21-.248.392-.328.527-.04.068-.073.123-.1.169-.013.023-.024.043-.038.069s-.014.027-.028.056-.015.033-.029.07c-.007.019-.016.044-.027.086-.006.022-.012.048-.019.086a.962.962,0,0,0-.014.165v.181l.065.169A.967.967,0,0,0,505.285,174.539Zm3.646-2.764a.91.91,0,0,1,.346-.069.925.925,0,0,1,.507.153.919.919,0,0,1,.412.765.925.925,0,0,1-.153.507.907.907,0,0,1-.417.342.639.639,0,0,1-.117.023,2.377,2.377,0,0,1-.283.015,6.828,6.828,0,0,1-.893-.072c-.248-.034-.5-.078-.741-.124.2-.287.418-.589.637-.854a5.205,5.205,0,0,1,.469-.506,1.78,1.78,0,0,1,.172-.141l.05-.032.012-.006h0l-.366-.9Z" transform="translate(-408.705 -137.376)" fill="#4287c6"/>
          <path id="パス_2469" data-name="パス 2469" d="M586.06,192.156c.016.045.023.061.03.077s.02.044.028.062c.031.063.07.139.127.244a18.773,18.773,0,0,0,1.025,1.681,9.11,9.11,0,0,0,.731.937,4.341,4.341,0,0,0,.418.405,2.378,2.378,0,0,0,.517.337,2.853,2.853,0,0,0,3.791-1.385h0a2.854,2.854,0,0,0-1.385-3.79l-.408.878.408-.878a2.514,2.514,0,0,0-.713-.2,5.141,5.141,0,0,0-.7-.044,13.656,13.656,0,0,0-2.1.2c-.3.05-.568.1-.761.141-.1.02-.174.037-.236.051l-.088.022-.065.019c-.018.006-.038.012-.086.032a.957.957,0,0,0-.119.062.97.97,0,0,0-.242.209.964.964,0,0,0-.138.221l-.086.19v.209a.93.93,0,0,0,.018.187A.991.991,0,0,0,586.06,192.156Zm4.3.289a1.1,1.1,0,0,1,.128.024l.031.009.005,0a.906.906,0,0,1,.389.343.928.928,0,0,1,.141.489.92.92,0,0,1-.43.776.927.927,0,0,1-.49.141.907.907,0,0,1-.385-.086.937.937,0,0,1-.162-.129,5,5,0,0,1-.564-.665c-.188-.256-.373-.538-.54-.807a10.635,10.635,0,0,1,1.437-.124A3.256,3.256,0,0,1,590.362,192.445Z" transform="translate(-474.19 -154.137)" fill="#4287c6"/>
          <path id="パス_2470" data-name="パス 2470" d="M647,249.8l-.893.373L647,249.8a2.519,2.519,0,0,0-.394-.627,6.431,6.431,0,0,0-.9-.861,16.547,16.547,0,0,0-1.453-1.028c-.211-.134-.394-.245-.529-.324l-.169-.1-.069-.037-.055-.027c-.015-.006-.032-.014-.069-.028-.019-.007-.043-.015-.085-.027-.021-.006-.048-.012-.085-.019a.96.96,0,0,0-.164-.014h-.19l-.175.071a.959.959,0,0,0-.233.135.969.969,0,0,0-.269.331.954.954,0,0,0-.041.1c-.013.034-.017.05-.023.066-.018.058-.032.111-.053.19-.07.269-.19.772-.3,1.359a11.079,11.079,0,0,0-.2,1.866,4.312,4.312,0,0,0,.036.578,2.378,2.378,0,0,0,.154.595A2.854,2.854,0,1,0,647,249.8Zm-4.4-1.25Zm2.536,2.853a.92.92,0,0,1-.766.415.925.925,0,0,1-.5-.151.908.908,0,0,1-.342-.413.677.677,0,0,1-.025-.127,2.49,2.49,0,0,1-.016-.3,7.137,7.137,0,0,1,.069-.893c.032-.239.072-.483.115-.715.289.2.592.414.858.631a5.224,5.224,0,0,1,.51.465,1.767,1.767,0,0,1,.142.171l.033.05.006.012h0a.912.912,0,0,1,.071.353A.927.927,0,0,1,645.132,251.406Z" transform="translate(-519.127 -199.638)" fill="#4287c6"/>
          <path id="パス_2471" data-name="パス 2471" d="M642.533,274.421h0Z" transform="translate(-519.929 -222.057)" fill="#231815"/>
          <path id="パス_2472" data-name="パス 2472" d="M671.046,343.934h0Z" transform="translate(-543.001 -278.305)" fill="#231815"/>
          <path id="パス_2473" data-name="パス 2473" d="M675.952,325.037a2.852,2.852,0,0,0,.7-1.868,2.9,2.9,0,0,0-.025-.383v0a2.517,2.517,0,0,0-.219-.709,6.421,6.421,0,0,0-.654-1.067,16.59,16.59,0,0,0-1.14-1.37c-.169-.184-.317-.338-.426-.449-.055-.056-.1-.1-.137-.136L673.99,319c-.012-.01-.023-.021-.05-.043s-.031-.025-.073-.053a.976.976,0,0,0-.235-.114.955.955,0,0,0-.3-.048h-.061l-.061.008a.959.959,0,0,0-.292.085.944.944,0,0,0-.217.141.927.927,0,0,0-.114.116.9.9,0,0,0-.057.075c-.019.028-.028.043-.038.059-.036.058-.075.125-.129.222-.186.333-.519.961-.817,1.653a10.348,10.348,0,0,0-.4,1.068,5.309,5.309,0,0,0-.136.542,3.04,3.04,0,0,0-.058.564,2.006,2.006,0,0,0,.018.275,2.854,2.854,0,0,0,4.983,1.488Zm-2.158-.953a.918.918,0,0,1-.906-.795h0v-.014a1.366,1.366,0,0,1,.037-.266,5.748,5.748,0,0,1,.275-.845c.107-.269.231-.544.353-.8.228.264.465.553.666.831a5.207,5.207,0,0,1,.372.581,1.827,1.827,0,0,1,.093.2c.009.025.016.045.019.057l0,.013a.966.966,0,0,1,.008.125.919.919,0,0,1-.92.915Z" transform="translate(-542.924 -257.921)" fill="#4287c6"/>
          <path id="パス_2474" data-name="パス 2474" d="M687.357,405.181a2.849,2.849,0,0,0,1.931.754q.112,0,.226-.009h0a2.854,2.854,0,0,0,2.629-2.843c0-.072,0-.147-.008-.226h0a2.516,2.516,0,0,0-.18-.72,6.44,6.44,0,0,0-.593-1.1A16.546,16.546,0,0,0,690.3,399.6c-.159-.193-.3-.355-.4-.472-.052-.059-.094-.106-.13-.144l-.055-.057c-.011-.011-.022-.023-.049-.046a.916.916,0,0,0-.073-.059.963.963,0,0,0-.11-.071.975.975,0,0,0-.136-.062.948.948,0,0,0-.33-.058h-.034l-.031,0a.956.956,0,0,0-.3.071.969.969,0,0,0-.344.239c-.037.041-.048.056-.06.071s-.03.041-.041.057c-.04.057-.084.124-.145.222-.211.334-.59.964-.932,1.657a9.742,9.742,0,0,0-.458,1.069,4.779,4.779,0,0,0-.159.547,2.711,2.711,0,0,0-.07.583c0,.055,0,.107.006.154h0A2.848,2.848,0,0,0,687.357,405.181Zm2.747-2.449a1.806,1.806,0,0,1,.082.206c.008.025.013.045.016.058l0,.013h0c0,.022,0,.047,0,.074a.918.918,0,0,1-.845.913l-.074,0a.917.917,0,0,1-.912-.845h0v0a1.07,1.07,0,0,1,.038-.224,5.241,5.241,0,0,1,.309-.824c.128-.28.277-.569.424-.837.213.276.433.577.618.866A5.215,5.215,0,0,1,690.1,402.732Z" transform="translate(-555.457 -322.57)" fill="#4287c6"/>
          <path id="パス_2475" data-name="パス 2475" d="M695.681,485.7a6.862,6.862,0,0,0-.46-1.151,17.159,17.159,0,0,0-.869-1.522c-.132-.207-.247-.379-.333-.506-.043-.062-.081-.113-.11-.156l-.046-.062-.046-.054a.79.79,0,0,0-.07-.07.75.75,0,0,0-.11-.089,1.077,1.077,0,0,0-.145-.083.941.941,0,0,0-.368-.086l-.016,0h-.019a1.043,1.043,0,0,0-.29.046.913.913,0,0,0-.22.1,1.051,1.051,0,0,0-.121.091c-.04.035-.054.048-.065.059l-.048.051c-.046.054-.1.118-.177.21a19.093,19.093,0,0,0-1.162,1.589,8.986,8.986,0,0,0-.589,1.035,4.419,4.419,0,0,0-.215.54,2.5,2.5,0,0,0-.113.592v.016c0,.051-.005.094-.005.126a2.853,2.853,0,0,0,2.732,2.848l0,0h.121a2.848,2.848,0,0,0,2.85-2.729v-.032a.34.34,0,0,0,0-.048A2.724,2.724,0,0,0,695.681,485.7Zm-2.108,1.336a.919.919,0,0,1-.635.253h-.04a.909.909,0,0,1-.624-.282.927.927,0,0,1-.255-.632l0-.022v-.019a.936.936,0,0,1,.056-.2,5.231,5.231,0,0,1,.4-.777c.164-.269.352-.546.535-.8.172.288.344.6.489.9a5.191,5.191,0,0,1,.272.637,1.351,1.351,0,0,1,.078.325A.934.934,0,0,1,693.573,487.041Z" transform="translate(-558.406 -389.966)" fill="#4287c6"/>
          <path id="パス_2476" data-name="パス 2476" d="M179.736,175.27a2.356,2.356,0,0,0,.575.147,4.185,4.185,0,0,0,.557.034,8.72,8.72,0,0,0,1.156-.09c.577-.079,1.137-.2,1.562-.293.212-.049.39-.094.52-.128l.163-.045.071-.022c.015-.005.03-.01.065-.024a.962.962,0,0,0,.091-.042.942.942,0,0,0,.119-.074.97.97,0,0,0,.121-.1.954.954,0,0,0,.2-.289l.082-.186v-.2a.974.974,0,0,0-.066-.351c-.018-.047-.027-.063-.035-.079s-.023-.044-.032-.061c-.034-.062-.076-.135-.138-.238a18.888,18.888,0,0,0-1.1-1.631,9.1,9.1,0,0,0-.775-.9,4.311,4.311,0,0,0-.437-.385,2.374,2.374,0,0,0-.532-.313l-.366.9.366-.9a2.853,2.853,0,1,0-2.159,5.283Zm.23-2.989a.908.908,0,0,1,.343-.418.925.925,0,0,1,.507-.153.912.912,0,0,1,.346.068.948.948,0,0,1,.168.122,5,5,0,0,1,.595.638c.2.246.4.519.577.78l-.131.025a8.99,8.99,0,0,1-1.5.172,2.231,2.231,0,0,1-.3-.017.787.787,0,0,1-.082-.015l-.019-.005h0a.91.91,0,0,1-.418-.343.925.925,0,0,1-.153-.507A.915.915,0,0,1,179.966,172.282Z" transform="translate(-144.004 -137.38)" fill="#4287c6"/>
          <path id="パス_2477" data-name="パス 2477" d="M98.78,211.614h0Z" transform="translate(-79.932 -171.234)" fill="#231815"/>
          <path id="パス_2478" data-name="パス 2478" d="M98.723,195.731a2.851,2.851,0,0,0,2.717.169h0a2.508,2.508,0,0,0,.611-.419,6.41,6.41,0,0,0,.824-.938,16.526,16.526,0,0,0,.969-1.492c.126-.217.229-.4.3-.542.037-.07.067-.127.09-.173.012-.024.022-.044.034-.071s.013-.028.024-.056.013-.032.025-.068c.006-.018.013-.041.022-.08a.94.94,0,0,0,.025-.221v-.22l-.1-.2a.965.965,0,0,0-.138-.212.951.951,0,0,0-.182-.165.94.94,0,0,0-.152-.086.993.993,0,0,0-.1-.039l-.067-.02c-.056-.015-.1-.026-.177-.043-.247-.054-.7-.145-1.25-.226a12.579,12.579,0,0,0-1.758-.15,5.149,5.149,0,0,0-.705.044,2.5,2.5,0,0,0-.713.2h0a2.854,2.854,0,0,0-.311,5.007Zm1.729-3.311a10.666,10.666,0,0,1,1.438.124c-.118.189-.244.385-.375.574a7.276,7.276,0,0,1-.57.735,2.428,2.428,0,0,1-.228.224.877.877,0,0,1-.072.055l-.018.011h0a.914.914,0,0,1-.385.086.925.925,0,0,1-.489-.141.907.907,0,0,1-.344-.391h0a.9.9,0,0,1-.086-.385.926.926,0,0,1,.141-.489.907.907,0,0,1,.39-.344.886.886,0,0,1,.185-.038A3.371,3.371,0,0,1,100.452,192.419Z" transform="translate(-78.801 -154.136)" fill="#4287c6"/>
          <path id="パス_2479" data-name="パス 2479" d="M54.2,252h0a2.377,2.377,0,0,0,.154-.595,4.3,4.3,0,0,0,.035-.578,8.916,8.916,0,0,0-.086-1.147c-.076-.571-.186-1.125-.28-1.544-.047-.21-.09-.384-.123-.513-.017-.065-.031-.116-.043-.161-.006-.023-.012-.042-.021-.07s-.01-.03-.024-.066a.991.991,0,0,0-.043-.093.96.96,0,0,0-.076-.123.983.983,0,0,0-.108-.124.956.956,0,0,0-.3-.2l-.18-.076h-.2a.94.94,0,0,0-.212.023.952.952,0,0,0-.134.04c-.046.018-.062.026-.078.034l-.061.031c-.062.033-.135.075-.239.136a18.745,18.745,0,0,0-1.64,1.091,9.1,9.1,0,0,0-.908.768,4.3,4.3,0,0,0-.389.434,2.369,2.369,0,0,0-.316.53A2.854,2.854,0,1,0,54.2,252Zm-1.764-.857a.857.857,0,0,1-.016.089l-.006.02v0a.909.909,0,0,1-.343.413.925.925,0,0,1-.5.151.921.921,0,0,1-.766-.414.924.924,0,0,1-.151-.5.908.908,0,0,1,.071-.352.955.955,0,0,1,.123-.167,5,5,0,0,1,.642-.59c.248-.2.522-.393.784-.571.007.036.014.073.02.11a9.259,9.259,0,0,1,.164,1.5A2.445,2.445,0,0,1,52.431,251.145Z" transform="translate(-39.414 -199.638)" fill="#4287c6"/>
          <path id="パス_2480" data-name="パス 2480" d="M49.864,262.895h0Z" transform="translate(-40.349 -212.73)" fill="#231815"/>
          <path id="パス_2481" data-name="パス 2481" d="M24.424,321.449c-.225-.565-.491-1.111-.705-1.525-.107-.207-.2-.38-.272-.505-.035-.063-.065-.114-.09-.156-.013-.022-.024-.04-.04-.065s-.017-.027-.039-.057a.981.981,0,0,0-.063-.077.948.948,0,0,0-.1-.1.962.962,0,0,0-.135-.093.952.952,0,0,0-.35-.12l-.066-.009h-.067a.966.966,0,0,0-.249.032.974.974,0,0,0-.319.152c-.04.029-.053.041-.067.053l-.051.046c-.051.048-.112.108-.2.193a18.841,18.841,0,0,0-1.3,1.478,9.056,9.056,0,0,0-.678.977,4.292,4.292,0,0,0-.263.52,2.383,2.383,0,0,0-.169.594h0a2.854,2.854,0,0,0,5.656.764v0a2.029,2.029,0,0,0,.018-.273,3.2,3.2,0,0,0-.082-.681A7.61,7.61,0,0,0,24.424,321.449Zm-3.33,1.593.009,0-.945-.128Zm.936,1.044a.925.925,0,0,1-.125-.008.918.918,0,0,1-.8-.907.922.922,0,0,1,.009-.124.965.965,0,0,1,.076-.194,5.023,5.023,0,0,1,.47-.738c.188-.254.4-.513.608-.752.078.163.156.334.23.506a8.5,8.5,0,0,1,.324.863,3.382,3.382,0,0,1,.087.343,1.175,1.175,0,0,1,.024.2v.015h0a.918.918,0,0,1-.907.794Z" transform="translate(-15.516 -257.922)" fill="#4287c6"/>
          <path id="パス_2482" data-name="パス 2482" d="M8.846,401.3a17.035,17.035,0,0,0-.806-1.527c-.122-.207-.229-.381-.31-.507-.04-.063-.073-.114-.1-.156-.015-.022-.027-.04-.044-.064s-.019-.026-.043-.055a.981.981,0,0,0-.176-.167.968.968,0,0,0-.51-.186l-.032,0H6.792a.955.955,0,0,0-.274.039.936.936,0,0,0-.213.091.951.951,0,0,0-.122.083c-.04.032-.052.045-.066.058l-.049.049c-.049.051-.105.114-.185.2a18.769,18.769,0,0,0-1.218,1.548,9.113,9.113,0,0,0-.623,1.013,4.319,4.319,0,0,0-.234.534,2.384,2.384,0,0,0-.135.6q-.009.112-.009.227a2.854,2.854,0,0,0,2.63,2.843c.076.006.152.009.226.009a2.854,2.854,0,0,0,2.843-2.63v0c0-.05.005-.1.005-.148a2.87,2.87,0,0,0-.1-.7A7.094,7.094,0,0,0,8.846,401.3ZM6.52,404l-.074,0a.918.918,0,0,1-.845-.913c0-.022,0-.046,0-.072h0a.943.943,0,0,1,.065-.2,5.011,5.011,0,0,1,.428-.763c.173-.264.372-.534.565-.784.1.188.207.387.3.586a7.635,7.635,0,0,1,.353.828,2.849,2.849,0,0,1,.091.315.861.861,0,0,1,.023.159v0A.918.918,0,0,1,6.52,404Z" transform="translate(-2.965 -322.571)" fill="#4287c6"/>
          <path id="パス_2483" data-name="パス 2483" d="M3.71,420.753h0Z" transform="translate(-3.002 -340.466)" fill="#231815"/>
          <path id="パス_2484" data-name="パス 2484" d="M5.7,486.257v-.006a2.5,2.5,0,0,0-.153-.726A6.387,6.387,0,0,0,5,484.4a16.538,16.538,0,0,0-1.011-1.468c-.153-.2-.285-.366-.384-.484-.051-.062-.091-.11-.124-.151l-.054-.059c-.011-.011-.021-.024-.048-.048a.569.569,0,0,0-.073-.062,1.047,1.047,0,0,0-.113-.078,1.015,1.015,0,0,0-.14-.067.965.965,0,0,0-.347-.064H2.687l-.019,0a.907.907,0,0,0-.309.062.862.862,0,0,0-.226.124.762.762,0,0,0-.121.1l-.062.067c-.022.027-.03.04-.043.056-.04.054-.089.121-.156.218a19.133,19.133,0,0,0-1,1.654,9.529,9.529,0,0,0-.495,1.065,4.509,4.509,0,0,0-.175.549,2.766,2.766,0,0,0-.078.6c0,.016,0,.046,0,.081v.016a2.85,2.85,0,0,0,2.85,2.713h.121l0,0a2.848,2.848,0,0,0,2.729-2.848C5.707,486.335,5.707,486.295,5.7,486.257Zm-1.934.121a.914.914,0,0,1-.877.914h-.04a.914.914,0,0,1-.917-.877,1.064,1.064,0,0,1,.04-.2,4.862,4.862,0,0,1,.328-.809c.143-.285.307-.581.471-.852.2.282.411.592.586.885a5,5,0,0,1,.317.613,1.5,1.5,0,0,1,.075.21.22.22,0,0,1,.013.059l0,.011v.043Z" transform="translate(-0.001 -389.965)" fill="#4287c6"/>
        </g>
        <g id="グループ_2636" data-name="グループ 2636" transform="translate(12.695 65.229)">
          <path id="パス_28" data-name="パス 28" d="M70.526,488.846V446.234a6.148,6.148,0,0,1,6.148-6.148h74.505a6.148,6.148,0,0,1,6.148,6.148v42.612Z" transform="translate(-54.356 -418.28)" fill="#e4f1fa"/>
          <rect id="長方形_138" data-name="長方形 138" width="85.569" height="5.795" transform="translate(12.597 60.951)" fill="#e4f1fa"/>
          <path id="パス_33" data-name="パス 33" d="M412.958,365.742h0Z" transform="translate(-339.196 -360.286)" fill="#231815"/>
          <path id="パス_34" data-name="パス 34" d="M297.166,335.2Z" transform="translate(-244.086 -335.196)" fill="#231815"/>
          <path id="パス_36" data-name="パス 36" d="M100.636,423.318V381.945a7.387,7.387,0,0,0-7.386-7.386h-74.5a7.386,7.386,0,0,0-7.386,7.386v41.373H1.239a1.239,1.239,0,1,0,0,2.477H110.757A1.239,1.239,0,0,0,112,424.557ZM15.274,378.474a4.888,4.888,0,0,1,3.471-1.438H93.25a4.909,4.909,0,0,1,4.909,4.909v34.829H13.836V381.945A4.888,4.888,0,0,1,15.274,378.474Zm-1.438,40.778H98.159v4.067H13.836Z" transform="translate(0 -357.062)" fill="#3e485c"/>
        </g>
      </g>
      <rect id="長方形_330" data-name="長方形 330" width="236" height="168" transform="translate(0 0.5)" fill="none"/>
    </g>
  </g>
</svg>
