<svg xmlns="http://www.w3.org/2000/svg" width="66.58" height="104.125" viewBox="0 0 66.58 104.125">
  <g id="グループ_3135" data-name="グループ 3135" transform="translate(-836.525 -1379.692)">
    <g id="parts">
      <path id="パス_357" data-name="パス 357" d="M35.224,17.318v0a15.838,15.838,0,0,0-1.142-5.886A17.607,17.607,0,0,0,28.889,4.4,19.274,19.274,0,0,0,20.777.478C20.148.339,19.519.232,18.894.154A19.527,19.527,0,0,0,8.4,1.713a17.4,17.4,0,0,0-7.686,6.7,4.882,4.882,0,1,0,8.326,5.1h0a7.645,7.645,0,0,1,3.4-2.9,9.774,9.774,0,0,1,5.249-.758q.491.061.989.17a9.327,9.327,0,0,1,5,2.884,7.461,7.461,0,0,1,1.339,2.151,6.056,6.056,0,0,1,.445,2.256,6.361,6.361,0,0,1-.048.78,6.043,6.043,0,0,1-.686,2.141,7.214,7.214,0,0,1-2.467,2.6,9.172,9.172,0,0,1-3.911,1.372,9.8,9.8,0,0,0-5.464,2.444,9.077,9.077,0,0,0-1.9,2.429A8.781,8.781,0,0,0,10,32.145l-.285,2.3a4.882,4.882,0,1,0,9.689,1.2l.218-1.757A18.607,18.607,0,0,0,29.8,29.33a16.632,16.632,0,0,0,3.52-4.453A15.825,15.825,0,0,0,35.1,19.294,16.112,16.112,0,0,0,35.224,17.318Z" transform="translate(848.567 1384.636) rotate(8)" fill="#df7c8f"/>
      <path id="パス_358" data-name="パス 358" d="M6.5.045A5.79,5.79,0,1,0,11.527,6.5,5.786,5.786,0,0,0,6.5.045Z" transform="translate(849.093 1429.718) rotate(8)" fill="#df7c8f"/>
      <path id="パス_365" data-name="パス 365" d="M37.246,12.462a19.251,19.251,0,0,0-5.673-7.685h0a20.915,20.915,0,0,0-8.8-4.26c-.679-.15-1.358-.266-2.033-.35A21.78,21.78,0,0,0,18.047,0a20.972,20.972,0,0,0-8.68,1.86A19.036,19.036,0,0,0,.962,9.194a6.523,6.523,0,1,0,11.123,6.818L12.09,16a6.019,6.019,0,0,1,2.669-2.258,7.948,7.948,0,0,1,3.287-.692,8.7,8.7,0,0,1,1.081.068h0c.277.035.556.082.839.144h0a7.692,7.692,0,0,1,4.114,2.363l0,0A5.821,5.821,0,0,1,25.133,17.3a4.416,4.416,0,0,1,.328,1.648,4.693,4.693,0,0,1-.036.577,4.379,4.379,0,0,1-.5,1.565,5.575,5.575,0,0,1-1.912,2,7.539,7.539,0,0,1-3.21,1.121h0a11.434,11.434,0,0,0-6.376,2.858h0a10.71,10.71,0,0,0-2.248,2.869h0a10.422,10.422,0,0,0-1.159,3.642l-.285,2.295A6.522,6.522,0,1,0,22.677,37.49l.066-.532a20.117,20.117,0,0,0,9.789-4.763h0A18.269,18.269,0,0,0,36.4,27.3h0a17.461,17.461,0,0,0,1.971-6.162h0a17.774,17.774,0,0,0,.135-2.178v-.09l0-.027A17.5,17.5,0,0,0,37.246,12.462Zm-2.132,8.273a14.177,14.177,0,0,1-1.6,5h0a14.993,14.993,0,0,1-3.174,4.013h0A16.968,16.968,0,0,1,21.065,33.9l-1.268.158-.375,3.027a3.244,3.244,0,0,1-3.21,2.844,3.266,3.266,0,0,1-.406-.025,3.244,3.244,0,0,1-2.842-3.213,3.314,3.314,0,0,1,.025-.405l.285-2.3a7.135,7.135,0,0,1,.793-2.491h0a7.426,7.426,0,0,1,1.559-1.988,8.155,8.155,0,0,1,4.552-2.03h0a10.81,10.81,0,0,0,4.613-1.623,8.853,8.853,0,0,0,3.021-3.2h0a7.687,7.687,0,0,0,.87-2.715v0a8.021,8.021,0,0,0,.061-.981v0a7.709,7.709,0,0,0-.562-2.863h0a9.093,9.093,0,0,0-1.632-2.627,10.96,10.96,0,0,0-5.877-3.4q-.574-.126-1.139-.2h0a11.961,11.961,0,0,0-1.487-.093,11.226,11.226,0,0,0-4.643.986A9.278,9.278,0,0,0,9.286,14.3h0a3.221,3.221,0,0,1-1.2,1.147,3.263,3.263,0,0,1-1.566.4,3.246,3.246,0,0,1-2.837-1.681,3.273,3.273,0,0,1-.4-1.567,3.22,3.22,0,0,1,.478-1.689A15.754,15.754,0,0,1,10.725,4.85a17.692,17.692,0,0,1,7.323-1.566,18.547,18.547,0,0,1,2.285.142c.575.072,1.154.17,1.732.3a17.635,17.635,0,0,1,7.423,3.589h0a15.962,15.962,0,0,1,4.713,6.37,14.2,14.2,0,0,1,1.024,5.266v.015a14.431,14.431,0,0,1-.11,1.77Z" transform="translate(842.539 1379.692) rotate(8)" fill="#3e485c"/>
      <path id="パス_366" data-name="パス 366" d="M8.341.057h0A7.432,7.432,0,1,0,13.007,2.53,7.459,7.459,0,0,0,8.341.057Zm3.2,7.886A4.149,4.149,0,0,1,7.433,11.58a4.232,4.232,0,0,1-.517-.032A4.148,4.148,0,0,1,3.281,7.439a4.2,4.2,0,0,1,.032-.517h0A4.146,4.146,0,0,1,7.419,3.283a4.2,4.2,0,0,1,.518.032l.2-1.629-.2,1.629a4.148,4.148,0,0,1,3.6,4.628Z" transform="translate(843.063 1424.775) rotate(8)" fill="#3e485c"/>
    </g>
    <g id="parts-2" data-name="parts" transform="translate(1.159 8.225)">
      <path id="パス_2508" data-name="パス 2508" d="M27.463,13.5h0a12.348,12.348,0,0,0-.89-4.589,13.727,13.727,0,0,0-4.049-5.479A15.027,15.027,0,0,0,16.2.373C15.708.265,15.218.181,14.73.12A15.224,15.224,0,0,0,6.553,1.335,13.563,13.563,0,0,0,.561,6.558a3.807,3.807,0,1,0,6.491,3.978h0A5.96,5.96,0,0,1,9.7,8.271a7.62,7.62,0,0,1,4.093-.591q.383.048.771.133a7.272,7.272,0,0,1,3.9,2.248A5.817,5.817,0,0,1,19.5,11.737a4.721,4.721,0,0,1,.347,1.759,4.959,4.959,0,0,1-.038.608,4.711,4.711,0,0,1-.535,1.669A5.625,5.625,0,0,1,17.355,17.8a7.151,7.151,0,0,1-3.05,1.07,7.639,7.639,0,0,0-4.26,1.906,7.077,7.077,0,0,0-1.484,1.894A6.846,6.846,0,0,0,7.8,25.062l-.222,1.789a3.806,3.806,0,1,0,7.554.939l.17-1.37a14.507,14.507,0,0,0,7.928-3.553,12.967,12.967,0,0,0,2.744-3.472,12.338,12.338,0,0,0,1.392-4.352A12.562,12.562,0,0,0,27.463,13.5Z" transform="translate(876.857 1429.775) rotate(24)" fill="#ffb64b"/>
      <path id="パス_2511" data-name="パス 2511" d="M5.067.035A4.514,4.514,0,1,0,8.987,5.07,4.511,4.511,0,0,0,5.067.035Z" transform="translate(867.563 1463.674) rotate(24)" fill="#ffb64b"/>
      <path id="パス_2509" data-name="パス 2509" d="M29.039,9.716a15.009,15.009,0,0,0-4.423-5.992h0A16.306,16.306,0,0,0,17.752.4C17.223.286,16.693.2,16.167.13A16.98,16.98,0,0,0,14.07,0,16.35,16.35,0,0,0,7.3,1.45,14.841,14.841,0,0,0,.75,7.168a5.086,5.086,0,1,0,8.672,5.316l0-.007a4.693,4.693,0,0,1,2.081-1.761,6.2,6.2,0,0,1,2.563-.539,6.785,6.785,0,0,1,.843.053h0c.216.027.433.064.654.112h0a6,6,0,0,1,3.208,1.842l0,0a4.538,4.538,0,0,1,.816,1.3,3.443,3.443,0,0,1,.256,1.285,3.659,3.659,0,0,1-.028.45,3.414,3.414,0,0,1-.391,1.22,4.347,4.347,0,0,1-1.491,1.561,5.878,5.878,0,0,1-2.5.874h0a8.915,8.915,0,0,0-4.971,2.228h0a8.35,8.35,0,0,0-1.752,2.237h0a8.125,8.125,0,0,0-.9,2.839l-.222,1.789A5.085,5.085,0,1,0,17.68,29.229l.051-.415A15.684,15.684,0,0,0,25.363,25.1h0a14.243,14.243,0,0,0,3.014-3.815h0a13.613,13.613,0,0,0,1.537-4.8h0a13.858,13.858,0,0,0,.106-1.7v-.07l0-.021A13.64,13.64,0,0,0,29.039,9.716Zm-1.662,6.45a11.053,11.053,0,0,1-1.248,3.9h0A11.689,11.689,0,0,1,23.654,23.2h0a13.229,13.229,0,0,1-7.232,3.235l-.989.123-.292,2.36a2.529,2.529,0,0,1-2.5,2.217,2.546,2.546,0,0,1-.316-.02,2.529,2.529,0,0,1-2.216-2.5,2.584,2.584,0,0,1,.02-.316l.222-1.79a5.563,5.563,0,0,1,.618-1.942h0a5.789,5.789,0,0,1,1.216-1.55,6.358,6.358,0,0,1,3.549-1.583h0a8.428,8.428,0,0,0,3.6-1.266,6.9,6.9,0,0,0,2.355-2.5h0a5.993,5.993,0,0,0,.678-2.117h0a6.253,6.253,0,0,0,.048-.765h0a6.01,6.01,0,0,0-.438-2.232h0A7.089,7.089,0,0,0,20.7,10.5a8.545,8.545,0,0,0-4.582-2.653q-.447-.1-.888-.153h0a9.325,9.325,0,0,0-1.16-.072,8.752,8.752,0,0,0-3.62.768A7.233,7.233,0,0,0,7.24,11.149h0a2.511,2.511,0,0,1-.936.894,2.544,2.544,0,0,1-1.221.313,2.531,2.531,0,0,1-2.211-1.311,2.552,2.552,0,0,1-.312-1.222,2.511,2.511,0,0,1,.373-1.317,12.283,12.283,0,0,1,5.43-4.725,13.794,13.794,0,0,1,5.709-1.221,14.46,14.46,0,0,1,1.782.111c.448.056.9.133,1.351.232a13.749,13.749,0,0,1,5.787,2.8h0a12.444,12.444,0,0,1,3.674,4.966,11.075,11.075,0,0,1,.8,4.106v.012a11.252,11.252,0,0,1-.086,1.38Z" transform="translate(873.401 1424.775) rotate(24)" fill="#3e485c"/>
      <path id="パス_2510" data-name="パス 2510" d="M6.5.045h0A5.794,5.794,0,1,0,10.14,1.972,5.815,5.815,0,0,0,6.5.045ZM9,6.193A3.234,3.234,0,0,1,5.8,9.029,3.3,3.3,0,0,1,5.392,9,3.234,3.234,0,0,1,2.558,5.8a3.271,3.271,0,0,1,.025-.4h0a3.233,3.233,0,0,1,3.2-2.836,3.274,3.274,0,0,1,.4.025l.158-1.27-.158,1.27A3.234,3.234,0,0,1,9,6.193Z" transform="translate(864.106 1458.674) rotate(24)" fill="#3e485c"/>
    </g>
  </g>
</svg>
