<svg xmlns="http://www.w3.org/2000/svg" width="280" height="200" viewBox="0 0 280 200">
  <g id="グループ_3134" data-name="グループ 3134" transform="translate(-128 -879)">
    <g id="グループ_2637" data-name="グループ 2637" transform="translate(-11.313 103.017)">
      <g id="j163_15_0" transform="translate(198.313 795.427)">
        <path id="パス_2444" data-name="パス 2444" d="M170.292,308.735l23.152,3.217c14.14,0,12.89-16.1,4.278-21.359l-27.645-13.762H109.281L81.636,290.594c-8.613,5.263-9.862,21.359,4.278,21.359l23.152-3.217h61.226Z" transform="translate(-55.427 -212.963)" fill="#20ab9a"/>
        <path id="パス_2445" data-name="パス 2445" d="M285.942,296v44.431H223.873V292.963c0-.354,1.952-2.281,5.583-4.419a49.139,49.139,0,0,1,24.853-6.515A64.053,64.053,0,0,1,280.7,287.3a29.218,29.218,0,0,1,3.449,1.8l1.573,6.04Z" transform="translate(-170.439 -216.984)" fill="#20ab9a"/>
        <path id="パス_2446" data-name="パス 2446" d="M268.217,274.144a8.756,8.756,0,0,1,0,2.4c-.211.683,17.784,24.031,17.784,24.031s1.921,1.5,3.29,1.345,3.207-2.488,3.207-2.488l18.93-25.527-9.289-3.49a24.614,24.614,0,0,0-25.959-.426Z" transform="translate(-207.496 -206.168)" fill="#fff"/>
        <path id="パス_2447" data-name="パス 2447" d="M257.969,236.474l-2.383-2.784a4.368,4.368,0,0,0-3.315-1.567h-7.2a4.3,4.3,0,0,0-2.771,1.027l-9.966,8.369,4.3,6.852c7.157,1.58,14.887-8.466,14.887-8.466l5.012.072a1.88,1.88,0,0,0,1.552-.809A2.216,2.216,0,0,0,257.969,236.474Z" transform="translate(-179.734 -179.574)" fill="#ffd7c5"/>
        <path id="パス_2448" data-name="パス 2448" d="M388.34,233.152a4.3,4.3,0,0,0-2.771-1.027h-7.2a4.367,4.367,0,0,0-3.315,1.567l-2.383,2.784a2.217,2.217,0,0,0-.109,2.7,1.882,1.882,0,0,0,1.552.809l5.012-.072s7.73,10.046,14.887,8.466l4.3-6.852Z" transform="translate(-287.903 -179.574)" fill="#ffd7c5"/>
        <path id="パス_2449" data-name="パス 2449" d="M281.993,116.975h0v-2.316c0-10.434-10.885-20.4-22.433-20.4s-22.433,9.962-22.433,20.4v2.351a7.843,7.843,0,0,0,.363,15.643c1.977,9.129,11.759,17.071,22.07,17.071s20.086-7.937,22.068-17.062h.365a7.843,7.843,0,0,0,0-15.687Z" transform="translate(-175.672 -71.675)" fill="#ffd7c5"/>
        <path id="パス_2450" data-name="パス 2450" d="M513.141,175.012a2.237,2.237,0,0,1,1.693,4.142c-1.144.467-4.668-.482-4.677-.505S512,175.48,513.141,175.012Z" transform="translate(-394.663 -135.262)" fill="#fff"/>
        <path id="パス_2451" data-name="パス 2451" d="M595.778,195.736a2.237,2.237,0,0,1-1.886,4.058c-1.12-.521-2.82-3.751-2.81-3.773S594.657,195.216,595.778,195.736Z" transform="translate(-457.268 -151.286)" fill="#fff"/>
        <path id="パス_2452" data-name="パス 2452" d="M650.878,254.746a2.237,2.237,0,0,1-4.129,1.724c-.476-1.14.447-4.672.47-4.681S650.4,253.606,650.878,254.746Z" transform="translate(-500.227 -194.787)" fill="#fff"/>
        <path id="パス_2453" data-name="パス 2453" d="M680.473,327.618a2.237,2.237,0,1,1-4.434.6c-.165-1.224,1.639-4.4,1.664-4.4S680.307,326.394,680.473,327.618Z" transform="translate(-522.983 -250.508)" fill="#fff"/>
        <path id="パス_2454" data-name="パス 2454" d="M695.977,407.661a2.237,2.237,0,1,1-4.46.351c-.1-1.232,1.881-4.3,1.906-4.3S695.881,406.43,695.977,407.661Z" transform="translate(-534.963 -312.315)" fill="#fff"/>
        <path id="パス_2455" data-name="パス 2455" d="M699.635,491.233a2.237,2.237,0,0,1-4.47-.194c.054-1.234,2.39-4.039,2.415-4.038S699.688,490,699.635,491.233Z" transform="translate(-537.786 -376.749)" fill="#fff"/>
        <path id="パス_2456" data-name="パス 2456" d="M186.122,175.012a2.237,2.237,0,1,0-1.693,4.142c1.144.467,4.668-.482,4.677-.505S187.265,175.48,186.122,175.012Z" transform="translate(-141.6 -135.262)" fill="#fff"/>
        <path id="パス_2457" data-name="パス 2457" d="M103.751,195.736a2.237,2.237,0,0,0,1.886,4.058c1.121-.521,2.82-3.751,2.81-3.773S104.872,195.216,103.751,195.736Z" transform="translate(-79.262 -151.286)" fill="#fff"/>
        <path id="パス_2458" data-name="パス 2458" d="M53.955,254.746a2.237,2.237,0,0,0,4.129,1.724c.476-1.14-.447-4.672-.47-4.681S54.431,253.606,53.955,254.746Z" transform="translate(-41.606 -194.787)" fill="#fff"/>
        <path id="パス_2459" data-name="パス 2459" d="M24.269,327.618a2.237,2.237,0,0,0,4.434.6c.165-1.224-1.639-4.4-1.664-4.4S24.434,326.394,24.269,327.618Z" transform="translate(-18.759 -250.508)" fill="#fff"/>
        <path id="パス_2460" data-name="パス 2460" d="M8.744,407.661a2.237,2.237,0,1,0,4.461.351c.1-1.232-1.881-4.3-1.906-4.3S8.841,406.43,8.744,407.661Z" transform="translate(-6.759 -312.315)" fill="#fff"/>
        <path id="パス_2461" data-name="パス 2461" d="M5.079,491.233a2.237,2.237,0,1,0,4.47-.194C9.495,489.8,7.159,487,7.134,487S5.025,490,5.079,491.233Z" transform="translate(-3.928 -376.749)" fill="#fff"/>
        <path id="パス_2462" data-name="パス 2462" d="M353.766,501.087a1.824,1.824,0,1,0,1.824,1.824A1.824,1.824,0,0,0,353.766,501.087Z" transform="translate(-272.266 -387.646)" fill="#231815"/>
        <path id="パス_2463" data-name="パス 2463" d="M351.433,273.939h2.779a.636.636,0,0,0,0-1.271h-1.857a1.165,1.165,0,0,1-1.037-.633l-.167-.326a.3.3,0,0,0-.568.137v1.243A.85.85,0,0,0,351.433,273.939Z" transform="translate(-271.215 -210.07)" fill="#231815"/>
        <path id="パス_2464" data-name="パス 2464" d="M346.5,295.131l-2.968-1.736a2.885,2.885,0,0,0-2.959,0l-2.968,1.736a2.346,2.346,0,0,0-1.084,2.038v.488a2.147,2.147,0,0,0,1.977,2.284H345.6a2.147,2.147,0,0,0,1.977-2.284v-.488A2.346,2.346,0,0,0,346.5,295.131Z" transform="translate(-260.335 -226.657)" fill="#3e485c"/>
        <path id="パス_2465" data-name="パス 2465" d="M316.663,196.643a4.528,4.528,0,0,1-3.449,1.454,1.075,1.075,0,0,0-1.117.938,1.29,1.29,0,0,0,1.32,1.253,6.134,6.134,0,0,0,4.673-1.97,1.29,1.29,0,0,0,.025-1.82A1.074,1.074,0,0,0,316.663,196.643Z" transform="translate(-241.439 -151.843)" fill="#3e485c"/>
        <path id="パス_2466" data-name="パス 2466" d="M491.657,282.085Z" transform="translate(-380.352 -218.224)" fill="#231815"/>
        <path id="パス_2467" data-name="パス 2467" d="M112.1,67.639a6.069,6.069,0,0,1-.8-.054l-3.333-5.362,9.084-7.629a2.976,2.976,0,0,1,1.917-.716h7.2a3.038,3.038,0,0,1,2.306,1.1l2.383,2.784a.854.854,0,0,1,.194.554.866.866,0,0,1-.156.5.557.557,0,0,1-.447.254h-.015L124.771,59l-.406.528h0a32.037,32.037,0,0,1-4.029,4.171,21.09,21.09,0,0,1-3.984,2.762A9.447,9.447,0,0,1,112.1,67.639Zm42.115,1.912-.847,1.144a1.324,1.324,0,0,0-2.256-1.22h0a23.525,23.525,0,0,1-7.239,5.246,20.111,20.111,0,0,1-17.825-.167,23.477,23.477,0,0,1-7.395-5.642,1.314,1.314,0,0,0-.566-.376c.463-.258.914-.533,1.349-.821a30.675,30.675,0,0,0,5.027-4.284c.7-.727,1.235-1.349,1.579-1.76l4.378.063h.034a3.214,3.214,0,0,0,2.606-1.363h0a3.546,3.546,0,0,0-.18-4.332L130.5,53.254a5.7,5.7,0,0,0-4.324-2.031h-7.2a5.634,5.634,0,0,0-3.625,1.338l-6.55,5.5a6.549,6.549,0,0,1-1.307-1.547,6.519,6.519,0,0,1,.97-7.977,6.563,6.563,0,0,1,1.519-1.131v1.776a1.2,1.2,0,0,0,2.056.845c.458-.466,1.109-1.008,1.824-1.634,7.722-3.662,12.9-11.988,13.365-16.613.753,6.744,2.783,11.462,12.827,14.758a6.129,6.129,0,0,0,4.607,1.906,1.439,1.439,0,0,0,.968-.406c3.541.786,7.773,1.472,12.843,2.069a1.194,1.194,0,0,0,1.949-.925v-1.7a6.575,6.575,0,0,1,1.4,1.059,6.515,6.515,0,0,1-.335,9.525l-6.551-5.5a5.633,5.633,0,0,0-3.625-1.338h-7.2a5.7,5.7,0,0,0-4.324,2.031L137.4,56.037a3.545,3.545,0,0,0-.18,4.334l.4.554h.1a3.175,3.175,0,0,0,2.106.809h.036l4.377-.063a35.524,35.524,0,0,0,3.912,3.984,23.836,23.836,0,0,0,4.522,3.143,15.656,15.656,0,0,0,1.587.712c-.012.014-.026.026-.038.041Zm3.958-1.912a7.672,7.672,0,0,1-2.12-.319,13.879,13.879,0,0,1-3.747-1.819,28.076,28.076,0,0,1-4.577-3.908c-.576-.6-1.036-1.126-1.35-1.5-.157-.185-.276-.332-.356-.431l-.088-.111-.02-.026,0-.005h0l-.406-.528-5.669.082h-.015a.554.554,0,0,1-.446-.254h0a.865.865,0,0,1-.156-.5.853.853,0,0,1,.194-.554l2.383-2.784a3.039,3.039,0,0,1,2.306-1.1h7.2a2.975,2.975,0,0,1,1.917.716l9.083,7.629-3.333,5.362A6.119,6.119,0,0,1,158.175,67.639Zm8.215,31.687a1.226,1.226,0,0,0-.217-.019,1.393,1.393,0,0,0-1.391,1.394V122.25h2.782V100.7A1.388,1.388,0,0,0,166.391,99.326Zm32.686-18.412a14.669,14.669,0,0,0-5.2-5.615l-.051-.029-27.7-13.786a1.326,1.326,0,0,0-.887-.1s0,0,0-.006a1.277,1.277,0,0,0-.064-.112,1.241,1.241,0,0,0-.07-.112,1.108,1.108,0,0,0-.083-.093c-.032-.035-.064-.07-.1-.1-.01-.01-.016-.019-.026-.029l-1.362-1.142a9.173,9.173,0,0,0-3.114-15.234V40.81A24.458,24.458,0,0,0,156.2,27.078a24.82,24.82,0,0,0-10.318-8.685,12.342,12.342,0,1,0-21.468.045,24.692,24.692,0,0,0-13.326,15.075,24.461,24.461,0,0,0-1.11,7.3v3.7a9.178,9.178,0,0,0-4.763,13.384,9.308,9.308,0,0,0,1.525,1.9l-1.362,1.142c-.01.01-.016.019-.026.029-.035.032-.067.067-.1.1a1.146,1.146,0,0,0-.083.093c-.026.035-.048.073-.07.112a1.27,1.27,0,0,0-.064.112.011.011,0,0,1,0,.006,1.327,1.327,0,0,0-.887.1L76.454,75.27,76.4,75.3a14.669,14.669,0,0,0-5.2,5.615,15.494,15.494,0,0,0-1.866,7.22,12.072,12.072,0,0,0,.692,4.1,9.771,9.771,0,0,0,3.921,4.952,13.466,13.466,0,0,0,7.424,1.933h.093l21.248-2.954V122.25H105.5V95.472a1.31,1.31,0,0,0,.345-1.078,1.324,1.324,0,0,0-1.321-1.142,1.922,1.922,0,0,0-.2-.048,1.228,1.228,0,0,0-.217-.019,1.347,1.347,0,0,0-.727.211L81.293,96.461a12.387,12.387,0,0,1-4.31-.708,7.966,7.966,0,0,1-2.259-1.279,7.081,7.081,0,0,1-2.058-2.779,9.24,9.24,0,0,1-.673-3.561,12.791,12.791,0,0,1,1.551-5.966,12.034,12.034,0,0,1,4.211-4.578l27.578-13.729a1.268,1.268,0,0,0,.36-.271l4.211,6.774,1.385,2.23-6.968,4.237-14.2,8.637A1.329,1.329,0,0,0,91.5,87.739l12.819-7.794,10.643-6.474-.182-.293-1.822-2.926a10.831,10.831,0,0,0,2-.38,13.039,13.039,0,0,0,1.445-.514,1.322,1.322,0,0,0,.249,1.3c.194.227.4.447.6.664a26.187,26.187,0,0,0,7.638,5.625A22.785,22.785,0,0,0,145,77.13a26.2,26.2,0,0,0,7.552-5.325L138.4,90.929V79.679h-7.341V90.824L117.246,71.563a1.536,1.536,0,0,0-.108-.134,1.392,1.392,0,0,0-2.214,1.662c.019.032.038.061.061.093l16.274,22.694.01.016a4.286,4.286,0,0,0,1.566,1.308,4.313,4.313,0,0,0,3.784,0,4.263,4.263,0,0,0,1.567-1.308l2.45-3.308,15.821-21.38a1.394,1.394,0,0,0,.258-1.024c.2.032.4.051.6.07l-2,3.219,11.077,6.735,12.385,7.533a1.329,1.329,0,0,0,1.381-2.272l-13.99-8.506-7.182-4.368,2.16-3.474,3.439-5.529a1.271,1.271,0,0,0,.36.271L192.524,77.59a12.032,12.032,0,0,1,4.211,4.578,12.83,12.83,0,0,1,1.551,5.966,9.367,9.367,0,0,1-.533,3.2,7.109,7.109,0,0,1-2.865,3.628,10.777,10.777,0,0,1-5.909,1.5l-22.588-3.139-.456-.064a1.329,1.329,0,0,0-.364,2.632l.82.115,22.422,3.117h.092a15.149,15.149,0,0,0,5.322-.88,10.665,10.665,0,0,0,3.008-1.71,9.758,9.758,0,0,0,2.827-3.809,11.9,11.9,0,0,0,.881-4.588A15.51,15.51,0,0,0,199.076,80.914Z" transform="translate(-53.639)" fill="#3e485c"/>
        <path id="パス_2468" data-name="パス 2468" d="M505.323,175.428a1.136,1.136,0,0,0,.219.215,1.116,1.116,0,0,0,.175.108,1.18,1.18,0,0,0,.11.048c.04.015.058.02.077.027.068.022.131.039.227.065.323.087.929.235,1.633.367a12.842,12.842,0,0,0,2.234.248,4.923,4.923,0,0,0,.661-.041,2.787,2.787,0,0,0,.682-.174,3.384,3.384,0,0,0,1.853-4.415h0a3.384,3.384,0,0,0-4.415-1.853h0a2.992,2.992,0,0,0-.748.462A7.586,7.586,0,0,0,507,171.551a19.638,19.638,0,0,0-1.232,1.715c-.161.25-.294.465-.389.625-.048.08-.086.146-.117.2-.016.028-.029.052-.045.082s-.017.033-.033.066c-.008.018-.018.039-.034.084-.008.023-.019.052-.032.1-.007.026-.014.057-.022.1a1.14,1.14,0,0,0-.017.2v.215l.078.2A1.147,1.147,0,0,0,505.323,175.428Zm4.326-3.279a1.079,1.079,0,0,1,.41-.081,1.1,1.1,0,0,1,.6.181,1.09,1.09,0,0,1,.489.907,1.1,1.1,0,0,1-.181.6,1.076,1.076,0,0,1-.495.406.761.761,0,0,1-.139.027,2.82,2.82,0,0,1-.336.017,8.1,8.1,0,0,1-1.06-.086c-.294-.04-.6-.092-.88-.147.235-.341.5-.7.756-1.013a6.177,6.177,0,0,1,.556-.6,2.112,2.112,0,0,1,.2-.167l.06-.038.014-.007h0l-.434-1.063Z" transform="translate(-390.737 -131.337)" fill="#4287c6"/>
        <path id="パス_2469" data-name="パス 2469" d="M586.07,192.467c.018.053.027.072.035.091.015.034.024.053.034.074.036.075.083.165.15.29a22.277,22.277,0,0,0,1.216,1.995,10.819,10.819,0,0,0,.868,1.112,5.145,5.145,0,0,0,.5.481,2.822,2.822,0,0,0,.614.4,3.385,3.385,0,0,0,4.5-1.643v0a3.386,3.386,0,0,0-1.643-4.5l-.484,1.042.484-1.042a2.983,2.983,0,0,0-.846-.234,6.1,6.1,0,0,0-.836-.052,16.2,16.2,0,0,0-2.487.24c-.362.06-.674.12-.9.167-.115.024-.207.044-.28.061l-.1.026L586.8,191c-.021.007-.045.014-.1.038a1.131,1.131,0,0,0-.142.073,1.149,1.149,0,0,0-.288.248,1.143,1.143,0,0,0-.164.262l-.1.225v.247a1.108,1.108,0,0,0,.022.222A1.162,1.162,0,0,0,586.07,192.467Zm5.1.343a1.308,1.308,0,0,1,.152.029l.037.011.007,0a1.076,1.076,0,0,1,.462.408,1.1,1.1,0,0,1,.167.581,1.091,1.091,0,0,1-.51.921,1.1,1.1,0,0,1-.581.167,1.076,1.076,0,0,1-.456-.1,1.111,1.111,0,0,1-.192-.153,5.933,5.933,0,0,1-.669-.789c-.223-.3-.442-.638-.641-.958a12.618,12.618,0,0,1,1.705-.147A3.863,3.863,0,0,1,591.173,192.811Z" transform="translate(-453.343 -147.361)" fill="#4287c6"/>
        <path id="パス_2470" data-name="パス 2470" d="M648.015,250.378l-1.06.443,1.06-.443a2.991,2.991,0,0,0-.468-.744,7.63,7.63,0,0,0-1.074-1.021,19.636,19.636,0,0,0-1.724-1.219c-.251-.159-.467-.29-.628-.385-.081-.047-.146-.085-.2-.115l-.082-.044-.065-.031c-.018-.008-.038-.017-.082-.033-.023-.008-.051-.018-.1-.032-.025-.007-.056-.014-.1-.022a1.142,1.142,0,0,0-.194-.017h-.225l-.208.085a1.139,1.139,0,0,0-.276.161,1.121,1.121,0,0,0-.211.216,1.17,1.17,0,0,0-.158.29c-.015.041-.021.059-.027.079-.021.068-.038.131-.063.225-.083.319-.225.916-.35,1.612a13.147,13.147,0,0,0-.236,2.213,5.119,5.119,0,0,0,.042.686,2.822,2.822,0,0,0,.183.705,3.386,3.386,0,1,0,6.248-2.609Zm-5.223-1.483Zm3.008,3.385a1.091,1.091,0,0,1-.909.492,1.1,1.1,0,0,1-.6-.179,1.076,1.076,0,0,1-.406-.49.8.8,0,0,1-.03-.15,2.965,2.965,0,0,1-.019-.357,8.468,8.468,0,0,1,.082-1.059c.038-.284.085-.573.136-.848.342.233.7.491,1.018.748a6.2,6.2,0,0,1,.6.551,2.1,2.1,0,0,1,.169.2l.039.06.007.014h0a1.083,1.083,0,0,1,.084.418A1.1,1.1,0,0,1,645.8,252.28Z" transform="translate(-496.304 -190.861)" fill="#4287c6"/>
        <path id="パス_2471" data-name="パス 2471" d="M642.534,274.421h0Z" transform="translate(-497.071 -212.294)" fill="#231815"/>
        <path id="パス_2472" data-name="パス 2472" d="M671.046,343.934h0Z" transform="translate(-519.129 -266.07)" fill="#231815"/>
        <path id="パス_2473" data-name="パス 2473" d="M676.884,326.21a3.383,3.383,0,0,0,.829-2.216,3.444,3.444,0,0,0-.03-.454v0a2.988,2.988,0,0,0-.26-.841,7.622,7.622,0,0,0-.775-1.266,19.685,19.685,0,0,0-1.352-1.625c-.2-.218-.376-.4-.506-.532-.065-.066-.119-.119-.163-.162l-.068-.064c-.014-.012-.028-.025-.06-.051s-.037-.03-.086-.063a1.158,1.158,0,0,0-.279-.136,1.134,1.134,0,0,0-.359-.057H673.7l-.073.009a1.137,1.137,0,0,0-.347.1,1.119,1.119,0,0,0-.257.167,1.1,1.1,0,0,0-.135.138,1.066,1.066,0,0,0-.068.089c-.023.033-.033.051-.045.07-.043.069-.089.148-.153.264-.221.4-.615,1.14-.97,1.962a12.29,12.29,0,0,0-.474,1.267,6.288,6.288,0,0,0-.161.643,3.61,3.61,0,0,0-.069.669,2.371,2.371,0,0,0,.022.326,3.385,3.385,0,0,0,5.912,1.765Zm-2.56-1.13a1.089,1.089,0,0,1-1.075-.943v0h0v-.017a1.618,1.618,0,0,1,.044-.316,6.817,6.817,0,0,1,.326-1c.127-.319.274-.645.419-.951.271.313.552.656.79.986a6.169,6.169,0,0,1,.442.689,2.162,2.162,0,0,1,.111.239c.011.03.018.053.022.068l0,.015a1.144,1.144,0,0,1,.01.148,1.09,1.09,0,0,1-1.091,1.086Z" transform="translate(-519.055 -246.581)" fill="#4287c6"/>
        <path id="パス_2474" data-name="パス 2474" d="M687.528,406.4a3.381,3.381,0,0,0,2.291.895q.132,0,.268-.01h0a3.386,3.386,0,0,0,3.12-3.373c0-.085,0-.175-.01-.268h0a2.984,2.984,0,0,0-.213-.855,7.64,7.64,0,0,0-.7-1.307,19.641,19.641,0,0,0-1.26-1.7c-.189-.229-.353-.421-.475-.559-.062-.07-.112-.125-.154-.171l-.065-.068c-.014-.013-.026-.027-.058-.055a1.087,1.087,0,0,0-.086-.07,1.15,1.15,0,0,0-.292-.157,1.125,1.125,0,0,0-.392-.069h-.04l-.036,0a1.134,1.134,0,0,0-.36.084,1.15,1.15,0,0,0-.408.283c-.044.048-.057.066-.071.084s-.036.048-.049.067c-.047.067-.1.148-.173.263-.251.4-.7,1.144-1.106,1.966a11.556,11.556,0,0,0-.544,1.268,5.658,5.658,0,0,0-.188.649,3.214,3.214,0,0,0-.083.692c0,.065,0,.127.007.182h0A3.379,3.379,0,0,0,687.528,406.4Zm3.26-2.905a2.157,2.157,0,0,1,.1.245c.009.03.015.054.019.069l0,.015h0c0,.026,0,.055,0,.088a1.089,1.089,0,0,1-1,1.083c-.029,0-.059,0-.088,0a1.088,1.088,0,0,1-1.082-1h0v0a1.272,1.272,0,0,1,.046-.266,6.222,6.222,0,0,1,.367-.978c.151-.333.328-.675.5-.994.253.327.514.685.733,1.027A6.2,6.2,0,0,1,690.788,403.5Z" transform="translate(-531.037 -308.388)" fill="#4287c6"/>
        <path id="パス_2475" data-name="パス 2475" d="M696.725,486.41a8.138,8.138,0,0,0-.546-1.366,20.367,20.367,0,0,0-1.031-1.806c-.156-.246-.293-.45-.4-.6-.051-.073-.1-.134-.131-.185l-.054-.073c-.013-.016-.026-.029-.054-.064a.951.951,0,0,0-.083-.083.892.892,0,0,0-.131-.105,1.276,1.276,0,0,0-.172-.1,1.116,1.116,0,0,0-.437-.1l-.019,0h-.022a1.237,1.237,0,0,0-.345.054,1.085,1.085,0,0,0-.261.118,1.242,1.242,0,0,0-.144.108c-.048.041-.064.057-.077.07l-.057.061c-.054.064-.121.14-.211.249a22.643,22.643,0,0,0-1.378,1.886,10.664,10.664,0,0,0-.7,1.228,5.255,5.255,0,0,0-.255.641,2.958,2.958,0,0,0-.134.7v.019c0,.061-.006.112-.006.15a3.385,3.385,0,0,0,3.241,3.379l0,0h.143a3.379,3.379,0,0,0,3.382-3.238v-.038a.4.4,0,0,0,0-.057A3.234,3.234,0,0,0,696.725,486.41Zm-2.5,1.586a1.091,1.091,0,0,1-.753.3h-.048a1.078,1.078,0,0,1-.74-.335,1.1,1.1,0,0,1-.3-.75l0-.026v-.022a1.11,1.11,0,0,1,.067-.239,6.205,6.205,0,0,1,.479-.922c.195-.319.418-.648.635-.951.2.341.408.712.581,1.066a6.147,6.147,0,0,1,.322.756,1.6,1.6,0,0,1,.093.386A1.109,1.109,0,0,1,694.224,488Z" transform="translate(-533.856 -372.822)" fill="#4287c6"/>
        <path id="パス_2476" data-name="パス 2476" d="M180.067,176.295a2.8,2.8,0,0,0,.682.174,4.964,4.964,0,0,0,.661.041,10.345,10.345,0,0,0,1.372-.107c.684-.094,1.349-.232,1.853-.348.252-.058.463-.111.617-.152l.193-.053.084-.026c.018-.006.036-.012.077-.028a1.137,1.137,0,0,0,.108-.05,1.116,1.116,0,0,0,.142-.088,1.15,1.15,0,0,0,.144-.124,1.132,1.132,0,0,0,.232-.343l.1-.221v-.242a1.156,1.156,0,0,0-.078-.417c-.022-.055-.032-.074-.041-.094s-.027-.052-.038-.073c-.04-.073-.091-.16-.163-.282a22.41,22.41,0,0,0-1.309-1.936,10.792,10.792,0,0,0-.919-1.07,5.114,5.114,0,0,0-.518-.457,2.816,2.816,0,0,0-.632-.371l-.435,1.063.434-1.063a3.385,3.385,0,1,0-2.562,6.268Zm.273-3.546a1.077,1.077,0,0,1,.407-.5,1.1,1.1,0,0,1,.6-.181,1.082,1.082,0,0,1,.41.081,1.126,1.126,0,0,1,.2.144,5.933,5.933,0,0,1,.705.757c.237.292.471.616.685.925l-.156.03a10.665,10.665,0,0,1-1.783.2,2.648,2.648,0,0,1-.352-.02.936.936,0,0,1-.1-.018l-.022-.006h0a1.08,1.08,0,0,1-.5-.407,1.1,1.1,0,0,1-.181-.6A1.085,1.085,0,0,1,180.34,172.749Z" transform="translate(-137.673 -131.34)" fill="#4287c6"/>
        <path id="パス_2477" data-name="パス 2477" d="M98.78,211.614h0Z" transform="translate(-76.418 -163.706)" fill="#231815"/>
        <path id="パス_2478" data-name="パス 2478" d="M98.972,196.709a3.383,3.383,0,0,0,3.223.2h0a2.976,2.976,0,0,0,.725-.5,7.605,7.605,0,0,0,.977-1.112,19.607,19.607,0,0,0,1.15-1.771c.149-.257.272-.478.36-.643.044-.083.079-.15.107-.206.014-.029.026-.053.041-.084s.015-.033.029-.066c.007-.018.015-.038.029-.08.007-.022.016-.049.026-.1a1.116,1.116,0,0,0,.03-.262v-.261l-.113-.235a1.146,1.146,0,0,0-.164-.251,1.128,1.128,0,0,0-.216-.2,1.115,1.115,0,0,0-.18-.1,1.175,1.175,0,0,0-.116-.046c-.042-.014-.06-.019-.079-.024-.067-.018-.124-.031-.211-.05-.292-.065-.836-.173-1.483-.268a14.924,14.924,0,0,0-2.085-.178,6.108,6.108,0,0,0-.837.052,2.967,2.967,0,0,0-.846.235h0a3.387,3.387,0,0,0-.369,5.94Zm2.051-3.929a12.655,12.655,0,0,1,1.707.147c-.14.225-.29.457-.445.681a8.631,8.631,0,0,1-.677.872,2.88,2.88,0,0,1-.271.266,1.044,1.044,0,0,1-.086.065l-.022.014h0a1.084,1.084,0,0,1-.457.1,1.1,1.1,0,0,1-.58-.167,1.076,1.076,0,0,1-.408-.463h0a1.073,1.073,0,0,1-.1-.457,1.1,1.1,0,0,1,.167-.58,1.076,1.076,0,0,1,.463-.408,1.052,1.052,0,0,1,.22-.045A4,4,0,0,1,101.024,192.78Z" transform="translate(-75.337 -147.36)" fill="#4287c6"/>
        <path id="パス_2479" data-name="パス 2479" d="M55.218,252.988h0a2.82,2.82,0,0,0,.182-.705,5.106,5.106,0,0,0,.042-.686,10.578,10.578,0,0,0-.1-1.361c-.09-.678-.221-1.334-.332-1.831-.056-.249-.106-.456-.146-.608-.02-.077-.036-.138-.051-.191-.008-.027-.014-.05-.025-.084-.006-.018-.012-.036-.028-.078a1.174,1.174,0,0,0-.051-.11,1.14,1.14,0,0,0-.09-.146,1.166,1.166,0,0,0-.128-.147,1.134,1.134,0,0,0-.355-.235l-.214-.09h-.232a1.114,1.114,0,0,0-.252.028,1.13,1.13,0,0,0-.159.048c-.055.021-.074.031-.093.04l-.073.037c-.073.039-.161.089-.283.161a22.24,22.24,0,0,0-1.945,1.294,10.8,10.8,0,0,0-1.077.911,5.1,5.1,0,0,0-.461.515,2.811,2.811,0,0,0-.375.629,3.386,3.386,0,1,0,6.248,2.61Zm-2.093-1.017a1.018,1.018,0,0,1-.019.105l-.007.024v0a1.079,1.079,0,0,1-.407.49,1.1,1.1,0,0,1-.6.179,1.092,1.092,0,0,1-.909-.492,1.1,1.1,0,0,1-.179-.6,1.077,1.077,0,0,1,.085-.418,1.133,1.133,0,0,1,.146-.2,5.934,5.934,0,0,1,.762-.7c.294-.235.619-.466.93-.678.008.043.016.086.024.13a10.985,10.985,0,0,1,.195,1.778A2.9,2.9,0,0,1,53.125,251.971Z" transform="translate(-37.681 -190.861)" fill="#4287c6"/>
        <path id="パス_2480" data-name="パス 2480" d="M49.864,262.895h0Z" transform="translate(-38.576 -203.378)" fill="#231815"/>
        <path id="パス_2481" data-name="パス 2481" d="M25.4,321.953c-.267-.671-.583-1.318-.837-1.809-.127-.245-.239-.45-.323-.6-.042-.075-.077-.135-.107-.185-.015-.026-.029-.047-.048-.077s-.02-.032-.046-.067a1.169,1.169,0,0,0-.075-.091,1.124,1.124,0,0,0-.122-.116,1.142,1.142,0,0,0-.16-.111,1.13,1.13,0,0,0-.415-.142l-.078-.011h-.079a1.145,1.145,0,0,0-.3.038,1.157,1.157,0,0,0-.379.18c-.048.035-.063.049-.08.063s-.044.039-.061.054c-.061.057-.132.128-.232.229a22.348,22.348,0,0,0-1.545,1.753,10.741,10.741,0,0,0-.8,1.159,5.091,5.091,0,0,0-.312.616,2.828,2.828,0,0,0-.2.7h0a3.386,3.386,0,0,0,6.71.906v0a2.407,2.407,0,0,0,.021-.324,3.8,3.8,0,0,0-.1-.808A9.029,9.029,0,0,0,25.4,321.953Zm-3.95,1.89.011,0-1.121-.151Zm1.111,1.239a1.1,1.1,0,0,1-.149-.01A1.089,1.089,0,0,1,21.471,324a1.1,1.1,0,0,1,.01-.148,1.144,1.144,0,0,1,.09-.23,5.959,5.959,0,0,1,.557-.875c.223-.3.476-.609.721-.892.092.194.185.4.273.6a10.079,10.079,0,0,1,.385,1.024,4.011,4.011,0,0,1,.1.407,1.394,1.394,0,0,1,.029.239v.018h0a1.089,1.089,0,0,1-1.076.942Z" transform="translate(-14.833 -246.583)" fill="#4287c6"/>
        <path id="パス_2482" data-name="パス 2482" d="M9.813,401.8a20.21,20.21,0,0,0-.956-1.812c-.145-.246-.272-.452-.367-.6-.048-.075-.087-.135-.121-.185-.017-.026-.032-.047-.053-.076s-.022-.031-.05-.065a1.166,1.166,0,0,0-.209-.2,1.15,1.15,0,0,0-.606-.221l-.038,0H7.375a1.134,1.134,0,0,0-.325.047,1.157,1.157,0,0,0-.4.208c-.047.038-.062.054-.078.069l-.058.058c-.058.06-.125.135-.219.242A22.286,22.286,0,0,0,4.853,401.1a10.814,10.814,0,0,0-.74,1.2,5.123,5.123,0,0,0-.278.633,2.829,2.829,0,0,0-.161.714q-.011.133-.011.269a3.386,3.386,0,0,0,3.12,3.373c.091.007.18.01.268.01a3.386,3.386,0,0,0,3.373-3.12v-.006q.006-.089.006-.176a3.406,3.406,0,0,0-.116-.833A8.418,8.418,0,0,0,9.813,401.8ZM7.052,405c-.03,0-.059,0-.088,0a1.089,1.089,0,0,1-1-1.083c0-.026,0-.055,0-.085h0a1.119,1.119,0,0,1,.077-.235,5.944,5.944,0,0,1,.508-.905c.206-.313.442-.634.671-.93.122.223.246.459.361.7a9.059,9.059,0,0,1,.419.982,3.381,3.381,0,0,1,.108.374,1.022,1.022,0,0,1,.027.188v0a1.089,1.089,0,0,1-1.083,1Z" transform="translate(-2.835 -308.389)" fill="#4287c6"/>
        <path id="パス_2483" data-name="パス 2483" d="M3.71,420.754v0h0Z" transform="translate(-2.87 -325.498)" fill="#231815"/>
        <path id="パス_2484" data-name="パス 2484" d="M6.768,487.065v-.007a2.97,2.97,0,0,0-.182-.861,7.577,7.577,0,0,0-.657-1.33,19.624,19.624,0,0,0-1.2-1.742c-.182-.236-.338-.434-.456-.574-.061-.073-.108-.131-.147-.179l-.064-.07c-.013-.013-.025-.029-.057-.057a.679.679,0,0,0-.086-.073,1.245,1.245,0,0,0-.134-.093,1.2,1.2,0,0,0-.166-.08,1.144,1.144,0,0,0-.412-.077H3.188l-.022,0A1.076,1.076,0,0,0,2.8,482a1.022,1.022,0,0,0-.268.147.9.9,0,0,0-.144.121c-.045.048-.057.064-.073.08-.026.032-.035.048-.051.067-.048.064-.105.144-.185.258a22.706,22.706,0,0,0-1.19,1.962A11.3,11.3,0,0,0,.3,485.9a5.349,5.349,0,0,0-.208.651,3.282,3.282,0,0,0-.092.708c0,.019,0,.054,0,.1v.019a3.381,3.381,0,0,0,3.382,3.219h.144l0,0a3.379,3.379,0,0,0,3.238-3.379C6.771,487.158,6.771,487.11,6.768,487.065Zm-2.294.144a1.084,1.084,0,0,1-1.04,1.085H3.386a1.085,1.085,0,0,1-1.088-1.04,1.262,1.262,0,0,1,.048-.233,5.769,5.769,0,0,1,.389-.96c.169-.338.364-.689.558-1.011.239.335.488.7.7,1.05a5.927,5.927,0,0,1,.376.728,1.782,1.782,0,0,1,.089.249.261.261,0,0,1,.016.07l0,.013v.051Z" transform="translate(-0.001 -372.82)" fill="#4287c6"/>
      </g>
      <g id="グループ_2636" data-name="グループ 2636" transform="translate(213.376 872.817)">
        <path id="パス_28" data-name="パス 28" d="M70.526,497.936V447.38a7.294,7.294,0,0,1,7.294-7.294h88.4a7.294,7.294,0,0,1,7.294,7.294v50.556Z" transform="translate(-51.342 -414.215)" fill="#e4f1fa"/>
        <rect id="長方形_138" data-name="長方形 138" width="101.523" height="6.876" transform="translate(14.946 72.315)" fill="#e4f1fa"/>
        <path id="パス_33" data-name="パス 33" d="M412.958,365.742h0Z" transform="translate(-325.444 -359.269)" fill="#231815"/>
        <path id="パス_34" data-name="パス 34" d="M297.166,335.2Z" transform="translate(-234.19 -335.196)" fill="#231815"/>
        <path id="パス_36" data-name="パス 36" d="M119.4,432.409V383.322a8.764,8.764,0,0,0-8.763-8.764H22.24a8.764,8.764,0,0,0-8.764,8.764v49.087H1.47a1.47,1.47,0,1,0,0,2.939H131.406a1.47,1.47,0,0,0,1.469-1.47ZM18.121,379.2A5.8,5.8,0,0,1,22.24,377.5h88.4a5.824,5.824,0,0,1,5.824,5.824v41.323H16.416V383.322A5.8,5.8,0,0,1,18.121,379.2Zm-1.706,48.38H116.46v4.825H16.416Z" transform="translate(0 -353.8)" fill="#3e485c"/>
      </g>
    </g>
    <rect id="長方形_330" data-name="長方形 330" width="280" height="200" transform="translate(128 879)" fill="none"/>
  </g>
</svg>
