<svg xmlns="http://www.w3.org/2000/svg" width="177.482" height="244.832" viewBox="0 0 177.482 244.832">
  <g id="parts" transform="translate(-0.001)">
    <path id="パス_3107" data-name="パス 3107" d="M196.765,452.216l9.5-21.473a11.477,11.477,0,0,0,.56-7.723l-7.8-28-37.96-34.731-30.416,34.731L118.862,415.7a15.133,15.133,0,0,0-1.58,10.971l8.885,37.632s-11.7,1.27-13.442,12.528v1.889a2.3,2.3,0,0,0,2.3,2.3h27.921a2.3,2.3,0,0,0,2.291-2.076l1.465-14.644-2.72-34.648a7.466,7.466,0,0,1,2.155-5.855l14.045-14.1a7.3,7.3,0,0,1,10.672.346l14.368,16.427-5.519,25.741,1.217,12.165a1.912,1.912,0,0,0,1.9,1.722h23.191a1.912,1.912,0,0,0,1.912-1.912v-1.569C206.484,453.272,196.765,452.216,196.765,452.216Z" transform="translate(-70.394 -237.775)" fill="#2ba7c8"/>
    <path id="パス_3108" data-name="パス 3108" d="M196.962,175.487h-1.753c-19.767,0-29.12,4.454-29.12,4.454V257.6h35.934l7.019,6.4,17.04-6.4V179.941S216.728,175.487,196.962,175.487Z" transform="translate(-105.611 -115.814)" fill="#fff"/>
    <path id="パス_3109" data-name="パス 3109" d="M118.055,266.906l-5.784-61.566-9.885-20.7-3.842-4.256C78.5,184.636,79.2,200.63,78.573,220.517l-3.3,19.266-14.41,23.282,11.562,10.113,17.565-24.688,2.765,24.449a3.759,3.759,0,0,0,3.664,3.349h13.134A8.4,8.4,0,0,0,118.055,266.906Z" transform="translate(-36.168 -119.043)" fill="#2ba7c8"/>
    <path id="パス_3110" data-name="パス 3110" d="M349.221,242.128l-1.99-3.755a56.835,56.835,0,0,1-5.476-15.848c-3.1-16-11.188-27.678-22.3-32.666L308.8,214.286a37.928,37.928,0,0,0-3.139,16.422l1.417,42.453a10.528,10.528,0,0,0,10.262,9.381h13.134a3,3,0,0,0,3.036-3.334l-2.95-31.4c3.51,7.276,14.273,21.646,18.1,21.968H359.9Z" transform="translate(-197.712 -125.298)" fill="#2ba7c8"/>
    <path id="パス_3111" data-name="パス 3111" d="M309.7,626.84l1.217,13.453a1.912,1.912,0,0,0,1.9,1.724h23.191a1.912,1.912,0,0,0,1.912-1.912v-1.569c-1.446-9.35-11.164-11.7-11.164-11.7Z" transform="translate(-204.391 -413.688)" fill="#6c859b"/>
    <path id="パス_3112" data-name="パス 3112" d="M23.772,429.869,12.9,432.931a7.41,7.41,0,0,0-3.915,2.684l-3.011,4.016a6.583,6.583,0,0,0-.93,6.17l2.042,5.7a3.909,3.909,0,0,0,7.023.705l3.021-4.992,8.538-2.055-1.421,5.8a2.589,2.589,0,0,0,4.829,1.777l3.245-6.472,3.011-8.432Z" transform="translate(0.926 -283.695)" fill="#20ab9a"/>
    <path id="パス_3113" data-name="パス 3113" d="M183.219,538.261l-3.735,4.138-1.664-4.138h-6.148l2.08-4.094-1.11-5.917L171.671,524l5.774-5.548.744,2.4,2.589,2.589,4.829-4.993,2.2,5.178V525.4a24.986,24.986,0,0,0-4.3,5.019C181.7,533.8,183.219,538.261,183.219,538.261Z" transform="translate(-113.295 -342.154)" fill="#20ab9a"/>
    <path id="パス_3114" data-name="パス 3114" d="M422.585,381.889l.7-1.392-.542-.236-.689,1.361a3.6,3.6,0,1,1-6.422-3.251l.5-.985-1.032-.449-.2.4c-.894,1.767-3.942,4.2-5.708,3.309s-1.607-4.793-.713-6.559l.012-.025-1.034-.45a3.6,3.6,0,0,1-6.4-3.284l7.559-14.935a6.914,6.914,0,0,1,7.556-.583l11.661,5.9c4.947,2.6,8.222,4.662,10.047,7a2.951,2.951,0,0,1-.266,1.73l-8.6,15.692a3.6,3.6,0,1,1-6.421-3.25Z" transform="translate(-260.423 -233.597)" fill="#20ab9a"/>
    <path id="パス_3115" data-name="パス 3115" d="M196.228,93.831h0l-.759-2.525c-3.419-11.376-18.55-18.67-31.139-14.886s-21.192,18.212-17.773,29.588l.77,2.563a8.928,8.928,0,0,0,5.521,16.936c5.147,9.3,18.413,14.759,29.654,11.38s19.3-15.235,18.468-25.833l.4-.12a8.929,8.929,0,0,0-5.14-17.1Z" transform="translate(-89.545 -49.769)" fill="#20ab9a"/>
    <path id="パス_3116" data-name="パス 3116" d="M246.488,230.941c.466,1.551-.442,1.441-.461,2.213s.7,2.318-.409,2.114-1.517-3.609-1.517-3.609Z" transform="translate(-161.095 -152.411)" fill="#fff"/>
    <path id="パス_3117" data-name="パス 3117" d="M256.3,156.522a4.887,4.887,0,1,1-4.887-4.887A4.887,4.887,0,0,1,256.3,156.522Z" transform="translate(-162.695 -100.073)" fill="#fff"/>
    <path id="パス_3118" data-name="パス 3118" d="M171.671,334.88v-4.188l2.232-4.551c1.456-.026,4.491,2.679,4.491,2.679l-.747,3.248,1.863,2.813.227,2.872-3.817,3.135-4.25-1.664,2.924-2.26Z" transform="translate(-113.295 -215.239)" fill="#156089"/>
    <path id="パス_3119" data-name="パス 3119" d="M309.767,343.572l2.814,1.446v3.206l3.822,1.033-.17,3.134-3.148.768v2.892l-3.318,1.192Z" transform="translate(-204.432 -226.743)" fill="#156089"/>
    <path id="パス_3120" data-name="パス 3120" d="M390.875,243.719l-3.226,3.381,1.718,3.406-1.718,4.592.131,1.872,3.553,1.872,1.481,2.382h3.756l-5.7-17.505" transform="translate(-255.831 -160.844)" fill="#156089"/>
    <path id="パス_3121" data-name="パス 3121" d="M146.705,661.606l-1.465,16.2a2.3,2.3,0,0,1-2.291,2.076H115.028a2.3,2.3,0,0,1-2.3-2.3v-1.89c1.741-11.257,13.442-14.08,13.442-14.08h20.538Z" transform="translate(-74.394 -436.632)" fill="#156089"/>
    <path id="パス_3122" data-name="パス 3122" d="M194.424,459.776l7.8,28a9.895,9.895,0,0,1-.483,6.657l-10.377,23.454,2.155.234.067-.612-.071.612h0l.067-.612-.071.612a10.723,10.723,0,0,1,1.435.3,13.062,13.062,0,0,1,4.819,2.424,9.746,9.746,0,0,1,2.192,2.541,10.489,10.489,0,0,1,1.329,3.807l1.566-.242h-1.584v1.569a.327.327,0,0,1-.328.328H179.753a.327.327,0,0,1-.326-.3l-1.193-11.918,5.633-26.276-14.891-17.025a8.888,8.888,0,0,0-12.987-.421l-14.045,14.1a9.054,9.054,0,0,0-2.64,6.389q0,.352.028.711v0l2.709,34.506-1.451,14.5v0a.719.719,0,0,1-.714.647H111.955a.717.717,0,0,1-.718-.717v-1.89h-1.584l1.566.242a12.521,12.521,0,0,1,2.513-5.968,12.764,12.764,0,0,1,2.987-2.725,16.566,16.566,0,0,1,4.52-2.06c.628-.181,1.152-.294,1.51-.36.179-.033.317-.055.406-.067l.1-.013.018,0h0l-.1-.925.1.925h0l-.1-.925.1.925,1.783-.194-9.3-39.378a13.546,13.546,0,0,1,1.415-9.822l11.785-20.68a1.584,1.584,0,1,0-2.753-1.569l-11.785,20.68a16.716,16.716,0,0,0-1.746,12.119L121.552,529l1.542-.364-.171-1.575a15.553,15.553,0,0,0-2.086.417,19.283,19.283,0,0,0-7.163,3.544,15.268,15.268,0,0,0-3.491,3.988,16.1,16.1,0,0,0-2.1,5.912l-.019.12v2.011a3.886,3.886,0,0,0,3.886,3.886h27.921a3.886,3.886,0,0,0,3.868-3.5v0l1.479-14.785-2.731-34.788v0q-.018-.229-.018-.459a5.887,5.887,0,0,1,1.716-4.153l14.045-14.1a5.714,5.714,0,0,1,8.358.271l13.845,15.829-5.4,25.207,1.242,12.412a3.5,3.5,0,0,0,3.479,3.148h23.191a3.5,3.5,0,0,0,3.5-3.5v-1.69l-.019-.121a13.314,13.314,0,0,0-2.676-6.309,13.51,13.51,0,0,0-3.155-2.884,16.644,16.644,0,0,0-4.554-2.081,13.963,13.963,0,0,0-2.174-.464l-.171,1.575,1.449.641,9.5-21.473a13.062,13.062,0,0,0,.638-8.79l-7.8-28a1.584,1.584,0,0,0-3.052.849Z" transform="translate(-71.32 -302.107)" fill="#156089"/>
    <path id="パス_3123" data-name="パス 3123" d="M309.7,626.84l1.217,13.453a1.912,1.912,0,0,0,1.9,1.724h23.191a1.912,1.912,0,0,0,1.912-1.912v-1.569c-1.446-9.35-11.164-11.7-11.164-11.7Z" transform="translate(-204.391 -413.688)" fill="#156089"/>
    <path id="パス_3124" data-name="パス 3124" d="M265.675,421.91l-1.047-11.144a1.584,1.584,0,1,0-3.155.3l1.047,11.144a1.584,1.584,0,1,0,3.155-.3" transform="translate(-172.556 -270.141)" fill="#156089"/>
    <path id="パス_3125" data-name="パス 3125" d="M258.251,332.457a1.859,1.859,0,0,1-1.881,2.077,2.331,2.331,0,0,1-2.272-2.077,1.859,1.859,0,0,1,1.881-2.077A2.331,2.331,0,0,1,258.251,332.457Z" transform="translate(-167.687 -218.037)" fill="#156089"/>
    <path id="パス_3126" data-name="パス 3126" d="M159.559,260.752l5.521,58.2v0q.035.376.035.74a6.787,6.787,0,0,1-6.957,6.909H145.024a1.938,1.938,0,0,1-.732-.147,2.259,2.259,0,0,1-.929-.712,2.047,2.047,0,0,1-.426-1.055l-5.266-56.055a1.584,1.584,0,1,0-3.154.3l5.266,56.055a5.149,5.149,0,0,0,.556,1.883,5.434,5.434,0,0,0,1.91,2.083,5.181,5.181,0,0,0,2.776.819h13.134a9.953,9.953,0,0,0,10.125-10.078q0-.513-.049-1.036v0l-5.521-58.2a1.584,1.584,0,1,0-3.154.3Z" transform="translate(-88.77 -170.941)" fill="#156089"/>
    <path id="パス_3127" data-name="パス 3127" d="M314.927,186.149l-10.649,24.428a39.506,39.506,0,0,0-3.292,15.789q0,.658.022,1.32l1.419,42.5,0,.048a11.567,11.567,0,0,0,1.25,4.231,12.367,12.367,0,0,0,4.344,4.737,11.652,11.652,0,0,0,6.245,1.849H327.4a4.576,4.576,0,0,0,4.635-4.608q0-.229-.021-.458h0l-5.267-56.07a1.584,1.584,0,1,0-3.154.3l5.267,56.07h0c.005.057.008.112.008.164a1.42,1.42,0,0,1-.409,1.025,1.461,1.461,0,0,1-1.057.415H314.27a8.277,8.277,0,0,1-3.124-.621,9.18,9.18,0,0,1-3.788-2.9,8.594,8.594,0,0,1-1.773-4.427l-1.577.148,1.583-.053-1.417-42.453q-.02-.607-.02-1.213a36.341,36.341,0,0,1,3.028-14.522l10.649-24.428a1.585,1.585,0,0,0-2.905-1.267Z" transform="translate(-198.637 -122.222)" fill="#156089"/>
    <path id="パス_3128" data-name="パス 3128" d="M227.389,412.5h13.794l7.124,7.857,5.2-3.11a1.584,1.584,0,0,0-1.627-2.719l-2.966,1.775-6.322-6.972h-15.2a1.584,1.584,0,1,0,0,3.169Z" transform="translate(-149.02 -270.141)" fill="#156089"/>
    <path id="パス_3129" data-name="パス 3129" d="M94.23,175.753a28.962,28.962,0,0,0-6.969,2.369,21.116,21.116,0,0,0-8.248,7.2,27.27,27.27,0,0,0-3.383,7.313A59.262,59.262,0,0,0,73.5,205.551c-.334,4.592-.411,9.417-.566,14.3l1.584.05-1.556-.3L69.79,236.12,54.827,260.3l13.891,12.149L87.3,246.331a1.584,1.584,0,0,0-2.582-1.837l-16.55,23.26-9.232-8.075,13.857-22.388,3.3-17.218,0-.125c.157-4.988.237-9.851.575-14.379A64.085,64.085,0,0,1,78,196.044a30.6,30.6,0,0,1,2.02-6.064,18.662,18.662,0,0,1,5.39-6.963,22.58,22.58,0,0,1,9.479-4.163,1.584,1.584,0,0,0-.658-3.1Z" transform="translate(-36.183 -115.967)" fill="#156089"/>
    <path id="パス_3130" data-name="パス 3130" d="M314.651,178.855A37.527,37.527,0,0,1,326.4,183.3a35.808,35.808,0,0,1,12.319,12.377,53.729,53.729,0,0,1,6.59,17.812,58.421,58.421,0,0,0,5.632,16.289l1.991,3.755a1.584,1.584,0,1,0,2.8-1.484l-1.991-3.755a55.253,55.253,0,0,1-5.321-15.408c-1.8-9.265-5.265-17.559-10.719-24.056a37.816,37.816,0,0,0-9.683-8.254,40.706,40.706,0,0,0-12.729-4.83,1.585,1.585,0,0,0-.634,3.1Z" transform="translate(-206.819 -115.966)" fill="#156089"/>
    <path id="パス_3131" data-name="パス 3131" d="M427.742,390.021l-4.655,9.2a2.634,2.634,0,0,1-1,1.075,2.715,2.715,0,0,1-1.391.386,2.646,2.646,0,0,1-2.269-1.287A2.715,2.715,0,0,1,418.04,398a2.628,2.628,0,0,1,.285-1.193l4.656-9.2a1.331,1.331,0,1,0-2.375-1.2l-4.655,9.2a5.289,5.289,0,0,0-.572,2.4,5.374,5.374,0,0,0,.764,2.759,5.306,5.306,0,0,0,4.552,2.581,5.376,5.376,0,0,0,2.759-.764,5.3,5.3,0,0,0,2.008-2.157l4.655-9.2a1.331,1.331,0,1,0-2.375-1.2Z" transform="translate(-274.131 -254.531)" fill="#156089"/>
    <path id="パス_3132" data-name="パス 3132" d="M416.432,381.562a8.421,8.421,0,0,0,2.555,2.626,5.472,5.472,0,0,0,2.909.859,5.719,5.719,0,0,0,3.192-1.015,6.894,6.894,0,0,0,2.158-2.362l.012-.021,6.772-13.379a7.5,7.5,0,0,0-3.306-10.085l-18.657-9.445a7.5,7.5,0,0,0-10.085,3.307l-1.093,2.158-5.68,11.221-.01.021a6.908,6.908,0,0,0-.632,2.872,6.112,6.112,0,0,0,.363,2.1,5.294,5.294,0,0,0,2.136,2.663,7.266,7.266,0,0,0,3.973,1.031q.318,0,.647-.019a1.331,1.331,0,0,0-.15-2.658c-.173.01-.339.015-.5.015a5.466,5.466,0,0,1-1.9-.3,3.124,3.124,0,0,1-.889-.5,2.6,2.6,0,0,1-.764-1.021,3.382,3.382,0,0,1-.253-1.321,4.259,4.259,0,0,1,.387-1.757L396.407,366l1.187.6,5.668-11.2,1.093-2.158a4.81,4.81,0,0,1,1.818-1.96,4.872,4.872,0,0,1,2.508-.7,4.816,4.816,0,0,1,2.182.523l18.657,9.445a4.811,4.811,0,0,1,1.96,1.818,4.868,4.868,0,0,1,.7,2.507,4.811,4.811,0,0,1-.523,2.182l-6.761,13.357,1.187.6-1.165-.644a4.245,4.245,0,0,1-1.316,1.443,3.06,3.06,0,0,1-1.7.56,2.8,2.8,0,0,1-1.5-.457,5.793,5.793,0,0,1-1.729-1.816,1.331,1.331,0,1,0-2.232,1.45Z" transform="translate(-260.397 -229.618)" fill="#156089"/>
    <path id="パス_3133" data-name="パス 3133" d="M441.592,397.032l-4.655,9.2a5.3,5.3,0,0,0-.572,2.4,5.378,5.378,0,0,0,.764,2.759,5.307,5.307,0,0,0,4.552,2.581,5.373,5.373,0,0,0,2.759-.764,5.3,5.3,0,0,0,2.009-2.156l4.655-9.2a1.331,1.331,0,1,0-2.375-1.2l-4.655,9.2a2.637,2.637,0,0,1-1,1.075,2.715,2.715,0,0,1-1.391.386,2.644,2.644,0,0,1-2.268-1.287,2.715,2.715,0,0,1-.386-1.391,2.632,2.632,0,0,1,.285-1.194l4.655-9.2a1.331,1.331,0,1,0-2.375-1.2Z" transform="translate(-287.982 -261.543)" fill="#156089"/>
    <path id="パス_3134" data-name="パス 3134" d="M30.768,434.221l-2.978,8.342-3.2,6.385a.989.989,0,0,1-.376.409,1.019,1.019,0,0,1-.524.146.989.989,0,0,1-.474-.121,1.006,1.006,0,0,1-.529-.884.987.987,0,0,1,.029-.237v0l2.039-8.326-11.708,2.817-3.363,5.557a2.289,2.289,0,0,1-.875.847,2.318,2.318,0,0,1-1.1.274,2.382,2.382,0,0,1-1.318-.393,2.263,2.263,0,0,1-.881-1.147l-2.042-5.7a5,5,0,0,1,.706-4.685l3.011-4.015a5.818,5.818,0,0,1,3.077-2.11l10.87-3.063a1.584,1.584,0,0,0-.859-3.05L9.4,428.332a8.986,8.986,0,0,0-4.753,3.259l-3.011,4.015A8.165,8.165,0,0,0,.48,443.261l2.042,5.7a5.444,5.444,0,0,0,2.106,2.715A5.551,5.551,0,0,0,7.7,452.6a5.433,5.433,0,0,0,4.689-2.65l2.679-4.427,5.368-1.291-.8,3.276v0a4.173,4.173,0,0,0,7.783,2.866l3.289-6.558,3.043-8.524a1.584,1.584,0,1,0-2.984-1.065Z" transform="translate(0 -280.62)" fill="#156089"/>
    <path id="パス_3135" data-name="パス 3135" d="M230.464,253.919c1.974,4.339,3.631,7.753,5,10.923l-2.5,22.679,3.439,6.652a1.779,1.779,0,0,0,3.052.189c1.448-2.125,3.352-4.919,3.66-5.364.505-.732.525-23.052.525-23.052l8.883-21.713a27.727,27.727,0,0,1-4.59,4.353c-1.532,1.005-5.112,8.763-6.91,12.823a1.145,1.145,0,0,1-2.106-.033l-3.453-8.309-5,.853" transform="translate(-152.096 -161.183)" fill="#156089"/>
    <path id="パス_3136" data-name="パス 3136" d="M374.8,358.1a52.847,52.847,0,0,0,2.692,4.792c1.082,1.738,2.32,3.578,3.628,5.393a1.453,1.453,0,0,0,2.357-1.7c-1.272-1.764-2.476-3.554-3.518-5.229a50.145,50.145,0,0,1-2.541-4.518A1.453,1.453,0,0,0,374.8,358.1Z" transform="translate(-247.258 -234.955)" fill="#156089"/>
    <path id="パス_3137" data-name="パス 3137" d="M179.009,533.5l-.988-.892-2.308,2.556-1.2-3H169.63l1.3-2.564-1.2-6.387-.81-3.546,3.676-3.531.106.343.1.315,3.779,3.779,4.373-4.522,1.307,3.079v1.507h1.331l-.891-.989c-.017.016-.815.735-1.777,1.752-.481.509-1,1.092-1.494,1.706a13.109,13.109,0,0,0-1.305,1.922,9.672,9.672,0,0,0-1.044,4.574,14.849,14.849,0,0,0,.326,3.023,12.113,12.113,0,0,0,.34,1.3l1.261-.428-.988-.892.988.892,1.26-.428-.379.129.379-.127v0l-.379.129.379-.127a12.245,12.245,0,0,1-.525-3.466,7.046,7.046,0,0,1,.728-3.317,10.578,10.578,0,0,1,1.039-1.518,27.4,27.4,0,0,1,1.978-2.185c.293-.293.545-.536.723-.7.088-.084.158-.148.205-.191l.053-.048.013-.011,0,0,.44-.4v-2.641l-3.089-7.277-5.285,5.465-1.4-1.4-1.285-4.15L166,518.795l1.133,4.962,1.021,5.447-2.858,5.625h7.418l2.124,5.281,5.687-6.3-.251-.74Z" transform="translate(-109.085 -337.391)" fill="#156089"/>
    <path id="パス_3138" data-name="パス 3138" d="M196.829,77.522A27.742,27.742,0,0,0,189.455,66.1a28.561,28.561,0,0,0-11.279-6.449,27.942,27.942,0,0,0-13.71-.537,38.5,38.5,0,0,0-4.642,1.327,27.821,27.821,0,0,0-6.225,3.1,28.214,28.214,0,0,0-12.428,21.213,29.157,29.157,0,0,0,1.259,10.714l2.974,9.9c.211.7.418,1.4.632,2.1a1.4,1.4,0,0,0,.935.982,1.422,1.422,0,0,0,1.687-.825c.63-1.146,1.391-2.216,2.051-3.346a17.275,17.275,0,0,0,1.917-4.4,9.64,9.64,0,0,0-.129-5.248,15.335,15.335,0,0,0-2.63-5.108c-.1-.132-.031-.187.048-.322.054-.094.111-.187.17-.277a3.1,3.1,0,0,1,.322-.416,3.3,3.3,0,0,1,.855-.622c1.4-.76,2.865-1.382,4.253-2.165a35.818,35.818,0,0,0,10.091-9.289q.251-.319.5-.641c.061-.08.161-.279.245-.321s.267.136.367.206q.666.465,1.366.876a16.867,16.867,0,0,0,3.066,1.417,2.83,2.83,0,0,0,2.434-.162,2.766,2.766,0,0,0,1.322-1.962c.135-.9.223-1.808.335-2.709l.19-1.542a1.53,1.53,0,0,1,.526-1.153c.85-.639,1.757.124,2.493.569.994.6,1.973,1.228,2.926,1.893a25.4,25.4,0,0,1,4.814,4.151,9.907,9.907,0,0,1,1.456,2.158,3.443,3.443,0,0,1,.143,1.239,14.874,14.874,0,0,0,.184,1.482,11.077,11.077,0,0,0,2.237,5.307c2.018,2.412,4.957,3.615,7.737,4.9a4.385,4.385,0,0,0,1.671.667,1.393,1.393,0,0,0,1.352-1.3,2.211,2.211,0,0,0-.145-.756l-.311-1.035-3.037-10.105C197.268,78.918,197.064,78.215,196.829,77.522Z" transform="translate(-93.114 -38.609)" fill="#156089"/>
    <path id="パス_3139" data-name="パス 3139" d="M214.032,171.2a16.759,16.759,0,0,1,.69,4.833,23.689,23.689,0,0,1-4.948,13.869,24.827,24.827,0,0,1-12.5,9,22.831,22.831,0,0,1-6.572.943,26.556,26.556,0,0,1-14.2-4.211,22.547,22.547,0,0,1-5.306-4.708,17.325,17.325,0,0,1-3.177-5.9,1.512,1.512,0,1,0-2.9.871,20.341,20.341,0,0,0,3.722,6.929,26.76,26.76,0,0,0,9.635,7.33,29.474,29.474,0,0,0,12.222,2.711,25.849,25.849,0,0,0,7.443-1.071A27.833,27.833,0,0,0,212.2,191.718a26.688,26.688,0,0,0,5.551-15.68,19.788,19.788,0,0,0-.818-5.7,1.512,1.512,0,0,0-2.9.869Z" transform="translate(-108.928 -111.703)" fill="#156089"/>
    <path id="パス_3140" data-name="パス 3140" d="M148.186,189.828a7.417,7.417,0,1,1-4.27-14.206l-.87-2.9a10.441,10.441,0,1,0,6.01,20l-.871-2.9Z" transform="translate(-89.495 -113.992)" fill="#156089"/>
    <path id="パス_3141" data-name="パス 3141" d="M304.574,149.389h.222l.213-.064a10.441,10.441,0,1,0-6.011-20l.872,2.9a7.417,7.417,0,1,1,4.269,14.206l.435,1.448v-1.512h0v3.024Z" transform="translate(-197.326 -85.057)" fill="#156089"/>
    <path id="パス_3142" data-name="パス 3142" d="M241.367,200.609a.724.724,0,0,0-.417-1.386l-2.025.609a1.326,1.326,0,0,1-1.337-.351l-.289-.3a.342.342,0,0,0-.574.336l.407,1.355a.968.968,0,0,0,1.205.648Z" transform="translate(-156.218 -131.38)" fill="#156089"/>
    <path id="パス_3143" data-name="パス 3143" d="M249.452,221.084c-.659-.988-2.078-2.566-4.135-1.948s-2.37,2.716-2.376,3.9a.631.631,0,0,0,.814.609l2.676-.8,2.676-.8A.631.631,0,0,0,249.452,221.084Z" transform="translate(-160.331 -144.528)" fill="#156089"/>
    <path id="パス_3144" data-name="パス 3144" d="M250.383,130.076l-2.95.887a1.276,1.276,0,0,0,.734,2.444l2.95-.886a1.276,1.276,0,0,0-.734-2.445Z" transform="translate(-162.695 -85.809)" fill="#156089"/>
    <path id="パス_3145" data-name="パス 3145" d="M195.3,146.633l-2.95.887a1.276,1.276,0,1,0,.735,2.444l2.95-.886a1.276,1.276,0,0,0-.734-2.445Z" transform="translate(-126.344 -96.736)" fill="#156089"/>
    <path id="パス_3146" data-name="パス 3146" d="M254.606,154.83h-.872a4.015,4.015,0,1,1-1.176-2.839,4,4,0,0,1,1.176,2.839h1.743a5.758,5.758,0,1,0-5.758,5.759,5.759,5.759,0,0,0,5.758-5.759Z" transform="translate(-161.003 -98.381)" fill="#156089"/>
    <path id="パス_3147" data-name="パス 3147" d="M204.5,175.257a4.887,4.887,0,1,1-4.887-4.887A4.887,4.887,0,0,1,204.5,175.257Z" transform="translate(-128.511 -112.437)" fill="#156089"/>
    <path id="パス_3148" data-name="パス 3148" d="M197.051,222.727a1.162,1.162,0,1,1-1.162-1.162A1.162,1.162,0,0,1,197.051,222.727Z" transform="translate(-128.511 -146.224)" fill="#156089"/>
    <path id="パス_3149" data-name="パス 3149" d="M212.8,233.242a.482.482,0,1,1-.482-.482A.481.481,0,0,1,212.8,233.242Z" transform="translate(-139.804 -153.612)" fill="#156089"/>
    <path id="パス_3150" data-name="パス 3150" d="M211.153,216.362a1.766,1.766,0,1,1-1.766-1.766A1.765,1.765,0,0,1,211.153,216.362Z" transform="translate(-137.021 -141.624)" fill="#156089"/>
    <path id="パス_3151" data-name="パス 3151" d="M273.207,196.865a2.189,2.189,0,1,1-2.189-2.189A2.189,2.189,0,0,1,273.207,196.865Z" transform="translate(-177.416 -128.478)" fill="#156089"/>
    <path id="パス_3152" data-name="パス 3152" d="M283.468,215.48a.883.883,0,1,1-.883-.883A.883.883,0,0,1,283.468,215.48Z" transform="translate(-185.911 -141.625)" fill="#156089"/>
    <path id="パス_3153" data-name="パス 3153" d="M295.873,191.771a1.914,1.914,0,1,1-1.913-1.914A1.914,1.914,0,0,1,295.873,191.771Z" transform="translate(-192.737 -125.298)" fill="#156089"/>
    <path id="パス_3154" data-name="パス 3154" d="M297.141,212.765a.907.907,0,1,1-.907-.907A.907.907,0,0,1,297.141,212.765Z" transform="translate(-194.903 -139.817)" fill="#156089"/>
    <path id="パス_3155" data-name="パス 3155" d="M123.137,56.856c-4.448.779-17.608-17.828-7.625-29.173S127.2,8.169,127.2,8.169s4.392,5.367,5.75,11.064c1.17-1.08,18.284-14.695,18.8-19.232,8.687,9.53,7.736,19.232,7.736,19.232l3.052-10.156s12.848,9.278,10.592,21.657l4.624-5.089s2.688,10.657.432,15.365-13.87-12.245-13.87-12.245S126.678,24.764,123.137,56.856Z" transform="translate(-73.821)" fill="#156089"/>
  </g>
</svg>
