<svg xmlns="http://www.w3.org/2000/svg" width="280" height="200" viewBox="0 0 280 200">
  <g id="グループ_136" data-name="グループ 136" transform="translate(-128 -833)">
    <g id="j32_3_16" transform="translate(161.83 864.496)">
      <path id="パス_8" data-name="パス 8" d="M253.244,130.354V32a15.586,15.586,0,0,0-15.556-15.579H110.673A15.586,15.586,0,0,0,95.117,32v98.356" transform="translate(-67.065 -11.577)" fill="#ffb64b"/>
      <path id="パス_9" data-name="パス 9" d="M123.938,142.586V52.35a7.062,7.062,0,0,1,7.056-7.067H258.009a7.062,7.062,0,0,1,7.056,7.067v90.236Z" transform="translate(-87.387 -31.928)" fill="#20ab9a"/>
      <path id="パス_10" data-name="パス 10" d="M264.509,202.434l-141.36.852v-72.27l141.36-.852Z" transform="translate(-86.83 -91.776)" fill="#fff"/>
      <ellipse id="楕円形_32" data-name="楕円形 32" cx="2.566" cy="2.57" rx="2.566" ry="2.57" transform="translate(48.179 22.96)" fill="#ff7373"/>
      <path id="パス_11" data-name="パス 11" d="M206.055,80.422a2.567,2.567,0,1,1-2.567-2.57A2.569,2.569,0,0,1,206.055,80.422Z" transform="translate(-141.667 -54.892)" fill="#43caff"/>
      <path id="パス_12" data-name="パス 12" d="M243.614,80.422a2.567,2.567,0,1,1-2.566-2.57A2.568,2.568,0,0,1,243.614,80.422Z" transform="translate(-168.149 -54.892)" fill="#edff87"/>
      <path id="パス_13" data-name="パス 13" d="M370.069,81.789h-72.3a3.487,3.487,0,0,1,0-6.975h72.3a3.487,3.487,0,0,1,0,6.975Z" transform="translate(-207.5 -52.75)" fill="#fff"/>
      <rect id="長方形_125" data-name="長方形 125" width="27.165" height="16.817" transform="translate(49.2 71.816)" fill="#4287c6"/>
      <rect id="長方形_126" data-name="長方形 126" width="27.165" height="16.817" transform="translate(92.91 71.816)" fill="#4287c6"/>
      <rect id="長方形_127" data-name="長方形 127" width="27.165" height="16.817" transform="translate(135.139 71.816)" fill="#4287c6"/>
      <rect id="長方形_128" data-name="長方形 128" width="13.582" height="12.613" transform="translate(52.163 50.547)" fill="#4287c6"/>
      <path id="パス_14" data-name="パス 14" d="M148.1,400.457v4.33H107.484v-4.33H25.36V403.6a7.4,7.4,0,0,0,3.358,6.2l3,1.956a22.28,22.28,0,0,0,12.157,3.609H211.7a22.279,22.279,0,0,0,12.157-3.609l3-1.956a7.394,7.394,0,0,0,3.359-6.2v-3.144Z" transform="translate(-17.881 -282.355)" fill="#ffe7ab"/>
      <path id="パス_15" data-name="パス 15" d="M251.66,128.649V37.171a8.3,8.3,0,0,0-8.3-8.308H116.35a8.3,8.3,0,0,0-8.3,8.308v91.477H251.66ZM110.533,37.171a5.821,5.821,0,0,1,5.817-5.826H243.364a5.821,5.821,0,0,1,5.817,5.826v14.6H110.533Zm0,17.079H249.181v71.916H110.533Z" transform="translate(-76.187 -20.351)" fill="#3e485c"/>
      <path id="パス_16" data-name="パス 16" d="M151.285,61.432a3.812,3.812,0,1,0,3.806,3.812A3.809,3.809,0,0,0,151.285,61.432Zm0,5.141a1.329,1.329,0,1,1,1.327-1.329A1.33,1.33,0,0,1,151.285,66.573Z" transform="translate(-103.985 -43.315)" fill="#3e485c"/>
      <path id="パス_17" data-name="パス 17" d="M188.844,61.432a3.812,3.812,0,1,0,3.806,3.812A3.809,3.809,0,0,0,188.844,61.432Zm0,5.141a1.329,1.329,0,1,1,1.327-1.329A1.331,1.331,0,0,1,188.844,66.573Z" transform="translate(-130.467 -43.315)" fill="#3e485c"/>
      <path id="パス_18" data-name="パス 18" d="M226.4,61.432a3.812,3.812,0,1,0,3.806,3.812A3.809,3.809,0,0,0,226.4,61.432Zm0,5.141a1.329,1.329,0,1,1,1.327-1.329A1.33,1.33,0,0,1,226.4,66.573Z" transform="translate(-156.949 -43.315)" fill="#3e485c"/>
      <path id="パス_19" data-name="パス 19" d="M355.424,58.394h-72.3a4.729,4.729,0,0,0,0,9.457h72.3a4.729,4.729,0,0,0,0-9.457Zm1.583,6.314a2.23,2.23,0,0,1-1.583.661h-72.3a2.246,2.246,0,0,1,0-4.492h72.3a2.242,2.242,0,0,1,1.583,3.831Z" transform="translate(-196.299 -41.173)" fill="#3e485c"/>
      <path id="パス_20" data-name="パス 20" d="M207.34,114.7H183.973V16.821A16.825,16.825,0,0,0,167.177,0H40.163a16.825,16.825,0,0,0-16.8,16.821V114.7H0v4.385a8.636,8.636,0,0,0,3.922,7.238l3,1.956a23.521,23.521,0,0,0,12.832,3.809H187.581a23.516,23.516,0,0,0,12.832-3.81l3-1.955a8.637,8.637,0,0,0,3.922-7.238V114.7ZM30.044,6.688a14.256,14.256,0,0,1,10.119-4.2H167.177a14.346,14.346,0,0,1,14.317,14.338V114.7H122.737v4.33H84.6V114.7H25.846V16.821A14.3,14.3,0,0,1,30.044,6.688Zm174.817,112.4a6.153,6.153,0,0,1-2.794,5.156l-3,1.955a21.041,21.041,0,0,1-11.481,3.409H19.759A21.041,21.041,0,0,1,8.278,126.2l-3-1.956a6.151,6.151,0,0,1-2.794-5.156v-1.9H82.124v4.33h43.092v-4.33h79.645v1.9Z" fill="#3e485c"/>
      <rect id="長方形_129" data-name="長方形 129" width="26.957" height="2.32" transform="translate(47.305 88.757)" fill="#3e485c"/>
      <rect id="長方形_130" data-name="長方形 130" width="26.957" height="2.32" transform="translate(47.305 96.119)" fill="#3e485c"/>
      <rect id="長方形_131" data-name="長方形 131" width="26.957" height="2.32" transform="translate(133.078 88.757)" fill="#3e485c"/>
      <rect id="長方形_132" data-name="長方形 132" width="26.957" height="2.32" transform="translate(133.078 96.119)" fill="#3e485c"/>
      <rect id="長方形_133" data-name="長方形 133" width="26.957" height="2.32" transform="translate(90.927 88.757)" fill="#3e485c"/>
      <rect id="長方形_134" data-name="長方形 134" width="26.957" height="2.32" transform="translate(90.927 96.119)" fill="#3e485c"/>
      <path id="パス_21" data-name="パス 21" d="M156.473,231.149h29.274V212.877H156.473ZM158.79,215.2h24.64v13.632H158.79Z" transform="translate(-110.326 -150.096)" fill="#3e485c"/>
      <path id="パス_22" data-name="パス 22" d="M447.31,231.149h29.273V212.877H447.31Zm2.317-15.953h24.64v13.632h-24.64Z" transform="translate(-315.391 -150.096)" fill="#3e485c"/>
      <path id="パス_23" data-name="パス 23" d="M304.384,231.149h29.274V212.877H304.384ZM306.7,215.2h24.64v13.632H306.7V215.2Z" transform="translate(-214.616 -150.096)" fill="#3e485c"/>
      <path id="パス_24" data-name="パス 24" d="M178.251,151.242v-13.1H162.859V152.4h15.392Zm-13.075-1.161v-9.618h10.758v9.618Z" transform="translate(-114.829 -97.402)" fill="#3e485c"/>
      <rect id="長方形_135" data-name="長方形 135" width="16.536" height="2.32" transform="translate(81.107 45.747)" fill="#3e485c"/>
      <rect id="長方形_136" data-name="長方形 136" width="16.536" height="2.32" transform="translate(111.488 45.747)" fill="#3e485c"/>
      <rect id="長方形_137" data-name="長方形 137" width="16.537" height="2.32" transform="translate(141.869 45.747)" fill="#3e485c"/>
    </g>
    <rect id="長方形_156" data-name="長方形 156" width="280" height="200" transform="translate(128 833)" fill="none"/>
  </g>
</svg>
