<svg xmlns="http://www.w3.org/2000/svg" width="280" height="200" viewBox="0 0 280 200">
  <g id="グループ_2781" data-name="グループ 2781" transform="translate(-128 -1349)">
    <g id="グループ_242" data-name="グループ 242">
      <g id="グループ_238" data-name="グループ 238" transform="translate(278.761 1404.608)">
        <path id="パス_100" data-name="パス 100" d="M24.41,0h0A24.494,24.494,0,0,0,0,24.435V54.694a24.41,24.41,0,1,0,48.819,0V24.435A24.494,24.494,0,0,0,24.41,0Z" transform="matrix(-0.883, 0.469, -0.469, -0.883, 102.065, 101.38)" fill="#2ba7c8"/>
        <path id="パス_101" data-name="パス 101" d="M3.309,0h0A3.321,3.321,0,0,0,0,3.313V14.3a3.309,3.309,0,1,0,6.619,0V3.313A3.321,3.321,0,0,0,3.309,0Z" transform="matrix(-0.883, 0.469, -0.469, -0.883, 60.992, 71.717)" fill="#ffb64b"/>
        <path id="パス_102" data-name="パス 102" d="M4.614,1.306V2.612A2.016,2.016,0,0,0,2.609,4.619V15.61a2.005,2.005,0,0,0,4.01,0V4.619A2.016,2.016,0,0,0,4.614,2.612V0A4.626,4.626,0,0,1,9.228,4.619V15.61A4.614,4.614,0,0,1,0,15.61V4.619A4.626,4.626,0,0,1,4.614,0Z" transform="matrix(-0.883, 0.469, -0.469, -0.883, 58.802, 70.135)" fill="#3e485c"/>
        <path id="パス_103" data-name="パス 103" d="M43.876,74.181a25.644,25.644,0,0,1-16.857,7.527V91.729a3.962,3.962,0,0,0,.433,1.8,5.226,5.226,0,0,0,2.121,2.146,6.973,6.973,0,0,0,3.436.876,9.326,9.326,0,0,1,6,2.1A7.5,7.5,0,0,1,40.9,101a6.579,6.579,0,0,1,.713,2.972v8.573H39v-8.573a3.962,3.962,0,0,0-.433-1.8,5.225,5.225,0,0,0-2.121-2.146,6.972,6.972,0,0,0-3.436-.876,9.326,9.326,0,0,1-6-2.1,7.5,7.5,0,0,1-1.89-2.359,6.579,6.579,0,0,1-.713-2.972V81.708A25.807,25.807,0,0,1,0,56V25.741a25.714,25.714,0,0,1,51.428,0V56A25.68,25.68,0,0,1,43.876,74.181Zm4.943-48.44a23.105,23.105,0,0,0-46.21,0V56a23.1,23.1,0,0,0,46.21,0V25.741Z" transform="matrix(-0.883, 0.469, -0.469, -0.883, 98.247, 99.374)" fill="#3e485c"/>
      </g>
      <g id="グループ_241" data-name="グループ 241">
        <g id="グループ_240" data-name="グループ 240">
          <g id="グループ_209" data-name="グループ 209" transform="translate(0 516)">
            <rect id="長方形_156" data-name="長方形 156" width="280" height="200" transform="translate(128 833)" fill="none"/>
          </g>
        </g>
      </g>
    </g>
    <circle id="楕円形_52" data-name="楕円形 52" cx="30" cy="30" r="30" transform="translate(180 1389)" fill="#df7c8f"/>
    <g id="楕円形_51" data-name="楕円形 51" transform="translate(174 1384)" fill="none" stroke="#3e485c" stroke-width="3">
      <circle cx="30" cy="30" r="30" stroke="none"/>
      <circle cx="30" cy="30" r="28.5" fill="none"/>
    </g>
    <path id="多角形_6" data-name="多角形 6" d="M31,0,62,53H0Z" transform="translate(238.499 1416.594) rotate(17)" fill="#20ab9a"/>
    <g id="多角形_5" data-name="多角形 5" transform="translate(232.503 1409.108) rotate(17)" fill="none">
      <path d="M31,0,62,53H0Z" stroke="none"/>
      <path d="M 31.00000190734863 5.941967010498047 L 5.230209350585938 50 L 56.76979446411133 50 L 31.00000190734863 5.941967010498047 M 31.00000190734863 0 L 62 53 L 3.814697265625e-06 53 L 31.00000190734863 0 Z" stroke="none" fill="#3e485c"/>
    </g>
    <path id="パス_1158" data-name="パス 1158" d="M0,0H44V44H0Z" transform="matrix(0.951, -0.309, 0.309, 0.951, 171.56, 1482.705)" fill="#ffb64b"/>
    <g id="パス_1121" data-name="パス 1121" transform="matrix(0.951, -0.309, 0.309, 0.951, 164.56, 1478.705)" fill="none">
      <path d="M0,0H44V44H0Z" stroke="none"/>
      <path d="M 3 3 L 3 41 L 41 41 L 41 3 L 3 3 M 0 0 L 44 0 L 44 44 L 0 44 L 0 0 Z" stroke="none" fill="#3e485c"/>
    </g>
  </g>
</svg>
