<svg xmlns="http://www.w3.org/2000/svg" width="280" height="200" viewBox="0 0 280 200">
  <g id="グループ_139" data-name="グループ 139" transform="translate(-500 -833)">
    <rect id="長方形_157" data-name="長方形 157" width="280" height="200" transform="translate(500 833)" fill="none"/>
    <g id="j32_1_16" transform="translate(541.346 866)">
      <path id="パス_335" data-name="パス 335" d="M9.206,30.133V11.728c0-1.092,3.241-4.333,7.239-4.333h130.3c4,0,7.239,3.241,7.239,4.333V30.133H9.206Z" transform="translate(-3.192 -2.784)" fill="#ffb64b"/>
      <path id="パス_336" data-name="パス 336" d="M145.619,202.9H15.467a7.43,7.43,0,0,1-7.43-7.431V119.4l145.012-.873v76.948A7.43,7.43,0,0,1,145.619,202.9Z" transform="translate(-2.262 -90.143)" fill="#fff"/>
      <path id="パス_337" data-name="パス 337" d="M72.766,58.119a2.633,2.633,0,1,1-2.633-2.633A2.633,2.633,0,0,1,72.766,58.119Z" transform="translate(-51.624 -43.101)" fill="#ff7373"/>
      <path id="パス_338" data-name="パス 338" d="M128.3,58.119a2.633,2.633,0,1,1-2.633-2.633A2.633,2.633,0,0,1,128.3,58.119Z" transform="translate(-95.798 -43.101)" fill="#43caff"/>
      <path id="パス_339" data-name="パス 339" d="M183.839,58.119a2.633,2.633,0,1,1-2.633-2.633A2.633,2.633,0,0,1,183.839,58.119Z" transform="translate(-139.971 -43.101)" fill="#edff87"/>
      <path id="パス_340" data-name="パス 340" d="M338.83,58.145H264.666a3.572,3.572,0,0,1,0-7.145H338.83a3.572,3.572,0,0,1,0,7.145Z" transform="translate(-207.673 -40.565)" fill="#fff"/>
      <rect id="長方形_160" data-name="長方形 160" width="116.937" height="37.159" transform="translate(19.049 39.442)" fill="#4287c6"/>
      <path id="パス_341" data-name="パス 341" d="M8.51,109.464h130.3a8.511,8.511,0,0,0,8.51-8.511V8.511A8.511,8.511,0,0,0,138.806,0H8.51A8.51,8.51,0,0,0,0,8.511v92.442A8.511,8.511,0,0,0,8.51,109.464ZM2.543,8.511A5.968,5.968,0,0,1,8.51,2.543h130.3a5.968,5.968,0,0,1,5.967,5.968V23.465H2.543Zm0,17.5h142.23v74.945a5.968,5.968,0,0,1-5.967,5.968H8.51a5.968,5.968,0,0,1-5.967-5.968V26.008Z" fill="#3e485c"/>
      <path id="パス_342" data-name="パス 342" d="M62.2,48.094A3.9,3.9,0,1,0,66.1,52,3.9,3.9,0,0,0,62.2,48.094Zm0,5.266A1.362,1.362,0,1,1,63.56,52,1.364,1.364,0,0,1,62.2,53.36Z" transform="translate(-46.367 -38.254)" fill="#3e485c"/>
      <path id="パス_343" data-name="パス 343" d="M117.736,48.094a3.9,3.9,0,1,0,3.9,3.9A3.9,3.9,0,0,0,117.736,48.094Zm0,5.266A1.362,1.362,0,1,1,119.1,52,1.364,1.364,0,0,1,117.736,53.36Z" transform="translate(-90.541 -38.254)" fill="#3e485c"/>
      <path id="パス_344" data-name="パス 344" d="M173.271,48.094a3.9,3.9,0,1,0,3.9,3.9A3.9,3.9,0,0,0,173.271,48.094Zm0,5.266A1.362,1.362,0,1,1,174.633,52,1.364,1.364,0,0,1,173.271,53.36Z" transform="translate(-134.714 -38.254)" fill="#3e485c"/>
      <path id="パス_345" data-name="パス 345" d="M330.894,43.606H256.73a4.844,4.844,0,0,0,0,9.688h74.164a4.844,4.844,0,0,0,0-9.688Zm1.624,6.468a2.29,2.29,0,0,1-1.624.677H256.73a2.3,2.3,0,0,1,0-4.6h74.164a2.3,2.3,0,0,1,1.624,3.925Z" transform="translate(-200.349 -34.684)" fill="#3e485c"/>
      <path id="パス_346" data-name="パス 346" d="M186.038,167.438H65.547V207.19H186.038Zm-2.376,37.375H67.923v-35H183.661v35Z" transform="translate(-52.136 -133.179)" fill="#3e485c"/>
      <path id="パス_347" data-name="パス 347" d="M360.193,227.849A11.614,11.614,0,0,1,363.9,223.6a9.342,9.342,0,0,1,4.45-1.8l.919-.067.164-.907a9.744,9.744,0,0,1,18.414-2.388l.311.663.733.02a10.643,10.643,0,0,1,7.308,3.72,12.926,12.926,0,0,1,3.421,8.61H402a15.3,15.3,0,0,0-4.039-10.209,13.219,13.219,0,0,0-8.275-4.432,12.112,12.112,0,0,0-22.394,2.737,11.111,11.111,0,0,0-2.909,1,14.6,14.6,0,0,0-5.1,4.265,11.128,11.128,0,0,0-2.334,6.638h2.377A8.159,8.159,0,0,1,360.193,227.849Z" transform="translate(-283.913 -167.388)" fill="#3e485c"/>
      <path id="パス_348" data-name="パス 348" d="M240.63,242.082h1.843v-3.137h3.309V237.1h-3.309v-3.137H240.63V237.1h-3.309v1.844h3.309Z" transform="translate(-188.764 -186.094)" fill="#3e485c"/>
      <path id="パス_349" data-name="パス 349" d="M152.008,277.324h-1.7v2.889h-3.048v1.7h3.048v2.89h1.7v-2.89h3.048v-1.7h-3.048Z" transform="translate(-117.132 -220.582)" fill="#3e485c"/>
      <path id="パス_350" data-name="パス 350" d="M146.016,207.818h1.7v-2.89h3.048v-1.7h-3.048v-2.889h-1.7v2.889h-3.048v1.7h3.048Z" transform="translate(-113.716 -159.351)" fill="#3e485c"/>
      <rect id="長方形_161" data-name="長方形 161" width="27.654" height="2.377" transform="translate(14.6 82.612)" fill="#3e485c"/>
      <rect id="長方形_162" data-name="長方形 162" width="27.654" height="2.377" transform="translate(14.6 90.154)" fill="#3e485c"/>
      <rect id="長方形_163" data-name="長方形 163" width="27.654" height="2.377" transform="translate(102.588 82.612)" fill="#3e485c"/>
      <rect id="長方形_164" data-name="長方形 164" width="27.654" height="2.377" transform="translate(102.588 90.154)" fill="#3e485c"/>
      <rect id="長方形_165" data-name="長方形 165" width="27.654" height="2.377" transform="translate(59.348 82.612)" fill="#3e485c"/>
      <rect id="長方形_166" data-name="長方形 166" width="27.654" height="2.377" transform="translate(59.348 90.154)" fill="#3e485c"/>
    </g>
    <g id="グループ_208" data-name="グループ 208" transform="translate(662.845 963.072)">
      <g id="j79_12_1" transform="translate(7.229 5.163)">
        <path id="パス_392" data-name="パス 392" d="M19.76,32.842,8.115,19.315,19.76,5.789a3.5,3.5,0,1,0-5.3-4.572L.848,17.029a3.507,3.507,0,0,0,0,4.572L14.461,37.414a3.5,3.5,0,1,0,5.3-4.572Z" transform="translate(0 -0.001)" fill="#f3a185"/>
        <path id="パス_393" data-name="パス 393" d="M529.864,5.788l11.645,13.526L529.864,32.841a3.5,3.5,0,1,0,5.3,4.573L548.776,21.6a3.507,3.507,0,0,0,0-4.572L535.163,1.216a3.5,3.5,0,1,0-5.3,4.572Z" transform="translate(-471.934 0)" fill="#f3a185"/>
        <path id="パス_394" data-name="パス 394" d="M282.329,16.719,269.6,45.182a3.5,3.5,0,1,0,6.384,2.863l12.732-28.463a3.5,3.5,0,1,0-6.384-2.863" transform="translate(-240.234 -13.067)" fill="#f3a185"/>
      </g>
      <g id="j79_12_1-2" data-name="j79_12_1" transform="translate(0 0)">
        <path id="パス_392-2" data-name="パス 392" d="M19.76,32.842,8.115,19.315,19.76,5.789a3.5,3.5,0,1,0-5.3-4.572L.848,17.029a3.507,3.507,0,0,0,0,4.572L14.461,37.414a3.5,3.5,0,1,0,5.3-4.572Z" transform="translate(0 -0.001)" fill="#3e485c"/>
        <path id="パス_393-2" data-name="パス 393" d="M529.864,5.788l11.645,13.526L529.864,32.841a3.5,3.5,0,1,0,5.3,4.573L548.776,21.6a3.507,3.507,0,0,0,0-4.572L535.163,1.216a3.5,3.5,0,1,0-5.3,4.572Z" transform="translate(-471.934 0)" fill="#3e485c"/>
        <path id="パス_394-2" data-name="パス 394" d="M282.329,16.719,269.6,45.182a3.5,3.5,0,1,0,6.384,2.863l12.732-28.463a3.5,3.5,0,1,0-6.384-2.863" transform="translate(-240.234 -13.067)" fill="#3e485c"/>
      </g>
    </g>
  </g>
</svg>
