<svg xmlns="http://www.w3.org/2000/svg" width="280" height="200" viewBox="0 0 280 200">
  <g id="グループ_2779" data-name="グループ 2779" transform="translate(-872 -1349)">
    <g id="グループ_2548" data-name="グループ 2548">
      <g id="グループ_211" data-name="グループ 211" transform="translate(744 516)">
        <rect id="長方形_156" data-name="長方形 156" width="280" height="200" transform="translate(128 833)" fill="none"/>
      </g>
      <g id="グループ_2547" data-name="グループ 2547" transform="translate(18251.678 1108.755)">
        <rect id="長方形_251" data-name="長方形 251" width="98.843" height="4.636" transform="translate(-17222.541 385.05)" fill="#ffb64b"/>
        <path id="パス_1210" data-name="パス 1210" d="M135.792,546.308c0,1.077-5,28.556-5,28.556H48.262s-5-27.479-5-28.556Z" transform="translate(-17262.645 -156.622)" fill="#4287c6"/>
        <path id="前面オブジェクトで型抜き_8" data-name="前面オブジェクトで型抜き 8" d="M92.725,35.254H8.341l-.166-.912c0-.006-.893-4.909-1.885-10.439C4.943,16.4,4.017,11.125,3.537,8.231,3.43,7.584,3.35,7.082,3.291,6.7H0V0H101.066V6.7H97.775c-.028.181-.059.377-.094.6-.13.81-.321,1.952-.568,3.393-.416,2.418-.995,5.706-1.72,9.772-1.248,6.991-2.494,13.838-2.5,13.878l-.166.912ZM5.54,6.7c.1.643.248,1.53.436,2.637.336,1.973.813,4.706,1.42,8.121,1.084,6.105,2.285,12.738,2.751,15.307l.049.271H90.87l.028-.153.372-2.055c.3-1.682.783-4.328,1.331-7.381.93-5.18,2.161-12.1,2.749-15.658.071-.431.129-.787.176-1.088H5.54ZM2.223,2.061V4.477H98.843V2.061H28.808a1.036,1.036,0,0,1-.591,0Z" transform="translate(-17226.727 381.536)" fill="#3e485c"/>
        <rect id="長方形_253" data-name="長方形 253" width="8.028" height="12.81" rx="4.014" transform="matrix(0.848, -0.53, 0.53, 0.848, -17164.313, 344.499)" fill="#3e485c"/>
        <path id="パス_1215" data-name="パス 1215" d="M-16803.074,437.2l-2.385-.181c.926-12.188-5.615-29.468-5.682-29.641l2.234-.854C-16808.629,407.248-16802.109,424.479-16803.074,437.2Z" transform="translate(-344.605 -54.956)" fill="#3e485c"/>
      </g>
    </g>
    <g id="グループ_2550" data-name="グループ 2550" transform="translate(-210.104 283.481) rotate(-11)">
      <g id="j32_3_1" transform="translate(855.362 1311.422)">
        <path id="パス_1215-2" data-name="パス 1215" d="M214.461,101.551V29.023a11.507,11.507,0,0,0-11.5-11.488h-93.9a11.507,11.507,0,0,0-11.5,11.488v72.528" transform="translate(-76.289 -13.712)" fill="#e96f45"/>
        <path id="パス_1216" data-name="パス 1216" d="M126.381,118.076V51.536a5.214,5.214,0,0,1,5.217-5.211h93.9a5.214,5.214,0,0,1,5.217,5.211v66.54H126.381Z" transform="translate(-98.826 -36.225)" fill="#20ab9a"/>
        <path id="パス_1217" data-name="パス 1217" d="M230.1,184.279l-104.505.629V131.616l104.505-.629Z" transform="translate(-98.208 -102.428)" fill="#fff"/>
        <path id="パス_1218" data-name="パス 1218" d="M169.6,80.706a1.9,1.9,0,1,1-1.9-1.9A1.9,1.9,0,0,1,169.6,80.706Z" transform="translate(-129.654 -61.628)" fill="#ff7373"/>
        <ellipse id="楕円形_54" data-name="楕円形 54" cx="1.897" cy="1.895" rx="1.897" ry="1.895" transform="translate(44.34 17.183)" fill="#43caff"/>
        <ellipse id="楕円形_55" data-name="楕円形 55" cx="1.897" cy="1.895" rx="1.897" ry="1.895" transform="translate(52.529 17.183)" fill="#edff87"/>
        <path id="パス_1219" data-name="パス 1219" d="M352.751,80.923H299.3a2.571,2.571,0,1,1,0-5.143h53.447a2.571,2.571,0,1,1,0,5.143Z" transform="translate(-232.033 -59.258)" fill="#fff"/>
        <path id="パス_1220" data-name="パス 1220" d="M116.111,400.587v3.193H86.086v-3.193H25.373v2.318a5.449,5.449,0,0,0,2.483,4.57l2.221,1.442a16.5,16.5,0,0,0,8.987,2.662H163.132a16.5,16.5,0,0,0,8.988-2.662l2.222-1.442a5.449,5.449,0,0,0,2.482-4.57v-2.318Z" transform="translate(-19.841 -313.246)" fill="#f3a185"/>
        <path id="パス_1221" data-name="パス 1221" d="M136.008,12.4A12.423,12.423,0,0,0,123.591,0h-93.9A12.423,12.423,0,0,0,17.275,12.4V84.579H0v3.234a6.364,6.364,0,0,0,2.9,5.337l2.221,1.442A17.42,17.42,0,0,0,14.608,97.4H138.676a17.417,17.417,0,0,0,9.487-2.809l2.221-1.442a6.364,6.364,0,0,0,2.9-5.337V84.579H136.008ZM22.212,4.931a10.554,10.554,0,0,1,7.481-3.1h93.9A10.592,10.592,0,0,1,134.176,12.4V84.578H90.737v3.193H62.546V84.579H19.108V12.4A10.531,10.531,0,0,1,22.212,4.931ZM151.451,86.409v1.4a4.535,4.535,0,0,1-2.066,3.8l-2.221,1.442a15.587,15.587,0,0,1-8.488,2.514H14.608A15.586,15.586,0,0,1,6.12,93.057L3.9,91.615a4.534,4.534,0,0,1-2.066-3.8v-1.4H60.713V89.6H92.57V86.41h58.881Z" fill="#3e485c"/>
        <path id="パス_1222" data-name="パス 1222" d="M214.219,102.371V34.916a6.13,6.13,0,0,0-6.133-6.126h-93.9a6.13,6.13,0,0,0-6.133,6.126v67.455H214.219ZM109.887,34.916a4.3,4.3,0,0,1,4.3-4.3h93.9a4.3,4.3,0,0,1,4.3,4.3V45.68h-102.5Zm0,12.594h102.5v53.03h-102.5Z" transform="translate(-84.495 -22.513)" fill="#3e485c"/>
        <path id="パス_1223" data-name="パス 1223" d="M150.29,61.275a2.811,2.811,0,1,0,2.813,2.811A2.812,2.812,0,0,0,150.29,61.275Zm0,3.79a.98.98,0,1,1,.981-.98A.983.983,0,0,1,150.29,65.065Z" transform="translate(-115.322 -47.915)" fill="#3e485c"/>
        <path id="パス_1224" data-name="パス 1224" d="M187.849,61.275a2.811,2.811,0,1,0,2.813,2.811A2.812,2.812,0,0,0,187.849,61.275Zm0,3.79a.98.98,0,1,1,.981-.98A.983.983,0,0,1,187.849,65.065Z" transform="translate(-144.692 -47.915)" fill="#3e485c"/>
        <path id="パス_1225" data-name="パス 1225" d="M225.408,61.275a2.811,2.811,0,1,0,2.813,2.811A2.812,2.812,0,0,0,225.408,61.275Zm0,3.79a.98.98,0,1,1,.981-.98A.982.982,0,0,1,225.408,65.065Z" transform="translate(-174.061 -47.915)" fill="#3e485c"/>
        <path id="パス_1226" data-name="パス 1226" d="M335.34,58.245H281.893a3.5,3.5,0,0,0-3.491,3.487h0a3.5,3.5,0,0,0,3.491,3.487H335.34a3.5,3.5,0,0,0,3.49-3.487h0A3.5,3.5,0,0,0,335.34,58.245ZM337,61.732a1.665,1.665,0,0,1-1.658,1.656H281.893a1.665,1.665,0,0,1-1.658-1.656h0a1.664,1.664,0,0,1,1.658-1.656H335.34A1.665,1.665,0,0,1,337,61.732Z" transform="translate(-217.702 -45.546)" fill="#3e485c"/>
      </g>
      <g id="グループ_2549" data-name="グループ 2549" transform="translate(910.853 1338.28)">
        <ellipse id="楕円形_56" data-name="楕円形 56" cx="12.147" cy="12.147" rx="12.147" ry="12.147" transform="translate(6.252 2.025)" fill="#df7c8f"/>
        <path id="楕円形_57" data-name="楕円形 57" d="M12.147,2.774a9.374,9.374,0,1,0,9.374,9.374,9.384,9.384,0,0,0-9.374-9.374m0-2.774A12.147,12.147,0,1,1,0,12.147,12.147,12.147,0,0,1,12.147,0Z" transform="translate(3.823 0)" fill="#3e485c"/>
        <path id="多角形_7" data-name="多角形 7" d="M12.552,0,25.1,21.46H0Z" transform="translate(29.939 13.198) rotate(17)" fill="#20ab9a"/>
        <path id="多角形_8" data-name="多角形 8" d="M12.552,5.494,4.836,18.687H20.269L12.552,5.494m0-5.494L25.1,21.46H0Z" transform="translate(27.511 10.167) rotate(17)" fill="#3e485c"/>
        <path id="パス_1227" data-name="パス 1227" d="M0,0H17.816V17.816H0Z" transform="matrix(0.951, -0.309, 0.309, 0.951, 2.835, 39.967)" fill="#ffb64b"/>
        <path id="パス_1228" data-name="パス 1228" d="M2.774,2.774V15.042H15.043V2.774H2.774M0,0H17.816V17.816H0Z" transform="matrix(0.951, -0.309, 0.309, 0.951, 0, 38.347)" fill="#3e485c"/>
      </g>
    </g>
  </g>
</svg>
