<svg xmlns="http://www.w3.org/2000/svg" xmlns:xlink="http://www.w3.org/1999/xlink" width="1316.501" height="193.187" viewBox="0 0 1316.501 193.187">
  <defs>
    <clipPath id="clip-path">
      <rect id="長方形_191" data-name="長方形 191" width="164.501" height="167.478" fill="#ffb64b"/>
    </clipPath>
    <clipPath id="clip-path-2">
      <rect id="長方形_195" data-name="長方形 195" width="154.893" height="154.941" fill="#df7c8f"/>
    </clipPath>
    <clipPath id="clip-path-3">
      <rect id="長方形_194" data-name="長方形 194" width="84.118" height="51.419" transform="translate(0 0)" fill="#20ab9a"/>
    </clipPath>
  </defs>
  <g id="グループ_3160" data-name="グループ 3160" transform="translate(0 -2580)">
    <g id="グループ_3157" data-name="グループ 3157">
      <g id="グループ_2559" data-name="グループ 2559" transform="translate(1152 2580)">
        <g id="グループ_195" data-name="グループ 195" clip-path="url(#clip-path)">
          <path id="パス_766" data-name="パス 766" d="M58.378,83.724q0-40.637-.035-81.273C58.339.629,58.81.008,60.7.023c4.933.039,4.933-.05,4.933,4.971q0,79.537-.009,159.072c0,3.411.65,3.236-3.126,3.218-4.8-.021-4.107.576-4.11-4.037q-.035-39.761-.011-79.523" transform="translate(12.945 0.005)" fill="#ffb64b"/>
          <path id="パス_767" data-name="パス 767" d="M11.545,83.738q0-40.633-.049-81.268C11.49.362,12.274.013,14.1.032c4.715.05,4.716-.017,4.716,4.7q0,79.654-.009,159.308c0,3.361.648,3.26-3.126,3.243-4.842-.023-4.119.536-4.123-4.027q-.035-39.761-.011-79.52" transform="translate(2.551 0.007)" fill="#ffb64b"/>
          <path id="パス_768" data-name="パス 768" d="M112.44,83.973c0,26.84-.031,53.678.055,80.518.007,2.295-.609,2.939-2.865,2.857-4.4-.16-4.4-.035-4.4-4.548q.033-67.343.064-134.685c0-8.531.02-17.063-.109-25.593-.029-2,.612-2.527,2.534-2.5C112.439.1,112.44.014,112.44,4.7Z" transform="translate(23.337 0.005)" fill="#ffb64b"/>
          <path id="パス_769" data-name="パス 769" d="M42.1,83.712c0,26.857-.029,53.715.051,80.572.007,2.317-.444,3.2-2.951,3.077-4.17-.21-4.179-.046-4.179-4.233q0-80.077-.06-160.155c0-2.477.7-3.06,3.04-2.954C42.1.2,42.1.063,42.1,4.135V83.712" transform="translate(7.758 0.001)" fill="#ffb64b"/>
          <path id="パス_770" data-name="パス 770" d="M53.8,83.7c0,26.94-.034,53.88.06,80.82.007,2.368-.721,2.892-2.908,2.818-4.215-.145-4.219-.032-4.219-4.219q0-79.825.007-159.648C46.742-.312,46.2.14,50.49.051c2.014-.043,3.418-.2,3.4,2.832-.153,26.939-.089,53.88-.089,80.82" transform="translate(10.366 0.008)" fill="#ffb64b"/>
          <path id="パス_771" data-name="パス 771" d="M128.636,83.621c0-26.848.029-53.7-.053-80.546-.007-2.309.423-3.194,2.931-3.06,5.024.269,4.277-.549,4.279,4.454q.027,79.546-.015,159.092c0,1.178.69,2.955-.511,3.44-1.887.762-4.091.461-6.118.123-.9-.149-.494-1.278-.5-1.962-.028-6.795-.017-13.591-.017-20.386Z" transform="translate(28.526 0)" fill="#ffb64b"/>
          <path id="パス_772" data-name="パス 772" d="M81.837,83.675c0-26.843.038-53.687-.062-80.529-.01-2.51.585-3.272,3.117-3.13,4.745.264,4.051-.485,4.052,4.163q.026,80.03-.015,160.058c0,.989.637,2.584-.626,2.869A11.514,11.514,0,0,1,82.186,167c-.761-.254-.334-1.507-.334-2.3q-.029-40.512-.016-81.026" transform="translate(18.135 0)" fill="#ffb64b"/>
          <path id="パス_773" data-name="パス 773" d="M93.571,83.456c0-26.854.031-53.708-.054-80.562-.006-2.3.623-2.962,2.891-2.875,4.193.163,4.2.034,4.2,4.215q0,79.942-.01,159.881c0,3.391.629,3.146-3.171,3.182a7.271,7.271,0,0,0-.993.007c-2.192.33-2.928-.428-2.919-2.792.09-27.018.057-54.037.057-81.057" transform="translate(20.748 0.003)" fill="#ffb64b"/>
          <path id="パス_774" data-name="パス 774" d="M23.238,83.73c0-27.1.028-54.2-.054-81.3C23.178.3,23.972.01,25.768.033c4.5.057,4.5-.01,4.5,4.427V164.071c0,3.218,0,3.218-3.173,3.222a8.6,8.6,0,0,0-1.243.009c-1.989.3-2.673-.375-2.667-2.528.089-26.434.072-52.869.083-79.3V83.73h-.032" transform="translate(5.144 0.007)" fill="#ffb64b"/>
          <path id="パス_775" data-name="パス 775" d="M123.958,83.7v80.289c0,3.308,0,3.308-3.369,3.309a12.127,12.127,0,0,0-1.491.009c-1.716.22-2.265-.458-2.248-2.214.084-8.532.038-17.067.038-25.6q0-68.109,0-136.221c0-3.2,0-3.2,3.218-3.2A11.23,11.23,0,0,0,121.6.061c1.835-.249,2.419.473,2.4,2.352-.089,9.445-.04,18.89-.04,28.337V83.7" transform="translate(25.926 0.003)" fill="#ffb64b"/>
          <path id="パス_776" data-name="パス 776" d="M77.11,83.738v80.3c0,3.258,0,3.259-3.148,3.262a13.731,13.731,0,0,0-1.738.011c-1.772.231-2.2-.555-2.2-2.252q.068-68.113.042-136.227c0-8.7.086-17.4-.068-26.1-.04-2.3.722-2.766,2.815-2.705C77.106.15,77.11.045,77.11,4.436v79.3" transform="translate(15.531 0.004)" fill="#ffb64b"/>
          <path id="パス_777" data-name="パス 777" d="M6.978,83.691c0,26.851-.04,53.7.065,80.553.01,2.538-.643,3.495-3.126,3.061a3.179,3.179,0,0,0-.992,0c-2.2.323-2.933-.451-2.925-2.81C.089,137.063.057,109.632.057,82.2.057,55.763.089,29.325,0,2.889-.006.541.7-.057,2.926.023,6.973.169,6.978.051,6.978,4.132V83.691" transform="translate(0 0.004)" fill="#ffb64b"/>
        </g>
      </g>
      <g id="グループ_3123" data-name="グループ 3123">
        <g id="グループ_2560" data-name="グループ 2560" transform="translate(123.107 2602)">
          <g id="グループ_204" data-name="グループ 204" clip-path="url(#clip-path-2)">
            <path id="パス_841" data-name="パス 841" d="M104.322,153.642c1.012.292,1.811.777,1.77,2a1.643,1.643,0,0,1-1.724,1.769,1.779,1.779,0,0,1-1.948-1.8c-.057-1.092.8-1.72,1.9-1.971" transform="translate(-7.931 -11.897)" fill="#df7c8f"/>
            <path id="パス_842" data-name="パス 842" d="M24.233,42.817c-.211,1.048-.713,1.825-1.909,1.842a1.621,1.621,0,0,1-1.779-1.7,1.742,1.742,0,0,1,1.7-1.991c1.122-.088,1.74.743,1.983,1.847" transform="translate(-1.59 -3.172)" fill="#df7c8f"/>
            <path id="パス_843" data-name="パス 843" d="M94.157,167.623c-1.244-.026-1.956-.685-1.945-1.807a1.773,1.773,0,0,1,1.9-1.86,1.8,1.8,0,0,1,1.791,1.781,1.665,1.665,0,0,1-1.742,1.886" transform="translate(-7.14 -12.695)" fill="#df7c8f"/>
            <path id="パス_844" data-name="パス 844" d="M155.286,81.976c1.283.151,2.062.629,2.079,1.853a1.721,1.721,0,0,1-1.676,1.853,1.8,1.8,0,0,1-2.023-1.733c-.122-1.184.78-1.666,1.621-1.973" transform="translate(-11.898 -6.348)" fill="#df7c8f"/>
            <path id="パス_845" data-name="パス 845" d="M167.585,94.078c-.109,1.223-.7,1.919-1.894,1.861a1.847,1.847,0,0,1,.077-3.693,1.717,1.717,0,0,1,1.817,1.832" transform="translate(-12.692 -7.143)" fill="#df7c8f"/>
            <path id="パス_846" data-name="パス 846" d="M44.686,104.218c-.161,1.35-.807,1.977-1.99,1.906a1.725,1.725,0,0,1-1.756-1.777,1.825,1.825,0,0,1,1.885-1.9,1.96,1.96,0,0,1,1.861,1.769" transform="translate(-3.17 -7.933)" fill="#df7c8f"/>
            <path id="パス_847" data-name="パス 847" d="M157.4,104.2c-.082,1.25-.661,1.923-1.864,1.93a1.747,1.747,0,0,1-1.862-1.67,1.805,1.805,0,0,1,1.768-2.006A1.921,1.921,0,0,1,157.4,104.2" transform="translate(-11.899 -7.933)" fill="#df7c8f"/>
            <path id="パス_848" data-name="パス 848" d="M145.4,116.344a1.625,1.625,0,0,1-1.92-1.591,1.848,1.848,0,1,1,3.69-.158,1.637,1.637,0,0,1-1.77,1.748" transform="translate(-11.109 -8.731)" fill="#df7c8f"/>
            <path id="パス_849" data-name="パス 849" d="M32.089,116.326a1.533,1.533,0,0,1-1.34-1.8,1.843,1.843,0,0,1,3.684.11c-.047,1.2-.807,1.754-2.343,1.689" transform="translate(-2.381 -8.731)" fill="#df7c8f"/>
            <path id="パス_850" data-name="パス 850" d="M54.846,155.253c-.048,1.419-.544,2.171-1.781,2.162a1.85,1.85,0,0,1-.137-3.7,1.757,1.757,0,0,1,1.919,1.533" transform="translate(-3.963 -11.902)" fill="#df7c8f"/>
            <path id="パス_851" data-name="パス 851" d="M145.32,102.35c1,.352,1.892.862,1.843,2.029a1.72,1.72,0,0,1-1.967,1.741,1.637,1.637,0,0,1-1.722-1.772c-.008-1.165.809-1.7,1.846-2" transform="translate(-11.11 -7.925)" fill="#df7c8f"/>
            <path id="パス_852" data-name="パス 852" d="M85.733,104.386c-.249,1.06-.811,1.779-2,1.745a1.62,1.62,0,0,1-1.719-1.762,1.761,1.761,0,0,1,1.812-1.919c1.081-.01,1.73.806,1.912,1.936" transform="translate(-6.35 -7.933)" fill="#df7c8f"/>
            <path id="パス_853" data-name="パス 853" d="M42.789,136.992c-1.117-.236-1.948-.84-1.846-2a1.708,1.708,0,0,1,1.9-1.664,1.643,1.643,0,0,1,1.788,1.911c-.06,1.129-.852,1.566-1.838,1.758" transform="translate(-3.17 -10.323)" fill="#df7c8f"/>
            <path id="パス_854" data-name="パス 854" d="M44.668,155.45c-.086,1.214-.631,1.942-1.829,1.964a1.768,1.768,0,0,1-1.891-1.845,1.79,1.79,0,0,1,1.743-1.841,1.856,1.856,0,0,1,1.977,1.722" transform="translate(-3.171 -11.903)" fill="#df7c8f"/>
            <path id="パス_855" data-name="パス 855" d="M44.66,22.277a1.78,1.78,0,0,1-1.874,1.9,1.8,1.8,0,1,1,.04-3.6,1.693,1.693,0,0,1,1.834,1.7" transform="translate(-3.17 -1.593)" fill="#df7c8f"/>
            <path id="パス_856" data-name="パス 856" d="M54.831,22.257a1.829,1.829,0,1,1-1.756-1.683,1.577,1.577,0,0,1,1.756,1.683" transform="translate(-3.963 -1.593)" fill="#df7c8f"/>
            <path id="パス_857" data-name="パス 857" d="M85.732,135.111c-.206,1.139-.848,1.89-2,1.826a1.691,1.691,0,0,1-1.719-1.837,1.656,1.656,0,0,1,1.924-1.774c1.138.037,1.606.774,1.8,1.785" transform="translate(-6.35 -10.324)" fill="#df7c8f"/>
            <path id="パス_858" data-name="パス 858" d="M116.3,94.207a1.613,1.613,0,0,1-1.828,1.733,1.759,1.759,0,0,1-1.777-1.949,1.737,1.737,0,0,1,1.8-1.75c1.157-.015,1.789.675,1.8,1.966" transform="translate(-8.726 -7.142)" fill="#df7c8f"/>
            <path id="パス_859" data-name="パス 859" d="M104.311,92.147c1.113.326,1.876.857,1.779,2.076a1.655,1.655,0,0,1-1.791,1.709,1.8,1.8,0,0,1-1.878-1.879c0-1.085.873-1.68,1.89-1.905" transform="translate(-7.931 -7.135)" fill="#df7c8f"/>
            <path id="パス_860" data-name="パス 860" d="M106.113,145.314A1.749,1.749,0,0,1,104.4,147.2a1.838,1.838,0,1,1-.041-3.667,1.7,1.7,0,0,1,1.752,1.785" transform="translate(-7.931 -11.114)" fill="#df7c8f"/>
            <path id="パス_861" data-name="パス 861" d="M54.84,94.1c-.078,1.143-.622,1.888-1.835,1.836a1.848,1.848,0,0,1-.014-3.7A1.71,1.71,0,0,1,54.84,94.1" transform="translate(-3.963 -7.142)" fill="#df7c8f"/>
            <path id="パス_862" data-name="パス 862" d="M3.577,94.267a1.563,1.563,0,0,1-1.639,1.675,1.851,1.851,0,1,1-.052-3.7c1.066.026,1.692.7,1.691,2.025" transform="translate(-0.001 -7.142)" fill="#df7c8f"/>
            <path id="パス_863" data-name="パス 863" d="M95.942,135.179a1.848,1.848,0,0,1-2,1.754,1.808,1.808,0,1,1,.244-3.607,1.752,1.752,0,0,1,1.758,1.853" transform="translate(-7.14 -10.323)" fill="#df7c8f"/>
            <path id="パス_864" data-name="パス 864" d="M116.286,84.039a1.622,1.622,0,0,1-1.837,1.661,1.831,1.831,0,1,1,.338-3.641,1.6,1.6,0,0,1,1.5,1.981" transform="translate(-8.726 -6.353)" fill="#df7c8f"/>
            <path id="パス_865" data-name="パス 865" d="M83.966,167.622c-1.305-.018-1.955-.634-1.958-1.817a1.756,1.756,0,0,1,1.693-1.857,1.792,1.792,0,0,1,1.97,1.784,1.7,1.7,0,0,1-1.7,1.889" transform="translate(-6.35 -12.695)" fill="#df7c8f"/>
            <path id="パス_866" data-name="パス 866" d="M104.267,85.75c-1.1-.244-1.948-.865-1.854-2a1.771,1.771,0,0,1,1.9-1.7,1.655,1.655,0,0,1,1.778,1.924c-.056,1.136-.821,1.582-1.821,1.778" transform="translate(-7.93 -6.353)" fill="#df7c8f"/>
            <path id="パス_867" data-name="パス 867" d="M54.832,83.785A1.7,1.7,0,0,1,53,85.7a1.751,1.751,0,0,1-1.824-1.779,1.734,1.734,0,0,1,1.892-1.87,1.6,1.6,0,0,1,1.759,1.733" transform="translate(-3.963 -6.354)" fill="#df7c8f"/>
            <path id="パス_868" data-name="パス 868" d="M22.265,85.746c-1.1-.259-1.828-.829-1.721-2.055a1.644,1.644,0,0,1,1.872-1.637,1.7,1.7,0,0,1,1.758,1.8c0,1.162-.779,1.757-1.91,1.894" transform="translate(-1.59 -6.353)" fill="#df7c8f"/>
            <path id="パス_869" data-name="パス 869" d="M94.151,71.831A1.634,1.634,0,0,1,95.9,73.653a1.848,1.848,0,0,1-3.693-.094,1.716,1.716,0,0,1,1.94-1.728" transform="translate(-7.14 -5.562)" fill="#df7c8f"/>
            <path id="パス_870" data-name="パス 870" d="M83.851,71.827a1.79,1.79,0,1,1-1.842,1.707,1.656,1.656,0,0,1,1.842-1.707" transform="translate(-6.35 -5.562)" fill="#df7c8f"/>
            <path id="パス_871" data-name="パス 871" d="M95.943,145.441c-.22,1.066-.844,1.846-1.982,1.748a1.771,1.771,0,0,1-1.754-1.992,1.722,1.722,0,0,1,1.853-1.672,1.865,1.865,0,0,1,1.883,1.915" transform="translate(-7.139 -11.113)" fill="#df7c8f"/>
            <path id="パス_872" data-name="パス 872" d="M94.118,54.864a1.673,1.673,0,0,1-1.906-1.638,1.846,1.846,0,1,1,3.686-.1,1.643,1.643,0,0,1-1.78,1.741" transform="translate(-7.14 -3.967)" fill="#df7c8f"/>
            <path id="パス_873" data-name="パス 873" d="M84.373,54.844c-1.614.051-2.281-.5-2.362-1.61a1.838,1.838,0,1,1,3.667-.125,1.636,1.636,0,0,1-1.305,1.735" transform="translate(-6.35 -3.967)" fill="#df7c8f"/>
            <path id="パス_874" data-name="パス 874" d="M106.131,42.568c-.083,1.409-.66,2.086-1.861,2.093a1.781,1.781,0,0,1-1.853-1.71,1.814,1.814,0,0,1,1.794-1.98,1.862,1.862,0,0,1,1.92,1.6" transform="translate(-7.93 -3.172)" fill="#df7c8f"/>
            <path id="パス_875" data-name="パス 875" d="M104.416,34.515a1.971,1.971,0,0,1-2-1.851,1.782,1.782,0,0,1,1.862-1.893,1.651,1.651,0,0,1,1.806,1.69,1.85,1.85,0,0,1-1.673,2.054" transform="translate(-7.931 -2.383)" fill="#df7c8f"/>
            <path id="パス_876" data-name="パス 876" d="M116.287,32.694c-.067,1.079-.606,1.789-1.733,1.774a1.759,1.759,0,0,1-1.858-1.924,1.726,1.726,0,0,1,1.994-1.771,1.609,1.609,0,0,1,1.6,1.921" transform="translate(-8.726 -2.382)" fill="#df7c8f"/>
            <path id="パス_877" data-name="パス 877" d="M71.778,93.986a1.711,1.711,0,0,1,1.779-1.746,1.681,1.681,0,0,1,1.781,1.943,1.65,1.65,0,0,1-1.763,1.763c-1.234-.011-1.757-.759-1.8-1.96" transform="translate(-5.558 -7.142)" fill="#df7c8f"/>
            <path id="パス_878" data-name="パス 878" d="M73.486,40.9a1.848,1.848,0,0,1,1.853,1.771,1.67,1.67,0,0,1-1.709,1.99A1.6,1.6,0,0,1,71.8,42.985c-.123-1.244.632-1.781,1.683-2.087" transform="translate(-5.559 -3.167)" fill="#df7c8f"/>
            <path id="パス_879" data-name="パス 879" d="M34.477,22.247a1.851,1.851,0,0,1-1.9,1.931,1.72,1.72,0,0,1-1.838-1.736A1.659,1.659,0,0,1,32.4,20.574a1.831,1.831,0,0,1,2.082,1.673" transform="translate(-2.38 -1.592)" fill="#df7c8f"/>
            <path id="パス_880" data-name="パス 880" d="M116.3,165.871a1.552,1.552,0,0,1-1.665,1.734,1.705,1.705,0,0,1-1.939-1.79,1.8,1.8,0,1,1,3.6.055" transform="translate(-8.726 -12.695)" fill="#df7c8f"/>
            <path id="パス_881" data-name="パス 881" d="M126.566,32.768a1.765,1.765,0,1,1-3.522-.207,1.646,1.646,0,0,1,1.908-1.789c1.092.067,1.626.8,1.614,2" transform="translate(-9.528 -2.382)" fill="#df7c8f"/>
            <path id="パス_882" data-name="パス 882" d="M32.586,40.876c1.025.3,1.87.855,1.837,2a1.841,1.841,0,0,1-3.679-.006c-.025-1.147.764-1.726,1.842-2" transform="translate(-2.381 -3.165)" fill="#df7c8f"/>
            <path id="パス_883" data-name="パス 883" d="M40.855,42.924c.221-1.1.82-1.955,1.919-1.945a1.767,1.767,0,0,1,1.848,1.879,1.659,1.659,0,0,1-1.7,1.8c-1.218.09-1.7-.759-2.065-1.734" transform="translate(-3.164 -3.173)" fill="#df7c8f"/>
            <path id="パス_884" data-name="パス 884" d="M54.836,42.855c-.065,1.184-.641,1.852-1.862,1.806a1.762,1.762,0,0,1-1.788-1.76,1.785,1.785,0,0,1,1.829-1.931,1.734,1.734,0,0,1,1.82,1.885" transform="translate(-3.963 -3.172)" fill="#df7c8f"/>
            <path id="パス_885" data-name="パス 885" d="M104.328,167.628a1.837,1.837,0,1,1,1.768-1.712c-.035,1.14-.693,1.636-1.768,1.712" transform="translate(-7.93 -12.695)" fill="#df7c8f"/>
            <path id="パス_886" data-name="パス 886" d="M116.3,155.564c-.044,1.156-.553,1.889-1.793,1.853a1.851,1.851,0,0,1-.054-3.7c1.148-.041,1.79.661,1.847,1.848" transform="translate(-8.726 -11.903)" fill="#df7c8f"/>
            <path id="パス_887" data-name="パス 887" d="M85.735,42.943c-.3,1.034-.862,1.79-2.055,1.714a1.643,1.643,0,0,1-1.669-1.823,1.746,1.746,0,0,1,1.853-1.859c1.09.021,1.714.84,1.871,1.968" transform="translate(-6.35 -3.173)" fill="#df7c8f"/>
            <path id="パス_888" data-name="パス 888" d="M95.951,42.787c-.161,1.177-.747,1.885-1.929,1.865a1.729,1.729,0,0,1-1.815-1.717A1.788,1.788,0,0,1,94,40.971c1.113-.048,1.725.773,1.953,1.817" transform="translate(-7.14 -3.172)" fill="#df7c8f"/>
            <path id="パス_889" data-name="パス 889" d="M83.9,3.6a1.612,1.612,0,0,1-1.886-1.627A1.71,1.71,0,0,1,83.782,0a1.731,1.731,0,0,1,1.9,1.858c0,1.1-.712,1.655-1.784,1.741" transform="translate(-6.35 0)" fill="#df7c8f"/>
            <path id="パス_890" data-name="パス 890" d="M116.28,43.248a1.527,1.527,0,0,1-1.74,1.414,1.85,1.85,0,1,1,.066-3.7c1.118.039,1.739.808,1.674,2.284" transform="translate(-8.727 -3.172)" fill="#df7c8f"/>
            <path id="パス_891" data-name="パス 891" d="M85.739,155.585c-.247,1.049-.749,1.841-1.949,1.831a1.663,1.663,0,0,1-1.78-1.722,1.745,1.745,0,0,1,1.756-1.967c1.126-.063,1.722.776,1.973,1.857" transform="translate(-6.35 -11.903)" fill="#df7c8f"/>
            <path id="パス_892" data-name="パス 892" d="M133.232,42.874c.152-1.29.836-1.976,1.945-1.909a1.854,1.854,0,0,1-.172,3.7c-1.283,0-1.634-.854-1.773-1.792" transform="translate(-10.317 -3.172)" fill="#df7c8f"/>
            <path id="パス_893" data-name="パス 893" d="M147.231,42.824c-.227,1.1-.792,1.832-1.968,1.832a1.67,1.67,0,0,1-1.788-1.722,1.768,1.768,0,0,1,1.778-1.96c1.1-.049,1.724.783,1.978,1.851" transform="translate(-11.109 -3.173)" fill="#df7c8f"/>
            <path id="パス_894" data-name="パス 894" d="M94.048,3.592a1.634,1.634,0,0,1-1.841-1.717,1.85,1.85,0,1,1,3.7.1,1.624,1.624,0,0,1-1.855,1.62" transform="translate(-7.14 -0.001)" fill="#df7c8f"/>
            <path id="パス_895" data-name="パス 895" d="M32.544,153.637c1.063.258,1.88.821,1.878,1.96a1.838,1.838,0,0,1-3.673.062c-.085-1.158.768-1.706,1.794-2.022" transform="translate(-2.381 -11.897)" fill="#df7c8f"/>
            <path id="パス_896" data-name="パス 896" d="M116.291,145.345a1.637,1.637,0,0,1-1.671,1.864,1.748,1.748,0,0,1-1.924-1.85,1.726,1.726,0,0,1,1.931-1.831,1.584,1.584,0,0,1,1.664,1.817" transform="translate(-8.726 -11.114)" fill="#df7c8f"/>
            <path id="パス_897" data-name="パス 897" d="M22.172,54.864a1.553,1.553,0,0,1-1.627-1.7,1.821,1.821,0,1,1,3.634,0c-.051,1.04-.7,1.7-2.007,1.7" transform="translate(-1.591 -3.967)" fill="#df7c8f"/>
            <path id="パス_898" data-name="パス 898" d="M32.478,54.863a1.615,1.615,0,0,1-1.734-1.713,1.843,1.843,0,1,1,3.68.049c-.055,1.078-.751,1.663-1.947,1.664" transform="translate(-2.381 -3.967)" fill="#df7c8f"/>
            <path id="パス_899" data-name="パス 899" d="M42.633,54.868a1.707,1.707,0,0,1-1.694-1.9,1.848,1.848,0,0,1,3.692.133c0,1.23-.712,1.754-2,1.769" transform="translate(-3.17 -3.967)" fill="#df7c8f"/>
            <path id="パス_900" data-name="パス 900" d="M83.822,147.258c-1.045-.207-1.778-.718-1.816-1.829a1.7,1.7,0,0,1,1.831-1.895,1.725,1.725,0,0,1,1.834,1.746c.043,1.169-.773,1.75-1.85,1.977" transform="translate(-6.35 -11.114)" fill="#df7c8f"/>
            <path id="パス_901" data-name="パス 901" d="M71.791,145.524c0-1.324.649-1.993,1.81-2a1.643,1.643,0,0,1,1.745,1.781,1.685,1.685,0,0,1-1.82,1.9,1.641,1.641,0,0,1-1.734-1.687" transform="translate(-5.559 -11.114)" fill="#df7c8f"/>
            <path id="パス_902" data-name="パス 902" d="M54.831,145.4a1.652,1.652,0,0,1-1.8,1.8,1.777,1.777,0,0,1-1.85-1.9,1.757,1.757,0,0,1,1.96-1.776,1.653,1.653,0,0,1,1.686,1.876" transform="translate(-3.963 -11.114)" fill="#df7c8f"/>
            <path id="パス_903" data-name="パス 903" d="M85.739,32.6c-.248,1.053-.78,1.895-1.946,1.862a1.712,1.712,0,0,1-1.783-1.919,1.692,1.692,0,0,1,1.741-1.769c1.157-.036,1.741.74,1.988,1.827" transform="translate(-6.35 -2.382)" fill="#df7c8f"/>
            <path id="パス_904" data-name="パス 904" d="M71.771,32.873c.05-1.372.63-2.11,1.825-2.108a1.641,1.641,0,0,1,1.742,1.788,1.791,1.791,0,0,1-3.567.32" transform="translate(-5.557 -2.382)" fill="#df7c8f"/>
            <path id="パス_905" data-name="パス 905" d="M104.412,54.865a1.744,1.744,0,0,1-2-1.725,1.768,1.768,0,0,1,1.846-1.909,1.734,1.734,0,0,1,1.839,1.874,1.6,1.6,0,0,1-1.683,1.76" transform="translate(-7.93 -3.967)" fill="#df7c8f"/>
            <path id="パス_906" data-name="パス 906" d="M116.3,53.078c-.031,1.085-.49,1.749-1.669,1.78a1.7,1.7,0,0,1-1.936-1.782,1.749,1.749,0,0,1,1.913-1.855,1.684,1.684,0,0,1,1.692,1.858" transform="translate(-8.726 -3.966)" fill="#df7c8f"/>
            <path id="パス_907" data-name="パス 907" d="M44.654,145.526a1.857,1.857,0,1,1-1.673-2,1.778,1.778,0,0,1,1.673,2" transform="translate(-3.17 -11.113)" fill="#df7c8f"/>
            <path id="パス_908" data-name="パス 908" d="M22.289,147.254c-1.128-.234-1.829-.83-1.745-2.044a1.658,1.658,0,0,1,1.843-1.68,1.726,1.726,0,0,1,1.785,1.791c.012,1.154-.759,1.769-1.884,1.934" transform="translate(-1.59 -11.114)" fill="#df7c8f"/>
            <path id="パス_909" data-name="パス 909" d="M145.717,54.861c-1.531.01-2.2-.59-2.241-1.675a1.752,1.752,0,0,1,1.829-1.952,1.779,1.779,0,0,1,1.865,1.932,1.623,1.623,0,0,1-1.452,1.7" transform="translate(-11.11 -3.967)" fill="#df7c8f"/>
            <path id="パス_910" data-name="パス 910" d="M155.492,54.868A1.705,1.705,0,0,1,153.68,53a1.844,1.844,0,0,1,3.687.068c0,1.214-.691,1.769-1.875,1.8" transform="translate(-11.9 -3.966)" fill="#df7c8f"/>
            <path id="パス_911" data-name="パス 911" d="M65.066,32.745a1.615,1.615,0,0,1-1.737,1.724,1.689,1.689,0,0,1-1.791-1.932,1.649,1.649,0,0,1,1.761-1.77c1.2,0,1.781.731,1.767,1.978" transform="translate(-4.765 -2.382)" fill="#df7c8f"/>
            <path id="パス_912" data-name="パス 912" d="M147.221,135.164a1.908,1.908,0,0,1-2.045,1.769,1.715,1.715,0,0,1-1.7-1.873,1.676,1.676,0,0,1,1.978-1.734c1.122.065,1.621.776,1.769,1.838" transform="translate(-11.109 -10.323)" fill="#df7c8f"/>
            <path id="パス_913" data-name="パス 913" d="M116.292,134.824c.015,1.41-.614,2.11-1.784,2.118a1.808,1.808,0,1,1,.018-3.616,1.525,1.525,0,0,1,1.766,1.5" transform="translate(-8.726 -10.324)" fill="#df7c8f"/>
            <path id="パス_914" data-name="パス 914" d="M104.227,133.3c1.126.066,1.823.546,1.865,1.7a1.71,1.71,0,0,1-1.8,1.937,1.737,1.737,0,0,1-1.876-1.719,1.777,1.777,0,0,1,1.81-1.921" transform="translate(-7.93 -10.322)" fill="#df7c8f"/>
            <path id="パス_915" data-name="パス 915" d="M54.834,134.962c-.008,1.256-.64,1.96-1.8,1.981a1.808,1.808,0,1,1,0-3.615,1.584,1.584,0,0,1,1.8,1.634" transform="translate(-3.963 -10.324)" fill="#df7c8f"/>
            <path id="パス_916" data-name="パス 916" d="M34.478,135.019a1.875,1.875,0,0,1-1.889,1.917,1.721,1.721,0,0,1-1.841-1.735,1.655,1.655,0,0,1,1.645-1.873,1.818,1.818,0,0,1,2.085,1.691" transform="translate(-2.381 -10.323)" fill="#df7c8f"/>
            <path id="パス_917" data-name="パス 917" d="M22.37,133.3a1.816,1.816,0,1,1-.054,3.632,1.682,1.682,0,0,1-1.77-1.946A1.659,1.659,0,0,1,22.37,133.3" transform="translate(-1.591 -10.322)" fill="#df7c8f"/>
            <path id="パス_918" data-name="パス 918" d="M145.355,123.051c1.221.112,1.892.763,1.812,1.948a1.653,1.653,0,0,1-1.923,1.586,1.6,1.6,0,0,1-1.772-1.722,1.7,1.7,0,0,1,1.883-1.811" transform="translate(-11.109 -9.528)" fill="#df7c8f"/>
            <path id="パス_919" data-name="パス 919" d="M155.528,116.346a1.66,1.66,0,0,1-1.857-1.681,1.744,1.744,0,0,1,1.867-1.905,1.719,1.719,0,0,1,1.828,1.923c-.04,1.152-.742,1.642-1.838,1.663" transform="translate(-11.899 -8.731)" fill="#df7c8f"/>
            <path id="パス_920" data-name="パス 920" d="M104.716,116.335c-1.579.044-2.293-.653-2.306-1.773a1.73,1.73,0,0,1,1.791-1.8,1.7,1.7,0,0,1,1.893,1.837c.01,1.153-.617,1.692-1.377,1.736" transform="translate(-7.93 -8.731)" fill="#df7c8f"/>
            <path id="パス_921" data-name="パス 921" d="M94.04,116.345a1.633,1.633,0,0,1-1.832-1.69,1.847,1.847,0,1,1,3.692.041,1.629,1.629,0,0,1-1.86,1.65" transform="translate(-7.14 -8.731)" fill="#df7c8f"/>
            <path id="パス_922" data-name="パス 922" d="M83.345,116.356c-.6.015-1.273-.537-1.333-1.647a1.836,1.836,0,1,1,3.668-.074c-.022,1.071-.687,1.691-2.335,1.721" transform="translate(-6.35 -8.731)" fill="#df7c8f"/>
            <path id="パス_923" data-name="パス 923" d="M43.291,116.327c-1.634.054-2.345-.621-2.358-1.765a1.851,1.851,0,0,1,3.7.038,1.542,1.542,0,0,1-1.344,1.727" transform="translate(-3.17 -8.731)" fill="#df7c8f"/>
            <path id="パス_924" data-name="パス 924" d="M21.791,116.333c-.661-.023-1.245-.628-1.244-1.74a1.691,1.691,0,0,1,1.884-1.834,1.677,1.677,0,0,1,1.748,1.8c-.007,1.162-.7,1.811-2.389,1.774" transform="translate(-1.591 -8.731)" fill="#df7c8f"/>
            <path id="パス_925" data-name="パス 925" d="M167.572,104.268c-.033,1.162-.554,1.8-1.675,1.866a1.762,1.762,0,0,1-1.987-1.741,1.783,1.783,0,0,1,1.819-1.942,1.754,1.754,0,0,1,1.843,1.817" transform="translate(-12.692 -7.933)" fill="#df7c8f"/>
            <path id="パス_926" data-name="パス 926" d="M145.348,65.088c-1.191-.02-1.866-.589-1.875-1.7a1.848,1.848,0,1,1,3.7.077,1.63,1.63,0,0,1-1.821,1.621" transform="translate(-11.11 -4.766)" fill="#df7c8f"/>
            <path id="パス_927" data-name="パス 927" d="M135.1,106.154a1.654,1.654,0,0,1-1.826-1.765,1.8,1.8,0,1,1,1.826,1.765" transform="translate(-10.32 -7.933)" fill="#df7c8f"/>
            <path id="パス_928" data-name="パス 928" d="M116.307,104.081c-.028,1.311-.493,1.99-1.636,2.054a1.733,1.733,0,0,1-1.975-1.728,1.764,1.764,0,0,1,1.776-1.96,1.7,1.7,0,0,1,1.835,1.635" transform="translate(-8.726 -7.932)" fill="#df7c8f"/>
            <path id="パス_929" data-name="パス 929" d="M94.129,106.157a1.854,1.854,0,1,1-.013-3.706,1.833,1.833,0,0,1,1.779,1.8c.073,1.193-.659,1.775-1.766,1.9" transform="translate(-7.14 -7.933)" fill="#df7c8f"/>
            <path id="パス_930" data-name="パス 930" d="M54.84,104.359c-.072,1.12-.6,1.76-1.729,1.774a1.751,1.751,0,0,1-1.922-1.8,1.784,1.784,0,0,1,1.871-1.888,1.767,1.767,0,0,1,1.78,1.912" transform="translate(-3.964 -7.933)" fill="#df7c8f"/>
            <path id="パス_931" data-name="パス 931" d="M32.534,102.355c1.021.279,1.875.805,1.89,1.952a1.685,1.685,0,0,1-1.878,1.816,1.661,1.661,0,0,1-1.8-1.7c-.067-1.158.738-1.737,1.792-2.067" transform="translate(-2.38 -7.926)" fill="#df7c8f"/>
            <path id="パス_932" data-name="パス 932" d="M34.484,73.481c-.132,1.229-.767,1.932-1.931,1.928a1.68,1.68,0,0,1-1.807-1.744,1.639,1.639,0,0,1,1.686-1.823,1.8,1.8,0,0,1,2.052,1.638" transform="translate(-2.381 -5.563)" fill="#df7c8f"/>
            <path id="パス_933" data-name="パス 933" d="M43.04,71.836a1.594,1.594,0,0,1,1.592,1.776,1.849,1.849,0,0,1-3.7,0c.038-1.121.748-1.805,2.1-1.774" transform="translate(-3.17 -5.562)" fill="#df7c8f"/>
            <path id="パス_934" data-name="パス 934" d="M24.225,104.426c-.26,1.03-.8,1.763-2.011,1.707a1.6,1.6,0,0,1-1.668-1.8,1.733,1.733,0,0,1,1.82-1.888c1.083.006,1.733.812,1.859,1.977" transform="translate(-1.591 -7.933)" fill="#df7c8f"/>
            <path id="パス_935" data-name="パス 935" d="M3.569,104.68a1.5,1.5,0,0,1-1.715,1.452,1.693,1.693,0,0,1-1.848-1.877,1.725,1.725,0,0,1,1.768-1.81c1.117-.009,1.817.7,1.8,2.234" transform="translate(0 -7.933)" fill="#df7c8f"/>
            <path id="パス_936" data-name="パス 936" d="M155.8,96.01c-1.374-.149-2.1-.852-2.122-1.914a1.768,1.768,0,0,1,1.905-1.844,1.734,1.734,0,0,1,1.775,1.758,1.952,1.952,0,0,1-1.558,2" transform="translate(-11.9 -7.143)" fill="#df7c8f"/>
            <path id="パス_937" data-name="パス 937" d="M54.832,32.781a1.662,1.662,0,0,1-1.89,1.679,1.8,1.8,0,0,1-1.758-2,1.765,1.765,0,0,1,1.869-1.7c1.15.027,1.787.7,1.78,2.014" transform="translate(-3.963 -2.382)" fill="#df7c8f"/>
            <path id="パス_938" data-name="パス 938" d="M42.847,30.678c1.13.311,1.893.864,1.777,2.07a1.7,1.7,0,0,1-1.82,1.7,1.8,1.8,0,0,1-1.858-1.9c.018-1.106.886-1.665,1.9-1.869" transform="translate(-3.171 -2.375)" fill="#df7c8f"/>
            <path id="パス_939" data-name="パス 939" d="M83.843,95.992C82.7,95.83,82,95.239,82.008,94.063a1.709,1.709,0,0,1,1.712-1.815,1.765,1.765,0,0,1,1.947,1.8,1.883,1.883,0,0,1-1.824,1.944" transform="translate(-6.35 -7.143)" fill="#df7c8f"/>
            <path id="パス_940" data-name="パス 940" d="M93.835,20.525c1.231.089,1.993.554,2.066,1.681a1.849,1.849,0,1,1-3.694.1,1.763,1.763,0,0,1,1.628-1.78" transform="translate(-7.14 -1.589)" fill="#df7c8f"/>
            <path id="パス_941" data-name="パス 941" d="M44.672,94c-.114,1.168-.657,1.926-1.842,1.937a1.846,1.846,0,0,1-.124-3.689A1.829,1.829,0,0,1,44.672,94" transform="translate(-3.171 -7.143)" fill="#df7c8f"/>
            <path id="パス_942" data-name="パス 942" d="M22.454,95.984c-1.189-.1-1.872-.664-1.913-1.853a1.7,1.7,0,0,1,1.625-1.882,1.747,1.747,0,0,1,2,1.728,1.859,1.859,0,0,1-1.711,2.008" transform="translate(-1.59 -7.142)" fill="#df7c8f"/>
            <path id="パス_943" data-name="パス 943" d="M147.218,73.56a1.835,1.835,0,0,1-1.944,1.848,1.675,1.675,0,0,1-1.8-1.748,1.63,1.63,0,0,1,1.7-1.815,1.8,1.8,0,0,1,2.047,1.715" transform="translate(-11.109 -5.563)" fill="#df7c8f"/>
            <path id="パス_944" data-name="パス 944" d="M155.742,71.836a1.6,1.6,0,0,1,1.626,1.747,1.849,1.849,0,0,1-3.7.045c.02-1.11.709-1.818,2.069-1.793" transform="translate(-11.899 -5.562)" fill="#df7c8f"/>
            <path id="パス_945" data-name="パス 945" d="M116.3,22.279a1.657,1.657,0,0,1-1.792,1.908,1.684,1.684,0,0,1-1.815-1.736,1.687,1.687,0,0,1,1.844-1.875,1.575,1.575,0,0,1,1.762,1.7" transform="translate(-8.726 -1.593)" fill="#df7c8f"/>
            <path id="パス_946" data-name="パス 946" d="M3.574,83.734c-.007,1.306-.651,1.944-1.71,1.968a1.824,1.824,0,1,1,.082-3.644,1.525,1.525,0,0,1,1.627,1.676" transform="translate(0 -6.354)" fill="#df7c8f"/>
            <path id="パス_947" data-name="パス 947" d="M145.314,85.755c-1.1-.246-1.908-.8-1.841-2a1.687,1.687,0,0,1,1.841-1.7,1.724,1.724,0,0,1,1.85,1.719c.062,1.2-.793,1.728-1.851,1.987" transform="translate(-11.109 -6.353)" fill="#df7c8f"/>
            <path id="パス_948" data-name="パス 948" d="M93.959,81.971c1.2.21,1.982.724,1.942,1.931a1.738,1.738,0,0,1-1.761,1.783,1.767,1.767,0,0,1-1.935-1.81c-.035-1.15.772-1.7,1.754-1.9" transform="translate(-7.14 -6.347)" fill="#df7c8f"/>
            <path id="パス_949" data-name="パス 949" d="M32.537,82c1.11.132,1.894.692,1.888,1.851a1.843,1.843,0,0,1-3.683.089c-.054-1.149.661-1.767,1.794-1.939" transform="translate(-2.38 -6.349)" fill="#df7c8f"/>
            <path id="パス_950" data-name="パス 950" d="M42.9,82c1.018.2,1.749.686,1.733,1.832a1.722,1.722,0,0,1-1.9,1.849,1.75,1.75,0,0,1-1.793-1.808A1.886,1.886,0,0,1,42.9,82" transform="translate(-3.17 -6.349)" fill="#df7c8f"/>
            <path id="パス_951" data-name="パス 951" d="M24.23,32.667c-.28,1.044-.816,1.885-2.026,1.8a1.675,1.675,0,0,1-1.657-1.885,1.669,1.669,0,0,1,1.914-1.8c1.066.065,1.613.828,1.769,1.892" transform="translate(-1.591 -2.383)" fill="#df7c8f"/>
            <path id="パス_952" data-name="パス 952" d="M147.227,32.712c-.321,1.009-.877,1.848-2.047,1.745a1.744,1.744,0,0,1-1.7-2.02,1.7,1.7,0,0,1,1.857-1.667,1.951,1.951,0,0,1,1.889,1.942" transform="translate(-11.109 -2.382)" fill="#df7c8f"/>
            <path id="パス_953" data-name="パス 953" d="M53.019,167.636a1.8,1.8,0,0,1-1.836-1.794,1.77,1.77,0,0,1,1.9-1.887,1.736,1.736,0,0,1,1.734,2.01c-.057,1.17-.753,1.622-1.8,1.671" transform="translate(-3.963 -12.695)" fill="#df7c8f"/>
            <path id="パス_954" data-name="パス 954" d="M83.827,85.751c-1.1-.233-1.881-.773-1.819-1.992a1.665,1.665,0,0,1,1.821-1.71,1.722,1.722,0,0,1,1.845,1.722c.062,1.18-.759,1.751-1.847,1.98" transform="translate(-6.35 -6.353)" fill="#df7c8f"/>
            <path id="パス_955" data-name="パス 955" d="M34.488,32.711c-.328,1-.853,1.871-2.035,1.745a1.768,1.768,0,0,1-1.7-2.019,1.727,1.727,0,0,1,1.86-1.668c1.147.044,1.712.816,1.88,1.943" transform="translate(-2.38 -2.382)" fill="#df7c8f"/>
            <path id="パス_956" data-name="パス 956" d="M94.043,30.7c1.078.216,1.877.748,1.851,1.93a1.838,1.838,0,0,1-3.676.031c-.079-1.122.744-1.722,1.825-1.961" transform="translate(-7.14 -2.377)" fill="#df7c8f"/>
            <path id="パス_957" data-name="パス 957" d="M135.049,24.216a1.743,1.743,0,0,1-1.766-1.665,1.643,1.643,0,0,1,1.688-1.976,1.669,1.669,0,0,1,1.9,1.8c.03,1.072-.629,1.7-1.82,1.842" transform="translate(-10.32 -1.593)" fill="#df7c8f"/>
            <path id="パス_958" data-name="パス 958" d="M123.026,83.857a1.646,1.646,0,0,1,1.718-1.8,1.824,1.824,0,0,1,.116,3.643,1.67,1.67,0,0,1-1.834-1.843" transform="translate(-9.526 -6.354)" fill="#df7c8f"/>
            <path id="パス_959" data-name="パス 959" d="M136.9,83.839c-.131,1.125-.7,1.852-1.782,1.86a1.673,1.673,0,0,1-1.84-1.866,1.636,1.636,0,0,1,1.9-1.78c1.107.046,1.588.816,1.725,1.786" transform="translate(-10.32 -6.353)" fill="#df7c8f"/>
            <path id="パス_960" data-name="パス 960" d="M94.108,157.454a1.847,1.847,0,0,1-1.891-1.9,1.838,1.838,0,0,1,3.676-.028,1.8,1.8,0,0,1-1.784,1.924" transform="translate(-7.141 -11.903)" fill="#df7c8f"/>
            <path id="パス_961" data-name="パス 961" d="M71.779,155.654a1.758,1.758,0,0,1,1.831-1.935,1.853,1.853,0,0,1-.088,3.7c-1.148-.015-1.652-.7-1.744-1.767" transform="translate(-5.558 -11.903)" fill="#df7c8f"/>
            <path id="パス_962" data-name="パス 962" d="M167.555,84.2a1.623,1.623,0,0,1-1.756,1.5,1.826,1.826,0,1,1,.125-3.64c1.071.086,1.673.73,1.631,2.144" transform="translate(-12.692 -6.353)" fill="#df7c8f"/>
            <path id="パス_963" data-name="パス 963" d="M165.752,71.825c1.085.049,1.76.516,1.805,1.68a1.656,1.656,0,0,1-1.789,1.9,1.677,1.677,0,0,1-1.855-1.69,1.729,1.729,0,0,1,1.839-1.892" transform="translate(-12.692 -5.562)" fill="#df7c8f"/>
            <path id="パス_964" data-name="パス 964" d="M13.847,94.164c-.126,1.055-.6,1.794-1.751,1.781a1.855,1.855,0,0,1-.042-3.706c1.2-.021,1.752.762,1.793,1.924" transform="translate(-0.798 -7.142)" fill="#df7c8f"/>
            <path id="パス_965" data-name="パス 965" d="M135.129,71.832a1.632,1.632,0,0,1,1.736,1.774,1.651,1.651,0,0,1-1.883,1.8,1.79,1.79,0,0,1,.147-3.577" transform="translate(-10.32 -5.562)" fill="#df7c8f"/>
            <path id="パス_966" data-name="パス 966" d="M34.493,94.119c-.277,1.029-.771,1.88-1.968,1.817a1.845,1.845,0,0,1,.011-3.688c1.138-.019,1.722.78,1.957,1.872" transform="translate(-2.381 -7.143)" fill="#df7c8f"/>
            <path id="パス_967" data-name="パス 967" d="M155.407,40.839c1.1.327,1.931.806,1.952,1.987a1.652,1.652,0,0,1-1.685,1.818,1.777,1.777,0,0,1-2-1.729c-.12-1.172.839-1.66,1.737-2.077" transform="translate(-11.898 -3.162)" fill="#df7c8f"/>
            <path id="パス_968" data-name="パス 968" d="M106.114,22.3a1.743,1.743,0,0,1-1.869,1.873,1.725,1.725,0,0,1-1.831-1.752,1.747,1.747,0,0,1,1.906-1.849,1.65,1.65,0,0,1,1.794,1.728" transform="translate(-7.93 -1.593)" fill="#df7c8f"/>
            <path id="パス_969" data-name="パス 969" d="M65.062,94.315a1.568,1.568,0,0,1-1.682,1.628,1.849,1.849,0,1,1,.054-3.7c1.066.058,1.646.768,1.628,2.069" transform="translate(-4.765 -7.143)" fill="#df7c8f"/>
            <path id="パス_970" data-name="パス 970" d="M116.3,73.592a1.618,1.618,0,0,1-1.676,1.818,1.789,1.789,0,1,1-.017-3.568,1.558,1.558,0,0,1,1.693,1.749" transform="translate(-8.726 -5.563)" fill="#df7c8f"/>
            <path id="パス_971" data-name="パス 971" d="M104.385,71.823a1.621,1.621,0,0,1,1.709,1.78,1.843,1.843,0,0,1-3.684.017,1.762,1.762,0,0,1,1.975-1.8" transform="translate(-7.93 -5.561)" fill="#df7c8f"/>
            <path id="パス_972" data-name="パス 972" d="M95.955,94.088c-.213,1.075-.737,1.881-1.924,1.849a1.844,1.844,0,0,1-.041-3.687c1.134-.041,1.745.731,1.964,1.838" transform="translate(-7.14 -7.143)" fill="#df7c8f"/>
            <path id="パス_973" data-name="パス 973" d="M85.73,22.306c-.166,1.171-.814,1.906-1.962,1.867A1.688,1.688,0,0,1,82,22.389a1.649,1.649,0,0,1,1.7-1.815c1.209-.081,1.784.654,2.024,1.732" transform="translate(-6.35 -1.593)" fill="#df7c8f"/>
            <path id="パス_974" data-name="パス 974" d="M145.34,147.259c-1.069-.2-1.806-.735-1.866-1.807a1.72,1.72,0,0,1,1.805-1.918,1.7,1.7,0,0,1,1.871,1.682c.049,1.139-.837,1.7-1.81,2.044" transform="translate(-11.109 -11.114)" fill="#df7c8f"/>
            <path id="パス_975" data-name="パス 975" d="M126.576,94.136c-.078,1.041-.551,1.781-1.693,1.806a1.643,1.643,0,0,1-1.839-1.857,1.664,1.664,0,0,1,1.867-1.841c1.084.041,1.627.78,1.664,1.892" transform="translate(-9.528 -7.143)" fill="#df7c8f"/>
            <path id="パス_976" data-name="パス 976" d="M136.911,94.141c-.249,1.067-.746,1.9-1.989,1.8a1.66,1.66,0,0,1-1.643-1.881A1.683,1.683,0,0,1,135,92.242c1.195-.045,1.738.785,1.91,1.9" transform="translate(-10.32 -7.142)" fill="#df7c8f"/>
            <path id="パス_977" data-name="パス 977" d="M145.444,96.021c-1.279-.212-2-.828-1.966-1.981a1.728,1.728,0,0,1,1.754-1.788,1.79,1.79,0,0,1,1.928,1.823c.03,1.15-.824,1.672-1.716,1.946" transform="translate(-11.11 -7.143)" fill="#df7c8f"/>
            <path id="パス_978" data-name="パス 978" d="M126.572,145.275c-.028,1.158-.561,1.931-1.771,1.933a1.631,1.631,0,0,1-1.762-1.747,1.665,1.665,0,0,1,1.761-1.932,1.647,1.647,0,0,1,1.772,1.746" transform="translate(-9.527 -11.114)" fill="#df7c8f"/>
            <path id="パス_979" data-name="パス 979" d="M54.835,53.072a1.587,1.587,0,0,1-1.67,1.784A1.725,1.725,0,0,1,51.184,53.1a1.764,1.764,0,0,1,1.907-1.877,1.731,1.731,0,0,1,1.745,1.851" transform="translate(-3.963 -3.966)" fill="#df7c8f"/>
            <path id="パス_980" data-name="パス 980" d="M65.062,145.379a1.628,1.628,0,0,1-1.674,1.825,1.836,1.836,0,1,1,.033-3.672,1.607,1.607,0,0,1,1.641,1.847" transform="translate(-4.765 -11.114)" fill="#df7c8f"/>
            <path id="パス_981" data-name="パス 981" d="M34.488,145.292c-.191,1.12-.778,1.918-1.916,1.9a1.763,1.763,0,0,1-1.828-1.9,1.693,1.693,0,0,1,1.742-1.767c1.163-.049,1.745.715,2,1.769" transform="translate(-2.381 -11.113)" fill="#df7c8f"/>
            <path id="パス_982" data-name="パス 982" d="M134.861,54.865a1.571,1.571,0,0,1-1.578-1.8,1.717,1.717,0,0,1,1.887-1.84,1.676,1.676,0,0,1,1.7,1.846,1.712,1.712,0,0,1-2.006,1.791" transform="translate(-10.32 -3.967)" fill="#df7c8f"/>
            <path id="パス_983" data-name="パス 983" d="M53.028,71.825c1.074.054,1.757.509,1.793,1.681a1.657,1.657,0,0,1-1.789,1.9,1.684,1.684,0,0,1-1.853-1.692,1.736,1.736,0,0,1,1.848-1.891" transform="translate(-3.963 -5.562)" fill="#df7c8f"/>
            <path id="パス_984" data-name="パス 984" d="M22.228,71.831a1.707,1.707,0,0,1,1.949,1.836,1.647,1.647,0,0,1-1.788,1.739,1.657,1.657,0,0,1-1.845-1.847,1.605,1.605,0,0,1,1.684-1.728" transform="translate(-1.591 -5.562)" fill="#df7c8f"/>
            <path id="パス_985" data-name="パス 985" d="M22.265,20.518c1.243.156,1.906.781,1.913,1.824a1.7,1.7,0,0,1-1.885,1.83,1.64,1.64,0,0,1-1.746-1.752c.007-1.22.863-1.639,1.718-1.9" transform="translate(-1.591 -1.589)" fill="#df7c8f"/>
            <path id="パス_986" data-name="パス 986" d="M136.9,135.074c-.1,1.1-.654,1.838-1.733,1.864a1.669,1.669,0,0,1-1.882-1.814,1.609,1.609,0,0,1,1.678-1.8c1.249-.066,1.756.685,1.937,1.753" transform="translate(-10.32 -10.323)" fill="#df7c8f"/>
            <path id="パス_987" data-name="パス 987" d="M32.577,65.09c-1.169-.03-1.849-.626-1.832-1.714a1.686,1.686,0,0,1,1.9-1.819A1.669,1.669,0,0,1,34.435,63.3c.022,1.224-.73,1.768-1.858,1.79" transform="translate(-2.381 -4.766)" fill="#df7c8f"/>
            <path id="パス_988" data-name="パス 988" d="M83.9,13.892c-1.156-.059-1.857-.584-1.889-1.7a1.836,1.836,0,0,1,3.664-.173c.065,1.2-.687,1.777-1.775,1.871" transform="translate(-6.35 -0.801)" fill="#df7c8f"/>
            <path id="パス_989" data-name="パス 989" d="M94.181,126.6c-1.222-.022-1.956-.584-1.972-1.669a1.848,1.848,0,1,1,3.7,0,1.616,1.616,0,0,1-1.725,1.671" transform="translate(-7.14 -9.53)" fill="#df7c8f"/>
            <path id="パス_990" data-name="パス 990" d="M83.856,126.6a1.616,1.616,0,0,1-1.843-1.65,1.638,1.638,0,0,1,1.81-1.873,1.668,1.668,0,0,1,1.858,1.847c-.018,1.106-.747,1.634-1.825,1.675" transform="translate(-6.35 -9.53)" fill="#df7c8f"/>
            <path id="パス_991" data-name="パス 991" d="M106.116,104.3a1.673,1.673,0,0,1-1.714,1.831,1.766,1.766,0,0,1-1.987-1.746,1.852,1.852,0,1,1,3.7-.085" transform="translate(-7.93 -7.933)" fill="#df7c8f"/>
            <path id="パス_992" data-name="パス 992" d="M32.546,126.6c-1.123-.056-1.82-.639-1.8-1.729a1.672,1.672,0,0,1,1.9-1.8,1.643,1.643,0,0,1,1.788,1.732c.016,1.224-.744,1.758-1.892,1.8" transform="translate(-2.381 -9.53)" fill="#df7c8f"/>
            <path id="パス_993" data-name="パス 993" d="M94.085,10.33c1.126.058,1.856.605,1.819,1.839a1.854,1.854,0,0,1-3.691.051,1.7,1.7,0,0,1,1.872-1.889" transform="translate(-7.14 -0.8)" fill="#df7c8f"/>
            <path id="パス_994" data-name="パス 994" d="M134.705,116.345c-.774,0-1.383-.571-1.424-1.681a1.694,1.694,0,0,1,1.8-1.911,1.641,1.641,0,0,1,1.784,1.73c.025,1.141-.569,1.856-2.157,1.862" transform="translate(-10.32 -8.731)" fill="#df7c8f"/>
            <path id="パス_995" data-name="パス 995" d="M54.83,114.821a1.539,1.539,0,0,1-1.786,1.519,1.692,1.692,0,0,1-1.859-1.853,1.719,1.719,0,0,1,1.839-1.731c1.126.025,1.827.685,1.806,2.065" transform="translate(-3.963 -8.731)" fill="#df7c8f"/>
            <path id="パス_996" data-name="パス 996" d="M22.27,126.595a1.552,1.552,0,0,1-1.721-1.605,1.637,1.637,0,0,1,1.746-1.92,1.661,1.661,0,0,1,1.885,1.806c.007,1.077-.667,1.678-1.911,1.719" transform="translate(-1.591 -9.529)" fill="#df7c8f"/>
            <path id="パス_997" data-name="パス 997" d="M135.036,65.088a1.561,1.561,0,0,1-1.752-1.685,1.795,1.795,0,1,1,1.752,1.685" transform="translate(-10.321 -4.766)" fill="#df7c8f"/>
            <path id="パス_998" data-name="パス 998" d="M73.416,20.541c1.279.054,1.888.691,1.934,1.745a1.779,1.779,0,1,1-3.553.17,1.694,1.694,0,0,1,1.619-1.914" transform="translate(-5.559 -1.591)" fill="#df7c8f"/>
            <path id="パス_999" data-name="パス 999" d="M13.841,42.955a1.621,1.621,0,0,1-1.679,1.71c-1.257.042-1.821-.662-1.847-1.841a1.668,1.668,0,0,1,1.85-1.859c1.068.021,1.649.768,1.676,1.99" transform="translate(-0.799 -3.172)" fill="#df7c8f"/>
            <path id="パス_1000" data-name="パス 1000" d="M65.067,43a1.572,1.572,0,0,1-1.685,1.66,1.85,1.85,0,0,1-.14-3.695c1.15-.039,1.815.678,1.825,2.035" transform="translate(-4.765 -3.172)" fill="#df7c8f"/>
            <path id="パス_1001" data-name="パス 1001" d="M104.45,10.333a1.6,1.6,0,0,1,1.645,1.722c.02,1.254-.7,1.8-1.86,1.812a1.652,1.652,0,0,1-1.823-1.708c0-1.105.694-1.823,2.038-1.826" transform="translate(-7.93 -0.8)" fill="#df7c8f"/>
            <path id="パス_1002" data-name="パス 1002" d="M134.947,147.247a1.807,1.807,0,0,1-1.666-2.058,1.627,1.627,0,0,1,1.841-1.66,1.713,1.713,0,0,1,1.736,2,1.815,1.815,0,0,1-1.912,1.721" transform="translate(-10.32 -11.114)" fill="#df7c8f"/>
            <path id="パス_1003" data-name="パス 1003" d="M13.827,53.323a1.505,1.505,0,0,1-1.591,1.529,1.614,1.614,0,0,1-1.931-1.707A1.7,1.7,0,0,1,12.1,51.223c1.019-.025,1.709.637,1.729,2.1" transform="translate(-0.798 -3.966)" fill="#df7c8f"/>
            <path id="パス_1004" data-name="パス 1004" d="M63.377,116.344a1.593,1.593,0,0,1-1.842-1.66,1.673,1.673,0,0,1,1.807-1.928,1.621,1.621,0,0,1,1.722,1.809,1.558,1.558,0,0,1-1.686,1.779" transform="translate(-4.764 -8.731)" fill="#df7c8f"/>
            <path id="パス_1005" data-name="パス 1005" d="M2.355,54.854c-1.7.036-2.329-.67-2.347-1.8a1.7,1.7,0,0,1,1.737-1.821,1.679,1.679,0,0,1,1.829,1.876c0,1.14-.579,1.687-1.22,1.748" transform="translate(-0.001 -3.967)" fill="#df7c8f"/>
            <path id="パス_1006" data-name="パス 1006" d="M104.458,65.091c-1.36-.006-2.084-.676-2.045-1.818a1.7,1.7,0,0,1,1.84-1.72,1.664,1.664,0,0,1,1.841,1.854,1.549,1.549,0,0,1-1.636,1.684" transform="translate(-7.93 -4.766)" fill="#df7c8f"/>
            <path id="パス_1007" data-name="パス 1007" d="M94.068,65.091c-1.215-.042-1.892-.664-1.862-1.74A1.7,1.7,0,0,1,94.14,61.56a1.664,1.664,0,0,1,1.767,1.767c.008,1.255-.768,1.741-1.839,1.765" transform="translate(-7.14 -4.766)" fill="#df7c8f"/>
            <path id="パス_1008" data-name="パス 1008" d="M84.223,65.077c-1.459.029-2.157-.488-2.21-1.608a1.835,1.835,0,1,1,3.668-.087,1.562,1.562,0,0,1-1.459,1.695" transform="translate(-6.35 -4.766)" fill="#df7c8f"/>
            <path id="パス_1009" data-name="パス 1009" d="M115.218,116.308c-1.79.1-2.49-.588-2.532-1.7a1.7,1.7,0,0,1,1.71-1.841,1.656,1.656,0,0,1,1.894,1.787c.038,1.144-.554,1.685-1.073,1.757" transform="translate(-8.726 -8.731)" fill="#df7c8f"/>
            <path id="パス_1010" data-name="パス 1010" d="M42.768,10.326c1.162.054,1.888.578,1.864,1.827a1.63,1.63,0,0,1-1.784,1.716,1.673,1.673,0,0,1-1.91-1.623,1.731,1.731,0,0,1,1.83-1.92" transform="translate(-3.17 -0.8)" fill="#df7c8f"/>
            <path id="パス_1011" data-name="パス 1011" d="M155.814,65.083c-1.377.021-2.105-.566-2.142-1.631a1.849,1.849,0,1,1,3.7-.042,1.536,1.536,0,0,1-1.555,1.674" transform="translate(-11.899 -4.767)" fill="#df7c8f"/>
            <path id="パス_1012" data-name="パス 1012" d="M126.573,104.41a1.768,1.768,0,1,1-3.534-.1,1.7,1.7,0,0,1,1.677-1.865c1.141-.067,1.807.673,1.857,1.962" transform="translate(-9.527 -7.932)" fill="#df7c8f"/>
            <path id="パス_1013" data-name="パス 1013" d="M65.058,22.674a1.533,1.533,0,0,1-1.709,1.507,1.638,1.638,0,0,1-1.817-1.853,1.644,1.644,0,0,1,1.918-1.747c1.1.057,1.637.726,1.607,2.092" transform="translate(-4.765 -1.593)" fill="#df7c8f"/>
            <path id="パス_1014" data-name="パス 1014" d="M73.987,3.6c-1.549-.008-2.143-.573-2.188-1.687a1.782,1.782,0,1,1,3.554.008c-.045,1.07-.638,1.71-1.365,1.679" transform="translate(-5.559 0)" fill="#df7c8f"/>
            <path id="パス_1015" data-name="パス 1015" d="M74.143,167.6c-1.645.054-2.242-.52-2.342-1.628a1.784,1.784,0,1,1,3.549-.145c-.006,1.06-.564,1.744-1.207,1.773" transform="translate(-5.559 -12.694)" fill="#df7c8f"/>
            <path id="パス_1016" data-name="パス 1016" d="M65.065,165.953a1.569,1.569,0,0,1-1.785,1.653,1.626,1.626,0,0,1-1.74-1.927,1.677,1.677,0,0,1,1.8-1.73,1.7,1.7,0,0,1,1.722,2" transform="translate(-4.765 -12.695)" fill="#df7c8f"/>
            <path id="パス_1017" data-name="パス 1017" d="M65.058,53.414a1.482,1.482,0,0,1-1.683,1.444,1.624,1.624,0,0,1-1.841-1.813,1.666,1.666,0,0,1,1.714-1.816c1.12-.027,1.829.652,1.809,2.185" transform="translate(-4.765 -3.967)" fill="#df7c8f"/>
            <path id="パス_1018" data-name="パス 1018" d="M166.225,65.066c-1.585.075-2.307-.611-2.323-1.719a1.71,1.71,0,0,1,1.741-1.8c1.255-.075,1.78.683,1.879,1.806a1.4,1.4,0,0,1-1.3,1.711" transform="translate(-12.691 -4.765)" fill="#df7c8f"/>
            <path id="パス_1019" data-name="パス 1019" d="M42.994,126.6c-1.311-.019-2.091-.61-2.061-1.787a1.684,1.684,0,0,1,1.811-1.739,1.654,1.654,0,0,1,1.89,1.8,1.6,1.6,0,0,1-1.64,1.723" transform="translate(-3.169 -9.53)" fill="#df7c8f"/>
            <path id="パス_1020" data-name="パス 1020" d="M53.209,126.6c-1.34-.009-2.069-.673-2.027-1.815a1.647,1.647,0,0,1,1.8-1.713,1.629,1.629,0,0,1,1.839,1.819,1.541,1.541,0,0,1-1.613,1.709" transform="translate(-3.963 -9.53)" fill="#df7c8f"/>
            <path id="パス_1021" data-name="パス 1021" d="M71.773,83.914c.1-1.326.8-1.936,1.957-1.859a1.833,1.833,0,0,1-.143,3.651,1.7,1.7,0,0,1-1.814-1.792" transform="translate(-5.558 -6.353)" fill="#df7c8f"/>
            <path id="パス_1022" data-name="パス 1022" d="M65.063,83.959a1.766,1.766,0,1,1-3.53-.093,1.663,1.663,0,0,1,1.88-1.808c1.088.034,1.662.7,1.65,1.9" transform="translate(-4.765 -6.354)" fill="#df7c8f"/>
            <path id="パス_1023" data-name="パス 1023" d="M125.118,54.861c-1.385.013-2-.531-2.079-1.646a1.7,1.7,0,0,1,1.722-1.987,1.653,1.653,0,0,1,1.8,1.888c-.028,1.086-.565,1.725-1.442,1.745" transform="translate(-9.527 -3.967)" fill="#df7c8f"/>
            <path id="パス_1024" data-name="パス 1024" d="M126.575,155.667c-.087,1-.541,1.734-1.7,1.751a1.646,1.646,0,0,1-1.832-1.861,1.668,1.668,0,0,1,1.7-1.84c1.172-.045,1.792.7,1.834,1.949" transform="translate(-9.527 -11.903)" fill="#df7c8f"/>
            <path id="パス_1025" data-name="パス 1025" d="M104.546,126.593c-1.4,0-2.119-.626-2.133-1.669a1.7,1.7,0,0,1,1.883-1.848,1.629,1.629,0,0,1,1.8,1.876,1.531,1.531,0,0,1-1.547,1.641" transform="translate(-7.93 -9.53)" fill="#df7c8f"/>
            <path id="パス_1026" data-name="パス 1026" d="M116.275,124.283c.058,1.607-.469,2.239-1.6,2.305a1.769,1.769,0,1,1-.14-3.523c1.124.016,1.662.628,1.736,1.218" transform="translate(-8.726 -9.529)" fill="#df7c8f"/>
            <path id="パス_1027" data-name="パス 1027" d="M134.986,34.515a1.8,1.8,0,0,1-1.7-2.038,1.659,1.659,0,0,1,1.816-1.712,1.7,1.7,0,0,1,1.76,1.8,1.845,1.845,0,0,1-1.873,1.947" transform="translate(-10.32 -2.382)" fill="#df7c8f"/>
            <path id="パス_1028" data-name="パス 1028" d="M134.669,126.581a1.51,1.51,0,0,1-1.386-1.762,1.6,1.6,0,0,1,1.761-1.749,1.644,1.644,0,0,1,1.824,1.886c-.037,1.114-.742,1.667-2.2,1.626" transform="translate(-10.32 -9.53)" fill="#df7c8f"/>
            <path id="パス_1029" data-name="パス 1029" d="M10.3,83.669a1.611,1.611,0,0,1,1.781-1.614,1.828,1.828,0,0,1-.018,3.653c-1.173-.025-1.776-.744-1.762-2.04" transform="translate(-0.798 -6.354)" fill="#df7c8f"/>
            <path id="パス_1030" data-name="パス 1030" d="M155.665,126.6c-1.243-.017-1.977-.6-2-1.671a1.668,1.668,0,0,1,1.859-1.85c1.176.028,1.881.608,1.841,1.855a1.6,1.6,0,0,1-1.7,1.665" transform="translate(-11.899 -9.53)" fill="#df7c8f"/>
            <path id="パス_1031" data-name="パス 1031" d="M71.784,104.558c.035-1.509.8-2.148,1.9-2.11a1.7,1.7,0,0,1,1.669,1.895,1.667,1.667,0,0,1-1.91,1.8,1.607,1.607,0,0,1-1.656-1.58" transform="translate(-5.558 -7.933)" fill="#df7c8f"/>
            <path id="パス_1032" data-name="パス 1032" d="M10.291,135.019a1.638,1.638,0,0,1,1.874-1.692,1.578,1.578,0,0,1,1.659,1.792,1.6,1.6,0,0,1-1.659,1.821c-1.132.025-1.846-.591-1.874-1.921" transform="translate(-0.797 -10.324)" fill="#df7c8f"/>
            <path id="パス_1033" data-name="パス 1033" d="M53.1,65.094c-1.231-.023-1.949-.682-1.913-1.829a1.821,1.821,0,0,1,3.639.137c0,1.179-.663,1.651-1.725,1.692" transform="translate(-3.963 -4.766)" fill="#df7c8f"/>
            <path id="パス_1034" data-name="パス 1034" d="M42.962,65.091c-1.3,0-2.05-.62-2.027-1.79a1.851,1.851,0,0,1,3.7.077c.012,1.181-.711,1.627-1.673,1.712" transform="translate(-3.17 -4.766)" fill="#df7c8f"/>
            <path id="パス_1035" data-name="パス 1035" d="M126.568,43.017a1.585,1.585,0,0,1-1.637,1.644,1.634,1.634,0,0,1-1.888-1.8,1.685,1.685,0,0,1,1.823-1.895c1.048.006,1.678.715,1.7,2.05" transform="translate(-9.528 -3.172)" fill="#df7c8f"/>
            <path id="パス_1036" data-name="パス 1036" d="M65.055,104.717a1.513,1.513,0,0,1-1.734,1.416,1.652,1.652,0,0,1-1.781-1.908,1.686,1.686,0,0,1,1.765-1.782c1.126,0,1.792.75,1.751,2.274" transform="translate(-4.765 -7.932)" fill="#df7c8f"/>
            <path id="パス_1037" data-name="パス 1037" d="M65.041,134.592c.072,1.638-.566,2.341-1.725,2.351a1.625,1.625,0,0,1-1.78-1.722,1.644,1.644,0,0,1,1.769-1.9,1.5,1.5,0,0,1,1.736,1.269" transform="translate(-4.765 -10.323)" fill="#df7c8f"/>
            <path id="パス_1038" data-name="パス 1038" d="M71.786,134.958a1.645,1.645,0,0,1,1.945-1.632,1.814,1.814,0,0,1-.14,3.616,1.715,1.715,0,0,1-1.8-1.984" transform="translate(-5.559 -10.323)" fill="#df7c8f"/>
            <path id="パス_1039" data-name="パス 1039" d="M126.566,22.135c-.019,1.4-.657,2.052-1.741,2.046a1.646,1.646,0,0,1-1.787-1.925,1.614,1.614,0,0,1,1.837-1.678,1.545,1.545,0,0,1,1.691,1.557" transform="translate(-9.527 -1.593)" fill="#df7c8f"/>
            <path id="パス_1040" data-name="パス 1040" d="M65.069,73.505a1.606,1.606,0,0,1-1.624,1.9,1.625,1.625,0,0,1-1.911-1.787,1.6,1.6,0,0,1,1.731-1.772,1.579,1.579,0,0,1,1.8,1.662" transform="translate(-4.765 -5.563)" fill="#df7c8f"/>
            <path id="パス_1041" data-name="パス 1041" d="M22.313,65.091c-1.161-.042-1.777-.62-1.765-1.738a1.658,1.658,0,0,1,1.88-1.805,1.773,1.773,0,1,1-.115,3.544" transform="translate(-1.591 -4.766)" fill="#df7c8f"/>
            <path id="パス_1042" data-name="パス 1042" d="M65.068,155.763a1.584,1.584,0,0,1-1.743,1.655,1.853,1.853,0,0,1-.019-3.7c1.168,0,1.773.761,1.762,2.048" transform="translate(-4.765 -11.903)" fill="#df7c8f"/>
            <path id="パス_1043" data-name="パス 1043" d="M126.56,134.849c.033,1.366-.577,2.091-1.746,2.093a1.809,1.809,0,0,1-.019-3.617,1.554,1.554,0,0,1,1.765,1.524" transform="translate(-9.527 -10.324)" fill="#df7c8f"/>
            <path id="パス_1044" data-name="パス 1044" d="M13.843,104.5a1.611,1.611,0,0,1-1.764,1.639c-1.267-.006-1.763-.742-1.767-1.913a1.665,1.665,0,0,1,1.753-1.781c1.155-.025,1.769.77,1.778,2.055" transform="translate(-0.798 -7.932)" fill="#df7c8f"/>
            <path id="パス_1045" data-name="パス 1045" d="M104.515.122A1.628,1.628,0,0,1,106.094,2c-.077,1.154-.767,1.612-1.852,1.592a1.658,1.658,0,0,1-1.822-1.864c.062-1.006.732-1.683,2.094-1.6" transform="translate(-7.93 -0.009)" fill="#df7c8f"/>
            <path id="パス_1046" data-name="パス 1046" d="M126.561,73.395c-.015,1.435-.682,2.035-1.763,2.015a1.633,1.633,0,0,1-1.756-1.944,1.586,1.586,0,0,1,1.861-1.621,1.511,1.511,0,0,1,1.658,1.55" transform="translate(-9.527 -5.563)" fill="#df7c8f"/>
            <path id="パス_1047" data-name="パス 1047" d="M11.954,71.824c1.354.047,1.861.714,1.87,1.81A1.576,1.576,0,0,1,12.1,75.408,1.639,1.639,0,0,1,10.306,73.5a1.589,1.589,0,0,1,1.649-1.675" transform="translate(-0.798 -5.562)" fill="#df7c8f"/>
            <path id="パス_1048" data-name="パス 1048" d="M52.883,10.322c1.171.039,1.871.476,1.936,1.638a1.62,1.62,0,0,1-1.745,1.912,1.659,1.659,0,0,1-1.889-1.624,1.719,1.719,0,0,1,1.7-1.925" transform="translate(-3.963 -0.799)" fill="#df7c8f"/>
            <path id="パス_1049" data-name="パス 1049" d="M1.965,71.834a1.542,1.542,0,0,1,1.61,1.722,1.624,1.624,0,0,1-1.8,1.853A1.625,1.625,0,0,1,.009,73.668a1.7,1.7,0,0,1,1.956-1.834" transform="translate(-0.001 -5.562)" fill="#df7c8f"/>
            <path id="パス_1050" data-name="パス 1050" d="M73.541,54.864A1.594,1.594,0,0,1,71.8,53.145a1.7,1.7,0,0,1,1.8-1.919,1.672,1.672,0,0,1,1.749,1.954,1.609,1.609,0,0,1-1.8,1.684" transform="translate(-5.559 -3.967)" fill="#df7c8f"/>
            <path id="パス_1051" data-name="パス 1051" d="M116.3,12.125a1.583,1.583,0,0,1-1.713,1.749,1.657,1.657,0,0,1-1.894-1.791,1.681,1.681,0,0,1,1.952-1.742,1.567,1.567,0,0,1,1.655,1.783" transform="translate(-8.726 -0.8)" fill="#df7c8f"/>
            <path id="パス_1052" data-name="パス 1052" d="M73.893,116.346c-1.439,0-2.037-.557-2.094-1.669a1.684,1.684,0,0,1,1.771-1.924,1.611,1.611,0,0,1,1.77,1.72c.027,1.16-.536,1.853-1.448,1.873" transform="translate(-5.559 -8.731)" fill="#df7c8f"/>
            <path id="パス_1053" data-name="パス 1053" d="M65.066,1.933a1.562,1.562,0,0,1-1.807,1.652,1.577,1.577,0,0,1-1.722-1.769A1.659,1.659,0,0,1,63.453.011a1.641,1.641,0,0,1,1.613,1.922" transform="translate(-4.765 0)" fill="#df7c8f"/>
            <path id="パス_1054" data-name="パス 1054" d="M116.3,63.286c-.024,1.249-.626,1.8-1.743,1.8a1.658,1.658,0,0,1-1.865-1.818,1.806,1.806,0,0,1,3.608.019" transform="translate(-8.726 -4.766)" fill="#df7c8f"/>
            <path id="パス_1055" data-name="パス 1055" d="M73.643,126.594c-1.073-.017-1.8-.458-1.839-1.63a1.777,1.777,0,1,1,3.55-.151,1.566,1.566,0,0,1-1.711,1.781" transform="translate(-5.56 -9.53)" fill="#df7c8f"/>
            <path id="パス_1056" data-name="パス 1056" d="M73.495,65.089A1.575,1.575,0,0,1,71.8,63.31a1.6,1.6,0,0,1,1.745-1.762,1.633,1.633,0,0,1,1.8,1.9,1.576,1.576,0,0,1-1.852,1.644" transform="translate(-5.56 -4.766)" fill="#df7c8f"/>
            <path id="パス_1057" data-name="パス 1057" d="M126.549,114.953c-.075.826-.632,1.416-1.8,1.389a1.56,1.56,0,0,1-1.713-1.759,1.652,1.652,0,0,1,1.9-1.815c1.085.049,1.662.769,1.607,2.185" transform="translate(-9.527 -8.732)" fill="#df7c8f"/>
            <path id="パス_1058" data-name="パス 1058" d="M73.536,71.833a1.787,1.787,0,0,1,.158,3.569A1.633,1.633,0,0,1,71.8,73.6a1.612,1.612,0,0,1,1.736-1.765" transform="translate(-5.56 -5.562)" fill="#df7c8f"/>
            <path id="パス_1059" data-name="パス 1059" d="M1.808,116.349A1.629,1.629,0,0,1,0,114.648a1.7,1.7,0,0,1,1.829-1.895A1.664,1.664,0,0,1,3.573,114.7a1.553,1.553,0,0,1-1.765,1.653" transform="translate(0 -8.731)" fill="#df7c8f"/>
            <path id="パス_1060" data-name="パス 1060" d="M65.066,12.061c-.033,1.285-.693,1.821-1.791,1.808a1.581,1.581,0,0,1-1.738-1.756,1.619,1.619,0,0,1,1.9-1.769,1.532,1.532,0,0,1,1.625,1.716" transform="translate(-4.765 -0.801)" fill="#df7c8f"/>
            <path id="パス_1061" data-name="パス 1061" d="M3.575,63.428a1.555,1.555,0,0,1-1.8,1.655A1.6,1.6,0,0,1,0,63.337a1.671,1.671,0,0,1,1.941-1.789,1.618,1.618,0,0,1,1.63,1.879" transform="translate(0 -4.765)" fill="#df7c8f"/>
            <path id="パス_1062" data-name="パス 1062" d="M11.58,65.077c-.624-.024-1.262-.56-1.274-1.7a1.611,1.611,0,0,1,1.856-1.819,1.6,1.6,0,0,1,1.669,1.831c-.018,1.122-.614,1.72-2.251,1.693" transform="translate(-0.798 -4.766)" fill="#df7c8f"/>
            <path id="パス_1063" data-name="パス 1063" d="M73.127,10.353c1.5-.054,2.143.515,2.208,1.626a1.565,1.565,0,0,1-1.587,1.882c-1.166.056-1.925-.448-1.948-1.718a1.569,1.569,0,0,1,1.328-1.79" transform="translate(-5.56 -0.801)" fill="#df7c8f"/>
            <path id="パス_1064" data-name="パス 1064" d="M13.825,114.641a1.579,1.579,0,0,1-1.766,1.7,1.575,1.575,0,0,1-1.753-1.729,1.663,1.663,0,0,1,1.873-1.852,1.6,1.6,0,0,1,1.646,1.878" transform="translate(-0.798 -8.731)" fill="#df7c8f"/>
            <path id="パス_1065" data-name="パス 1065" d="M123.038,11.861a1.56,1.56,0,0,1,1.794-1.518c1.273.014,1.772.755,1.716,1.931a1.555,1.555,0,0,1-1.871,1.589c-1.125-.06-1.666-.715-1.639-2" transform="translate(-9.527 -0.801)" fill="#df7c8f"/>
            <path id="パス_1066" data-name="パス 1066" d="M124.754,126.592a1.574,1.574,0,0,1-1.717-1.753,1.618,1.618,0,0,1,1.9-1.766,1.762,1.762,0,0,1-.183,3.519" transform="translate(-9.527 -9.53)" fill="#df7c8f"/>
            <path id="パス_1067" data-name="パス 1067" d="M65.07,124.661c-.027,1.386-.666,1.924-1.771,1.927a1.566,1.566,0,0,1-1.763-1.714,1.633,1.633,0,0,1,1.877-1.8,1.538,1.538,0,0,1,1.657,1.591" transform="translate(-4.765 -9.53)" fill="#df7c8f"/>
            <path id="パス_1068" data-name="パス 1068" d="M13.838,124.711c-.031,1.3-.628,1.894-1.755,1.88a1.575,1.575,0,0,1-1.777-1.7,1.61,1.61,0,0,1,1.845-1.821,1.569,1.569,0,0,1,1.686,1.639" transform="translate(-0.798 -9.53)" fill="#df7c8f"/>
            <path id="パス_1069" data-name="パス 1069" d="M124.431,65.077c-.818-.03-1.4-.621-1.395-1.748a1.761,1.761,0,1,1,3.519.1c-.033,1.138-.684,1.674-2.124,1.648" transform="translate(-9.527 -4.766)" fill="#df7c8f"/>
            <path id="パス_1070" data-name="パス 1070" d="M63.83,65.071c-1.572.041-2.246-.5-2.289-1.622a1.637,1.637,0,0,1,1.791-1.9,1.591,1.591,0,0,1,1.731,1.762c.01,1.125-.535,1.737-1.233,1.761" transform="translate(-4.765 -4.766)" fill="#df7c8f"/>
            <path id="パス_1071" data-name="パス 1071" d="M13.848,32.7a1.676,1.676,0,0,1-1.781,1.78,1.459,1.459,0,0,1-1.608-1.24c-.105-.6,1.506-2.473,2.026-2.455.656.025,1.338.908,1.363,1.915" transform="translate(-0.81 -2.384)" fill="#df7c8f"/>
            <path id="パス_1072" data-name="パス 1072" d="M134.993,153.648c.96.168,1.847.61,1.742,1.6-.122,1.149-1.269,1.727-2.224,1.948-.785.182-1.2-.679-1.239-1.509-.056-1.226.7-1.742,1.721-2.041" transform="translate(-10.319 -11.897)" fill="#df7c8f"/>
            <path id="パス_1073" data-name="パス 1073" d="M154.646,136.66c-.673-.458-1.161-1-.987-1.741a1.791,1.791,0,0,1,1.956-1.6c.435.029,1.071.051.871.636a5.528,5.528,0,0,1-1.84,2.7" transform="translate(-11.895 -10.323)" fill="#df7c8f"/>
            <path id="パス_1074" data-name="パス 1074" d="M34.5,12.292a1.739,1.739,0,0,1-1.854,1.637c-.625.009-1.566-.135-1.4-.829.273-1.177,1.533-1.579,2.553-1.933.6-.208.659.554.706,1.126" transform="translate(-2.418 -0.862)" fill="#df7c8f"/>
            <path id="パス_1075" data-name="パス 1075" d="M165.278,116.344c-1.007-.488-1.559-1.105-1.329-2.11a1.757,1.757,0,0,1,1.339-1.4c.828-.211,1.278,0,1,.9-.269.877-.659,1.717-1.011,2.614" transform="translate(-12.691 -8.731)" fill="#df7c8f"/>
            <path id="パス_1076" data-name="パス 1076" d="M53.094,3.691c-.755-.054-1.723-.293-1.5-1.009.338-1.109,1.716-.98,2.651-1.364.788-.324.589.4.59.733.01,1.172-.693,1.626-1.737,1.64" transform="translate(-3.992 -0.096)" fill="#df7c8f"/>
            <path id="パス_1077" data-name="パス 1077" d="M42.953,163.882c.856.329,1.679.735,1.711,1.864.01.342.006.925-.528.695-.979-.423-2.305-.5-2.687-1.652-.134-.4.806-.811,1.5-.906" transform="translate(-3.209 -12.69)" fill="#df7c8f"/>
            <path id="パス_1078" data-name="パス 1078" d="M3.679,124.875c.014.605-.222,1.465-.712,1.3-1.054-.354-1.164-1.6-1.573-2.518-.245-.553.276-.587.635-.58,1.168.023,1.614.732,1.65,1.8" transform="translate(-0.103 -9.53)" fill="#df7c8f"/>
            <path id="パス_1079" data-name="パス 1079" d="M143.509,22.021a6.285,6.285,0,0,1,2.163,2c-1.657.136-1.9-.084-2.163-2" transform="translate(-11.112 -1.705)" fill="#df7c8f"/>
          </g>
        </g>
        <g id="グループ_2561" data-name="グループ 2561" transform="translate(235.883 2721.768)">
          <g id="グループ_202" data-name="グループ 202" clip-path="url(#clip-path-3)">
            <path id="パス_838" data-name="パス 838" d="M42.99,3.726a2.372,2.372,0,0,0-1.668,1.08c-2.408,2.666-4.843,5.31-7.188,8.032-1.175,1.364-2.1,1.38-3.29.011-2.4-2.767-4.93-5.415-7.314-8.192-.866-1.008-1.367-.919-2.181.021C19,7.393,16.519,10,14.18,12.727c-1.2,1.4-2.139,1.563-3.43.08C7.725,9.329,4.6,5.938,1.5,2.531.888,1.865.466,1.374,1.4.558c.892-.784,1.41-.651,2.141.184C6.129,3.7,8.817,6.571,11.4,9.537c.779.894,1.262.911,2.038.019C15.7,6.948,18.05,4.405,20.357,1.83,22.3-.339,22.588-.34,24.6,1.9c2.27,2.518,4.584,5,6.784,7.575.851.995,1.352.963,2.182,0,2.305-2.666,4.694-5.26,7.053-7.88,1.628-1.807,2.095-1.825,3.7-.06,2.418,2.658,4.848,5.306,7.2,8.021.791.914,1.272.849,2.028-.018,2.362-2.706,4.79-5.356,7.2-8.022,1.537-1.7,2.042-1.716,3.56-.048,2.373,2.606,4.782,5.184,7.057,7.874.987,1.168,1.546,1.016,2.461-.045,2.479-2.874,5.073-5.648,7.59-8.49C82.073.065,82.549-.4,83.535.478s.547,1.427-.106,2.145c-3.1,3.41-6.205,6.82-9.253,10.277-1.113,1.262-2.02,1.321-3.151.024-2.406-2.758-4.935-5.411-7.315-8.19-.91-1.062-1.437-1.024-2.321.011-2.246,2.628-4.6,5.166-6.909,7.736-1.8,2-2.07,2-3.94-.058q-3.488-3.839-6.933-7.715a5.466,5.466,0,0,1-.617-.982" fill="#20ab9a"/>
            <path id="パス_839" data-name="パス 839" d="M41.209,41.167a11.83,11.83,0,0,1-.831,1.146C37.99,45,35.553,47.638,33.2,50.352c-1.11,1.279-2.018,1.323-3.148.029-2.409-2.756-4.937-5.409-7.318-8.188-.911-1.062-1.443-1.009-2.323.014-2.3,2.672-4.691,5.262-7.057,7.875-1.594,1.761-1.984,1.777-3.519.084C6.783,46.8,3.762,43.408.7,40.053.04,39.33-.426,38.825.6,37.939c1-.863,1.478-.4,2.131.336,2.565,2.89,5.2,5.719,7.728,8.64.821.949,1.3,1.054,2.165.042,2.335-2.729,4.768-5.375,7.18-8.038,1.509-1.666,2.035-1.664,3.574.027,2.282,2.507,4.608,4.978,6.774,7.582,1.077,1.293,1.711,1.48,2.873.065,2.192-2.669,4.624-5.14,6.877-7.761,1.244-1.448,2.25-1.393,3.472.017,2.262,2.614,4.707,5.074,6.887,7.752,1.189,1.459,1.826,1.158,2.87-.079,2.229-2.641,4.624-5.14,6.888-7.753,1.175-1.357,2.152-1.34,3.323,0,2.27,2.607,4.73,5.057,6.888,7.75,1.265,1.577,1.945,1.18,3.024-.086,2.331-2.733,4.783-5.363,7.174-8.044.649-.727,1.138-1.47,2.259-.443,1.17,1.072.285,1.627-.315,2.3-2.984,3.334-6.025,6.618-8.955,10-1.279,1.476-2.226,1.343-3.435-.061-2.3-2.67-4.757-5.205-7.045-7.885-.93-1.089-1.49-1.21-2.474-.051-2.323,2.739-4.816,5.333-7.159,8.056-1.194,1.388-2.121,1.321-3.288-.026-2.353-2.715-4.794-5.352-7.208-8.013a2.558,2.558,0,0,0-1.6-1.1" fill="#20ab9a"/>
            <path id="パス_840" data-name="パス 840" d="M83.631,20.067a12.7,12.7,0,0,1-.762,1.054c-3.128,3.479-6.3,6.921-9.384,10.435-1.194,1.36-2.135,1.338-3.3-.012-2.217-2.564-4.636-4.961-6.745-7.608-1.334-1.673-2.057-1.444-3.281.075-1.954,2.424-4.135,4.666-6.227,6.979-2.035,2.25-2.247,2.251-4.222.057-2.267-2.521-4.574-5.008-6.775-7.585-.875-1.025-1.4-1.1-2.317-.025-2.33,2.734-4.825,5.327-7.162,8.056-1.244,1.452-2.21,1.424-3.441-.009-2.341-2.725-4.835-5.319-7.162-8.055-.918-1.079-1.434-.987-2.305.031-2.247,2.627-4.6,5.168-6.914,7.733-1.778,1.964-2.09,1.98-3.807.092-3.012-3.31-5.988-6.652-9-9.958C.158,20.6-.27,20.07.732,19.194s1.471-.4,2.126.339c2.564,2.892,5.2,5.719,7.731,8.64.84.971,1.336,1,2.184.014,2.255-2.62,4.613-5.152,6.926-7.722,1.814-2.016,2.2-2.024,3.967-.065,2.361,2.618,4.757,5.206,7.067,7.869.788.907,1.263.858,2.026-.019,2.313-2.66,4.7-5.254,7.065-7.871,1.723-1.909,2.151-1.914,3.834-.048,2.317,2.567,4.686,5.09,6.919,7.728.979,1.156,1.534,1.036,2.457-.044,2.289-2.68,4.688-5.266,7.059-7.876,1.448-1.593,2-1.6,3.425-.021,2.278,2.51,4.593,4.991,6.776,7.582,1.1,1.3,1.779,1.619,3.036.081,2.356-2.885,4.942-5.583,7.454-8.339.369-.4.689-1.171,1.456-.621a16.731,16.731,0,0,1,1.391,1.246" fill="#20ab9a"/>
          </g>
        </g>
      </g>
    </g>
    <rect id="長方形_514" data-name="長方形 514" width="1280" height="193" transform="translate(0 2580)" fill="none"/>
  </g>
</svg>
