<svg xmlns="http://www.w3.org/2000/svg" width="280" height="200" viewBox="0 0 280 200">
  <g id="グループ_2784" data-name="グループ 2784" transform="translate(-500 -1349)">
    <rect id="長方形_156" data-name="長方形 156" width="280" height="200" transform="translate(500 1349)" fill="none"/>
    <g id="グループ_2528" data-name="グループ 2528" transform="matrix(0.951, 0.309, -0.309, 0.951, 552.744, 1383.645)">
      <path id="パス_1159" data-name="パス 1159" d="M189.345,125.243h-.336c-1.4-21.474-11.752-38.679-35.253-38.679s-33.857,17.2-35.253,38.679h-.336c-4.6-2.719-11.276,2.5-10.224,8.81,2.207,13.239,3.081,16.521,7.014,18.509a9.877,9.877,0,0,0,3.847,1.05h.4c1.31,8.327,3.929,14.455,7.285,19.13,5.128,7.143,18.31,12.379,27.272,12.379s22.144-5.236,27.272-12.379c3.356-4.675,5.974-10.8,7.285-19.13h.4a9.881,9.881,0,0,0,3.848-1.05c3.933-1.988,4.806-5.27,7.013-18.509C200.621,127.746,193.944,122.524,189.345,125.243Z" transform="translate(-101.094 -82.377)" fill="#ffeae3"/>
      <path id="パス_1160" data-name="パス 1160" d="M197.67,129.082a10.181,10.181,0,0,0-5.79-9.054,8.185,8.185,0,0,0-3.459-.8,7.022,7.022,0,0,0-1.593.191,64.03,64.03,0,0,0-1.68-9.944c-2.067-8.074-5.813-15.136-11.608-20.189a30.989,30.989,0,0,0-10.2-5.9,39.777,39.777,0,0,0-13.228-2.1,37.544,37.544,0,0,0-16.966,3.676c-7.148,3.563-12.213,9.531-15.43,16.813a56.613,56.613,0,0,0-4.315,17.645,7.055,7.055,0,0,0-1.6-.192,8.186,8.186,0,0,0-3.459.8,10.169,10.169,0,0,0-4.091,3.548,9.893,9.893,0,0,0-1.7,5.507,9.6,9.6,0,0,0,.134,1.6v0c1.111,6.637,1.87,10.8,2.935,13.761a11.769,11.769,0,0,0,2,3.664,9.123,9.123,0,0,0,2.958,2.274,11.9,11.9,0,0,0,3.588,1.133,56.368,56.368,0,0,0,1.525,6.464,40.7,40.7,0,0,0,5.824,12.077,23.752,23.752,0,0,0,5.543,5.325A43.468,43.468,0,0,0,138.38,181a38.416,38.416,0,0,0,11.731,2.117,41.5,41.5,0,0,0,15.727-3.647,40.7,40.7,0,0,0,7.33-4.088,23.758,23.758,0,0,0,5.543-5.325,40.677,40.677,0,0,0,5.824-12.077,56.414,56.414,0,0,0,1.525-6.464,11.911,11.911,0,0,0,3.588-1.133,9.124,9.124,0,0,0,2.958-2.274,10.574,10.574,0,0,0,1.576-2.606,30.753,30.753,0,0,0,1.7-5.742c.519-2.393,1.036-5.347,1.658-9.078l.03-.179-.029.176A9.748,9.748,0,0,0,197.67,129.082Zm-3.358,1.06c-1.1,6.6-1.877,10.7-2.784,13.185A8.548,8.548,0,0,1,190.106,146a5.828,5.828,0,0,1-1.932,1.463,8.376,8.376,0,0,1-1.587.6c.289-2.308.487-4.76.579-7.378a1.635,1.635,0,1,0-3.269-.115h0a64.472,64.472,0,0,1-2.49,16.459,37.424,37.424,0,0,1-5.351,11.118,20.557,20.557,0,0,1-4.785,4.57,40.248,40.248,0,0,1-10.459,5.178,35.239,35.239,0,0,1-10.7,1.95,38.35,38.35,0,0,1-14.421-3.375,37.452,37.452,0,0,1-6.737-3.753,20.55,20.55,0,0,1-4.785-4.57,37.436,37.436,0,0,1-5.351-11.118,64.482,64.482,0,0,1-2.491-16.459,1.636,1.636,0,1,0-3.269.115c.092,2.619.289,5.072.579,7.38a8.267,8.267,0,0,1-1.587-.6A5.835,5.835,0,0,1,110.119,146a7.32,7.32,0,0,1-1.081-1.812,27.8,27.8,0,0,1-1.5-5.12c-.5-2.289-1.009-5.207-1.629-8.922v0a6.325,6.325,0,0,1-.089-1.056,6.775,6.775,0,0,1,1.946-4.676,6.68,6.68,0,0,1,1.959-1.415,4.934,4.934,0,0,1,2.074-.492,3.7,3.7,0,0,1,1.363.258c-.065,1.331-.108,2.671-.108,4.026a1.636,1.636,0,1,0,3.271,0h0a66.882,66.882,0,0,1,1.916-16.5c1.95-7.611,5.418-14.029,10.589-18.534a27.709,27.709,0,0,1,9.132-5.28,36.521,36.521,0,0,1,12.147-1.915,34.273,34.273,0,0,1,15.5,3.332c6.381,3.19,10.908,8.469,13.9,15.211s4.381,14.922,4.379,23.683a1.636,1.636,0,0,0,3.271,0c0-1.355-.037-2.7-.1-4.029a3.7,3.7,0,0,1,1.356-.255,4.929,4.929,0,0,1,2.073.491,6.911,6.911,0,0,1,2.758,2.4,6.483,6.483,0,0,1,1.059,4.745Z" transform="translate(-102.551 -81.287)" fill="#3e485c"/>
    </g>
    <g id="グループ_2529" data-name="グループ 2529" transform="matrix(0.951, 0.309, -0.309, 0.951, 560.084, 1465.243)">
      <path id="パス_1161" data-name="パス 1161" d="M227.806,318.743c-1.981-.364-6.7-.121-8.853,1.234-2.153-1.354-6.872-1.6-8.853-1.234-7.329,1.031-8.379,7.177-7.545,8.815.51,1,4.214-1.637,4.214-1.637a4.1,4.1,0,0,0,3.134,1.712c1.879-.083,2.175-1.578,2.926-1.712s1.641,1.392,3.484,1.314c.993-.042,1.875-1.314,2.64-2.127.766.813,1.647,2.085,2.64,2.127,1.844.078,2.733-1.448,3.484-1.314s1.047,1.629,2.926,1.712a4.1,4.1,0,0,0,3.134-1.712s3.7,2.638,4.214,1.637C236.185,325.92,235.135,319.773,227.806,318.743Z" transform="translate(-202.312 -318.591)" fill="#ddd"/>
    </g>
    <g id="グループ_2536" data-name="グループ 2536" transform="matrix(0.951, 0.309, -0.309, 0.951, 558.751, 1462.015)">
      <path id="パス_1161-2" data-name="パス 1161" d="M211.566,317.091a16.539,16.539,0,0,1,6.759,1.258,11.083,11.083,0,0,1,2.97-.922,21.632,21.632,0,0,1,3.788-.336h0a13.116,13.116,0,0,1,2.234.163,11.163,11.163,0,0,1,4.912,1.84,8.573,8.573,0,0,1,2.707,3.073,7.951,7.951,0,0,1,.872,2.876,4.286,4.286,0,0,1-.307,2.283,1.325,1.325,0,0,1-1.237.7,6.489,6.489,0,0,1-2.745-1.051c-.32-.187-.617-.374-.862-.533a4.6,4.6,0,0,1-3.156,1.435c-.055,0-.11,0-.165,0a3.731,3.731,0,0,1-2.78-1.426c-.077-.084-.174-.191-.246-.258-.115.062-.289.18-.424.271a4.807,4.807,0,0,1-2.786,1.019c-.057,0-.116,0-.173,0a3.988,3.988,0,0,1-2.6-1.686,3.988,3.988,0,0,1-2.6,1.686c-.058,0-.116,0-.173,0a4.807,4.807,0,0,1-2.786-1.019c-.135-.092-.309-.209-.424-.271-.072.067-.169.174-.246.258a3.731,3.731,0,0,1-2.78,1.426c-.055,0-.11,0-.164,0a4.6,4.6,0,0,1-3.156-1.435c-.245.159-.542.345-.862.533a5.628,5.628,0,0,1-2.744,1.051,1.325,1.325,0,0,1-1.237-.7,4.285,4.285,0,0,1-.307-2.283,7.949,7.949,0,0,1,.872-2.876,8.572,8.572,0,0,1,2.707-3.073,11.163,11.163,0,0,1,4.913-1.841A13.109,13.109,0,0,1,211.566,317.091Zm6.759,3.131a.872.872,0,0,1-.465-.134c-1.374-.865-4.151-1.252-6.294-1.252a11.484,11.484,0,0,0-1.937.138l-.036.006a9.452,9.452,0,0,0-4.169,1.542,6.844,6.844,0,0,0-2.163,2.451,5.371,5.371,0,0,0-.65,3.27,7.2,7.2,0,0,0,1.627-.766c.755-.441,1.39-.891,1.4-.9a.866.866,0,0,1,1.22.209,3.293,3.293,0,0,0,2.294,1.344l.088,0a2.008,2.008,0,0,0,1.566-.857,2.238,2.238,0,0,1,1.245-.842,1.421,1.421,0,0,1,.249-.022,2.641,2.641,0,0,1,1.445.607,3.139,3.139,0,0,0,1.807.718l.1,0c.427-.018,1.11-.8,1.562-1.318.157-.18.32-.366.479-.536a.873.873,0,0,1,1.271,0c.159.169.322.356.48.536.452.518,1.135,1.3,1.562,1.318l.1,0a3.139,3.139,0,0,0,1.807-.719,2.641,2.641,0,0,1,1.445-.607h0a1.421,1.421,0,0,1,.249.022,2.238,2.238,0,0,1,1.245.842,2.008,2.008,0,0,0,1.566.857l.088,0a3.292,3.292,0,0,0,2.294-1.344.866.866,0,0,1,1.22-.209c.006,0,.641.455,1.4.9a7.2,7.2,0,0,0,1.627.766,5.373,5.373,0,0,0-.651-3.27,6.844,6.844,0,0,0-2.163-2.451,9.451,9.451,0,0,0-4.169-1.542l-.036-.006a11.489,11.489,0,0,0-1.937-.138h0c-2.143,0-4.919.387-6.293,1.252A.872.872,0,0,1,218.325,320.222Z" transform="translate(-200.812 -317.091)" fill="#3e485c"/>
    </g>
    <g id="グループ_2530" data-name="グループ 2530" transform="matrix(0.951, 0.309, -0.309, 0.951, 560.195, 1377.583)">
      <path id="パス_1162" data-name="パス 1162" d="M151.234,58.062C134.7,52.61,113.548,70.62,120.86,103.647l-.077.037c.032.014.064.035.1.05.076.342.15.682.232,1.027.279-.12.537-.215.794-.309,1.627,1.523,3.031,4.743,3.9,9.507.271,1.489.618,2.948.985,4.295a1.489,1.489,0,0,0,2.919-.271l1.108-13.117c.139-.016.277-.032.425-.063,3.275-.7,10.18-13.423,10.18-13.423,2.544,7.633,12.358,7.939,13.449,8.331s-3.775-7.241-2.07-8.331,3.706,6.122,9.248,8.331,7,.015,7,.015-3.034-10.023-1.88-8.457,2.459,6.233,9.621,8.443,4.618-2.563,6.8-3.811c1.923-1.1,7.423,6.018,8.7,7.718l1.213,14.366a1.489,1.489,0,0,0,2.919.271c.368-1.347.715-2.805.985-4.295.915-5.042,2.435-8.354,4.184-9.755.017-.015.035-.029.051-.044a3.735,3.735,0,0,1,.784-.476l-.362-.173c.325-.752.507-1.931,1.12-3.8C206.445,89.725,198.782,43.523,151.234,58.062Z" transform="translate(-119.372 -55.256)" fill="#3e485c"/>
    </g>
    <g id="グループ_2532" data-name="グループ 2532" transform="matrix(0.951, 0.309, -0.309, 0.951, 566.66, 1447.224)">
      <g id="グループ_2531" data-name="グループ 2531" transform="translate(0 0)">
        <ellipse id="楕円形_53" data-name="楕円形 53" cx="2.435" cy="2.454" rx="2.435" ry="2.454" transform="translate(0)" fill="#3e485c"/>
        <path id="パス_1166" data-name="パス 1166" d="M2.435,0A2.454,2.454,0,1,1,0,2.454,2.444,2.444,0,0,1,2.435,0Z" transform="translate(24.26)" fill="#3e485c"/>
      </g>
    </g>
    <g id="グループ_2534" data-name="グループ 2534" transform="matrix(0.951, 0.309, -0.309, 0.951, 565.704, 1435.447)">
      <g id="グループ_2533" data-name="グループ 2533">
        <path id="パス_1163" data-name="パス 1163" d="M206.378,231.125c-4.208-1.835-6.775-1.679-10.962-.223-2.353.819-1.589-.749.471-2.009a9.715,9.715,0,0,1,7.225-1.386C205.394,227.938,206.378,231.125,206.378,231.125Z" transform="translate(-193.965 -227.317)" fill="#3e485c"/>
        <path id="パス_1164" data-name="パス 1164" d="M277.986,231.125c4.208-1.835,6.775-1.679,10.961-.223,2.353.819,1.589-.749-.471-2.009a9.715,9.715,0,0,0-7.225-1.386C278.971,227.938,277.986,231.125,277.986,231.125Z" transform="translate(-251.944 -227.317)" fill="#3e485c"/>
      </g>
    </g>
    <g id="グループ_2535" data-name="グループ 2535" transform="matrix(0.951, 0.309, -0.309, 0.951, 552.827, 1435.148)">
      <path id="パス_1165" data-name="パス 1165" d="M197.178,229.493a.993.993,0,0,0-1.306-.515l-8.766,3.811a9.608,9.608,0,0,0-18.761.369c-.079-.041-.145-.1-.226-.136a5.818,5.818,0,0,0-2.4-.519,5.163,5.163,0,0,0-2.452.606,9.609,9.609,0,0,0-18.752-.32l-8.766-3.811a.993.993,0,0,0-.792,1.821l9.29,4.038c0,.072-.011.142-.011.214a9.608,9.608,0,0,0,19.207.418,3.016,3.016,0,0,1,2.276-.981,3.846,3.846,0,0,1,1.573.34,2.734,2.734,0,0,1,.883.636,9.608,9.608,0,0,0,19.207-.413c0-.072-.009-.142-.011-.214l9.29-4.038A.992.992,0,0,0,197.178,229.493Zm-37.931,10.953a7.629,7.629,0,1,1,2.235-5.394A7.6,7.6,0,0,1,159.247,240.446Zm23.918,0a7.629,7.629,0,1,1,2.235-5.394A7.6,7.6,0,0,1,183.165,240.446Z" transform="translate(-134.362 -225.436)" fill="#3e485c"/>
    </g>
    <path id="パス_1175" data-name="パス 1175" d="M12.262,119.932a8.1,8.1,0,0,1-5.6-2.642,8.51,8.51,0,0,1-2.235-5.749V67.863H3.622A3.623,3.623,0,0,0,0,71.486v51.9A3.623,3.623,0,0,0,3.622,127H45.716c-1.286-.565-2.826-1.187-4.638-1.824a101.187,101.187,0,0,0-28.816-5.248" transform="translate(625.431 1407.335) rotate(-17)" fill="#2ba7c8"/>
    <path id="パス_1176" data-name="パス 1176" d="M57.177,58.806c20.118.943,32.639,6.188,37.589,8.716V9.308l-.206-.147c-.356-.249-.9-.615-1.628-1.058a48.138,48.138,0,0,0-6.546-3.283A66.514,66.514,0,0,0,60.84,0q-1.993,0-4.095.107A4.81,4.81,0,0,0,54.475.79a3.463,3.463,0,0,0-1.36,1.492,3.2,3.2,0,0,0-.285,1.348V54.066A4.857,4.857,0,0,0,54.1,57.344a4.435,4.435,0,0,0,3.074,1.462m5.147-44.132c0-.017,0-.033,0-.05a1.418,1.418,0,0,1,1.463-1.371,77.348,77.348,0,0,1,9.889,1.02,55.692,55.692,0,0,1,10.839,2.882,1.423,1.423,0,0,1-1.03,2.652A53,53,0,0,0,73.2,17.084,74.609,74.609,0,0,0,63.7,16.1a1.419,1.419,0,0,1-1.371-1.42Zm0,13.365c0-.017,0-.033,0-.05a1.418,1.418,0,0,1,1.463-1.371,77.458,77.458,0,0,1,9.889,1.02A55.714,55.714,0,0,1,84.517,30.52a1.423,1.423,0,0,1-1.03,2.652A53.022,53.022,0,0,0,73.2,30.449a74.61,74.61,0,0,0-9.507-.982,1.419,1.419,0,0,1-1.371-1.42Zm0,13.365c0-.017,0-.033,0-.05a1.418,1.418,0,0,1,1.463-1.371A77.349,77.349,0,0,1,73.677,41a55.692,55.692,0,0,1,10.839,2.882,1.423,1.423,0,0,1-1.03,2.652A53,53,0,0,0,73.2,43.814a74.61,74.61,0,0,0-9.507-.982,1.419,1.419,0,0,1-1.371-1.42Z" transform="translate(599.447 1475.38) rotate(-17)" fill="#fff"/>
    <path id="パス_1177" data-name="パス 1177" d="M386.1,57.344a4.856,4.856,0,0,0,1.274-3.278V3.629a3.2,3.2,0,0,0-.285-1.348,3.279,3.279,0,0,0-.789-1.064,4.588,4.588,0,0,0-2.842-1.11Q381.355,0,379.362,0a67.154,67.154,0,0,0-24.29,4.318,44.141,44.141,0,0,0-9.635,4.99h0V67.522c4.95-2.528,17.47-7.773,37.589-8.716a4.434,4.434,0,0,0,3.074-1.462m-8.167-15.932a1.419,1.419,0,0,1-1.371,1.42,74.609,74.609,0,0,0-9.507.982,53,53,0,0,0-10.284,2.722,1.423,1.423,0,0,1-1.03-2.652A55.706,55.706,0,0,1,366.579,41a77.375,77.375,0,0,1,9.889-1.02h.05a1.418,1.418,0,0,1,1.414,1.422Zm0-13.365a1.419,1.419,0,0,1-1.371,1.42,74.665,74.665,0,0,0-9.507.982,53.01,53.01,0,0,0-10.284,2.722,1.423,1.423,0,0,1-1.03-2.652,55.739,55.739,0,0,1,10.839-2.882,77.431,77.431,0,0,1,9.889-1.02h.05a1.418,1.418,0,0,1,1.414,1.422Zm0-13.365a1.419,1.419,0,0,1-1.371,1.42,74.609,74.609,0,0,0-9.507.982,53,53,0,0,0-10.284,2.722,1.423,1.423,0,0,1-1.03-2.652,55.706,55.706,0,0,1,10.839-2.882,77.375,77.375,0,0,1,9.889-1.02h.05a1.417,1.417,0,0,1,1.413,1.422Z" transform="translate(362.457 1547.836) rotate(-17)" fill="#fff"/>
    <path id="パス_1178" data-name="パス 1178" d="M414.843,67.866v43.678a8.509,8.509,0,0,1-2.235,5.749,8.1,8.1,0,0,1-5.6,2.642c-16.526.777-27.66,4.526-33.456,7.072h42.1a3.623,3.623,0,0,0,3.623-3.623V71.489a3.623,3.623,0,0,0-3.623-3.623" transform="translate(322.877 1499.832) rotate(-17)" fill="#2ba7c8"/>
    <path id="パス_1179" data-name="パス 1179" d="M102.929,10.388h-.809v-3.1a6.862,6.862,0,0,0-.617-2.87,7.12,7.12,0,0,0-2.764-3.08,8.456,8.456,0,0,0-4-1.221Q92.542,0,90.454,0A70.177,70.177,0,0,0,63.511,5.1,48.587,48.587,0,0,0,55.1,9.5,48.612,48.612,0,0,0,46.7,5.1,70.175,70.175,0,0,0,19.752,0q-2.087,0-4.285.112A8.228,8.228,0,0,0,10.36,2.164,6.939,6.939,0,0,0,8.7,4.414a6.861,6.861,0,0,0-.617,2.87v3.1H7.277A7.277,7.277,0,0,0,0,17.665v51.9a7.277,7.277,0,0,0,7.277,7.278h95.652a7.277,7.277,0,0,0,7.277-7.278v-51.9a7.277,7.277,0,0,0-7.277-7.278ZM7.277,73.183A3.623,3.623,0,0,1,3.655,69.56v-51.9a3.623,3.623,0,0,1,3.622-3.623h.809V57.72a8.51,8.51,0,0,0,2.235,5.749,8.1,8.1,0,0,0,5.6,2.642,101.187,101.187,0,0,1,28.816,5.248c1.812.638,3.352,1.26,4.637,1.824H7.277Zm46.4-2.007c-4.949-2.528-17.47-7.773-37.589-8.716A4.435,4.435,0,0,1,13.015,61a4.857,4.857,0,0,1-1.274-3.278V7.284a3.2,3.2,0,0,1,.285-1.348,3.464,3.464,0,0,1,1.36-1.492,4.81,4.81,0,0,1,2.271-.682q2.1-.109,4.095-.107A66.523,66.523,0,0,1,45.3,8.475a48.14,48.14,0,0,1,6.547,3.283c.728.443,1.273.809,1.628,1.058l.206.147V71.176Zm2.851-58.214a44.137,44.137,0,0,1,9.635-4.99,67.137,67.137,0,0,1,24.29-4.318q1.993,0,4.095.107a4.588,4.588,0,0,1,2.842,1.11,3.282,3.282,0,0,1,.789,1.064,3.2,3.2,0,0,1,.285,1.348V57.721A4.857,4.857,0,0,1,97.192,61a4.434,4.434,0,0,1-3.074,1.462C74,63.4,61.478,68.649,56.529,71.177V12.963Zm50.023,56.6a3.623,3.623,0,0,1-3.623,3.623h-42.1c5.8-2.545,16.931-6.3,33.456-7.072a8.1,8.1,0,0,0,5.6-2.642,8.509,8.509,0,0,0,2.235-5.749V14.043h.809a3.623,3.623,0,0,1,3.623,3.623Z" transform="translate(635.313 1457.393) rotate(-17)" fill="#3e485c"/>
    <path id="パス_1180" data-name="パス 1180" d="M160.93,114.359a55.692,55.692,0,0,0-10.839-2.882,77.365,77.365,0,0,0-9.889-1.02,1.418,1.418,0,0,0-1.464,1.421v.009a1.419,1.419,0,0,0,1.371,1.42,74.627,74.627,0,0,1,9.507.982,53.014,53.014,0,0,1,10.284,2.722,1.423,1.423,0,0,0,1.03-2.652Z" transform="translate(495.595 1402.285) rotate(-17)" fill="#3e485c"/>
    <path id="パス_1181" data-name="パス 1181" d="M160.93,201.672a55.737,55.737,0,0,0-10.839-2.882,77.449,77.449,0,0,0-9.889-1.02,1.418,1.418,0,0,0-1.464,1.421v.008a1.419,1.419,0,0,0,1.371,1.42,74.607,74.607,0,0,1,9.507.982,53.034,53.034,0,0,1,10.284,2.722,1.423,1.423,0,0,0,1.03-2.652Z" transform="translate(473.974 1331.568) rotate(-17)" fill="#3e485c"/>
    <path id="パス_1182" data-name="パス 1182" d="M160.93,288.987a55.691,55.691,0,0,0-10.839-2.882,77.363,77.363,0,0,0-9.889-1.02,1.418,1.418,0,0,0-1.464,1.421v.009a1.419,1.419,0,0,0,1.371,1.42,74.623,74.623,0,0,1,9.507.982,53.013,53.013,0,0,1,10.284,2.722,1.423,1.423,0,0,0,1.03-2.652Z" transform="translate(452.353 1260.849) rotate(-17)" fill="#3e485c"/>
    <path id="パス_1183" data-name="パス 1183" d="M452.432,110.457a77.37,77.37,0,0,0-9.889,1.02,55.706,55.706,0,0,0-10.839,2.882,1.423,1.423,0,0,0,1.03,2.652,53.014,53.014,0,0,1,10.284-2.722,74.633,74.633,0,0,1,9.507-.982,1.419,1.419,0,0,0,1.371-1.42v-.009A1.418,1.418,0,0,0,452.432,110.457Z" transform="translate(259.034 1474.609) rotate(-17)" fill="#3e485c"/>
    <path id="パス_1184" data-name="パス 1184" d="M452.432,197.77a77.427,77.427,0,0,0-9.889,1.02,55.74,55.74,0,0,0-10.839,2.882,1.423,1.423,0,0,0,1.03,2.652,53.023,53.023,0,0,1,10.284-2.722,74.672,74.672,0,0,1,9.507-.982,1.419,1.419,0,0,0,1.371-1.42v-.008A1.418,1.418,0,0,0,452.432,197.77Z" transform="translate(237.413 1403.891) rotate(-17)" fill="#3e485c"/>
    <path id="パス_1185" data-name="パス 1185" d="M452.432,285.085a77.369,77.369,0,0,0-9.889,1.02,55.705,55.705,0,0,0-10.839,2.882,1.423,1.423,0,0,0,1.03,2.652,53.011,53.011,0,0,1,10.284-2.722,74.624,74.624,0,0,1,9.507-.982,1.419,1.419,0,0,0,1.371-1.42v-.009A1.418,1.418,0,0,0,452.432,285.085Z" transform="translate(215.792 1333.173) rotate(-17)" fill="#3e485c"/>
  </g>
</svg>
