<svg xmlns="http://www.w3.org/2000/svg" width="280" height="200" viewBox="0 0 280 200">
  <g id="グループ_169" data-name="グループ 169" transform="translate(-872 -833)">
    <rect id="長方形_158" data-name="長方形 158" width="280" height="200" transform="translate(872 833)" fill="none"/>
    <g id="グループ_168" data-name="グループ 168" transform="translate(18108.57 1378.481)">
      <g id="j96_14_1" transform="translate(-17156.168 -512)">
        <path id="パス_435" data-name="パス 435" d="M160.072,146.63H96.651a7.47,7.47,0,0,1-7.467-7.472V14.88a7.47,7.47,0,0,1,7.467-7.472h63.42a7.47,7.47,0,0,1,7.467,7.472V139.158A7.47,7.47,0,0,1,160.072,146.63Z" transform="translate(-67.628 -1.997)" fill="#fff"/>
        <path id="パス_441" data-name="パス 441" d="M512.876,168.208a80.152,80.152,0,0,1-6.983-32.38V127.8a9.914,9.914,0,1,0-19.828,0v94.024a38.935,38.935,0,0,0,26.811-53.616Z" transform="translate(-386.154 -94)" fill="#ffeae3"/>
        <path id="パス_442" data-name="パス 442" d="M18.266,246.969h1.5c3.455,0,6.281,4.208,6.281,9.35s-2.827,9.35-6.281,9.35H16.748a9.35,9.35,0,0,1,0-18.7Z" transform="translate(-2.586 -177.323)" fill="#ffeae3"/>
        <path id="パス_443" data-name="パス 443" d="M18.266,341.689h1.5c3.455,0,6.281,4.208,6.281,9.35s-2.827,9.35-6.281,9.35H16.748a9.35,9.35,0,0,1,0-18.7Z" transform="translate(-2.586 -292.206)" fill="#ffeae3"/>
        <path id="パス_444" data-name="パス 444" d="M18.266,436.411h1.5c3.455,0,6.281,4.207,6.281,9.35s-2.827,9.35-6.281,9.35H16.748a9.35,9.35,0,0,1,0-18.7Z" transform="translate(-2.586 -348.065)" fill="#ffeae3"/>
        <path id="パス_445" data-name="パス 445" d="M18.266,531.131h1.5c3.455,0,6.281,4.208,6.281,9.35s-2.827,9.35-6.281,9.35H16.748a9.35,9.35,0,0,1,0-18.7Z" transform="translate(-2.586 -424.084)" fill="#ffeae3"/>
        <path id="パス_446" data-name="パス 446" d="M506.934,154.34l1.337-.592a78.686,78.686,0,0,1-6.859-31.789v-8.028a11.375,11.375,0,0,0-22.751,0V209.8l1.792-.415a40.4,40.4,0,0,0,27.818-55.633l-1.337.592-1.337.592a37.5,37.5,0,0,1-25.8,51.6l.33,1.425h1.462V113.932a8.452,8.452,0,0,1,16.9,0v8.028a81.617,81.617,0,0,0,7.108,32.972Z" transform="translate(-384.16 -82.303)" fill="#3e485c"/>
        <path id="パス_447" data-name="パス 447" d="M12.324,233.1v1.463h1.5a3.07,3.07,0,0,1,1.658.512,5.038,5.038,0,0,1,1.2,1.091,8.387,8.387,0,0,1,1.414,2.693,11.677,11.677,0,0,1,.55,3.592,11.809,11.809,0,0,1-.439,3.229,8.133,8.133,0,0,1-1.912,3.488,4.3,4.3,0,0,1-1.222.885,2.926,2.926,0,0,1-1.246.286H10.806a7.888,7.888,0,0,1,0-15.775h1.518v-2.925H10.806a10.813,10.813,0,0,0,0,21.626h3.017a6,6,0,0,0,3.22-.964,7.952,7.952,0,0,0,1.9-1.717,11.291,11.291,0,0,0,1.926-3.635,14.6,14.6,0,0,0,.694-4.5,14.731,14.731,0,0,0-.552-4.032,11.016,11.016,0,0,0-2.648-4.746A7.21,7.21,0,0,0,16.3,232.2a5.851,5.851,0,0,0-2.479-.559h-1.5V233.1Z" transform="translate(0 -185.906)" fill="#3e485c"/>
        <path id="パス_448" data-name="パス 448" d="M12.324,327.821v1.463h1.5a3.07,3.07,0,0,1,1.658.512,5.043,5.043,0,0,1,1.2,1.091,8.387,8.387,0,0,1,1.414,2.693,11.677,11.677,0,0,1,.55,3.592A11.809,11.809,0,0,1,18.2,340.4a8.133,8.133,0,0,1-1.912,3.488,4.3,4.3,0,0,1-1.222.885,2.925,2.925,0,0,1-1.246.286H10.806a7.888,7.888,0,0,1,0-15.775h1.518v-2.926H10.806a10.813,10.813,0,0,0,0,21.626h3.017a6,6,0,0,0,3.22-.964,7.951,7.951,0,0,0,1.9-1.717,11.29,11.29,0,0,0,1.926-3.635,14.6,14.6,0,0,0,.694-4.5,14.732,14.732,0,0,0-.552-4.032,11.015,11.015,0,0,0-2.648-4.746,7.212,7.212,0,0,0-2.064-1.476,5.851,5.851,0,0,0-2.479-.559h-1.5v1.462Z" transform="translate(0 -261.926)" fill="#3e485c"/>
        <path id="パス_449" data-name="パス 449" d="M12.324,422.543v1.463h1.5a3.069,3.069,0,0,1,1.658.512,5.037,5.037,0,0,1,1.2,1.091,8.387,8.387,0,0,1,1.414,2.693,11.677,11.677,0,0,1,.55,3.592,11.808,11.808,0,0,1-.439,3.229,8.132,8.132,0,0,1-1.912,3.488,4.3,4.3,0,0,1-1.222.885,2.922,2.922,0,0,1-1.246.285H10.806a7.888,7.888,0,0,1,0-15.775h1.518V421.08H10.806a10.813,10.813,0,0,0,0,21.626h3.017a6,6,0,0,0,3.22-.964,7.951,7.951,0,0,0,1.9-1.718,11.291,11.291,0,0,0,1.926-3.635,14.6,14.6,0,0,0,.694-4.5,14.734,14.734,0,0,0-.552-4.032,11.017,11.017,0,0,0-2.648-4.746,7.213,7.213,0,0,0-2.064-1.476,5.852,5.852,0,0,0-2.479-.559h-1.5v1.463Z" transform="translate(0 -337.947)" fill="#3e485c"/>
        <g id="グループ_145" data-name="グループ 145" transform="translate(16.146 0)">
          <path id="パス_450" data-name="パス 450" d="M81.78,411.75v.9A7.7,7.7,0,0,1,84.7,416.2v-8.014A7.7,7.7,0,0,1,81.78,411.75Z" transform="translate(-81.78 -327.603)" fill="#3e485c"/>
          <path id="パス_451" data-name="パス 451" d="M81.78,504.224v1.339a7.7,7.7,0,0,1,2.924,3.559v-8.457A7.7,7.7,0,0,1,81.78,504.224Z" transform="translate(-81.78 -401.82)" fill="#3e485c"/>
          <path id="パス_452" data-name="パス 452" d="M160.443,2.617A8.9,8.9,0,0,0,154.13,0H90.709A8.932,8.932,0,0,0,81.78,8.935V48.086A7.7,7.7,0,0,1,84.7,51.645V8.935a6.007,6.007,0,0,1,6.006-6.009h63.42a6.007,6.007,0,0,1,6.005,6.009V133.213a6.007,6.007,0,0,1-6.005,6.009H90.709a6.007,6.007,0,0,1-6.006-6.009V117.545A7.7,7.7,0,0,1,81.78,121.1v12.108a8.932,8.932,0,0,0,8.929,8.935h63.42a8.932,8.932,0,0,0,8.929-8.935V8.935A8.917,8.917,0,0,0,160.443,2.617Z" transform="translate(-81.78 0)" fill="#3e485c"/>
          <path id="パス_453" data-name="パス 453" d="M81.78,317.03v1.339a7.7,7.7,0,0,1,2.924,3.559v-8.457A7.7,7.7,0,0,1,81.78,317.03Z" transform="translate(-81.78 -251.583)" fill="#3e485c"/>
        </g>
        <path id="パス_454" data-name="パス 454" d="M12.324,517.263v1.463h1.5a3.07,3.07,0,0,1,1.658.512,5.043,5.043,0,0,1,1.2,1.091,8.388,8.388,0,0,1,1.414,2.693,11.678,11.678,0,0,1,.55,3.592,11.807,11.807,0,0,1-.439,3.229,8.132,8.132,0,0,1-1.912,3.488,4.3,4.3,0,0,1-1.222.885,2.925,2.925,0,0,1-1.246.286H10.806a7.888,7.888,0,0,1,0-15.775h1.518V515.8H10.806a10.813,10.813,0,0,0,0,21.626h3.017a6,6,0,0,0,3.22-.964,7.949,7.949,0,0,0,1.9-1.718,11.29,11.29,0,0,0,1.926-3.635,14.6,14.6,0,0,0,.694-4.5,14.732,14.732,0,0,0-.552-4.032,11.018,11.018,0,0,0-2.648-4.746,7.216,7.216,0,0,0-2.064-1.476,5.852,5.852,0,0,0-2.479-.559h-1.5v1.463Z" transform="translate(0 -413.967)" fill="#3e485c"/>
        <rect id="長方形_169" data-name="長方形 169" width="57.328" height="110.148" transform="translate(32.069 19.454)" fill="#d0ece9"/>
        <rect id="長方形_175" data-name="長方形 175" width="15.869" height="25.407" transform="translate(40.559 75.843)" fill="#df7c8f"/>
        <rect id="長方形_181" data-name="長方形 181" width="15.869" height="10.843" transform="translate(62.51 74.659)" fill="#20ab9a"/>
        <rect id="長方形_182" data-name="長方形 182" width="15.869" height="10.843" transform="translate(62.51 90.407)" fill="#ffb64b"/>
        <path id="長方形_168" data-name="長方形 168" d="M-5.5-5.5H54V106.819H-5.5ZM51.828-3.328H-3.328V104.648H51.828Z" transform="translate(32.535 19.919)" fill="#364559"/>
        <path id="パス_455" data-name="パス 455" d="M240.115,42.238h17.064a1.057,1.057,0,0,0,0-2.113H240.115a1.057,1.057,0,0,0,0,2.113" transform="translate(-191.862 -32.203)" fill="#364559"/>
        <path id="パス_456" data-name="パス 456" d="M278.775,666.513a2.448,2.448,0,1,1-2.447-2.449A2.448,2.448,0,0,1,278.775,666.513Z" transform="translate(-219.809 -532.96)" fill="#3e485c"/>
      </g>
      <path id="線_42" data-name="線 42" d="M23.614-3.631H-4.815A1.185,1.185,0,0,1-6-4.815,1.185,1.185,0,0,1-4.815-6H23.614A1.185,1.185,0,0,1,24.8-4.815,1.185,1.185,0,0,1,23.614-3.631Z" transform="translate(-17108.676 -469.97)" fill="#3e485c"/>
      <path id="線_43" data-name="線 43" d="M23.614-3.631H-4.815A1.185,1.185,0,0,1-6-4.815,1.185,1.185,0,0,1-4.815-6H23.614A1.185,1.185,0,0,1,24.8-4.815,1.185,1.185,0,0,1,23.614-3.631Z" transform="translate(-17108.676 -461.678)" fill="#3e485c"/>
      <path id="線_44" data-name="線 44" d="M23.614-3.631H-4.815A1.185,1.185,0,0,1-6-4.815,1.185,1.185,0,0,1-4.815-6H23.614A1.185,1.185,0,0,1,24.8-4.815,1.185,1.185,0,0,1,23.614-3.631Z" transform="translate(-17108.676 -453.386)" fill="#3e485c"/>
      <path id="線_45" data-name="線 45" d="M23.614-3.631H-4.815A1.185,1.185,0,0,1-6-4.815,1.185,1.185,0,0,1-4.815-6H23.614A1.185,1.185,0,0,1,24.8-4.815,1.185,1.185,0,0,1,23.614-3.631Z" transform="translate(-17108.676 -445.094)" fill="#3e485c"/>
      <circle id="楕円形_43" data-name="楕円形 43" cx="5.034" cy="5.034" r="5.034" transform="translate(-17124.352 -403.02)" fill="#20ab9a"/>
      <circle id="楕円形_44" data-name="楕円形 44" cx="5.034" cy="5.034" r="5.034" transform="translate(-17111.318 -403.02)" fill="#ffb64b"/>
      <circle id="楕円形_45" data-name="楕円形 45" cx="5.034" cy="5.034" r="5.034" transform="translate(-17098.094 -403.02)" fill="#df7c8f"/>
      <circle id="楕円形_46" data-name="楕円形 46" cx="5.034" cy="5.034" r="5.034" transform="translate(-17085.061 -403.02)" fill="#4287c6"/>
      <path id="パス_493" data-name="パス 493" d="M-16957.375-111.469h-16.943a1.183,1.183,0,0,1-1.182-1.185v-15.391a1.183,1.183,0,0,1,1.182-1.185,1.185,1.185,0,0,1,1.188,1.185v14.206h14.568v-22.851h-10.09a1.186,1.186,0,0,1-1.187-1.185,1.186,1.186,0,0,1,1.188-1.185h11.277a1.183,1.183,0,0,1,1.182,1.185v25.22A1.183,1.183,0,0,1-16957.375-111.469Z" transform="translate(-144.999 -301.51)" fill="#3e485c"/>
      <path id="パス_494" data-name="パス 494" d="M-16957.375-126.276h-16.943a1.183,1.183,0,0,1-1.182-1.185v-6.355a1.183,1.183,0,0,1,1.182-1.185,1.185,1.185,0,0,1,1.188,1.185v5.17h14.568v-8.044h-10.09a1.186,1.186,0,0,1-1.187-1.185,1.186,1.186,0,0,1,1.188-1.185h11.277a1.183,1.183,0,0,1,1.182,1.185v10.413A1.183,1.183,0,0,1-16957.375-126.276Z" transform="translate(-122.177 -301.51)" fill="#3e485c"/>
      <path id="パス_495" data-name="パス 495" d="M-16957.375-126.276h-16.943a1.183,1.183,0,0,1-1.182-1.185v-6.355a1.183,1.183,0,0,1,1.182-1.185,1.185,1.185,0,0,1,1.188,1.185v5.17h14.568v-8.044h-10.09a1.186,1.186,0,0,1-1.187-1.185,1.186,1.186,0,0,1,1.188-1.185h11.277a1.183,1.183,0,0,1,1.182,1.185v10.413A1.183,1.183,0,0,1-16957.375-126.276Z" transform="translate(-122.177 -286.703)" fill="#3e485c"/>
    </g>
  </g>
</svg>
