<svg xmlns="http://www.w3.org/2000/svg" width="285.614" height="367.326" viewBox="0 0 285.614 367.326">
  <g id="グループ_3121" data-name="グループ 3121" transform="translate(-128 -104.827)">
    <g id="グループ_123" data-name="グループ 123" transform="translate(88 -3.281)">
      <path id="パス_25" data-name="パス 25" d="M229.379,351.51v13.433H120.336V351.51a29.969,29.969,0,0,1,7.073-19.4s7.563-6.878,9.443-8.187a30.75,30.75,0,0,1,6.772-3.552,23.9,23.9,0,0,1,7.948-1.681l22.739-14.11,23.827,14.11C206.662,318.686,229.379,329.461,229.379,351.51Z" transform="translate(-44.074 -108.946)" fill="#2ba7c8"/>
      <path id="パス_26" data-name="パス 26" d="M216.054,299.771s-11.713,3.176-12.023,4.18,27.617,34.4,27.617,34.4,2.826,2.2,4.839,1.978,4.716-3.659,4.716-3.659L266.22,304.5l-15.689-6.968-14.044-15.7Z" transform="translate(-104.48 -92.53)" fill="#fff"/>
      <path id="パス_27" data-name="パス 27" d="M238.62,122.254h0V111.387c0-14.466-15.091-28.277-31.1-28.277s-31.1,13.811-31.1,28.277V122.3a10.873,10.873,0,0,0,.5,21.687c2.741,12.656,16.3,23.667,30.6,23.667s27.847-11,30.595-23.655h.506a10.874,10.874,0,0,0,0-21.748Z" transform="translate(-77.514 52.294)" fill="#ffeae3"/>
      <path id="パス_28" data-name="パス 28" d="M70.526,516.035V449.662a9.576,9.576,0,0,1,9.576-9.576H196.152a9.576,9.576,0,0,1,9.576,9.576v66.373Z" transform="translate(-5.34 -204.754)" fill="#e4f1fa"/>
      <rect id="長方形_138" data-name="長方形 138" width="133.284" height="9.027" transform="translate(59.622 296.305)" fill="#e4f1fa"/>
      <path id="パス_29" data-name="パス 29" d="M261.8,253.374a3.44,3.44,0,0,0,3.43-3.43h0a3.43,3.43,0,0,0-6.859,0h0A3.44,3.44,0,0,0,261.8,253.374Z" transform="translate(-146.484 -69.821)" fill="#3e485c"/>
      <path id="パス_30" data-name="パス 30" d="M347.408,253.374a3.44,3.44,0,0,0,3.43-3.43h0a3.43,3.43,0,0,0-6.859,0h0A3.44,3.44,0,0,0,347.408,253.374Z" transform="translate(-208.275 -69.821)" fill="#3e485c"/>
      <path id="パス_31" data-name="パス 31" d="M304.056,294.3h3.853a.881.881,0,0,0,0-1.762h-2.575a1.615,1.615,0,0,1-1.437-.878l-.231-.451a.416.416,0,0,0-.787.19v1.724A1.178,1.178,0,0,0,304.056,294.3Z" transform="translate(-178.611 -101.918)" fill="#3e485c"/>
      <path id="パス_33" data-name="パス 33" d="M412.958,365.742h0Z" transform="translate(-258.064 -155.877)" fill="#231815"/>
      <path id="パス_34" data-name="パス 34" d="M297.166,335.2Z" transform="translate(-174.488 -133.829)" fill="#231815"/>
      <path id="パス_35" data-name="パス 35" d="M295.239,329.085a13.383,13.383,0,0,0,10.094,0,1.227,1.227,0,0,0-.97-2.255,10.935,10.935,0,0,1-8.153,0,1.228,1.228,0,1,0-.971,2.255Z" transform="translate(-172.561 -127.718)" fill="#3e485c"/>
      <path id="パス_36" data-name="パス 36" d="M172.516,450.507H156.753V386.064a11.505,11.505,0,0,0-11.505-11.505H141.67a27.5,27.5,0,0,0-4.6-8.665A40.2,40.2,0,0,0,125.4,356.01a43.3,43.3,0,0,0-5.574-2.709,22.875,22.875,0,0,0-4.276-1.3,1.929,1.929,0,0,0-.659,3.8,15.04,15.04,0,0,1,2.107.568,36.124,36.124,0,0,1,5.575,2.478,38.838,38.838,0,0,1,9.479,7.135,25.536,25.536,0,0,1,5.537,8.573H106.353L117.345,359.7a1.929,1.929,0,1,0-3.1-2.3l-12.691,17.149H93.493v-5.6H80.954v5.6H72.893L60.2,357.409a1.929,1.929,0,1,0-3.1,2.3l10.992,14.853H36.377a24.129,24.129,0,0,1,3.574-6.3,36.391,36.391,0,0,1,10.538-8.9,39.507,39.507,0,0,1,5.071-2.467,19.344,19.344,0,0,1,3.515-1.085,1.929,1.929,0,0,0-.659-3.8h0a18.678,18.678,0,0,0-2.676.712,39.912,39.912,0,0,0-6.188,2.745,42.652,42.652,0,0,0-10.431,7.864A28.821,28.821,0,0,0,32.3,374.559H29.2a11.505,11.505,0,0,0-11.505,11.505v64.444H1.929a1.929,1.929,0,1,0,0,3.859H172.517a1.929,1.929,0,1,0,0-3.859ZM23.791,380.657a7.615,7.615,0,0,1,5.407-2.24H145.248a7.646,7.646,0,0,1,7.646,7.647v54.251H21.551V386.064A7.614,7.614,0,0,1,23.791,380.657Zm-2.24,63.516H152.895v6.335H21.551Z" transform="translate(40 -145.938)" fill="#3e485c"/>
      <path id="パス_37" data-name="パス 37" d="M172.1,37.538a33.876,33.876,0,0,0-5.846,19.04V62.27a1.828,1.828,0,0,0-1.49.074,12.714,12.714,0,0,0-6.944,11.332h0a12.712,12.712,0,0,0,11.265,12.63,27.439,27.439,0,0,0,1.909,4.966,34.44,34.44,0,0,0,12.273,13.351,33.468,33.468,0,0,0,17.867,5.422,32.215,32.215,0,0,0,12.319-2.525,36.045,36.045,0,0,0,14.622-11.167,30.329,30.329,0,0,0,4.386-7.8q.416-1.11.729-2.25a12.712,12.712,0,0,0,11.258-12.63h0A12.715,12.715,0,0,0,237.5,62.343a1.829,1.829,0,0,0-1.321-.13V56.577a33.876,33.876,0,0,0-5.846-19.04,34.412,34.412,0,0,0-14.3-12.039,17.11,17.11,0,1,0-29.766.062A34.412,34.412,0,0,0,172.1,37.538Zm18.062,6.521c1.5,13.452,6.661,21.092,43.318,25.408a1.655,1.655,0,0,0,2.7-1.283V65.819a9.08,9.08,0,0,1,3.215,3.076,8.977,8.977,0,0,1,1.367,4.781h0a9.009,9.009,0,0,1-6.83,8.751,23.094,23.094,0,0,0,.142-2.5,1.841,1.841,0,1,0-3.683,0h0a21.719,21.719,0,0,1-2.414,9.7,30.785,30.785,0,0,1-10.96,11.895,29.8,29.8,0,0,1-15.885,4.843,28.536,28.536,0,0,1-10.908-2.244,32.378,32.378,0,0,1-13.114-10.01,26.657,26.657,0,0,1-3.857-6.847,20.878,20.878,0,0,1-1.381-7.335,1.841,1.841,0,0,0-3.683,0,23.052,23.052,0,0,0,.146,2.5,9.009,9.009,0,0,1-6.835-8.753h0a8.98,8.98,0,0,1,1.367-4.781,9.085,9.085,0,0,1,3.384-3.17v2.459a1.666,1.666,0,0,0,2.851,1.172c.635-.646,1.537-1.4,2.528-2.266C182.34,62.014,189.521,50.47,190.162,44.059Z" transform="translate(-73.912 108.108)" fill="#3e485c"/>
    </g>
    <g id="グループ_122" data-name="グループ 122" transform="translate(225.445 4.198)">
      <path id="パス_100" data-name="パス 100" d="M36.813,119.338h0A36.94,36.94,0,0,1,0,82.486V36.852a36.813,36.813,0,1,1,73.626,0V82.486A36.94,36.94,0,0,1,36.813,119.338Z" transform="matrix(0.883, 0.469, -0.469, 0.883, 103.813, 328.02)" fill="#2ba7c8"/>
      <path id="パス_101" data-name="パス 101" d="M4.991,26.569h0a5.009,5.009,0,0,1-4.991-5V5A4.991,4.991,0,1,1,9.982,5V21.572A5.008,5.008,0,0,1,4.991,26.569Z" transform="matrix(0.883, 0.469, -0.469, 0.883, 117.125, 363.501)" fill="#ffb64b"/>
      <path id="パス_102" data-name="パス 102" d="M6.959,28.538v-1.97a3.04,3.04,0,0,1-3.024-3.027V6.966a3.024,3.024,0,0,1,6.048,0V23.542a3.04,3.04,0,0,1-3.024,3.027v3.939a6.977,6.977,0,0,0,6.959-6.966V6.966A6.959,6.959,0,0,0,0,6.966V23.542a6.977,6.977,0,0,0,6.959,6.966Z" transform="matrix(0.883, 0.469, -0.469, 0.883, 113.811, 357.637)" fill="#3e485c"/>
      <path id="パス_103" data-name="パス 103" d="M66.171,57.863A38.674,38.674,0,0,0,40.748,46.511V31.4A5.976,5.976,0,0,1,41.4,28.69a7.881,7.881,0,0,1,3.2-3.237,10.516,10.516,0,0,1,5.182-1.321,14.065,14.065,0,0,0,9.044-3.165,11.317,11.317,0,0,0,2.851-3.557,9.921,9.921,0,0,0,1.075-4.482V0H58.818V12.929a5.976,5.976,0,0,1-.654,2.707,7.88,7.88,0,0,1-3.2,3.236,10.515,10.515,0,0,1-5.182,1.321,14.064,14.064,0,0,0-9.044,3.165,11.311,11.311,0,0,0-2.851,3.557A9.922,9.922,0,0,0,36.813,31.4V46.511A38.92,38.92,0,0,0,0,85.282v45.635a38.78,38.78,0,0,0,77.561,0V85.282A38.729,38.729,0,0,0,66.171,57.863Zm7.455,73.054a34.845,34.845,0,0,1-69.691,0V85.282a34.845,34.845,0,0,1,69.691,0v45.635Z" transform="matrix(0.883, 0.469, -0.469, 0.883, 119.687, 278.802)" fill="#3e485c"/>
    </g>
    <g id="グループ_126" data-name="グループ 126" transform="translate(4 -21)">
      <rect id="長方形_146" data-name="長方形 146" width="11" height="11" transform="translate(172 406)" fill="#2ba7c8"/>
      <g id="長方形_141" data-name="長方形 141" transform="translate(167 401)" fill="none" stroke="#3e485c" stroke-width="5">
        <rect width="50" height="50" stroke="none"/>
        <rect x="2.5" y="2.5" width="45" height="45" fill="none"/>
      </g>
      <g id="長方形_145" data-name="長方形 145" transform="translate(138 372)" fill="none" stroke="#3e485c" stroke-width="5">
        <rect width="50" height="50" stroke="none"/>
        <rect x="2.5" y="2.5" width="45" height="45" fill="none"/>
      </g>
    </g>
    <g id="グループ_127" data-name="グループ 127" transform="translate(755 29) rotate(90)">
      <rect id="長方形_146-2" data-name="長方形 146" width="8" height="8" transform="translate(163 397)" fill="#2ba7c8"/>
      <g id="長方形_141-2" data-name="長方形 141" transform="translate(159 393)" fill="none" stroke="#3e485c" stroke-width="5">
        <rect width="37" height="37" stroke="none"/>
        <rect x="2.5" y="2.5" width="32" height="32" fill="none"/>
      </g>
      <g id="長方形_145-2" data-name="長方形 145" transform="translate(138 372)" fill="none" stroke="#3e485c" stroke-width="5">
        <rect width="37" height="37" stroke="none"/>
        <rect x="2.5" y="2.5" width="32" height="32" fill="none"/>
      </g>
    </g>
  </g>
</svg>
