<?xml version="1.0" encoding="UTF-8"?><svg id="_レイヤー_2" xmlns="http://www.w3.org/2000/svg" viewBox="0 0 17.17 31.57"><defs><style>.cls-1{fill:#fff;}.cls-2{fill:#ffb64b;}.cls-3{fill:#606060;}</style></defs><g id="_レイヤー_1-2"><g><path id="_パス_3544" class="cls-2" d="M8.59,25.39h3.67c.19-1.66,1-3.19,2.26-4.28,.11-.1,.23-.21,.33-.32,3.24-3.46,3.07-8.89-.39-12.13s-8.89-3.07-12.13,.39c-3.1,3.3-3.1,8.44,0,11.74,.11,.11,.22,.22,.33,.32,1.26,1.09,2.07,2.62,2.26,4.28h3.67Z"/><path id="_パス_3557" class="cls-3" d="M8.59,26.4h3.78c.04,.42,.04,.85,.02,1.27-.1,2.07-1.73,3.75-3.8,3.91h0c-2.07-.16-3.7-1.83-3.8-3.91-.02-.42-.01-.85,.02-1.27h3.78"/><path class="cls-2" d="M8.58,4.59c-.32,0-.57-.26-.57-.57V.57c0-.32,.26-.57,.57-.57s.57,.26,.57,.57v3.44c0,.32-.26,.57-.57,.57Z"/><path class="cls-2" d="M3.01,5.81c-.15,0-.29-.06-.41-.17L.17,3.2c-.22-.22-.22-.59,0-.81s.59-.22,.81,0l2.43,2.43c.22,.22,.22,.59,0,.81-.11,.11-.26,.17-.41,.17Z"/><path class="cls-2" d="M14.16,5.81c-.15,0-.29-.06-.41-.17-.22-.22-.22-.59,0-.81l2.43-2.43c.22-.22,.59-.22,.81,0,.22,.22,.22,.59,0,.81l-2.43,2.43c-.11,.11-.26,.17-.41,.17Z"/><path class="cls-1" d="M3.95,18.47c-.31,0-.61-.12-.84-.36-.98-1.04-1.51-2.4-1.51-3.83,0-3.09,2.51-5.62,5.61-5.62h0c.63,0,1.14,.51,1.15,1.14,0,.63-.51,1.15-1.14,1.15-.89,0-1.72,.35-2.35,.98-.63,.63-.97,1.46-.97,2.35,0,.84,.32,1.65,.9,2.27,.43,.46,.41,1.19-.05,1.62-.22,.21-.5,.31-.78,.31Z"/></g></g></svg>