<svg xmlns="http://www.w3.org/2000/svg" xmlns:xlink="http://www.w3.org/1999/xlink" width="48" height="48" viewBox="0 0 48 48">
  <defs>
    <clipPath id="clip-path">
      <circle id="楕円形_77" data-name="楕円形 77" cx="24" cy="24" r="24" transform="translate(317 3634)" fill="#f3a185"/>
    </clipPath>
  </defs>
  <g id="グループ_2604" data-name="グループ 2604" transform="translate(-317 -3634)">
    <path id="パス_1805" data-name="パス 1805" d="M24,0A24,24,0,1,1,0,24,24,24,0,0,1,24,0Z" transform="translate(317 3634)" fill="#d0ece9"/>
    <g id="マスクグループ_28" data-name="マスクグループ 28" clip-path="url(#clip-path)">
      <g id="j237_9_1" transform="translate(324.697 3636.742)">
        <path id="パス_1777" data-name="パス 1777" d="M375.066,641.8h-5.754l.968-5.994h4.564Z" transform="translate(-343.02 -590.538)" fill="#ffd7c5"/>
        <path id="パス_1778" data-name="パス 1778" d="M17.6,641.8H12.059l.212-5.71.01-.284h4.564Z" transform="translate(-11.2 -590.538)" fill="#ffd7c5"/>
        <path id="パス_1779" data-name="パス 1779" d="M165.541,659.872H154.96l4.957-4.609Z" transform="translate(-143.928 -608.614)" fill="#5b7594"/>
        <path id="パス_1780" data-name="パス 1780" d="M42,460.894H37.439l-.073,5.994h-21.5c-.088-2.74-.172-5.71-.172-5.71H10.959s0-6.006,2.739-9.5a9.062,9.062,0,0,1,4.258-2.88c.379-.134.766-.252,1.163-.357.325-.085.655-.164.988-.232.222-.047.446-.09.672-.128a48.432,48.432,0,0,1,5.613-.555,23.609,23.609,0,0,1,5.986.407c.229.047.456.1.682.154h0c.3.075.6.156.9.246.456.138.9.3,1.332.472a9.227,9.227,0,0,1,4.292,3.279A17.352,17.352,0,0,1,42,460.894Z" transform="translate(-10.179 -415.63)" fill="#20ab9a"/>
        <path id="パス_1781" data-name="パス 1781" d="M66.051,117.975h0v-3.523c0-4.689-4.9-9.166-10.09-9.166s-10.09,4.477-10.09,9.166v3.538a3.524,3.524,0,0,0,.163,7.03c.889,4.1,5.289,7.672,9.927,7.672s9.035-3.567,9.926-7.668h.164a3.525,3.525,0,1,0,0-7.05Z" transform="translate(-39.631 -97.791)" fill="#ffeae3"/>
        <path id="パス_1782" data-name="パス 1782" d="M7.87,462.858a.679.679,0,0,0-.093-.139.7.7,0,0,0-.84-.171A13.053,13.053,0,0,0,2.4,466.2a10.89,10.89,0,0,0-1.664,3.092,12.323,12.323,0,0,0-.649,4.054v6.333A7.433,7.433,0,0,1,0,480.808H1.405a9.015,9.015,0,0,0,.071-1.127v-6.333a10.941,10.941,0,0,1,.574-3.6,9.657,9.657,0,0,1,2.393-3.762,12.32,12.32,0,0,1,3.116-2.195A.7.7,0,0,0,7.87,462.858Zm24.65,16.823v-6.333a12.727,12.727,0,0,0-.611-3.974,11.334,11.334,0,0,0-2.6-4.329,11.738,11.738,0,0,0-3.391-2.471.7.7,0,0,0-.807.151.667.667,0,0,0-.121.176.693.693,0,0,0,.326.926,10.372,10.372,0,0,1,3.885,3.256,9.964,9.964,0,0,1,1.381,2.723,11.3,11.3,0,0,1,.542,3.542v6.333a9.015,9.015,0,0,0,.071,1.127h1.405A7.424,7.424,0,0,1,32.52,479.681Z" transform="translate(0 -429.55)" fill="#3e485c"/>
        <path id="パス_1783" data-name="パス 1783" d="M371.8,626.727a.694.694,0,0,1-.695.694h-2.278v5.3h-1.391v-5.71a1.417,1.417,0,0,1,.95-.98H371.1A.7.7,0,0,1,371.8,626.727Z" transform="translate(-341.275 -581.463)" fill="#3e485c"/>
        <path id="パス_1784" data-name="パス 1784" d="M33.925,627.533v5.189H32.532v-5.189a.733.733,0,0,1,.011-.111H30.253a.694.694,0,0,1-.635-.41.681.681,0,0,1-.061-.284.7.7,0,0,1,.7-.7h2.718a.7.7,0,0,1,.7.7.68.68,0,0,1-.044.235A.691.691,0,0,1,33.925,627.533Z" transform="translate(-27.453 -581.464)" fill="#3e485c"/>
        <path id="パス_1786" data-name="パス 1786" d="M160.2,304.239a1.112,1.112,0,1,0,1.113,1.112A1.116,1.116,0,0,0,160.2,304.239Z" transform="translate(-147.763 -282.58)" fill="#3e485c"/>
        <path id="パス_1787" data-name="パス 1787" d="M268.75,306.462a1.112,1.112,0,1,0-1.113-1.112A1.116,1.116,0,0,0,268.75,306.462Z" transform="translate(-248.583 -282.579)" fill="#3e485c"/>
        <path id="パス_1788" data-name="パス 1788" d="M215.905,361.65h1.25a.286.286,0,1,0,0-.571h-.835a.524.524,0,0,1-.466-.285l-.075-.146a.135.135,0,0,0-.256.062v.559A.382.382,0,0,0,215.905,361.65Z" transform="translate(-200.18 -334.904)" fill="#3e485c"/>
        <path id="パス_1789" data-name="パス 1789" d="M58.278,21.665a4.207,4.207,0,0,0-1.653-1.515.663.663,0,0,0-.458-.051V18.34a10.994,10.994,0,0,0-1.9-6.172,11.17,11.17,0,0,0-4.635-3.9,5.551,5.551,0,1,0-9.666.02,11.157,11.157,0,0,0-4.591,3.885,10.994,10.994,0,0,0-1.9,6.172v1.774a.658.658,0,0,0-.514.037,4.216,4.216,0,0,0-1.653,1.515,4.188,4.188,0,0,0,3.034,6.373,8.967,8.967,0,0,0,.612,1.579,10.843,10.843,0,0,0,2.476,3.195,11.987,11.987,0,0,0,1.529,1.159,10.945,10.945,0,0,0,5.833,1.768,10.523,10.523,0,0,0,4.023-.824A11.823,11.823,0,0,0,52.275,32.7a11.287,11.287,0,0,0,1.313-1.428,9.912,9.912,0,0,0,1.432-2.546c.085-.228.162-.458.228-.693a4.185,4.185,0,0,0,3.03-6.371Zm-2.763,4.966q.034-.358.034-.721a.663.663,0,1,0-1.327,0,6.464,6.464,0,0,1-.2,1.578,7.53,7.53,0,0,1-.577,1.536,9.727,9.727,0,0,1-2.752,3.28q-.376.29-.78.549a9.6,9.6,0,0,1-5.118,1.559,9.206,9.206,0,0,1-3.514-.721,10.372,10.372,0,0,1-2.188-1.239,10.189,10.189,0,0,1-2.039-1.986,8.571,8.571,0,0,1-1.243-2.2,6.721,6.721,0,0,1-.443-2.354.664.664,0,1,0-1.328,0,7.2,7.2,0,0,0,.04.723,2.859,2.859,0,0,1-.6-5.252V22.1a.541.541,0,0,0,.925.381A14.463,14.463,0,0,0,36.748,20.1c1.446-1.38,3.975-6.868,4.183-8.942.359,3.2,1.727,3.768,7,6.715.787.457,1.168.713,1.968,1.114,1.248.717,2.668,1.553,4.284,2.55.414.376.806.688,1.062.95a.541.541,0,0,0,.925-.381v-.69a2.882,2.882,0,0,1,.987.956,2.86,2.86,0,0,1-1.638,4.263Z" transform="translate(-28.492)" fill="#3e485c"/>
        <path id="パス_1790" data-name="パス 1790" d="M191.265,401.207a.489.489,0,0,0,.567.018,4.346,4.346,0,0,0,3.71,0,.488.488,0,0,0,.567-.018c.26-.161.355-.446.229-.595l-.382-.477a.424.424,0,0,0-.543-.049.441.441,0,0,0-.217.409,3.537,3.537,0,0,1-3.019,0,.439.439,0,0,0-.217-.409.423.423,0,0,0-.543.049l-.382.477C190.911,400.761,191,401.045,191.265,401.207Z" transform="translate(-177.385 -371.535)" fill="#3e485c"/>
      </g>
    </g>
  </g>
</svg>
