<svg xmlns="http://www.w3.org/2000/svg" xmlns:xlink="http://www.w3.org/1999/xlink" width="48" height="48" viewBox="0 0 48 48">
  <defs>
    <clipPath id="clip-path">
      <circle id="楕円形_78" data-name="楕円形 78" cx="24" cy="24" r="24" transform="translate(379 3634)" fill="#e4f1fa"/>
    </clipPath>
  </defs>
  <g id="グループ_2599" data-name="グループ 2599" transform="translate(-379 -3634)">
    <circle id="楕円形_82" data-name="楕円形 82" cx="24" cy="24" r="24" transform="translate(379 3634)" fill="#e4f1fa"/>
    <g id="マスクグループ_29" data-name="マスクグループ 29" clip-path="url(#clip-path)">
      <g id="j233_9_1" transform="translate(386.258 3643.001)">
        <path id="パス_1792" data-name="パス 1792" d="M224.7,679.729h-6.846l3.322-2.576Z" transform="translate(-204.761 -636.446)" fill="#5b7594"/>
        <path id="パス_1793" data-name="パス 1793" d="M470.353,657.328h-4.935l.075-4.008H470.2Z" transform="translate(-437.44 -614.046)" fill="#ffeae3"/>
        <path id="パス_1794" data-name="パス 1794" d="M19.555,657.328H14.62l.138-3.714.01-.294H19.48Z" transform="translate(-13.742 -614.046)" fill="#ffeae3"/>
        <path id="パス_1795" data-name="パス 1795" d="M43.978,436.581H39.266l-.049,4.008H16.931c-.062-2.027-.11-3.714-.11-3.714H11.93s0-6.211,2.828-9.823a9.374,9.374,0,0,1,4.4-2.977c.389-.138.791-.26,1.2-.369q.5-.135,1.021-.24.344-.073.692-.132a49.876,49.876,0,0,1,5.794-.574,24.324,24.324,0,0,1,6.179.421q.355.073.706.157c.313.078.623.162.929.256.472.143.932.3,1.376.488a9.515,9.515,0,0,1,4.433,3.391C44.084,431.372,43.978,436.581,43.978,436.581Z" transform="translate(-11.214 -397.307)" fill="#4287c6"/>
        <path id="パス_1796" data-name="パス 1796" d="M74.841,56.863h0V55.786c0-4.849-5.054-9.479-10.417-9.479s-10.417,4.63-10.417,9.479v1.092a3.645,3.645,0,0,0,.169,7.27c.918,4.243,5.46,7.934,10.248,7.934s9.327-3.689,10.247-7.93h.169a3.645,3.645,0,0,0,0-7.29Z" transform="translate(-47.655 -43.523)" fill="#ffeae3"/>
        <path id="パス_1797" data-name="パス 1797" d="M8.038,441.447a.637.637,0,0,0-.1-.143.716.716,0,0,0-.869-.178,13.482,13.482,0,0,0-4.685,3.78A11.26,11.26,0,0,0,.67,448.1,12.8,12.8,0,0,0,0,452.3v5.524H1.436V452.3a11.334,11.334,0,0,1,.592-3.723A10,10,0,0,1,4.5,444.682a12.717,12.717,0,0,1,3.217-2.27A.72.72,0,0,0,8.038,441.447ZM6.281,454.054a.705.705,0,0,0,.046-.243.719.719,0,0,0-.719-.719H2.8a.719.719,0,0,0-.719.719.7.7,0,0,0,.063.294.715.715,0,0,0,.655.425H5.169a.581.581,0,0,0-.012.115v3.174H6.593v-3.174A.716.716,0,0,0,6.281,454.054Zm26.572-5.868a11.751,11.751,0,0,0-2.678-4.476,12.144,12.144,0,0,0-3.5-2.555.719.719,0,0,0-.835.157.7.7,0,0,0-.123.181.719.719,0,0,0,.337.958,10.712,10.712,0,0,1,4.011,3.367,10.313,10.313,0,0,1,1.426,2.815,11.706,11.706,0,0,1,.56,3.663v5.524h1.436V452.3A13.182,13.182,0,0,0,32.854,448.186Z" transform="translate(-0.001 -414.537)" fill="#394355"/>
        <path id="パス_1798" data-name="パス 1798" d="M452.248,642.073a.719.719,0,0,1-.719.719h-2.352v3.289h-1.436v-3.714a1.472,1.472,0,0,1,.98-1.014h2.807A.719.719,0,0,1,452.248,642.073Z" transform="translate(-420.827 -602.799)" fill="#394355"/>
        <path id="パス_1799" data-name="パス 1799" d="M318.936,181.4a1.628,1.628,0,0,1,1.332,0,.844.844,0,0,0,.851-.035c.218-.185.07-.695-.424-.916a2.673,2.673,0,0,0-2.185,0c-.494.221-.642.732-.424.916A.842.842,0,0,0,318.936,181.4Z" transform="translate(-298.872 -169.379)" fill="#394355"/>
        <path id="パス_1800" data-name="パス 1800" d="M194.182,249.566a1.15,1.15,0,1,0-1.149-1.15A1.152,1.152,0,0,0,194.182,249.566Z" transform="translate(-181.43 -232.403)" fill="#394355"/>
        <path id="パス_1801" data-name="パス 1801" d="M326.89,247.267a1.15,1.15,0,1,0,1.149,1.15A1.153,1.153,0,0,0,326.89,247.267Z" transform="translate(-306.16 -232.403)" fill="#394355"/>
        <path id="パス_1802" data-name="パス 1802" d="M262.423,317.373h1.29a.3.3,0,0,0,0-.591h-.862a.541.541,0,0,1-.481-.294l-.077-.151a.139.139,0,0,0-.264.064v.578A.4.4,0,0,0,262.423,317.373Z" transform="translate(-246.277 -297.249)" fill="#394355"/>
        <path id="パス_1803" data-name="パス 1803" d="M63.917,14.1a4.318,4.318,0,0,0-1.626-1.024v-.1c1.423-.191,2.813-1.621,2.719-2.283-.107-.761-2.422-1.1-3.346-2.988h0c-.084-.24-.172-.478-.27-.712A11.517,11.517,0,0,0,54.26.516,11.342,11.342,0,0,0,50.871,0h-.522A11.327,11.327,0,0,0,45.91.9,11.514,11.514,0,0,0,40.886,5.05a11.374,11.374,0,0,0-1.959,6.383v1.645a4.331,4.331,0,0,0,.895,8.383,9.356,9.356,0,0,0,.632,1.633A11.2,11.2,0,0,0,43.011,26.4a12.32,12.32,0,0,0,1.577,1.2,11.26,11.26,0,0,0,6.021,1.828,10.847,10.847,0,0,0,4.153-.852,12.181,12.181,0,0,0,3.568-2.286,11.6,11.6,0,0,0,1.357-1.478,10.224,10.224,0,0,0,1.479-2.633c.088-.235.168-.474.235-.715A4.332,4.332,0,0,0,63.917,14.1Zm-2.241,5.9q.035-.371.035-.746a.685.685,0,1,0-1.37,0,6.7,6.7,0,0,1-.207,1.631,7.792,7.792,0,0,1-.594,1.589A10.055,10.055,0,0,1,56.7,25.873c-.259.2-.526.39-.8.566a9.909,9.909,0,0,1-5.284,1.614,9.491,9.491,0,0,1-3.627-.747,10.749,10.749,0,0,1-2.257-1.28,10.5,10.5,0,0,1-2.106-2.055,8.82,8.82,0,0,1-1.282-2.277,6.932,6.932,0,0,1-.459-2.435.686.686,0,0,0-1.371,0,7.452,7.452,0,0,0,.041.747,2.96,2.96,0,0,1-.622-5.431v2.042h.115a1.869,1.869,0,0,0,1.868-1.87l3.272-3.242a.745.745,0,0,1,1.264.615,1.175,1.175,0,0,0,1.5,1.259,9.847,9.847,0,0,0,4.118-2.361A8.563,8.563,0,0,0,53.03,8.2a.743.743,0,0,1,1.327-.078,15.857,15.857,0,0,0,5.954,5.757v.865a1.869,1.869,0,0,0,1.868,1.87h.113V14.576a2.957,2.957,0,0,1-.616,5.43Z" transform="translate(-33.869)" fill="#394355"/>
        <path id="パス_1804" data-name="パス 1804" d="M232.316,365.791a.5.5,0,0,0,.585.019,4.48,4.48,0,0,0,3.83,0,.5.5,0,0,0,.586-.019c.269-.167.366-.461.237-.615l-.395-.493a.436.436,0,0,0-.56-.051.456.456,0,0,0-.224.423,3.646,3.646,0,0,1-3.117,0,.455.455,0,0,0-.224-.423.436.436,0,0,0-.56.051l-.395.493C231.95,365.33,232.048,365.624,232.316,365.791Z" transform="translate(-218.076 -342.64)" fill="#394355"/>
      </g>
    </g>
  </g>
</svg>
