<svg xmlns="http://www.w3.org/2000/svg" xmlns:xlink="http://www.w3.org/1999/xlink" width="482" height="320" viewBox="0 0 482 320">
  <defs>
    <clipPath id="clip-path">
      <rect id="長方形_523" data-name="長方形 523" width="134.538" height="216" transform="translate(-11688.005 471.001)" fill="#fff" stroke="#707070" stroke-width="1"/>
    </clipPath>
  </defs>
  <g id="グループ_3245" data-name="グループ 3245" transform="translate(11932 -408)">
    <path id="img" d="M10,0H472a10,10,0,0,1,10,10V310a10,10,0,0,1-10,10H10A10,10,0,0,1,0,310V10A10,10,0,0,1,10,0Z" transform="translate(-11932 408)" fill="#ffe7ab"/>
    <g id="グループ_3172" data-name="グループ 3172" transform="translate(19.376 -11.001)">
      <g id="j130_14_12" transform="translate(-11867.015 490.682)">
        <path id="パス_3440" data-name="パス 3440" d="M144.821,378.321v30.764c0,9.61-10.769,13.478-10.769,13.478l-8.278,1.821v3.377H28.465V426.57l-8.278-4.007S9.418,418.7,9.418,409.085V378.321c0-36.4,20.943-50.986,34.428-55.123h66.546C123.878,327.336,144.821,341.925,144.821,378.321Z" transform="translate(-2.829 -234.643)" fill="#2ba7c8"/>
        <path id="パス_3441" data-name="パス 3441" d="M138.265,269.315a7.361,7.361,0,0,1,0,2.809c-.33,1.07,27.881,37.684,27.881,37.684s3.012,2.348,5.158,2.109,5.027-3.9,5.027-3.9l27.594-37.95-14.085-6.7-18.536-13.817Z" transform="translate(-98.26 -179.514)" fill="#fff"/>
        <path id="パス_3442" data-name="パス 3442" d="M160.424,601.025H44.869L54.544,559.8H150.75Z" transform="translate(-28.715 -404.706)" fill="#fff"/>
        <path id="パス_3443" data-name="パス 3443" d="M53.989,532.259c-5.314-8.214-2.131-24.158,9.8-26.09S81.04,510.952,81.04,520.4v8.411a5.8,5.8,0,1,1-11.593,0v-7.587l-10.274.337-3.119,13.048Z" transform="translate(-34.369 -367.191)" fill="#ffeae3"/>
        <path id="パス_3444" data-name="パス 3444" d="M368.628,521.222v7.587a5.8,5.8,0,1,1-11.593,0V520.4c0-9.446,5.314-16.16,17.248-14.228s15.117,17.877,9.8,26.09l-2.065,2.347L378.686,520.4Z" transform="translate(-257.461 -367.191)" fill="#ffeae3"/>
        <path id="パス_3445" data-name="パス 3445" d="M169.147,73.406h0V61.115c0-16.362-17.066-31.984-35.171-31.984S98.805,44.752,98.805,61.115V73.46a12.3,12.3,0,0,0,.569,24.53c3.1,14.316,18.436,26.77,34.6,26.77s31.492-12.446,34.6-26.755h.572a12.3,12.3,0,0,0,0-24.6Z" transform="translate(-59.139 -18.573)" fill="#ffeae3"/>
        <path id="パス_3446" data-name="パス 3446" d="M119.22,91.935a48.884,48.884,0,0,0-5.139-3.585c22.128-17.683,1.292-50.636-9.743-69.1C95.678,4.765,81.517-2.768,69.884.937,58.251-2.768,44.091,4.765,35.431,19.251,24.394,37.715,3.559,70.668,25.688,88.35a48.941,48.941,0,0,0-5.149,3.593A51.074,51.074,0,0,0,6.212,110.26C2.418,118.3,0,128.4,0,140.894v30.767a14.153,14.153,0,0,0,1.985,7.267,19.2,19.2,0,0,0,6.4,6.329,23.813,23.813,0,0,0,2.944,1.573l-1.17,4.985a2,2,0,0,0,1.948,2.458H127.662a2,2,0,0,0,1.948-2.458l-1.17-4.985a23.714,23.714,0,0,0,5.131-3.127,17.809,17.809,0,0,0,4.213-4.775,14.154,14.154,0,0,0,1.985-7.267V140.894c.006-16.663-4.312-29.065-10.421-38.013A50.043,50.043,0,0,0,119.22,91.935ZM43.676,56.853c.411-1.455,7.919-21.179,8.862-22.561,3.556-5.212,3.864,1.173,7.914,3.526,4.854,2.819,8.612,3.811,13.066,3.728,8.029.149,12.026-.43,20.014,11.278C115.4,84.876,88.022,88.1,88.022,88.1a16.035,16.035,0,0,0,5.147,4.3,36.879,36.879,0,0,1-5.32,4.128,33.691,33.691,0,0,1-17.964,5.478,32.265,32.265,0,0,1-12.336-2.537A36.86,36.86,0,0,1,46.6,92.408a16.034,16.034,0,0,0,5.15-4.3S34.713,88.609,43.676,56.853ZM14.631,190.271l8.735-37.222h6.672v6.41a7.6,7.6,0,1,0,15.195,0v-6.41h49.3v6.41a7.6,7.6,0,1,0,15.195,0v-6.41H116.4l8.735,37.222Zm7.182-49.832a11.358,11.358,0,0,1,4.658-1.842,22.638,22.638,0,0,1,3.611-.31,13.4,13.4,0,0,1,5.264.959,9.24,9.24,0,0,1,2.752,1.779,10.346,10.346,0,0,1,2.629,4.175,17,17,0,0,1,.887,5.018,1.948,1.948,0,0,0,.015,1.687v7.554a4,4,0,1,1-7.992,0v-7.547a1.989,1.989,0,0,0-1.8-2.866H21.781a2,2,0,0,0-1.948,1.544L17.378,161.05a16.074,16.074,0,0,1-1.681-7.4,17.972,17.972,0,0,1,2.764-9.745A12.492,12.492,0,0,1,21.814,140.439Zm96.14,0a13.347,13.347,0,0,1,4.552,5.665,18.718,18.718,0,0,1,1.564,7.545,16.077,16.077,0,0,1-1.681,7.4l-2.455-10.459a2,2,0,0,0-1.948-1.544H107.777a2,2,0,0,0-1.648,3.134v7.278a4,4,0,1,1-7.992,0v-7.553a1.954,1.954,0,0,0,.026-1.669,17.643,17.643,0,0,1,.689-4.463,11.7,11.7,0,0,1,1.441-3.116,9.117,9.117,0,0,1,3.606-3.173,12.947,12.947,0,0,1,5.787-1.2,22.665,22.665,0,0,1,3.611.31A11.362,11.362,0,0,1,117.954,140.439Zm17.451.455v30.767a9.761,9.761,0,0,1-1.381,5.052,14.916,14.916,0,0,1-4.958,4.846c-.609.382-1.172.688-1.646.925L123.246,164.7a1.793,1.793,0,0,0,1.653-.809h0a18.985,18.985,0,0,0,2.773-10.24,21.539,21.539,0,0,0-3.359-11.728,16.093,16.093,0,0,0-4.324-4.455,14.713,14.713,0,0,0-2.143-1.217,2.167,2.167,0,0,0,.132-.723v-2.911a2.182,2.182,0,1,0-4.364,0V135a26.024,26.024,0,0,0-3.93-.319,16.982,16.982,0,0,0-6.669,1.244A12.847,12.847,0,0,0,99.2,138.4a13.952,13.952,0,0,0-3.559,5.6,19.907,19.907,0,0,0-1.027,5.044H73.262a3.356,3.356,0,1,0-6.071,0H45.152a20.462,20.462,0,0,0-.789-4.319,15.307,15.307,0,0,0-1.891-4.069,12.738,12.738,0,0,0-5.008-4.4,16.525,16.525,0,0,0-7.38-1.57,26.166,26.166,0,0,0-4.187.356c-.247.04-.489.088-.73.138v-2.564a2.182,2.182,0,1,0-4.364,0v2.911a2.161,2.161,0,0,0,.319,1.122,14.674,14.674,0,0,0-1.343.818,16.938,16.938,0,0,0-5.807,7.169,22.3,22.3,0,0,0-1.877,9.013,18.982,18.982,0,0,0,2.774,10.24,1.794,1.794,0,0,0,1.653.809l-4.174,17.786a19.11,19.11,0,0,1-3.526-2.271,13.34,13.34,0,0,1-3.118-3.567,9.755,9.755,0,0,1-1.342-4.985V140.894c.006-15.915,4.078-27.353,9.657-35.545a45.679,45.679,0,0,1,9.241-9.995,44.44,44.44,0,0,1,6.378-4.248c4.976,2.941,9.2,3.427,12.575,2.826a41.051,41.051,0,0,0,7.464,6.114,39.188,39.188,0,0,0,13.8,5.526v16.4L50.177,103.412a2.182,2.182,0,1,0-3.546,2.544l17.175,23.953.011.014a6.738,6.738,0,0,0,10.844,0l18.523-25.035a2.182,2.182,0,1,0-3.507-2.6h0L74.995,122.134V105.788a37.587,37.587,0,0,0,8.821-2.465,40.982,40.982,0,0,0,13.737-9.391c3.378.6,7.6.115,12.576-2.826a44.415,44.415,0,0,1,6.369,4.241,46.7,46.7,0,0,1,13.109,16.767C133.1,119.533,135.4,128.955,135.4,140.894Z" transform="translate(0 -0.001)" fill="#3e485c"/>
        <path id="パス_3447" data-name="パス 3447" d="M204.891,629.147H155.823a1.9,1.9,0,0,0,0,3.8h49.069a1.9,1.9,0,0,0,0-3.8Z" transform="translate(-112.39 -459.389)" fill="#3e485c"/>
        <path id="パス_3448" data-name="パス 3448" d="M366.659,668.15H351.892a1.9,1.9,0,0,0,0,3.8h14.768a1.9,1.9,0,0,0,0-3.8Z" transform="translate(-255.555 -487.868)" fill="#3e485c"/>
        <path id="パス_3449" data-name="パス 3449" d="M174.249,590.228h15.079a1.9,1.9,0,0,0,0-3.8H174.249a1.9,1.9,0,0,0,0,3.8Z" transform="translate(-125.844 -428.195)" fill="#3e485c"/>
        <path id="パス_3450" data-name="パス 3450" d="M198.59,265.287a3.89,3.89,0,0,0,3.878-3.879h-7.757A3.891,3.891,0,0,0,198.59,265.287Z" transform="translate(-142.174 -190.873)" fill="#3e485c"/>
        <path id="パス_3451" data-name="パス 3451" d="M298.42,265.287a3.891,3.891,0,0,0,3.878-3.879h-7.757A3.89,3.89,0,0,0,298.42,265.287Z" transform="translate(-215.068 -190.873)" fill="#3e485c"/>
        <path id="パス_3452" data-name="パス 3452" d="M247.945,291.207H252.3a1,1,0,0,0,0-1.993H249.39a1.826,1.826,0,0,1-1.625-.993l-.261-.51a.471.471,0,0,0-.89.215v1.949A1.332,1.332,0,0,0,247.945,291.207Z" transform="translate(-180.071 -209.891)" fill="#3e485c"/>
        <path id="パス_3453" data-name="パス 3453" d="M296.141,224.462l4.21.518a1.758,1.758,0,0,0,.429-3.489l-4.21-.518a1.758,1.758,0,0,0-.429,3.49Z" transform="translate(-215.109 -161.34)" fill="#3e485c"/>
        <path id="パス_3454" data-name="パス 3454" d="M196.743,224.98l4.21-.518a1.758,1.758,0,0,0-.429-3.49l-4.21.518a1.758,1.758,0,0,0,.429,3.489Z" transform="translate(-142.217 -161.339)" fill="#3e485c"/>
        <path id="パス_3455" data-name="パス 3455" d="M233.734,328.476a1.3,1.3,0,0,0,1.48.2,9.913,9.913,0,0,0,9.7,0,1.306,1.306,0,0,0,1.48-.205c.658-.494.849-1.269.5-1.6l-1.08-1.08a1.112,1.112,0,0,0-1.4.044,1.16,1.16,0,0,0-.488,1.082,7.893,7.893,0,0,1-7.717,0,1.166,1.166,0,0,0-.489-1.082,1.108,1.108,0,0,0-1.4-.044l-1.08,1.08C232.884,327.209,233.077,327.981,233.734,328.476Z" transform="translate(-170.177 -237.721)" fill="#3e485c"/>
      </g>
      <g id="グループ_3166" data-name="グループ 3166" transform="translate(-11905.376 558.516)">
        <path id="パス_3478" data-name="パス 3478" d="M13.7,295.213l-.9-2.514a15.622,15.622,0,0,0-7.31-8.792L3.408,282.83,5.5,281.753a15.618,15.618,0,0,0,7.31-8.792l.9-2.514.9,2.514a15.622,15.622,0,0,0,7.31,8.792L24,282.83l-2.091,1.078A15.618,15.618,0,0,0,14.6,292.7Z" transform="translate(-2.044 -269.082)" fill="#fff"/>
        <path id="パス_3491" data-name="パス 3491" d="M22.582,279.572l-2.091-1.077a14.263,14.263,0,0,1-6.65-8.037l-.9-2.514a1.364,1.364,0,0,0-2.57,0l-.9,2.514a14.264,14.264,0,0,1-6.65,8.037l-2.09,1.077A1.365,1.365,0,0,0,.74,282l2.091,1.078a14.262,14.262,0,0,1,6.65,8.037l.9,2.514a1.364,1.364,0,0,0,2.57,0l.9-2.514a14.264,14.264,0,0,1,6.65-8.037L22.583,282a1.365,1.365,0,0,0,0-2.427ZM11.661,289.2a16.8,16.8,0,0,0-7.335-8.415,16.8,16.8,0,0,0,7.335-8.415A16.8,16.8,0,0,0,19,280.785,16.8,16.8,0,0,0,11.661,289.2Z" transform="translate(0 -267.037)" fill="#3e485c"/>
      </g>
      <g id="グループ_3167" data-name="グループ 3167" transform="translate(-11869 475.145)">
        <path id="パス_3479" data-name="パス 3479" d="M39.433,48.082l-.9-2.514a15.62,15.62,0,0,0-7.31-8.791L29.136,35.7l2.091-1.078a15.616,15.616,0,0,0,7.31-8.792l.9-2.514.9,2.514a15.622,15.622,0,0,0,7.31,8.792L49.729,35.7l-2.091,1.078a15.617,15.617,0,0,0-7.31,8.791Z" transform="translate(-27.771 -21.951)" fill="#fff"/>
        <path id="パス_3492" data-name="パス 3492" d="M46.218,35.944l2.091-1.078a1.365,1.365,0,0,0,0-2.427l-2.091-1.078a14.261,14.261,0,0,1-6.65-8.037l-.9-2.514a1.364,1.364,0,0,0-2.57,0l-.9,2.514a14.264,14.264,0,0,1-6.65,8.037L26.465,32.44a1.365,1.365,0,0,0,0,2.427l2.091,1.078a14.263,14.263,0,0,1,6.65,8.036l.9,2.514a1.364,1.364,0,0,0,2.57,0l.9-2.514A14.264,14.264,0,0,1,46.218,35.944Zm-8.831,6.124a16.794,16.794,0,0,0-7.335-8.415,16.8,16.8,0,0,0,7.335-8.415,16.8,16.8,0,0,0,7.335,8.415A16.8,16.8,0,0,0,37.387,42.068Z" transform="translate(-25.725 -19.905)" fill="#3e485c"/>
      </g>
      <g id="グループ_3171" data-name="グループ 3171" transform="translate(-11743.381 486.641)">
        <path id="パス_3479-2" data-name="パス 3479" d="M39.433,48.082l-.9-2.514a15.62,15.62,0,0,0-7.31-8.791L29.136,35.7l2.091-1.078a15.616,15.616,0,0,0,7.31-8.792l.9-2.514.9,2.514a15.622,15.622,0,0,0,7.31,8.792L49.729,35.7l-2.091,1.078a15.617,15.617,0,0,0-7.31,8.791Z" transform="translate(-27.771 -21.951)" fill="#fff"/>
        <path id="パス_3492-2" data-name="パス 3492" d="M46.218,35.944l2.091-1.078a1.365,1.365,0,0,0,0-2.427l-2.091-1.078a14.261,14.261,0,0,1-6.65-8.037l-.9-2.514a1.364,1.364,0,0,0-2.57,0l-.9,2.514a14.264,14.264,0,0,1-6.65,8.037L26.465,32.44a1.365,1.365,0,0,0,0,2.427l2.091,1.078a14.263,14.263,0,0,1,6.65,8.036l.9,2.514a1.364,1.364,0,0,0,2.57,0l.9-2.514A14.264,14.264,0,0,1,46.218,35.944Zm-8.831,6.124a16.794,16.794,0,0,0-7.335-8.415,16.8,16.8,0,0,0,7.335-8.415,16.8,16.8,0,0,0,7.335,8.415A16.8,16.8,0,0,0,37.387,42.068Z" transform="translate(-25.725 -19.905)" fill="#3e485c"/>
      </g>
      <g id="マスクグループ_93" data-name="マスクグループ 93" clip-path="url(#clip-path)">
        <g id="j100_2_2" transform="translate(-11722.192 490.772)">
          <path id="パス_3470" data-name="パス 3470" d="M121.191,416.145l3.436,108.768h28.459l9.815-87.5,9.212,91.928H201.3l1.886-113.2L160.97,380.829Z" transform="translate(-60.641 -190.558)" fill="#6c859b"/>
          <path id="パス_3471" data-name="パス 3471" d="M203.385,286.96H184.161v8.262c-9.27,7.1-26.481,5.765-35.867-1.183l-6.7-4.954-9.8,7.15a26.191,26.191,0,0,1-30.713.12V286.96H81a32.061,32.061,0,0,0,.986-7.9V205.187A46.638,46.638,0,0,1,89.8,178.824s8.354-9.345,10.427-11.122a32.476,32.476,0,0,1,7.478-4.829,22.17,22.17,0,0,1,8.777-2.281l25.112-19.168,26.31,19.168c9.411,0,34.493,14.641,34.493,44.594V279.06A32.02,32.02,0,0,0,203.385,286.96Z" transform="translate(-40.53 -70.765)" fill="#768fa5"/>
          <path id="パス_3472" data-name="パス 3472" d="M77.11,432.719a32.057,32.057,0,0,1-1.638,4.814l-1.145,2.651a13.388,13.388,0,0,0,2.407,14.337l1.839,2.013a13.372,13.372,0,0,0,16.687,2.486l1.074-.636h.859V432.719H77.11Z" transform="translate(-36.643 -216.522)" fill="#ffeae3"/>
          <path id="パス_3473" data-name="パス 3473" d="M305.238,456.534l1.84-2.013a13.388,13.388,0,0,0,2.407-14.337l-1.145-2.651a32.17,32.17,0,0,1-1.638-4.814H287.478l.648,26.049.425.252A13.371,13.371,0,0,0,305.238,456.534Z" transform="translate(-143.847 -216.522)" fill="#ffeae3"/>
          <path id="パス_3474" data-name="パス 3474" d="M147.068,159.665s-11,2.4-11.327,3.474,28.052,37.924,28.052,37.924,3.031,2.363,5.19,2.122,5.058-3.926,5.058-3.926L201.8,161.066l-17.758-3.8-15.062-16.848Z" transform="translate(-67.92 -70.261)" fill="#fff"/>
          <path id="パス_3475" data-name="パス 3475" d="M190.81,55.978h0V52.323c0-16.467-17.17-32.188-35.386-32.188s-35.386,15.721-35.386,32.188v3.71a12.377,12.377,0,0,0,.573,24.686c3.119,14.407,18.549,26.941,34.813,26.941s31.684-12.526,34.81-26.926h.576a12.378,12.378,0,0,0,0-24.755Z" transform="translate(-54.446 -10.075)" fill="#ffeae3"/>
          <path id="パス_3476" data-name="パス 3476" d="M113.741,189.183c-20.6,6.47-25.072,26.952-25.072,37.263v81.994H81a32.061,32.061,0,0,0,.986-7.9V226.668A46.637,46.637,0,0,1,89.8,200.305s8.354-9.345,10.427-11.122a32.476,32.476,0,0,1,7.478-4.829Z" transform="translate(-40.53 -92.246)" fill="#8aa3b9"/>
          <ellipse id="楕円形_147" data-name="楕円形 147" cx="3.902" cy="3.904" rx="3.902" ry="3.904" transform="translate(83.322 50.473)" fill="#3e485c"/>
          <path id="パス_3481" data-name="パス 3481" d="M224.913,101.022a3.9,3.9,0,1,0,3.9,3.9A3.915,3.915,0,0,0,224.913,101.022Z" transform="translate(-110.588 -50.549)" fill="#3e485c"/>
          <path id="パス_3482" data-name="パス 3482" d="M196.309,132.988h4.383a1,1,0,0,0,0-2.006h-2.93a1.837,1.837,0,0,1-1.635-1l-.263-.514a.474.474,0,0,0-.9.216v1.962A1.341,1.341,0,0,0,196.309,132.988Z" transform="translate(-97.558 -64.654)" fill="#3e485c"/>
          <path id="パス_3483" data-name="パス 3483" d="M221.064,77.648a5.53,5.53,0,0,1,4.524,0,2.868,2.868,0,0,0,2.89-.117c.741-.628.238-2.359-1.44-3.111a9.082,9.082,0,0,0-7.424,0c-1.679.751-2.181,2.485-1.441,3.111A2.864,2.864,0,0,0,221.064,77.648Z" transform="translate(-109.002 -36.841)" fill="#3e485c"/>
          <path id="パス_3484" data-name="パス 3484" d="M284.871,278.279a2.2,2.2,0,0,0-2.2,2.2v66.3a2.2,2.2,0,1,0,4.39,0v-66.3A2.2,2.2,0,0,0,284.871,278.279Z" transform="translate(-141.444 -139.244)" fill="#3e485c"/>
          <path id="パス_3485" data-name="パス 3485" d="M200.543,220.14A29.882,29.882,0,0,1,198.1,208.3V134.424a49.787,49.787,0,0,0-4.258-20.5,48.988,48.988,0,0,0-16.1-19.667,42.125,42.125,0,0,0-8.839-4.92,27.336,27.336,0,0,0-3.972-1.262,17.731,17.731,0,0,0-2.394-.385,39.388,39.388,0,0,0,3.137-3.59,34.532,34.532,0,0,0,4.99-8.877q.464-1.237.816-2.508A14.476,14.476,0,0,0,174.7,44.457v-.41c4.831-.646,9.556-5.5,9.237-7.752-.367-2.581-8.231-3.728-11.371-10.142h-.009c-.284-.817-.585-1.627-.921-2.418A39.167,39.167,0,0,0,157.563,6.654,38.519,38.519,0,0,0,135.9,0h-1.773a38.461,38.461,0,0,0-15.074,3.066A39.152,39.152,0,0,0,101.98,17.145a38.571,38.571,0,0,0-6.652,21.673v6.053a14.476,14.476,0,0,0,3.2,27.71,31.22,31.22,0,0,0,2.193,5.731,37.234,37.234,0,0,0,6.927,9.532c-.47.078-.948.17-1.443.29a31.5,31.5,0,0,0-6.6,2.5A45.311,45.311,0,0,0,92.388,95.2a2.2,2.2,0,0,0,2.674,3.483h0a41.67,41.67,0,0,1,5.376-3.519l28.469,38.489a6.778,6.778,0,0,0,10.91,0l28.818-38.96a2.185,2.185,0,0,0,.287-.554,38.118,38.118,0,0,1,4.878,2.743,44.269,44.269,0,0,1,19.9,37.547V208.3a34.276,34.276,0,0,0,2.808,13.586l1.145,2.651a11.19,11.19,0,0,1-2.012,11.984l-1.84,2.013a11.177,11.177,0,0,1-13.946,2.08V225.32a2.184,2.184,0,0,0-3.523-1.738,2.188,2.188,0,0,0-1.989-.359h0L166.7,225.6a23.427,23.427,0,0,1-21.067-3.659l-4.934-3.719a10.534,10.534,0,0,0-12.682,0l-4.934,3.719A23.424,23.424,0,0,1,102.02,225.6l-6.1-1.9V141.231a2.195,2.195,0,1,0-4.39,0V214H82.175a2.2,2.2,0,0,0,0,4.393h9.357v22.216a11.136,11.136,0,0,1-4.56,1.5v-7.943a2.2,2.2,0,1,0-4.39,0v7.518a11.135,11.135,0,0,1-5-3.151l-1.839-2.013a11.188,11.188,0,0,1-2.012-11.984l1.145-2.651a34.28,34.28,0,0,0,2.808-13.587v-73.87a44.451,44.451,0,0,1,7.436-25.142,2.2,2.2,0,1,0-3.647-2.444h0A48.866,48.866,0,0,0,73.3,134.424V208.3a29.873,29.873,0,0,1-2.448,11.845l-1.145,2.65a15.583,15.583,0,0,0,2.8,16.69l1.84,2.013a15.543,15.543,0,0,0,8.236,4.72v2.12H80.522a6.378,6.378,0,0,0-6.377,6.38v49.791a6.379,6.379,0,0,0,6.377,6.38h8.509a6.364,6.364,0,0,0,5.391-2.984c.589,11.382,1.093,20.763,1.3,24.646-.26.059-.534.125-.832.2a26.722,26.722,0,0,0-9.926,4.913,21.154,21.154,0,0,0-4.837,5.528,22.335,22.335,0,0,0-2.9,8.2l-.026.167v2.788a5.387,5.387,0,0,0,5.385,5.388h38.689a5.386,5.386,0,0,0,5.359-4.858v0l2.03-20.3v0l7.034-71.426,9.06,91.726a5.386,5.386,0,0,0,5.359,4.858h38.689a5.386,5.386,0,0,0,5.385-5.387v-2.788l-.026-.167a21.775,21.775,0,0,0-4.373-10.321,22.086,22.086,0,0,0-5.16-4.717,27.29,27.29,0,0,0-7.474-3.416c-.549-.158-1.049-.284-1.492-.386.295-5.457,1.169-21.747,2.043-39.178.537-10.706,1.074-21.843,1.477-31.166.2-4.662.37-8.871.488-12.349.055-1.642.1-3.112.131-4.4a15.538,15.538,0,0,0,17.24-3.96l1.84-2.014a15.584,15.584,0,0,0,2.8-16.69ZM103.294,73.747a23.775,23.775,0,0,1-1.571-8.349,2.095,2.095,0,1,0-4.19,0,26.275,26.275,0,0,0,.152,2.692,10.285,10.285,0,0,1-4.18-17.079,10.394,10.394,0,0,1,1.824-1.44v6.856h.386a6.348,6.348,0,0,0,6.346-6.35l11.115-11.006a2.53,2.53,0,0,1,4.294,2.084,3.988,3.988,0,0,0,5.086,4.276,33.443,33.443,0,0,0,13.988-8.017,29.057,29.057,0,0,0,6.69-9.56,2.523,2.523,0,0,1,4.509-.261c4.468,7.872,12.951,15.893,20.224,19.547v2.938a6.348,6.348,0,0,0,6.347,6.35h.386V48.951a10.273,10.273,0,0,1-2.382,19.427,26.332,26.332,0,0,0,.177-2.98,2.095,2.095,0,1,0-4.19,0h0a24.735,24.735,0,0,1-2.746,11.039,35.039,35.039,0,0,1-12.471,13.54,33.9,33.9,0,0,1-18.074,5.513A32.455,32.455,0,0,1,122.6,92.936a36.849,36.849,0,0,1-14.921-11.395A30.347,30.347,0,0,1,103.294,73.747Zm36.861,52.063v-17.75H128.574V125.81L104.5,93.267a22.905,22.905,0,0,1,2.737-.865,12,12,0,0,1,2.746-.381,2.183,2.183,0,0,0,1.6-.7q1.5,1.16,3.1,2.189a38.065,38.065,0,0,0,20.329,6.172,36.642,36.642,0,0,0,14.016-2.874,41.22,41.22,0,0,0,10.327-6.216,2.19,2.19,0,0,0,2.05,1.43,13,13,0,0,1,3.342.538ZM89.032,248.334H86.972v-1.817a15.518,15.518,0,0,0,4.615-1.064c.025,1.037.059,2.2.1,3.465A6.332,6.332,0,0,0,89.032,248.334Zm86.44-19.893v13.421c0,1.663-.066,4.388-.183,7.843-.41,12.1-1.437,33.251-2.362,51.353-.462,9.053-.9,17.348-1.22,23.379-.16,3.016-.292,5.465-.384,7.161q-.017.321-.032.605H146.932l-8.451-85.564a2.172,2.172,0,0,0-2.783-1.892,2.245,2.245,0,0,0-.384-.077,2.2,2.2,0,0,0-2.4,1.971L124.486,332.2H100.1c-.323-5.977-1.306-24.3-2.238-43.084-.5-10.1-.988-20.328-1.348-28.83-.18-4.251-.33-8.071-.433-11.225s-.162-5.644-.162-7.2V228.3l4.794,1.494a27.814,27.814,0,0,0,25.014-4.345l4.935-3.719a6.145,6.145,0,0,1,7.4,0L143,225.453a27.815,27.815,0,0,0,25.014,4.344l7.459-2.324C175.471,227.762,175.471,228.08,175.471,228.441Z" transform="translate(-34.239 0)" fill="#3e485c"/>
          <path id="パス_3486" data-name="パス 3486" d="M284.653,430.519a2.2,2.2,0,0,0,2.2,2.2h10.564a2.2,2.2,0,0,0,0-4.393H286.848A2.2,2.2,0,0,0,284.653,430.519Z" transform="translate(-142.433 -214.322)" fill="#3e485c"/>
          <path id="パス_3487" data-name="パス 3487" d="M198.818,328.675a2.879,2.879,0,1,0-2.878-2.879A2.879,2.879,0,0,0,198.818,328.675Z" transform="translate(-98.044 -161.58)" fill="#3e485c"/>
          <path id="パス_3488" data-name="パス 3488" d="M198.818,370.366a2.879,2.879,0,1,0-2.878-2.879A2.879,2.879,0,0,0,198.818,370.366Z" transform="translate(-98.044 -182.441)" fill="#3e485c"/>
          <path id="パス_3494" data-name="パス 3494" d="M9,0c2.751,0,8.223,2.1,9,5s.967,5-9,5S-1.633,7.828,0,5,6.249,0,9,0Z" transform="translate(92.192 75.228)" fill="#3e485c"/>
        </g>
      </g>
      <path id="パス_3495" data-name="パス 3495" d="M-11457.622,609.4c12.407-1.258,5.435,8.6,5.435,8.6" transform="translate(-108 -88.651)" fill="none" stroke="#3e485c" stroke-linecap="round" stroke-width="4"/>
      <path id="パス_3500" data-name="パス 3500" d="M-11462,613.5c3.727-3.437,6.577-5.456,7.671-3.8s-1.385,3.058-1.385,3.058" transform="matrix(-0.588, 0.809, -0.809, -0.588, -17833.777, 10183.063)" fill="none" stroke="#b0bad5" stroke-linecap="round" stroke-width="2"/>
      <path id="パス_3501" data-name="パス 3501" d="M-11462,612.188c2.615-2.411,4.615-3.828,5.382-2.666s-.972,2.146-.972,2.146" transform="matrix(-0.588, 0.809, -0.809, -0.588, -17837.836, 10194.293)" fill="none" stroke="#b0bad5" stroke-linecap="round" stroke-width="2"/>
      <path id="パス_3496" data-name="パス 3496" d="M-11457.622,609.4c12.407-1.258,5.435,8.6,5.435,8.6" transform="translate(-117 -105.651)" fill="none" stroke="#3e485c" stroke-linecap="round" stroke-width="4"/>
      <path id="パス_3497" data-name="パス 3497" d="M-11457.622,609.4c12.407-1.258,5.435,8.6,5.435,8.6" transform="translate(-129 -122.651)" fill="none" stroke="#3e485c" stroke-linecap="round" stroke-width="4"/>
      <path id="パス_3498" data-name="パス 3498" d="M-11457.622,609.4c12.407-1.258,5.435,8.6,5.435,8.6" transform="translate(-111.693 -122.651)" fill="none" stroke="#3e485c" stroke-linecap="round" stroke-width="4"/>
      <path id="パス_3499" data-name="パス 3499" d="M-11457.622,609.4c12.407-1.258,5.435,8.6,5.435,8.6" transform="translate(-100.613 -106.651)" fill="none" stroke="#3e485c" stroke-linecap="round" stroke-width="4"/>
    </g>
  </g>
</svg>
