<svg xmlns="http://www.w3.org/2000/svg" xmlns:xlink="http://www.w3.org/1999/xlink" width="101.95" height="108" viewBox="0 0 101.95 108">
  <defs>
    <clipPath id="clip-path">
      <rect id="長方形_193" data-name="長方形 193" width="43.382" height="43.657" fill="#df7c8f"/>
    </clipPath>
    <clipPath id="clip-path-2">
      <rect id="長方形_195" data-name="長方形 195" width="80.121" height="80.146" fill="#e96f45"/>
    </clipPath>
  </defs>
  <g id="グループ_3139" data-name="グループ 3139" transform="translate(-1050.05 -684)">
    <g id="グループ_2699" data-name="グループ 2699" transform="translate(1093.707 748.618) rotate(90)">
      <g id="グループ_200" data-name="グループ 200" clip-path="url(#clip-path)">
        <path id="パス_825" data-name="パス 825" d="M58.989,21.819q0,10.468-.007,20.935c0,.274.161.67-.191.8a2.686,2.686,0,0,1-1.394.028c-.134-.025-.142-.185-.143-.311,0-.2,0-.4,0-.594q0-20.861.009-41.722c0-.289-.208-.72.185-.854a2.132,2.132,0,0,1,1.386.038c.253.091.153.391.154.6.007,1.732,0,3.463,0,5.2V21.819" transform="translate(-36.33 0)" fill="#df7c8f"/>
        <path id="パス_826" data-name="パス 826" d="M39.932,23.43q0,10.1,0,20.2c0,.819.008.78-.8.56a1.139,1.139,0,0,1-.99-1.323c.035-12.969.023-25.939.031-38.908,0-.3-.174-.707.165-.887a5.279,5.279,0,0,1,1.391-.492c.319-.065.2.277.2.435.012,1.435.007,2.87.007,4.306V23.43" transform="translate(-24.212 -1.631)" fill="#df7c8f"/>
        <path id="パス_827" data-name="パス 827" d="M76.46,44.479v-.737q0-20.039,0-40.078c0-.875-.017-.805.817-.59.793.2.93.639.929,1.384Q78.173,23.53,78.19,42.6c0,1.595,0,1.595-1.73,1.876" transform="translate(-48.558 -1.864)" fill="#df7c8f"/>
        <path id="パス_828" data-name="パス 828" d="M49.506,22.267q0,10.4-.014,20.794c0,.268.281.761-.275.806-.989.08-1.4-.209-1.4-.89q0-18.714,0-37.429c0-1.337-.007-2.673.005-4.01,0-.224-.134-.562.187-.644A5.156,5.156,0,0,1,49.4.718c.178,0,.1.344.1.532.006,1.659,0,3.317,0,4.976V22.267" transform="translate(-30.354 -0.455)" fill="#df7c8f"/>
        <path id="パス_829" data-name="パス 829" d="M66.82,22.236q0-10.324.015-20.646c0-.285-.3-.816.367-.839,1-.034,1.334.19,1.335.879q0,20.684,0,41.369c0,.225.128.561-.194.643a2.636,2.636,0,0,1-1.383.147c-.236-.071-.13-.444-.131-.684q-.008-5.607,0-11.214V22.236" transform="translate(-42.403 -0.475)" fill="#df7c8f"/>
        <path id="パス_830" data-name="パス 830" d="M30.519,25.865q0,9.393,0,18.786c0,.859.009.829-.769.493a1.4,1.4,0,0,1-.971-1.5q.051-17.858.023-35.717a1.787,1.787,0,0,1,1.455-1.547c.351-.022.254.242.255.407.011,1.014.007,2.029.007,3.043V25.865" transform="translate(-18.276 -4.049)" fill="#df7c8f"/>
        <path id="パス_831" data-name="パス 831" d="M85.9,26.11q0-9.318,0-18.635c0-.869,0-.825.774-.474a1.591,1.591,0,0,1,1,1.721q-.047,17.523-.021,35.046a1.812,1.812,0,0,1-1.475,1.707c-.2.035-.272-.021-.273-.209s0-.4,0-.594V26.11" transform="translate(-54.553 -4.297)" fill="#df7c8f"/>
        <path id="パス_832" data-name="パス 832" d="M20.776,46.954a2.89,2.89,0,0,1-1.726-2.731q.119-14.625,0-29.252a2.826,2.826,0,0,1,1.725-2.84Z" transform="translate(-12.098 -7.704)" fill="#df7c8f"/>
        <path id="パス_833" data-name="パス 833" d="M95.746,12.714a2.852,2.852,0,0,1,1.634,2.672q-.106,14.508,0,29.016a2.777,2.777,0,0,1-1.632,2.675Z" transform="translate(-60.806 -8.074)" fill="#df7c8f"/>
        <path id="パス_834" data-name="パス 834" d="M11.347,21.239V49.4c-.762-.874-1.736-1.529-1.727-2.908.045-7.346.067-14.692-.016-22.038-.018-1.5.9-2.284,1.744-3.213" transform="translate(-6.099 -13.488)" fill="#df7c8f"/>
        <path id="パス_835" data-name="パス 835" d="M104.987,49.638c-.1-1.374-.068-27.189.033-27.865.919,1.143,1.764,2.127,1.739,3.769-.1,6.777-.062,13.557-.022,20.335a3.588,3.588,0,0,1-.894,2.639c-.278.3-.5.654-.855,1.121" transform="translate(-66.636 -13.828)" fill="#df7c8f"/>
        <path id="パス_836" data-name="パス 836" d="M1.747,36.233V53.346c-2.164-3.435-2.487-12.522,0-17.113" transform="translate(0 -23.011)" fill="#df7c8f"/>
        <path id="パス_837" data-name="パス 837" d="M114.805,38.761a20.534,20.534,0,0,1,0,15.343Z" transform="translate(-72.91 -24.616)" fill="#df7c8f"/>
      </g>
    </g>
    <g id="グループ_2700" data-name="グループ 2700" transform="translate(1071.878 684)">
      <g id="グループ_204" data-name="グループ 204" clip-path="url(#clip-path-2)">
        <path id="パス_841" data-name="パス 841" d="M103.4,153.642c.524.151.937.4.916,1.035a.85.85,0,0,1-.892.915.92.92,0,0,1-1.007-.931c-.03-.565.414-.89.984-1.019" transform="translate(-53.542 -80.321)" fill="#e96f45"/>
        <path id="パス_842" data-name="パス 842" d="M22.45,41.923c-.109.542-.369.944-.987.953a.838.838,0,0,1-.92-.879.9.9,0,0,1,.882-1.03c.58-.045.9.384,1.026.955" transform="translate(-10.737 -21.415)" fill="#e96f45"/>
        <path id="パス_843" data-name="パス 843" d="M93.218,165.852c-.643-.013-1.012-.355-1.006-.935a.917.917,0,0,1,.981-.962.932.932,0,0,1,.926.921.861.861,0,0,1-.9.975" transform="translate(-48.207 -85.713)" fill="#e96f45"/>
        <path id="パス_844" data-name="パス 844" d="M154.5,81.976c.664.078,1.067.325,1.075.958a.89.89,0,0,1-.867.959.931.931,0,0,1-1.047-.9c-.063-.612.4-.862.838-1.021" transform="translate(-80.328 -42.856)" fill="#e96f45"/>
        <path id="パス_845" data-name="パス 845" d="M165.812,93.194c-.056.633-.36.993-.98.963a.955.955,0,0,1,.04-1.91.888.888,0,0,1,.94.948" transform="translate(-85.691 -48.225)" fill="#e96f45"/>
        <path id="パス_846" data-name="パス 846" d="M42.878,103.364c-.084.7-.418,1.023-1.029.986a.892.892,0,0,1-.908-.919.944.944,0,0,1,.975-.982,1.014,1.014,0,0,1,.963.915" transform="translate(-21.403 -53.559)" fill="#e96f45"/>
        <path id="パス_847" data-name="パス 847" d="M155.6,103.357c-.042.647-.342.995-.964,1a.9.9,0,0,1-.963-.864.934.934,0,0,1,.914-1.037.994.994,0,0,1,1.013.9" transform="translate(-80.333 -53.56)" fill="#e96f45"/>
        <path id="パス_848" data-name="パス 848" d="M144.466,114.612a.84.84,0,0,1-.993-.823.956.956,0,1,1,1.909-.082.847.847,0,0,1-.916.9" transform="translate(-75.003 -58.947)" fill="#e96f45"/>
        <path id="パス_849" data-name="パス 849" d="M31.44,114.6a.793.793,0,0,1-.693-.931.953.953,0,0,1,1.906.057c-.024.621-.418.907-1.212.874" transform="translate(-16.072 -58.944)" fill="#e96f45"/>
        <path id="パス_850" data-name="パス 850" d="M53.078,154.51c-.025.734-.282,1.123-.922,1.119a.957.957,0,0,1-.071-1.912.909.909,0,0,1,.993.793" transform="translate(-26.758 -80.359)" fill="#e96f45"/>
        <path id="パス_851" data-name="パス 851" d="M144.429,102.35c.517.182.979.446.953,1.049a.89.89,0,0,1-1.017.9.847.847,0,0,1-.891-.917c0-.6.419-.88.955-1.033" transform="translate(-75.006 -53.507)" fill="#e96f45"/>
        <path id="パス_852" data-name="パス 852" d="M83.936,103.452c-.129.548-.419.92-1.037.9a.838.838,0,0,1-.889-.911.911.911,0,0,1,.937-.993c.559-.005.895.417.989,1" transform="translate(-42.873 -53.559)" fill="#e96f45"/>
        <path id="パス_853" data-name="パス 853" d="M41.894,135.22c-.578-.122-1.007-.434-.955-1.037a.884.884,0,0,1,.981-.861.85.85,0,0,1,.925.988c-.031.584-.441.81-.951.91" transform="translate(-21.4 -69.698)" fill="#e96f45"/>
        <path id="パス_854" data-name="パス 854" d="M42.871,154.616c-.044.628-.326,1-.946,1.016a.915.915,0,0,1-.978-.954.926.926,0,0,1,.9-.953.96.96,0,0,1,1.023.891" transform="translate(-21.406 -80.363)" fill="#e96f45"/>
        <path id="パス_855" data-name="パス 855" d="M42.864,21.455a.921.921,0,0,1-.969.981.932.932,0,1,1,.021-1.862.876.876,0,0,1,.949.881" transform="translate(-21.403 -10.756)" fill="#e96f45"/>
        <path id="パス_856" data-name="パス 856" d="M53.068,21.444a.946.946,0,1,1-.908-.87.816.816,0,0,1,.908.87" transform="translate(-26.755 -10.756)" fill="#e96f45"/>
        <path id="パス_857" data-name="パス 857" d="M83.934,134.248c-.106.589-.439.978-1.037.944a.875.875,0,0,1-.889-.95.856.856,0,0,1,1-.918c.588.019.831.4.93.923" transform="translate(-42.873 -69.7)" fill="#e96f45"/>
        <path id="パス_858" data-name="パス 858" d="M114.558,93.258a.834.834,0,0,1-.945.9.91.91,0,0,1-.919-1.008.9.9,0,0,1,.932-.905c.6-.008.925.349.932,1.017" transform="translate(-58.914 -48.222)" fill="#e96f45"/>
        <path id="パス_859" data-name="パス 859" d="M103.4,92.147c.576.168.97.443.92,1.074a.856.856,0,0,1-.926.884.93.93,0,0,1-.972-.972c0-.561.451-.869.978-.985" transform="translate(-53.544 -48.173)" fill="#e96f45"/>
        <path id="パス_860" data-name="パス 860" d="M104.33,144.452a.9.9,0,0,1-.885.974.951.951,0,1,1-.021-1.9.877.877,0,0,1,.906.923" transform="translate(-53.543 -75.034)" fill="#e96f45"/>
        <path id="パス_861" data-name="パス 861" d="M53.076,93.2c-.041.591-.322.976-.949.95a.956.956,0,0,1-.007-1.912.884.884,0,0,1,.956.962" transform="translate(-26.759 -48.222)" fill="#e96f45"/>
        <path id="パス_862" data-name="パス 862" d="M1.854,93.289a.809.809,0,0,1-.848.867.958.958,0,1,1-.027-1.914c.552.013.875.361.875,1.047" transform="translate(-0.004 -48.222)" fill="#e96f45"/>
        <path id="パス_863" data-name="パス 863" d="M94.139,134.281a.956.956,0,0,1-1.036.907.935.935,0,1,1,.126-1.866.906.906,0,0,1,.91.959" transform="translate(-48.204 -69.697)" fill="#e96f45"/>
        <path id="パス_864" data-name="パス 864" d="M114.549,83.075a.839.839,0,0,1-.95.859.947.947,0,1,1,.175-1.884.83.83,0,0,1,.775,1.025" transform="translate(-58.911 -42.889)" fill="#e96f45"/>
        <path id="パス_865" data-name="パス 865" d="M83.021,165.846c-.675-.01-1.011-.328-1.013-.94a.908.908,0,0,1,.876-.961.927.927,0,0,1,1.019.923.882.882,0,0,1-.882.977" transform="translate(-42.872 -85.707)" fill="#e96f45"/>
        <path id="パス_866" data-name="パス 866" d="M103.368,83.963c-.569-.126-1.007-.448-.959-1.036a.916.916,0,0,1,.982-.879.856.856,0,0,1,.92.995c-.029.587-.425.818-.942.92" transform="translate(-53.536 -42.893)" fill="#e96f45"/>
        <path id="パス_867" data-name="パス 867" d="M53.069,82.949a.88.88,0,0,1-.945.991.906.906,0,0,1-.943-.92.9.9,0,0,1,.979-.967.827.827,0,0,1,.91.9" transform="translate(-26.756 -42.895)" fill="#e96f45"/>
        <path id="パス_868" data-name="パス 868" d="M21.429,83.963c-.569-.134-.945-.429-.89-1.063a.85.85,0,0,1,.968-.847.881.881,0,0,1,.91.93c0,.6-.4.909-.988.98" transform="translate(-10.735 -42.895)" fill="#e96f45"/>
        <path id="パス_869" data-name="パス 869" d="M93.214,71.831a.845.845,0,0,1,.907.943.956.956,0,0,1-1.91-.049.888.888,0,0,1,1-.894" transform="translate(-48.206 -37.552)" fill="#e96f45"/>
        <path id="パス_870" data-name="パス 870" d="M82.961,71.827a.926.926,0,1,1-.953.883.857.857,0,0,1,.953-.883" transform="translate(-42.872 -37.55)" fill="#e96f45"/>
        <path id="パス_871" data-name="パス 871" d="M94.134,144.515c-.114.551-.437.955-1.025.9a.916.916,0,0,1-.907-1.03.891.891,0,0,1,.958-.865.965.965,0,0,1,.974.991" transform="translate(-48.199 -75.032)" fill="#e96f45"/>
        <path id="パス_872" data-name="パス 872" d="M93.2,53.11a.865.865,0,0,1-.986-.848.955.955,0,1,1,1.906-.053.85.85,0,0,1-.921.9" transform="translate(-48.204 -26.783)" fill="#e96f45"/>
        <path id="パス_873" data-name="パス 873" d="M83.23,53.1c-.835.026-1.18-.261-1.222-.833a.951.951,0,1,1,1.9-.065.846.846,0,0,1-.675.9" transform="translate(-42.87 -26.781)" fill="#e96f45"/>
        <path id="パス_874" data-name="パス 874" d="M104.334,41.8c-.043.729-.341,1.079-.963,1.083a.921.921,0,0,1-.959-.884.938.938,0,0,1,.928-1.024.963.963,0,0,1,.993.826" transform="translate(-53.537 -21.417)" fill="#e96f45"/>
        <path id="パス_875" data-name="パス 875" d="M103.452,32.707a1.02,1.02,0,0,1-1.032-.957.922.922,0,0,1,.963-.979.854.854,0,0,1,.934.874.957.957,0,0,1-.865,1.062" transform="translate(-53.543 -16.086)" fill="#e96f45"/>
        <path id="パス_876" data-name="パス 876" d="M114.553,31.762c-.035.558-.314.925-.9.918a.91.91,0,0,1-.961-.995.893.893,0,0,1,1.031-.916.832.832,0,0,1,.827.994" transform="translate(-58.915 -16.083)" fill="#e96f45"/>
        <path id="パス_877" data-name="パス 877" d="M71.778,93.143a.885.885,0,0,1,.92-.9.869.869,0,0,1,.922,1.005.853.853,0,0,1-.912.912c-.639-.006-.909-.393-.93-1.014" transform="translate(-37.524 -48.221)" fill="#e96f45"/>
        <path id="パス_878" data-name="パス 878" d="M72.667,40.9a.956.956,0,0,1,.958.916.864.864,0,0,1-.884,1.029.829.829,0,0,1-.945-.866c-.063-.643.327-.921.87-1.079" transform="translate(-37.53 -21.381)" fill="#e96f45"/>
        <path id="パス_879" data-name="パス 879" d="M32.674,21.435a.958.958,0,0,1-.981,1,.89.89,0,0,1-.951-.9.858.858,0,0,1,.854-.966.947.947,0,0,1,1.077.865" transform="translate(-16.071 -10.751)" fill="#e96f45"/>
        <path id="パス_880" data-name="パス 880" d="M114.561,164.942a.8.8,0,0,1-.861.9.882.882,0,0,1-1-.926.934.934,0,1,1,1.864.029" transform="translate(-58.916 -85.708)" fill="#e96f45"/>
        <path id="パス_881" data-name="パス 881" d="M124.866,31.8a.915.915,0,1,1-.835-1.032c.565.035.841.412.835,1.032" transform="translate(-64.325 -16.084)" fill="#e96f45"/>
        <path id="パス_882" data-name="パス 882" d="M31.7,40.876c.53.157.967.442.95,1.036a.952.952,0,0,1-1.9,0c-.013-.593.4-.893.953-1.032" transform="translate(-16.072 -21.369)" fill="#e96f45"/>
        <path id="パス_883" data-name="パス 883" d="M40.855,41.985c.115-.567.424-1.011.993-1.006a.914.914,0,0,1,.956.972.858.858,0,0,1-.88.931c-.63.047-.88-.393-1.068-.9" transform="translate(-21.358 -21.423)" fill="#e96f45"/>
        <path id="パス_884" data-name="パス 884" d="M53.073,41.945c-.033.612-.332.958-.963.934a.912.912,0,0,1-.925-.911.923.923,0,0,1,.946-1,.9.9,0,0,1,.942.975" transform="translate(-26.758 -21.418)" fill="#e96f45"/>
        <path id="パス_885" data-name="パス 885" d="M103.4,165.854a.95.95,0,1,1,.914-.886c-.018.59-.358.846-.914.886" transform="translate(-53.54 -85.712)" fill="#e96f45"/>
        <path id="パス_886" data-name="パス 886" d="M114.561,154.671c-.023.6-.286.977-.928.958a.958.958,0,0,1-.028-1.914c.594-.021.926.342.955.956" transform="translate(-58.915 -80.359)" fill="#e96f45"/>
        <path id="パス_887" data-name="パス 887" d="M83.938,41.993c-.157.535-.446.926-1.063.887a.85.85,0,0,1-.863-.943.9.9,0,0,1,.958-.962c.564.011.887.434.968,1.018" transform="translate(-42.874 -21.421)" fill="#e96f45"/>
        <path id="パス_888" data-name="パス 888" d="M94.142,41.91c-.083.609-.387.975-1,.965a.9.9,0,0,1-.939-.888.925.925,0,0,1,.926-1.016c.576-.025.892.4,1.01.94" transform="translate(-48.203 -21.418)" fill="#e96f45"/>
        <path id="パス_889" data-name="パス 889" d="M82.986,1.862a.834.834,0,0,1-.975-.842A.884.884,0,0,1,82.926,0a.9.9,0,0,1,.983.961c0,.568-.368.856-.923.9" transform="translate(-42.872 0)" fill="#e96f45"/>
        <path id="パス_890" data-name="パス 890" d="M114.553,42.145a.79.79,0,0,1-.9.732.957.957,0,1,1,.034-1.913c.578.02.9.418.866,1.182" transform="translate(-58.919 -21.414)" fill="#e96f45"/>
        <path id="パス_891" data-name="パス 891" d="M83.936,154.687c-.128.543-.387.953-1.008.947a.86.86,0,0,1-.921-.89.9.9,0,0,1,.908-1.017c.583-.032.89.4,1.021.961" transform="translate(-42.871 -80.364)" fill="#e96f45"/>
        <path id="パス_892" data-name="パス 892" d="M133.232,41.951c.079-.667.432-1.022,1.006-.987a.959.959,0,0,1-.089,1.914c-.664,0-.845-.442-.917-.927" transform="translate(-69.651 -21.414)" fill="#e96f45"/>
        <path id="パス_893" data-name="パス 893" d="M145.417,41.93c-.117.568-.41.948-1.018.948a.864.864,0,0,1-.925-.891.914.914,0,0,1,.92-1.014c.571-.025.892.405,1.023.957" transform="translate(-75.005 -21.419)" fill="#e96f45"/>
        <path id="パス_894" data-name="パス 894" d="M93.159,1.864a.845.845,0,0,1-.952-.888.957.957,0,1,1,1.912.05.84.84,0,0,1-.96.838" transform="translate(-48.204 -0.006)" fill="#e96f45"/>
        <path id="パス_895" data-name="パス 895" d="M31.675,153.637c.55.134.973.425.972,1.014a.951.951,0,0,1-1.9.032c-.044-.6.4-.882.928-1.046" transform="translate(-16.072 -80.319)" fill="#e96f45"/>
        <path id="パス_896" data-name="パス 896" d="M114.556,144.468a.847.847,0,0,1-.864.964.9.9,0,0,1-1-.957.893.893,0,0,1,1-.947.819.819,0,0,1,.861.94" transform="translate(-58.915 -75.034)" fill="#e96f45"/>
        <path id="パス_897" data-name="パス 897" d="M21.386,53.11a.8.8,0,0,1-.842-.877.942.942,0,1,1,1.88,0c-.026.538-.364.878-1.038.879" transform="translate(-10.739 -26.782)" fill="#e96f45"/>
        <path id="パス_898" data-name="パス 898" d="M31.641,53.11a.835.835,0,0,1-.9-.886.953.953,0,1,1,1.9.025c-.029.557-.388.86-1.007.861" transform="translate(-16.073 -26.782)" fill="#e96f45"/>
        <path id="パス_899" data-name="パス 899" d="M41.813,53.111a.883.883,0,0,1-.876-.984.956.956,0,0,1,1.91.069c0,.636-.368.907-1.034.915" transform="translate(-21.4 -26.781)" fill="#e96f45"/>
        <path id="パス_900" data-name="パス 900" d="M82.945,145.461c-.541-.107-.92-.371-.939-.946a.88.88,0,0,1,.947-.98.892.892,0,0,1,.949.9c.022.6-.4.905-.957,1.023" transform="translate(-42.871 -75.037)" fill="#e96f45"/>
        <path id="パス_901" data-name="パス 901" d="M71.791,144.56c0-.685.335-1.031.936-1.033a.85.85,0,0,1,.9.922.872.872,0,0,1-.942.984.849.849,0,0,1-.9-.873" transform="translate(-37.531 -75.033)" fill="#e96f45"/>
        <path id="パス_902" data-name="パス 902" d="M53.071,144.5a.854.854,0,0,1-.929.932.919.919,0,0,1-.957-.984.909.909,0,0,1,1.014-.919.855.855,0,0,1,.872.971" transform="translate(-26.758 -75.032)" fill="#e96f45"/>
        <path id="パス_903" data-name="パス 903" d="M83.938,31.713c-.128.545-.4.98-1.006.963a.886.886,0,0,1-.922-.993.875.875,0,0,1,.9-.915c.6-.019.9.383,1.028.945" transform="translate(-42.873 -16.085)" fill="#e96f45"/>
        <path id="パス_904" data-name="パス 904" d="M71.771,31.855c.026-.71.326-1.091.944-1.09a.849.849,0,0,1,.9.925.926.926,0,0,1-1.845.166" transform="translate(-37.521 -16.083)" fill="#e96f45"/>
        <path id="パス_905" data-name="パス 905" d="M103.444,53.111a.9.9,0,0,1-1.036-.892.914.914,0,0,1,.955-.987.9.9,0,0,1,.951.969.825.825,0,0,1-.87.911" transform="translate(-53.536 -26.783)" fill="#e96f45"/>
        <path id="パス_906" data-name="パス 906" d="M114.559,52.18c-.016.561-.253.9-.863.921a.877.877,0,0,1-1-.922.9.9,0,0,1,.99-.96.871.871,0,0,1,.875.961" transform="translate(-58.914 -26.776)" fill="#e96f45"/>
        <path id="パス_907" data-name="パス 907" d="M42.862,144.557A.961.961,0,1,1,42,143.525a.92.92,0,0,1,.865,1.032" transform="translate(-21.404 -75.029)" fill="#e96f45"/>
        <path id="パス_908" data-name="パス 908" d="M21.444,145.456c-.584-.121-.946-.43-.9-1.058a.858.858,0,0,1,.953-.869.893.893,0,0,1,.923.926c.006.6-.393.915-.974,1" transform="translate(-10.737 -75.034)" fill="#e96f45"/>
        <path id="パス_909" data-name="パス 909" d="M144.634,53.109c-.792.005-1.136-.3-1.159-.867a.906.906,0,0,1,.946-1.01.92.92,0,0,1,.964,1,.84.84,0,0,1-.751.877" transform="translate(-75.006 -26.784)" fill="#e96f45"/>
        <path id="パス_910" data-name="パス 910" d="M154.616,53.105a.882.882,0,0,1-.937-.966.954.954,0,0,1,1.907.035c0,.628-.357.915-.97.931" transform="translate(-80.34 -26.775)" fill="#e96f45"/>
        <path id="パス_911" data-name="パス 911" d="M63.362,31.79a.835.835,0,0,1-.9.892.874.874,0,0,1-.926-1,.853.853,0,0,1,.911-.916c.62,0,.922.378.914,1.023" transform="translate(-32.171 -16.084)" fill="#e96f45"/>
        <path id="パス_912" data-name="パス 912" d="M145.411,134.275a.987.987,0,0,1-1.058.915.887.887,0,0,1-.88-.969.867.867,0,0,1,1.023-.9c.58.033.838.4.915.951" transform="translate(-75.004 -69.698)" fill="#e96f45"/>
        <path id="パス_913" data-name="パス 913" d="M114.552,134.1c.008.729-.317,1.091-.923,1.1a.935.935,0,1,1,.01-1.87.789.789,0,0,1,.913.775" transform="translate(-58.91 -69.701)" fill="#e96f45"/>
        <path id="パス_914" data-name="パス 914" d="M103.352,133.3c.583.034.943.283.965.88a.885.885,0,0,1-.931,1,.9.9,0,0,1-.97-.889.919.919,0,0,1,.936-.994" transform="translate(-53.541 -69.685)" fill="#e96f45"/>
        <path id="パス_915" data-name="パス 915" d="M53.071,134.173c0,.649-.331,1.014-.933,1.025a.935.935,0,1,1,0-1.87.82.82,0,0,1,.932.845" transform="translate(-26.756 -69.701)" fill="#e96f45"/>
        <path id="パス_916" data-name="パス 916" d="M32.676,134.2a.97.97,0,0,1-.977.992.89.89,0,0,1-.952-.9.856.856,0,0,1,.851-.969.941.941,0,0,1,1.079.875" transform="translate(-16.073 -69.696)" fill="#e96f45"/>
        <path id="パス_917" data-name="パス 917" d="M21.487,133.3a.94.94,0,1,1-.028,1.879.87.87,0,0,1-.916-1.006.858.858,0,0,1,.943-.872" transform="translate(-10.739 -69.688)" fill="#e96f45"/>
        <path id="パス_918" data-name="パス 918" d="M144.446,123.051c.631.058.979.395.937,1.007a.855.855,0,0,1-.995.82.827.827,0,0,1-.917-.891.881.881,0,0,1,.974-.937" transform="translate(-75.005 -64.329)" fill="#e96f45"/>
        <path id="パス_919" data-name="パス 919" d="M154.631,114.615a.859.859,0,0,1-.961-.869.9.9,0,0,1,.966-.985.889.889,0,0,1,.945.995c-.021.6-.384.849-.951.86" transform="translate(-80.336 -58.949)" fill="#e96f45"/>
        <path id="パス_920" data-name="パス 920" d="M103.6,114.61c-.817.023-1.186-.338-1.193-.917a.9.9,0,0,1,.926-.931.881.881,0,0,1,.979.95c.005.6-.319.875-.712.9" transform="translate(-53.538 -58.95)" fill="#e96f45"/>
        <path id="パス_921" data-name="パス 921" d="M93.155,114.613a.845.845,0,0,1-.948-.874.956.956,0,1,1,1.91.021.843.843,0,0,1-.962.853" transform="translate(-48.204 -58.948)" fill="#e96f45"/>
        <path id="パス_922" data-name="パス 922" d="M82.7,114.619c-.313.008-.659-.278-.69-.852a.95.95,0,1,1,1.9-.038c-.011.554-.356.875-1.208.89" transform="translate(-42.872 -58.948)" fill="#e96f45"/>
        <path id="パス_923" data-name="パス 923" d="M42.153,114.606c-.845.028-1.213-.321-1.22-.913a.958.958,0,0,1,1.915.02.8.8,0,0,1-.7.893" transform="translate(-21.399 -58.95)" fill="#e96f45"/>
        <path id="パス_924" data-name="パス 924" d="M21.19,114.608c-.342-.012-.644-.325-.643-.9a.939.939,0,1,1,1.879-.018c0,.6-.36.937-1.236.918" transform="translate(-10.742 -58.948)" fill="#e96f45"/>
        <path id="パス_925" data-name="パス 925" d="M165.8,103.39c-.017.6-.287.932-.867.965a.911.911,0,0,1-1.028-.9.922.922,0,0,1,.941-1,.908.908,0,0,1,.953.94" transform="translate(-85.686 -53.559)" fill="#e96f45"/>
        <path id="パス_926" data-name="パス 926" d="M144.443,63.382c-.616-.01-.965-.3-.97-.878a.956.956,0,1,1,1.912.04.843.843,0,0,1-.942.838" transform="translate(-75.005 -32.179)" fill="#e96f45"/>
        <path id="パス_927" data-name="パス 927" d="M134.221,104.364a.856.856,0,0,1-.944-.913.929.929,0,1,1,.944.913" transform="translate(-69.674 -53.557)" fill="#e96f45"/>
        <path id="パス_928" data-name="パス 928" d="M114.561,103.29c-.014.678-.255,1.029-.846,1.062a.9.9,0,0,1-1.022-.894.913.913,0,0,1,.919-1.014.882.882,0,0,1,.949.846" transform="translate(-58.912 -53.555)" fill="#e96f45"/>
        <path id="パス_929" data-name="パス 929" d="M93.205,104.367a.959.959,0,1,1-.007-1.917.948.948,0,0,1,.92.933c.038.617-.341.918-.913.984" transform="translate(-48.208 -53.559)" fill="#e96f45"/>
        <path id="パス_930" data-name="パス 930" d="M53.077,103.436c-.037.579-.309.911-.894.918a.906.906,0,0,1-.994-.931.923.923,0,0,1,.968-.976.914.914,0,0,1,.921.989" transform="translate(-26.76 -53.557)" fill="#e96f45"/>
        <path id="パス_931" data-name="パス 931" d="M31.668,102.355c.528.144.97.417.978,1.01a.872.872,0,0,1-.972.939.859.859,0,0,1-.933-.88c-.035-.6.382-.9.927-1.069" transform="translate(-16.07 -53.509)" fill="#e96f45"/>
        <path id="パス_932" data-name="パス 932" d="M32.679,72.687c-.068.636-.4,1-1,1a.869.869,0,0,1-.935-.9.848.848,0,0,1,.872-.943.933.933,0,0,1,1.061.848" transform="translate(-16.073 -37.555)" fill="#e96f45"/>
        <path id="パス_933" data-name="パス 933" d="M42.024,71.835a.825.825,0,0,1,.824.919.957.957,0,0,1-1.912,0c.02-.58.387-.934,1.089-.918" transform="translate(-21.4 -37.554)" fill="#e96f45"/>
        <path id="パス_934" data-name="パス 934" d="M22.449,103.472c-.135.533-.416.912-1.04.883a.829.829,0,0,1-.863-.929.9.9,0,0,1,.942-.976c.56,0,.9.42.962,1.023" transform="translate(-10.741 -53.559)" fill="#e96f45"/>
        <path id="パス_935" data-name="パス 935" d="M1.849,103.6a.777.777,0,0,1-.887.751.876.876,0,0,1-.956-.971.892.892,0,0,1,.914-.936c.578,0,.94.364.929,1.156" transform="translate(-0.003 -53.557)" fill="#e96f45"/>
        <path id="パス_936" data-name="パス 936" d="M154.777,94.2c-.711-.077-1.089-.44-1.1-.99a.915.915,0,0,1,.985-.954.9.9,0,0,1,.918.91,1.01,1.01,0,0,1-.806,1.035" transform="translate(-80.341 -48.227)" fill="#e96f45"/>
        <path id="パス_937" data-name="パス 937" d="M53.068,31.808a.86.86,0,0,1-.978.869.933.933,0,0,1-.91-1.033.913.913,0,0,1,.967-.878c.595.014.924.361.921,1.042" transform="translate(-26.755 -16.084)" fill="#e96f45"/>
        <path id="パス_938" data-name="パス 938" d="M41.929,30.678c.585.161.979.447.919,1.071a.881.881,0,0,1-.942.881.932.932,0,0,1-.961-.985c.01-.572.458-.861.984-.967" transform="translate(-21.406 -16.038)" fill="#e96f45"/>
        <path id="パス_939" data-name="パス 939" d="M82.957,94.183c-.593-.084-.953-.389-.949-1a.884.884,0,0,1,.886-.939.913.913,0,0,1,1.007.931.974.974,0,0,1-.943,1.006" transform="translate(-42.872 -48.224)" fill="#e96f45"/>
        <path id="パス_940" data-name="パス 940" d="M93.049,20.525c.637.046,1.031.287,1.068.869a.956.956,0,1,1-1.911.051.912.912,0,0,1,.842-.921" transform="translate(-48.204 -10.73)" fill="#e96f45"/>
        <path id="パス_941" data-name="パス 941" d="M42.875,93.154c-.059.6-.34,1-.953,1a.955.955,0,0,1-.064-1.908.946.946,0,0,1,1.017.906" transform="translate(-21.408 -48.224)" fill="#e96f45"/>
        <path id="パス_942" data-name="パス 942" d="M21.53,94.175c-.615-.052-.968-.344-.99-.959a.878.878,0,0,1,.84-.974.9.9,0,0,1,1.035.894.962.962,0,0,1-.885,1.038" transform="translate(-10.738 -48.219)" fill="#e96f45"/>
        <path id="パス_943" data-name="パス 943" d="M145.41,72.729a.949.949,0,0,1-1.005.956.867.867,0,0,1-.932-.9.843.843,0,0,1,.878-.939.933.933,0,0,1,1.059.887" transform="translate(-75.005 -37.556)" fill="#e96f45"/>
        <path id="パス_944" data-name="パス 944" d="M154.743,71.836a.826.826,0,0,1,.841.9.956.956,0,0,1-1.912.023c.011-.574.367-.941,1.07-.927" transform="translate(-80.337 -37.554)" fill="#e96f45"/>
        <path id="パス_945" data-name="パス 945" d="M114.555,21.457a.857.857,0,0,1-.927.987.934.934,0,1,1,.015-1.868.815.815,0,0,1,.911.881" transform="translate(-58.912 -10.757)" fill="#e96f45"/>
        <path id="パス_946" data-name="パス 946" d="M1.85,82.923c0,.676-.337,1.005-.884,1.018a.944.944,0,1,1,.042-1.885.789.789,0,0,1,.842.867" transform="translate(-0.002 -42.896)" fill="#e96f45"/>
        <path id="パス_947" data-name="パス 947" d="M144.424,83.966c-.568-.127-.987-.412-.952-1.035a.873.873,0,0,1,.953-.882.892.892,0,0,1,.957.889c.032.618-.41.894-.957,1.028" transform="translate(-75.004 -42.894)" fill="#e96f45"/>
        <path id="パス_948" data-name="パス 948" d="M93.112,81.971c.62.109,1.025.375,1,1a.9.9,0,0,1-.911.922.914.914,0,0,1-1-.936c-.018-.595.4-.879.907-.985" transform="translate(-48.203 -42.853)" fill="#e96f45"/>
        <path id="パス_949" data-name="パス 949" d="M31.67,82c.574.068.98.358.977.957A.953.953,0,0,1,30.741,83c-.028-.594.342-.914.928-1" transform="translate(-16.07 -42.867)" fill="#e96f45"/>
        <path id="パス_950" data-name="パス 950" d="M41.952,82c.526.1.9.355.9.948a.891.891,0,0,1-.981.956.905.905,0,0,1-.928-.935A.976.976,0,0,1,41.952,82" transform="translate(-21.402 -42.868)" fill="#e96f45"/>
        <path id="パス_951" data-name="パス 951" d="M22.451,31.751c-.145.54-.422.975-1.048.929a.957.957,0,0,1,.133-1.908c.551.033.834.428.915.979" transform="translate(-10.741 -16.086)" fill="#e96f45"/>
        <path id="パス_952" data-name="パス 952" d="M145.414,31.773c-.166.522-.454.956-1.059.9a.9.9,0,0,1-.879-1.045.88.88,0,0,1,.961-.862,1.009,1.009,0,0,1,.977,1" transform="translate(-75.004 -16.085)" fill="#e96f45"/>
        <path id="パス_953" data-name="パス 953" d="M52.133,165.858a.93.93,0,0,1-.95-.928.915.915,0,0,1,.984-.976.9.9,0,0,1,.9,1.04c-.03.605-.389.839-.931.864" transform="translate(-26.757 -85.712)" fill="#e96f45"/>
        <path id="パス_954" data-name="パス 954" d="M82.947,83.965c-.569-.121-.973-.4-.941-1.03a.861.861,0,0,1,.942-.884.891.891,0,0,1,.954.89c.032.61-.393.906-.955,1.024" transform="translate(-42.87 -42.894)" fill="#e96f45"/>
        <path id="パス_955" data-name="パス 955" d="M32.677,31.772c-.169.515-.441.968-1.053.9a.914.914,0,0,1-.882-1.045.893.893,0,0,1,.962-.863c.593.023.886.422.973,1.005" transform="translate(-16.068 -16.084)" fill="#e96f45"/>
        <path id="パス_956" data-name="パス 956" d="M93.16,30.7c.558.112.971.387.957,1a.951.951,0,0,1-1.9.016c-.041-.58.385-.89.944-1.015" transform="translate(-48.208 -16.049)" fill="#e96f45"/>
        <path id="パス_957" data-name="パス 957" d="M134.193,22.456a.9.9,0,0,1-.913-.861.85.85,0,0,1,.873-1.022.863.863,0,0,1,.982.931c.016.555-.325.879-.942.953" transform="translate(-69.674 -10.754)" fill="#e96f45"/>
        <path id="パス_958" data-name="パス 958" d="M123.026,82.988a.851.851,0,0,1,.889-.931.943.943,0,0,1,.06,1.885.864.864,0,0,1-.949-.953" transform="translate(-64.316 -42.897)" fill="#e96f45"/>
        <path id="パス_959" data-name="パス 959" d="M135.154,82.975c-.068.582-.362.958-.922.962a.865.865,0,0,1-.952-.965.846.846,0,0,1,.981-.921c.573.024.821.422.892.924" transform="translate(-69.677 -42.894)" fill="#e96f45"/>
        <path id="パス_960" data-name="パス 960" d="M93.2,155.655a.956.956,0,0,1-.978-.981.951.951,0,0,1,1.9-.014.934.934,0,0,1-.923.995" transform="translate(-48.209 -80.365)" fill="#e96f45"/>
        <path id="パス_961" data-name="パス 961" d="M71.779,154.72a.909.909,0,0,1,.947-1,.959.959,0,0,1-.045,1.915c-.594-.008-.855-.364-.9-.914" transform="translate(-37.525 -80.362)" fill="#e96f45"/>
        <path id="パス_962" data-name="パス 962" d="M165.8,83.159a.839.839,0,0,1-.908.774.944.944,0,1,1,.064-1.883c.554.044.865.377.844,1.109" transform="translate(-85.689 -42.892)" fill="#e96f45"/>
        <path id="パス_963" data-name="パス 963" d="M164.864,71.825c.561.025.911.267.934.869a.857.857,0,0,1-.925.984.867.867,0,0,1-.96-.874.894.894,0,0,1,.951-.979" transform="translate(-85.69 -37.549)" fill="#e96f45"/>
        <path id="パス_964" data-name="パス 964" d="M12.14,93.235c-.065.546-.309.928-.906.922a.96.96,0,0,1-.021-1.917c.62-.011.906.394.927,1" transform="translate(-5.391 -48.221)" fill="#e96f45"/>
        <path id="パス_965" data-name="パス 965" d="M134.236,71.832a.844.844,0,0,1,.9.918.854.854,0,0,1-.974.932.926.926,0,0,1,.076-1.85" transform="translate(-69.677 -37.553)" fill="#e96f45"/>
        <path id="パス_966" data-name="パス 966" d="M32.684,93.215c-.143.532-.4.973-1.018.94a.954.954,0,0,1,.006-1.908c.588-.01.89.4,1.012.968" transform="translate(-16.073 -48.225)" fill="#e96f45"/>
        <path id="パス_967" data-name="パス 967" d="M154.564,40.839c.567.169,1,.417,1.01,1.028a.855.855,0,0,1-.871.941.919.919,0,0,1-1.037-.894c-.062-.606.434-.859.9-1.074" transform="translate(-80.331 -21.35)" fill="#e96f45"/>
        <path id="パス_968" data-name="パス 968" d="M104.328,21.468a.9.9,0,0,1-.967.969.892.892,0,0,1-.947-.906.9.9,0,0,1,.986-.956.854.854,0,0,1,.928.894" transform="translate(-53.54 -10.756)" fill="#e96f45"/>
        <path id="パス_969" data-name="パス 969" d="M63.362,93.314a.811.811,0,0,1-.87.842.956.956,0,1,1,.028-1.913c.551.03.851.4.842,1.07" transform="translate(-32.172 -48.222)" fill="#e96f45"/>
        <path id="パス_970" data-name="パス 970" d="M114.555,72.747a.837.837,0,0,1-.867.941.925.925,0,1,1-.009-1.845.806.806,0,0,1,.876.9" transform="translate(-58.912 -37.557)" fill="#e96f45"/>
        <path id="パス_971" data-name="パス 971" d="M103.431,71.823a.839.839,0,0,1,.884.921.953.953,0,0,1-1.906.009.912.912,0,0,1,1.022-.929" transform="translate(-53.538 -37.548)" fill="#e96f45"/>
        <path id="パス_972" data-name="パス 972" d="M94.149,93.2c-.11.556-.381.973-1,.956a.954.954,0,0,1-.021-1.907c.587-.021.9.378,1.016.951" transform="translate(-48.208 -48.226)" fill="#e96f45"/>
        <path id="パス_973" data-name="パス 973" d="M83.931,21.467c-.086.606-.421.986-1.015.966A.873.873,0,0,1,82,21.51a.853.853,0,0,1,.88-.939c.625-.042.923.338,1.047.9" transform="translate(-42.87 -10.753)" fill="#e96f45"/>
        <path id="パス_974" data-name="パス 974" d="M144.437,145.46c-.553-.1-.934-.38-.965-.935a.89.89,0,0,1,.934-.992.881.881,0,0,1,.968.87c.025.589-.433.88-.936,1.057" transform="translate(-75.003 -75.036)" fill="#e96f45"/>
        <path id="パス_975" data-name="パス 975" d="M124.871,93.222c-.041.538-.285.922-.876.934a.85.85,0,0,1-.951-.961.861.861,0,0,1,.966-.953c.561.021.842.4.861.979" transform="translate(-64.325 -48.222)" fill="#e96f45"/>
        <path id="パス_976" data-name="パス 976" d="M135.158,93.224c-.129.552-.386.981-1.029.931a.859.859,0,0,1-.85-.973.871.871,0,0,1,.891-.941c.618-.023.9.406.988.983" transform="translate(-69.676 -48.222)" fill="#e96f45"/>
        <path id="パス_977" data-name="パス 977" d="M144.494,94.2c-.661-.11-1.034-.429-1.017-1.025a.894.894,0,0,1,.907-.925.926.926,0,0,1,1,.943c.016.6-.426.865-.888,1.006" transform="translate(-75.007 -48.228)" fill="#e96f45"/>
        <path id="パス_978" data-name="パス 978" d="M124.865,144.432c-.014.6-.29,1-.916,1a.844.844,0,0,1-.911-.9.861.861,0,0,1,.911-1,.852.852,0,0,1,.917.9" transform="translate(-64.321 -75.034)" fill="#e96f45"/>
        <path id="パス_979" data-name="パス 979" d="M53.072,52.178a.821.821,0,0,1-.864.923.892.892,0,0,1-1.025-.909.913.913,0,0,1,.986-.971.9.9,0,0,1,.9.957" transform="translate(-26.757 -26.777)" fill="#e96f45"/>
        <path id="パス_980" data-name="パス 980" d="M63.36,144.486a.842.842,0,0,1-.866.944.95.95,0,1,1,.017-1.9.831.831,0,0,1,.849.955" transform="translate(-32.17 -75.035)" fill="#e96f45"/>
        <path id="パス_981" data-name="パス 981" d="M32.681,144.437c-.1.579-.4.992-.991.984a.912.912,0,0,1-.945-.985.876.876,0,0,1,.9-.914c.6-.025.9.37,1.036.915" transform="translate(-16.072 -75.03)" fill="#e96f45"/>
        <path id="パス_982" data-name="パス 982" d="M134.1,53.109a.813.813,0,0,1-.816-.93.888.888,0,0,1,.976-.952.867.867,0,0,1,.878.955.886.886,0,0,1-1.037.926" transform="translate(-69.678 -26.781)" fill="#e96f45"/>
        <path id="パス_983" data-name="パス 983" d="M52.135,71.825c.555.028.909.263.928.869a.857.857,0,0,1-.925.984.871.871,0,0,1-.958-.875.9.9,0,0,1,.956-.978" transform="translate(-26.755 -37.549)" fill="#e96f45"/>
        <path id="パス_984" data-name="パス 984" d="M21.414,71.831a.883.883,0,0,1,1.008.95.94.94,0,0,1-1.879-.056.83.83,0,0,1,.871-.894" transform="translate(-10.74 -37.552)" fill="#e96f45"/>
        <path id="パス_985" data-name="パス 985" d="M21.436,20.518c.643.081.986.4.99.943a.879.879,0,0,1-.975.947.848.848,0,0,1-.9-.906c0-.631.446-.848.889-.984" transform="translate(-10.742 -10.726)" fill="#e96f45"/>
        <path id="パス_986" data-name="パス 986" d="M135.153,134.225c-.054.567-.338.951-.9.964a.863.863,0,0,1-.974-.938.832.832,0,0,1,.868-.932c.646-.034.908.354,1,.907" transform="translate(-69.678 -69.696)" fill="#e96f45"/>
        <path id="パス_987" data-name="パス 987" d="M31.693,63.384c-.6-.015-.956-.324-.948-.887a.955.955,0,0,1,1.909-.039c.011.633-.377.914-.961.926" transform="translate(-16.073 -32.18)" fill="#e96f45"/>
        <path id="パス_988" data-name="パス 988" d="M82.99,12.18c-.6-.031-.961-.3-.977-.878a.95.95,0,0,1,1.9-.09c.033.622-.356.919-.918.968" transform="translate(-42.874 -5.408)" fill="#e96f45"/>
        <path id="パス_989" data-name="パス 989" d="M93.229,124.9c-.632-.011-1.012-.3-1.02-.863a.956.956,0,1,1,1.912,0,.836.836,0,0,1-.892.864" transform="translate(-48.205 -64.343)" fill="#e96f45"/>
        <path id="パス_990" data-name="パス 990" d="M82.965,124.895a.836.836,0,0,1-.953-.853.847.847,0,0,1,.936-.969.863.863,0,0,1,.961.955c-.009.572-.387.845-.944.867" transform="translate(-42.874 -64.34)" fill="#e96f45"/>
        <path id="パス_991" data-name="パス 991" d="M104.327,103.409a.865.865,0,0,1-.887.947.913.913,0,0,1-1.028-.9.958.958,0,1,1,1.915-.044" transform="translate(-53.539 -53.561)" fill="#e96f45"/>
        <path id="パス_992" data-name="パス 992" d="M31.677,124.9c-.581-.029-.942-.331-.931-.894a.865.865,0,0,1,.985-.931.85.85,0,0,1,.925.9c.008.633-.385.91-.979.929" transform="translate(-16.073 -64.34)" fill="#e96f45"/>
        <path id="パス_993" data-name="パス 993" d="M93.18,10.33c.582.03.96.313.941.951a.959.959,0,0,1-1.909.026.882.882,0,0,1,.968-.977" transform="translate(-48.206 -5.4)" fill="#e96f45"/>
        <path id="パス_994" data-name="パス 994" d="M134.017,114.611c-.4,0-.715-.3-.736-.869a.876.876,0,0,1,.929-.988.849.849,0,0,1,.923.895c.013.59-.294.96-1.116.963" transform="translate(-69.676 -58.945)" fill="#e96f45"/>
        <path id="パス_995" data-name="パス 995" d="M53.07,113.824a.8.8,0,0,1-.924.786.875.875,0,0,1-.962-.959.889.889,0,0,1,.951-.9c.582.013.945.355.934,1.068" transform="translate(-26.758 -58.947)" fill="#e96f45"/>
        <path id="パス_996" data-name="パス 996" d="M21.438,124.892a.8.8,0,0,1-.89-.83.847.847,0,0,1,.9-.993.859.859,0,0,1,.975.934c0,.557-.345.868-.988.889" transform="translate(-10.741 -64.338)" fill="#e96f45"/>
        <path id="パス_997" data-name="パス 997" d="M134.19,63.38a.807.807,0,0,1-.906-.871.928.928,0,1,1,.906.871" transform="translate(-69.678 -32.177)" fill="#e96f45"/>
        <path id="パス_998" data-name="パス 998" d="M72.634,20.541c.661.028.977.357,1,.9a.92.92,0,1,1-1.838.088.876.876,0,0,1,.838-.99" transform="translate(-37.533 -10.738)" fill="#e96f45"/>
        <path id="パス_999" data-name="パス 999" d="M12.139,41.994a.839.839,0,0,1-.869.885c-.65.021-.942-.343-.955-.953a.863.863,0,0,1,.957-.962c.553.011.853.4.867,1.029" transform="translate(-5.392 -21.415)" fill="#e96f45"/>
        <path id="パス_1000" data-name="パス 1000" d="M63.362,42.019a.813.813,0,0,1-.871.859.957.957,0,0,1-.073-1.911c.595-.02.939.351.944,1.053" transform="translate(-32.17 -21.416)" fill="#e96f45"/>
        <path id="パス_1001" data-name="パス 1001" d="M103.466,10.333a.825.825,0,0,1,.851.89c.01.649-.362.933-.962.937a.854.854,0,0,1-.943-.883c0-.572.359-.943,1.054-.944" transform="translate(-53.539 -5.402)" fill="#e96f45"/>
        <path id="パス_1002" data-name="パス 1002" d="M134.139,145.451a.935.935,0,0,1-.862-1.065.842.842,0,0,1,.953-.859.886.886,0,0,1,.9,1.033.939.939,0,0,1-.989.89" transform="translate(-69.673 -75.033)" fill="#e96f45"/>
        <path id="パス_1003" data-name="パス 1003" d="M12.126,52.309a.779.779,0,0,1-.823.791.835.835,0,0,1-1-.883.879.879,0,0,1,.927-.994c.527-.013.884.329.894,1.086" transform="translate(-5.386 -26.778)" fill="#e96f45"/>
        <path id="パス_1004" data-name="パス 1004" d="M62.486,114.612a.824.824,0,0,1-.953-.859.866.866,0,0,1,.935-1,.838.838,0,0,1,.89.936.806.806,0,0,1-.872.92" transform="translate(-32.167 -58.947)" fill="#e96f45"/>
        <path id="パス_1005" data-name="パス 1005" d="M1.222,53.1c-.88.019-1.2-.346-1.214-.933a.877.877,0,0,1,.9-.942.868.868,0,0,1,.946.971c0,.59-.3.873-.631.9" transform="translate(-0.004 -26.781)" fill="#e96f45"/>
        <path id="パス_1006" data-name="パス 1006" d="M103.47,63.383c-.7,0-1.078-.35-1.058-.941a.879.879,0,0,1,.952-.89.861.861,0,0,1,.953.959.8.8,0,0,1-.846.871" transform="translate(-53.539 -32.179)" fill="#e96f45"/>
        <path id="パス_1007" data-name="パス 1007" d="M93.168,63.385c-.628-.021-.979-.344-.963-.9a.878.878,0,0,1,1-.927.861.861,0,0,1,.914.914c0,.649-.4.9-.951.913" transform="translate(-48.203 -32.18)" fill="#e96f45"/>
        <path id="パス_1008" data-name="パス 1008" d="M83.155,63.375c-.754.015-1.116-.252-1.143-.832a.949.949,0,1,1,1.9-.045.808.808,0,0,1-.754.877" transform="translate(-42.874 -32.177)" fill="#e96f45"/>
        <path id="パス_1009" data-name="パス 1009" d="M114,114.6c-.926.051-1.288-.3-1.309-.881a.879.879,0,0,1,.885-.952.857.857,0,0,1,.98.924c.02.592-.286.871-.555.909" transform="translate(-58.91 -58.95)" fill="#e96f45"/>
        <path id="パス_1010" data-name="パス 1010" d="M41.882,10.326c.6.028.977.3.964.945a.843.843,0,0,1-.923.888.865.865,0,0,1-.988-.839.9.9,0,0,1,.947-.993" transform="translate(-21.399 -5.398)" fill="#e96f45"/>
        <path id="パス_1011" data-name="パス 1011" d="M154.779,63.384c-.712.011-1.089-.293-1.108-.844a.956.956,0,1,1,1.912-.022.8.8,0,0,1-.8.866" transform="translate(-80.336 -32.184)" fill="#e96f45"/>
        <path id="パス_1012" data-name="パス 1012" d="M124.867,103.461a.914.914,0,1,1-1.828-.05.877.877,0,0,1,.868-.965c.59-.035.935.348.961,1.015" transform="translate(-64.322 -53.556)" fill="#e96f45"/>
        <path id="パス_1013" data-name="パス 1013" d="M63.356,21.662a.793.793,0,0,1-.884.78.932.932,0,1,1,.052-1.862c.571.03.847.376.831,1.082" transform="translate(-32.167 -10.758)" fill="#e96f45"/>
        <path id="パス_1014" data-name="パス 1014" d="M72.93,1.861c-.8,0-1.109-.3-1.132-.873a.922.922,0,1,1,1.838,0c-.023.554-.33.884-.706.869" transform="translate(-37.534 -0.001)" fill="#e96f45"/>
        <path id="パス_1015" data-name="パス 1015" d="M73.007,165.833c-.851.028-1.16-.269-1.212-.842a.923.923,0,1,1,1.836-.075c0,.548-.292.9-.624.917" transform="translate(-37.53 -85.706)" fill="#e96f45"/>
        <path id="パス_1016" data-name="パス 1016" d="M63.362,164.985a.811.811,0,0,1-.923.855.841.841,0,0,1-.9-1,.867.867,0,0,1,.932-.895.877.877,0,0,1,.891,1.036" transform="translate(-32.17 -85.709)" fill="#e96f45"/>
        <path id="パス_1017" data-name="パス 1017" d="M63.357,52.359a.767.767,0,0,1-.87.747.84.84,0,0,1-.952-.938.862.862,0,0,1,.887-.939c.579-.014.946.337.936,1.13" transform="translate(-32.169 -26.781)" fill="#e96f45"/>
        <path id="パス_1018" data-name="パス 1018" d="M165.1,63.366c-.82.039-1.194-.316-1.2-.889a.884.884,0,0,1,.9-.931c.649-.039.921.353.972.934a.725.725,0,0,1-.671.885" transform="translate(-85.685 -32.174)" fill="#e96f45"/>
        <path id="パス_1019" data-name="パス 1019" d="M42,124.9c-.678-.01-1.082-.315-1.066-.924a.871.871,0,0,1,.937-.9.855.855,0,0,1,.978.932A.83.83,0,0,1,42,124.9" transform="translate(-21.399 -64.341)" fill="#e96f45"/>
        <path id="パス_1020" data-name="パス 1020" d="M52.229,124.9c-.693,0-1.07-.348-1.048-.939a.852.852,0,0,1,.932-.886.842.842,0,0,1,.951.941.8.8,0,0,1-.834.884" transform="translate(-26.756 -64.339)" fill="#e96f45"/>
        <path id="パス_1021" data-name="パス 1021" d="M71.773,83.014c.053-.686.412-1,1.012-.962a.948.948,0,0,1-.074,1.888.88.88,0,0,1-.938-.927" transform="translate(-37.522 -42.894)" fill="#e96f45"/>
        <path id="パス_1022" data-name="パス 1022" d="M63.359,83.041a.913.913,0,1,1-1.826-.048.86.86,0,0,1,.973-.935c.563.018.86.363.853.984" transform="translate(-32.168 -42.898)" fill="#e96f45"/>
        <path id="パス_1023" data-name="パス 1023" d="M124.111,53.106c-.716.007-1.036-.275-1.076-.851a.878.878,0,0,1,.89-1.028.855.855,0,0,1,.931.977c-.014.562-.292.892-.746.9" transform="translate(-64.319 -26.78)" fill="#e96f45"/>
        <path id="パス_1024" data-name="パス 1024" d="M124.869,154.725c-.045.518-.28.9-.88.906a.851.851,0,0,1-.948-.963.863.863,0,0,1,.879-.952c.606-.023.927.364.949,1.008" transform="translate(-64.324 -80.36)" fill="#e96f45"/>
        <path id="パス_1025" data-name="パス 1025" d="M103.516,124.895c-.723,0-1.1-.324-1.1-.863a.881.881,0,0,1,.974-.956.843.843,0,0,1,.93.97.792.792,0,0,1-.8.849" transform="translate(-53.54 -64.342)" fill="#e96f45"/>
        <path id="パス_1026" data-name="パス 1026" d="M114.546,123.695c.03.831-.242,1.158-.826,1.193a.915.915,0,1,1-.073-1.822c.581.008.859.325.9.63" transform="translate(-58.914 -64.336)" fill="#e96f45"/>
        <path id="パス_1027" data-name="パス 1027" d="M134.16,32.7a.933.933,0,0,1-.881-1.054.858.858,0,0,1,.939-.886.877.877,0,0,1,.911.933.954.954,0,0,1-.969,1.007" transform="translate(-69.674 -16.083)" fill="#e96f45"/>
        <path id="パス_1028" data-name="パス 1028" d="M134,124.886a.781.781,0,0,1-.717-.911.829.829,0,0,1,.911-.9.85.85,0,0,1,.943.975c-.019.576-.384.862-1.138.841" transform="translate(-69.677 -64.339)" fill="#e96f45"/>
        <path id="パス_1029" data-name="パス 1029" d="M10.3,82.89a.833.833,0,0,1,.921-.835.946.946,0,0,1-.01,1.89c-.607-.013-.919-.385-.911-1.055" transform="translate(-5.387 -42.897)" fill="#e96f45"/>
        <path id="パス_1030" data-name="パス 1030" d="M154.7,124.9c-.643-.009-1.023-.308-1.032-.864a.863.863,0,0,1,.962-.957c.608.014.973.314.952.96a.828.828,0,0,1-.881.861" transform="translate(-80.336 -64.343)" fill="#e96f45"/>
        <path id="パス_1031" data-name="パス 1031" d="M71.784,103.539c.018-.781.415-1.111.981-1.091a.877.877,0,0,1,.863.98.862.862,0,0,1-.988.929.831.831,0,0,1-.857-.817" transform="translate(-37.527 -53.557)" fill="#e96f45"/>
        <path id="パス_1032" data-name="パス 1032" d="M10.291,134.2a.847.847,0,0,1,.969-.875.816.816,0,0,1,.858.927.83.83,0,0,1-.858.942c-.586.013-.955-.306-.969-.994" transform="translate(-5.38 -69.7)" fill="#e96f45"/>
        <path id="パス_1033" data-name="パス 1033" d="M52.171,63.385c-.637-.012-1.008-.353-.99-.946a.942.942,0,0,1,1.882.071c0,.61-.343.854-.892.875" transform="translate(-26.756 -32.18)" fill="#e96f45"/>
        <path id="パス_1034" data-name="パス 1034" d="M41.983,63.385c-.673,0-1.06-.321-1.048-.926a.958.958,0,0,1,1.914.04c.006.611-.368.842-.865.886" transform="translate(-21.4 -32.18)" fill="#e96f45"/>
        <path id="パス_1035" data-name="パス 1035" d="M124.866,42.027a.82.82,0,0,1-.847.85.845.845,0,0,1-.976-.931.872.872,0,0,1,.943-.98c.542,0,.868.37.88,1.06" transform="translate(-64.324 -21.417)" fill="#e96f45"/>
        <path id="パス_1036" data-name="パス 1036" d="M63.357,103.619a.783.783,0,0,1-.9.733.854.854,0,0,1-.922-.987.872.872,0,0,1,.913-.922c.583,0,.927.388.906,1.176" transform="translate(-32.171 -53.555)" fill="#e96f45"/>
        <path id="パス_1037" data-name="パス 1037" d="M63.348,133.979c.037.848-.293,1.211-.892,1.216a.841.841,0,0,1-.921-.891.85.85,0,0,1,.915-.982.777.777,0,0,1,.9.657" transform="translate(-32.169 -69.698)" fill="#e96f45"/>
        <path id="パス_1038" data-name="パス 1038" d="M71.786,134.167a.851.851,0,0,1,1.006-.844.938.938,0,0,1-.073,1.87.887.887,0,0,1-.933-1.026" transform="translate(-37.528 -69.697)" fill="#e96f45"/>
        <path id="パス_1039" data-name="パス 1039" d="M124.86,21.383c-.01.726-.34,1.061-.9,1.058a.851.851,0,0,1-.924-1,.835.835,0,0,1,.95-.868.8.8,0,0,1,.875.806" transform="translate(-64.32 -10.757)" fill="#e96f45"/>
        <path id="パス_1040" data-name="パス 1040" d="M63.363,72.7a.831.831,0,0,1-.84.981.841.841,0,0,1-.988-.924.826.826,0,0,1,.9-.917.817.817,0,0,1,.933.86" transform="translate(-32.169 -37.558)" fill="#e96f45"/>
        <path id="パス_1041" data-name="パス 1041" d="M21.461,63.38c-.6-.022-.919-.321-.913-.9a.94.94,0,1,1,.913.9" transform="translate(-10.742 -32.175)" fill="#e96f45"/>
        <path id="パス_1042" data-name="パス 1042" d="M63.365,154.774a.819.819,0,0,1-.9.856.959.959,0,0,1-.01-1.916c.6,0,.917.394.911,1.059" transform="translate(-32.172 -80.36)" fill="#e96f45"/>
        <path id="パス_1043" data-name="パス 1043" d="M124.861,134.113c.017.707-.3,1.082-.9,1.083a.936.936,0,0,1-.01-1.871.8.8,0,0,1,.913.788" transform="translate(-64.323 -69.7)" fill="#e96f45"/>
        <path id="パス_1044" data-name="パス 1044" d="M12.138,103.5a.834.834,0,0,1-.912.848c-.655,0-.912-.384-.914-.99a.861.861,0,0,1,.907-.921c.6-.013.915.4.92,1.063" transform="translate(-5.391 -53.555)" fill="#e96f45"/>
        <path id="パス_1045" data-name="パス 1045" d="M103.5.12a.842.842,0,0,1,.817.97c-.04.6-.4.834-.958.824a.857.857,0,0,1-.943-.964c.032-.52.378-.87,1.083-.83" transform="translate(-53.541 -0.061)" fill="#e96f45"/>
        <path id="パス_1046" data-name="パス 1046" d="M124.859,72.646c-.008.742-.353,1.053-.912,1.042a.845.845,0,0,1-.908-1.006.821.821,0,0,1,.963-.838.781.781,0,0,1,.858.8" transform="translate(-64.321 -37.559)" fill="#e96f45"/>
        <path id="パス_1047" data-name="パス 1047" d="M11.156,71.824c.7.024.963.369.967.936a.815.815,0,0,1-.892.918.848.848,0,0,1-.928-.987.822.822,0,0,1,.853-.867" transform="translate(-5.385 -37.548)" fill="#e96f45"/>
        <path id="パス_1048" data-name="パス 1048" d="M52.061,10.322c.606.02.968.246,1,.847a.838.838,0,0,1-.9.989.858.858,0,0,1-.977-.84.889.889,0,0,1,.879-1" transform="translate(-26.756 -5.396)" fill="#e96f45"/>
        <path id="パス_1049" data-name="パス 1049" d="M1.021,71.834a.8.8,0,0,1,.833.89.84.84,0,0,1-.933.959.841.841,0,0,1-.911-.9.88.88,0,0,1,1.012-.949" transform="translate(-0.005 -37.554)" fill="#e96f45"/>
        <path id="パス_1050" data-name="パス 1050" d="M72.7,53.107a.824.824,0,0,1-.9-.889.881.881,0,0,1,.93-.993.865.865,0,0,1,.9,1.011.832.832,0,0,1-.933.871" transform="translate(-37.534 -26.78)" fill="#e96f45"/>
        <path id="パス_1051" data-name="パス 1051" d="M114.554,11.262a.819.819,0,0,1-.886.9.857.857,0,0,1-.98-.926.87.87,0,0,1,1.01-.9.811.811,0,0,1,.856.922" transform="translate(-58.911 -5.404)" fill="#e96f45"/>
        <path id="パス_1052" data-name="パス 1052" d="M72.88,114.611c-.744,0-1.054-.288-1.083-.863a.871.871,0,0,1,.916-.995.833.833,0,0,1,.916.89c.014.6-.277.959-.749.969" transform="translate(-37.533 -58.945)" fill="#e96f45"/>
        <path id="パス_1053" data-name="パス 1053" d="M63.362,1a.808.808,0,0,1-.935.855.816.816,0,0,1-.89-.915.858.858,0,0,1,.991-.934A.849.849,0,0,1,63.362,1" transform="translate(-32.17 -0.003)" fill="#e96f45"/>
        <path id="パス_1054" data-name="パス 1054" d="M114.561,62.448c-.012.646-.324.93-.9.931a.857.857,0,0,1-.965-.941.934.934,0,0,1,1.866.01" transform="translate(-58.915 -32.177)" fill="#e96f45"/>
        <path id="パス_1055" data-name="パス 1055" d="M72.754,124.892c-.555-.009-.931-.237-.951-.843a.919.919,0,1,1,1.836-.078.81.81,0,0,1-.885.922" transform="translate(-37.537 -64.338)" fill="#e96f45"/>
        <path id="パス_1056" data-name="パス 1056" d="M72.676,63.38a.815.815,0,0,1-.877-.92.826.826,0,0,1,.9-.911.845.845,0,0,1,.932.981.815.815,0,0,1-.958.85" transform="translate(-37.536 -32.176)" fill="#e96f45"/>
        <path id="パス_1057" data-name="パス 1057" d="M124.855,113.9c-.039.427-.327.733-.929.719a.807.807,0,0,1-.886-.91.854.854,0,0,1,.984-.939c.561.025.86.4.831,1.13" transform="translate(-64.323 -58.952)" fill="#e96f45"/>
        <path id="パス_1058" data-name="パス 1058" d="M72.7,71.832a.925.925,0,0,1,.082,1.846.845.845,0,0,1-.98-.933.834.834,0,0,1,.9-.913" transform="translate(-37.536 -37.552)" fill="#e96f45"/>
        <path id="パス_1059" data-name="パス 1059" d="M.936,114.613a.843.843,0,0,1-.934-.88.878.878,0,0,1,.946-.98.861.861,0,0,1,.9,1.005.8.8,0,0,1-.913.855" transform="translate(0 -58.945)" fill="#e96f45"/>
        <path id="パス_1060" data-name="パス 1060" d="M63.362,11.231c-.017.665-.358.942-.926.935a.818.818,0,0,1-.9-.908.837.837,0,0,1,.985-.915.792.792,0,0,1,.84.888" transform="translate(-32.17 -5.406)" fill="#e96f45"/>
        <path id="パス_1061" data-name="パス 1061" d="M1.851,62.517a.8.8,0,0,1-.932.856.828.828,0,0,1-.915-.9.864.864,0,0,1,1-.925.837.837,0,0,1,.843.972" transform="translate(-0.002 -32.173)" fill="#e96f45"/>
        <path id="パス_1062" data-name="パス 1062" d="M10.965,63.375c-.323-.012-.653-.29-.659-.882a.833.833,0,0,1,.96-.941.828.828,0,0,1,.863.947c-.009.58-.318.89-1.164.876" transform="translate(-5.388 -32.178)" fill="#e96f45"/>
        <path id="パス_1063" data-name="パス 1063" d="M72.485,10.351c.775-.028,1.109.266,1.142.841a.809.809,0,0,1-.821.974c-.6.029-1-.232-1.008-.889a.812.812,0,0,1,.687-.926" transform="translate(-37.535 -5.41)" fill="#e96f45"/>
        <path id="パス_1064" data-name="パス 1064" d="M12.126,113.734a.817.817,0,0,1-.913.88.815.815,0,0,1-.907-.894.86.86,0,0,1,.969-.958.829.829,0,0,1,.851.972" transform="translate(-5.387 -58.95)" fill="#e96f45"/>
        <path id="パス_1065" data-name="パス 1065" d="M123.037,11.128a.807.807,0,0,1,.928-.785c.659.007.917.39.888,1a.8.8,0,0,1-.968.822c-.582-.031-.862-.37-.848-1.036" transform="translate(-64.322 -5.407)" fill="#e96f45"/>
        <path id="パス_1066" data-name="パス 1066" d="M123.925,124.893a.814.814,0,0,1-.888-.907.837.837,0,0,1,.983-.913.912.912,0,0,1-.094,1.82" transform="translate(-64.321 -64.339)" fill="#e96f45"/>
        <path id="パス_1067" data-name="パス 1067" d="M63.364,123.892c-.014.717-.345,1-.916,1a.81.81,0,0,1-.912-.887.845.845,0,0,1,.971-.933.8.8,0,0,1,.857.823" transform="translate(-32.17 -64.338)" fill="#e96f45"/>
        <path id="パス_1068" data-name="パス 1068" d="M12.133,123.92c-.016.674-.325.98-.908.973a.814.814,0,0,1-.919-.879.833.833,0,0,1,.954-.942.812.812,0,0,1,.872.848" transform="translate(-5.388 -64.34)" fill="#e96f45"/>
        <path id="パス_1069" data-name="パス 1069" d="M123.758,63.374c-.423-.016-.724-.321-.722-.9a.911.911,0,1,1,1.82.052c-.017.588-.354.866-1.1.852" transform="translate(-64.321 -32.176)" fill="#e96f45"/>
        <path id="パス_1070" data-name="パス 1070" d="M62.724,63.37c-.813.021-1.162-.259-1.184-.839a.847.847,0,0,1,.926-.984.823.823,0,0,1,.9.911c.005.582-.277.9-.638.911" transform="translate(-32.171 -32.176)" fill="#e96f45"/>
        <path id="パス_1071" data-name="パス 1071" d="M12.21,31.774a.867.867,0,0,1-.921.921.755.755,0,0,1-.832-.641c-.054-.312.779-1.279,1.048-1.27.339.013.692.47.7.991" transform="translate(-5.466 -16.093)" fill="#e96f45"/>
        <path id="パス_1072" data-name="パス 1072" d="M134.161,153.648c.5.087.955.315.9.829-.063.594-.656.893-1.151,1.007-.406.094-.621-.351-.641-.781-.029-.634.363-.9.89-1.056" transform="translate(-69.671 -80.325)" fill="#e96f45"/>
        <path id="パス_1073" data-name="パス 1073" d="M154.152,135.045c-.348-.237-.6-.519-.511-.9a.927.927,0,0,1,1.012-.827c.225.015.554.026.45.329a2.859,2.859,0,0,1-.952,1.4" transform="translate(-80.312 -69.695)" fill="#e96f45"/>
        <path id="パス_1074" data-name="パス 1074" d="M32.92,11.731a.9.9,0,0,1-.959.847c-.323,0-.81-.07-.726-.429.141-.609.793-.817,1.32-1,.309-.108.341.287.365.582" transform="translate(-16.324 -5.819)" fill="#e96f45"/>
        <path id="パス_1075" data-name="パス 1075" d="M164.612,114.612c-.521-.252-.806-.572-.687-1.091a.909.909,0,0,1,.692-.725c.429-.109.661,0,.518.465s-.341.888-.523,1.352" transform="translate(-85.683 -58.947)" fill="#e96f45"/>
        <path id="パス_1076" data-name="パス 1076" d="M52.353,2.506c-.39-.028-.891-.152-.778-.522.175-.574.888-.507,1.372-.706.408-.168.3.207.305.379.005.606-.358.841-.9.848" transform="translate(-26.954 -0.646)" fill="#e96f45"/>
        <path id="パス_1077" data-name="パス 1077" d="M42.221,163.882c.443.17.869.38.885.964.005.177,0,.479-.273.359-.506-.219-1.193-.261-1.39-.855-.069-.208.417-.419.778-.469" transform="translate(-21.662 -85.675)" fill="#e96f45"/>
        <path id="パス_1078" data-name="パス 1078" d="M2.545,124.007c.007.313-.115.758-.368.673-.545-.183-.6-.827-.814-1.3-.127-.286.143-.3.328-.3.6.012.835.378.854.93" transform="translate(-0.695 -64.343)" fill="#e96f45"/>
        <path id="パス_1079" data-name="パス 1079" d="M143.509,22.021a3.251,3.251,0,0,1,1.119,1.037c-.857.07-.983-.043-1.119-1.037" transform="translate(-75.024 -11.512)" fill="#e96f45"/>
      </g>
    </g>
  </g>
</svg>
