<svg xmlns="http://www.w3.org/2000/svg" width="280" height="200" viewBox="0 0 280 200">
  <g id="グループ_2676" data-name="グループ 2676" transform="translate(-145 -883)">
    <rect id="長方形_372" data-name="長方形 372" width="280" height="200" transform="translate(145 883)" fill="none"/>
    <g id="グループ_2675" data-name="グループ 2675" transform="translate(12 3)">
      <g id="グループ_2672" data-name="グループ 2672" transform="translate(8669.209 4626.99)">
        <path id="パス_2932" data-name="パス 2932" d="M567.173,647.289h1.245c-.436.492-.856.963-1.245,1.407Z" transform="translate(-8912.423 -4216.16)" fill="#0dac67"/>
        <path id="パス_2933" data-name="パス 2933" d="M325.353,364.567v56.587H248.212V360.793c0-.476,2.811-3.211,8-6.1,1.34-.749,2.839-1.506,4.492-2.236.286-.127.575-.254.868-.377.527-.226,1.071-.444,1.626-.658.523-.206,1.055-.408,1.606-.6q1.059-.374,2.185-.734.684-.214,1.392-.416a63.527,63.527,0,0,1,17.656-2.462,87.606,87.606,0,0,1,19.068,2.042q.8.178,1.566.369,1.112.268,2.153.559c.4.111.8.222,1.182.337.559.163,1.1.325,1.625.5l.024.008A51.3,51.3,0,0,1,323.121,356l.5,1.935.745,2.862Z" transform="translate(-8668.132 -3990.025)" fill="#768fa5"/>
        <path id="パス_2934" data-name="パス 2934" d="M298.843,338.976a10.877,10.877,0,0,1,0,2.987c-.262.848,22.1,29.863,22.1,29.863s2.388,1.86,4.089,1.671,3.985-3.092,3.985-3.092l23.527-31.721L341,334.347h0a30.6,30.6,0,0,0-32.262-.529Z" transform="translate(-8706.855 -3976.854)" fill="#fff"/>
        <path id="パス_2935" data-name="パス 2935" d="M554.892,424.242l-8.18,8.976H524.4c5.365-5.967,12.569-14.162,12.569-14.162l-17.728-18.951-.539-.575-.591-1.629-11.031-30.349-.448-1.225-.028-.079-.4-1.094-.706-1.939c.337.06.686.139,1.043.238A29.9,29.9,0,0,1,516,368.781q.761.6,1.511,1.213c17.8,14.495,30.381,32.72,37.736,44.261a8.806,8.806,0,0,1-.353,9.987" transform="translate(-8861.962 -4002.089)" fill="#768fa5"/>
        <path id="パス_2936" data-name="パス 2936" d="M66.248,361.774l-3.115,1.59-5.823-22.6H36.457L48.2,380.625c2.738,7.724,11.479,9.643,18.781,5.923,13.955-7.11,22.666-11.385,22.824-11.424l12.208-27.936c-10.505.96-24.679,7.294-35.769,14.587" transform="translate(-8508.654 -3985.328)" fill="#768fa5"/>
        <path id="パス_2937" data-name="パス 2937" d="M37.81,175l-1-1.825-.725-3.047v-20.97a5.9,5.9,0,0,0-11.8,0v9.126a3.13,3.13,0,0,1-2.579,3.081l-8.2,1.468c-3.746.67-6.472,2.342-6.472,6.147v2.19a7.167,7.167,0,0,0,3.274,6.017H9.877c.667,3.373,1.274,7.462,6.432,10.047a3.367,3.367,0,0,1,1.9,2.991v1.7H33.347v-3.155a6.017,6.017,0,0,1,1.362-4l2.486-3.882A5.189,5.189,0,0,0,37.81,175" transform="translate(-8486.474 -3836.754)" fill="#ffd7c5"/>
        <path id="パス_2938" data-name="パス 2938" d="M319.513,119.19h0V109.45c0-12.967-13.528-25.346-27.88-25.346s-27.88,12.379-27.88,25.346v9.783a9.745,9.745,0,0,0,.451,19.439c2.457,11.344,14.614,21.213,27.43,21.213s24.964-9.863,27.427-21.2h.453a9.747,9.747,0,1,0,0-19.493" transform="translate(-8676.009 -3792.335)" fill="#ffd7c5"/>
        <path id="パス_2939" data-name="パス 2939" d="M330.149,406.912l22.706-30.678a1.586,1.586,0,1,0-2.549-1.887h0l-19.776,26.72V386.849H321.4v14.092l-17.283-24.1a1.586,1.586,0,0,0-2.577,1.848l20.241,28.22v0a5.2,5.2,0,0,0,8.365,0" transform="translate(-8712.059 -4010.157)" fill="#156089"/>
        <path id="パス_2940" data-name="パス 2940" d="M396.7,597.284a2.267,2.267,0,1,0,2.267,2.267,2.267,2.267,0,0,0-2.267-2.267" transform="translate(-8782.287 -4178.478)" fill="#156089"/>
        <path id="パス_2941" data-name="パス 2941" d="M76.154,192.439A1.417,1.417,0,0,0,76,192.13a1.727,1.727,0,0,0-1.614-.789,49.238,49.238,0,0,0-8.775,1.713,84.478,84.478,0,0,0-9.4,3.33,115.535,115.535,0,0,0-18.386,9.82,1.712,1.712,0,0,0-.769,1.506l-5.543-21.5a1.728,1.728,0,0,0-1.729-1.3v-1.427a5.122,5.122,0,0,1,.238-1.6,3.634,3.634,0,0,1,.706-1.273l.079-.091,2.518-3.933a6.907,6.907,0,0,0,.71-7.711l-1-1.824a7.893,7.893,0,0,0-.833-1.213,1.743,1.743,0,0,0,.321-1V143.868a7.631,7.631,0,0,0-15.262,0v9.122a1.383,1.383,0,0,1-.325.9,1.4,1.4,0,0,1-.829.48l-4.56.817-3.644.654a15.143,15.143,0,0,0-2.926.8,9.531,9.531,0,0,0-1.947,1.031,6.88,6.88,0,0,0-2.221,2.49A7.579,7.579,0,0,0,0,163.688v2.192a8.894,8.894,0,0,0,2.934,6.593,20.857,20.857,0,0,0,1.634,5.511A11.416,11.416,0,0,0,6.7,180.973a13.357,13.357,0,0,0,3.537,2.514,1.768,1.768,0,0,1,.7.622,1.524,1.524,0,0,1,.246.809,3.519,3.519,0,0,0-3.18,4.52v0l11.079,37.593.016.044a13.018,13.018,0,0,0,5.2,6.7,14.3,14.3,0,0,0,7.819,2.212,18.1,18.1,0,0,0,8.18-2.026c6.97-3.552,12.633-6.4,16.57-8.353.852-.424,1.614-.8,2.3-1.142v37.708h3.458V223.708a1.7,1.7,0,0,0-.222-.833l.226-.107c.139-.067.242-.115.305-.147l.055-.024,0,0a1.725,1.725,0,0,0-1.059-3.275c-.111.028-.147.039-.182.051-.059.024-.083.036-.107.044-.048.02-.083.036-.123.055-.087.039-.2.1-.349.167-.115.051-.25.119-.408.194-2.51,1.217-10.468,5.158-22.03,11.05a14.634,14.634,0,0,1-6.61,1.645,10.857,10.857,0,0,1-5.94-1.653,9.54,9.54,0,0,1-3.806-4.928L11.324,188.459l0,0v-.02l.024-.048.02-.016.032,0H28.251a2.359,2.359,0,0,0,.238-.024l6.923,26.868a1.73,1.73,0,0,0,3.351-.864l-1.527-5.915,0-.02s0,.012.008.016a1.382,1.382,0,0,0,.091.171,1.731,1.731,0,0,0,2.4.5,111.881,111.881,0,0,1,17.819-9.519,73.45,73.45,0,0,1,11.622-3.865,43.505,43.505,0,0,1,4.58-.828h.008c.321-.036.635-.071.948-.1a1.73,1.73,0,0,0,1.562-1.879,1.613,1.613,0,0,0-.111-.464M26.729,180.811a8.729,8.729,0,0,0-.4,2.672v1.423H14.647a4.961,4.961,0,0,0-.8-2.668,5.212,5.212,0,0,0-2.058-1.84,9.934,9.934,0,0,1-2.637-1.859A8.476,8.476,0,0,1,7.181,175.3c-.079-.23-.147-.464-.214-.7a9.7,9.7,0,0,0,2.371.3H12.28a1.729,1.729,0,0,0,0-3.457H9.338a6.246,6.246,0,0,1-3.394-1,5.44,5.44,0,0,1-2.482-4.563v-2.192a4.261,4.261,0,0,1,.333-1.764,3.181,3.181,0,0,1,.611-.9,4.894,4.894,0,0,1,1.606-1.063,11.323,11.323,0,0,1,2.5-.714l8.2-1.467a4.728,4.728,0,0,0,1.812-.729,4.584,4.584,0,0,0,1.059-.936,4.867,4.867,0,0,0,1.134-3.12v-9.122a4.169,4.169,0,1,1,8.339,0V163.6a7.62,7.62,0,0,0-2.7-.5H20.119a5.592,5.592,0,0,0-5.151,7.767,5.685,5.685,0,0,0,.837,1.383c.115.135.234.266.361.393a5.561,5.561,0,0,0,3.953,1.637h5.139a1.728,1.728,0,1,0,0-3.457H20.119a2.131,2.131,0,1,1,0-4.262H26.36A4.156,4.156,0,0,1,30,168.715L31,170.542a3.517,3.517,0,0,1,.428,1.665,3.471,3.471,0,0,1-.841,2.26l-.079.1L27.986,178.5a7.191,7.191,0,0,0-1.257,2.307" transform="translate(-8485.134 -3831.044)" fill="#156089"/>
        <path id="パス_2942" data-name="パス 2942" d="M32.492,352.136v-.007Z" transform="translate(-8509.616 -3994.016)" fill="#231815"/>
        <path id="パス_2943" data-name="パス 2943" d="M513.946,392.6a1.729,1.729,0,0,0-1.8,2.823l1.8,1.927,15.381,16.437c-1.582,1.752-4.7,5.213-7.839,8.718-1.685,1.883-3.378,3.778-4.837,5.424h4.631c2.335-2.617,4.937-5.519,7.09-7.913,1.312-1.459,2.462-2.732,3.279-3.639.409-.452.738-.817.96-1.067l.349-.385,1.067-1.177-19.358-20.688a1.741,1.741,0,0,0-.722-.46m0,5.467a1.52,1.52,0,0,0-.27-.024,1.731,1.731,0,0,0-1.729,1.732v28.153H515.4V399.774a1.725,1.725,0,0,0-1.459-1.709m37.467,9.971a233.151,233.151,0,0,0-15.6-21.845,155.71,155.71,0,0,0-24.029-24.057,40.947,40.947,0,0,0-5.595-3.742,25.658,25.658,0,0,0-2.871-1.356,14.764,14.764,0,0,0-2.811-.817,1.728,1.728,0,0,0-1.86.964s0,0,0,0a.45.45,0,0,0-.044.1,1.588,1.588,0,0,0-.1.341,1.733,1.733,0,0,0,1.412,2l1,.234,1.035.353c.036.012.071.024.107.04a24.4,24.4,0,0,1,3.767,1.923,39.983,39.983,0,0,1,3.814,2.668q1.695,1.338,3.326,2.72c16.594,14.039,28.478,31.253,35.532,42.33a7.071,7.071,0,0,1-.25,7.973l-9.167,10.058h4.683l7.177-7.874.052-.071a10.532,10.532,0,0,0,.424-11.946" transform="translate(-8860.624 -3996.798)" fill="#156089"/>
        <path id="パス_2944" data-name="パス 2944" d="M345.314,202.461a4.361,4.361,0,0,1,3.565,0,2.263,2.263,0,0,0,2.278-.093c.584-.495.188-1.858-1.135-2.45a7.159,7.159,0,0,0-5.85,0c-1.323.592-1.719,1.957-1.135,2.45a2.256,2.256,0,0,0,2.277.093" transform="translate(-8743.367 -3878.983)" fill="#156089"/>
        <path id="パス_2945" data-name="パス 2945" d="M350.912,243.032a3.083,3.083,0,0,0-3.075,3.074h0a3.075,3.075,0,0,0,6.149,0h0a3.083,3.083,0,0,0-3.074-3.074" transform="translate(-8747.181 -3911.896)" fill="#156089"/>
        <path id="パス_2946" data-name="パス 2946" d="M437.56,249.18a3.083,3.083,0,0,0,3.074-3.074h0a3.075,3.075,0,0,0-6.149,0h0a3.083,3.083,0,0,0,3.075,3.074" transform="translate(-8812.457 -3911.896)" fill="#156089"/>
        <path id="パス_2947" data-name="パス 2947" d="M393.94,291.008h3.453a.79.79,0,1,0,0-1.579h-2.308a1.447,1.447,0,0,1-1.288-.788l-.207-.4a.374.374,0,0,0-.706.17v1.544a1.056,1.056,0,0,0,1.056,1.056" transform="translate(-8781.118 -3945.77)" fill="#156089"/>
        <path id="パス_2948" data-name="パス 2948" d="M374.079,322.841a1.35,1.35,0,0,0,1.566.05,12,12,0,0,0,10.251,0,1.349,1.349,0,0,0,1.567-.05c.72-.446.979-1.233.633-1.644l-1.056-1.318a1.169,1.169,0,0,0-1.5-.136,1.219,1.219,0,0,0-.6,1.13,9.767,9.767,0,0,1-8.342,0,1.215,1.215,0,0,0-.6-1.131,1.169,1.169,0,0,0-1.5.136l-1.056,1.318c-.347.412-.086,1.2.633,1.644" transform="translate(-8766.354 -3969.478)" fill="#156089"/>
        <path id="パス_2949" data-name="パス 2949" d="M265.85,87.163l-1.17.611a25.622,25.622,0,0,1-7.133-12.481,9.748,9.748,0,0,1-9.286-9.246l-.539-.008L246.08,65.6c0,.143-.008.29-.008.436a11.4,11.4,0,0,0,10.1,11.319,24.783,24.783,0,0,0,1.709,4.452,28.977,28.977,0,0,0,4.917,6.942c.127.143.261.281.4.42q1.059-.374,2.185-.734.684-.214,1.392-.416c-.313-.277-.623-.567-.92-.86M322,60a11.451,11.451,0,0,0-4.5-4.119,1.643,1.643,0,0,0-1.182-.119V50.712a30.39,30.39,0,0,0-5.242-17.064,30.832,30.832,0,0,0-12.811-10.8,15.338,15.338,0,1,0-26.709.051,30.763,30.763,0,0,0-16.546,18.745,30.352,30.352,0,0,0-1.38,9.067v5.1a1.628,1.628,0,0,0-1.336.068A11.453,11.453,0,0,0,247.8,60a11.31,11.31,0,0,0-1.637,4.623c-.044.321-.071.65-.083.979,0,.143-.008.29-.008.436a11.4,11.4,0,0,0,10.1,11.319,24.788,24.788,0,0,0,1.709,4.452,28.977,28.977,0,0,0,4.917,6.942c.127.143.261.281.4.42a32.5,32.5,0,0,0,5.69,4.6A29.969,29.969,0,0,0,284.9,98.636a28.952,28.952,0,0,0,11.043-2.26,32.413,32.413,0,0,0,11.269-7.846,1.47,1.47,0,0,0,.155-.167q.892-.969,1.685-2a27.284,27.284,0,0,0,3.93-6.99c.25-.666.464-1.336.654-2.018A11.4,11.4,0,0,0,322,60m-7.7,13.88a20.027,20.027,0,0,0,.127-2.24,1.649,1.649,0,0,0-3.3,0,18.139,18.139,0,0,1-.559,4.409,21.345,21.345,0,0,1-1.606,4.286,26.022,26.022,0,0,1-4.961,6.768c-.167.17-.337.333-.512.5A29.6,29.6,0,0,1,299.141,91,26.748,26.748,0,0,1,284.9,95.338a25.6,25.6,0,0,1-9.782-2.014,29.021,29.021,0,0,1-8.351-5.3c-.313-.278-.623-.567-.92-.86a28.038,28.038,0,0,1-2.486-2.811,23.812,23.812,0,0,1-3.454-6.137,18.7,18.7,0,0,1-1.241-6.573,1.649,1.649,0,0,0-3.3,0,20.168,20.168,0,0,0,.131,2.244,8.09,8.09,0,0,1-1.867-14.975v2.2a1.492,1.492,0,0,0,2.554,1.051c1.471-1.5,4.536-3.612,6.479-6.6,4-3.814,10.984-18.987,11.558-24.724.987,8.861,4.77,10.419,19.334,18.574a6.888,6.888,0,0,0-.908.325c-1.32.591-1.717,1.954-1.134,2.45a2.254,2.254,0,0,0,2.276.091,4.373,4.373,0,0,1,3.568,0,2.848,2.848,0,0,0,1.634.21c3.449,1.982,7.371,4.293,11.836,7.053,1.146,1.039,2.224,1.9,2.934,2.624a1.494,1.494,0,0,0,2.557-1.051V59a8.124,8.124,0,0,1,2.879,2.755,8.08,8.08,0,0,1-4.9,12.128" transform="translate(-8670.479 -3728.99)" fill="#156089"/>
        <rect id="長方形_371" data-name="長方形 371" width="176.891" height="161.643" transform="translate(-8485.21 -3728.912)" fill="rgba(0,0,0,0)"/>
      </g>
      <g id="グループ_2636" data-name="グループ 2636" transform="translate(222 979)">
        <path id="パス_28" data-name="パス 28" d="M70.526,497.936V447.38a7.294,7.294,0,0,1,7.294-7.294h88.4a7.294,7.294,0,0,1,7.294,7.294v50.556Z" transform="translate(-51.342 -414.215)" fill="#e4f1fa"/>
        <rect id="長方形_138" data-name="長方形 138" width="101.523" height="6.876" transform="translate(14.946 72.315)" fill="#e4f1fa"/>
        <path id="パス_33" data-name="パス 33" d="M412.958,365.742h0Z" transform="translate(-325.444 -359.269)" fill="#231815"/>
        <path id="パス_34" data-name="パス 34" d="M297.166,335.2Z" transform="translate(-234.19 -335.196)" fill="#231815"/>
        <path id="パス_36" data-name="パス 36" d="M119.4,432.409V383.322a8.764,8.764,0,0,0-8.763-8.764H22.24a8.764,8.764,0,0,0-8.764,8.764v49.087H1.47a1.47,1.47,0,1,0,0,2.939H131.406a1.47,1.47,0,0,0,1.469-1.47ZM18.121,379.2A5.8,5.8,0,0,1,22.24,377.5h88.4a5.824,5.824,0,0,1,5.824,5.824v41.323H16.416V383.322A5.8,5.8,0,0,1,18.121,379.2Zm-1.706,48.38H116.46v4.825H16.416Z" transform="translate(0 -353.8)" fill="#156089"/>
      </g>
    </g>
  </g>
</svg>
