<svg xmlns="http://www.w3.org/2000/svg" xmlns:xlink="http://www.w3.org/1999/xlink" width="280" height="200" viewBox="0 0 280 200">
  <defs>
    <clipPath id="clip-path">
      <rect id="長方形_374" data-name="長方形 374" width="179.275" height="130.005" fill="none"/>
    </clipPath>
  </defs>
  <g id="グループ_2695" data-name="グループ 2695" transform="translate(-860 -832)">
    <rect id="長方形_372" data-name="長方形 372" width="280" height="200" transform="translate(860 832)" fill="none"/>
    <g id="グループ_2694" data-name="グループ 2694">
      <g id="グループ_2691" data-name="グループ 2691" transform="translate(910 867)">
        <g id="グループ_2690" data-name="グループ 2690" clip-path="url(#clip-path)">
          <path id="パス_2961" data-name="パス 2961" d="M232.652,99.426v-83.7A13.272,13.272,0,0,0,219.4,2.47H111.17A13.272,13.272,0,0,0,97.915,15.728v83.7" transform="translate(-73.76 -1.861)" fill="#a8d4ff"/>
          <path id="パス_2962" data-name="パス 2962" d="M127.275,114.636V37.847a6.013,6.013,0,0,1,6.013-6.014H241.514a6.013,6.013,0,0,1,6.013,6.014v76.789Z" transform="translate(-95.878 -23.98)" fill="#ffb64b"/>
          <path id="パス_2963" data-name="パス 2963" d="M235.582,179.687l-120.45.725v-61.5l120.45-.726Z" transform="translate(-86.73 -89.032)" fill="#156089"/>
          <path id="パス_2964" data-name="パス 2964" d="M158.284,64.969a2.187,2.187,0,1,1-2.187,2.187,2.187,2.187,0,0,1,2.187-2.187" transform="translate(-117.59 -48.942)" fill="#ff7373"/>
          <path id="パス_2965" data-name="パス 2965" d="M198.732,67.155a2.187,2.187,0,1,1-2.187-2.187,2.187,2.187,0,0,1,2.187,2.187" transform="translate(-146.412 -48.941)" fill="#43caff"/>
          <path id="パス_2966" data-name="パス 2966" d="M236.992,67.155a2.187,2.187,0,1,1-2.187-2.187,2.187,2.187,0,0,1,2.187,2.187" transform="translate(-175.234 -48.941)" fill="#edff87"/>
          <path id="パス_2967" data-name="パス 2967" d="M354.037,67.811h-61.6a2.968,2.968,0,0,1,0-5.935h61.6a2.968,2.968,0,0,1,0,5.935" transform="translate(-218.059 -46.612)" fill="#fff"/>
          <path id="パス_2968" data-name="パス 2968" d="M189.028,415.469,170.409,395.5H35.671L17.052,415.469a6.52,6.52,0,0,0,4.768,10.966H184.261a6.52,6.52,0,0,0,4.768-10.966" transform="translate(-11.517 -297.933)" fill="#a8d4ff"/>
          <path id="パス_2969" data-name="パス 2969" d="M335.411,455.773l-3.789-8.764a4.63,4.63,0,0,0-4.25-2.793H308.786a4.63,4.63,0,0,0-4.25,2.793l-3.789,8.764Z" transform="translate(-226.556 -334.633)" fill="#b4b4b5"/>
          <path id="パス_2970" data-name="パス 2970" d="M234.353,114.278V36.433a7.07,7.07,0,0,0-7.069-7.07H119.058a7.07,7.07,0,0,0-7.069,7.07v77.845H234.353ZM114.1,36.433a4.957,4.957,0,0,1,4.956-4.957H227.284a4.957,4.957,0,0,1,4.956,4.957V48.854H114.1V36.433m0,14.534H232.24v61.2H114.1v-61.2" transform="translate(-84.363 -22.119)" fill="#156089"/>
          <path id="パス_2971" data-name="パス 2971" d="M155.392,62.5a3.243,3.243,0,1,0,3.243,3.243,3.243,3.243,0,0,0-3.243-3.243m0,4.374a1.131,1.131,0,1,1,1.131-1.131,1.133,1.133,0,0,1-1.131,1.131" transform="translate(-114.616 -47.08)" fill="#156089"/>
          <path id="パス_2972" data-name="パス 2972" d="M193.652,62.5a3.243,3.243,0,1,0,3.243,3.243,3.243,3.243,0,0,0-3.243-3.243m0,4.374a1.131,1.131,0,1,1,1.131-1.131,1.133,1.133,0,0,1-1.131,1.131" transform="translate(-143.437 -47.08)" fill="#156089"/>
          <path id="パス_2973" data-name="パス 2973" d="M231.913,62.5a3.243,3.243,0,1,0,3.243,3.243,3.243,3.243,0,0,0-3.243-3.243m0,4.374a1.131,1.131,0,1,1,1.131-1.131,1.133,1.133,0,0,1-1.131,1.131" transform="translate(-172.26 -47.08)" fill="#156089"/>
          <path id="パス_2974" data-name="パス 2974" d="M351.145,59.407h-61.6a4.024,4.024,0,0,0,0,8.048h61.6a4.024,4.024,0,0,0,0-8.048m1.348,5.373a1.9,1.9,0,0,1-1.348.562h-61.6a1.911,1.911,0,0,1,0-3.823h61.6a1.908,1.908,0,0,1,1.348,3.26" transform="translate(-215.085 -44.752)" fill="#156089"/>
          <path id="パス_2975" data-name="パス 2975" d="M157.233,97.6V14.314A14.328,14.328,0,0,0,142.922,0H34.7A14.327,14.327,0,0,0,20.384,14.314V97.6L2.048,117.263A7.456,7.456,0,0,0,0,122.387a7.737,7.737,0,0,0,2.084,5.262,7.447,7.447,0,0,0,5.5,2.356H170.029a7.446,7.446,0,0,0,5.5-2.356,7.736,7.736,0,0,0,2.084-5.263,7.455,7.455,0,0,0-2.047-5.124ZM26.074,5.691A12.156,12.156,0,0,1,34.7,2.113H142.922a12.216,12.216,0,0,1,12.2,12.2V96.956H22.5V14.314a12.159,12.159,0,0,1,3.577-8.623M173.99,126.2a5.323,5.323,0,0,1-3.962,1.688H7.588A5.327,5.327,0,0,1,3.626,126.2a5.632,5.632,0,0,1-1.513-3.818,5.332,5.332,0,0,1,1.48-3.683L21.9,99.068H155.717L174.024,118.7l.773-.72-.772.72a5.332,5.332,0,0,1,1.48,3.683,5.63,5.63,0,0,1-1.513,3.818" transform="translate(0)" fill="#156089"/>
          <path id="パス_2976" data-name="パス 2976" d="M132.33,441.683H106.271l-5,11.572H40.478v2.113H198.124v-2.113h-60.79Zm-28.754,11.556,4.083-9.444h23.283l4.083,9.444Z" transform="translate(-30.493 -332.725)" fill="#156089"/>
        </g>
      </g>
      <g id="グループ_2693" data-name="グループ 2693" transform="translate(14.733 2.014)">
        <g id="グループ_2692" data-name="グループ 2692" transform="translate(950 911.137)">
          <rect id="長方形_375" data-name="長方形 375" width="38" height="2" rx="1" transform="translate(0.267 -0.151)" fill="#b4b4b5"/>
          <rect id="長方形_381" data-name="長方形 381" width="24" height="2" rx="1" transform="translate(46.267 -0.151)" fill="#b4b4b5"/>
          <rect id="長方形_376" data-name="長方形 376" width="54" height="2" rx="1" transform="translate(16.267 5.849)" fill="#b4b4b5"/>
          <rect id="長方形_385" data-name="長方形 385" width="25" height="2" rx="1" transform="translate(45.267 21.849)" fill="#b4b4b5"/>
          <rect id="長方形_382" data-name="長方形 382" width="15" height="2" rx="1" transform="translate(0.267 5.849)" fill="#b4b4b5"/>
          <rect id="長方形_377" data-name="長方形 377" width="27" height="2" rx="1" transform="translate(0.267 10.849)" fill="#b4b4b5"/>
          <rect id="長方形_383" data-name="長方形 383" width="27" height="2" rx="1" transform="translate(43.267 10.849)" fill="#b4b4b5"/>
          <rect id="長方形_384" data-name="長方形 384" width="30" height="2" rx="1" transform="translate(40.267 16.849)" fill="#b4b4b5"/>
          <rect id="長方形_378" data-name="長方形 378" width="38" height="2" rx="1" transform="translate(0.267 16.849)" fill="#b4b4b5"/>
          <rect id="長方形_379" data-name="長方形 379" width="38" height="2" rx="1" transform="translate(0.267 21.849)" fill="#b4b4b5"/>
          <rect id="長方形_380" data-name="長方形 380" width="70" height="2" rx="1" transform="translate(0.267 27.849)" fill="#b4b4b5"/>
        </g>
        <text id="_" data-name="&lt;/&gt;" transform="translate(950.267 906.986)" fill="#b4b4b5" font-size="9" font-family="Helvetica-Bold, Helvetica" font-weight="700" letter-spacing="0.05em"><tspan x="0" y="0">&lt;/&gt;</tspan></text>
        <text id="_2" data-name="&lt;/&gt;" transform="translate(950.267 949.986)" fill="#b4b4b5" font-size="9" font-family="Helvetica-Bold, Helvetica" font-weight="700" letter-spacing="0.05em"><tspan x="0" y="0">&lt;/&gt;</tspan></text>
      </g>
    </g>
  </g>
</svg>
