<svg xmlns="http://www.w3.org/2000/svg" xmlns:xlink="http://www.w3.org/1999/xlink" width="273.785" height="281.133" viewBox="0 0 273.785 281.133">
  <defs>
    <clipPath id="clip-path">
      <rect id="長方形_398" data-name="長方形 398" width="273.785" height="125.256" fill="none"/>
    </clipPath>
  </defs>
  <g id="グループ_2756" data-name="グループ 2756" transform="translate(-503.107 -2997.92)">
    <g id="グループ_2753" data-name="グループ 2753">
      <path id="パス_181" data-name="パス 181" d="M181.086,452.936c0,33.225-28.929,40.457-28.929,40.457L152.15,506.2H17.912l.186-9.284a82.317,82.317,0,0,1-13.215-43.98c0-14.755,6.928-40.637,13.215-50.017,0,0,2.321-4.089,4.981-8.427,1.23-2,2.528-4.062,3.7-5.8a24.155,24.155,0,0,1,3.136-4.006,44.6,44.6,0,0,1,10.265-6.624,30.442,30.442,0,0,1,12.047-3.129l34.469-26.3L122.343,374.6l.47.339a12.181,12.181,0,0,1,3.661.691,37.777,37.777,0,0,1,7.509,3.571C152.219,390.036,181.086,420.153,181.086,452.936Z" transform="translate(550.538 2744.48)" fill="#e96f45"/>
      <path id="パス_182" data-name="パス 182" d="M112.611,379.092s-13.953,3.04-14.375,4.406c-.194.63,10.108,7.039,18.314,17.942,9.575,12.722,17.283,30.159,17.283,30.159s3.846,3,6.585,2.692,8.183-7.407,8.183-7.407l37.278-51.255-25.389-3.237-20.072-17.712Z" transform="translate(492.445 2741.003)" fill="#fff"/>
      <path id="パス_183" data-name="パス 183" d="M159.193,201.87h0v-5.014c0-22.591-23.567-44.159-48.571-44.159S62.05,174.265,62.05,196.856v5.089a16.979,16.979,0,0,0,.786,33.868c4.281,19.765,25.46,36.96,47.785,36.96s43.49-17.183,47.781-36.94h.79a16.982,16.982,0,1,0,0-33.963Z" transform="translate(526.5 2857.288)" fill="#ffd7c5"/>
      <path id="パス_184" data-name="パス 184" d="M318.23,555.236s14.42,19.742,18.025,19.211,12.063-13.968,4.065-19.211S318.23,555.236,318.23,555.236Z" transform="translate(365.788 2626.88)" fill="#ffd7c5"/>
      <path id="パス_185" data-name="パス 185" d="M146.482,422.516c7.64-.81,22.061-8.02,22.061-8.02s4.26,4.261,0,9.5-8.194,11.143-6.883,14.092S166,451.24,166,451.24l-20.068,16.443s-29.824-14.515-29.824-17.464,3.306-17.059,3.306-17.059-12.24-6.556-15.311-10.643,2.551-10.719,4.731-12.383,3.013,2.724,12.845,7.312S146.482,422.516,146.482,422.516Z" transform="translate(493.934 2709.284)" fill="#ffd7c5"/>
      <path id="パス_186" data-name="パス 186" d="M143.638,315.189a5.371,5.371,0,0,0,5.356-5.356h0a5.356,5.356,0,0,0-10.712,0h0A5.372,5.372,0,0,0,143.638,315.189Z" transform="translate(469.389 2769.905)" fill="#156089"/>
      <path id="パス_187" data-name="パス 187" d="M231.313,315.189a5.372,5.372,0,0,0,5.356-5.356h0a5.356,5.356,0,0,0-10.713,0h0A5.372,5.372,0,0,0,231.313,315.189Z" transform="translate(418.912 2769.905)" fill="#156089"/>
      <path id="パス_188" data-name="パス 188" d="M185.7,338.191h6.016a1.376,1.376,0,0,0,0-2.752H187.7a2.521,2.521,0,0,1-2.244-1.372l-.361-.7a.651.651,0,0,0-1.23.3v2.691A1.839,1.839,0,0,0,185.7,338.191Z" transform="translate(443.146 2753.48)" fill="#156089"/>
      <path id="パス_189" data-name="パス 189" d="M228.383,271.827h5.858a2.427,2.427,0,0,0,0-4.854h-5.858a2.427,2.427,0,1,0,0,4.854Z" transform="translate(418.912 2791.497)" fill="#156089"/>
      <path id="パス_190" data-name="パス 190" d="M177.957,381.77a17.075,17.075,0,0,0,12.733,0,1.917,1.917,0,0,1,1.516,3.522h0a20.9,20.9,0,0,1-15.765,0,1.918,1.918,0,1,1,1.517-3.522Z" transform="translate(448.087 2725.496)" fill="#156089"/>
      <path id="パス_191" data-name="パス 191" d="M39.086,225.436a32.6,32.6,0,0,1-2.156-11.454,2.876,2.876,0,0,0-5.752,0,36.07,36.07,0,0,0,.229,3.905A14.1,14.1,0,0,1,28.152,191.8v9.879h.53a8.711,8.711,0,0,0,8.711-8.711l15.257-15.1a3.474,3.474,0,0,1,5.895,2.86,5.473,5.473,0,0,0,6.982,5.866,45.906,45.906,0,0,0,19.2-11,39.857,39.857,0,0,0,9.183-13.115,3.464,3.464,0,0,1,6.189-.358c6.133,10.8,17.776,21.8,27.76,26.816v4.031a8.711,8.711,0,0,0,8.712,8.711h.529V191.8a14.2,14.2,0,0,1,3.287,2.448,14.085,14.085,0,0,1-6.535,23.64,35.932,35.932,0,0,0,.221-3.9,2.876,2.876,0,0,0-5.752,0h0a33.91,33.91,0,0,1-3.769,15.143A48.076,48.076,0,0,1,107.433,247.7a46.537,46.537,0,0,1-24.808,7.564,44.573,44.573,0,0,1-17.036-3.5,50.571,50.571,0,0,1-20.48-15.633A41.645,41.645,0,0,1,39.086,225.436Zm45.443,75.806h0Zm10.576-8.771c-2.446,1.992-4.921,4.014-6.849,5.6-.954.787-1.772,1.467-2.394,1.992-.592-.274-1.362-.66-2.257-1.137-3.632-1.931-9.158-5.219-13.887-8.214-2.367-1.5-4.542-2.927-6.18-4.068-.817-.569-1.5-1.069-1.986-1.448-.153-.12-.276-.221-.384-.311a7.267,7.267,0,0,1,.093-.967,28.462,28.462,0,0,1,.618-2.791c.418-1.592.954-3.369,1.4-5.07.223-.853.425-1.688.577-2.5a13.31,13.31,0,0,0,.262-2.41,6.461,6.461,0,0,0-.127-1.325,4.426,4.426,0,0,0-.622-1.536,9.981,9.981,0,0,0-2.289-2.377,34.633,34.633,0,0,0-4.936-2.976c-1.3-.686-2.622-1.364-3.846-2.07a18.349,18.349,0,0,1-4.465-3.323,6.218,6.218,0,0,1-1.123-1.692,4.535,4.535,0,0,1-.372-1.832,6.8,6.8,0,0,1,.345-2.041,11.485,11.485,0,0,1,.564-1.419c.366-.033.714-.055,1.022-.054a3,3,0,0,0,2.2-.962q2.054,1.592,4.255,3a52.268,52.268,0,0,0,27.9,8.467,50.328,50.328,0,0,0,19.239-3.942,55.753,55.753,0,0,0,5.686-2.759,8.2,8.2,0,0,1,.145,1.491,8.875,8.875,0,0,1-1.21,4.35,15.992,15.992,0,0,1-2.977,3.722h0a13.491,13.491,0,0,0-3.276,14.767l2.9,7.312C101.316,287.425,98.238,289.92,95.105,292.47ZM176.5,296.8a103.191,103.191,0,0,0-15.922-27.271A133.928,133.928,0,0,0,144.392,252.9a85,85,0,0,0-9.139-6.983,38.066,38.066,0,0,0-3.9-2.218l-.083-.041c-.1-.048-.2-.1-.3-.152a16.386,16.386,0,0,0-4.1-1.368,3.01,3.01,0,0,0-1.561,5.788l-19.95,27.934a7.56,7.56,0,0,1-.318-2.169,7.787,7.787,0,0,1,2.432-5.644,21.654,21.654,0,0,0,4.041-5.1,14.551,14.551,0,0,0,1.934-7.142,14.213,14.213,0,0,0-.732-4.483c-.02-.069-.055-.124-.083-.193a56.1,56.1,0,0,0,6.9-5.712,53.683,53.683,0,0,0,5.167-5.782,47.288,47.288,0,0,0,6.853-12.184c.435-1.154.809-2.328,1.14-3.509a19.86,19.86,0,0,0,4.407-38.426v-.822c6.631-.891,13.117-7.557,12.683-10.638-.5-3.544-11.3-5.111-15.611-13.912h-.014c-.387-1.126-.8-2.231-1.264-3.322a53.681,53.681,0,0,0-19.314-23.43,52.952,52.952,0,0,0-29.738-9.132H81.406a52.8,52.8,0,0,0-20.689,4.207A53.76,53.76,0,0,0,37.28,147.781a52.965,52.965,0,0,0-9.132,29.737v8a19.858,19.858,0,0,0,4.428,38.426,42.688,42.688,0,0,0,2.977,7.757,50.976,50.976,0,0,0,9.512,13.076c-.649.1-1.306.235-1.983.394a43.688,43.688,0,0,0-9.056,3.433,62.48,62.48,0,0,0-9.913,6.258,3.015,3.015,0,0,0,3.675,4.78,58.981,58.981,0,0,1,6.03-4.068,49.507,49.507,0,0,1,5.7-2.867c.415-.173.815-.331,1.216-.483a11.439,11.439,0,0,0-.145,1.8,10.227,10.227,0,0,0,.863,4.165,12.063,12.063,0,0,0,1.865,2.936,20.183,20.183,0,0,0,4.435,3.716c2.4,1.534,4.925,2.742,6.977,3.868a24.428,24.428,0,0,1,2.59,1.575,6,6,0,0,1,1.043.919,6.144,6.144,0,0,1-.09.891c-.111.725-.339,1.685-.615,2.736-.421,1.582-.96,3.364-1.409,5.09-.221.863-.421,1.72-.573,2.549a14.233,14.233,0,0,0-.262,2.473,7.363,7.363,0,0,0,.165,1.547,4.547,4.547,0,0,0,.829,1.761,6.623,6.623,0,0,0,.49.539c.3.29.622.559,1,.863.7.552,1.588,1.195,2.639,1.92,3.661,2.528,9.291,6.065,14.292,9.007,2.507,1.478,4.842,2.8,6.715,3.771.939.49,1.761.891,2.473,1.2.359.159.691.283,1.036.4.173.055.353.1.56.152a4.3,4.3,0,0,0,.809.09,3.579,3.579,0,0,0,.9-.124,3.061,3.061,0,0,0,1.3-.774l.007-.007c.02-.021.159-.145.345-.311.759-.656,2.383-2,4.352-3.62,2.964-2.425,6.728-5.491,9.754-7.944,1.513-1.23,2.839-2.307,3.792-3.074s1.52-1.23,1.52-1.23l1.644-1.333-2.252-5.692a2.92,2.92,0,0,0,1.25-1l21.946-30.725c1.264.767,2.631,1.692,4.054,2.749a114.056,114.056,0,0,1,11.391,9.864,118.3,118.3,0,0,1,9.429,10.313,97.333,97.333,0,0,1,15.011,25.668,64.388,64.388,0,0,1,4.428,22.946,53.113,53.113,0,0,1-6.756,26.186,24.538,24.538,0,0,1-22.387,13.283,34.476,34.476,0,0,1-12.158-2.307,30.464,30.464,0,0,1-9.367-5.5c-1.264-1.132-2.832-2.645-4.58-4.414-6.134-6.182-14.506-15.438-21.31-23.119-3.4-3.841-6.417-7.294-8.587-9.788-1.084-1.243-1.955-2.245-2.549-2.943-.3-.345-.532-.614-.691-.794l-.235-.276a3.013,3.013,0,0,0-4.573,3.923c.007.007,1.465,1.706,3.841,4.442L43.422,328.2a2.959,2.959,0,0,0,.083-.822l-.642-10.921a3.014,3.014,0,0,0-6.017.353l.642,10.921a3,3,0,0,0,.484,1.45l-1.616.29a3.011,3.011,0,1,0,1.064,5.926l53.148-9.518c2.024,2.3,4.289,4.863,6.673,7.536,4.124,4.614,8.579,9.532,12.69,13.912,1.1,1.167,2.169,2.286,3.2,3.364-2.6.642-16.454,4.027-33.081,7.308-8.683,1.713-18.119,3.406-27.078,4.656a184.155,184.155,0,0,1-24.163,2.072,45.664,45.664,0,0,1-8.925-.712,13.332,13.332,0,0,1-2.729-.836c-.138-.062-.256-.124-.373-.187a2.979,2.979,0,0,0-1.52-1.4A36.43,36.43,0,0,1,8.3,347.827a69.285,69.285,0,0,1-2.279-18.56c-.007-12.6,2.535-26.027,5.726-37.066a130.841,130.841,0,0,1,5.008-14.361c.829-1.961,1.63-3.668,2.369-5.056a23.069,23.069,0,0,1,1.907-3.1,3.021,3.021,0,0,0-.553-4.228,1.945,1.945,0,0,0-.214-.145,3.005,3.005,0,0,0-4.013.7,28.193,28.193,0,0,0-2.452,3.958,89.2,89.2,0,0,0-4.594,10.61,159.94,159.94,0,0,0-6.341,22.512A132.206,132.206,0,0,0,0,329.269,74.963,74.963,0,0,0,2.5,349.46a42.137,42.137,0,0,0,8.607,16.55v11.01h6.023v-7.488a29.131,29.131,0,0,0,3.785.76,59.813,59.813,0,0,0,7.889.463A193.739,193.739,0,0,0,54.681,368.5c14.161-2.017,29.226-5.036,40.776-7.543s19.563-4.524,19.583-4.531a2.982,2.982,0,0,0,2.024-1.734c1.292,1.278,2.48,2.411,3.536,3.357a36.578,36.578,0,0,0,11.239,6.638,40.606,40.606,0,0,0,14.306,2.708c.062,0,.124-.007.186-.007v9.636h6.023v-10.2A29.961,29.961,0,0,0,161.3,363.7a31.649,31.649,0,0,0,12.482-12.668,59.163,59.163,0,0,0,7.529-29.136A70.523,70.523,0,0,0,176.5,296.8Z" transform="translate(549 2873.659)" fill="#156089"/>
      <path id="パス_192" data-name="パス 192" d="M303.236,550.335a3.013,3.013,0,0,0,4.235.471,17.869,17.869,0,0,0,2.774-2.988,29.424,29.424,0,0,0,4.479-8.662v0a9.967,9.967,0,0,0,.5-3.11,10.148,10.148,0,0,0-1.415-5.12,14.075,14.075,0,0,0-6.4-5.531,24.186,24.186,0,0,0-10.161-2.028,38.866,38.866,0,0,0-9.9,1.376,3,3,0,0,0-1.993,1.741l-17.9-17.848A3.013,3.013,0,0,0,263.2,512.9l33.869,33.772a3.013,3.013,0,1,0,4.255-4.267l-11.986-11.952a32.564,32.564,0,0,1,7.912-1.063c4.241,0,7.375,1.063,9.3,2.424a6.936,6.936,0,0,1,2.051,2.14,4.114,4.114,0,0,1,.6,2.089,3.918,3.918,0,0,1-.2,1.23,23.412,23.412,0,0,1-3.546,6.892,15.639,15.639,0,0,1-1.345,1.556c-.16.16-.28.271-.35.333l-.068.059,0,0,0,0A3.011,3.011,0,0,0,303.236,550.335Z" transform="translate(397.978 2652.875)" fill="#156089"/>
    </g>
    <g id="グループ_2755" data-name="グループ 2755" transform="translate(503.107 3153.797)">
      <g id="グループ_2754" data-name="グループ 2754" clip-path="url(#clip-path)">
        <path id="パス_2996" data-name="パス 2996" d="M90.368,126.135V21.965A15.029,15.029,0,0,1,105.4,6.936H287.534a15.029,15.029,0,0,1,15.028,15.029v104.17Z" transform="translate(-50.908 -3.907)" fill="#e4f1fa"/>
        <rect id="長方形_397" data-name="長方形 397" width="209.183" height="14.167" transform="translate(39.46 106.229)" fill="#e4f1fa"/>
        <path id="パス_2997" data-name="パス 2997" d="M106.869,0H57.092m69.961,0H114.4m44.982,0H146.733m69.212,0H166.917M50.7,0H45.825A18.057,18.057,0,0,0,27.768,18.058V119.2H3.028a3.028,3.028,0,1,0,0,6.056H270.758a3.028,3.028,0,0,0,0-6.056H246.018V18.058A18.057,18.057,0,0,0,227.961,0h-5.615M37.339,9.572a11.951,11.951,0,0,1,8.486-3.515H227.961a12,12,0,0,1,12,12V103.2H33.824V18.058a11.949,11.949,0,0,1,3.515-8.486m-3.515,99.686H239.961V119.2H33.824Z" fill="#156089"/>
      </g>
    </g>
  </g>
</svg>
