<svg xmlns="http://www.w3.org/2000/svg" xmlns:xlink="http://www.w3.org/1999/xlink" width="188.564" height="332.323" viewBox="0 0 188.564 332.323">
  <defs>
    <clipPath id="clip-path">
      <rect id="長方形_362" data-name="長方形 362" width="177.064" height="256.482" fill="none"/>
    </clipPath>
  </defs>
  <g id="グループ_3138" data-name="グループ 3138" transform="translate(-127.5 -148.159)">
    <g id="グループ_2586" data-name="グループ 2586" transform="translate(128 148.667)">
      <path id="パス_1729" data-name="パス 1729" d="M108.012,166.639c16.163-3.129,31.636-19.123,28.638-33.587l-.718-.94c-4.458,8.415-15.941-1.528-11.979-9.447s15.715-12.646,8.894-25.839c0,3.593-4.72,5.846-8.451,2.721-2.617-2.191-3.708-9.4,1.293-13.834,7.408-6.566,5.065-20.818.288-25.58-1.4,7.425-13.493,5.05-9.269-3.9,1.767-3.743,4.6-9.886-1.876-15.138l-1.1.724c1.525,2.161.233,8.251-4.358,10.386C103.263,55.05,96.7,45.534,98.132,39.7s1.7-10.386-2.894-14.253A6.6,6.6,0,0,1,88.3,32.869c-5.167-.006-6.426-5.446-3.722-9.593,1.989-3.051,2.437-9.622-5.34-13.394,1.718,1.618,1.616,8.2-4.11,8.77-6.576.65-8.387-9.855-5.005-13.3l-.838-.444c-6.4,1.076-9.883,7.314-7.091,11.616s3.955,10.326-1.847,12.907a7.034,7.034,0,0,1-9.907-7.529H48.933C38.7,28.359,43.648,36.1,44.513,39.7c1.4,5.805-6.774,7.978-8.608,1.786l-1.4-2.839c-8.9,6.743-6.842,14.814-5.284,19.928,2.883,9.463-11.988,8.988-13.384,1.563-4.776,4.762-7.12,19.014.289,25.58,5,4.433,3.909,11.643,1.293,13.834-3.732,3.124-8.451.871-8.451-2.721L7.642,99.75c-4,13.059,6.259,15,10.221,22.916s-5.827,15.875-10.284,7.461l-2.413,2.926c-3,14.464,12.475,30.458,28.638,33.587" transform="translate(-0.594 -1.307)" fill="#e96f45"/>
      <path id="パス_1743" data-name="パス 1743" d="M29.9,598.84h0a39.079,39.079,0,0,1-19.668-10.8,33.441,33.441,0,0,1-6.365-8.779,21.947,21.947,0,0,1-2.377-9.588,17.386,17.386,0,0,1,.36-3.543.745.745,0,0,0-1.459-.3A18.869,18.869,0,0,0,0,569.678a23.429,23.429,0,0,0,2.528,10.241,37.351,37.351,0,0,0,11.1,13.058,39.459,39.459,0,0,0,15.99,7.325.745.745,0,1,0,.284-1.462Z" transform="translate(0 -437.124)" fill="#156089" stroke="#156089" stroke-width="1"/>
      <path id="パス_1744" data-name="パス 1744" d="M14.931,436.246a23.6,23.6,0,0,1,4.846,6.053,7.69,7.69,0,0,1,.845,3.457,7.06,7.06,0,0,1-1.733,4.645,5.919,5.919,0,0,1-1.764,1.385,4.4,4.4,0,0,1-1.975.492,3.937,3.937,0,0,1-2.244-.713,6.734,6.734,0,0,1-2.087-2.487.745.745,0,0,0-1.317.7h0a8.207,8.207,0,0,0,2.566,3.021,5.434,5.434,0,0,0,3.082.971,5.89,5.89,0,0,0,2.645-.651,7.721,7.721,0,0,0,3.08-2.914,8.587,8.587,0,0,0,1.238-4.447,9.181,9.181,0,0,0-1-4.123,19.61,19.61,0,0,0-3.266-4.536c-1.841-1.984-3.82-3.681-5.3-5.606a12.3,12.3,0,0,1-1.8-3.115,10.707,10.707,0,0,1-.692-3.891,17.844,17.844,0,0,1,.877-5.217.745.745,0,0,0-1.425-.436,19.3,19.3,0,0,0-.943,5.653,12.051,12.051,0,0,0,1.354,5.675A25.293,25.293,0,0,0,14.931,436.246Z" transform="translate(-6.627 -323.494)" fill="#156089" stroke="#156089" stroke-width="1"/>
      <path id="パス_1745" data-name="パス 1745" d="M20.054,211.186a5.621,5.621,0,0,0,3.747,1.39,6.707,6.707,0,0,0,4.311-1.655,6.568,6.568,0,0,0,1.808-2.728,10.877,10.877,0,0,0,.669-3.814,11.462,11.462,0,0,0-.858-4.37,11,11,0,0,0-2.9-4.049,12.579,12.579,0,0,1-3.441-5.222,19.113,19.113,0,0,1-1.054-6.456,23.786,23.786,0,0,1,1.22-7.5,15.861,15.861,0,0,1,2.179-4.341,6.656,6.656,0,0,0,.756,1.318,8.272,8.272,0,0,0,3.356,2.6,10.417,10.417,0,0,0,4.154.875,7.506,7.506,0,0,0,4.491-1.332,5.013,5.013,0,0,0,1.5-1.776,5.5,5.5,0,0,0,.556-2.489,8.548,8.548,0,0,0-.4-2.485,25.307,25.307,0,0,1-1.346-7.367,13.249,13.249,0,0,1,1.3-5.867,16.456,16.456,0,0,1,5.063-5.884.745.745,0,1,0-.9-1.187,17.932,17.932,0,0,0-5.5,6.421,14.734,14.734,0,0,0-1.453,6.516,26.711,26.711,0,0,0,1.41,7.8,7.077,7.077,0,0,1,.337,2.052,4.014,4.014,0,0,1-.4,1.823,3.761,3.761,0,0,1-1.8,1.7,6.662,6.662,0,0,1-2.854.589,8.763,8.763,0,0,1-4.614-1.315,6.3,6.3,0,0,1-1.7-1.556,5.051,5.051,0,0,1-.91-2.08v0a.737.737,0,0,0-.042-.142c-.008-.02-.02-.038-.03-.057a.678.678,0,0,0-.038-.072.756.756,0,0,0-.093-.114h0c-.01-.01-.021-.016-.031-.025a.771.771,0,0,0-.08-.066c-.021-.014-.044-.025-.067-.037s-.039-.023-.061-.032a.75.75,0,0,0-.073-.024c-.022-.007-.043-.015-.065-.019s-.052-.006-.078-.009-.044-.006-.066-.006a.749.749,0,0,0-.121.01l-.023,0h0a.745.745,0,0,0-.143.042c-.02.008-.037.02-.056.029a.588.588,0,0,0-.187.132h0a15.352,15.352,0,0,0-3.378,5.9,25.262,25.262,0,0,0-1.3,7.975,20.59,20.59,0,0,0,1.142,6.962,14.065,14.065,0,0,0,3.854,5.83,9.512,9.512,0,0,1,2.507,3.5,9.971,9.971,0,0,1,.745,3.8,9.4,9.4,0,0,1-.573,3.288,5.122,5.122,0,0,1-1.371,2.113,5.216,5.216,0,0,1-3.355,1.307,4.133,4.133,0,0,1-2.755-1.012,3.242,3.242,0,0,1-1.119-2.446.745.745,0,0,0-1.49,0h0A4.737,4.737,0,0,0,20.054,211.186Z" transform="translate(-14.26 -114.996)" fill="#156089" stroke="#156089" stroke-width="1"/>
      <path id="パス_1746" data-name="パス 1746" d="M287.987,128.107a.744.744,0,0,0-1.376-.543h0a5.656,5.656,0,0,1-1.876,2.174,3.913,3.913,0,0,1-2.161.631,5.594,5.594,0,0,1-2.56-.683,9.164,9.164,0,0,1-3.375-3.166,8.6,8.6,0,0,1-1.422-4.589,6.931,6.931,0,0,1,.74-3.132,21.917,21.917,0,0,1,2.928-4.225c1.735-2.06,3.741-4.084,5.341-6.383a16.84,16.84,0,0,0,1.995-3.7,12.29,12.29,0,0,0,.795-4.347,17.092,17.092,0,0,0-2.169-7.855c-.007-.012-.015-.023-.023-.035a.743.743,0,0,0-.042-.065c-.015-.02-.03-.039-.047-.057s-.031-.033-.048-.049-.038-.033-.058-.048-.037-.026-.056-.038a.731.731,0,0,0-.065-.035c-.021-.01-.042-.019-.064-.027a.716.716,0,0,0-.072-.022c-.022-.006-.043-.01-.066-.014a.717.717,0,0,0-.083-.008c-.013,0-.025,0-.038,0l-.025,0a.688.688,0,0,0-.084.009c-.022,0-.044.007-.066.012s-.046.014-.07.022a.7.7,0,0,0-.073.029c-.009,0-.017.006-.026.01s-.022.015-.034.022-.044.027-.065.042-.038.03-.057.047-.033.031-.049.048a.75.75,0,0,0-.048.059c-.014.018-.026.036-.038.056s-.025.043-.035.065-.019.042-.027.064a.718.718,0,0,0-.022.072c-.006.022-.01.043-.014.066a.783.783,0,0,0-.008.083c0,.013,0,.025,0,.038h0a3.243,3.243,0,0,1-1.119,2.446,4.134,4.134,0,0,1-2.755,1.012,5.212,5.212,0,0,1-3.354-1.307,5.123,5.123,0,0,1-1.372-2.113,9.393,9.393,0,0,1-.573-3.288,9.967,9.967,0,0,1,.745-3.8,9.5,9.5,0,0,1,2.508-3.5,14.065,14.065,0,0,0,3.854-5.83,20.6,20.6,0,0,0,1.142-6.962,25.262,25.262,0,0,0-1.3-7.975,15.358,15.358,0,0,0-3.377-5.9l0,0a.751.751,0,0,0-.113-.092.739.739,0,0,0-.114-.06l-.015-.008a.735.735,0,0,0-.144-.042h-.009a.754.754,0,0,0-.136-.012c-.021,0-.041,0-.061.006a.783.783,0,0,0-.083.01c-.022,0-.042.012-.062.019s-.051.014-.076.024-.038.02-.057.03a.734.734,0,0,0-.07.039.748.748,0,0,0-.074.06c-.012.011-.026.019-.037.031l0,0a.743.743,0,0,0-.092.113.728.728,0,0,0-.062.118l-.006.011a.743.743,0,0,0-.042.144h0a4.594,4.594,0,0,1-1.671,2.886,4.542,4.542,0,0,1-2.78.921,4.5,4.5,0,0,1-2.942-1.051,3.653,3.653,0,0,1-.933-1.249,4.191,4.191,0,0,1-.357-1.749,7.554,7.554,0,0,1,.82-3.2,31.914,31.914,0,0,0,1.463-3.486,13.493,13.493,0,0,0,.769-4.282A9.49,9.49,0,0,0,270,40.4a12.078,12.078,0,0,0-3.366-4.079.743.743,0,0,0-1.2.687.716.716,0,0,0-.951,1.027,2.434,2.434,0,0,1,.347.808,4.864,4.864,0,0,1,.132,1.175,8.616,8.616,0,0,1-1.126,4.074,7.678,7.678,0,0,1-3.427,3.267,4.683,4.683,0,0,1-2,.45,5.825,5.825,0,0,1-3.057-.956,12.435,12.435,0,0,1-5.368-9.623,6.567,6.567,0,0,1,.178-1.564,27.154,27.154,0,0,0,.944-6.335,11.055,11.055,0,0,0-.908-4.586,11.36,11.36,0,0,0-3.165-4.051c-.008-.007-.017-.011-.024-.017s-.039-.028-.06-.041a.685.685,0,0,0-.06-.034.645.645,0,0,0-.062-.026c-.023-.009-.045-.017-.068-.023s-.043-.01-.064-.013-.048-.008-.073-.01-.042,0-.063,0a.658.658,0,0,0-.079.005l-.027,0c-.012,0-.022.007-.033.009a.69.69,0,0,0-.077.021c-.021.007-.04.015-.06.023a.687.687,0,0,0-.066.033c-.02.012-.039.024-.058.037s-.037.027-.054.043a.7.7,0,0,0-.054.052c-.009.009-.019.016-.027.026s-.01.016-.016.024a.708.708,0,0,0-.042.061c-.012.02-.024.039-.034.06s-.018.041-.026.062-.017.045-.023.068-.009.043-.013.064-.008.049-.01.073,0,.042,0,.063a.656.656,0,0,0,.005.079c0,.009,0,.018,0,.027a3.521,3.521,0,0,1,.041.572,6.616,6.616,0,0,1-.269,1.8,5.875,5.875,0,0,1-1.771,2.853,6.231,6.231,0,0,1-4.219,1.369h-.012a5.084,5.084,0,0,1-1.958-.359,3.7,3.7,0,0,1-1.811-1.581,4.949,4.949,0,0,1-.622-2.5,7.518,7.518,0,0,1,1.269-4.047,8.9,8.9,0,0,0,1.353-4.784,9.324,9.324,0,0,0-1.544-5.131,13.125,13.125,0,0,0-5.438-4.514c-.01,0-.021-.007-.031-.011A.746.746,0,0,0,230.789,5c-.022-.007-.044-.013-.065-.017a.683.683,0,0,0-.068-.01c-.024,0-.048,0-.071,0s-.044,0-.066,0-.047,0-.071.009-.043.01-.065.016-.045.013-.066.022a.645.645,0,0,0-.061.028.694.694,0,0,0-.063.036c-.018.012-.035.024-.052.037a.739.739,0,0,0-.061.053c-.007.007-.016.012-.023.02s-.013.017-.02.026a.672.672,0,0,0-.047.061.658.658,0,0,0-.039.063c-.005.01-.013.019-.018.029s-.007.02-.011.03a.729.729,0,0,0-.026.072c-.007.022-.013.043-.017.065s-.008.045-.01.068,0,.048,0,.071,0,.044,0,.065,0,.047.009.071.01.044.016.065.013.044.022.066.018.041.028.061a.663.663,0,0,0,.036.063c.012.018.024.035.038.052a.68.68,0,0,0,.052.06c.007.007.013.016.02.024a2.243,2.243,0,0,1,.519.93,5.161,5.161,0,0,1,.228,1.563,5.5,5.5,0,0,1-1,3.231,4.239,4.239,0,0,1-1.346,1.189,5.281,5.281,0,0,1-2.092.623c-.174.017-.343.025-.507.025a4.251,4.251,0,0,1-2.275-.634,6.13,6.13,0,0,1-2.3-2.861,10.435,10.435,0,0,1-.809-4.053,8.813,8.813,0,0,1,.381-2.645,4.778,4.778,0,0,1,1.08-1.915.715.715,0,0,0-.679-1.2A.716.716,0,0,0,220.506,0a10.979,10.979,0,0,0-6.27,3.306,8.527,8.527,0,0,0-2.392,5.715,6.724,6.724,0,0,0,1.089,3.691,12.418,12.418,0,0,1,2.189,6.422,5.691,5.691,0,0,1-.833,3.092,6.315,6.315,0,0,1-2.893,2.35,6.722,6.722,0,0,1-2.741.608,6.427,6.427,0,0,1-6.3-6.21,5.065,5.065,0,0,1,.123-1.115.717.717,0,0,0-1.4-.315h0a6.5,6.5,0,0,0-.158,1.43,7.858,7.858,0,0,0,7.732,7.643,8.157,8.157,0,0,0,3.324-.732,7.749,7.749,0,0,0,3.522-2.894,7.123,7.123,0,0,0,1.054-3.856,13.8,13.8,0,0,0-2.42-7.2,5.287,5.287,0,0,1-.858-2.911,7.1,7.1,0,0,1,2.01-4.742,9.488,9.488,0,0,1,5-2.771,6.9,6.9,0,0,0-.758,1.624,10.237,10.237,0,0,0-.449,3.08,11.266,11.266,0,0,0,1.653,5.99,6.862,6.862,0,0,0,2.132,2.143,5.694,5.694,0,0,0,3.028.847q.317,0,.645-.032h0a6.718,6.718,0,0,0,2.653-.8,5.775,5.775,0,0,0,2.382-2.559,7.2,7.2,0,0,0,.693-3.11,6.963,6.963,0,0,0-.124-1.3,10.47,10.47,0,0,1,2.985,2.934,7.886,7.886,0,0,1,1.31,4.348,7.489,7.489,0,0,1-1.121,4,8.94,8.94,0,0,0-1.5,4.829,6.037,6.037,0,0,0,1.465,4.1,5.152,5.152,0,0,0,1.852,1.3,6.521,6.521,0,0,0,2.507.469h.022a8.4,8.4,0,0,0,3.779-.813,6.769,6.769,0,0,0,3.114-3.216,8.287,8.287,0,0,0,.72-2.451,9.1,9.1,0,0,1,1.619,2.426,9.626,9.626,0,0,1,.783,4,25.8,25.8,0,0,1-.9,5.994,8,8,0,0,0-.22,1.9,11.875,11.875,0,0,0,.805,4.121,14.6,14.6,0,0,0,3.582,5.439,10,10,0,0,0,2.558,1.769,6.857,6.857,0,0,0,2.914.683,6.128,6.128,0,0,0,2.6-.584,9.11,9.11,0,0,0,4.073-3.866,10.032,10.032,0,0,0,1.309-4.774,6.27,6.27,0,0,0-.175-1.524,4.248,4.248,0,0,0-.3-.833,10.43,10.43,0,0,1,2.747,3.387,7.994,7.994,0,0,1,.8,3.539,12.031,12.031,0,0,1-.692,3.808,30.548,30.548,0,0,1-1.4,3.324,9.024,9.024,0,0,0-.963,3.834,5.677,5.677,0,0,0,.49,2.364,5.234,5.234,0,0,0,2.18,2.375,6.137,6.137,0,0,0,3.052.8,6.029,6.029,0,0,0,3.692-1.232,5.824,5.824,0,0,0,1.812-2.41,15.894,15.894,0,0,1,2.171,4.332,23.789,23.789,0,0,1,1.22,7.5,19.118,19.118,0,0,1-1.054,6.456,12.575,12.575,0,0,1-3.441,5.222,11,11,0,0,0-2.9,4.049,11.457,11.457,0,0,0-.858,4.37,10.879,10.879,0,0,0,.67,3.815,6.57,6.57,0,0,0,1.808,2.728,6.707,6.707,0,0,0,4.311,1.655,5.623,5.623,0,0,0,3.747-1.39,4.875,4.875,0,0,0,1.065-1.362,14.068,14.068,0,0,1,1.147,5.319,11.117,11.117,0,0,1-1.2,4.988,30.029,30.029,0,0,1-4.751,6.4,31.94,31.94,0,0,0-4.947,6.606,8.418,8.418,0,0,0-.9,3.8,9.625,9.625,0,0,0,.778,3.726,11.157,11.157,0,0,0,3.338,4.388,7.812,7.812,0,0,0,4.731,1.814,5.414,5.414,0,0,0,2.97-.87,6.562,6.562,0,0,0,1.762-1.723,17.5,17.5,0,0,1,.312,3.28,21.946,21.946,0,0,1-2.377,9.588,35.879,35.879,0,0,1-10.658,12.523,37.982,37.982,0,0,1-15.375,7.051.745.745,0,1,0,.284,1.462h0a40.553,40.553,0,0,0,20.442-11.208,34.938,34.938,0,0,0,6.647-9.175,23.429,23.429,0,0,0,2.528-10.241,18.926,18.926,0,0,0-.39-3.846A.749.749,0,0,0,287.987,128.107Z" transform="translate(-155.383 0.007)" fill="#156089" stroke="#156089" stroke-width="1"/>
      <path id="パス_1747" data-name="パス 1747" d="M137.431,95.477h0a6.1,6.1,0,0,0,2.1,3.2,5.055,5.055,0,0,0,3.074,1.034,5.12,5.12,0,0,0,3.443-1.318,4.716,4.716,0,0,0,1.131-1.566,5.021,5.021,0,0,0,.424-2.054,6.229,6.229,0,0,0-.179-1.457c-.122-.507-.307-1.051-.512-1.641a18.933,18.933,0,0,1-1.423-6.24,8.686,8.686,0,0,1,1.215-4.5,14.088,14.088,0,0,1,4.827-4.635.716.716,0,1,0-.764-1.211,15.5,15.5,0,0,0-5.3,5.121,10.132,10.132,0,0,0-1.412,5.227,15.888,15.888,0,0,0,.845,4.781c.222.7.456,1.352.658,1.931s.373,1.091.472,1.5a4.8,4.8,0,0,1,.139,1.122,3.59,3.59,0,0,1-.3,1.472,3.336,3.336,0,0,1-1.324,1.493,3.741,3.741,0,0,1-1.941.541,3.618,3.618,0,0,1-2.205-.741,4.671,4.671,0,0,1-1.594-2.472.717.717,0,0,0-1.375.407Z" transform="translate(-106.259 -57.985)" fill="#156089" stroke="#156089" stroke-width="1"/>
    </g>
    <g id="グループ_2667" data-name="グループ 2667" transform="translate(139 224)">
      <g id="グループ_2666" data-name="グループ 2666" clip-path="url(#clip-path)">
        <path id="パス_2891" data-name="パス 2891" d="M170.257,201.545l-50.568,46.209a4.845,4.845,0,0,1-6.2.278L20.173,176.989a4.844,4.844,0,0,1,.29-7.913l56.489-36.8a4.843,4.843,0,0,1,5.436.1l87.393,61.635a4.844,4.844,0,0,1,.476,7.535" fill="#fffff5"/>
        <path id="パス_2892" data-name="パス 2892" d="M174.7,202.482l-58,53-102-77.655,65-42.345Z" fill="none" stroke="#156089" stroke-linecap="round" stroke-linejoin="round" stroke-width="2"/>
        <path id="パス_2893" data-name="パス 2893" d="M8.414,112.745l-2.289,4.624a3.226,3.226,0,0,1-2.893,1.8H3.153A1.864,1.864,0,0,1,1.289,117.3v-3.278a3.108,3.108,0,0,1,.373-1.477l3.5-6.5a5.773,5.773,0,0,1,4.033-2.943l6.349-2.412,9.829-1.186-6.606,10.418s-1.815,2.727-3.888,2.727a6.507,6.507,0,0,0-3.393.888Z" fill="#ffd7c5"/>
        <path id="パス_2894" data-name="パス 2894" d="M141.1,91.649l-27.7,3.074L99.938,116.705l-9.378,6.046a13.1,13.1,0,0,0-5.5,14.591l15.833,39.567-.363.031c-6.128.511-10.841,6.877-10.841,13.032a.618.618,0,0,0,.618.618h30a3.215,3.215,0,0,0,3.146-3.858l-13.5-44.318a5.055,5.055,0,0,1,2.258-5.291L135.236,122.9a21.693,21.693,0,0,0,6.779-29.92q-.431-.683-.91-1.331" fill="#2ba7c8"/>
        <path id="パス_2895" data-name="パス 2895" d="M94.153,175.675H69.246c-.654,0-1.4-1.072-1.4-1.072a11.164,11.164,0,0,1,7.9-13.668c.124-.033.249-.064.374-.093l2.563-.59-9.958-19.2c-4.013-6.881-1.532-15.721,7.973-20.851l7.85-5.291L103.08,94.717l14.27,20.193L99.934,167.959s.094,7.521-5.781,7.716" fill="#2ba7c8"/>
        <path id="パス_2896" data-name="パス 2896" d="M54.861,57.757,43,88.195,19.4,98.672l4.8,13.439,24.69-10.153A11.29,11.29,0,0,0,53.72,98.1L63.732,84.068l3.16-3.977,20,28.541-.919,1.4a1.614,1.614,0,0,0,1.147,2.484l2.767.35a7.246,7.246,0,0,0,6.321-2.371l5.191-5.828,12.646,2.845a17.433,17.433,0,0,0,16.3-4.834L141.11,91.65,117.349,59.521l17.077,1.709,19.407,21.894,12.441-8.364-1.237-2.569L148.4,53.477a20.31,20.31,0,0,0-8.809-5.791l-17.655-5.831c-11.172-3.473-19.07-4.651-30.924-3.417Z" fill="#2ba7c8"/>
        <path id="パス_2897" data-name="パス 2897" d="M85.543,41.081s.627,9.277-1.194,13.556L76.661,72.7a3.618,3.618,0,0,1-5.741,1.278L55.2,59.889c-3.358-4.076,2.5-9.931,7.828-11.837s20.409-9.278,22.518-6.971" fill="#ffd7c5"/>
        <path id="パス_2898" data-name="パス 2898" d="M161.226,76.324,172.6,79.255a4.663,4.663,0,0,1,3.092,2.7L176.84,84.7a2.83,2.83,0,0,1-3.051,3.891l-5.658-.9-10.015-.56A2.952,2.952,0,0,0,155.3,88.77l-1.523,3.071a1.954,1.954,0,0,1-3.649-1.331l1.016-4.2,3.825-4.819-.164-1.674Z" fill="#ffd7c5"/>
        <path id="パス_2899" data-name="パス 2899" d="M112.4,60.436,136.153,92.56A20.337,20.337,0,0,1,131.891,121c-.407.3-.825.587-1.254.856l.009-.005-23.025,14.222-.01.007a6.4,6.4,0,0,0-2.861,6.7l.013.063,13.524,44.378,1.29-.394-1.321.27a1.859,1.859,0,0,1-1.824,2.238h-30v.733h.731a.732.732,0,0,0-.73-.733h0v.733h.731a12.753,12.753,0,0,1,2.826-7.789,9.907,9.907,0,0,1,6.779-3.9l.364-.031,1.817-.153L82.438,136.941l-1.252.5,1.3-.369a11.747,11.747,0,0,1,4.933-13.088l9.378-6.046a1.35,1.35,0,0,0-1.46-2.271l-9.378,6.047a14.445,14.445,0,0,0-6.067,16.1l.019.068L95.77,177.514l1.252-.5-.113-1.344-.363.031a12.584,12.584,0,0,0-8.657,4.9,15.429,15.429,0,0,0-3.419,9.478,1.964,1.964,0,0,0,1.964,1.967h30a4.556,4.556,0,0,0,4.466-5.477l-.013-.062-13.523-44.378-1.29.393,1.321-.27a3.7,3.7,0,0,1,1.655-3.878l-.009.006,23.021-14.22.01-.006A23.039,23.039,0,0,0,139.3,92.383c-.307-.487-.633-.966-.977-1.429L114.57,58.829a1.35,1.35,0,0,0-2.169,1.607" fill="#156089"/>
        <path id="パス_2900" data-name="パス 2900" d="M79.938,113.908,72.089,119.2l.753,1.119-.64-1.188c-6.937,3.729-10.531,9.538-10.526,15.356a14.567,14.567,0,0,0,2.029,7.366l1.164-.68-1.2.622,9.159,17.644-.865.2a12.5,12.5,0,0,0-9.391,14.978c.034.149.071.3.111.448l.06.225.134.194a5.713,5.713,0,0,0,.606.721,3.933,3.933,0,0,0,.692.561,2.274,2.274,0,0,0,1.2.37H90.285a1.35,1.35,0,1,0,0-2.7H65.38v.6l.2-.571-.2-.032v.6l.2-.572-.084.24.109-.229-.025-.009-.084.239.109-.228a1.719,1.719,0,0,1-.326-.3l-.145-.178-.036-.046-.006-.009-.4.286.406-.283-.4.286.406-.282-1.109.768,1.3-.348a9.8,9.8,0,0,1,6.927-12.012c.117-.033.234-.061.352-.089l4.261-.979L66.049,140.516l-.017-.029a11.86,11.86,0,0,1-1.66-6.007c0-4.672,2.837-9.576,9.109-12.979l.058-.032,7.9-5.326a1.349,1.349,0,0,0-1.455-2.271l-.05.034Z" fill="#156089"/>
        <path id="パス_2901" data-name="パス 2901" d="M59.949,78.164l21.966,31.353A1.349,1.349,0,1,0,84.144,108l-.021-.031L62.157,76.614a1.349,1.349,0,0,0-2.229,1.519l.021.031" fill="#156089"/>
        <path id="パス_2902" data-name="パス 2902" d="M49.738,57.376,38.083,87.3,13.85,98.055l5.691,15.952,26-10.689h.008A12.647,12.647,0,0,0,50.949,99L60.961,84.967A1.349,1.349,0,1,0,58.8,83.348l-.036.05L48.755,97.432a9.935,9.935,0,0,1-4.25,3.4L21.13,110.443l-3.9-10.927,22.961-10.2L52.249,58.359a1.349,1.349,0,1,0-2.491-1.035.6.6,0,0,0-.022.056Z" fill="#156089"/>
        <path id="パス_2903" data-name="パス 2903" d="M104.073,59.875,129.9,62.627l19.842,22.386,13.42-9.023a1.349,1.349,0,0,0-1.5-2.24L150.2,81.457l-18.971-21.4-26.869-2.866a1.35,1.35,0,0,0-.285,2.684Z" fill="#156089"/>
        <path id="パス_2904" data-name="パス 2904" d="M54.371,60.813,70.094,74.9a4.851,4.851,0,0,0,7.7-1.715l7.688-18.06A23.224,23.224,0,0,0,86.743,40.8a1.237,1.237,0,0,0-2.421.51c0,.016.007.032.011.047a20.744,20.744,0,0,1-1.127,12.792l-7.688,18.06a2.375,2.375,0,0,1-2.2,1.45,2.34,2.34,0,0,1-1.579-.609L56.016,58.968a1.237,1.237,0,0,0-1.65,1.844Z" fill="#156089"/>
        <path id="パス_2905" data-name="パス 2905" d="M92.86,38.869q.336,0,.677-.005c6,0,13.459,1.072,24.136,4.392l.4-1.289-.422,1.281,17.655,5.83a18.971,18.971,0,0,1,8.224,5.406L160.168,73.2a1.349,1.349,0,0,0,2.035-1.772l-.021-.023L145.543,52.689a21.668,21.668,0,0,0-9.393-6.174l-17.668-5.834h-.009c-10.853-3.376-18.6-4.514-24.936-4.513q-.362,0-.714.005a1.35,1.35,0,1,0,.037,2.7Z" fill="#156089"/>
        <path id="パス_2906" data-name="パス 2906" d="M152.678,81.719l-4,5.041L147.6,91.232a3.321,3.321,0,0,0-.094.775,3.245,3.245,0,0,0,3.235,3.235,3.3,3.3,0,0,0,.987-.153,3.242,3.242,0,0,0,1.923-1.651l1.523-3.071a1.67,1.67,0,0,1,1.494-.929h.108l9.937.557,5.591.89a4.117,4.117,0,0,0,4.439-5.662l-1.151-2.746a5.951,5.951,0,0,0-3.946-3.448h-.013L160.258,76.1a1.291,1.291,0,1,0-.642,2.5l11.371,2.931.321-1.248-.334,1.244a3.377,3.377,0,0,1,2.239,1.957l1.151,2.747a1.526,1.526,0,0,1,.124.6,1.549,1.549,0,0,1-.448,1.078,1.5,1.5,0,0,1-1.081.461l-.258-.021-5.723-.91L156.9,86.87h.009l-.246-.007a4.243,4.243,0,0,0-3.8,2.36l-1.523,3.071a.668.668,0,0,1-.4.338l-.211.035a.668.668,0,0,1-.463-.2.646.646,0,0,1-.2-.461l.021-.168.949-3.92,3.649-4.6a1.288,1.288,0,1,0-2.015-1.606Z" fill="#156089"/>
        <path id="パス_2907" data-name="パス 2907" d="M15.084,99.49,8.735,101.9l.457,1.2-.234-1.267a7.056,7.056,0,0,0-4.932,3.6l-3.5,6.5A4.4,4.4,0,0,0,0,114.025V117.3a3.155,3.155,0,0,0,3.152,3.154h.079a4.513,4.513,0,0,0,4.046-2.513l2.289-4.623a1.288,1.288,0,1,0-2.307-1.144L4.97,116.8a1.945,1.945,0,0,1-1.74,1.08H3.151a.581.581,0,0,1-.578-.578v-3.277a1.837,1.837,0,0,1,.218-.867l3.5-6.5a4.48,4.48,0,0,1,3.134-2.287l.114-.021L16,101.891a1.288,1.288,0,1,0-.913-2.409Z" fill="#156089"/>
        <path id="パス_2908" data-name="パス 2908" d="M14.281,107.315l-4.114.862-.019,0a3.383,3.383,0,0,0,.789,6.671,3.444,3.444,0,0,0,.857-.111l3.393-.889a7.391,7.391,0,0,0,3.418-1.991l1.591-1.631a1.237,1.237,0,0,0-1.77-1.729l-1.592,1.631a4.921,4.921,0,0,1-2.275,1.325l-3.392.887-.232.031a.9.9,0,0,1-.861-.633l-.043-.277a.907.907,0,0,1,.695-.88l-.29-1.2.254,1.212,4.1-.859a1.238,1.238,0,1,0-.506-2.424Z" fill="#156089"/>
        <path id="パス_2909" data-name="パス 2909" d="M136.353,90.895l-10.766,11.031a16.192,16.192,0,0,1-15.146,4.492l-13.355-3-5.675,6.373a6.011,6.011,0,0,1-4.489,2.013,6.146,6.146,0,0,1-.755-.047l-2.765-.35-.236-.125-.094-.252.062-.2.919-1.407a1.237,1.237,0,0,0-2.07-1.355l-.919,1.4a2.831,2.831,0,0,0-.466,1.556,2.876,2.876,0,0,0,.678,1.851,2.833,2.833,0,0,0,1.814.983l2.768.351a8.491,8.491,0,0,0,7.4-2.776l4.707-5.286,11.935,2.687a18.666,18.666,0,0,0,17.456-5.179l10.765-11.03a1.237,1.237,0,0,0-1.766-1.732Z" fill="#156089"/>
        <path id="パス_2910" data-name="パス 2910" d="M93.531,100.105l2.913,5.273a1.237,1.237,0,1,0,2.164-1.2l-2.913-5.272a1.237,1.237,0,1,0-2.165,1.2" fill="#156089"/>
        <path id="パス_2911" data-name="パス 2911" d="M100.228,175.4h19.19s6.041,14.919.223,14.919-29.378.618-30,0-.525-5.845,2.151-8.21,8.436-6.709,8.436-6.709" fill="#156089"/>
        <path id="パス_2912" data-name="パス 2912" d="M78.6,160.253H94.137l3.667,8.483a4.962,4.962,0,0,1-4.544,6.937H78.86c-11.533,0-11.172.208-10.828-7.709,3.312-4.761,10.572-7.711,10.572-7.711" fill="#156089"/>
        <path id="パス_2913" data-name="パス 2913" d="M86.3,84.842a1.768,1.768,0,1,1-1.768-1.77,1.77,1.77,0,0,1,1.768,1.77Z" fill="#156089"/>
        <path id="パス_2914" data-name="パス 2914" d="M92.052,93.064A1.768,1.768,0,1,1,90.284,91.3a1.768,1.768,0,0,1,1.768,1.768" fill="#156089"/>
        <path id="パス_2915" data-name="パス 2915" d="M66.179,62.141l2.4,8.743s3.2,5.987,5.641,3.9,1.639-3.739,1.639-3.739l-1.965-9.9Z" fill="#156089"/>
        <path id="パス_2916" data-name="パス 2916" d="M103.782,70.2a2.536,2.536,0,1,1-2.533,2.535,2.533,2.533,0,0,1,2.533-2.535" fill="#156089"/>
        <path id="パス_2917" data-name="パス 2917" d="M106.315,72.736h-1.051a1.482,1.482,0,1,1-1.482-1.483,1.483,1.483,0,0,1,1.482,1.483h2.1a3.585,3.585,0,1,0-3.585,3.588,3.586,3.586,0,0,0,3.585-3.588Z" fill="#156089"/>
        <path id="パス_2918" data-name="パス 2918" d="M87.562,29.811h0V27.564c0-10.119-10.547-19.779-21.736-19.779s-21.734,9.66-21.734,19.779v2.28a7.606,7.606,0,0,0,.351,15.17C46.358,53.867,55.836,61.57,65.827,61.57s19.463-7.7,21.382-16.547h.354a7.607,7.607,0,0,0,0-15.214Z" fill="#ffd7c5"/>
        <path id="パス_2919" data-name="パス 2919" d="M57.578,41.033h0a2.4,2.4,0,1,0-2.4,2.4,2.4,2.4,0,0,0,2.4-2.4" fill="#156089"/>
        <path id="パス_2920" data-name="パス 2920" d="M71.828,38.634a2.4,2.4,0,1,0,2.4,2.4,2.4,2.4,0,0,0-2.4-2.4" fill="#156089"/>
        <path id="パス_2921" data-name="パス 2921" d="M64.955,49.342a.616.616,0,1,0,0-1.233h-1.8a1.129,1.129,0,0,1-1-.615l-.161-.316a.291.291,0,0,0-.551.133v1.207a.826.826,0,0,0,.823.823Z" fill="#156089"/>
        <path id="パス_2922" data-name="パス 2922" d="M72.546,33.132,70.178,34.26a1.087,1.087,0,0,0,.934,1.962l2.368-1.128a1.087,1.087,0,0,0-.934-1.962" fill="#156089"/>
        <path id="パス_2923" data-name="パス 2923" d="M54.465,33.132l2.368,1.128a1.087,1.087,0,0,1-.934,1.962l-2.368-1.128a1.087,1.087,0,0,1,.934-1.962" fill="#156089"/>
        <path id="パス_2924" data-name="パス 2924" d="M67.153,55.54a.765.765,0,0,1-.734-.552H60.59a.763.763,0,0,1-1.5-.212V53.458a.763.763,0,0,1,1.5-.213h5.829a.763.763,0,0,1,1.5.213v1.321a.762.762,0,0,1-.765.761Z" fill="#156089"/>
        <path id="パス_2925" data-name="パス 2925" d="M87.872,30.73l.546-3.72C88.207,16.868,86,10.777,77.911,8.141,69.987-.117,60.925-.224,53.34,2.374c-6.715,2.3-7.181-3.788-9.647-2.06-9.383,6.57-7.009,20.859-4.559,28.142V39.669a1.164,1.164,0,0,0,1.993.821c1.431-1.459,4.8-3.668,5.984-7.024,2.684-4.721-.561-9.5,2.563-10.137,3.2-.651,10.459,6.366,12.067,4.894s.976-7.461,3.535-6.179,7.227,6.4,8.952,5.448-.412-4.8,1.512-4.59a8.822,8.822,0,0,1,3.281,2.015c1.3,1.075,1.794,1.075,1.218,2.664a6.814,6.814,0,0,0-.753,3.713c.173,4.608,4.687,7.44,6.407,9.194a1.164,1.164,0,0,0,1.992-.819V31.548c0-.273,0-.547-.013-.818" fill="#156089"/>
        <path id="パス_2926" data-name="パス 2926" d="M83.954,42.176c.008,4.6-2.426,9.247-6.251,12.732a20.377,20.377,0,0,1-28.393,0c-3.826-3.485-6.26-8.131-6.251-12.732a1.286,1.286,0,0,0-2.573,0c.008,5.519,2.848,10.762,7.093,14.637a22.944,22.944,0,0,0,31.861,0c4.245-3.874,7.084-9.118,7.092-14.637a1.289,1.289,0,0,0-2.577,0Z" fill="#156089"/>
        <path id="パス_2927" data-name="パス 2927" d="M42.12,44.12a6.318,6.318,0,0,1,0-12.636V28.906a8.894,8.894,0,1,0,0,17.789Z" fill="#156089"/>
        <path id="パス_2928" data-name="パス 2928" d="M84.889,46.7a8.894,8.894,0,1,0,0-17.789v2.579a6.318,6.318,0,0,1,0,12.635V46.7Z" fill="#156089"/>
        <path id="パス_2929" data-name="パス 2929" d="M150.82,205.836a1.248,1.248,0,0,1-1.165-.324c-.277-.3-.375-.843-.3-2.215a3.97,3.97,0,0,1,.622-2.444,1.121,1.121,0,0,1,.755-.291l-.25-.266c-.415-.443-1.288-1.374-1.633-1.8a26.645,26.645,0,0,0-.076,2.849,1.734,1.734,0,0,1-.378,1.492,1.344,1.344,0,0,1-1.818-.044c-.3-.324-.42-.772-.481-1.963l-3.852-4.106a1.245,1.245,0,0,1,.038-2.062c.694-.651,1.346-.43,1.942.205l2.022,2.156a1.062,1.062,0,0,1,.3-.534,1.034,1.034,0,0,1,.568-.283,9.356,9.356,0,0,1-1.679-3.033,1.275,1.275,0,0,1,.428-1.29,1.612,1.612,0,0,1,2.211-.13,10.571,10.571,0,0,1,1.07,1.94,19.688,19.688,0,0,0,3.416,4.679l4.419,4.712c1.44,1.536,1.422,2.107-.1,3.534l-9.407,8.824c-1.227,1.15-1.67,1.121-2.82-.1l-.5-.532c-1.135-1.211-1.121-1.669.09-2.8l3.205-3.006a.964.964,0,0,1-.535-.275l-4.328,4.058c-.442.416-.831.476-1.274,0-.429-.457-.3-.854.111-1.243l5.065-4.751a5.873,5.873,0,0,1-.019-.7L142.5,209.81c-1.24,1.163-1.714,1.162-2.89-.093l-.471-.5c-1.178-1.255-1.148-1.728.093-2.891l1.9-1.787a3.2,3.2,0,0,1-.052-.646l-2.333,2.188c-.576.54-1.257.762-1.865.112a3.151,3.151,0,0,1-.45-2.52c-.381.273-.791.575-1.115.822-.778.592-1.222.593-1.708.075a1.169,1.169,0,0,1,.174-1.828,16.711,16.711,0,0,1,3.767-2.228,19.513,19.513,0,0,1,2.82-3.95.954.954,0,0,1,1.475.034c.443.472.387.885-.059,1.387-.254.292-1.193,1.452-1.431,1.759a9.81,9.81,0,0,1,1.448-.055,2.03,2.03,0,0,1,.5-.942,1.184,1.184,0,0,1,1.644.1c.346.368.277.738-.259,1.825a6.856,6.856,0,0,0-.6,2.028c1.223-1.062,1.648-.934,2.743.233l.887.945a.9.9,0,0,1,.225-.352,1.371,1.371,0,0,1,1.79.043c.249.266.325.583.234,1.641a17.647,17.647,0,0,0,.04,2.321Zm-12.077-2.221c.084.089.185.049.377-.131l1.95-1.829a7.639,7.639,0,0,0-2.1.578c-.314.849-.342,1.264-.231,1.382m4.964.646a.283.283,0,0,0-.444,0l-2.54,2.383a.282.282,0,0,0-.028.442l.194.208,3.013-2.826Zm-2.015,3.889.194.208a.283.283,0,0,0,.444,0l2.54-2.382a.284.284,0,0,0,.029-.444l-.2-.208Zm4.876,4.311c-.178.166-.182.309-.03.472l.07.074c.152.162.295.166.472,0l7.887-7.4a.308.308,0,0,0,.017-.515l-.264-.281Zm5.19-8.17a7.081,7.081,0,0,1-.067.728l1.713-1.608-1.4-1.491c-.131.955-.21,1.641-.247,2.371" fill="#156089"/>
        <path id="パス_2930" data-name="パス 2930" d="M128.877,219.17a1.263,1.263,0,0,1,.375-.99,1.309,1.309,0,0,1,1.6.051.677.677,0,0,1,.12-.167c.31-.291.78-.234,1.677-.019l-1.247-1.329a1.3,1.3,0,0,1,1.89-1.772l1.136,1.211a9.987,9.987,0,0,1-.32-1.644,1.1,1.1,0,0,1,.258-.879.949.949,0,0,1,.737-.22,37.268,37.268,0,0,1-3.781-4.92,1.3,1.3,0,0,1-.459,1.345l-.473.444,1.69,1.8c.8.857.612,1.453-.186,2.2a1.252,1.252,0,0,1-2.029-.122l-1.691-1.8-1.225,1.149,2.41,2.57c.693.739.341,1.429-.309,2.039-.472.443-1.172.822-1.7.26l-.235-.25-2.778,2.6c-.546.513-1.123.638-1.677.046a1.072,1.072,0,0,1,.14-1.687l2.777-2.6-.845-.9L121.31,218.8a1.2,1.2,0,0,1-2.017-.051c-.638-.678-.4-1.315.2-1.883l9.481-8.893c.591-.554,1.286-.789,1.909-.125.084.089.138.176.222.266-.6-1.08-.974-1.809-.235-2.5a1.636,1.636,0,0,1,2.326-.184c.526.561.913,1.92,2.353,3.872a40.96,40.96,0,0,0,3.08,3.58l3.838,4.09c1.233,1.315,1.2,2.346-.115,3.579l-10.338,9.7a1.212,1.212,0,0,1-2.005-.037c-.636-.679-.373-1.315.218-1.869l1.418-1.33a1,1,0,0,1-.863-.358l-.249-.266-1.064,1a1.2,1.2,0,1,1-1.635-1.743l.518-.485a21.481,21.481,0,0,0-2.169-.27c-1.144-.065-1.443-.117-1.706-.4a1.278,1.278,0,0,1,.013-1.733,1.222,1.222,0,0,1,1.083-.266,10.565,10.565,0,0,1,1.58.294l-1.038-1.108a1.286,1.286,0,0,1,1.876-1.759l.955,1.019a9.761,9.761,0,0,1-.072-1.765m2.742,2.924a1.2,1.2,0,1,1,1.634,1.743l-.841.79.249.266a1.038,1.038,0,0,1,.316.87l3.958-3.712a.972.972,0,0,1-.849-.343l-.262-.281-.665.624a1.2,1.2,0,1,1-1.635-1.743l.192-.181a14.049,14.049,0,0,0-1.542-.163,2.678,2.678,0,0,1-1.026-.148,11.779,11.779,0,0,0,.072,2.652Zm5.258-4.931c.487-.457.937-.627,1.525-.209l-2.231-2.377a16.389,16.389,0,0,0,.351,2.919Zm2.938,2.187a.545.545,0,0,0,.027-.859l-1.024-1.093c.381.614.181,1.052-.307,1.509l-.8.748.264.281a1.014,1.014,0,0,1,.287.868Z" fill="#156089"/>
        <path id="パス_2931" data-name="パス 2931" d="M106.421,231.9c-1.191-1.271-.963-2.123.248-3.259l7.68-7.2c1.211-1.136,2.076-1.309,3.267-.038l1.468,1.565c1.192,1.271.978,2.138-.233,3.273l-7.68,7.2c-1.2,1.122-2.09,1.294-3.282.023Zm9.183-8.058-.236-.25a.336.336,0,0,0-.528-.032l-6.07,5.693a.337.337,0,0,0,0,.53l.235.25Zm-.621,18.488a1.037,1.037,0,1,1-1.413-1.506l.576-.54-.153-.163c-1.122-1.2-.466-1.976.509-2.891l2.953-2.77-.374-.4-4.7,4.4c-.355.333-.715.422-1.075.038s-.248-.738.106-1.071l4.7-4.4-.374-.4-5.169,4.848c-.5.47-1.008.641-1.535.08s-.325-1.057.177-1.527l12.3-11.539c.5-.471,1.023-.655,1.55-.093s.31,1.069-.192,1.541l-4.815,4.515.374.4,4.239-3.976a.662.662,0,0,1,1.074-.009c.361.384.235.724-.105,1.042l-4.239,3.976.374.4L123.7,228.6c.369-.347.731-.436,1.1-.037s.262.754-.107,1.1l-3.928,3.685.374.4,4.874-4.571c.5-.471.964-.6,1.491-.038.512.547.368,1.015-.134,1.485L122.5,235.2l.374.4,3.854-3.615c.4-.374.819-.49,1.235-.047s.272.854-.126,1.228l-3.855,3.616.222.236c.554.591-.085,1.3-.558,1.743-.531.5-1.318.9-1.761.432l-.222-.237-2.953,2.77c-1.108,1.039-1.838,1.475-3.029.2l-.125-.133ZM110.29,231.41a.347.347,0,0,0,.529.032l6.071-5.694a.337.337,0,0,0,0-.529l-.236-.251-6.6,6.191Zm8.634,4.619-.471-.5-2.1,1.966a.35.35,0,0,0-.017.543l.208.222Zm-1.006,3.691a.351.351,0,0,0,.543.018l2.1-1.967-.47-.5L117.71,239.5Z" fill="#156089"/>
      </g>
    </g>
  </g>
</svg>
