<svg xmlns="http://www.w3.org/2000/svg" xmlns:xlink="http://www.w3.org/1999/xlink" width="106" height="96" viewBox="0 0 106 96">
  <defs>
    <clipPath id="clip-path">
      <rect id="長方形_511" data-name="長方形 511" width="106" height="96" transform="translate(-8214 3208)" fill="#fff" stroke="#707070" stroke-width="1"/>
    </clipPath>
    <clipPath id="clip-path-2">
      <rect id="長方形_386" data-name="長方形 386" width="63.6" height="59.288" fill="none"/>
    </clipPath>
    <clipPath id="clip-path-3">
      <rect id="長方形_387" data-name="長方形 387" width="179.944" height="151.724" transform="translate(0 0)" fill="none"/>
    </clipPath>
  </defs>
  <g id="job_illust-calendar_pc" transform="translate(8214 -3208)" clip-path="url(#clip-path)">
    <g id="グループ_3155" data-name="グループ 3155" transform="translate(-9135 1905)">
      <g id="グループ_2707" data-name="グループ 2707" transform="translate(1204.273 155.248) rotate(30)">
        <g id="グループ_2706" data-name="グループ 2706" transform="translate(360 1135.519)">
          <g id="グループ_2705" data-name="グループ 2705" transform="translate(0 0)" clip-path="url(#clip-path-2)">
            <path id="パス_2977" data-name="パス 2977" d="M134.151,63.393H77.211A13.117,13.117,0,0,1,90.328,50.276h30.7A13.117,13.117,0,0,1,134.151,63.393Z" transform="translate(-70.548 -45.764)" fill="#df7c8f"/>
            <path id="パス_2978" data-name="パス 2978" d="M61.374,10.189A9.679,9.679,0,0,0,52.459,4.28H45.607V1.528a1.528,1.528,0,0,0-3.056,0V4.279H19.584V1.528a1.528,1.528,0,0,0-3.056,0V4.279H9.677A9.674,9.674,0,0,0,0,13.956v35.31a9.674,9.674,0,0,0,9.677,9.676H52.459a9.674,9.674,0,0,0,9.677-9.676V13.956a9.65,9.65,0,0,0-.761-3.767m-57.8,1.19a6.651,6.651,0,0,1,2.4-2.914,6.582,6.582,0,0,1,3.7-1.13h6.852V10.2a1.528,1.528,0,0,0,3.056,0V7.335H42.551V10.2a1.528,1.528,0,0,0,3.056,0V7.335h6.852a6.619,6.619,0,0,1,6.621,6.621v2.15H3.056v-2.15a6.593,6.593,0,0,1,.52-2.577M58.56,51.843a6.651,6.651,0,0,1-2.4,2.914,6.582,6.582,0,0,1-3.7,1.13H9.677a6.619,6.619,0,0,1-6.621-6.621v-30.1H59.08v30.1a6.593,6.593,0,0,1-.52,2.577" transform="translate(0 0.173)" fill="#156089"/>
            <path id="パス_2979" data-name="パス 2979" d="M138.773,266.533H135.8a1.992,1.992,0,0,0-1.992,1.992V271.5a1.992,1.992,0,0,0,1.992,1.992h2.975a1.992,1.992,0,0,0,1.992-1.992v-2.975a1.992,1.992,0,0,0-1.992-1.992" transform="translate(-122.259 -243.359)" fill="#156089"/>
            <path id="パス_2980" data-name="パス 2980" d="M262.69,266.533h-2.975a1.992,1.992,0,0,0-1.992,1.992V271.5a1.992,1.992,0,0,0,1.992,1.992h2.975a1.992,1.992,0,0,0,1.992-1.992v-2.975a1.992,1.992,0,0,0-1.992-1.992" transform="translate(-235.482 -243.359)" fill="#156089"/>
            <path id="パス_2981" data-name="パス 2981" d="M386.605,266.533H383.63a1.992,1.992,0,0,0-1.992,1.992V271.5a1.992,1.992,0,0,0,1.992,1.992h2.975A1.992,1.992,0,0,0,388.6,271.5v-2.975a1.992,1.992,0,0,0-1.992-1.992" transform="translate(-348.703 -243.359)" fill="#156089"/>
            <path id="パス_2982" data-name="パス 2982" d="M510.523,266.533h-2.975a1.992,1.992,0,0,0-1.992,1.992V271.5a1.992,1.992,0,0,0,1.992,1.992h2.975a1.992,1.992,0,0,0,1.992-1.992v-2.975a1.992,1.992,0,0,0-1.992-1.992" transform="translate(-461.927 -243.359)" fill="#156089"/>
            <path id="パス_2983" data-name="パス 2983" d="M138.773,392.25H135.8a1.992,1.992,0,0,0-1.992,1.992v2.975a1.992,1.992,0,0,0,1.992,1.992h2.975a1.992,1.992,0,0,0,1.992-1.992v-2.975a1.992,1.992,0,0,0-1.992-1.992" transform="translate(-122.259 -358.226)" fill="#156089"/>
            <path id="パス_2984" data-name="パス 2984" d="M262.69,392.25h-2.975a1.992,1.992,0,0,0-1.992,1.992v2.975a1.992,1.992,0,0,0,1.992,1.992h2.975a1.992,1.992,0,0,0,1.992-1.992v-2.975a1.992,1.992,0,0,0-1.992-1.992" transform="translate(-235.482 -358.226)" fill="#156089"/>
            <path id="パス_2985" data-name="パス 2985" d="M386.605,392.25H383.63a1.992,1.992,0,0,0-1.992,1.992v2.975a1.992,1.992,0,0,0,1.992,1.992h2.975a1.992,1.992,0,0,0,1.992-1.992v-2.975a1.992,1.992,0,0,0-1.992-1.992" transform="translate(-348.703 -358.226)" fill="#156089"/>
            <path id="パス_2986" data-name="パス 2986" d="M510.523,392.25h-2.975a1.992,1.992,0,0,0-1.992,1.992v2.975a1.992,1.992,0,0,0,1.992,1.992h2.975a1.992,1.992,0,0,0,1.992-1.992v-2.975a1.992,1.992,0,0,0-1.992-1.992" transform="translate(-461.927 -358.226)" fill="#156089"/>
            <path id="パス_2987" data-name="パス 2987" d="M138.773,517.967H135.8a1.992,1.992,0,0,0-1.992,1.992v2.975a1.992,1.992,0,0,0,1.992,1.992h2.975a1.992,1.992,0,0,0,1.992-1.992v-2.975a1.992,1.992,0,0,0-1.992-1.992" transform="translate(-122.259 -473.094)" fill="#156089"/>
            <path id="パス_2988" data-name="パス 2988" d="M262.69,517.967h-2.975a1.992,1.992,0,0,0-1.992,1.992v2.975a1.992,1.992,0,0,0,1.992,1.992h2.975a1.992,1.992,0,0,0,1.992-1.992v-2.975a1.992,1.992,0,0,0-1.992-1.992" transform="translate(-235.482 -473.094)" fill="#156089"/>
            <path id="パス_2989" data-name="パス 2989" d="M386.605,517.967H383.63a1.992,1.992,0,0,0-1.992,1.992v2.975a1.992,1.992,0,0,0,1.992,1.992h2.975a1.992,1.992,0,0,0,1.992-1.992v-2.975a1.992,1.992,0,0,0-1.992-1.992" transform="translate(-348.703 -473.094)" fill="#156089"/>
            <path id="パス_2990" data-name="パス 2990" d="M510.523,517.967h-2.975a1.992,1.992,0,0,0-1.992,1.992v2.975a1.992,1.992,0,0,0,1.992,1.992h2.975a1.992,1.992,0,0,0,1.992-1.992v-2.975a1.992,1.992,0,0,0-1.992-1.992" transform="translate(-461.927 -473.094)" fill="#156089"/>
          </g>
        </g>
      </g>
      <g id="グループ_2709" data-name="グループ 2709" transform="matrix(0.259, 0.966, -0.966, 0.259, 982.815, 1362.439)">
        <g id="グループ_2708" data-name="グループ 2708" transform="translate(-127.057 -107.07)" clip-path="url(#clip-path-3)">
          <path id="パス_2991" data-name="パス 2991" d="M18.124,64.642A57.81,57.81,0,0,1,74.74,18.5" transform="translate(73.985 31.013) rotate(16)" fill="none" stroke="#156089" stroke-miterlimit="10" stroke-width="8" stroke-dasharray="4 17"/>
        </g>
      </g>
    </g>
  </g>
</svg>
