<svg xmlns="http://www.w3.org/2000/svg" xmlns:xlink="http://www.w3.org/1999/xlink" width="142.497" height="119.943" viewBox="0 0 142.497 119.943">
  <defs>
    <clipPath id="clip-path">
      <rect id="長方形_194" data-name="長方形 194" width="56.282" height="34.404" fill="#e96f45"/>
    </clipPath>
    <clipPath id="clip-path-2">
      <rect id="長方形_192" data-name="長方形 192" width="73.943" height="75.281" fill="#ffc46f"/>
    </clipPath>
  </defs>
  <g id="グループ_3140" data-name="グループ 3140" transform="translate(-128 -1194.798)">
    <g id="グループ_2702" data-name="グループ 2702" transform="translate(128 1194.798)">
      <g id="グループ_202" data-name="グループ 202" transform="translate(0 0)" clip-path="url(#clip-path)">
        <path id="パス_838" data-name="パス 838" d="M29.046,2.493a1.587,1.587,0,0,0-1.116.723C26.319,5,24.69,6.768,23.121,8.59c-.786.913-1.408.923-2.2.007-1.6-1.851-3.3-3.623-4.894-5.481-.579-.674-.915-.615-1.459.014-1.574,1.817-3.232,3.562-4.8,5.385-.8.938-1.431,1.046-2.295.054-2.024-2.327-4.114-4.6-6.192-6.876C.876,1.248.594.919,1.216.373c.6-.525.943-.436,1.433.123,1.734,1.978,3.533,3.9,5.26,5.885.521.6.844.61,1.364.013C10.79,4.649,12.359,2.947,13.9,1.224c1.3-1.451,1.493-1.452,2.842.044,1.519,1.685,3.067,3.344,4.539,5.068.569.666.9.644,1.46,0,1.542-1.784,3.141-3.519,4.719-5.272,1.089-1.209,1.4-1.221,2.475-.04,1.618,1.778,3.244,3.55,4.818,5.367.529.612.851.568,1.357-.012,1.58-1.811,3.2-3.584,4.817-5.367C41.958-.125,42.3-.135,43.311.981c1.588,1.744,3.2,3.469,4.722,5.268.66.781,1.034.68,1.647-.03C51.338,4.3,53.074,2.44,54.758.539c.438-.5.757-.807,1.416-.219s.366.955-.071,1.435c-2.075,2.282-4.152,4.563-6.191,6.876-.745.844-1.352.884-2.108.016-1.61-1.845-3.3-3.62-4.894-5.48-.609-.711-.961-.685-1.553.007-1.5,1.758-3.075,3.456-4.623,5.176-1.2,1.335-1.385,1.338-2.636-.039Q31.764,5.744,29.459,3.15a3.657,3.657,0,0,1-.413-.657" transform="translate(-0.282 0)" fill="#e96f45"/>
        <path id="パス_839" data-name="パス 839" d="M27.572,39.936a7.915,7.915,0,0,1-.556.767c-1.6,1.8-3.228,3.563-4.8,5.379-.743.856-1.35.885-2.106.019-1.612-1.844-3.3-3.619-4.9-5.478-.61-.711-.965-.675-1.554.009-1.538,1.788-3.139,3.521-4.722,5.269-1.067,1.178-1.327,1.189-2.355.056C4.538,43.705,2.517,41.435.468,39.19c-.442-.484-.753-.822-.069-1.414.666-.577.989-.266,1.426.225C3.541,39.935,5.3,41.827,7,43.782c.549.635.869.705,1.449.028,1.562-1.826,3.19-3.6,4.8-5.378,1.01-1.115,1.362-1.113,2.391.018,1.527,1.677,3.083,3.331,4.532,5.073.721.865,1.145.99,1.922.043,1.467-1.786,3.094-3.439,4.6-5.193.832-.969,1.505-.932,2.323.011,1.513,1.749,3.149,3.395,4.608,5.187.8.976,1.222.775,1.92-.053,1.491-1.767,3.094-3.439,4.609-5.187.786-.908,1.44-.9,2.223,0,1.519,1.744,3.165,3.384,4.609,5.185.846,1.055,1.3.79,2.023-.058,1.56-1.829,3.2-3.588,4.8-5.382.434-.486.761-.984,1.511-.3.783.717.191,1.089-.211,1.538-2,2.231-4.031,4.428-5.992,6.69-.856.988-1.489.9-2.3-.041-1.539-1.786-3.183-3.483-4.714-5.276-.622-.729-1-.81-1.655-.034-1.554,1.833-3.222,3.568-4.79,5.39-.8.929-1.419.884-2.2-.017-1.574-1.817-3.208-3.581-4.823-5.361a1.711,1.711,0,0,0-1.068-.737" transform="translate(0 -12.392)" fill="#e96f45"/>
        <path id="パス_840" data-name="パス 840" d="M56,19.591a8.5,8.5,0,0,1-.51.705c-2.093,2.328-4.213,4.631-6.279,6.982-.8.91-1.428.9-2.21-.008-1.483-1.716-3.1-3.319-4.513-5.09-.893-1.119-1.376-.966-2.2.05-1.307,1.622-2.767,3.122-4.166,4.67-1.362,1.505-1.5,1.506-2.825.038-1.517-1.687-3.06-3.351-4.533-5.075-.585-.686-.939-.735-1.55-.017-1.559,1.829-3.228,3.564-4.792,5.39-.832.972-1.479.953-2.3-.006-1.566-1.823-3.235-3.559-4.792-5.389-.614-.722-.959-.66-1.542.021-1.5,1.758-3.074,3.458-4.626,5.174-1.19,1.314-1.4,1.325-2.547.062C4.6,24.882,2.612,22.646.594,20.434c-.443-.485-.729-.841-.059-1.427s.984-.267,1.422.227c1.716,1.935,3.481,3.826,5.173,5.781.562.65.894.668,1.461.009,1.509-1.753,3.086-3.447,4.634-5.167,1.214-1.349,1.473-1.354,2.654-.043,1.58,1.752,3.183,3.483,4.728,5.265.527.607.845.574,1.356-.013,1.548-1.78,3.146-3.515,4.727-5.266,1.153-1.277,1.439-1.281,2.565-.032,1.55,1.718,3.135,3.406,4.629,5.171.655.773,1.026.693,1.644-.029,1.532-1.793,3.137-3.523,4.723-5.27.969-1.066,1.335-1.069,2.292-.014,1.524,1.679,3.073,3.339,4.534,5.073.735.872,1.19,1.083,2.031.054,1.576-1.93,3.307-3.736,4.987-5.579.247-.27.461-.783.974-.416a11.2,11.2,0,0,1,.931.834" transform="translate(-0.046 -6.165)" fill="#e96f45"/>
      </g>
    </g>
    <g id="グループ_2704" data-name="グループ 2704" transform="translate(270.497 1240.798) rotate(90)">
      <g id="グループ_198" data-name="グループ 198" clip-path="url(#clip-path-2)">
        <path id="パス_813" data-name="パス 813" d="M58.359,37.647q0-18.266-.016-36.532c0-.819.21-1.1,1.06-1.091C61.62.04,61.62,0,61.62,2.257q0,35.752,0,71.5c0,1.533.292,1.454-1.4,1.447-2.157-.009-1.846.259-1.848-1.815q-.016-17.873,0-35.746" transform="translate(-26.299 -0.01)" fill="#ffc46f"/>
        <path id="パス_814" data-name="パス 814" d="M11.518,37.658q0-18.265-.022-36.53c0-.947.35-1.1,1.169-1.1,2.119.023,2.12-.008,2.12,2.113q0,35.8,0,71.609c0,1.511.291,1.465-1.4,1.458-2.177-.01-1.851.241-1.853-1.81q-.016-17.873,0-35.744" transform="translate(-5.182 -0.014)" fill="#ffc46f"/>
        <path id="パス_815" data-name="パス 815" d="M108.444,37.759c0,12.064-.014,24.128.025,36.193,0,1.031-.274,1.321-1.288,1.284-1.977-.072-1.98-.016-1.979-2.044q.015-30.271.029-60.541c0-3.835.009-7.67-.049-11.5-.013-.9.275-1.136,1.139-1.122,2.123.034,2.124,0,2.124,2.1Z" transform="translate(-47.412 -0.011)" fill="#ffc46f"/>
        <path id="パス_816" data-name="パス 816" d="M38.174,37.632c0,12.072-.013,24.145.023,36.217,0,1.041-.2,1.441-1.326,1.383-1.875-.094-1.878-.021-1.878-1.9q0-35.995-.027-71.99c0-1.113.316-1.375,1.366-1.328,1.839.082,1.842.02,1.842,1.85v35.77" transform="translate(-15.761 -0.003)" fill="#ffc46f"/>
        <path id="パス_817" data-name="パス 817" d="M49.9,37.644c0,12.11-.015,24.219.027,36.329,0,1.064-.324,1.3-1.307,1.267-1.895-.065-1.9-.014-1.9-1.9q0-35.881,0-71.762c0-1.7-.242-1.5,1.685-1.538.905-.019,1.536-.09,1.529,1.273-.069,12.109-.04,24.219-.04,36.329" transform="translate(-21.06 -0.016)" fill="#ffc46f"/>
        <path id="パス_818" data-name="パス 818" d="M128.6,37.589c0-12.068.013-24.137-.024-36.206,0-1.038.19-1.436,1.318-1.375,2.258.121,1.922-.247,1.923,2q.012,35.756-.007,71.512c0,.529.31,1.328-.23,1.546a5.182,5.182,0,0,1-2.75.055c-.4-.067-.222-.574-.224-.882-.013-3.054-.008-6.109-.008-9.163Z" transform="translate(-57.953 -0.001)" fill="#ffc46f"/>
        <path id="パス_819" data-name="パス 819" d="M81.78,37.612c0-12.066.017-24.132-.028-36.2,0-1.128.263-1.471,1.4-1.407,2.133.119,1.821-.218,1.821,1.871q.012,35.974-.007,71.946c0,.444.286,1.162-.281,1.29a5.176,5.176,0,0,1-2.749-.049c-.342-.114-.15-.677-.15-1.032q-.013-18.21-.007-36.421" transform="translate(-36.842 0)" fill="#ffc46f"/>
        <path id="パス_820" data-name="パス 820" d="M93.54,37.52c0-12.071.014-24.142-.024-36.213,0-1.035.28-1.331,1.3-1.292C96.7.088,96.7.031,96.7,1.91q0,35.934,0,71.867c0,1.524.283,1.414-1.425,1.43a3.268,3.268,0,0,0-.447,0c-.985.148-1.316-.192-1.312-1.255.041-12.145.026-24.29.026-36.435" transform="translate(-42.153 -0.005)" fill="#ffc46f"/>
        <path id="パス_821" data-name="パス 821" d="M23.208,37.655c0-12.181.013-24.362-.024-36.543,0-.96.354-1.09,1.162-1.079,2.023.026,2.023,0,2.023,1.99V73.768c0,1.447,0,1.447-1.426,1.448a3.865,3.865,0,0,0-.559,0c-.894.135-1.2-.169-1.2-1.136.04-11.882.032-23.765.037-35.648v-.782h-.014" transform="translate(-10.451 -0.014)" fill="#ffc46f"/>
        <path id="パス_822" data-name="パス 822" d="M120.045,37.63V73.72c0,1.487,0,1.487-1.514,1.487a5.451,5.451,0,0,0-.67,0c-.771.1-1.018-.206-1.011-1,.038-3.835.017-7.672.017-11.508q0-30.615,0-61.231c0-1.436,0-1.437,1.447-1.438a5.048,5.048,0,0,0,.67,0c.825-.112,1.087.213,1.08,1.057-.04,4.246-.018,8.491-.018,12.737v23.8" transform="translate(-52.672 -0.006)" fill="#ffc46f"/>
        <path id="パス_823" data-name="パス 823" d="M73.2,37.651V73.744c0,1.464,0,1.465-1.415,1.466a6.17,6.17,0,0,0-.781,0c-.8.1-.988-.249-.987-1.012q.03-30.617.019-61.234c0-3.911.038-7.822-.031-11.732C69.983.2,70.326-.006,71.267.021,73.195.078,73.2.03,73.2,2V37.651" transform="translate(-31.554 -0.008)" fill="#ffc46f"/>
        <path id="パス_824" data-name="パス 824" d="M3.137,37.628c0,12.069-.018,24.139.029,36.209,0,1.141-.289,1.571-1.4,1.376a1.429,1.429,0,0,0-.446,0C.326,75.357,0,75.01,0,73.949c.04-12.33.026-24.661.026-36.992C.026,25.074.04,13.191,0,1.307,0,.252.316-.017,1.315.019,3.134.085,3.137.032,3.137,1.867V37.628" transform="translate(0 -0.007)" fill="#ffc46f"/>
      </g>
    </g>
  </g>
</svg>
