<svg xmlns="http://www.w3.org/2000/svg" width="815.852" height="60.584" viewBox="0 0 815.852 60.584">
  <g id="job_illust-kensaku" transform="translate(-255.82 -3508.172)">
    <g id="グループ_2766" data-name="グループ 2766">
      <rect id="長方形_401" data-name="長方形 401" width="755.272" height="55.584" transform="translate(258.32 3510.672)" fill="#fff" stroke="#156089" stroke-width="5"/>
      <path id="パス_3640" data-name="パス 3640" d="M-345.144-10.9v-2.4h-5.136V-16.08H-352.9V-13.3h-4.92v2.4h3.792a13.809,13.809,0,0,1-4.464,5.472A12.071,12.071,0,0,1-356.76-3.48,14.9,14.9,0,0,0-352.9-8.3v5.952h2.616V-8.4a14.8,14.8,0,0,0,3.768,4.776,11.118,11.118,0,0,1,1.848-2.112,13.329,13.329,0,0,1-4.56-5.16Zm-13.68,9.36v-15.12h14.616v15.12ZM-361.68-19.3V2.136h2.856V1.1h14.616V2.136h2.976V-19.3Zm26.832,9.144,1.248,3.12c2.04-.864,6.84-2.856,9.624-2.856,2.088,0,3.432,1.248,3.432,3.048,0,3.264-4.032,4.728-9.528,4.872L-328.8.984c7.632-.48,11.448-3.432,11.448-7.776,0-3.624-2.544-5.88-6.336-5.88-2.9,0-6.984,1.368-8.616,1.872C-333.024-10.584-334.128-10.3-334.848-10.152Zm35.856,4.3-2.856-.288a16.784,16.784,0,0,0-.432,3.216c0,2.424,2.184,3.816,6.216,3.816a38.526,38.526,0,0,0,4.9-.336l.12-3.072a28.166,28.166,0,0,1-4.992.5c-2.568,0-3.288-.792-3.288-1.848A8.222,8.222,0,0,1-298.992-5.856Zm-2.712-13.3-3.672-.288a12.3,12.3,0,0,1-.072,2.424q-.072.576-.216,1.368-1.116.072-2.16.072a23.751,23.751,0,0,1-3.024-.192l.072,3c.84.048,1.752.1,2.9.1.5,0,1.032-.024,1.584-.048-.144.7-.336,1.368-.5,2.016A51.963,51.963,0,0,1-310.944.1l3.336,1.128a74.574,74.574,0,0,0,3.816-11.112c.264-.984.5-2.04.72-3.072a44.181,44.181,0,0,0,4.68-.792v-3c-1.32.312-2.664.576-4.008.768.072-.336.144-.648.192-.912C-302.112-17.424-301.9-18.5-301.7-19.152Zm1.416,7.248V-9.1a41.236,41.236,0,0,1,4.632-.24,35.184,35.184,0,0,1,4.128.288l.072-2.88a42.2,42.2,0,0,0-4.224-.216C-297.216-12.144-298.944-12.024-300.288-11.9Zm17.64-5.544v3.168c1.944.168,4.032.264,6.552.264,2.28,0,5.256-.144,6.936-.288V-17.5c-1.848.192-4.584.336-6.96.336A62.959,62.959,0,0,1-282.648-17.448Zm2.016,10.176-3.144-.288a15.525,15.525,0,0,0-.48,3.456c0,3.288,2.76,5.136,8.256,5.136a36.983,36.983,0,0,0,8.328-.816l-.024-3.384a32.954,32.954,0,0,1-8.424.96c-3.456,0-4.92-1.1-4.92-2.64A8.844,8.844,0,0,1-280.632-7.272Zm25.872-11.856-3,1.224c1.08,2.544,2.232,5.112,3.336,7.152-2.3,1.7-3.984,3.7-3.984,6.336,0,4.128,3.624,5.448,8.4,5.448a44.572,44.572,0,0,0,7.7-.6l.048-3.456a37.051,37.051,0,0,1-7.848.888c-3.336,0-4.992-.912-4.992-2.64,0-1.68,1.344-3.048,3.336-4.368a71.042,71.042,0,0,1,6.7-3.552c.888-.456,1.656-.864,2.376-1.3l-1.656-2.784a15,15,0,0,1-2.232,1.464c-1.128.648-3.216,1.68-5.184,2.832A57.01,57.01,0,0,1-254.76-19.128Zm18.192,8.328,1.416,3.048c1.032-.456,2.544-1.272,4.272-2.136.216.48.432.984.648,1.488a74.381,74.381,0,0,1,3.216,9.984l3.288-.864c-.792-2.688-2.64-7.824-3.768-10.44-.216-.48-.432-.984-.672-1.488,2.568-1.176,5.184-2.16,7.056-2.16,1.8,0,2.88.984,2.88,2.208,0,1.728-1.32,2.712-3.12,2.712a9.067,9.067,0,0,1-3.336-.816l-.072,3.024a11.809,11.809,0,0,0,3.7.672c3.672,0,5.976-2.136,5.976-5.5,0-2.784-2.232-5.04-5.952-5.04a12.247,12.247,0,0,0-3.456.576l1.9-1.392a37.106,37.106,0,0,0-3.48-3.072l-2.208,1.536a39.248,39.248,0,0,1,3.312,3.072c-1.392.456-2.856,1.056-4.32,1.7-.384-.816-.768-1.584-1.128-2.28-.264-.456-.744-1.44-.96-1.872l-3.12,1.2a20.289,20.289,0,0,1,1.416,2.112c.36.624.72,1.32,1.056,2.04-.72.312-1.464.624-2.16.912A19.988,19.988,0,0,1-236.568-10.8Zm37.968-8.136a40.756,40.756,0,0,0,5.016,7.368h-12.96a28.785,28.785,0,0,0,4.752-7.56l-3.072-.888a19.9,19.9,0,0,1-7.08,8.976,17.164,17.164,0,0,1,2.448,2.3,18.081,18.081,0,0,0,1.92-1.728v1.68h4.056c-.48,3.5-1.728,6.648-7.152,8.4a9.562,9.562,0,0,1,1.9,2.64C-202.56-.072-201-4.176-200.4-8.784h4.728c-.216,5.016-.48,7.152-.96,7.656a1.113,1.113,0,0,1-.96.336c-.6,0-1.848-.024-3.168-.12a6.9,6.9,0,0,1,.936,2.88A24.01,24.01,0,0,0-196.2,1.9,2.9,2.9,0,0,0-194.016.768c.84-1.008,1.128-3.84,1.392-11.088v-.168c.528.552,1.032,1.08,1.536,1.536a13.671,13.671,0,0,1,2.424-2.568,27.634,27.634,0,0,1-7.128-8.544Zm22.608-.024-3.576-.36a26.6,26.6,0,0,1-.5,5.088c-1.224.1-2.352.168-3.1.192a22.916,22.916,0,0,1-2.568,0l.288,3.264c.72-.12,1.992-.288,2.664-.408.456-.048,1.2-.144,2.064-.24-.864,3.288-2.52,8.136-4.848,11.28l3.12,1.248c2.208-3.528,3.984-9.216,4.9-12.864.672-.048,1.272-.1,1.656-.1,1.512,0,2.328.264,2.328,2.184a19.1,19.1,0,0,1-.96,6.648,1.779,1.779,0,0,1-1.8,1.032,14.061,14.061,0,0,1-2.952-.5l.528,3.168a15.526,15.526,0,0,0,2.88.336c1.8,0,3.144-.528,3.936-2.208,1.032-2.088,1.368-5.976,1.368-8.808,0-3.456-1.8-4.584-4.344-4.584-.5,0-1.224.048-2.016.1.168-.864.336-1.752.5-2.472C-176.3-17.568-176.136-18.336-175.992-18.96Zm8.256,2.256-2.856,1.224c1.7,2.112,3.408,6.456,4.032,9.12l3.048-1.416A41.482,41.482,0,0,0-167.736-16.7Zm13.872-2.616-.768,2.88c1.872.48,7.224,1.608,9.648,1.92l.72-2.928A73.458,73.458,0,0,1-153.864-19.32Zm.144,4.824-3.216-.456a88.541,88.541,0,0,1-1.2,10.032l2.76.7a5.815,5.815,0,0,1,.888-1.392,8.544,8.544,0,0,1,6.672-2.832c2.088,0,3.576,1.152,3.576,2.712,0,3.048-3.816,4.8-11.016,3.816l.912,3.144c9.984.84,13.44-2.52,13.44-6.888,0-2.9-2.448-5.5-6.648-5.5a11.748,11.748,0,0,0-7.08,2.28C-154.464-10.248-154.032-13.176-153.72-14.5Zm28.368-4.824-3.312-.336a20.183,20.183,0,0,1-.648,4.008c-.744.072-1.464.1-2.184.1a30.32,30.32,0,0,1-3.192-.168l.216,2.784c1.032.072,2.016.1,3,.1.408,0,.816,0,1.248-.024a37.813,37.813,0,0,1-4.9,8.472l2.9,1.488a44.222,44.222,0,0,0,5.136-10.272,41.637,41.637,0,0,0,4.2-.84l-.1-2.784a29.423,29.423,0,0,1-3.24.768C-125.856-17.328-125.544-18.552-125.352-19.32ZM-126.6-2.712c0-.84.888-1.464,2.28-1.464a8.622,8.622,0,0,1,1.944.24v.48c0,1.32-.5,2.232-2.16,2.232C-125.856-1.224-126.6-1.824-126.6-2.712Zm6.864-9.144h-3c.048,1.464.168,3.6.264,5.376-.552-.048-1.08-.1-1.656-.1-3.336,0-5.3,1.8-5.3,4.152,0,2.64,2.352,3.96,5.328,3.96,3.408,0,4.632-1.728,4.632-3.96v-.24A20.346,20.346,0,0,1-116.232-.1l1.608-2.568a15.7,15.7,0,0,0-4.968-3.072c-.048-1.2-.12-2.352-.144-3.048C-119.76-9.84-119.808-10.848-119.736-11.856Zm4.128,1.272,1.7-2.52a41.341,41.341,0,0,0-5.928-3.264l-1.536,2.376A34.639,34.639,0,0,1-115.608-10.584Zm10.368-6.576-3.7-.048a14.588,14.588,0,0,1,.192,2.448c0,1.464.024,4.272.264,6.48.672,6.432,2.952,8.808,5.592,8.808,1.92,0,3.432-1.464,5.016-5.64l-2.4-2.928c-.456,1.92-1.416,4.728-2.544,4.728-1.512,0-2.232-2.376-2.568-5.832-.144-1.728-.168-3.528-.144-5.088A19.417,19.417,0,0,1-105.24-17.16Zm12,.552-3.048.984c2.616,2.976,3.888,8.808,4.272,12.672l3.144-1.224C-89.136-7.848-90.96-13.848-93.24-16.608Zm12.192-.84v3.168c1.944.168,4.032.264,6.552.264,2.28,0,5.256-.144,6.936-.288V-17.5c-1.848.192-4.584.336-6.96.336A62.959,62.959,0,0,1-81.048-17.448Zm2.016,10.176-3.144-.288a15.526,15.526,0,0,0-.48,3.456c0,3.288,2.76,5.136,8.256,5.136A36.983,36.983,0,0,0-66.072.216L-66.1-3.168a32.954,32.954,0,0,1-8.424.96c-3.456,0-4.92-1.1-4.92-2.64A8.843,8.843,0,0,1-79.032-7.272ZM-53.16-19.128l-3,1.224c1.08,2.544,2.232,5.112,3.336,7.152-2.3,1.7-3.984,3.7-3.984,6.336,0,4.128,3.624,5.448,8.4,5.448a44.572,44.572,0,0,0,7.7-.6l.048-3.456a37.051,37.051,0,0,1-7.848.888c-3.336,0-4.992-.912-4.992-2.64,0-1.68,1.344-3.048,3.336-4.368a71.04,71.04,0,0,1,6.7-3.552c.888-.456,1.656-.864,2.376-1.3l-1.656-2.784a15,15,0,0,1-2.232,1.464c-1.128.648-3.216,1.68-5.184,2.832A57.009,57.009,0,0,1-53.16-19.128Zm21.288,8.064A1.936,1.936,0,0,0-33.816-9.12a1.936,1.936,0,0,0,1.944,1.944A1.936,1.936,0,0,0-29.928-9.12,1.936,1.936,0,0,0-31.872-11.064Zm7.992,0A1.936,1.936,0,0,0-25.824-9.12,1.936,1.936,0,0,0-23.88-7.176,1.936,1.936,0,0,0-21.936-9.12,1.936,1.936,0,0,0-23.88-11.064Zm7.992,0A1.936,1.936,0,0,0-17.832-9.12a1.936,1.936,0,0,0,1.944,1.944A1.936,1.936,0,0,0-13.944-9.12,1.936,1.936,0,0,0-15.888-11.064ZM.648-19.32l-3.312-.336a20.182,20.182,0,0,1-.648,4.008c-.744.072-1.464.1-2.184.1a30.32,30.32,0,0,1-3.192-.168l.216,2.784c1.032.072,2.016.1,3,.1.408,0,.816,0,1.248-.024a37.813,37.813,0,0,1-4.9,8.472l2.9,1.488A44.222,44.222,0,0,0-1.08-13.176a41.637,41.637,0,0,0,4.2-.84l-.1-2.784a29.422,29.422,0,0,1-3.24.768C.144-17.328.456-18.552.648-19.32ZM-.6-2.712c0-.84.888-1.464,2.28-1.464a8.622,8.622,0,0,1,1.944.24v.48c0,1.32-.5,2.232-2.16,2.232C.144-1.224-.6-1.824-.6-2.712Zm6.864-9.144h-3c.048,1.464.168,3.6.264,5.376-.552-.048-1.08-.1-1.656-.1-3.336,0-5.3,1.8-5.3,4.152,0,2.64,2.352,3.96,5.328,3.96,3.408,0,4.632-1.728,4.632-3.96v-.24A20.346,20.346,0,0,1,9.768-.1l1.608-2.568A15.7,15.7,0,0,0,6.408-5.736c-.048-1.2-.12-2.352-.144-3.048C6.24-9.84,6.192-10.848,6.264-11.856Zm4.128,1.272,1.7-2.52a41.341,41.341,0,0,0-5.928-3.264L4.632-13.992A34.639,34.639,0,0,1,10.392-10.584Zm17.976-7.248L24.96-19.2c-.408,1.008-.864,1.8-1.176,2.448A185.3,185.3,0,0,0,15.816.12L19.2,1.272A50.47,50.47,0,0,1,21.024-4.08c.864-1.944,2.208-3.624,3.84-3.624A1.317,1.317,0,0,1,26.28-6.36c.072.984.048,2.952.144,4.224C26.52-.384,27.768,1.2,30.432,1.2c3.672,0,5.9-2.736,7.152-6.84L34.992-7.752c-.7,2.976-1.968,5.664-4.056,5.664a1.4,1.4,0,0,1-1.56-1.3c-.12-1.008-.048-2.928-.1-4.008-.1-1.992-1.176-3.12-2.976-3.12a5.581,5.581,0,0,0-2.76.72c1.2-2.112,2.88-5.184,4.056-6.912C27.864-17.088,28.128-17.5,28.368-17.832Zm11.808,1.368.312,3.288c2.784-.6,7.68-1.128,9.936-1.368a9.6,9.6,0,0,0-3.576,7.416c0,5.208,4.752,7.9,9.792,8.232l1.128-3.288c-4.08-.216-7.776-1.632-7.776-5.592A7.293,7.293,0,0,1,55.08-14.5a24.933,24.933,0,0,1,4.632-.336L59.688-17.9c-1.7.072-4.32.216-6.792.432-4.392.36-8.352.72-10.368.888C42.072-16.536,41.136-16.488,40.176-16.464Zm16.1,3.984-1.776.744A18.518,18.518,0,0,1,56.376-8.4L58.2-9.216A29.789,29.789,0,0,0,56.28-12.48Zm2.688-1.1-1.752.816a21.114,21.114,0,0,1,1.968,3.24l1.8-.864A35.9,35.9,0,0,0,58.968-13.584Zm16.008-5.64-3.384-.192a12.856,12.856,0,0,1-.024,2.136c-.048.552-.12,1.2-.192,1.944a22.665,22.665,0,0,1-4.944-.912l-.168,2.76a28.183,28.183,0,0,0,4.776.864c-.12,1.08-.264,2.208-.408,3.288A22.055,22.055,0,0,1,65.9-10.3l-.168,2.9a26.852,26.852,0,0,0,4.608.792c-.1.984-.168,1.848-.168,2.424,0,4.008,2.664,5.64,6.432,5.64,5.256,0,8.52-2.592,8.52-6.216a8.945,8.945,0,0,0-2.328-5.76l-3.384.72C81-8.3,81.888-6.768,81.888-5.136c0,1.968-1.824,3.5-5.184,3.5-2.352,0-3.576-1.056-3.576-3.048,0-.432.048-1.032.1-1.752h.96c1.512,0,2.9-.1,4.248-.216L78.5-9.5a41.576,41.576,0,0,1-4.824.288h-.168c.12-1.08.264-2.208.408-3.264a43.253,43.253,0,0,0,4.68-.24l.1-2.856a33.852,33.852,0,0,1-4.392.336c.1-.792.192-1.44.264-1.848A21.484,21.484,0,0,1,74.976-19.224ZM106.2-.96c-.744,0-.864-.12-.864-.912V-7.7h6.288v-2.76h-9.24v-3.888h7.368v-2.736h-7.368v-3.24h-2.9v3.24h-3.1c.264-.816.5-1.584.72-2.328l-2.928-.576a20,20,0,0,1-3.192,7.656,18.894,18.894,0,0,1,2.52,1.248,17.384,17.384,0,0,0,1.848-3.264H99.48v3.888H90.288V-7.7h5.664C95.592-4.536,94.68-1.848,89.9-.288a9.07,9.07,0,0,1,1.776,2.52C97.2.144,98.424-3.432,98.952-7.7h3.5v5.832c0,2.712.624,3.6,3.312,3.6h2.784c2.232,0,3-1.032,3.288-4.824a7.923,7.923,0,0,1-2.592-1.152c-.1,2.832-.24,3.288-.96,3.288Zm14.352-2.9v-.792h4.176v.792Zm0-2.88h4.176v.768h-4.176Zm11.376,0v.768h-4.392v-.768Zm0,2.88h-4.392v-.792h4.392ZM136.7-1.728h-9.168V-2.5h7.176v-5.64h-7.176v-.7h8.4v-1.8h-8.4v-.528h2.4v-1.584h6.744v-1.608h-6.744v-.768h5.88v-1.56h-5.88v-.768h6.288v-1.608h-6.288V-20.3H127.32v8.376h-2.592v1.3h-2.616a4.644,4.644,0,0,0,2.9-4.44v-5.256h-2.568v1.272h-6.24v1.608h6.24v.768H116.76v1.56h5.688v.024a4.82,4.82,0,0,1-.024.6c-2.592.144-5.088.24-6.936.312l.168,1.656c1.7-.1,3.84-.216,6.024-.384a5.973,5.973,0,0,1-3.552,1.176,12.436,12.436,0,0,1,.912,1.1h-2.568v1.8h8.256v.7h-6.864V-2.5h6.864v.768h-9.192V.144h9.192v1.92h2.808V.144H136.7Zm13.368-15.048V-13.7a64.415,64.415,0,0,0,10.32,0v-3.1A49.352,49.352,0,0,1,150.072-16.776Zm1.92,10.248-2.76-.264a14.662,14.662,0,0,0-.408,3.12c0,2.472,1.992,3.936,6.12,3.936a33.989,33.989,0,0,0,6.192-.456l-.048-3.24a28.37,28.37,0,0,1-6.024.624c-2.448,0-3.36-.648-3.36-1.7A8.146,8.146,0,0,1,151.992-6.528Zm-5.616-11.856-3.36-.288c-.024.768-.168,1.68-.24,2.352a66.924,66.924,0,0,0-1.008,9.5,30.68,30.68,0,0,0,.936,7.848L145.488.84c-.024-.336-.048-.72-.048-.984a7.241,7.241,0,0,1,.12-1.128c.264-1.272,1.056-3.888,1.728-5.88L145.8-8.328c-.336.792-.72,1.632-1.08,2.448a11.581,11.581,0,0,1-.1-1.56,63.656,63.656,0,0,1,1.152-8.808C145.872-16.68,146.184-17.88,146.376-18.384Zm26.64.984v1.176h-3.768V-17.4Zm-3.768,4.248V-14.4h3.768v1.248Zm6.456,2.016v-8.28h-9.24v21.5h2.784V-11.136Zm2.616,3.912h-3.768v-.96h3.768Zm-3.768,4.176h3.768v1.032c-1.3.1-2.568.168-3.768.24Zm3.768-1.56h-3.768V-5.64h3.768Zm4.008-3.576v-1.968H170.64v1.968h1.416v6.552l-1.656.1L170.52.6c2.136-.192,4.944-.384,7.8-.6V1.416h2.568v-9.6ZM180-13.1v-1.3h3.888v1.3Zm3.888-4.3v1.176H180V-17.4Zm2.808-2.016h-9.408v8.328h6.6v9.816c0,.36-.12.48-.456.48-.36.024-1.44.024-2.448-.024a10.092,10.092,0,0,1,.84,2.832,8.033,8.033,0,0,0,3.792-.552c.84-.456,1.08-1.272,1.08-2.688Zm9.264,2.256-3.7-.048a14.588,14.588,0,0,1,.192,2.448c0,1.464.024,4.272.264,6.48.672,6.432,2.952,8.808,5.592,8.808,1.92,0,3.432-1.464,5.016-5.64l-2.4-2.928c-.456,1.92-1.416,4.728-2.544,4.728-1.512,0-2.232-2.376-2.568-5.832-.144-1.728-.168-3.528-.144-5.088A19.417,19.417,0,0,1,195.96-17.16Zm12,.552-3.048.984c2.616,2.976,3.888,8.808,4.272,12.672l3.144-1.224C212.064-7.848,210.24-13.848,207.96-16.608Zm7.944.1.312,3.288c2.784-.6,7.68-1.128,9.936-1.368A9.665,9.665,0,0,0,222.6-7.176c0,5.184,4.752,7.9,9.768,8.232L233.5-2.232c-4.056-.216-7.752-1.656-7.752-5.592a7.3,7.3,0,0,1,5.064-6.744,27.158,27.158,0,0,1,4.632-.312l-.024-3.072c-1.68.048-4.32.216-6.792.408-4.392.384-8.352.744-10.344.912C217.8-16.584,216.864-16.536,215.9-16.512ZM256.3-17.3l-2.808-2.472a16.681,16.681,0,0,1-1.848,2.04c-1.608,1.56-4.9,4.224-6.792,5.76-2.4,2.016-2.592,3.288-.192,5.328,2.184,1.872,5.712,4.872,7.176,6.384.72.72,1.416,1.488,2.088,2.232L256.728-.6c-2.448-2.376-7.008-5.976-8.808-7.488-1.3-1.128-1.32-1.392-.048-2.5,1.608-1.368,4.776-3.816,6.336-5.064C254.76-16.1,255.552-16.728,256.3-17.3ZM277.248-5.592l-2.88-.264a16.336,16.336,0,0,0-.408,3.216c0,2.424,2.184,3.816,6.216,3.816a34.444,34.444,0,0,0,4.9-.36l.12-3.048a28.073,28.073,0,0,1-4.992.48c-2.568,0-3.288-.792-3.288-1.848A8.414,8.414,0,0,1,277.248-5.592Zm-2.712-13.3-3.672-.288a12.506,12.506,0,0,1-.072,2.448q-.072.576-.216,1.368-1.116.072-2.16.072a23.49,23.49,0,0,1-3.024-.192l.072,3c.84.048,1.728.1,2.9.1.5,0,1.032-.024,1.584-.048-.168.672-.336,1.368-.5,2.016A52.493,52.493,0,0,1,265.3.384l3.336,1.128A77.414,77.414,0,0,0,272.448-9.6c.264-.984.5-2.064.72-3.1a44.182,44.182,0,0,0,4.68-.792v-3c-1.32.312-2.688.576-4.032.768.072-.312.144-.624.192-.888C274.1-17.136,274.344-18.216,274.536-18.888Zm1.416,7.272v2.808a35.918,35.918,0,0,1,4.632-.264,34.9,34.9,0,0,1,4.128.312l.072-2.88a42.2,42.2,0,0,0-4.224-.216A45.753,45.753,0,0,0,275.952-11.616Zm6.264-6.576-1.9.792a26.873,26.873,0,0,1,1.872,3.336l1.92-.84A33.013,33.013,0,0,0,282.216-18.192Zm2.832-1.08-1.9.768a25.446,25.446,0,0,1,1.944,3.312l1.9-.816A26.49,26.49,0,0,0,285.048-19.272Zm16.2,2.232c.144.408.288.912.48,1.464a50.241,50.241,0,0,1-9.216-.336l.048,3.072a64.357,64.357,0,0,0,10.248.1A31.536,31.536,0,0,0,305.064-8.4c-.744-.048-2.328-.192-3.5-.288l-.24,2.544c2.016.168,5.04.48,6.384.744l1.488-2.16a15.13,15.13,0,0,1-1.3-1.608,26.288,26.288,0,0,1-2.136-3.912,31.92,31.92,0,0,0,4.272-.864l-.384-3.024a36.141,36.141,0,0,1-4.92,1.1,28.063,28.063,0,0,1-1.008-3.768l-3.24.384C300.792-18.456,301.056-17.592,301.248-17.04Zm-3.936,9.312-3-.7A9.824,9.824,0,0,0,293.04-3.96c0,3.456,3.1,5.352,7.992,5.376A33.858,33.858,0,0,0,307.488.84l.168-3.024a33.146,33.146,0,0,1-6.432.576c-3.288,0-5.088-.864-5.088-2.88A5.782,5.782,0,0,1,297.312-7.728ZM320.52-17.16l-3.7-.048a14.59,14.59,0,0,1,.192,2.448c0,1.464.024,4.272.264,6.48.672,6.432,2.952,8.808,5.592,8.808,1.92,0,3.432-1.464,5.016-5.64l-2.4-2.928c-.456,1.92-1.416,4.728-2.544,4.728-1.512,0-2.232-2.376-2.568-5.832-.144-1.728-.168-3.528-.144-5.088A19.417,19.417,0,0,1,320.52-17.16Zm12,.552-3.048.984c2.616,2.976,3.888,8.808,4.272,12.672l3.144-1.224C336.624-7.848,334.8-13.848,332.52-16.608Zm17.736,10.44H352.7l.648-8.208.12-3.576h-3.984l.12,3.576ZM351.48.216A2.042,2.042,0,0,0,353.592-1.9a2.048,2.048,0,0,0-2.112-2.136A2.048,2.048,0,0,0,349.368-1.9,2.029,2.029,0,0,0,351.48.216Z" transform="translate(640 3548)"/>
    </g>
    <rect id="長方形_401-2" data-name="長方形 401" width="55.58" height="55.58" transform="translate(1013.592 3510.672)" fill="#f2ca7e" stroke="#156089" stroke-width="5"/>
    <path id="パス_3000" data-name="パス 3000" d="M310.278,42.943A14.519,14.519,0,0,0,328.6,44.75l4.964,4.962a2.2,2.2,0,0,0,3.112-3.11l-4.828-4.826a14.512,14.512,0,1,0-21.571,1.168Zm3.112-17.4a10.1,10.1,0,1,1-2.962,7.147A10.07,10.07,0,0,1,313.389,25.54Z" transform="translate(719.708 3504.196)" fill="#156089"/>
  </g>
</svg>
