<svg xmlns="http://www.w3.org/2000/svg" width="186.761" height="91.363" viewBox="0 0 186.761 91.363">
  <g id="グループ_3240" data-name="グループ 3240" transform="translate(-901.221 257.854)">
    <path id="パス_3611" data-name="パス 3611" d="M1087.078-214.726l-11.38-11.38a6.223,6.223,0,0,0-4.428-1.834,6.265,6.265,0,0,0-4.036,1.474l-1.136.958a6.562,6.562,0,0,0-5.342-2.758h-.1a6.58,6.58,0,0,0-6.048-4h-1.857a6.585,6.585,0,0,0-4.763,2.045,6.431,6.431,0,0,0-.606.759h-7.195a6.205,6.205,0,0,0-4.046-1.5H1031.9a6.209,6.209,0,0,0-3.815-1.3h-3.973a6.207,6.207,0,0,0-3.814,1.3h-4.236a6.231,6.231,0,0,0-4.824,2.285,10.553,10.553,0,0,0-5.039-1.275h-1.943a6.825,6.825,0,0,0-6.811-6.547h-4.041a6.824,6.824,0,0,0-6.816,6.817v.024a9.377,9.377,0,0,0-2.3-.294h-11.56c-.1,0-.2.012-.305.015a6.562,6.562,0,0,0-1.545-4.028,6.564,6.564,0,0,0-5.025-2.333H961a6.578,6.578,0,0,0-2.748.6c-.124-.057-.254-.1-.382-.152a6.113,6.113,0,0,0-.481-8.1l-4.554-4.555a6.084,6.084,0,0,0-4.324-1.787,6.1,6.1,0,0,0-4.123,1.6l-1.028.937-.065-1.392a6.111,6.111,0,0,0-6.111-5.836h-6.437a6.11,6.11,0,0,0-6.113,5.838l-.064,1.391-1.027-.936a6.106,6.106,0,0,0-4.125-1.6,6.084,6.084,0,0,0-4.329,1.793l-4.542,4.545a6.107,6.107,0,0,0-.2,8.453l.939,1.03-1.386.064a6.108,6.108,0,0,0-5.842,6.113v6.436a6.109,6.109,0,0,0,5.837,6.113l1.39.064-.938,1.029a6.115,6.115,0,0,0,.2,8.451l4.548,4.546a6.076,6.076,0,0,0,4.273,1.792,5.5,5.5,0,0,0-1.4,3.67v4.716a5.512,5.512,0,0,0,4.272,5.381,5.517,5.517,0,0,0,.784,6.826l3.336,3.333a5.481,5.481,0,0,0,3.9,1.618,5.505,5.505,0,0,0,2.921-.836,5.513,5.513,0,0,0,5.381,4.275h4.717a5.5,5.5,0,0,0,2.87-.806,9.487,9.487,0,0,0,8.395,5.086h7.04a9.472,9.472,0,0,0,7.676-3.92l1.486.657a6.362,6.362,0,0,0,2.589.548h0a6.393,6.393,0,0,0,2.191-.392,6.907,6.907,0,0,0,5.764,3.107h13a9.714,9.714,0,0,0,6.655-2.64,9.674,9.674,0,0,0,6.639,2.64h15.5a6.806,6.806,0,0,0,6.083-3.773c.261.312.54.616.84.911a8.892,8.892,0,0,0,6.268,2.543H1047.1a6.839,6.839,0,0,0,6.832-6.831v-1.714a6.794,6.794,0,0,0-.768-3.146l.038-.03a12.873,12.873,0,0,0,1.708,2.306c.169.179.346.35.524.517a13.87,13.87,0,0,0-.014,1.575,9.159,9.159,0,0,0,8.436,8.677q.219.017.438.017c.147,0,.292-.006.438-.017a9.156,9.156,0,0,0,8.436-8.673,13.8,13.8,0,0,0-.013-1.579c.179-.167.355-.338.521-.514a12.816,12.816,0,0,0,3.48-8.8,12.765,12.765,0,0,0-1.765-6.472,5.716,5.716,0,0,0-.385-7.657,5.717,5.717,0,0,0-6.165-1.264,5.738,5.738,0,0,0-2.006-1.661,6.236,6.236,0,0,0,.476-2.06,6.276,6.276,0,0,0,1.613-.981l2.048-1.727,7.25,7.25a6.214,6.214,0,0,0,4.423,1.835h0a6.255,6.255,0,0,0,4.281-1.687,6.28,6.28,0,0,0,1.985-4.575V-210.3A6.224,6.224,0,0,0,1087.078-214.726Z" transform="translate(-0.929 -0.941)" fill="#4287c6"/>
    <circle id="楕円形_149" data-name="楕円形 149" cx="7.923" cy="7.923" r="7.923" transform="translate(1064.032 -212.937)" fill="#fff"/>
    <path id="パス_3612" data-name="パス 3612" d="M955.2-237.277l-1.392-.064.943-1.035a6.116,6.116,0,0,0-.2-8.444L950-251.375a6.084,6.084,0,0,0-4.324-1.787,6.1,6.1,0,0,0-4.123,1.6l-1.028.937-.065-1.392a6.11,6.11,0,0,0-6.111-5.835h-6.437a6.109,6.109,0,0,0-6.113,5.837l-.064,1.391-1.027-.936a6.106,6.106,0,0,0-4.125-1.6,6.088,6.088,0,0,0-4.329,1.793l-4.542,4.545a6.107,6.107,0,0,0-.2,8.453l.939,1.03-1.386.064a6.108,6.108,0,0,0-5.842,6.113v6.436a6.108,6.108,0,0,0,5.837,6.113l1.39.064-.938,1.029a6.115,6.115,0,0,0,.2,8.451l4.548,4.546a6.078,6.078,0,0,0,4.329,1.795,6.122,6.122,0,0,0,4.124-1.6l1.027-.936.064,1.392a6.112,6.112,0,0,0,6.113,5.834h6.437a6.111,6.111,0,0,0,6.111-5.836l.065-1.391,1.031.941a6.109,6.109,0,0,0,4.12,1.594A6.086,6.086,0,0,0,950-204.523l4.551-4.552a6.127,6.127,0,0,0,.193-8.449l-.937-1.027,1.386-.064a6.108,6.108,0,0,0,5.839-6.113v-6.436A6.106,6.106,0,0,0,955.2-237.277Z" transform="translate(0)" fill="#fff"/>
    <path id="パス_3613" data-name="パス 3613" d="M963.553-185.8a5.519,5.519,0,0,0-.783-6.826l-3.34-3.341a5.493,5.493,0,0,0-3.9-1.611,5.517,5.517,0,0,0-2.921.835,5.515,5.515,0,0,0-5.379-4.273h-4.717a5.515,5.515,0,0,0-5.381,4.274,5.5,5.5,0,0,0-2.921-.835,5.493,5.493,0,0,0-3.906,1.618l-3.328,3.33a5.513,5.513,0,0,0-.787,6.829,5.513,5.513,0,0,0-4.272,5.38v4.716a5.512,5.512,0,0,0,4.272,5.381,5.518,5.518,0,0,0,.784,6.826l3.336,3.333a5.483,5.483,0,0,0,3.9,1.618,5.5,5.5,0,0,0,2.92-.836,5.515,5.515,0,0,0,5.381,4.275h4.717a5.511,5.511,0,0,0,5.379-4.273,5.511,5.511,0,0,0,2.921.835h0a5.49,5.49,0,0,0,3.906-1.618l3.336-3.336a5.519,5.519,0,0,0,.778-6.823,5.511,5.511,0,0,0,4.275-5.381v-4.716A5.513,5.513,0,0,0,963.553-185.8Z" transform="translate(-6.788 -18.642)" fill="#fff"/>
    <path id="パス_3614" data-name="パス 3614" d="M964.581-179.131l-4.009-.185a.942.942,0,0,1-.829-.582l-.827-1.988a.947.947,0,0,1,.177-1l2.7-2.967a.947.947,0,0,0-.03-1.305l-3.333-3.334a.947.947,0,0,0-1.306-.03l-2.966,2.7a.945.945,0,0,1-1,.175l-1.988-.825a.942.942,0,0,1-.581-.83l-.185-4.008a.945.945,0,0,0-.943-.9h-4.717a.947.947,0,0,0-.945.9l-.184,4.008a.942.942,0,0,1-.581.83l-1.988.825a.945.945,0,0,1-1-.175l-2.967-2.7a.947.947,0,0,0-1.306.03l-3.332,3.334a.945.945,0,0,0-.03,1.305l2.7,2.967a.943.943,0,0,1,.173,1l-.823,1.988a.944.944,0,0,1-.83.582l-4.008.185a.946.946,0,0,0-.9.944v4.716a.946.946,0,0,0,.9.944l4.008.185a.944.944,0,0,1,.83.582l.823,1.988a.943.943,0,0,1-.173,1l-2.7,2.966a.946.946,0,0,0,.029,1.306l3.336,3.334a.946.946,0,0,0,1.305.031l2.966-2.7a.946.946,0,0,1,1-.175l1.988.824a.944.944,0,0,1,.581.831l.184,4.008a.947.947,0,0,0,.945.9h4.717a.945.945,0,0,0,.943-.9l.186-4.008a.944.944,0,0,1,.581-.831l1.988-.824a.945.945,0,0,1,1,.175l2.966,2.7a.947.947,0,0,0,1.306-.031l3.333-3.334a.948.948,0,0,0,.03-1.306l-2.7-2.966a.944.944,0,0,1-.176-1l.826-1.988a.943.943,0,0,1,.829-.582l4.009-.185a.945.945,0,0,0,.9-.944v-4.716A.945.945,0,0,0,964.581-179.131Zm-17.476,9.3a6,6,0,0,1-6-6,6,6,0,0,1,6-6,6,6,0,0,1,6,6A6,6,0,0,1,947.105-169.826Z" transform="translate(-9.022 -20.876)" fill="#e96f45"/>
    <path id="パス_3615" data-name="パス 3615" d="M957.335-230.095l-5.471-.253a1.285,1.285,0,0,1-1.131-.794l-1.128-2.713a1.292,1.292,0,0,1,.241-1.363l3.69-4.049a1.292,1.292,0,0,0-.041-1.781l-4.549-4.55a1.293,1.293,0,0,0-1.784-.04l-4.047,3.69a1.289,1.289,0,0,1-1.364.239l-2.713-1.125a1.286,1.286,0,0,1-.793-1.133l-.253-5.469a1.291,1.291,0,0,0-1.288-1.231h-6.437a1.292,1.292,0,0,0-1.289,1.231l-.251,5.469a1.287,1.287,0,0,1-.793,1.133l-2.714,1.125a1.286,1.286,0,0,1-1.363-.239l-4.05-3.69a1.292,1.292,0,0,0-1.783.04l-4.547,4.55a1.289,1.289,0,0,0-.042,1.781l3.69,4.049a1.285,1.285,0,0,1,.237,1.363l-1.123,2.713a1.289,1.289,0,0,1-1.133.794l-5.469.253a1.29,1.29,0,0,0-1.231,1.288v6.436a1.292,1.292,0,0,0,1.231,1.288l5.469.253a1.288,1.288,0,0,1,1.133.794l1.123,2.713a1.285,1.285,0,0,1-.237,1.363l-3.69,4.047a1.291,1.291,0,0,0,.04,1.783l4.552,4.55a1.291,1.291,0,0,0,1.781.041l4.047-3.691a1.29,1.29,0,0,1,1.364-.239l2.713,1.124a1.287,1.287,0,0,1,.793,1.134l.252,5.469a1.293,1.293,0,0,0,1.289,1.231H936.7a1.29,1.29,0,0,0,1.287-1.231l.254-5.469a1.287,1.287,0,0,1,.793-1.134l2.713-1.124a1.29,1.29,0,0,1,1.364.239l4.047,3.691a1.293,1.293,0,0,0,1.783-.041l4.549-4.55a1.294,1.294,0,0,0,.042-1.783l-3.69-4.047a1.285,1.285,0,0,1-.241-1.363l1.127-2.713a1.285,1.285,0,0,1,1.131-.794l5.471-.253a1.29,1.29,0,0,0,1.229-1.288v-6.436A1.288,1.288,0,0,0,957.335-230.095Zm-23.85,16.542a12.036,12.036,0,0,1-12.036-12.036,12.036,12.036,0,0,1,12.036-12.036,12.036,12.036,0,0,1,12.036,12.036A12.036,12.036,0,0,1,933.485-213.553Z" transform="translate(-2.357 -2.357)" fill="#ffb64b"/>
    <path id="パス_3616" data-name="パス 3616" d="M1099.286-208.745l-11.381-11.38a6.222,6.222,0,0,0-4.428-1.834,6.269,6.269,0,0,0-4.036,1.474l-1.136.958a6.562,6.562,0,0,0-5.342-2.759h-.1a6.581,6.581,0,0,0-6.048-4h-1.856a6.583,6.583,0,0,0-4.764,2.046,6.462,6.462,0,0,0-.605.758H1052.4a6.211,6.211,0,0,0-4.047-1.5h-4.236a6.209,6.209,0,0,0-3.815-1.3h-3.974a6.205,6.205,0,0,0-3.814,1.3h-4.236a6.231,6.231,0,0,0-4.824,2.285,10.551,10.551,0,0,0-5.039-1.275h-1.943a6.824,6.824,0,0,0-6.811-6.547h-4.041A6.824,6.824,0,0,0,998.8-223.7v.024a9.4,9.4,0,0,0-2.3-.294h-11.56c-.1,0-.2.012-.305.015a6.555,6.555,0,0,0-1.545-4.028,6.564,6.564,0,0,0-5.024-2.333h-4.863a6.585,6.585,0,0,0-2.748.6,6.58,6.58,0,0,0-2.749-.6h-3.69a6.585,6.585,0,0,0-2.748.6,6.587,6.587,0,0,0-2.749-.6H953.66a6.564,6.564,0,0,0-5.025,2.333,6.567,6.567,0,0,0-1.46,5.346l3.925,23.12a7.123,7.123,0,0,0,7.04,5.943h4.647a7.143,7.143,0,0,0,3.078-.694,7.118,7.118,0,0,0,2.4.655,6.944,6.944,0,0,0-2.284,5.144v5.928a9.5,9.5,0,0,0-8.712,9.452v2.983a9.493,9.493,0,0,0,9.483,9.483h7.041a9.476,9.476,0,0,0,7.676-3.92l1.485.657a6.363,6.363,0,0,0,2.589.548h0a6.387,6.387,0,0,0,2.191-.392,6.91,6.91,0,0,0,5.764,3.107h13a9.714,9.714,0,0,0,6.654-2.641,9.677,9.677,0,0,0,6.64,2.641h15.5a6.8,6.8,0,0,0,6.083-3.773c.262.311.54.616.84.911a8.892,8.892,0,0,0,6.269,2.543h10.827a6.838,6.838,0,0,0,6.832-6.831v-1.714a6.791,6.791,0,0,0-.768-3.146c.013-.009.025-.021.038-.03a12.871,12.871,0,0,0,1.708,2.3c.169.18.345.351.524.517a13.826,13.826,0,0,0-.015,1.576,9.16,9.16,0,0,0,8.436,8.677c.146.011.292.017.438.017s.292-.006.439-.017a9.158,9.158,0,0,0,8.436-8.673,13.9,13.9,0,0,0-.014-1.58c.179-.167.356-.337.521-.514a12.815,12.815,0,0,0,3.48-8.8,12.767,12.767,0,0,0-1.765-6.472,5.715,5.715,0,0,0-.385-7.656,5.715,5.715,0,0,0-6.165-1.264,5.726,5.726,0,0,0-2.006-1.662,6.233,6.233,0,0,0,.476-2.06,6.284,6.284,0,0,0,1.614-.98l2.048-1.728,7.25,7.25a6.216,6.216,0,0,0,4.423,1.835h0a6.254,6.254,0,0,0,4.281-1.687,6.278,6.278,0,0,0,1.985-4.575v-6.168A6.226,6.226,0,0,0,1099.286-208.745Z" transform="translate(-15.042 -8.967)" fill="#fff"/>
    <path id="パス_3617" data-name="パス 3617" d="M1158.183-197.842l-10.569-10.569a1.408,1.408,0,0,0-1.9-.081l-5.473,4.615a1.409,1.409,0,0,0-.5,1.076v4.033a1.408,1.408,0,0,0,2.315,1.076l4.646-3.918,9.493,9.493a1.407,1.407,0,0,0,2.4-1v-3.734A1.408,1.408,0,0,0,1158.183-197.842Z" transform="translate(-78.233 -16.082)" fill="#20ab9a"/>
    <path id="パス_3618" data-name="パス 3618" d="M968.655-207.141l1.673,9.563a1.427,1.427,0,0,0,1.405,1.18h4.647a1.427,1.427,0,0,0,1.407-1.187L981.71-220.7a.862.862,0,0,0-.85-1.007H976a.863.863,0,0,0-.851.718l-1.9,11.171-1.9-11.171a.863.863,0,0,0-.851-.718h-3.69a.863.863,0,0,0-.851.718l-1.9,11.171-1.9-11.171a.862.862,0,0,0-.85-.718H956.45a.863.863,0,0,0-.851,1.007l3.924,23.118a1.426,1.426,0,0,0,1.406,1.187h4.648a1.426,1.426,0,0,0,1.4-1.18Z" transform="translate(-17.832 -11.855)" fill="#2ba7c8"/>
    <g id="グループ_3234" data-name="グループ 3234" transform="translate(966.19 -227.221)">
      <g id="グループ_3233" data-name="グループ 3233">
        <path id="パス_3619" data-name="パス 3619" d="M1013.173-199.68a3.712,3.712,0,0,0,3.712-3.712v-5.165a3.712,3.712,0,0,0-3.712-3.712h-11.56a3.712,3.712,0,0,0-3.712,3.712v11.968a3.287,3.287,0,0,0,3.287,3.287h14.69a1.007,1.007,0,0,0,1.007-1.008v-2.1a1.008,1.008,0,0,0-1.007-1.008h-11.531v-2.265Zm-8.86-5.674V-206.6a1.422,1.422,0,0,1,1.422-1.422h3.316a1.422,1.422,0,0,1,1.422,1.422v1.241a1.422,1.422,0,0,1-1.422,1.422h-3.316A1.422,1.422,0,0,1,1004.313-205.354Z" transform="translate(-997.901 212.269)" fill="#df7c8f"/>
      </g>
    </g>
    <g id="グループ_3236" data-name="グループ 3236" transform="translate(989.472 -233.767)">
      <g id="グループ_3235" data-name="グループ 3235">
        <path id="パス_3620" data-name="パス 3620" d="M1046.443-215.464h-7.652v-5.445a1.1,1.1,0,0,0-1.1-1.1h-4.041a1.1,1.1,0,0,0-1.1,1.1v23.31a1.1,1.1,0,0,0,1.1,1.1h12.795a4.9,4.9,0,0,0,4.9-4.9v-9.161A4.9,4.9,0,0,0,1046.443-215.464Zm-1.19,12.088a2.2,2.2,0,0,1-2.2,2.2h-2.22a2.2,2.2,0,0,1-2.2-2.2v-5.208a2.2,2.2,0,0,1,2.2-2.2h2.22a2.2,2.2,0,0,1,2.2,2.2Z" transform="translate(-1032.547 222.01)" fill="#ffb64b"/>
      </g>
    </g>
    <g id="グループ_3238" data-name="グループ 3238" transform="translate(1012.705 -229.536)">
      <g id="グループ_3237" data-name="グループ 3237">
        <path id="パス_3621" data-name="パス 3621" d="M1087.72-211.73a.526.526,0,0,0,.526-.526v-1.627a.526.526,0,0,0-.526-.526H1080.2v-.778a.526.526,0,0,0-.526-.526H1075.7a.526.526,0,0,0-.526.526v.778h-7.524a.526.526,0,0,0-.526.526v1.627a.526.526,0,0,0,.526.526h7.525v1h-5.962a.951.951,0,0,0-.951.952v6.01a.951.951,0,0,0,.951.952h11.917v1.374H1067.5a.383.383,0,0,0-.383.383v2.148a.383.383,0,0,0,.383.384h1.921l1.049,2.062a.721.721,0,0,0,.642.394h4.185a.722.722,0,0,0,.643-1.048l-.716-1.409h5.9v.86h-2.855a.435.435,0,0,0-.435.435v2.544a.435.435,0,0,0,.435.435h7.737a.435.435,0,0,0,.435-.435V-198.5l1.426-.022a.383.383,0,0,0,.378-.383v-2.154a.383.383,0,0,0-.383-.383h-1.511v-1.374a.952.952,0,0,0,.952-.952v-6.02a.948.948,0,0,0-.95-.951c-1.259,0-3.619.01-6.158.01v-1Zm-12.383,7.071a.231.231,0,0,1-.231.23h-1.4a.23.23,0,0,1-.23-.23v-.649a.23.23,0,0,1,.23-.23h1.4a.231.231,0,0,1,.231.23Zm0-3.04a.231.231,0,0,1-.231.231h-1.4a.231.231,0,0,1-.23-.231v-.649a.23.23,0,0,1,.23-.23h1.4a.231.231,0,0,1,.231.23Zm6.552,3.04a.23.23,0,0,1-.23.23h-1.4a.231.231,0,0,1-.231-.23v-.649a.231.231,0,0,1,.231-.23h1.4a.23.23,0,0,1,.23.23Zm-1.629-3.92h1.4a.23.23,0,0,1,.23.23v.649a.231.231,0,0,1-.23.231h-1.4a.231.231,0,0,1-.231-.231v-.649A.231.231,0,0,1,1080.26-208.579Z" transform="translate(-1067.12 215.714)" fill="#4287c6"/>
      </g>
    </g>
    <path id="パス_3622" data-name="パス 3622" d="M1111.616-211.542h-8.5a.5.5,0,0,0-.5.5v3.339a.5.5,0,0,0,.5.5h2.585v7.538l-2.592,1.054a.5.5,0,0,0-.309.46v3.546a.5.5,0,0,0,.678.462l8.17-3.218a.5.5,0,0,0,.314-.462v-3.554a.5.5,0,0,0-.687-.458l-2.242.935v-6.3h2.585a.5.5,0,0,0,.5-.5v-3.339A.5.5,0,0,0,1111.616-211.542Z" transform="translate(-66.058 -15.19)" fill="#4287c6"/>
    <g id="グループ_3239" data-name="グループ 3239" transform="translate(1046.596 -229.536)">
      <path id="パス_3623" data-name="パス 3623" d="M1128.447-207.781h.43a.857.857,0,0,0,.857-.857v-2.222a.857.857,0,0,0-.857-.857h-5.854a5.329,5.329,0,0,0,.551-3.3.857.857,0,0,0-.844-.7h-1.856a.84.84,0,0,0-.844.908,6.706,6.706,0,0,1-2.18,5.41.867.867,0,0,0-.3.64v1.818a.857.857,0,0,0,.857.857h1.1a10.841,10.841,0,0,0,2.082,5.289,11.953,11.953,0,0,1-3.787,3.248.458.458,0,0,0-.253.406v3.4a.457.457,0,0,0,.681.4c1.359-.767,4.367-2.585,5.41-4.208,1.042,1.624,4.049,3.441,5.409,4.208a.457.457,0,0,0,.681-.4v-3.4a.458.458,0,0,0-.253-.406,11.954,11.954,0,0,1-3.787-3.248C1127.964-202.693,1128.447-207.781,1128.447-207.781Zm-3.519.385-.968,2.746a.17.17,0,0,1-.32,0l-.968-2.746a.169.169,0,0,1,.159-.225h1.936A.169.169,0,0,1,1124.927-207.4Z" transform="translate(-1117.553 215.714)" fill="#4287c6"/>
    </g>
    <path id="パス_3624" data-name="パス 3624" d="M993.577-153.288l-8.261-3.654v-5.169h6.527a1.255,1.255,0,0,0,1.255-1.255v-1.493a1.255,1.255,0,0,0-1.255-1.255h-6.527v-2.441a1.255,1.255,0,0,0-1.255-1.255h-3.355a1.255,1.255,0,0,0-1.255,1.255v11.612h-4.944a3.768,3.768,0,0,0-3.768,3.768v2.983a3.768,3.768,0,0,0,3.768,3.768h7.04a3.768,3.768,0,0,0,3.768-3.768v-1.7a.466.466,0,0,1,.655-.426l7.049,3.118a.688.688,0,0,0,.966-.629v-2.831A.686.686,0,0,0,993.577-153.288Zm-13.652,1.845a1.128,1.128,0,0,1-1.128,1.128H977.26a1.128,1.128,0,0,1-1.128-1.128v-.48a1.128,1.128,0,0,1,1.128-1.128H978.8a1.128,1.128,0,0,1,1.128,1.128Z" transform="translate(-22.802 -28.879)" fill="#4287c6"/>
    <path id="パス_3625" data-name="パス 3625" d="M1025.6-143.683H1014.51a1.2,1.2,0,0,1-1.2-1.2v-1.872a1.2,1.2,0,0,1,1.2-1.2H1025.6v-9.24h-13.246a1.2,1.2,0,0,1-1.2-1.2v-1.872a1.2,1.2,0,0,1,1.2-1.2h15.162a4.045,4.045,0,0,1,4.046,4.045v9.682a4.045,4.045,0,0,1-4.046,4.045Z" transform="translate(-36.057 -31.619)" fill="#e96f45"/>
    <rect id="長方形_536" data-name="長方形 536" width="14.562" height="3.863" rx="1.371" transform="translate(977.978 -198.688)" fill="#e96f45"/>
    <path id="パス_3626" data-name="パス 3626" d="M1061.681-165.911l-1.366,2.406a1.138,1.138,0,0,0,.989,1.7h4.3a1.138,1.138,0,0,0,.99-.576l2.165-3.814a2.419,2.419,0,0,0-2.1-3.613h-14.091a1.138,1.138,0,0,0-1.138,1.138v1.715a1.138,1.138,0,0,0,1.149,1.138Z" transform="translate(-49.268 -28.879)" fill="#20ab9a"/>
    <path id="パス_3627" data-name="パス 3627" d="M1049.321-147.143v3.791a4.005,4.005,0,0,0,4.005,4.005h15.5a1.089,1.089,0,0,0,1.089-1.089V-142.7a1.089,1.089,0,0,0-1.089-1.09h-13.417v-3.353a1.09,1.09,0,0,0-1.089-1.089h-3.907A1.089,1.089,0,0,0,1049.321-147.143Z" transform="translate(-48.577 -35.956)" fill="#20ab9a"/>
    <path id="パス_3628" data-name="パス 3628" d="M1086.593-168.693v1.769a1.116,1.116,0,0,0,1.116,1.116h8.013l-5.753,4.711h-5.053a1.116,1.116,0,0,0-1.116,1.116v1.853a1.116,1.116,0,0,0,1.116,1.116h6.8s-4.99,5.111-.661,9.361a3.229,3.229,0,0,0,2.265.907h10.827a1.116,1.116,0,0,0,1.116-1.116v-1.714a1.117,1.117,0,0,0-1.116-1.116h-8.082s-1.806-3.168,3.112-6.5h7.11a1.116,1.116,0,0,0,1.116-1.116v-1.672a1.116,1.116,0,0,0-1.116-1.116h-8.721l6.9-5.658a1.723,1.723,0,0,0-1.092-3.055h-15.671A1.116,1.116,0,0,0,1086.593-168.693Z" transform="translate(-59.886 -28.879)" fill="#df7c8f"/>
    <path id="パス_3629" data-name="パス 3629" d="M1136.181-148.848h3.054a5.563,5.563,0,0,1,1.886-3.565c.094-.087.186-.174.274-.267a7.121,7.121,0,0,0,1.934-4.889,7.147,7.147,0,0,0-7.147-7.147,7.147,7.147,0,0,0-7.147,7.147,7.122,7.122,0,0,0,1.935,4.889c.087.093.18.18.274.267a5.565,5.565,0,0,1,1.886,3.565Z" transform="translate(-74.722 -30.549)" fill="#ffb64b"/>
    <path id="パス_3630" data-name="パス 3630" d="M1138.12-139.857h3.146a7.558,7.558,0,0,1,.019,1.056,3.432,3.432,0,0,1-3.166,3.254h0a3.431,3.431,0,0,1-3.166-3.254,7.624,7.624,0,0,1,.019-1.056h3.147" transform="translate(-76.661 -38.703)" fill="#606060"/>
    <line id="線_92" data-name="線 92" y2="2.867" transform="translate(1061.459 -200.059)" fill="none" stroke="#ffb64b" stroke-linecap="round" stroke-miterlimit="10" stroke-width="1"/>
    <line id="線_93" data-name="線 93" x2="2.027" y2="2.027" transform="translate(1054.788 -198.206)" fill="none" stroke="#ffb64b" stroke-linecap="round" stroke-miterlimit="10" stroke-width="1"/>
    <line id="線_94" data-name="線 94" x1="2.027" y2="2.027" transform="translate(1066.103 -198.206)" fill="none" stroke="#ffb64b" stroke-linecap="round" stroke-miterlimit="10" stroke-width="1"/>
    <path id="パス_3631" data-name="パス 3631" d="M1136.6-160.933a4.354,4.354,0,0,0-4.353,4.354,4.339,4.339,0,0,0,1.178,2.978" transform="translate(-75.776 -31.79)" fill="none" stroke="#fff" stroke-linecap="round" stroke-miterlimit="10" stroke-width="2"/>
  </g>
</svg>
