<svg xmlns="http://www.w3.org/2000/svg" width="508.701" height="502.373" viewBox="0 0 508.701 502.373">
  <g id="グループ_3242" data-name="グループ 3242" transform="translate(-82 -78.06)">
    <g id="j32_1_16" transform="matrix(0.966, -0.259, 0.259, 0.966, 82, 123.034)">
      <path id="パス_335" data-name="パス 335" d="M9.206,34.216V12.506c0-1.288,3.823-5.111,8.539-5.111H171.437c4.716,0,8.539,3.823,8.539,5.111v21.71H9.206Z" transform="translate(-2.112 -1.956)" fill="#ffb64b"/>
      <path id="パス_336" data-name="パス 336" d="M170.324,218.054H16.8a8.765,8.765,0,0,1-8.764-8.765V119.554l171.051-1.03v90.765A8.764,8.764,0,0,1,170.324,218.054Z" transform="translate(-1.225 -85.046)" fill="#fff"/>
      <path id="パス_337" data-name="パス 337" d="M73.711,58.592a3.106,3.106,0,1,1-3.105-3.106A3.106,3.106,0,0,1,73.711,58.592Z" transform="translate(-48.773 -40.877)" fill="#ff7373"/>
      <path id="パス_338" data-name="パス 338" d="M129.249,58.592a3.105,3.105,0,1,1-3.105-3.106A3.106,3.106,0,0,1,129.249,58.592Z" transform="translate(-90.907 -40.877)" fill="#43caff"/>
      <path id="パス_339" data-name="パス 339" d="M184.784,58.592a3.106,3.106,0,1,1-3.105-3.106A3.106,3.106,0,0,1,184.784,58.592Z" transform="translate(-133.039 -40.877)" fill="#edff87"/>
      <path id="パス_340" data-name="パス 340" d="M352.788,59.428H265.308a4.214,4.214,0,0,1,0-8.428h87.481a4.214,4.214,0,0,1,0,8.428Z" transform="translate(-198.08 -38.691)" fill="#fff"/>
      <rect id="長方形_160" data-name="長方形 160" width="137.935" height="43.831" transform="translate(22.47 46.524)" fill="#4287c6"/>
      <path id="パス_341" data-name="パス 341" d="M10.039,129.12H163.731a10.039,10.039,0,0,0,10.038-10.039V10.04A10.039,10.039,0,0,0,163.73,0H10.039A10.039,10.039,0,0,0,0,10.04V119.081A10.039,10.039,0,0,0,10.039,129.12ZM3,10.04A7.039,7.039,0,0,1,10.039,3H163.731a7.039,7.039,0,0,1,7.039,7.04V27.678H3ZM3,30.678H170.769v88.4a7.039,7.039,0,0,1-7.039,7.039H10.039A7.039,7.039,0,0,1,3,119.081v-88.4Z" fill="#3e485c"/>
      <path id="パス_342" data-name="パス 342" d="M62.9,48.094A4.606,4.606,0,1,0,67.5,52.7,4.606,4.606,0,0,0,62.9,48.094Zm0,6.212A1.606,1.606,0,1,1,64.505,52.7,1.609,1.609,0,0,1,62.9,54.306Z" transform="translate(-44.225 -36.487)" fill="#3e485c"/>
      <path id="パス_343" data-name="パス 343" d="M118.437,48.094a4.606,4.606,0,1,0,4.605,4.606A4.606,4.606,0,0,0,118.437,48.094Zm0,6.212a1.606,1.606,0,1,1,1.605-1.606A1.609,1.609,0,0,1,118.437,54.306Z" transform="translate(-86.359 -36.487)" fill="#3e485c"/>
      <path id="パス_344" data-name="パス 344" d="M173.972,48.094a4.606,4.606,0,1,0,4.606,4.606A4.606,4.606,0,0,0,173.972,48.094Zm0,6.212a1.606,1.606,0,1,1,1.606-1.606A1.609,1.609,0,0,1,173.972,54.306Z" transform="translate(-128.491 -36.487)" fill="#3e485c"/>
      <path id="パス_345" data-name="パス 345" d="M345.081,43.606H257.6a5.714,5.714,0,0,0,0,11.428h87.481a5.714,5.714,0,0,0,0-11.428ZM347,51.235a2.7,2.7,0,0,1-1.915.8H257.6a2.715,2.715,0,0,1,0-5.429h87.481A2.709,2.709,0,0,1,347,51.235Z" transform="translate(-191.094 -33.082)" fill="#3e485c"/>
      <path id="パス_346" data-name="パス 346" d="M207.674,167.438H65.547v46.89H207.674Zm-2.8,44.086H68.35V170.241h136.52v41.282Z" transform="translate(-49.728 -127.028)" fill="#3e485c"/>
      <path id="パス_347" data-name="パス 347" d="M360.777,230.974a13.7,13.7,0,0,1,4.372-5.01,11.019,11.019,0,0,1,5.249-2.124l1.084-.079.193-1.069a11.494,11.494,0,0,1,21.721-2.817l.367.782.865.024a12.554,12.554,0,0,1,8.621,4.388,15.247,15.247,0,0,1,4.035,10.156h2.8a18.041,18.041,0,0,0-4.765-12.042,15.593,15.593,0,0,0-9.761-5.227,14.287,14.287,0,0,0-26.415,3.229,13.106,13.106,0,0,0-3.431,1.18,17.222,17.222,0,0,0-6.015,5.031,13.126,13.126,0,0,0-2.753,7.83h2.8A9.624,9.624,0,0,1,360.777,230.974Z" transform="translate(-270.799 -159.656)" fill="#3e485c"/>
      <path id="パス_348" data-name="パス 348" d="M241.225,243.54H243.4v-3.7h3.9v-2.175h-3.9v-3.7h-2.174v3.7h-3.9v2.175h3.9Z" transform="translate(-180.045 -177.498)" fill="#3e485c"/>
      <path id="パス_349" data-name="パス 349" d="M152.861,277.324h-2v3.408h-3.6v2h3.6v3.409h2v-3.409h3.6v-2h-3.6Z" transform="translate(-111.722 -210.393)" fill="#3e485c"/>
      <path id="パス_350" data-name="パス 350" d="M146.563,209.161h2v-3.409h3.6v-2h-3.6v-3.408h-2v3.408h-3.6v2h3.6Z" transform="translate(-108.463 -151.99)" fill="#3e485c"/>
      <rect id="長方形_161" data-name="長方形 161" width="32.619" height="2.804" transform="translate(17.221 97.446)" fill="#3e485c"/>
      <rect id="長方形_162" data-name="長方形 162" width="32.619" height="2.804" transform="translate(17.221 106.343)" fill="#3e485c"/>
      <rect id="長方形_163" data-name="長方形 163" width="32.619" height="2.804" transform="translate(121.01 97.446)" fill="#3e485c"/>
      <rect id="長方形_164" data-name="長方形 164" width="32.619" height="2.804" transform="translate(121.01 106.343)" fill="#3e485c"/>
      <rect id="長方形_165" data-name="長方形 165" width="32.619" height="2.804" transform="translate(70.005 97.446)" fill="#3e485c"/>
      <rect id="長方形_166" data-name="長方形 166" width="32.619" height="2.804" transform="translate(70.005 106.343)" fill="#3e485c"/>
    </g>
    <g id="j145_8_1" transform="translate(101 362.567)">
      <path id="パス_1515" data-name="パス 1515" d="M74.872,179.944l.784-3.764c-7.126-10.621-24.222-48.339-28.715-83.745l16.77-2.269c2.794,28.549,19.488,71.659,30.33,71.648h44.035c10.843.011,27.536-43.1,30.33-71.648l16.771,2.269c-4.492,35.406-20.667,73.124-27.794,83.745l.932,3.139Z" transform="translate(-28.42 -60.272)" fill="#20ab9a"/>
      <path id="パス_1516" data-name="パス 1516" d="M221.223,341.216v10.807H133.456V341.216a24.1,24.1,0,0,1,5.692-15.611s6.088-5.533,7.6-6.586a24.729,24.729,0,0,1,5.45-2.857,19.247,19.247,0,0,1,6.4-1.352l18.742-1.941,18.739,1.941C202.938,314.81,221.223,323.478,221.223,341.216Z" transform="translate(-92.169 -216.077)" fill="#20ab9a"/>
      <path id="パス_1539" data-name="パス 1539" d="M0,51.785Z" transform="translate(156.387 127.026)" fill="#fff"/>
      <path id="パス_1517" data-name="パス 1517" d="M206.34,308.1s-8.252,1.8-8.5,2.6,21.052,28.433,21.052,28.433,2.274,1.771,3.895,1.591,3.8-2.943,3.8-2.943l19.15-26.318L234.09,306.3l-11.3-.236Z" transform="translate(-136.632 -211.377)" fill="#fff"/>
      <path id="パス_1518" data-name="パス 1518" d="M97.4,453.938V389.749c0-5.115,3.451-9.261,7.707-9.261h93.408c4.257,0,7.707,4.146,7.707,9.261v64.189H97.4Z" transform="translate(-63.267 -260.776)" fill="#e4f1fa"/>
      <path id="パス_1519" data-name="パス 1519" d="M454.828,16.928,453.054,9.38A4.374,4.374,0,0,0,449.2,6.027l-10.648-.992a4.373,4.373,0,0,0-3.312,1.085l-2.3,2.04a4.5,4.5,0,0,0-.814,5.771l1.18,1.864v0a4.5,4.5,0,0,0-.353,6.252l3.7,4.276-.731,5.033,1.3-3.962,1.61,4.771,9.815.81,1.3-.81V27.932l4.424-7.861A4.369,4.369,0,0,0,454.828,16.928Z" transform="translate(-293.962 -1.464)" fill="#ffeae3"/>
      <path id="パス_1520" data-name="パス 1520" d="M56.1,13.932a4.5,4.5,0,0,0-.814-5.771l-2.3-2.04a4.373,4.373,0,0,0-3.312-1.085L39.03,6.029a4.375,4.375,0,0,0-3.852,3.353L33.4,16.929a4.368,4.368,0,0,0,.446,3.143l4.424,8.3v4.235l1.452.677,8.581-1.116,2.351-5.821L52.3,31.36l-.731-5.033,3.7-4.276a4.5,4.5,0,0,0-.353-6.252v0Z" transform="translate(-18.99 -1.465)" fill="#ffeae3"/>
      <path id="パス_1521" data-name="パス 1521" d="M224.916,167.465h0v-2.583c0-11.638-12.146-22.748-25.033-22.748s-25.032,11.11-25.032,22.748V167.5a8.746,8.746,0,0,0,.4,17.447c2.206,10.181,13.121,19.04,24.627,19.04s22.414-8.852,24.625-19.029h.407a8.748,8.748,0,1,0,0-17.5Z" transform="translate(-111.272 -96.162)" fill="#ffeae3"/>
      <path id="パス_1522" data-name="パス 1522" d="M173.371,46.619,172.58,44.4a13.784,13.784,0,0,0-6.456-7.756l-1.846-.951,1.846-.951a13.786,13.786,0,0,0,6.456-7.756l.791-2.218.791,2.218a13.784,13.784,0,0,0,6.456,7.756l1.846.951-1.846.951a13.784,13.784,0,0,0-6.456,7.756Z" transform="translate(-109.455 -15.106)" fill="#ffb64b"/>
      <path id="パス_1523" data-name="パス 1523" d="M12.987,354.731l-.791-2.218a13.784,13.784,0,0,0-6.456-7.756l-1.846-.951,1.846-.951A13.785,13.785,0,0,0,12.2,335.1l.791-2.218.791,2.218a13.784,13.784,0,0,0,6.456,7.756l1.846.951-1.846.951a13.784,13.784,0,0,0-6.456,7.756Z" transform="translate(1.311 -227.898)" fill="#ffb64b"/>
      <path id="パス_1524" data-name="パス 1524" d="M485.2,306.368l-.791-2.218a13.783,13.783,0,0,0-6.456-7.756l-1.846-.951,1.846-.951a13.787,13.787,0,0,0,6.456-7.756l.791-2.218.791,2.218a13.783,13.783,0,0,0,6.456,7.756l1.846.951-1.846.951a13.785,13.785,0,0,0-6.456,7.756Z" transform="translate(-324.814 -194.497)" fill="#ffb64b"/>
      <path id="パス_1528" data-name="パス 1528" d="M174.274,190.329H163.356c-45.042,0,11.128,0,11.128,0H160.03V125.415a9.258,9.258,0,0,0-9.26-9.256h-4l-.595-2c.829-1.29,1.744-2.867,2.732-4.712,2.012-3.759,4.32-8.622,6.72-14.3,7.194-17.023,15.211-41.344,18.189-64.79l.193-1.527-.943-.127h0V24.875l4.225-7.507h0a5.925,5.925,0,0,0,.6-4.258l-1.775-7.548a5.926,5.926,0,0,0-5.219-4.543L160.258.025c-.184-.017-.368-.025-.55-.025a5.927,5.927,0,0,0-3.937,1.5l-2.3,2.04a6.049,6.049,0,0,0-1.094,7.761l.568.9a6,6,0,0,0-.583,1.041,6.054,6.054,0,0,0,.979,6.367l3.238,3.74-.446,3.073-2.017-.273-.157,1.6a149.669,149.669,0,0,1-4.349,22.992,176.069,176.069,0,0,1-11.233,31.04,10.23,10.23,0,0,0-6.242-12.927v-.426c3.418-.456,6.76-3.89,6.535-5.479-.259-1.824-5.823-2.634-8.044-7.167h-.006c-.2-.578-.414-1.149-.651-1.709a27.633,27.633,0,0,0-17.136-15.535,27.248,27.248,0,0,0-8.143-1.24h-1.254a27.225,27.225,0,0,0-10.664,2.166A27.7,27.7,0,0,0,80.7,49.41a27.238,27.238,0,0,0-4.705,15.317v4.123a10.228,10.228,0,0,0,2.279,19.793,22.069,22.069,0,0,0,1.536,3.995,27.714,27.714,0,0,0,9.878,10.741,26.949,26.949,0,0,0,14.381,4.362,25.941,25.941,0,0,0,9.916-2.031,29.175,29.175,0,0,0,9.721-6.621,1.531,1.531,0,0,0,1.477,2.007h0a6.667,6.667,0,0,0,2.734-.627,14.915,14.915,0,0,0,4.718-3.725,57.758,57.758,0,0,0,7.926-12.36,168.942,168.942,0,0,0,10.493-27.251,166.02,166.02,0,0,0,5.835-27.484l13.646,1.846c-2.322,17.068-7.311,34.646-12.62,49.309-2.733,7.55-5.548,14.329-8.116,19.867-1.284,2.769-2.506,5.226-3.622,7.312s-2.127,3.8-2.976,5.063l-.407.606.745,2.51H119.463l8.847-11.949a1.553,1.553,0,0,0-2.5-1.847L115.6,116.16h-6.488v-4.506H99.02v4.506H92.531l-10.215-13.8a1.553,1.553,0,0,0-2.5,1.847l8.847,11.949H63.876l.536-2.574-.364-.542c-.853-1.271-1.881-2.989-3.023-5.076A236.431,236.431,0,0,1,46.752,74.983a226.969,226.969,0,0,1-10.96-43.49L49.44,29.647a156.738,156.738,0,0,0,4.266,21.881A174.221,174.221,0,0,0,66.136,85.109,57.66,57.66,0,0,0,73.387,96.4a18.177,18.177,0,0,0,3.728,3.361,9.15,9.15,0,0,0,1.961.973,6.338,6.338,0,0,0,2.068.363,1.552,1.552,0,1,0,0-3.1h0a3.582,3.582,0,0,1-1.461-.355A11.988,11.988,0,0,1,76,94.662,54.918,54.918,0,0,1,68.54,82.985,165.909,165.909,0,0,1,58.252,56.252,159.182,159.182,0,0,1,52.36,27.744l-.157-1.6-2.017.273-.446-3.072,3.238-3.74a6.028,6.028,0,0,0,.4-7.407l.568-.9a6.05,6.05,0,0,0-1.094-7.761l-2.3-2.04A5.929,5.929,0,0,0,46.615,0q-.274,0-.552.026l-10.646.992A5.926,5.926,0,0,0,30.2,5.561l-1.775,7.547a5.916,5.916,0,0,0,.6,4.26l4.224,7.506V28.7h0l-.943.128.194,1.527c2.27,17.877,7.7,36.251,13.457,51.519,2.879,7.633,5.841,14.488,8.536,20.114,1.348,2.813,2.63,5.32,3.8,7.466,1.025,1.873,1.966,3.47,2.806,4.766l-.4,1.936H57.362a9.258,9.258,0,0,0-9.26,9.256v64.913H35.414a1.552,1.552,0,1,0,0,3.1h138.86a1.552,1.552,0,1,0,0-3.1Zm-57.423-89.448a23.99,23.99,0,0,1-12.786,3.9,22.976,22.976,0,0,1-8.78-1.8A26.061,26.061,0,0,1,84.73,94.919a21.439,21.439,0,0,1-3.1-5.508,16.788,16.788,0,0,1-1.111-5.9,1.482,1.482,0,0,0-2.964,0,18.551,18.551,0,0,0,.118,2.012,7.262,7.262,0,0,1-1.677-13.44v5.089h.273a4.488,4.488,0,0,0,4.489-4.487l7.863-7.778a1.79,1.79,0,0,1,3.038,1.473,2.82,2.82,0,0,0,3.6,3.022,23.661,23.661,0,0,0,9.9-5.666,20.539,20.539,0,0,0,4.733-6.756,1.785,1.785,0,0,1,3.189-.184,38.056,38.056,0,0,0,14.307,13.814v2.076a4.488,4.488,0,0,0,4.489,4.487h.273V72.082a7.325,7.325,0,0,1,1.694,1.261,7.255,7.255,0,0,1-3.368,12.178,18.533,18.533,0,0,0,.114-2.011,1.482,1.482,0,0,0-2.964,0h0a17.463,17.463,0,0,1-1.943,7.8A24.763,24.763,0,0,1,116.851,100.881ZM130.6,94.356a15.2,15.2,0,0,1-3.07,2.793,6.079,6.079,0,0,1-1.293.648,3.242,3.242,0,0,1-1.055.193,1.546,1.546,0,0,0-.562.109q.59-.671,1.133-1.374a24.378,24.378,0,0,0,3.53-6.274q.336-.893.587-1.81a10.209,10.209,0,0,0,7.234-4.33A53.211,53.211,0,0,1,130.6,94.356Zm25.1-76.786a2.944,2.944,0,0,1,.243-4.109l2.782-2.533,5.928.911a1.388,1.388,0,0,1,1.177,1.368,1.468,1.468,0,0,1-.012.182,1.388,1.388,0,0,1-1.374,1.21,1.443,1.443,0,0,1-.149-.008l-2.691-.283a1.552,1.552,0,1,0-.325,3.087l1.1.116a6.819,6.819,0,0,1,.744.743,5.224,5.224,0,0,1,.8,1.227,3.518,3.518,0,0,1,.328,1.461,3.584,3.584,0,0,1-.176,1.094,1.282,1.282,0,0,0,2.443.776h0a6.011,6.011,0,0,0-.307-4.49,7.411,7.411,0,0,0-.455-.817,4.482,4.482,0,0,0,3.144-3.722v-.006a4.6,4.6,0,0,0,.036-.57A4.494,4.494,0,0,0,165.12,8.77l-7.4-1.137-2.53,2.3-.19-.3a2.946,2.946,0,0,1,.533-3.781l2.3-2.04a2.821,2.821,0,0,1,1.874-.712c.088,0,.174,0,.261.012l10.649.992A2.82,2.82,0,0,1,173.1,6.271l1.775,7.548a2.821,2.821,0,0,1-.288,2.028h0l-4.624,8.216v4.223l-10.75-1.454.645-4.448Zm10.119-4.177h0l-.006.045ZM36.358,24.062l-4.624-8.216a2.815,2.815,0,0,1-.288-2.027l1.775-7.548a2.82,2.82,0,0,1,2.484-2.162l10.648-.992h0c.085-.008.172-.012.26-.012a2.822,2.822,0,0,1,1.874.712l2.3,2.04a2.948,2.948,0,0,1,.533,3.781l-.19.3-2.53-2.3L41.2,8.77a4.489,4.489,0,0,0-.626,8.735,7.228,7.228,0,0,0-.459.815,6.008,6.008,0,0,0-.307,4.491,1.282,1.282,0,0,0,2.443-.776h0a3.447,3.447,0,0,1,.182-2.62,5.867,5.867,0,0,1,1.333-1.747c.061-.056.119-.108.176-.157l1.1-.116a1.552,1.552,0,1,0-.325-3.087l-2.69.283a1.425,1.425,0,0,1-.151.008,1.389,1.389,0,0,1-1.374-1.211v-.007a1.281,1.281,0,0,1-.011-.173,1.389,1.389,0,0,1,1.178-1.369l5.928-.911,2.782,2.533a2.948,2.948,0,0,1,.244,4.11l-4.167,4.813.646,4.447-10.75,1.454Zm16.651,97a6.131,6.131,0,0,1,4.352-1.8h93.408a6.153,6.153,0,0,1,6.154,6.152v56.713H51.207V125.415A6.123,6.123,0,0,1,53.009,121.066Zm-1.8,64.168H156.924v5.1H51.207Z" transform="translate(-19.521)" fill="#3e485c"/>
      <path id="パス_1529" data-name="パス 1529" d="M57.884,44.557v0Z" transform="translate(-39.976 -30.768)" fill="#231815"/>
      <path id="パス_1530" data-name="パス 1530" d="M85.794.083Z" transform="translate(-59.252 -0.057)" fill="#231815"/>
      <path id="パス_1531" data-name="パス 1531" d="M161.036,34.075l1.846.951a12.587,12.587,0,0,1,5.873,7.09l.791,2.218a1.2,1.2,0,0,0,2.269,0l.791-2.218a12.586,12.586,0,0,1,5.873-7.09l1.846-.951a1.2,1.2,0,0,0,0-2.141l-1.846-.951a12.587,12.587,0,0,1-5.873-7.09l-.791-2.218a1.2,1.2,0,0,0-2.269,0l-.791,2.218a12.587,12.587,0,0,1-5.873,7.09l-1.846.951a1.2,1.2,0,0,0,0,2.141Zm9.645-8.495A14.823,14.823,0,0,0,177.159,33a14.823,14.823,0,0,0-6.478,7.425A14.822,14.822,0,0,0,164.2,33,14.825,14.825,0,0,0,170.681,25.58Z" transform="translate(-110.765 -14.417)" fill="#3e485c"/>
      <path id="パス_1532" data-name="パス 1532" d="M18.1,343.139l1.846-.951a1.2,1.2,0,0,0,0-2.141L18.1,339.1a12.587,12.587,0,0,1-5.873-7.09l-.791-2.218a1.2,1.2,0,0,0-2.269,0l-.791,2.218A12.588,12.588,0,0,1,2.5,339.1l-1.846.951a1.2,1.2,0,0,0,0,2.141l1.846.951a12.588,12.588,0,0,1,5.873,7.09l.791,2.218a1.2,1.2,0,0,0,2.269,0l.791-2.218A12.588,12.588,0,0,1,18.1,343.139Zm-7.8,5.4a14.825,14.825,0,0,0-6.478-7.425,14.824,14.824,0,0,0,6.478-7.425,14.825,14.825,0,0,0,6.478,7.425A14.824,14.824,0,0,0,10.3,348.543Z" transform="translate(0 -227.21)" fill="#3e485c"/>
      <path id="パス_1533" data-name="パス 1533" d="M490.309,290.733a12.587,12.587,0,0,1-5.873-7.09l-.791-2.218a1.2,1.2,0,0,0-2.269,0l-.791,2.218a12.587,12.587,0,0,1-5.873,7.09l-1.846.95a1.2,1.2,0,0,0,0,2.141l1.846.951a12.588,12.588,0,0,1,5.873,7.09l.791,2.218a1.2,1.2,0,0,0,2.269,0l.791-2.218a12.586,12.586,0,0,1,5.873-7.09l1.846-.951a1.2,1.2,0,0,0,0-2.141Zm-7.8,9.445a14.825,14.825,0,0,0-6.478-7.425,14.827,14.827,0,0,0,6.478-7.425,14.826,14.826,0,0,0,6.478,7.425A14.822,14.822,0,0,0,482.51,300.179Z" transform="translate(-326.124 -193.808)" fill="#3e485c"/>
      <path id="パス_1535" data-name="パス 1535" d="M266.536,270.685h3.1a.709.709,0,1,0,0-1.418h-2.073a1.3,1.3,0,0,1-1.156-.707l-.186-.363a.335.335,0,0,0-.634.153v1.387A.948.948,0,0,0,266.536,270.685Z" transform="translate(-183.423 -185.099)" fill="#3e485c"/>
      <path id="パス_1536" data-name="パス 1536" d="M238.624,239.7a1,1,0,0,0-.52-.929l-4.845-2.625a1,1,0,1,0-.95,1.752h0l3,1.626-2.906,1.2a1,1,0,1,0,.76,1.842l4.845-2A1,1,0,0,0,238.624,239.7Z" transform="translate(-160.079 -163.003)" fill="#3e485c"/>
      <path id="パス_1537" data-name="パス 1537" d="M298.885,240.717h0l-2.907-1.2,3-1.626a1,1,0,1,0-.95-1.752l-4.845,2.625a1,1,0,0,0,.1,1.8l4.845,2a1,1,0,1,0,.76-1.842Z" transform="translate(-202.122 -163.003)" fill="#3e485c"/>
      <path id="パス_1538" data-name="パス 1538" d="M264.08,291.481a14.739,14.739,0,0,1-10.176,0,.891.891,0,0,0-1.239,1.131,6.312,6.312,0,0,0,6.327,4.333,6.824,6.824,0,0,0,6.327-4.333A.891.891,0,0,0,264.08,291.481Z" transform="translate(-174.448 -201.234)" fill="#3e485c"/>
    </g>
    <g id="j32_3_16" transform="matrix(0.966, 0.259, -0.259, 0.966, 390.426, 397)">
      <path id="パス_8" data-name="パス 8" d="M253.244,130.354V32a15.586,15.586,0,0,0-15.556-15.579H110.673A15.586,15.586,0,0,0,95.117,32v98.356" transform="translate(-67.065 -11.577)" fill="#ffb64b"/>
      <path id="パス_9" data-name="パス 9" d="M123.938,142.586V52.35a7.062,7.062,0,0,1,7.056-7.067H258.009a7.062,7.062,0,0,1,7.056,7.067v90.236Z" transform="translate(-87.387 -31.928)" fill="#20ab9a"/>
      <path id="パス_10" data-name="パス 10" d="M264.509,202.434l-141.36.852v-72.27l141.36-.852Z" transform="translate(-86.83 -91.776)" fill="#fff"/>
      <ellipse id="楕円形_32" data-name="楕円形 32" cx="2.566" cy="2.57" rx="2.566" ry="2.57" transform="translate(48.179 22.96)" fill="#ff7373"/>
      <path id="パス_11" data-name="パス 11" d="M206.055,80.422a2.567,2.567,0,1,1-2.567-2.57A2.569,2.569,0,0,1,206.055,80.422Z" transform="translate(-141.667 -54.892)" fill="#43caff"/>
      <path id="パス_12" data-name="パス 12" d="M243.614,80.422a2.567,2.567,0,1,1-2.566-2.57A2.568,2.568,0,0,1,243.614,80.422Z" transform="translate(-168.149 -54.892)" fill="#edff87"/>
      <path id="パス_13" data-name="パス 13" d="M370.069,81.789h-72.3a3.487,3.487,0,0,1,0-6.975h72.3a3.487,3.487,0,0,1,0,6.975Z" transform="translate(-207.5 -52.75)" fill="#fff"/>
      <rect id="長方形_125" data-name="長方形 125" width="27.165" height="16.817" transform="translate(49.2 71.816)" fill="#4287c6"/>
      <rect id="長方形_126" data-name="長方形 126" width="27.165" height="16.817" transform="translate(92.91 71.816)" fill="#4287c6"/>
      <rect id="長方形_127" data-name="長方形 127" width="27.165" height="16.817" transform="translate(135.139 71.816)" fill="#4287c6"/>
      <rect id="長方形_128" data-name="長方形 128" width="13.582" height="12.613" transform="translate(52.163 50.547)" fill="#4287c6"/>
      <path id="パス_14" data-name="パス 14" d="M148.1,400.457v4.33H107.484v-4.33H25.36V403.6a7.4,7.4,0,0,0,3.358,6.2l3,1.956a22.28,22.28,0,0,0,12.157,3.609H211.7a22.279,22.279,0,0,0,12.157-3.609l3-1.956a7.394,7.394,0,0,0,3.359-6.2v-3.144Z" transform="translate(-17.881 -282.355)" fill="#ffe7ab"/>
      <path id="パス_15" data-name="パス 15" d="M251.66,128.649V37.171a8.3,8.3,0,0,0-8.3-8.308H116.35a8.3,8.3,0,0,0-8.3,8.308v91.477H251.66ZM110.533,37.171a5.821,5.821,0,0,1,5.817-5.826H243.364a5.821,5.821,0,0,1,5.817,5.826v14.6H110.533Zm0,17.079H249.181v71.916H110.533Z" transform="translate(-76.187 -20.351)" fill="#3e485c"/>
      <path id="パス_16" data-name="パス 16" d="M151.285,61.432a3.812,3.812,0,1,0,3.806,3.812A3.809,3.809,0,0,0,151.285,61.432Zm0,5.141a1.329,1.329,0,1,1,1.327-1.329A1.33,1.33,0,0,1,151.285,66.573Z" transform="translate(-103.985 -43.315)" fill="#3e485c"/>
      <path id="パス_17" data-name="パス 17" d="M188.844,61.432a3.812,3.812,0,1,0,3.806,3.812A3.809,3.809,0,0,0,188.844,61.432Zm0,5.141a1.329,1.329,0,1,1,1.327-1.329A1.331,1.331,0,0,1,188.844,66.573Z" transform="translate(-130.467 -43.315)" fill="#3e485c"/>
      <path id="パス_18" data-name="パス 18" d="M226.4,61.432a3.812,3.812,0,1,0,3.806,3.812A3.809,3.809,0,0,0,226.4,61.432Zm0,5.141a1.329,1.329,0,1,1,1.327-1.329A1.33,1.33,0,0,1,226.4,66.573Z" transform="translate(-156.949 -43.315)" fill="#3e485c"/>
      <path id="パス_19" data-name="パス 19" d="M355.424,58.394h-72.3a4.729,4.729,0,0,0,0,9.457h72.3a4.729,4.729,0,0,0,0-9.457Zm1.583,6.314a2.23,2.23,0,0,1-1.583.661h-72.3a2.246,2.246,0,0,1,0-4.492h72.3a2.242,2.242,0,0,1,1.583,3.831Z" transform="translate(-196.299 -41.173)" fill="#3e485c"/>
      <path id="パス_20" data-name="パス 20" d="M207.34,114.7H183.973V16.821A16.825,16.825,0,0,0,167.177,0H40.163a16.825,16.825,0,0,0-16.8,16.821V114.7H0v4.385a8.636,8.636,0,0,0,3.922,7.238l3,1.956a23.521,23.521,0,0,0,12.832,3.809H187.581a23.516,23.516,0,0,0,12.832-3.81l3-1.955a8.637,8.637,0,0,0,3.922-7.238V114.7ZM30.044,6.688a14.256,14.256,0,0,1,10.119-4.2H167.177a14.346,14.346,0,0,1,14.317,14.338V114.7H122.737v4.33H84.6V114.7H25.846V16.821A14.3,14.3,0,0,1,30.044,6.688Zm174.817,112.4a6.153,6.153,0,0,1-2.794,5.156l-3,1.955a21.041,21.041,0,0,1-11.481,3.409H19.759A21.041,21.041,0,0,1,8.278,126.2l-3-1.956a6.151,6.151,0,0,1-2.794-5.156v-1.9H82.124v4.33h43.092v-4.33h79.645v1.9Z" fill="#3e485c"/>
      <rect id="長方形_129" data-name="長方形 129" width="26.957" height="2.32" transform="translate(47.305 88.757)" fill="#3e485c"/>
      <rect id="長方形_130" data-name="長方形 130" width="26.957" height="2.32" transform="translate(47.305 96.119)" fill="#3e485c"/>
      <rect id="長方形_131" data-name="長方形 131" width="26.957" height="2.32" transform="translate(133.078 88.757)" fill="#3e485c"/>
      <rect id="長方形_132" data-name="長方形 132" width="26.957" height="2.32" transform="translate(133.078 96.119)" fill="#3e485c"/>
      <rect id="長方形_133" data-name="長方形 133" width="26.957" height="2.32" transform="translate(90.927 88.757)" fill="#3e485c"/>
      <rect id="長方形_134" data-name="長方形 134" width="26.957" height="2.32" transform="translate(90.927 96.119)" fill="#3e485c"/>
      <path id="パス_21" data-name="パス 21" d="M156.473,231.149h29.274V212.877H156.473ZM158.79,215.2h24.64v13.632H158.79Z" transform="translate(-110.326 -150.096)" fill="#3e485c"/>
      <path id="パス_22" data-name="パス 22" d="M447.31,231.149h29.273V212.877H447.31Zm2.317-15.953h24.64v13.632h-24.64Z" transform="translate(-315.391 -150.096)" fill="#3e485c"/>
      <path id="パス_23" data-name="パス 23" d="M304.384,231.149h29.274V212.877H304.384ZM306.7,215.2h24.64v13.632H306.7V215.2Z" transform="translate(-214.616 -150.096)" fill="#3e485c"/>
      <path id="パス_24" data-name="パス 24" d="M178.251,151.242v-13.1H162.859V152.4h15.392Zm-13.075-1.161v-9.618h10.758v9.618Z" transform="translate(-114.829 -97.402)" fill="#3e485c"/>
      <rect id="長方形_135" data-name="長方形 135" width="16.536" height="2.32" transform="translate(81.107 45.747)" fill="#3e485c"/>
      <rect id="長方形_136" data-name="長方形 136" width="16.536" height="2.32" transform="translate(111.488 45.747)" fill="#3e485c"/>
      <rect id="長方形_137" data-name="長方形 137" width="16.537" height="2.32" transform="translate(141.869 45.747)" fill="#3e485c"/>
    </g>
    <g id="j195_7_0" transform="translate(386 79.001)">
      <path id="パス_1231" data-name="パス 1231" d="M151.687,425.665l-15.208,44.9h86.293l-15.208-44.9-28.689-20.218L157.242,419.1Z" transform="translate(-85.348 -259.461)" fill="#ddd"/>
      <path id="パス_1232" data-name="パス 1232" d="M167.132,618.785s-10.945,1.189-12.574,11.721v1.768a2.154,2.154,0,0,0,2.153,2.154h26.118a2.154,2.154,0,0,0,2.143-1.942l1.37-13.7,1.465-28.687h-22.42Z" transform="translate(-97.051 -378.992)" fill="#ffeae3"/>
      <path id="パス_1233" data-name="パス 1233" d="M289.483,618.785l1.744-28.687h-22.42l1.465,28.687,1.37,13.7a2.154,2.154,0,0,0,2.143,1.942H299.9a2.153,2.153,0,0,0,2.153-2.154v-1.768C300.428,619.974,289.483,618.785,289.483,618.785Z" transform="translate(-171.008 -378.992)" fill="#ffeae3"/>
      <path id="パス_1234" data-name="パス 1234" d="M195.269,277.013l8.131,16.611a8.576,8.576,0,0,0,11.763,4.19c4.429-1.247,4.613-7.507,3.431-17.74,0-4.7-2.822-25.868-3.717-29.549-3.816-15.686-14.558-22.617-21.976-24.893H150.729c-7.418,2.276-18.16,9.207-21.976,24.893-.9,3.681-3.718,24.85-3.718,29.549-1.182,10.233-1,16.492,3.431,17.74h0a8.576,8.576,0,0,0,11.763-4.19l8.132-16.611Z" transform="translate(-77.537 -143.059)" fill="#2ba7c8"/>
      <path id="パス_1235" data-name="パス 1235" d="M231.863,249.835l-2.142,43.016,2.142,6.571-6.052,2.412-5.159,1.472a18.589,18.589,0,0,1-15.554-2.474l-3.331-2.3a6.046,6.046,0,0,0-6.778,0l-3.331,2.3a18.588,18.588,0,0,1-15.554,2.474l-5.159-1.472-5.176-2.055,1.683-6.928-1.683-43.016V224.542c0-.844,12.209-10.671,32.413-10.671s30.574,8.8,30.574,8.8l3.108,4.835v22.33Z" transform="translate(-104.307 -135.447)" fill="#2ba7c8"/>
      <path id="パス_1236" data-name="パス 1236" d="M196.083,211.4a9.321,9.321,0,0,1,0,2.56c-.224.727,18.937,25.6,18.937,25.6s2.046,1.595,3.5,1.432,3.414-2.65,3.414-2.65L242.1,211.149l-9.892-3.717a26.207,26.207,0,0,0-27.643-.454Z" transform="translate(-126.931 -131.578)" fill="#fff"/>
      <path id="パス_1237" data-name="パス 1237" d="M183.635,279.965a2.432,2.432,0,0,0-3.507.107l-.44.487-.732.652-2.641-2.93a5.915,5.915,0,0,0-7.088-1.305l-4.828,2.47a5.918,5.918,0,0,0-3.221,5.268V303.19c0,3.368,2,8.218,10.982,6.639,3.82-1.769,4.3-4.691,4.687-7.711l.092-.712c3.818.34,4.887-3.932,4.887-3.932v-6.048l.96.155c.062.009,1.017-1.815,1.473-2.694a2.423,2.423,0,0,0,.268-.981l.316-5.592a2.433,2.433,0,0,0-.727-1.876Z" transform="translate(-101.336 -175.876)" fill="#ffeae3"/>
      <path id="パス_1238" data-name="パス 1238" d="M309.8,279.445l-4.828-2.47a5.914,5.914,0,0,0-7.087,1.305l-2.829,3.138-.545-.86-.44-.487a2.433,2.433,0,0,0-3.507-.107l-.482.473a2.434,2.434,0,0,0-.727,1.876l.316,5.592a2.428,2.428,0,0,0,.268.981c.456.879,1.411,2.7,1.473,2.694l.96-.609v6.5s1.069,4.272,4.887,3.932l.092.712c.389,3.02.478,7.711,4.687,7.711,9.941,0,10.982-3.834,10.982-6.639V284.712A5.918,5.918,0,0,0,309.8,279.445Z" transform="translate(-184.307 -175.875)" fill="#ffeae3"/>
      <path id="パス_1239" data-name="パス 1239" d="M225.134,86.373h0V78.025c0-11.114-11.591-21.724-23.888-21.724s-23.888,10.61-23.888,21.724V86.41a8.353,8.353,0,0,0,.387,16.662c2.105,9.723,12.521,18.182,23.5,18.182s21.389-8.453,23.5-18.173h.389a8.354,8.354,0,0,0,0-16.708Z" transform="translate(-106.903 -33.446)" fill="#ffeae3"/>
      <path id="パス_1240" data-name="パス 1240" d="M19.759,248.611c-3.367-2.776-8.66,2.024-8.008,6.288-.435-2.841-4.192-6.755-7.328-3.719-3.658,3.543,2.155,11.048,7.328,11.479C16.924,262.229,25.393,253.256,19.759,248.611Z" transform="translate(10.879 -146.615)" fill="#df7c8f"/>
      <path id="パス_1241" data-name="パス 1241" d="M66.843,462.416c-2.205-3.242-7.979-.435-8.49,3.407.34-2.56-1.916-6.882-5.384-5.053-4.047,2.134-.922,10.072,3.431,11.747C60.97,473.448,70.533,467.841,66.843,462.416Z" transform="translate(-19.823 -290.599)" fill="#df7c8f"/>
      <path id="パス_1242" data-name="パス 1242" d="M418.6,15.859c-2.326-3.278-8.29-.526-8.777,3.324.325-2.565-2.066-6.926-5.647-5.13-4.178,2.1-.845,10.095,3.694,11.823C412.623,26.861,422.49,21.344,418.6,15.859Z" transform="translate(-267.714 -4.292)" fill="#df7c8f"/>
      <path id="パス_1243" data-name="パス 1243" d="M113.163,4.261c-2.457-2.647-7.447.505-7.429,3.991-.012-2.323-2.654-5.927-5.633-3.906-3.476,2.358.432,9.092,4.678,10.1C109.131,14.764,117.274,8.69,113.163,4.261Z" transform="translate(-68.567 24.879)" fill="#df7c8f"/>
      <path id="パス_1244" data-name="パス 1244" d="M465.789,161.79c-3.121-2.776-8.028,2.024-7.423,6.288-.4-2.841-3.886-6.755-6.792-3.719-3.391,3.543,2,11.048,6.792,11.479C463.161,175.408,471.011,166.435,465.789,161.79Z" transform="translate(-298.868 -98.57)" fill="#df7c8f"/>
      <path id="パス_1245" data-name="パス 1245" d="M412.651,497.444c-3.121-2.776-8.028,2.024-7.423,6.288-.4-2.841-3.886-6.755-6.792-3.719-3.391,3.543,2,11.048,6.792,11.479C410.023,511.062,417.873,502.089,412.651,497.444Z" transform="translate(-254.233 -318.481)" fill="#df7c8f"/>
      <path id="パス_1246" data-name="パス 1246" d="M225.933,145.949c-2.436-2.359-5.694.656-5.694,2.89,0-2.234-3.258-5.249-5.695-2.89-2.843,2.753,1.675,8.586,5.695,8.921C224.258,154.535,228.776,148.7,225.933,145.949Z" transform="translate(-138.305 -93.923)" fill="#df7c8f"/>
      <path id="パス_1247" data-name="パス 1247" d="M278.926,145.949c-2.436-2.359-5.694.656-5.694,2.89,0-2.234-3.258-5.249-5.694-2.89-2.843,2.753,1.675,8.586,5.694,8.921C277.251,154.535,281.769,148.7,278.926,145.949Z" transform="translate(-170.609 -93.923)" fill="#df7c8f"/>
      <path id="パス_1254" data-name="パス 1254" d="M220.992,481,205.1,434.085a1.527,1.527,0,0,0-1.936-.956c-.008,0-.016.008-.024.011a1.473,1.473,0,0,0-.869,0h0l-5.16,1.607a15.816,15.816,0,0,1-14.222-2.469l-3.331-2.51a7.092,7.092,0,0,0-2.808-1.273c0-.032.01-.063.01-.1v-7.707a1.482,1.482,0,1,0-2.964,0V428.4c0,.033.008.064.01.1A7.086,7.086,0,0,0,171,429.771l-3.331,2.51a15.816,15.816,0,0,1-14.222,2.469l-5.115-1.593c-.021-.008-.04-.02-.061-.028a1.527,1.527,0,0,0-1.936.956h0L130.44,481h17.945l1.576,25.941c-.174.04-.355.083-.553.135a18.038,18.038,0,0,0-6.7,3.315,14.281,14.281,0,0,0-3.265,3.731,15.068,15.068,0,0,0-1.96,5.532l-.017.112v1.882a3.636,3.636,0,0,0,3.635,3.636h26.118a3.635,3.635,0,0,0,3.617-3.279v0l1.374-13.735L173.6,481h4.23l1.393,27.272,1.374,13.736v0a3.636,3.636,0,0,0,3.618,3.279h26.118a3.636,3.636,0,0,0,3.635-3.636v-1.881l-.017-.113A14.693,14.693,0,0,0,211,512.692a14.91,14.91,0,0,0-3.483-3.184,18.438,18.438,0,0,0-5.046-2.305c-.367-.106-.7-.19-1-.259L203.05,481h17.943ZM148.773,436.4l3.79,1.181a18.78,18.78,0,0,0,16.887-2.932l3.331-2.51a4.15,4.15,0,0,1,4.994,0l3.331,2.51a18.779,18.779,0,0,0,16.886,2.932l4.584-1.428,14.157,41.8H134.7Zm20.548,70.312H152.915L151.353,481h19.281Zm29.2,0H182.111L180.8,481h19.281Z" transform="translate(-84.438 -271.37)" fill="#3e485c"/>
      <path id="パス_1257" data-name="パス 1257" d="M129.65,297.517a10.1,10.1,0,0,0,5.43-1.588q.295-.188.577-.4l.787,2.345-1.072,7.257a1.482,1.482,0,1,0,2.932.434h0l1.176-7.96-1.51-4.5a10.065,10.065,0,0,0,.871-1.558h0L146.9,275.1a9.03,9.03,0,0,0,1.934-1.409,8.151,8.151,0,0,0,2.08-3.411,17.606,17.606,0,0,0,.649-3.15,5.2,5.2,0,0,0,2.144-.773,5.924,5.924,0,0,0,1.4-1.263,7.861,7.861,0,0,0,1.125-1.9,6.954,6.954,0,0,0,.331-.95l.039-.154v-4.877c.025-.007.054-.013.076-.02a1.2,1.2,0,0,0,.35-.191,1.257,1.257,0,0,0,.2-.191,1.735,1.735,0,0,0,.12-.162c.051-.078.095-.151.145-.237.172-.3.412-.74.661-1.21s.5-.952.678-1.294h0a3.645,3.645,0,0,0,.4-1.476l.316-5.592v-.007c0-.063.005-.13.005-.2a3.657,3.657,0,0,0-1.1-2.612l-.482-.473a3.655,3.655,0,0,0-5.27.16l-.146.162-1.8-2a7.2,7.2,0,0,0-8.635-1.59l-4.827,2.47a7.209,7.209,0,0,0-3.924,6.417v18.182L127.553,279.4a1.291,1.291,0,1,0,2.325,1.123l4.383-9.077c.1.176.213.353.339.529a7.72,7.72,0,0,0,3.344,2.586,14.948,14.948,0,0,0,5.4,1.045l-7.178,14.663-.013.03a7.12,7.12,0,0,1-.954,1.576c-.031.035-.06.071-.087.108a7.048,7.048,0,0,1-1.629,1.442,7.138,7.138,0,0,1-3.835,1.122,7.05,7.05,0,0,1-3.225-.782l-.318-.163h-.117a2.926,2.926,0,0,1-1.119-.653,3.6,3.6,0,0,1-.7-.955,8.084,8.084,0,0,1-.739-2.416,22.28,22.28,0,0,1-.249-3.6,76.512,76.512,0,0,1,.612-8.464l.01-.086v-.085c0-.517.041-1.341.118-2.355.271-3.565.973-9.526,1.7-14.967.365-2.722.736-5.319,1.065-7.428.164-1.054.317-1.987.452-2.749s.254-1.356.337-1.7a34.112,34.112,0,0,1,9.231-16.763,29.561,29.561,0,0,1,11.74-7.064,1.482,1.482,0,0,0-.869-2.834,32.5,32.5,0,0,0-12.938,7.772A37.083,37.083,0,0,0,124.6,247.448c-.128.527-.271,1.273-.437,2.231-.578,3.338-1.4,9.168-2.088,14.705-.342,2.768-.649,5.459-.871,7.726-.111,1.134-.2,2.161-.263,3.044-.059.838-.094,1.536-.1,2.1a78.862,78.862,0,0,0-.622,8.73,26.353,26.353,0,0,0,.226,3.671A10.509,10.509,0,0,0,121.913,294a6.09,6.09,0,0,0,1.47,1.564,6.019,6.019,0,0,0,1.812.9A9.989,9.989,0,0,0,129.65,297.517Zm24.869-52.165a1.21,1.21,0,0,1,1.745-.053l.482.472a1.211,1.211,0,0,1,.363.864l0,.076-.316,5.584a1.193,1.193,0,0,1-.133.487l-.057.11v-1.765a7.21,7.21,0,0,0-1.855-4.827l-.542-.6Zm-17.08,25.925a4.17,4.17,0,0,1-1.259-1.793,4.249,4.249,0,0,1-.249-1.411c0-.032,0-.057,0-.084l.02-.043V249.173a4.626,4.626,0,0,1,2.518-4.118l4.828-2.47a4.624,4.624,0,0,1,5.541,1.02l3.989,4.425a4.621,4.621,0,0,1,1.063,2.04l-4.118-3.425a1.087,1.087,0,0,0-1.39,1.672L154.019,253v2.354l-4.245-3.531a1.087,1.087,0,0,0-1.39,1.672l5.636,4.687v2.277L149.765,257a1.087,1.087,0,0,0-1.372,1.688l4.826,3.927a1.081,1.081,0,0,0,.333.181,4.748,4.748,0,0,1-.311.485,3.466,3.466,0,0,1-.981.93,2.653,2.653,0,0,1-1.412.381q-.149,0-.312-.014l-1.236-.11-.251,1.943c-.1.748-.2,1.46-.34,2.119a6.88,6.88,0,0,1-1.059,2.587,5.79,5.79,0,0,1-1.955,1.691,1.481,1.481,0,0,0-.829.22c-.26.008-.514.013-.759.013a13.946,13.946,0,0,1-4.75-.694A6.214,6.214,0,0,1,137.439,271.276Z" transform="translate(-77.82 -143.336)" fill="#3e485c"/>
      <path id="パス_1258" data-name="パス 1258" d="M268.024,285.987a78.992,78.992,0,0,0-.622-8.724c0-.647-.05-1.48-.127-2.491-.281-3.685-.985-9.655-1.719-15.136-.367-2.74-.741-5.352-1.074-7.49-.167-1.069-.322-2.019-.463-2.811s-.264-1.421-.376-1.883A37.086,37.086,0,0,0,253.6,229.265a32.5,32.5,0,0,0-12.938-7.772,1.482,1.482,0,0,0-.869,2.834c.125.038.253.081.38.122a1.349,1.349,0,0,0-.616.462h0l-16.944,22.9V235.626h-7.819V247.7l-14.808-20.652a1.359,1.359,0,1,0-2.208,1.585l17.336,24.179.005.007a4.454,4.454,0,0,0,7.168,0l19.454-26.294a1.359,1.359,0,0,0,.086-1.483,30,30,0,0,1,9.706,6.344,34.109,34.109,0,0,1,9.231,16.763c.1.393.237,1.114.4,2.037.563,3.245,1.387,9.067,2.067,14.563.34,2.749.645,5.421.863,7.651.109,1.115.2,2.12.257,2.965s.092,1.532.091,1.984v.085l.01.085a76.677,76.677,0,0,1,.611,8.464,23.556,23.556,0,0,1-.2,3.255,7.668,7.668,0,0,1-1.01,3.131,3.127,3.127,0,0,1-.754.81,3.092,3.092,0,0,1-1.01.482l-.142.04-.131.067a7.058,7.058,0,0,1-3.226.783,7.136,7.136,0,0,1-3.835-1.122,7.045,7.045,0,0,1-1.627-1.441c-.028-.039-.059-.076-.09-.112a7.114,7.114,0,0,1-.953-1.574l-.012-.027-7.179-14.666a15.7,15.7,0,0,0,4.867-.836,8.774,8.774,0,0,0,2.708-1.529,6.857,6.857,0,0,0,1.511-1.8l4.383,9.076a1.291,1.291,0,1,0,2.325-1.123l-5.819-12.05V249.175a7.209,7.209,0,0,0-3.924-6.417l-4.828-2.47a7.2,7.2,0,0,0-8.634,1.59l-1.8,2-.147-.162a3.655,3.655,0,0,0-5.27-.159l-.482.472a3.657,3.657,0,0,0-1.1,2.612c0,.059,0,.13.006.207h0l.316,5.592a3.646,3.646,0,0,0,.4,1.477c.229.44.582,1.117.89,1.691.154.287.3.548.413.751.059.1.109.188.165.274.029.044.056.086.11.155a1.324,1.324,0,0,0,.144.155,1.239,1.239,0,0,0,.43.258c.022.007.051.013.075.02V262.1l.039.154a8.008,8.008,0,0,0,1.118,2.395,6.163,6.163,0,0,0,1.739,1.714,5.187,5.187,0,0,0,2.145.773c.086.64.183,1.295.328,1.956a9.438,9.438,0,0,0,1.478,3.533,8.434,8.434,0,0,0,2.856,2.48l8.055,16.454h0a10.08,10.08,0,0,0,.871,1.558l-1.51,4.5,1.177,7.96a1.482,1.482,0,1,0,2.932-.433h0l-1.072-7.257.787-2.345q.282.209.577.4a10.032,10.032,0,0,0,9.871.545,5.929,5.929,0,0,0,2.379-1.368,6.569,6.569,0,0,0,1.288-1.728,10.976,10.976,0,0,0,1.039-3.308A25.366,25.366,0,0,0,268.024,285.987ZM231.449,252.3l-.316-5.592v-.068a1.211,1.211,0,0,1,.364-.864l.482-.473h0a1.21,1.21,0,0,1,1.744.053l.314.348-.542.6a7.21,7.21,0,0,0-1.855,4.827V252.9l-.057-.109A1.192,1.192,0,0,1,231.449,252.3Zm7.74,14.116-.251-1.943-1.235.11c-.109.009-.213.014-.312.014a2.64,2.64,0,0,1-1.467-.415,3.361,3.361,0,0,1-.788-.717,4.774,4.774,0,0,1-.449-.663,1.08,1.08,0,0,0,.335-.182l4.827-3.927A1.088,1.088,0,0,0,238.475,257l-4.254,3.461v-2.276l5.635-4.687a1.087,1.087,0,0,0-1.39-1.672l-4.245,3.531v-2.354l5.635-4.688a1.087,1.087,0,0,0-1.39-1.672l-4.117,3.425a4.626,4.626,0,0,1,1.063-2.04l3.989-4.425a4.624,4.624,0,0,1,5.541-1.02l4.828,2.47a4.625,4.625,0,0,1,2.518,4.118v18.773l.021.043c0,.026,0,.053,0,.084a4.237,4.237,0,0,1-.186,1.22,4.1,4.1,0,0,1-.584,1.186,5.136,5.136,0,0,1-2.255,1.71,13.166,13.166,0,0,1-5.153.853c-.245,0-.5,0-.758-.013a1.485,1.485,0,0,0-.837-.221,6.369,6.369,0,0,1-1.33-.974,5.553,5.553,0,0,1-1.422-2.358A17,17,0,0,1,239.189,266.414Z" transform="translate(-127.864 -143.338)" fill="#3e485c"/>
      <path id="パス_1259" data-name="パス 1259" d="M290.362,284.168h0Z" transform="translate(-187.961 -183.952)" fill="#231815"/>
      <path id="パス_1260" data-name="パス 1260" d="M173.141,72.235a21.092,21.092,0,0,0,1.466,3.815,26.458,26.458,0,0,0,9.426,10.257,25.7,25.7,0,0,0,13.724,4.165,24.746,24.746,0,0,0,9.462-1.939,27.688,27.688,0,0,0,11.231-8.579,23.292,23.292,0,0,0,3.368-5.991q.32-.853.56-1.729a9.77,9.77,0,0,0,3.314-18.41,1.4,1.4,0,0,0-1.015-.1v-4.33a26.03,26.03,0,0,0-4.491-14.627,26.441,26.441,0,0,0-10.975-9.256,13.141,13.141,0,1,0-22.884.046,26.442,26.442,0,0,0-10.871,9.21,26.03,26.03,0,0,0-4.49,14.627v4.373a1.405,1.405,0,0,0-1.145.057,9.769,9.769,0,0,0,3.32,18.411Zm-4.773-13.377a6.979,6.979,0,0,1,2.6-2.435v1.889a1.279,1.279,0,0,0,2.19.9c1.26-1.283,3.885-3.095,5.551-5.66,3.426-3.27,9.411-16.274,9.9-21.191.912,8.171,4.595,9.1,19.581,17.618.791.452,1.287.753,1.726.986,2.935,1.688,6.268,3.654,10.056,6,.982.889,1.907,1.631,2.515,2.25a1.279,1.279,0,0,0,2.19-.9V56.495a6.976,6.976,0,0,1,2.469,2.363,6.929,6.929,0,0,1-4.2,10.4,17.689,17.689,0,0,0,.109-1.92,1.414,1.414,0,1,0-2.828,0h0a16.693,16.693,0,0,1-1.854,7.45,23.645,23.645,0,0,1-8.419,9.138,22.883,22.883,0,0,1-12.2,3.721,21.918,21.918,0,0,1-8.379-1.723,24.87,24.87,0,0,1-10.072-7.691,20.483,20.483,0,0,1-2.962-5.26,16.041,16.041,0,0,1-1.06-5.635,1.414,1.414,0,1,0-2.828,0,17.7,17.7,0,0,0,.113,1.921,6.937,6.937,0,0,1-4.2-10.4Z" transform="translate(-106.479 -3.839)" fill="#3e485c"/>
      <path id="パス_1261" data-name="パス 1261" d="M253.038,180.081a.905.905,0,0,0,.9.905H256.9a.677.677,0,0,0,0-1.354h-1.978a1.24,1.24,0,0,1-1.1-.675l-.178-.347a.32.32,0,0,0-.6.146Z" transform="translate(-163.8 -115.508)" fill="#3e485c"/>
      <path id="パス_1262" data-name="パス 1262" d="M249.935,193.018c-2.87,1.983-4.288,2.24-6.369,2.24s-3.5-.256-6.369-2.24c-1.058-.731-3.119.324-1.948,3.291s5.427,4.164,8.318,4.164,7.147-1.2,8.318-4.164S250.993,192.287,249.935,193.018Z" transform="translate(-152.058 -124.803)" fill="#3e485c"/>
      <path id="パス_1264" data-name="パス 1264" d="M19.994,253.344a8.01,8.01,0,0,0,.659-3.06,5.837,5.837,0,0,0-.548-2.5,6.33,6.33,0,0,0-1.733-2.181l-.735.892.735-.892a4.761,4.761,0,0,0-1.442-.823,4.629,4.629,0,0,0-1.549-.263,5.739,5.739,0,0,0-2.628.68A8.289,8.289,0,0,0,9.7,248a8.5,8.5,0,0,0-.608,1.107,7.648,7.648,0,0,0-1.113-1.089,6.04,6.04,0,0,0-1.478-.869A4.651,4.651,0,0,0,4.77,246.8a4.278,4.278,0,0,0-1.695.352A5.247,5.247,0,0,0,1.5,248.229,4.845,4.845,0,0,0,.356,249.92,5.147,5.147,0,0,0,0,251.836a7.72,7.72,0,0,0,.876,3.392,12.83,12.83,0,0,0,3.588,4.3,11.632,11.632,0,0,0,2.416,1.457,8.336,8.336,0,0,0,2.653.7,1.089,1.089,0,0,0,.192,0,9.366,9.366,0,0,0,3.681-1.241,16.594,16.594,0,0,0,4.931-4.3A12.693,12.693,0,0,0,19.994,253.344Zm-6.2,4.091a12.041,12.041,0,0,1-2.261,1.375,6.326,6.326,0,0,1-1.914.565,6.647,6.647,0,0,1-2.464-.829,10.815,10.815,0,0,1-3.449-3.09,8.511,8.511,0,0,1-1.04-1.883,4.892,4.892,0,0,1-.359-1.737,2.825,2.825,0,0,1,.191-1.058,2.532,2.532,0,0,1,.6-.888,2.944,2.944,0,0,1,.88-.61,1.962,1.962,0,0,1,.784-.164,2.527,2.527,0,0,1,1.176.322,5.051,5.051,0,0,1,1.686,1.553,4.9,4.9,0,0,1,.857,1.963h0a.006.006,0,0,0,0,0c0,.022.012.041.016.062a1.112,1.112,0,0,0,.042.16c.011.031.028.058.042.087a1.182,1.182,0,0,0,.057.116,1.162,1.162,0,0,0,.075.1c.02.026.037.054.059.078a1.159,1.159,0,0,0,.361.265c.029.014.06.021.091.032a.7.7,0,0,0,.26.063c.028,0,.055.011.084.012a1.154,1.154,0,0,0,.455-.071c.025-.01.048-.024.073-.035a1.187,1.187,0,0,0,.131-.064,1.134,1.134,0,0,0,.1-.072,1.024,1.024,0,0,0,.082-.062,1.157,1.157,0,0,0,.264-.361c.017-.035.026-.073.039-.11s.026-.066.035-.1a1.178,1.178,0,0,0,.021-.141c0-.028.011-.055.012-.083a1.217,1.217,0,0,0-.01-.192c0-.013,0-.025,0-.038h0a3.608,3.608,0,0,1-.042-.556,4.739,4.739,0,0,1,.415-1.873,6.307,6.307,0,0,1,1.87-2.41,4.9,4.9,0,0,1,1.206-.7,3.188,3.188,0,0,1,1.161-.237,2.317,2.317,0,0,1,.778.13,2.447,2.447,0,0,1,.743.428h0a4.009,4.009,0,0,1,1.113,1.382,3.523,3.523,0,0,1,.328,1.52,6.368,6.368,0,0,1-.847,2.939A13.607,13.607,0,0,1,13.8,257.435Z" transform="translate(10 -147.493)" fill="#3e485c"/>
      <path id="パス_1265" data-name="パス 1265" d="M64.722,460.295l.955-.65a4.316,4.316,0,0,0-1.686-1.473,4.674,4.674,0,0,0-2.054-.453,6.348,6.348,0,0,0-2.306.46,7.854,7.854,0,0,0-2.906,2.009,6.446,6.446,0,0,0-1.207-1.775,4.712,4.712,0,0,0-1.338-.97,3.963,3.963,0,0,0-1.707-.388,4.621,4.621,0,0,0-2.164.572,4.453,4.453,0,0,0-1.926,1.958,5.73,5.73,0,0,0-.567,2.587,9.176,9.176,0,0,0,.473,2.8,12.042,12.042,0,0,0,2.13,3.884,8.6,8.6,0,0,0,3.445,2.618,1.109,1.109,0,0,0,.184.054,6.615,6.615,0,0,0,1.319.125,11.335,11.335,0,0,0,3.665-.688,14.7,14.7,0,0,0,5.149-3.077,9.12,9.12,0,0,0,1.793-2.295,5.89,5.89,0,0,0,.732-2.773,5.605,5.605,0,0,0-1.028-3.176Zm-.532,3.64a5.806,5.806,0,0,1-1.321,2,11.78,11.78,0,0,1-3.62,2.459,10.016,10.016,0,0,1-3.882.948,4.383,4.383,0,0,1-.763-.065,5.578,5.578,0,0,1-1.614-1.057,9.3,9.3,0,0,1-2.069-2.864,7.728,7.728,0,0,1-.8-3.185,3.441,3.441,0,0,1,.32-1.548,2.127,2.127,0,0,1,.941-.953,2.323,2.323,0,0,1,1.086-.305,1.709,1.709,0,0,1,.946.293,3.615,3.615,0,0,1,1.214,1.5,4.9,4.9,0,0,1,.478,2.007,2.961,2.961,0,0,1-.024.382c0,.013,0,.026,0,.039a1.168,1.168,0,0,0-.006.192c0,.025.009.049.012.074a1.183,1.183,0,0,0,.025.15c.008.029.022.055.031.084a1.116,1.116,0,0,0,.048.125,1.005,1.005,0,0,0,.378.432c.025.017.048.038.074.053a1.128,1.128,0,0,0,.144.066c.021.009.04.021.062.028a1.151,1.151,0,0,0,.225.053,1.19,1.19,0,0,0,.232.007c.023,0,.045-.008.067-.011a1.107,1.107,0,0,0,.156-.027c.028-.008.054-.021.081-.031a1.12,1.12,0,0,0,.127-.049,1.156,1.156,0,0,0,.354-.271,1.113,1.113,0,0,0,.086-.118c.014-.022.032-.041.045-.063a1.22,1.22,0,0,0,.07-.151c.008-.019.018-.036.025-.055a1.153,1.153,0,0,0,.054-.226h0a3.6,3.6,0,0,1,.529-1.419,5.338,5.338,0,0,1,1.818-1.738,4.5,4.5,0,0,1,2.212-.667,2.365,2.365,0,0,1,1.044.221,1.993,1.993,0,0,1,.786.694h0a3.28,3.28,0,0,1,.628,1.876A3.244,3.244,0,0,1,64.19,463.934Z" transform="translate(-20.702 -291.478)" fill="#3e485c"/>
      <path id="パス_1266" data-name="パス 1266" d="M401.741,22.168a9.123,9.123,0,0,0,3.6,2.668,1.07,1.07,0,0,0,.177.052,7.131,7.131,0,0,0,1.445.139,12.074,12.074,0,0,0,3.742-.667,14.914,14.914,0,0,0,5.247-3.008,8.953,8.953,0,0,0,1.827-2.264,5.729,5.729,0,0,0,.747-2.761,5.172,5.172,0,0,0-.273-1.652,6.16,6.16,0,0,0-.829-1.6l-.942.669.942-.669a4.5,4.5,0,0,0-1.769-1.489,4.99,4.99,0,0,0-2.13-.455,6.694,6.694,0,0,0-2.347.449,7.916,7.916,0,0,0-3,2.024,6.664,6.664,0,0,0-1.307-1.872,4.952,4.952,0,0,0-1.4-.981,4.192,4.192,0,0,0-1.764-.39,4.817,4.817,0,0,0-2.168.545,4.413,4.413,0,0,0-1.964,1.914,5.5,5.5,0,0,0-.583,2.566,8.945,8.945,0,0,0,.5,2.841A12.27,12.27,0,0,0,401.741,22.168Zm-.124-8.282a2.086,2.086,0,0,1,.954-.921,2.509,2.509,0,0,1,1.132-.3,1.943,1.943,0,0,1,1.049.315,3.822,3.822,0,0,1,1.312,1.563,4.814,4.814,0,0,1,.511,2.032,2.739,2.739,0,0,1-.02.341,1.161,1.161,0,0,0,.389,1.018h0a1.145,1.145,0,0,0,.389.222,1.127,1.127,0,0,0,.449.057,1.152,1.152,0,0,0,.428-.117l.005,0a1.178,1.178,0,0,0,.184-.115l.008-.005.009-.009a1.137,1.137,0,0,0,.155-.147l0-.006a1.141,1.141,0,0,0,.218-.384,1.169,1.169,0,0,0,.042-.181c0-.014.007-.026.009-.04h0a3.419,3.419,0,0,1,.522-1.393,5.273,5.273,0,0,1,1.847-1.714,4.8,4.8,0,0,1,2.306-.663,2.69,2.69,0,0,1,1.149.236,2.183,2.183,0,0,1,.866.734h0a3.857,3.857,0,0,1,.522,1,2.865,2.865,0,0,1,.153.917,3.117,3.117,0,0,1-.2,1.09,5.632,5.632,0,0,1-1.336,1.96,11.893,11.893,0,0,1-3.694,2.409,10.735,10.735,0,0,1-4.018.93,4.95,4.95,0,0,1-.886-.077,6.086,6.086,0,0,1-1.733-1.108,9.7,9.7,0,0,1-2.2-2.937,7.565,7.565,0,0,1-.843-3.213A3.209,3.209,0,0,1,401.617,13.886Z" transform="translate(-268.594 -5.171)" fill="#3e485c"/>
      <path id="パス_1267" data-name="パス 1267" d="M111.031,9.636a9.275,9.275,0,0,0,1.624-2.221,5.753,5.753,0,0,0,.668-2.6,4.738,4.738,0,0,0-.353-1.8,5.506,5.506,0,0,0-1.081-1.662l-.846.786.846-.786A4.183,4.183,0,0,0,110.411.32,4.365,4.365,0,0,0,108.743,0a5.665,5.665,0,0,0-2.287.512,7.216,7.216,0,0,0-2.775,2.2c-.018.024-.034.049-.051.072a6.341,6.341,0,0,0-.917-1.068,4.974,4.974,0,0,0-1.321-.884A3.99,3.99,0,0,0,99.754.475a4.29,4.29,0,0,0-2.423.792h0a4.1,4.1,0,0,0-1.415,1.626,4.593,4.593,0,0,0-.431,2,7.189,7.189,0,0,0,.593,2.728,10.962,10.962,0,0,0,2.515,3.629,8.473,8.473,0,0,0,3.8,2.2,1.06,1.06,0,0,0,.182.028q.21.015.422.015a9.206,9.206,0,0,0,3.362-.735A13.941,13.941,0,0,0,111.031,9.636ZM103,11.18c-.054,0-.1,0-.154-.005a5.47,5.47,0,0,1-1.763-.855,8.727,8.727,0,0,1-2.361-2.584A5.818,5.818,0,0,1,97.8,4.895a2.29,2.29,0,0,1,.2-1,1.773,1.773,0,0,1,.629-.714h0a1.984,1.984,0,0,1,1.125-.394,1.788,1.788,0,0,1,.927.279,3.755,3.755,0,0,1,1.271,1.392,4.4,4.4,0,0,1,.378.9,2.909,2.909,0,0,1,.127.783h0c0,.024,0,.05,0,.083a1.155,1.155,0,0,0,2.307-.095s0-.008,0-.013h0a3.013,3.013,0,0,1,.341-1.343A4.736,4.736,0,0,1,106.7,3.007a3.81,3.81,0,0,1,2.041-.7,2.053,2.053,0,0,1,.788.147,1.866,1.866,0,0,1,.664.468,3.2,3.2,0,0,1,.636.963,2.413,2.413,0,0,1,.182.924,3.074,3.074,0,0,1-.184,1.013,5.927,5.927,0,0,1-1.2,1.93,11.351,11.351,0,0,1-3.26,2.461,10.126,10.126,0,0,1-1.8.718A5.9,5.9,0,0,1,103,11.18Z" transform="translate(-69.446 24)" fill="#3e485c"/>
      <path id="パス_1268" data-name="パス 1268" d="M464.437,158.805l-.767.863.767-.863a4.447,4.447,0,0,0-1.369-.842,4.164,4.164,0,0,0-1.49-.273,5.165,5.165,0,0,0-2.507.7,7.983,7.983,0,0,0-2.849,2.825,8.673,8.673,0,0,0-.5.965,7.361,7.361,0,0,0-.914-.952,5.625,5.625,0,0,0-1.4-.884,4.19,4.19,0,0,0-1.667-.359,3.865,3.865,0,0,0-1.634.365,4.941,4.941,0,0,0-1.488,1.092h0a4.873,4.873,0,0,0-1.059,1.687,5.409,5.409,0,0,0-.326,1.889,8.129,8.129,0,0,0,.807,3.361,12.67,12.67,0,0,0,3.331,4.3,10.752,10.752,0,0,0,2.261,1.47,7.424,7.424,0,0,0,2.509.718,1.2,1.2,0,0,0,.207,0,8.391,8.391,0,0,0,3.472-1.259,15.85,15.85,0,0,0,4.589-4.31,12.927,12.927,0,0,0,1.532-2.8,8.471,8.471,0,0,0,.607-3.032,6.153,6.153,0,0,0-.5-2.475A6.3,6.3,0,0,0,464.437,158.805Zm-.99,7.629a13.346,13.346,0,0,1-3.423,4.206A10.942,10.942,0,0,1,457.946,172a5.432,5.432,0,0,1-1.71.55,5.748,5.748,0,0,1-2.209-.809,10.279,10.279,0,0,1-3.179-3.075,8.744,8.744,0,0,1-.967-1.89,5.306,5.306,0,0,1-.337-1.764,3.1,3.1,0,0,1,.182-1.086,2.555,2.555,0,0,1,.561-.892h0a2.651,2.651,0,0,1,.788-.592,1.555,1.555,0,0,1,.664-.151,2.069,2.069,0,0,1,1.018.3,4.791,4.791,0,0,1,1.543,1.538,5.145,5.145,0,0,1,.8,1.984h0c0,.012.007.024.009.036a1.158,1.158,0,0,0,.047.188c.009.026.024.05.035.075a1.085,1.085,0,0,0,.061.129,1,1,0,0,0,.068.093c.022.029.04.059.064.086a1.154,1.154,0,0,0,.358.269c.032.016.067.025.1.037a1.087,1.087,0,0,0,.109.04,1.164,1.164,0,0,0,.145.023c.026,0,.051.011.078.012a1.185,1.185,0,0,0,.231-.01,1.135,1.135,0,0,0,.225-.056c.024-.008.045-.022.068-.031a1.185,1.185,0,0,0,.137-.065,1.036,1.036,0,0,0,.084-.062c.032-.023.066-.044.1-.071a1.159,1.159,0,0,0,.268-.358c.017-.034.026-.071.039-.107s.028-.067.038-.1a1.237,1.237,0,0,0,.022-.135c0-.03.012-.058.013-.089a1.2,1.2,0,0,0-.007-.178c0-.018,0-.035,0-.052a0,0,0,0,0,0,0h0a3.992,3.992,0,0,1-.04-.569,5.133,5.133,0,0,1,.39-1.9,6.265,6.265,0,0,1,1.729-2.409,4.374,4.374,0,0,1,1.092-.686,2.616,2.616,0,0,1,1.017-.225,1.844,1.844,0,0,1,.667.121,2.137,2.137,0,0,1,.657.409h0a3.964,3.964,0,0,1,1.028,1.381,3.833,3.833,0,0,1,.309,1.55A6.829,6.829,0,0,1,463.447,166.434Z" transform="translate(-299.749 -99.449)" fill="#3e485c"/>
      <path id="パス_1269" data-name="パス 1269" d="M411.3,494.46l-.767.863.767-.863a4.44,4.44,0,0,0-1.369-.841,4.165,4.165,0,0,0-1.49-.273,5.161,5.161,0,0,0-2.507.7,7.986,7.986,0,0,0-2.849,2.825,8.684,8.684,0,0,0-.5.965,7.355,7.355,0,0,0-.914-.952,5.627,5.627,0,0,0-1.4-.884,4.184,4.184,0,0,0-1.667-.359,3.866,3.866,0,0,0-1.634.365,4.953,4.953,0,0,0-1.488,1.092,4.877,4.877,0,0,0-1.058,1.687,5.408,5.408,0,0,0-.326,1.889,8.127,8.127,0,0,0,.807,3.361,12.67,12.67,0,0,0,3.331,4.3,10.753,10.753,0,0,0,2.261,1.47,7.424,7.424,0,0,0,2.509.718,1.2,1.2,0,0,0,.207,0,8.391,8.391,0,0,0,3.472-1.259,15.853,15.853,0,0,0,4.589-4.31,12.934,12.934,0,0,0,1.532-2.8,8.47,8.47,0,0,0,.607-3.032,6.153,6.153,0,0,0-.5-2.475A6.3,6.3,0,0,0,411.3,494.46Zm-.99,7.629a13.345,13.345,0,0,1-3.423,4.206,10.946,10.946,0,0,1-2.077,1.363,5.434,5.434,0,0,1-1.71.55,5.749,5.749,0,0,1-2.209-.809,10.284,10.284,0,0,1-3.179-3.075,8.748,8.748,0,0,1-.967-1.89,5.3,5.3,0,0,1-.337-1.764,3.111,3.111,0,0,1,.182-1.086,2.557,2.557,0,0,1,.561-.892,2.649,2.649,0,0,1,.789-.592,1.555,1.555,0,0,1,.664-.151,2.069,2.069,0,0,1,1.018.3,4.791,4.791,0,0,1,1.543,1.538,5.149,5.149,0,0,1,.8,1.984h0c0,.014.008.027.011.042a1.191,1.191,0,0,0,.045.182c.01.029.026.054.038.081a1.161,1.161,0,0,0,.059.123,1.191,1.191,0,0,0,.073.1c.02.026.037.055.059.079a1.158,1.158,0,0,0,.359.269c.032.016.066.024.1.037a1.093,1.093,0,0,0,.111.04,1.174,1.174,0,0,0,.145.023c.026,0,.051.011.078.012a1.183,1.183,0,0,0,.231-.01,1.148,1.148,0,0,0,.225-.056c.023-.008.043-.021.066-.031a1.087,1.087,0,0,0,.139-.066c.031-.018.057-.042.086-.063a1.058,1.058,0,0,0,.094-.07,1.162,1.162,0,0,0,.268-.358c.016-.033.025-.069.038-.1s.029-.07.039-.107a1.19,1.19,0,0,0,.022-.133c0-.03.012-.06.014-.09a1.169,1.169,0,0,0-.007-.179c0-.017,0-.034,0-.051a0,0,0,0,0,0,0h0a3.991,3.991,0,0,1-.04-.569,5.134,5.134,0,0,1,.39-1.9,6.264,6.264,0,0,1,1.729-2.409,4.374,4.374,0,0,1,1.092-.686,2.617,2.617,0,0,1,1.017-.225,1.845,1.845,0,0,1,.667.121,2.132,2.132,0,0,1,.657.409h0a3.963,3.963,0,0,1,1.028,1.381,3.833,3.833,0,0,1,.309,1.55A6.822,6.822,0,0,1,410.309,502.089Z" transform="translate(-255.113 -319.361)" fill="#3e485c"/>
      <path id="パス_1270" data-name="パス 1270" d="M214.945,152.593a7.51,7.51,0,0,0,3.86,1.649.73.73,0,0,0,.124,0,6.718,6.718,0,0,0,2.652-.852,10.03,10.03,0,0,0,3.222-2.882,8.245,8.245,0,0,0,1.008-1.834,5.436,5.436,0,0,0,.389-1.941,3.849,3.849,0,0,0-.266-1.433,3.62,3.62,0,0,0-.853-1.262l-.52.537.52-.537a3.9,3.9,0,0,0-1.2-.81,3.336,3.336,0,0,0-1.29-.259,3.842,3.842,0,0,0-1.729.433,5.286,5.286,0,0,0-1.937,1.726c-.018.027-.035.055-.053.083a5.462,5.462,0,0,0-1.245-1.34,4.129,4.129,0,0,0-2.474-.9,3.336,3.336,0,0,0-1.291.259,3.886,3.886,0,0,0-1.2.81,3.617,3.617,0,0,0-.853,1.261,3.839,3.839,0,0,0-.266,1.433,5.844,5.844,0,0,0,.665,2.569A9.815,9.815,0,0,0,214.945,152.593Zm-1.757-6.737a2.111,2.111,0,0,1,.5-.742,2.394,2.394,0,0,1,.741-.5,1.834,1.834,0,0,1,.715-.144,2.351,2.351,0,0,1,1.055.272,3.811,3.811,0,0,1,1.378,1.236,2.794,2.794,0,0,1,.54,1.493.747.747,0,1,0,1.495,0,2.372,2.372,0,0,1,.242-.972,3.925,3.925,0,0,1,1.161-1.433,2.649,2.649,0,0,1,1.569-.6,1.83,1.83,0,0,1,.714.144,2.4,2.4,0,0,1,.741.5h0a2.115,2.115,0,0,1,.5.742,2.356,2.356,0,0,1,.159.878,4.371,4.371,0,0,1-.509,1.9,8.346,8.346,0,0,1-2.323,2.774,6.108,6.108,0,0,1-3,1.332,5.285,5.285,0,0,1-2-.663,8.553,8.553,0,0,1-2.73-2.445,6.754,6.754,0,0,1-.826-1.5,3.958,3.958,0,0,1-.289-1.4A2.34,2.34,0,0,1,213.188,145.856Z" transform="translate(-137.933 -92.55)" fill="#3e485c"/>
      <path id="パス_1271" data-name="パス 1271" d="M267.939,152.593a7.51,7.51,0,0,0,3.86,1.649.73.73,0,0,0,.124,0,6.718,6.718,0,0,0,2.652-.852,10.031,10.031,0,0,0,3.222-2.882,8.243,8.243,0,0,0,1.008-1.834,5.435,5.435,0,0,0,.389-1.941,3.849,3.849,0,0,0-.266-1.433,3.62,3.62,0,0,0-.853-1.262l-.52.537.52-.537a3.9,3.9,0,0,0-1.2-.81,3.333,3.333,0,0,0-1.29-.259,3.842,3.842,0,0,0-1.729.433,5.286,5.286,0,0,0-1.937,1.726c-.018.027-.035.055-.053.083a5.462,5.462,0,0,0-1.245-1.34,4.129,4.129,0,0,0-2.474-.9,3.333,3.333,0,0,0-1.29.259,3.882,3.882,0,0,0-1.2.81,3.615,3.615,0,0,0-.853,1.261,3.839,3.839,0,0,0-.266,1.433,5.844,5.844,0,0,0,.665,2.569A9.811,9.811,0,0,0,267.939,152.593Zm-1.757-6.737a2.111,2.111,0,0,1,.5-.742,2.394,2.394,0,0,1,.741-.5,1.834,1.834,0,0,1,.715-.144,2.348,2.348,0,0,1,1.055.272,3.811,3.811,0,0,1,1.378,1.236,2.8,2.8,0,0,1,.54,1.493.747.747,0,1,0,1.495,0,2.373,2.373,0,0,1,.242-.972,3.925,3.925,0,0,1,1.161-1.433,2.649,2.649,0,0,1,1.569-.6,1.83,1.83,0,0,1,.715.144,2.4,2.4,0,0,1,.741.5h0a2.114,2.114,0,0,1,.5.742,2.356,2.356,0,0,1,.159.878,4.371,4.371,0,0,1-.509,1.9,8.346,8.346,0,0,1-2.323,2.774,6.108,6.108,0,0,1-3,1.332,5.282,5.282,0,0,1-2-.663,8.552,8.552,0,0,1-2.73-2.445,6.753,6.753,0,0,1-.826-1.5,3.956,3.956,0,0,1-.289-1.4A2.341,2.341,0,0,1,266.181,145.856Z" transform="translate(-170.238 -92.55)" fill="#3e485c"/>
    </g>
  </g>
</svg>
