<svg xmlns="http://www.w3.org/2000/svg" xmlns:xlink="http://www.w3.org/1999/xlink" width="383" height="192" viewBox="0 0 383 192">
  <defs>
    <clipPath id="clip-path">
      <rect id="長方形_521" data-name="長方形 521" width="383" height="192" transform="translate(-13647 -2993)" fill="#fff"/>
    </clipPath>
    <clipPath id="clip-path-2">
      <rect id="長方形_519" data-name="長方形 519" width="382.881" height="321.959" fill="none"/>
    </clipPath>
  </defs>
  <g id="マスクグループ_92" data-name="マスクグループ 92" transform="translate(13647 2993)" clip-path="url(#clip-path)">
    <g id="グループ_3163" data-name="グループ 3163" transform="translate(-13647 -2993)">
      <path id="パス_3419" data-name="パス 3419" d="M348.238,416.094l3.045,96.328H376.5l8.7-77.492,8.162,81.414h25.864l1.671-100.249-37.408-31.277Z" transform="translate(-189.518 -209.74)" fill="#6c859b"/>
      <g id="グループ_3162" data-name="グループ 3162">
        <g id="グループ_3161" data-name="グループ 3161" clip-path="url(#clip-path-2)">
          <path id="パス_3420" data-name="パス 3420" d="M412.577,255.907,401.4,274.313v7.017c-9.687,6.034-27.672,4.9-37.48-1l-7-4.208-10.239,6.072a32.588,32.588,0,0,1-32.1.1v-7.98l-13.736-18.406a19.605,19.605,0,0,0,.9-5.862V195.231a30.221,30.221,0,0,1,7.13-19.561s7.626-6.934,9.519-8.253a31.164,31.164,0,0,1,6.827-3.583,24.08,24.08,0,0,1,8.012-1.692l22.925-14.223,24.019,14.223c8.591,0,31.489,10.864,31.489,33.089v54.814a19.628,19.628,0,0,0,.906,5.862" transform="translate(-162.32 -76.775)" fill="#df7c8f"/>
          <path id="パス_3421" data-name="パス 3421" d="M369.3,151.735S358.97,153.987,358.658,155s26.367,35.631,26.367,35.631,2.848,2.22,4.878,1.994,4.754-3.689,4.754-3.689l26.095-35.883-16.691-3.573L389.9,133.651Z" transform="translate(-198.277 -73.887)" fill="#fff"/>
          <path id="パス_3422" data-name="パス 3422" d="M408.634,59.646h0V56.409c0-14.583-15.213-28.506-31.352-28.506s-31.352,13.923-31.352,28.506v3.285a10.961,10.961,0,0,0,.508,21.864c2.763,12.759,16.434,23.859,30.845,23.859s28.072-11.093,30.842-23.846h.51a10.962,10.962,0,0,0,0-21.925" transform="translate(-182.743 -12.426)" fill="#fff6ef"/>
          <path id="パス_3423" data-name="パス 3423" d="M48.66,297.508v13.907H388.022V220.283H48.66v77.225Z" transform="translate(-22.901 -117.78)" fill="#fff"/>
          <path id="パス_3424" data-name="パス 3424" d="M30.522,328.311H28.5l.045-.766h1.98a4.672,4.672,0,0,0,0-9.344H29.09l.085-1.458h.584a4.672,4.672,0,1,0,0-9.344h-.036l.085-1.461a4.671,4.671,0,0,0-.05-9.341H11.8A8.976,8.976,0,0,0,6.7,305v16.967c.112,7.254.579,12.256,2.219,15.743a3.831,3.831,0,0,0,2.16.707l19.447-.766a4.672,4.672,0,0,0,0-9.345" transform="translate(0.298 -159.968)" fill="#fff6ef"/>
          <path id="パス_3425" data-name="パス 3425" d="M791.375,328.311H793.4l-.045-.766h-1.981a4.672,4.672,0,0,1,0-9.344h1.433l-.085-1.458h-.584a4.672,4.672,0,0,1,0-9.344h.036l-.086-1.461a4.671,4.671,0,0,1,.05-9.341H810.1A8.976,8.976,0,0,1,815.2,305v16.967c-.112,7.254-.579,12.256-2.219,15.743a3.831,3.831,0,0,1-2.16.707l-19.447-.766a4.672,4.672,0,0,1,0-9.345" transform="translate(-430.917 -159.968)" fill="#fff6ef"/>
          <path id="パス_3426" data-name="パス 3426" d="M396.284,107.508a3.457,3.457,0,1,1-3.457,3.457,3.458,3.458,0,0,1,3.457-3.457" transform="translate(-217.168 -59.434)" fill="#1d1915"/>
          <path id="パス_3427" data-name="パス 3427" d="M449.98,107.508a3.457,3.457,0,1,1-3.457,3.457,3.458,3.458,0,0,1,3.457-3.457" transform="translate(-246.853 -59.434)" fill="#1d1915"/>
          <path id="パス_3428" data-name="パス 3428" d="M421.931,138.746h3.884a.888.888,0,0,0,0-1.777h-2.6a1.626,1.626,0,0,1-1.448-.886l-.233-.455a.42.42,0,0,0-.794.191v1.737a1.188,1.188,0,0,0,1.187,1.189" transform="translate(-232.602 -74.854)" fill="#1d1915"/>
          <path id="パス_3429" data-name="パス 3429" d="M411.263,546.216a19.574,19.574,0,0,0-4.571-4.178,24.187,24.187,0,0,0-6.622-3.025c-.486-.14-.929-.252-1.321-.342.262-4.833,1.036-19.259,1.811-34.7.476-9.482.952-19.344,1.308-27.6.178-4.129.327-7.856.432-10.936s.165-5.51.165-7.077V444.891l4.714-1.468a1.945,1.945,0,0,0-1.156-3.714l-13.656,4.252A20.759,20.759,0,0,1,373.7,440.72l-4.372-3.294a9.337,9.337,0,0,0-11.235,0l-4.372,3.294a20.759,20.759,0,0,1-18.666,3.241L321.4,439.709a1.945,1.945,0,0,0-1.156,3.714l3.96,1.233v13.7c0,1.567.06,3.995.165,7.077.365,10.778,1.276,29.5,2.1,45.547.646,12.639,1.235,23.6,1.456,27.689-.231.053-.473.11-.737.18a23.681,23.681,0,0,0-8.794,4.351,18.75,18.75,0,0,0-4.286,4.9,19.772,19.772,0,0,0-2.573,7.258l-.023.148v2.469a4.771,4.771,0,0,0,4.771,4.771h34.279a4.771,4.771,0,0,0,4.748-4.3v0l1.8-17.978v0l6.232-63.258,8.027,81.237a4.771,4.771,0,0,0,4.748,4.3h34.279a4.771,4.771,0,0,0,4.771-4.771V555.5l-.023-.147a19.291,19.291,0,0,0-3.876-9.141M365.8,462.59a2.6,2.6,0,0,0-4.933,0L353.4,538.368H331.8c-.286-5.294-1.157-21.523-1.983-38.156-.444-8.944-.875-18-1.195-25.533-.16-3.765-.292-7.148-.384-9.94s-.144-5-.144-6.379V445.867l5.806,1.808a24.65,24.65,0,0,0,22.162-3.848l4.372-3.294a5.448,5.448,0,0,1,6.555,0l4.372,3.293a24.65,24.65,0,0,0,22.162,3.848l5.052-1.573V458.36c0,1.473-.059,3.886-.162,6.946-.363,10.721-1.274,29.447-2.092,45.48-.41,8.017-.8,15.363-1.081,20.705-.142,2.671-.259,4.841-.34,6.342-.01.19-.02.368-.029.536H373.288Z" transform="translate(-172.212 -240.786)" fill="#231815"/>
          <path id="パス_3430" data-name="パス 3430" d="M408.837,160.2h0c2.377.638,5.164,3.47,8.147,3.471s5.771-2.834,8.147-3.471c1.006-.27,1.469-1,1.037-1.626a2.548,2.548,0,0,0-2.6-.648c-1.831.493-4.111,3.271-6.581,3.27s-4.751-2.777-6.581-3.27a2.548,2.548,0,0,0-2.6.648c-.432.628.032,1.356,1.038,1.626" transform="translate(-225.356 -87.25)" fill="#1d1915"/>
          <rect id="長方形_517" data-name="長方形 517" width="12.64" height="5.647" transform="translate(184.802 96.558)" fill="#231815"/>
          <path id="パス_3431" data-name="パス 3431" d="M362.157,188.927a1.945,1.945,0,0,0-3.127,2.314l11.081,14.974h4.84Z" transform="translate(-198.273 -104.009)" fill="#1d1915"/>
          <path id="パス_3432" data-name="パス 3432" d="M475.635,191.241a1.945,1.945,0,1,0-3.127-2.314l-12.793,17.288h4.839Z" transform="translate(-254.146 -104.009)" fill="#1d1915"/>
          <path id="パス_3433" data-name="パス 3433" d="M311.309,194.064a36.681,36.681,0,0,1,10.623-8.977,39.788,39.788,0,0,1,5.112-2.487,19.436,19.436,0,0,1,3.543-1.093,1.945,1.945,0,0,0-.664-3.833,18.825,18.825,0,0,0-2.7.718,40.216,40.216,0,0,0-6.237,2.767,43,43,0,0,0-10.515,7.927,29.058,29.058,0,0,0-6.874,11.327h4.107a24.33,24.33,0,0,1,3.6-6.349" transform="translate(-167.84 -98.209)" fill="#1d1915"/>
          <path id="パス_3434" data-name="パス 3434" d="M510.146,191.679a40.523,40.523,0,0,0-11.756-9.963,43.669,43.669,0,0,0-5.619-2.731,23.082,23.082,0,0,0-4.311-1.31,1.945,1.945,0,0,0-.664,3.833,15.15,15.15,0,0,1,2.124.572,36.435,36.435,0,0,1,5.62,2.5,39.153,39.153,0,0,1,9.556,7.193,25.737,25.737,0,0,1,5.582,8.643h4.11a27.737,27.737,0,0,0-4.642-8.735" transform="translate(-268.779 -98.209)" fill="#1d1915"/>
          <path id="パス_3435" data-name="パス 3435" d="M379.963,252.052a9.938,9.938,0,0,0-7.042-2.917h-9.855v-33.2H19.814v33.2H9.959A9.96,9.96,0,0,0,0,259.1v27.148a9.96,9.96,0,0,0,9.959,9.96h9.855v14.752h126.1v4.973a1.945,1.945,0,1,0,3.89,0v-4.973h82.642v4.973a1.945,1.945,0,1,0,3.89,0v-4.973H363.066V296.2h9.855a9.96,9.96,0,0,0,9.96-9.96V259.1a9.938,9.938,0,0,0-2.917-7.043M139.88,221.589h0ZM9.959,292.313a6.069,6.069,0,0,1-6.069-6.07V259.1a6.069,6.069,0,0,1,6.069-6.07H25.566a5.329,5.329,0,0,1,1.592.314,4.391,4.391,0,0,1,1.917,1.307,3.184,3.184,0,0,1,.528.928,3.4,3.4,0,0,1,.2,1.17,6.8,6.8,0,0,1-1.078,3.354,2,2,0,0,0-.141.31,7.028,7.028,0,0,0-.936-.069H19.923a1.945,1.945,0,1,0,0,3.89h7.723a3.247,3.247,0,0,1,0,6.495H19.923a1.945,1.945,0,1,0,0,3.89h7.723a3.247,3.247,0,0,1,0,6.494H19.923a1.945,1.945,0,1,0,0,3.89h7.723a7.034,7.034,0,0,0,.936-.069,1.949,1.949,0,0,0,.141.311,6.8,6.8,0,0,1,1.078,3.353,3.3,3.3,0,0,1-.338,1.5,3.748,3.748,0,0,1-1.56,1.565,5.29,5.29,0,0,1-2.34.655Zm349.217,14.752H23.7V296.2h1.987a9.2,9.2,0,0,0,2.794-.547,8.258,8.258,0,0,0,3.609-2.511,7.081,7.081,0,0,0,1.167-2.057,7.3,7.3,0,0,0,.429-2.494,10.563,10.563,0,0,0-1.546-5.2,7.053,7.053,0,0,0,.544-.489,7.115,7.115,0,0,0,0-10.084c-.052-.052-.11-.1-.165-.15.054-.051.112-.1.165-.15a7.115,7.115,0,0,0,0-10.084,7.23,7.23,0,0,0-.544-.489,10.567,10.567,0,0,0,1.546-5.2,7.2,7.2,0,0,0-.747-3.236,7.629,7.629,0,0,0-3.136-3.221,9.165,9.165,0,0,0-4.115-1.151H23.7V219.824H359.176v29.312h-1.987a9.2,9.2,0,0,0-2.795.547,8.262,8.262,0,0,0-3.609,2.511,7.082,7.082,0,0,0-1.167,2.057,7.3,7.3,0,0,0-.429,2.494,10.552,10.552,0,0,0,1.547,5.2,7.116,7.116,0,0,0-.544,10.573c.052.052.11.1.165.15-.054.051-.112.1-.165.15a7.115,7.115,0,0,0,.544,10.573,10.556,10.556,0,0,0-1.547,5.2,7.2,7.2,0,0,0,.746,3.236,7.634,7.634,0,0,0,3.137,3.221,9.165,9.165,0,0,0,4.116,1.151h1.988Zm18.037-16.53a6.042,6.042,0,0,1-4.292,1.778H357.315a5.329,5.329,0,0,1-1.593-.314,4.39,4.39,0,0,1-1.917-1.308,3.188,3.188,0,0,1-.529-.927,3.4,3.4,0,0,1-.2-1.17,6.794,6.794,0,0,1,1.078-3.353,1.9,1.9,0,0,0,.141-.311,7.111,7.111,0,0,0,.936.069h7.723a1.945,1.945,0,0,0,0-3.89h-7.723a3.247,3.247,0,0,1,0-6.494h7.723a1.945,1.945,0,0,0,0-3.89h-7.723a3.247,3.247,0,0,1,0-6.495h7.723a1.945,1.945,0,0,0,0-3.89h-7.723a7.117,7.117,0,0,0-.936.069,1.953,1.953,0,0,0-.141-.311,6.789,6.789,0,0,1-1.079-3.353,3.3,3.3,0,0,1,.338-1.5,3.75,3.75,0,0,1,1.56-1.565,5.29,5.29,0,0,1,2.34-.655h15.6a6.069,6.069,0,0,1,6.069,6.07v27.148h0a6.041,6.041,0,0,1-1.777,4.292" transform="translate(0 -119.375)" fill="#1d1915"/>
          <path id="パス_3436" data-name="パス 3436" d="M307.706,228.562h0Z" transform="translate(-167.84 -126.357)" fill="#231815"/>
          <path id="パス_3437" data-name="パス 3437" d="M315.162,228.562h0Z" transform="translate(-172.918 -126.357)" fill="#231815"/>
          <path id="パス_3438" data-name="パス 3438" d="M331.08,31.363a109.592,109.592,0,0,0,5.752,11.7,12.816,12.816,0,0,0,3.241,24.657A27.606,27.606,0,0,0,342,72.728a34.72,34.72,0,0,0,12.372,13.46,33.736,33.736,0,0,0,18.011,5.466A32.48,32.48,0,0,0,384.8,89.109a36.333,36.333,0,0,0,14.74-11.258,30.582,30.582,0,0,0,4.421-7.862q.42-1.119.735-2.268a12.818,12.818,0,0,0,2.847-24.8v-.534c4.281-.572,8.467-4.875,8.184-6.865-.325-2.286-7.293-3.3-10.075-8.982h-.008c-.252-.724-.518-1.441-.816-2.141A34.692,34.692,0,0,0,392.359,9.268a34.149,34.149,0,0,0-19.193-5.894c-.044-.106-.173-.1-.372,0h-1.2a34.254,34.254,0,0,0-4.365.289c-7.78.213-21.474,0-30.33-3.484a2.577,2.577,0,0,0-3.487,2.007c-.569,3.975.976,8.77,2.305,11.972a1.859,1.859,0,0,1-2.209,2.505l-2.361-.644a2.591,2.591,0,0,0-3.26,2.785,46.756,46.756,0,0,0,3.192,12.56m42.656,5.145a25.73,25.73,0,0,0,5.928-8.467,2.235,2.235,0,0,1,3.994-.231c3.959,6.972,11.474,14.075,17.919,17.311v2.6a5.623,5.623,0,0,0,5.623,5.623h.342V46.97a9.163,9.163,0,0,1,2.122,1.58,9.093,9.093,0,0,1-4.219,15.261,23.2,23.2,0,0,0,.143-2.52,1.856,1.856,0,0,0-3.712,0,21.9,21.9,0,0,1-2.433,9.776,31.035,31.035,0,0,1-11.049,11.991,30.037,30.037,0,0,1-16.013,4.883,28.763,28.763,0,0,1-11-2.262,32.64,32.64,0,0,1-13.22-10.092,26.86,26.86,0,0,1-3.888-6.9,21.05,21.05,0,0,1-1.392-7.394,1.856,1.856,0,0,0-3.712,0,23.224,23.224,0,0,0,.148,2.521,9.1,9.1,0,0,1-2.1-16.842v6.377h.342a5.623,5.623,0,0,0,5.623-5.623l9.848-9.748a2.242,2.242,0,0,1,3.8,1.846,3.533,3.533,0,0,0,4.507,3.787,29.633,29.633,0,0,0,12.393-7.1" transform="translate(-181.258 0)" fill="#1d1915"/>
          <rect id="長方形_518" data-name="長方形 518" width="142.161" height="18.305" transform="translate(122.368 100.449)" fill="#fff"/>
        </g>
      </g>
    </g>
    <path id="Icon_ionic-ios-arrow-forward" data-name="Icon ionic-ios-arrow-forward" d="M17.491,14.01,11.575,8.1a1.112,1.112,0,0,1,0-1.578,1.127,1.127,0,0,1,1.583,0l6.7,6.7a1.115,1.115,0,0,1,.033,1.541L13.162,21.5a1.117,1.117,0,1,1-1.583-1.578Z" transform="translate(-13340.022 -2863.013)"/>
  </g>
</svg>
