<svg xmlns="http://www.w3.org/2000/svg" width="280" height="200" viewBox="0 0 280 200">
  <g id="グループ_3085" data-name="グループ 3085" transform="translate(-500 -1349)">
    <g id="グループ_3098" data-name="グループ 3098" transform="matrix(0.966, 0.259, -0.259, 0.966, 17059.816, 114.078)">
      <g id="グループ_3006" data-name="グループ 3006" transform="translate(-15626.618 5509.15)">
        <path id="パス_3294" data-name="パス 3294" d="M164.253,123.082c-2.749-1.878-7.9-6.65-5.1-14.752a14.664,14.664,0,0,0-1-11.888,18.685,18.685,0,0,1-2.187-8.376c-.267-15.246-8.62-30.055-19.408-36.9-7.508-2.508-12.248-2.572-15.01-1.159C102.458,38.9,79.963,62.887,79.522,88.066a18.684,18.684,0,0,1-2.186,8.376,14.665,14.665,0,0,0-1,11.888c2.806,8.1-2.35,12.874-5.1,14.752a.961.961,0,0,0,.172,1.689c2.2.877,6.054,2.126,9.007,1.513a.961.961,0,0,1,1.01,1.454,24.871,24.871,0,0,1-5.954,5.963.959.959,0,0,0,.435,1.719c3.561.514,10.383,1,14.487-1.9a.959.959,0,0,1,1.467,1.062,19.624,19.624,0,0,1-.981,2.647.956.956,0,0,0,.827,1.353c2.719.114,8.464-.427,10.676-6.614,0,0-9.315-8.165-10.613-17.131A90.979,90.979,0,0,1,90.736,100.8a1.14,1.14,0,0,0,.552-.8c2.1-.459,9.994-3.277,15.446-20.079V92.613s11.1-2.6,14.555-12.689l-1.528,12.217c6.342-1.211,10.852-6.717,11.335-11.63a181.848,181.848,0,0,0,13.643,19.582,84.773,84.773,0,0,1-1.018,14.748c-1.3,8.966-10.613,17.131-10.613,17.131,2.212,6.188,7.957,6.728,10.676,6.614a.956.956,0,0,0,.827-1.353,19.643,19.643,0,0,1-.981-2.647.959.959,0,0,1,1.467-1.062c4.1,2.9,10.925,2.41,14.487,1.9a.96.96,0,0,0,.434-1.718,24.875,24.875,0,0,1-5.953-5.963.96.96,0,0,1,1.01-1.454c2.953.613,6.81-.636,9.007-1.513A.961.961,0,0,0,164.253,123.082Z" transform="translate(-70.814 -47.214)" fill="#3e485c"/>
      </g>
      <g id="グループ_3018" data-name="グループ 3018" transform="translate(-15627.023 5495.185)">
        <g id="グループ_3017" data-name="グループ 3017" transform="translate(0 0)">
          <path id="パス_3306" data-name="パス 3306" d="M188.6,124.89h-.333c-1.383-21.278-11.645-38.327-34.932-38.327s-33.55,17.049-34.932,38.327h-.333c-4.557-2.694-11.173,2.481-10.131,8.73,2.187,13.118,3.052,16.37,6.95,18.34A9.794,9.794,0,0,0,118.7,153h.392c1.3,8.251,3.893,14.323,7.218,18.956,5.081,7.077,18.143,14.477,27.024,14.477s21.942-7.4,27.024-14.477c3.326-4.633,5.92-10.705,7.218-18.956h.392a9.794,9.794,0,0,0,3.812-1.041c3.9-1.97,4.763-5.222,6.95-18.34C199.776,127.371,193.16,122.2,188.6,124.89Z" transform="translate(-103.477 -82.763)" fill="#ffeae3"/>
          <path id="パス_3307" data-name="パス 3307" d="M193.936,121.755a8.512,8.512,0,0,0-7.9-2.689c-1.755-21.306-13.662-38.021-36.382-37.786-22.8-.265-34.673,16.677-36.377,37.787-6.141-1.333-11.75,5.147-10.617,11.161v0c1.1,6.576,1.853,10.7,2.908,13.636a10.108,10.108,0,0,0,8.464,7.007c1.072,6.546,3.755,13.619,7.283,18.372,6.069,7.963,18.338,14.868,28.34,15.153,10.106-.291,22.358-7.289,28.34-15.153,3.527-4.755,6.209-11.825,7.282-18.372,6.352-.959,8.518-5.4,9.729-11.648.514-2.371,1.027-5.3,1.643-8.995v0A9.927,9.927,0,0,0,193.936,121.755Zm-.489,7.936c-1.086,6.542-1.86,10.6-2.759,13.065a6.522,6.522,0,0,1-4.9,4.691c.287-2.287.482-4.717.574-7.311a1.62,1.62,0,1,0-3.239-.113,63.908,63.908,0,0,1-2.468,16.309c-2.36,7.126-4.636,11.42-10.125,15.953-5.4,4.418-14.15,8.832-20.884,8.866-9.1-.322-20.315-6.774-25.708-13.8a37.094,37.094,0,0,1-5.3-11.018,63.885,63.885,0,0,1-2.467-16.309,1.621,1.621,0,0,0-3.239.114h0c.091,2.595.287,5.026.574,7.314-4.331-1.147-5.017-4.482-6.041-8.917-.495-2.271-1.03-5.337-1.641-9l.027.156c-.779-3.932,3.152-8.651,7.187-7.315-.064,1.319-.107,2.647-.107,3.991a1.621,1.621,0,0,0,3.241,0h0c-.178-21.887,9.262-42.107,33.477-41.842,13.528-.107,23.872,6.292,29.137,18.374,2.958,6.675,4.341,14.787,4.339,23.469a1.621,1.621,0,0,0,3.241,0c0-1.343-.037-2.674-.1-3.993C190.29,121.032,194.229,125.771,193.447,129.691Z" transform="translate(-102.509 -81.277)" fill="#3e485c"/>
        </g>
      </g>
      <g id="グループ_3019" data-name="グループ 3019" transform="translate(-15634.709 5489.678)">
        <path id="パス_3308" data-name="パス 3308" d="M188.8,96.941c-2.514-14.519-34.661-74.015-69.8-46.362,0,0-10.095-6.577-19.729,6.038-6.4,8.376-11.479,24.659-16.909,34.12-7.217,12.577-6.659,24.516,3.146,27.656-4.737-9.759-3.209-16.047,1.289-20.632-3.328,3.392-4,15.647,3.119,25.293s7.29,21.994,7.29,21.994a9.855,9.855,0,0,0,4.858-4.85c1.563-6.433-2.793-7.913-4.395-20.053-.58-4.392,2.915-2.3,3.39-16.64l.82-9.711a12.8,12.8,0,0,1,2.688-6.8c.465-.594.944-1.185,1.43-1.769a23.357,23.357,0,0,0-.357,8.316c.647,5.493-2.349,13.631-2.349,13.631s6.167-4.188,7.048-15.142,3.463-22.135,10.681-18.178c6.051-4.322,10.324,7.775,10.324,16.135s2.506,20,7.541,20.526c-2.933-7.139-2.933-16.357-2.095-23.9s.174-14.665-4.287-16.34c6.014-2.933,9.99,6.855,11.989,20.466,2.412,16.431,15.046,19.609,20.964,23.723,2.959,2.057,1.48,8.138,1.48,8.594a39.947,39.947,0,0,1-9.146,20.959,11.973,11.973,0,0,0,9.767-3.025,17.316,17.316,0,0,1-5.389,8.891c11.963-2.933,16.8-23.9,15.64-26.824C180.424,121.807,191.711,113.731,188.8,96.941Zm-2.329,9.611a19.616,19.616,0,0,1-3.361,9.314c1.324-5.009,1.188-19.271-3.431-30.818C182.672,89.259,187.29,97.952,186.475,106.552Z" transform="translate(-77.483 -43.343)" fill="#3e485c"/>
      </g>
      <g id="グループ_3020" data-name="グループ 3020" transform="translate(-15591.143 5575.059)">
        <path id="パス_3309" data-name="パス 3309" d="M239.944,341.792h0a3.6,3.6,0,0,1-2.661,1.175,3.841,3.841,0,0,1-.625-.054,4.044,4.044,0,0,1-1.438-.654,5.023,5.023,0,0,0-1.947-.885,2.674,2.674,0,0,0-.387-.028,5.157,5.157,0,0,0-2.03.515l-.258.056-.26-.057h0a5.194,5.194,0,0,0-2.032-.515,2.641,2.641,0,0,0-.386.03v0l-.013,0-.021,0v0a5.112,5.112,0,0,0-1.914.876,4.028,4.028,0,0,1-1.441.655,3.6,3.6,0,0,1-3.284-1.122,1.106,1.106,0,0,0-1.615,1.51,5.815,5.815,0,0,0,5.282,1.789,6.109,6.109,0,0,0,2.238-.963,3.519,3.519,0,0,1,1.077-.565l.027,0,.05,0a3.23,3.23,0,0,1,1.126.322l0,0a2.844,2.844,0,0,0,2.319,0l.006,0a3.2,3.2,0,0,1,1.122-.321l.074.006a3.491,3.491,0,0,1,1.08.565,6.115,6.115,0,0,0,2.237.963l.1.017-.089-.016a6,6,0,0,0,1,.085,5.825,5.825,0,0,0,4.277-1.876,1.106,1.106,0,0,0-1.617-1.509Zm-3.415,1.1.123.021h0Z" transform="translate(-219.337 -341.346)" fill="#3e485c"/>
        <path id="パス_3310" data-name="パス 3310" d="M250.29,358.323a.737.737,0,1,0-.909-1.159,4.686,4.686,0,0,1-2.6.633,5.056,5.056,0,0,1-3.091-.893.737.737,0,1,0-.93,1.145h0a6.461,6.461,0,0,0,4.021,1.223A5.956,5.956,0,0,0,250.29,358.323Z" transform="translate(-235.378 -352.011)" fill="#3e485c"/>
      </g>
      <g id="グループ_3021" data-name="グループ 3021" transform="translate(-15584.331 5554.842)">
        <path id="パス_3312" data-name="パス 3312" d="M248.4,313.7a3.948,3.948,0,0,1-1.031,1.594,1.849,1.849,0,0,1-2.811,0,3.953,3.953,0,0,1-1.032-1.6,1.032,1.032,0,1,0-1.957.655,6,6,0,0,0,1.589,2.458,3.892,3.892,0,0,0,5.612,0,5.986,5.986,0,0,0,1.589-2.46,1.032,1.032,0,1,0-1.958-.651Z" transform="translate(-241.515 -301.484)" fill="#3e485c"/>
        <path id="パス_3313" data-name="パス 3313" d="M251.118,276.445s-.17,1.668-.34,3.637-.341,4.229-.342,5.512a1.032,1.032,0,1,0,2.064,0c0-1.121.165-3.389.334-5.335s.337-3.6.337-3.605a1.032,1.032,0,0,0-2.053-.209Z" transform="translate(-247.696 -275.518)" fill="#3e485c"/>
      </g>
      <g id="グループ_3027" data-name="グループ 3027" transform="translate(-15603.035 5546.969)">
        <g id="グループ_3026" data-name="グループ 3026" transform="translate(0 0)">
          <g id="グループ_3023" data-name="グループ 3023">
            <g id="グループ_3022" data-name="グループ 3022">
              <circle id="楕円形_139" data-name="楕円形 139" cx="5.892" cy="5.892" r="5.892" transform="translate(3.218 4.433)" fill="#3e485c"/>
              <path id="パス_3314" data-name="パス 3314" d="M196.673,253.619c-.18-.122-.4-.175-.5-.38l-.039-.268v-1.36a.371.371,0,0,0-.6-.289l-.663.532a1.405,1.405,0,0,1-1.3.252,12.071,12.071,0,0,0-1.434-.36,1.406,1.406,0,0,1-1.01-.783l-.412-.867a.371.371,0,0,0-.668,0l-.347.717a1.435,1.435,0,0,1-1.128.8,6.93,6.93,0,0,0-.709.112s-.178.041-.482.143a1.426,1.426,0,0,1-1.3-.215l-.6-.447a.371.371,0,0,0-.592.311l.027.73a1.4,1.4,0,0,1-.587,1.2q-.316.224-.637.485a1.421,1.421,0,0,1-1.529.171l-.073-.036a.37.37,0,0,0-.527.411l.162.741a1.35,1.35,0,0,1-.231,1.068,12.123,12.123,0,0,0-.674,1.066c-.667,1.277.53,1.572.755,1.045,1.342-1.717,4.653-4.039,6.847-4.306,2.084-.739,6.082-.135,8.048.8C196.9,255.262,197.84,254.465,196.673,253.619Z" transform="translate(-180.613 -249.885)" fill="#3e485c"/>
            </g>
            <path id="パス_3315" data-name="パス 3315" d="M203.225,270.453c-1.576,0-3.4,2.8-2.314,3a27.239,27.239,0,0,0,5.319,0C206.721,273.309,205.873,270.453,203.225,270.453Z" transform="translate(-194.45 -264.136)" fill="#fff"/>
            <circle id="楕円形_140" data-name="楕円形 140" cx="1.214" cy="1.214" r="1.214" transform="translate(6.203 11.073)" fill="#fff"/>
            <ellipse id="楕円形_141" data-name="楕円形 141" cx="0.779" cy="0.982" rx="0.779" ry="0.982" transform="translate(10.04 12.287)" fill="#fff"/>
          </g>
          <g id="グループ_3025" data-name="グループ 3025" transform="translate(29.684)">
            <g id="グループ_3024" data-name="グループ 3024">
              <circle id="楕円形_142" data-name="楕円形 142" cx="5.892" cy="5.892" r="5.892" transform="translate(1.622 4.433)" fill="#3e485c"/>
              <path id="パス_3316" data-name="パス 3316" d="M277.825,253.619c.18-.122.4-.175.5-.38l.039-.268v-1.36a.371.371,0,0,1,.6-.289l.663.532a1.405,1.405,0,0,0,1.3.252,12.068,12.068,0,0,1,1.434-.36,1.406,1.406,0,0,0,1.01-.783l.412-.867a.371.371,0,0,1,.668,0l.347.717a1.435,1.435,0,0,0,1.128.8,6.929,6.929,0,0,1,.709.112s.178.041.482.143a1.426,1.426,0,0,0,1.3-.215l.6-.447a.371.371,0,0,1,.592.311l-.026.73a1.4,1.4,0,0,0,.587,1.2q.315.224.637.485a1.421,1.421,0,0,0,1.529.171l.073-.036a.37.37,0,0,1,.527.411l-.162.741a1.35,1.35,0,0,0,.231,1.068,12.134,12.134,0,0,1,.674,1.066c.667,1.277-.53,1.572-.755,1.045-1.342-1.717-4.653-4.039-6.847-4.306-2.084-.739-6.082-.135-8.049.8C277.6,255.262,276.659,254.465,277.825,253.619Z" transform="translate(-277.263 -249.885)" fill="#3e485c"/>
            </g>
            <path id="パス_3317" data-name="パス 3317" d="M295.738,270.453c1.576,0,3.4,2.8,2.314,3a27.239,27.239,0,0,1-5.319,0C292.241,273.309,293.091,270.453,295.738,270.453Z" transform="translate(-287.891 -264.136)" fill="#fff"/>
            <circle id="楕円形_143" data-name="楕円形 143" cx="1.214" cy="1.214" r="1.214" transform="translate(7.992 11.073)" fill="#fff"/>
            <ellipse id="楕円形_144" data-name="楕円形 144" cx="0.779" cy="0.982" rx="0.779" ry="0.982" transform="translate(5.024 12.287)" fill="#fff"/>
          </g>
        </g>
      </g>
      <g id="グループ_3029" data-name="グループ 3029" transform="translate(-15602.962 5541.986)">
        <g id="グループ_3028" data-name="グループ 3028" transform="translate(0 0)">
          <path id="パス_3318" data-name="パス 3318" d="M198.886,235.553a1.045,1.045,0,0,0-.75-.913c-5.164-1.518-14.2-1.567-17.121,1.974-.724,1.374,1.144.757,2.545.329,4.111-1.257,12.163-.5,14.045,0C198.829,237.272,198.95,236.284,198.886,235.553Z" transform="translate(-180.853 -233.659)" fill="#3e485c"/>
          <path id="パス_3319" data-name="パス 3319" d="M272.4,235.553a1.045,1.045,0,0,1,.75-.913c5.164-1.518,14.2-1.567,17.121,1.974.724,1.374-1.144.757-2.545.329-4.111-1.257-12.163-.5-14.045,0C272.459,237.272,272.338,236.284,272.4,235.553Z" transform="translate(-244.276 -233.659)" fill="#3e485c"/>
        </g>
      </g>
    </g>
    <rect id="長方形_156" data-name="長方形 156" width="280" height="200" transform="translate(500 1349)" fill="none"/>
    <g id="j32_3_16" transform="translate(621.855 1455.943) rotate(-17)">
      <path id="パス_8" data-name="パス 8" d="M191.555,85.906V25.92a9.505,9.505,0,0,0-9.487-9.5H104.6a9.505,9.505,0,0,0-9.487,9.5V85.906" transform="translate(-78.009 -13.466)" fill="#3ca9d9"/>
      <path id="パス_9" data-name="パス 9" d="M123.938,104.626V49.593a4.307,4.307,0,0,1,4.3-4.31H205.7a4.307,4.307,0,0,1,4.3,4.31v55.033Z" transform="translate(-101.646 -37.138)" fill="#26c580"/>
      <path id="パス_10" data-name="パス 10" d="M209.361,174.24l-86.212.52V130.684l86.212-.52Z" transform="translate(-100.999 -106.752)" fill="#fff"/>
      <ellipse id="楕円形_32" data-name="楕円形 32" cx="1.565" cy="1.568" rx="1.565" ry="1.568" transform="translate(29.383 14.003)" fill="#ff7373"/>
      <path id="パス_11" data-name="パス 11" d="M204.053,79.42a1.565,1.565,0,1,1-1.565-1.567A1.566,1.566,0,0,1,204.053,79.42Z" transform="translate(-164.784 -63.849)" fill="#43caff"/>
      <path id="パス_12" data-name="パス 12" d="M241.612,79.42a1.565,1.565,0,1,1-1.565-1.567A1.566,1.566,0,0,1,241.612,79.42Z" transform="translate(-195.587 -63.849)" fill="#edff87"/>
      <path id="パス_13" data-name="パス 13" d="M340.506,79.068H296.415a2.127,2.127,0,0,1,0-4.254h44.091a2.127,2.127,0,0,1,0,4.254Z" transform="translate(-241.359 -61.358)" fill="#fff"/>
      <rect id="長方形_125" data-name="長方形 125" width="16.567" height="10.257" transform="translate(30.006 43.799)" fill="#ffed8b"/>
      <rect id="長方形_126" data-name="長方形 126" width="16.567" height="10.257" transform="translate(56.664 43.799)" fill="#ffed8b"/>
      <rect id="長方形_127" data-name="長方形 127" width="16.567" height="10.257" transform="translate(82.418 43.799)" fill="#ffed8b"/>
      <rect id="長方形_128" data-name="長方形 128" width="8.283" height="7.693" transform="translate(31.813 30.828)" fill="#ffed8b"/>
      <path id="パス_14" data-name="パス 14" d="M100.215,400.457V403.1H75.446v-2.641H25.36v1.917a4.51,4.51,0,0,0,2.048,3.78l1.832,1.193a13.588,13.588,0,0,0,7.414,2.2H139.005a13.588,13.588,0,0,0,7.414-2.2l1.832-1.193a4.51,4.51,0,0,0,2.048-3.78v-1.917Z" transform="translate(-20.799 -328.43)" fill="#c7dde5"/>
      <path id="パス_15" data-name="パス 15" d="M195.636,89.72V33.93a5.063,5.063,0,0,0-5.059-5.067H113.114a5.063,5.063,0,0,0-5.06,5.067V89.72h87.582Zm-86.07-55.79a3.55,3.55,0,0,1,3.548-3.553h77.463a3.55,3.55,0,0,1,3.548,3.553v8.9H109.566Zm0,10.416h84.558v43.86H109.566Z" transform="translate(-88.619 -23.672)" fill="#161616"/>
      <path id="パス_16" data-name="パス 16" d="M149.8,61.432a2.325,2.325,0,1,0,2.321,2.325A2.323,2.323,0,0,0,149.8,61.432Zm0,3.135a.81.81,0,1,1,.809-.81A.811.811,0,0,1,149.8,64.567Z" transform="translate(-120.953 -50.383)" fill="#161616"/>
      <path id="パス_17" data-name="パス 17" d="M187.359,61.432a2.325,2.325,0,1,0,2.321,2.325A2.323,2.323,0,0,0,187.359,61.432Zm0,3.135a.81.81,0,1,1,.809-.81A.812.812,0,0,1,187.359,64.567Z" transform="translate(-151.756 -50.383)" fill="#161616"/>
      <path id="パス_18" data-name="パス 18" d="M224.918,61.432a2.325,2.325,0,1,0,2.321,2.325A2.323,2.323,0,0,0,224.918,61.432Zm0,3.135a.81.81,0,1,1,.809-.81A.811.811,0,0,1,224.918,64.567Z" transform="translate(-182.56 -50.383)" fill="#161616"/>
      <path id="パス_19" data-name="パス 19" d="M325.377,58.394H281.286a2.884,2.884,0,0,0,0,5.768h44.092a2.884,2.884,0,0,0,0-5.768Zm.965,3.851a1.36,1.36,0,0,1-.965.4H281.286a1.37,1.37,0,0,1,0-2.74h44.092a1.368,1.368,0,0,1,.965,2.337Z" transform="translate(-228.331 -47.891)" fill="#161616"/>
      <path id="パス_20" data-name="パス 20" d="M126.452,69.952H112.2V10.258A10.261,10.261,0,0,0,101.957,0H24.494A10.261,10.261,0,0,0,14.251,10.258V69.952H0v2.674A5.267,5.267,0,0,0,2.392,77.04l1.832,1.193a14.345,14.345,0,0,0,7.826,2.323H114.4a14.342,14.342,0,0,0,7.826-2.323l1.832-1.192a5.267,5.267,0,0,0,2.392-4.414V69.952ZM18.323,4.079a8.7,8.7,0,0,1,6.171-2.564h77.463a8.749,8.749,0,0,1,8.731,8.744V69.952H74.854v2.641H51.6V69.952H15.763V10.258A8.721,8.721,0,0,1,18.323,4.079ZM124.94,72.626a3.753,3.753,0,0,1-1.7,3.145L121.4,76.963a12.833,12.833,0,0,1-7,2.079H12.051a12.833,12.833,0,0,1-7-2.079L3.216,75.771a3.752,3.752,0,0,1-1.7-3.145v-1.16H50.086v2.641H76.366V71.466H124.94v1.16Z" fill="#161616"/>
      <rect id="長方形_129" data-name="長方形 129" width="16.441" height="1.415" transform="translate(28.85 54.131)" fill="#161616"/>
      <rect id="長方形_130" data-name="長方形 130" width="16.441" height="1.415" transform="translate(28.85 58.621)" fill="#161616"/>
      <rect id="長方形_131" data-name="長方形 131" width="16.44" height="1.415" transform="translate(81.161 54.131)" fill="#161616"/>
      <rect id="長方形_132" data-name="長方形 132" width="16.44" height="1.415" transform="translate(81.161 58.621)" fill="#161616"/>
      <rect id="長方形_133" data-name="長方形 133" width="16.441" height="1.415" transform="translate(55.454 54.131)" fill="#161616"/>
      <rect id="長方形_134" data-name="長方形 134" width="16.441" height="1.415" transform="translate(55.454 58.621)" fill="#161616"/>
      <path id="パス_21" data-name="パス 21" d="M156.473,224.021h17.854V212.877H156.473v11.144Zm1.413-9.729h15.028v8.314H157.886Z" transform="translate(-128.329 -174.588)" fill="#161616"/>
      <path id="パス_22" data-name="パス 22" d="M447.31,224.021h17.853V212.877H447.31Zm1.413-9.729H463.75v8.314H448.723Z" transform="translate(-366.855 -174.588)" fill="#161616"/>
      <path id="パス_23" data-name="パス 23" d="M304.384,224.021h17.854V212.877H304.384Zm1.413-9.729h15.028v8.314H305.8v-8.314Z" transform="translate(-249.637 -174.588)" fill="#161616"/>
      <path id="パス_24" data-name="パス 24" d="M172.246,146.132v-7.989h-9.387v8.7h9.387Zm-7.974-.708v-5.866h6.561v5.866Z" transform="translate(-133.567 -113.296)" fill="#161616"/>
      <rect id="長方形_135" data-name="長方形 135" width="10.085" height="1.415" transform="translate(49.465 27.9)" fill="#161616"/>
      <rect id="長方形_136" data-name="長方形 136" width="10.085" height="1.415" transform="translate(67.994 27.9)" fill="#161616"/>
      <rect id="長方形_137" data-name="長方形 137" width="10.085" height="1.415" transform="translate(86.522 27.9)" fill="#161616"/>
    </g>
  </g>
</svg>
