<svg xmlns="http://www.w3.org/2000/svg" width="280" height="200" viewBox="0 0 280 200">
  <g id="グループ_3083" data-name="グループ 3083" transform="translate(-197 -115)">
    <rect id="長方形_488" data-name="長方形 488" width="280" height="200" transform="translate(197 115)" fill="#fff"/>
    <g id="_0_0_5_0_2_188_283_8_113_11_0_0_p0" data-name="0_0_5_0_2_188_283_8_113_11_0_0_p0" transform="matrix(0.978, 0.208, -0.208, 0.978, 144.402, 89.504)">
      <g id="グループ_3057" data-name="グループ 3057" transform="translate(98.123 44.802)">
        <path id="パス_3365" data-name="パス 3365" d="M183.282,122.366h-.311c-1.292-19.877-10.878-35.8-32.631-35.8s-31.339,15.925-32.631,35.8H117.4c-4.257-2.517-10.437,2.317-9.464,8.154,2.043,12.254,2.851,15.292,6.492,17.132a9.142,9.142,0,0,0,3.561.972h.366c1.213,7.708,3.636,17.066,6.743,21.393,4.747,6.612,16.948,9.838,25.243,9.838s20.5-3.226,25.243-9.838c3.106-4.327,5.53-13.685,6.743-21.393h.366a9.142,9.142,0,0,0,3.561-.972c3.641-1.84,4.449-4.878,6.492-17.132C193.719,124.683,187.539,119.849,183.282,122.366Z" transform="translate(-102.564 -83.535)" fill="#ffeae3"/>
        <path id="パス_3366" data-name="パス 3366" d="M190.6,125.527a9.424,9.424,0,0,0-5.359-8.381,7.576,7.576,0,0,0-3.2-.74,6.5,6.5,0,0,0-1.406.164A63.636,63.636,0,0,0,179.008,106a39.261,39.261,0,0,0-4.092-10.4,26.973,26.973,0,0,0-11.093-10.636c-4.729-2.431-10.463-3.671-17.247-3.671a38.755,38.755,0,0,0-15.634,2.9,26.687,26.687,0,0,0-8.536,5.878,32.978,32.978,0,0,0-7.751,14.027,60.841,60.841,0,0,0-2.125,12.476,6.532,6.532,0,0,0-1.414-.165,7.578,7.578,0,0,0-3.2.74,9.413,9.413,0,0,0-3.786,3.284,9.157,9.157,0,0,0-1.574,5.1,8.887,8.887,0,0,0,.124,1.482v0c1.028,6.143,1.731,10,2.717,12.738a10.888,10.888,0,0,0,1.848,3.392,8.439,8.439,0,0,0,2.738,2.105,11.044,11.044,0,0,0,3.2,1.031c.395,2.71.9,5.326,1.51,7.772,1.346,5.364,3.149,9.93,5.412,13.094a18.566,18.566,0,0,0,5.2,4.722,36.781,36.781,0,0,0,10.521,4.331,44.921,44.921,0,0,0,10.753,1.416,45.778,45.778,0,0,0,14.451-2.524,33.2,33.2,0,0,0,6.823-3.223,18.569,18.569,0,0,0,5.2-4.722c2.262-3.164,4.065-7.73,5.411-13.094.611-2.446,1.115-5.061,1.51-7.772a11.036,11.036,0,0,0,3.2-1.031,8.445,8.445,0,0,0,2.738-2.105,9.788,9.788,0,0,0,1.459-2.412,28.465,28.465,0,0,0,1.571-5.315c.48-2.215.959-4.949,1.535-8.4l.028-.166-.027.163A9.055,9.055,0,0,0,190.6,125.527Zm-3.108.981c-1.015,6.111-1.738,9.9-2.577,12.2a7.911,7.911,0,0,1-1.316,2.47,5.394,5.394,0,0,1-1.788,1.354,7.729,7.729,0,0,1-1.426.545c.244-2.235.412-4.518.493-6.817a1.514,1.514,0,0,0-3.026-.106h0a84.349,84.349,0,0,1-2.325,17.149c-1.274,5.124-3.026,9.418-4.933,12.062a15.58,15.58,0,0,1-4.362,3.931,33.822,33.822,0,0,1-9.643,3.952,41.958,41.958,0,0,1-10.009,1.323,42.811,42.811,0,0,1-13.454-2.355,30.224,30.224,0,0,1-6.2-2.921,15.585,15.585,0,0,1-4.362-3.931c-1.907-2.644-3.659-6.938-4.933-12.062a84.392,84.392,0,0,1-2.325-17.149,1.514,1.514,0,1,0-3.026.106c.081,2.3.249,4.585.493,6.821a7.665,7.665,0,0,1-1.426-.548,5.4,5.4,0,0,1-1.788-1.354,6.766,6.766,0,0,1-1-1.677,25.725,25.725,0,0,1-1.385-4.739c-.46-2.118-.934-4.819-1.508-8.259l-.025-.149.025.146a5.854,5.854,0,0,1-.082-.978,6.271,6.271,0,0,1,1.8-4.328,6.183,6.183,0,0,1,1.813-1.31,4.567,4.567,0,0,1,1.92-.455,3.433,3.433,0,0,1,1.241.231c-.047,1.224-.079,2.463-.079,3.734a1.514,1.514,0,0,0,3.028,0h0a69.779,69.779,0,0,1,1.776-16.675,36.256,36.256,0,0,1,3.768-9.6,23.924,23.924,0,0,1,9.864-9.471c4.21-2.164,9.441-3.335,15.863-3.336A35.753,35.753,0,0,1,161,86.966a23.645,23.645,0,0,1,7.578,5.214,29.974,29.974,0,0,1,7.016,12.765,66.462,66.462,0,0,1,2.256,18.456,1.514,1.514,0,1,0,3.028,0c0-1.271-.03-2.512-.077-3.735a3.425,3.425,0,0,1,1.238-.23,4.563,4.563,0,0,1,1.919.455,6.4,6.4,0,0,1,2.552,2.226,6.008,6.008,0,0,1,.981,4.393Z" transform="translate(-102.552 -81.287)" fill="#3e485c"/>
      </g>
      <g id="グループ_3058" data-name="グループ 3058" transform="translate(96.342 30.124)">
        <path id="パス_3367" data-name="パス 3367" d="M123.926,199.882c1.939.854,3.665,4.114,4.645,9.511.25,1.379.572,2.729.912,3.975a1.378,1.378,0,0,0,2.7-.251l1.513-17.91Z" transform="translate(-116.012 -147.846)" fill="#3e485c"/>
        <path id="パス_3368" data-name="パス 3368" d="M363.018,199.882c-1.939.854-3.665,4.114-4.645,9.511-.25,1.379-.572,2.729-.912,3.975a1.378,1.378,0,0,1-2.7-.251l-1.513-17.91Z" transform="translate(-279.543 -147.846)" fill="#3e485c"/>
        <path id="パス_3369" data-name="パス 3369" d="M183.232,62.643c-.238,3.039-.864,4.464,1.289,6.623a28.881,28.881,0,0,1,2.455,2.85c7.128,9.32-2.322,14.8,7.128,20.845-3.186,8.323-22.3,9.73-27.61,3.7s-8.5-9.9-12.4-9.743-8.841.909-11.3-5.479-2.4-16.64-8.617-13.056c0,0-6.712-.963-5.381,6.167.751,4.024,1.946,3.822,1.4,8.928a28.593,28.593,0,0,0,0,7.826s-4.989-3.037-4.984-7.621c.005-5.989-4.315-2.839-4.922-8.782-6.262,2.587-8.2,24.2-3.781,29.032-3.535,3.505-6.851-5.641-11.793-10.969s-10.36-8.31-7.649-18.224c2.572-9.4,7.387-12.845,7.98-20.621.785-10.28,9.6-22.187,24.672-17.574,9.766-12.178,24.818-4.341,29.162,1.554,2.749,3.731,8.837-.786,15.389,6.153,6.444,6.824,1,7.247,5.547,10.146C183.821,56.948,183.375,60.818,183.232,62.643Z" transform="translate(-96.342 -30.124)" fill="#3e485c"/>
        <path id="パス_3370" data-name="パス 3370" d="M361.48,298.2c5.68,7.553,8.487,1.939,5.68,7.553s-6.716,1.4-6.716,4.71a18.912,18.912,0,0,1-1.377,6.518l-5.514-4.672s3.861-10.494,4-13.136S361.48,298.2,361.48,298.2Z" transform="translate(-279.762 -220.921)" fill="#3e485c"/>
        <path id="パス_3371" data-name="パス 3371" d="M120.755,302.883c-.453,4.872-6.036,6.532-5.131,8.947s6.187.905,6.187.905-.854,5.131-3.143,7.243,10.037-.076,10.589-1.4-2.013-2.6-2.768-7.541a24.86,24.86,0,0,0-2.649-8.158Z" transform="translate(-110.022 -224.631)" fill="#3e485c"/>
      </g>
      <g id="グループ_3059" data-name="グループ 3059" transform="translate(135.11 118.978)">
        <path id="パス_3372" data-name="パス 3372" d="M258.864,349.88h0Z" transform="translate(-251.006 -346.999)" fill="#3e485c"/>
        <path id="パス_3373" data-name="パス 3373" d="M245.8,340.019a.689.689,0,1,0-.929,1.016h0c.174.158.316.328.471.495a1.016,1.016,0,0,0-.274.325,1.711,1.711,0,0,1-.73.789,2.22,2.22,0,0,1-1.011.187c-.748.007-1.751-.2-2.873-.205a6.258,6.258,0,0,0-1.123.094,18.607,18.607,0,0,0-2.455.694,6.436,6.436,0,0,1-1.958.391,3.884,3.884,0,0,1-1.918-.534,1.033,1.033,0,0,0-.99,1.813h0a5.957,5.957,0,0,0,2.909.787,8.355,8.355,0,0,0,2.587-.489,16.992,16.992,0,0,1,2.191-.628h0a4.181,4.181,0,0,1,.755-.062c.843-.006,1.82.2,2.873.205a4.23,4.23,0,0,0,1.941-.408,3.614,3.614,0,0,0,1.371-1.257l.03.047.1.166.028.051a.689.689,0,1,0,1.217-.644A11.751,11.751,0,0,0,245.8,340.019Z" transform="translate(-231.475 -339.839)" fill="#3e485c"/>
      </g>
      <g id="グループ_3060" data-name="グループ 3060" transform="translate(131.282 90.64)">
        <path id="パス_3374" data-name="パス 3374" d="M223.16,310.747h0a14.64,14.64,0,0,0-3.477,3.6,26.052,26.052,0,0,0-1.491,2.3.456.456,0,1,0,.795.446s.137-.246.387-.649a17.426,17.426,0,0,1,4.283-4.931.455.455,0,0,0-.5-.763Z" transform="translate(-218.133 -290.703)" fill="#3e485c"/>
        <path id="パス_3375" data-name="パス 3375" d="M278.073,314.346a14.613,14.613,0,0,0-3.478-3.6.455.455,0,0,0-.495.764h0a13.815,13.815,0,0,1,3.236,3.37c.437.6.8,1.159,1.047,1.562s.387.647.388.648a.455.455,0,0,0,.795-.444A26.141,26.141,0,0,0,278.073,314.346Z" transform="translate(-257.895 -290.703)" fill="#3e485c"/>
        <path id="パス_3376" data-name="パス 3376" d="M242.054,251.08c.017-.336.027-.719.027-1.136a38.78,38.78,0,0,0-.294-4.611,22.235,22.235,0,0,0-.379-2.2,7.228,7.228,0,0,0-.582-1.706.688.688,0,0,0-1.214.648h0a6.014,6.014,0,0,1,.456,1.371,32.761,32.761,0,0,1,.638,6.5c0,.4-.01.756-.026,1.068v0c-.114,2.049-.343,4.742-.543,6.918s-.372,3.832-.372,3.836a.689.689,0,1,0,1.37.142c0-.006.689-6.659.921-10.82v0Z" transform="translate(-233.391 -241.063)" fill="#3e485c"/>
        <path id="パス_3377" data-name="パス 3377" d="M246.941,318.05c1.377.344.574-.344.114-1.148C246.483,316.558,245.564,317.706,246.941,318.05Z" transform="translate(-238.163 -295.099)" fill="#3e485c"/>
        <path id="パス_3378" data-name="パス 3378" d="M260.475,316.9c-.46.8-1.263,1.493.114,1.148S261.048,316.558,260.475,316.9Z" transform="translate(-247.861 -295.099)" fill="#3e485c"/>
      </g>
      <g id="グループ_3062" data-name="グループ 3062" transform="translate(124.804 98.811)">
        <g id="グループ_3061" data-name="グループ 3061">
          <path id="パス_3379" data-name="パス 3379" d="M196.371,269.7a9.16,9.16,0,0,1,4.8.46,11.8,11.8,0,0,1,4.375,2.374c1.033,1.087.788,2.058-.4,1.766-2.025-.5-5.472-2.1-8.277-2.56C195.653,271.538,194.881,270.133,196.371,269.7Z" transform="translate(-195.552 -269.544)" fill="#3e485c"/>
          <path id="パス_3380" data-name="パス 3380" d="M289.173,269.7a9.16,9.16,0,0,0-4.8.46A11.794,11.794,0,0,0,280,272.53c-1.033,1.087-.788,2.058.4,1.766,2.025-.5,5.472-2.1,8.277-2.56C289.891,271.538,290.663,270.133,289.173,269.7Z" transform="translate(-255.308 -269.544)" fill="#3e485c"/>
        </g>
      </g>
      <g id="グループ_3064" data-name="グループ 3064" transform="translate(124.588 86.01)">
        <g id="グループ_3063" data-name="グループ 3063">
          <path id="パス_3381" data-name="パス 3381" d="M289.147,224.925h-7.684a1.5,1.5,0,1,0,0,3h7.684a1.5,1.5,0,1,0,0-3Z" transform="translate(-255.531 -224.925)" fill="#3e485c"/>
          <path id="パス_3382" data-name="パス 3382" d="M203.984,224.925H196.3a1.5,1.5,0,1,0,0,3h7.684a1.5,1.5,0,1,0,0-3Z" transform="translate(-194.8 -224.925)" fill="#3e485c"/>
        </g>
      </g>
      <g id="グループ_3067" data-name="グループ 3067" transform="translate(108.033 90.267)">
        <g id="グループ_3066" data-name="グループ 3066">
          <path id="パス_3383" data-name="パス 3383" d="M205.859,243.364H141.688a.994.994,0,0,0-.957,1.266l4.6,16.195a1.82,1.82,0,0,0,1.749,1.322h17.7a2.927,2.927,0,0,0,2.482-1.375l6.516-10.419,6.515,10.419a2.93,2.93,0,0,0,2.483,1.375h17.7a1.819,1.819,0,0,0,1.749-1.322l4.6-16.195A.994.994,0,0,0,205.859,243.364Zm-39.85,5.6-2.669,7.922a.944.944,0,0,1-.894.643H151.592a.944.944,0,0,1-.915-.712l-2.015-7.918a.732.732,0,0,1,.709-.912l15.945.011A.731.731,0,0,1,166.01,248.961Zm32.876-.065-2.015,7.918a.944.944,0,0,1-.915.712H185.1a.946.946,0,0,1-.9-.643l-2.669-7.922a.733.733,0,0,1,.693-.966l15.945-.011A.732.732,0,0,1,198.885,248.9Z" transform="translate(-139.66 -242.331)" fill="#fff"/>
          <g id="グループ_3065" data-name="グループ 3065">
            <path id="パス_3384" data-name="パス 3384" d="M297.037,255.869l-15.946.011h0a1.763,1.763,0,0,0-1.674,2.327l2.669,7.923a1.978,1.978,0,0,0,1.874,1.346h10.854a1.977,1.977,0,0,0,1.916-1.49l2.015-7.918v0a1.764,1.764,0,0,0-1.711-2.2Zm-2.289,9.542H284.026l-2.515-7.466,15.139-.011Z" transform="translate(-238.521 -251.249)" fill="#3e485c"/>
            <path id="パス_3385" data-name="パス 3385" d="M182.5,255.88l-15.945-.011a1.763,1.763,0,0,0-1.711,2.2l2.014,7.917a1.976,1.976,0,0,0,1.916,1.489h10.854a1.977,1.977,0,0,0,1.873-1.346l2.669-7.922,0-.005a1.791,1.791,0,0,0,.091-.559,1.764,1.764,0,0,0-1.764-1.763Zm-.287,1.669,0,.005h0Zm-2.649,7.862H168.845l-1.9-7.476,15.139.011Z" transform="translate(-156.844 -251.249)" fill="#3e485c"/>
            <path id="パス_3386" data-name="パス 3386" d="M137.364,248.763h0v0Z" transform="translate(-137.285 -246.178)" fill="#3e485c"/>
            <path id="パス_3387" data-name="パス 3387" d="M204.738,240.37a2.024,2.024,0,0,0-1.446-.606H139.12a2.025,2.025,0,0,0-1.95,2.584l4.6,16.191a2.852,2.852,0,0,0,2.743,2.072h17.7a3.96,3.96,0,0,0,3.358-1.861l5.64-9.019,5.639,9.019a3.961,3.961,0,0,0,3.359,1.86h17.7a2.852,2.852,0,0,0,2.743-2.071l4.6-16.2a2.05,2.05,0,0,0,.077-.556A2.026,2.026,0,0,0,204.738,240.37Zm-6.08,17.606a.787.787,0,0,1-.756.571H180.2a1.9,1.9,0,0,1-1.608-.89l-6.515-10.418a1.033,1.033,0,0,0-1.751,0l-6.516,10.419a1.9,1.9,0,0,1-1.607.89h-17.7a.788.788,0,0,1-.757-.572l-4.583-16.145h64.07Z" transform="translate(-137.092 -239.764)" fill="#3e485c"/>
          </g>
        </g>
      </g>
    </g>
    <g id="グループ_3082" data-name="グループ 3082" transform="translate(-767.457 -912.732) rotate(-11)">
      <g id="j32_3_1" transform="translate(855.362 1311.422)">
        <path id="パス_1215" data-name="パス 1215" d="M193.982,86.833V27.011a9.492,9.492,0,0,0-9.486-9.476H107.046a9.492,9.492,0,0,0-9.486,9.476V86.833" transform="translate(-80.015 -14.382)" fill="#e96f45"/>
        <path id="パス_1216" data-name="パス 1216" d="M126.381,105.507V50.623a4.3,4.3,0,0,1,4.3-4.3h77.451a4.3,4.3,0,0,1,4.3,4.3v54.884H126.381Z" transform="translate(-103.653 -37.994)" fill="#20ab9a"/>
        <path id="パス_1217" data-name="パス 1217" d="M211.789,174.944l-86.2.518V131.505l86.2-.518Z" transform="translate(-103.005 -107.431)" fill="#fff"/>
        <path id="パス_1218" data-name="パス 1218" d="M168.934,80.374a1.565,1.565,0,1,1-1.565-1.563A1.564,1.564,0,0,1,168.934,80.374Z" transform="translate(-135.986 -64.638)" fill="#ff7373"/>
        <ellipse id="楕円形_54" data-name="楕円形 54" cx="1.565" cy="1.563" rx="1.565" ry="1.563" transform="translate(36.572 14.173)" fill="#43caff"/>
        <ellipse id="楕円形_55" data-name="楕円形 55" cx="1.565" cy="1.563" rx="1.565" ry="1.563" transform="translate(43.327 14.173)" fill="#edff87"/>
        <path id="パス_1219" data-name="パス 1219" d="M342.938,80.022H298.853a2.121,2.121,0,1,1,0-4.242h44.084a2.121,2.121,0,1,1,0,4.242Z" transform="translate(-243.367 -62.152)" fill="#fff"/>
        <path id="パス_1220" data-name="パス 1220" d="M100.215,400.587v2.634H75.451v-2.634H25.373V402.5a4.5,4.5,0,0,0,2.048,3.769l1.832,1.19a13.611,13.611,0,0,0,7.413,2.2H139a13.613,13.613,0,0,0,7.413-2.2l1.832-1.19a4.494,4.494,0,0,0,2.048-3.769v-1.912Z" transform="translate(-20.81 -328.547)" fill="#f3a185"/>
        <path id="パス_1221" data-name="パス 1221" d="M112.183,10.231A10.247,10.247,0,0,0,101.941,0H24.491A10.247,10.247,0,0,0,14.249,10.231V69.762H0v2.667a5.249,5.249,0,0,0,2.392,4.4l1.832,1.19a14.368,14.368,0,0,0,7.825,2.317H114.383a14.366,14.366,0,0,0,7.825-2.317l1.832-1.189a5.25,5.25,0,0,0,2.392-4.4V69.762H112.183ZM18.321,4.067a8.705,8.705,0,0,1,6.17-2.558h77.45a8.737,8.737,0,0,1,8.73,8.721V69.762H74.842V72.4H51.589V69.762H15.761V10.231A8.686,8.686,0,0,1,18.321,4.067Zm106.6,67.2v1.157a3.74,3.74,0,0,1-1.7,3.136l-1.832,1.189a12.856,12.856,0,0,1-7,2.074H12.049a12.856,12.856,0,0,1-7-2.073l-1.832-1.19a3.74,3.74,0,0,1-1.7-3.136V71.273H50.077v2.634H76.354V71.273H124.92Z" fill="#3e485c"/>
        <path id="パス_1222" data-name="パス 1222" d="M195.621,89.482V33.843a5.056,5.056,0,0,0-5.058-5.053h-77.45a5.056,5.056,0,0,0-5.059,5.053V89.482h87.567ZM109.566,33.843a3.545,3.545,0,0,1,3.547-3.543h77.45a3.545,3.545,0,0,1,3.547,3.543v8.878H109.566Zm0,10.388H194.11V87.972H109.566Z" transform="translate(-88.622 -23.612)" fill="#3e485c"/>
        <path id="パス_1223" data-name="パス 1223" d="M149.8,61.275a2.318,2.318,0,1,0,2.321,2.318A2.32,2.32,0,0,0,149.8,61.275Zm0,3.126a.808.808,0,1,1,.809-.808A.811.811,0,0,1,149.8,64.4Z" transform="translate(-120.954 -50.255)" fill="#3e485c"/>
        <path id="パス_1224" data-name="パス 1224" d="M187.356,61.275a2.318,2.318,0,1,0,2.321,2.318A2.32,2.32,0,0,0,187.356,61.275Zm0,3.126a.808.808,0,1,1,.809-.808A.811.811,0,0,1,187.356,64.4Z" transform="translate(-151.759 -50.255)" fill="#3e485c"/>
        <path id="パス_1225" data-name="パス 1225" d="M224.915,61.275a2.318,2.318,0,1,0,2.321,2.318A2.32,2.32,0,0,0,224.915,61.275Zm0,3.126a.808.808,0,1,1,.809-.808A.81.81,0,0,1,224.915,64.4Z" transform="translate(-182.563 -50.255)" fill="#3e485c"/>
        <path id="パス_1226" data-name="パス 1226" d="M325.366,58.245H281.281a2.883,2.883,0,0,0-2.879,2.876h0A2.883,2.883,0,0,0,281.281,64h44.085a2.883,2.883,0,0,0,2.879-2.876h0A2.883,2.883,0,0,0,325.366,58.245Zm1.367,2.876a1.373,1.373,0,0,1-1.367,1.366H281.281a1.373,1.373,0,0,1-1.368-1.366h0a1.373,1.373,0,0,1,1.367-1.366h44.085a1.373,1.373,0,0,1,1.367,1.366Z" transform="translate(-228.335 -47.77)" fill="#3e485c"/>
      </g>
      <g id="グループ_2549" data-name="グループ 2549" transform="translate(901.132 1333.575)">
        <ellipse id="楕円形_56" data-name="楕円形 56" cx="10.019" cy="10.019" rx="10.019" ry="10.019" transform="translate(5.157 1.67)" fill="#df7c8f"/>
        <path id="楕円形_57" data-name="楕円形 57" d="M10.019,2.288a7.732,7.732,0,1,0,7.732,7.732,7.74,7.74,0,0,0-7.732-7.732m0-2.288A10.019,10.019,0,1,1,0,10.019,10.019,10.019,0,0,1,10.019,0Z" transform="translate(3.153 0)" fill="#3e485c"/>
        <path id="多角形_7" data-name="多角形 7" d="M10.353,0,20.707,17.7H0Z" transform="translate(24.695 10.886) rotate(17)" fill="#20ab9a"/>
        <path id="多角形_8" data-name="多角形 8" d="M10.353,4.531,3.989,15.413h12.73L10.353,4.531m0-4.531L20.707,17.7H0Z" transform="translate(22.692 8.386) rotate(17)" fill="#3e485c"/>
        <path id="パス_1227" data-name="パス 1227" d="M0,0H14.7V14.7H0Z" transform="matrix(0.951, -0.309, 0.309, 0.951, 2.338, 32.966)" fill="#ffb64b"/>
        <path id="パス_1228" data-name="パス 1228" d="M2.288,2.288v10.12h10.12V2.288H2.288M0,0H14.7V14.7H0Z" transform="matrix(0.951, -0.309, 0.309, 0.951, 0, 31.63)" fill="#3e485c"/>
      </g>
    </g>
  </g>
</svg>
