<svg xmlns="http://www.w3.org/2000/svg" xmlns:xlink="http://www.w3.org/1999/xlink" width="280" height="200" viewBox="0 0 280 200">
  <defs>
    <clipPath id="clip-path">
      <rect id="長方形_194" data-name="長方形 194" width="84.118" height="51.419" transform="translate(0 0)" fill="#e96f45"/>
    </clipPath>
    <clipPath id="clip-path-2">
      <rect id="長方形_195" data-name="長方形 195" width="109.422" height="109.456" fill="#ffb64b"/>
    </clipPath>
  </defs>
  <g id="グループ_3088" data-name="グループ 3088" transform="translate(-500 -1349)">
    <rect id="長方形_156" data-name="長方形 156" width="280" height="200" transform="translate(500 1349)" fill="none"/>
    <g id="_0_0_1_0_302_30_2_2_15_20_0_0_p0" data-name="0_0_1_0_302_30_2_2_15_20_0_0_p0" transform="translate(461.75 1305.056) rotate(16)">
      <g id="グループ_2980" data-name="グループ 2980" transform="translate(102.509 46.522)">
        <g id="グループ_2979" data-name="グループ 2979">
          <path id="パス_3267" data-name="パス 3267" d="M188.816,125.181h-.333c-1.386-21.439-11.676-38.618-35.024-38.618s-33.638,17.178-35.024,38.618H118.1c-4.569-2.715-11.2,2.5-10.158,8.8,2.192,13.217,3.06,16.494,6.968,18.479a9.781,9.781,0,0,0,3.822,1.049h.393c1.3,8.313,3.9,14.432,7.237,19.1,5.095,7.131,18.191,14.587,27.095,14.587s22-7.456,27.095-14.587c3.334-4.668,5.935-10.786,7.237-19.1h.393a9.781,9.781,0,0,0,3.822-1.049c3.907-1.985,4.776-5.261,6.968-18.479C200.018,127.681,193.385,122.466,188.816,125.181Z" transform="translate(-102.19 -81.856)" fill="#ffeae3"/>
          <path id="パス_3268" data-name="パス 3268" d="M194.177,122.055a8.51,8.51,0,0,0-7.925-2.709c-1.759-21.465-13.7-38.3-36.478-38.066-22.859-.267-34.764,16.8-36.473,38.068-6.157-1.343-11.781,5.185-10.645,11.243v0c1.1,6.625,1.857,10.78,2.916,13.737a10.146,10.146,0,0,0,8.487,7.059c1.075,6.594,3.765,13.72,7.3,18.509,6.085,8.023,18.386,14.979,28.414,15.265,10.132-.293,22.417-7.343,28.414-15.265,3.536-4.79,6.225-11.913,7.3-18.509,6.369-.966,8.541-5.442,9.755-11.735.515-2.389,1.029-5.337,1.647-9.062v0A10.031,10.031,0,0,0,194.177,122.055Zm-.49,8c-1.089,6.59-1.865,10.681-2.766,13.162a6.553,6.553,0,0,1-4.908,4.726c.288-2.3.484-4.752.575-7.366a1.625,1.625,0,1,0-3.247-.114,64.668,64.668,0,0,1-2.475,16.43c-2.366,7.179-4.649,11.505-10.152,16.071-5.412,4.45-14.187,8.9-20.939,8.932-9.127-.324-20.369-6.825-25.775-13.9a37.445,37.445,0,0,1-5.316-11.1,64.642,64.642,0,0,1-2.474-16.43,1.625,1.625,0,0,0-3.248.114h0c.091,2.614.288,5.064.576,7.368-4.342-1.155-5.03-4.516-6.057-8.983-.5-2.288-1.033-5.377-1.645-9.068l.027.158c-.782-3.961,3.16-8.716,7.206-7.369-.064,1.329-.107,2.667-.107,4.02a1.625,1.625,0,1,0,3.25,0h0c-.178-22.049,9.287-42.419,33.565-42.153,13.564-.108,23.935,6.339,29.214,18.51,2.966,6.724,4.352,14.9,4.35,23.643a1.625,1.625,0,1,0,3.25,0c0-1.353-.037-2.694-.1-4.023C190.521,121.327,194.47,126.1,193.687,130.051Z" transform="translate(-102.509 -81.277)" fill="#3e485c"/>
        </g>
      </g>
      <g id="グループ_2981" data-name="グループ 2981" transform="translate(109.599 31.059)">
        <path id="パス_3269" data-name="パス 3269" d="M184.833,52.841v2.114s-5.412-5.406-8.97-7.027c-.508,1.261-.966,2.883-.966,2.883l-9.188-5.859-9.188,5.859s-.458-1.622-.967-2.883c-3.558,1.622-8.969,7.027-8.969,7.027V52.841c-8.289,4.524-21.051,12.384-21.051,26.137v22.116c0,1.52,2.653,9.459,4.158,13.511a2.644,2.644,0,0,0,2.9,2v-9.613s-.652-10.425,2.656-12.937,4.373-11.281,4.864-12.307c1.878-3.922,15.3-4.5,25.6-2.905,10.3-1.591,23.721-1.017,25.6,2.905.491,1.026,1.556,9.795,4.864,12.307s2.656,12.937,2.656,12.937v9.613a2.645,2.645,0,0,0,2.9-2c1.5-4.052,4.158-11.991,4.158-13.511V78.979C205.884,65.225,193.121,57.365,184.833,52.841Z" transform="translate(-125.534 -44.952)" fill="#3e485c"/>
      </g>
      <g id="グループ_2983" data-name="グループ 2983" transform="translate(139.527 126.089)">
        <g id="グループ_2982" data-name="グループ 2982">
          <path id="パス_3270" data-name="パス 3270" d="M236.139,345.968a2.857,2.857,0,0,1-.709.425,1.485,1.485,0,0,1-.552.106,3.1,3.1,0,0,1-.98-.207c-.607-.2-1.4-.559-2.462-.859a15.491,15.491,0,0,0-9.11.311c-.594.21-1.084.412-1.489.549a3.093,3.093,0,0,1-.98.207,1.477,1.477,0,0,1-.552-.106,2.855,2.855,0,0,1-.709-.425.868.868,0,0,0-1.316.308,1.227,1.227,0,0,0,.263,1.537,4.653,4.653,0,0,0,1.163.684,3.135,3.135,0,0,0,1.15.219,4.681,4.681,0,0,0,1.51-.295c.722-.247,1.443-.569,2.379-.833a12.974,12.974,0,0,1,3.622-.477,12.8,12.8,0,0,1,4.494.755c.545.191,1.025.391,1.507.555a4.672,4.672,0,0,0,1.51.295,3.139,3.139,0,0,0,1.15-.219,4.649,4.649,0,0,0,1.163-.684,1.228,1.228,0,0,0,.263-1.537.868.868,0,0,0-1.316-.308Z" transform="translate(-217.121 -344.895)" fill="#3e485c"/>
        </g>
      </g>
      <g id="グループ_2984" data-name="グループ 2984" transform="translate(148.005 115.586)">
        <path id="パス_3271" data-name="パス 3271" d="M252.758,310.381a1.154,1.154,0,0,0-1.458.065c-1.154,1.014-1.395,1.713-.5,1.938,1.063.266,2.96.219,3.359-.313C254.418,311.731,253.473,310.921,252.758,310.381Z" transform="translate(-250.258 -310.152)" fill="#3e485c"/>
      </g>
      <g id="グループ_2986" data-name="グループ 2986" transform="translate(131.746 98.654)">
        <g id="グループ_2985" data-name="グループ 2985">
          <path id="パス_3272" data-name="パス 3272" d="M197.776,269c-1.473-.536,2.5-5.221,5-5.232,1.787-.008,1.025,1.659-.633,2.763C200.305,267.753,199.349,269.569,197.776,269Z" transform="translate(-197.458 -263.765)" fill="#3e485c"/>
          <path id="パス_3273" data-name="パス 3273" d="M299.269,269c1.474-.536-2.5-5.221-5-5.232-1.787-.008-1.025,1.659.633,2.763C296.74,267.753,297.7,269.569,299.269,269Z" transform="translate(-263.745 -263.765)" fill="#3e485c"/>
        </g>
      </g>
      <g id="グループ_2988" data-name="グループ 2988" transform="translate(128.134 90.267)">
        <g id="グループ_2987" data-name="グループ 2987">
          <path id="パス_3274" data-name="パス 3274" d="M186.118,240.563c3.436-2.131,9.282-2.863,14.6-.272a.414.414,0,0,0,.507-.627c-1.59-2.01-3.771-4.108-9.657-3.527C186.274,236.659,184.95,241.215,186.118,240.563Z" transform="translate(-185.725 -236.039)" fill="#3e485c"/>
          <path id="パス_3275" data-name="パス 3275" d="M290.843,240.563c-3.436-2.131-9.282-2.863-14.6-.272a.414.414,0,0,1-.507-.627c1.59-2.01,3.771-4.108,9.657-3.527C290.687,236.659,292.011,241.215,290.843,240.563Z" transform="translate(-247.956 -236.039)" fill="#3e485c"/>
        </g>
      </g>
      <g id="グループ_2990" data-name="グループ 2990" transform="translate(117.587 99.631)">
        <g id="グループ_2989" data-name="グループ 2989">
          <path id="パス_3276" data-name="パス 3276" d="M214.028,257.853h-2.8a2.712,2.712,0,0,0-2.637,2.091,39.106,39.106,0,0,1-1.309,4.594,6.912,6.912,0,0,1-.765,1.554,1.632,1.632,0,0,1-.378.4,1.9,1.9,0,0,1-.753.277c-.409.087-1.016.155-1.786.271-.87.134-2.184.26-3.639.348s-3.067.141-4.572.141c-1.239,0-2.409-.036-3.351-.112-.47-.038-.883-.086-1.205-.14a3.867,3.867,0,0,1-.61-.139.806.806,0,0,1-.179-.167,4.812,4.812,0,0,1-.689-1.2,16.843,16.843,0,0,1-.851-2.7c-.1-.433-.184-.829-.246-1.148s-.1-.556-.132-.71v0a2.712,2.712,0,0,0-.407-1,3.058,3.058,0,0,0-1.162-1.016,4.967,4.967,0,0,0-1.578-.473,7.9,7.9,0,0,0-1.1-.076c-.085,0-.154,0-.208,0s-.13,0-.22,0a7.11,7.11,0,0,0-1.884.239,3.862,3.862,0,0,0-1.31.635,2.9,2.9,0,0,0-.651.693,2.715,2.715,0,0,0-.406,1c-.044.237-.124.7-.258,1.328a18.615,18.615,0,0,1-.935,3.144,5.649,5.649,0,0,1-.624,1.154,1.577,1.577,0,0,1-.231.256l-.049.037a3.917,3.917,0,0,1-.612.139,18.707,18.707,0,0,1-1.953.19c-.785.043-1.675.063-2.6.063-1.505,0-3.115-.053-4.572-.141s-2.769-.214-3.638-.349c-.913-.137-1.6-.211-1.994-.32a1.488,1.488,0,0,1-.58-.256,1.842,1.842,0,0,1-.4-.448,8.764,8.764,0,0,1-.9-1.993c-.34-.992-.71-2.329-1.125-4.08a2.714,2.714,0,0,0-2.637-2.09h-2.8a1.82,1.82,0,1,0,0,3.641h2.063a38.544,38.544,0,0,0,1.275,4.332,10.353,10.353,0,0,0,1.211,2.388,5.267,5.267,0,0,0,1.228,1.245,5.486,5.486,0,0,0,2.12.874c.676.139,1.3.2,1.974.306,1.055.162,2.437.29,3.971.384s3.2.147,4.793.147c1.308,0,2.559-.037,3.644-.124.544-.044,1.046-.1,1.508-.177a7.053,7.053,0,0,0,1.3-.324h0a3.947,3.947,0,0,0,1.4-.931,7.454,7.454,0,0,0,1.421-2.173,19.467,19.467,0,0,0,1.127-3.425c.124-.517.221-.983.294-1.355.021-.109.04-.208.057-.3.073-.015.153-.03.237-.039a4.509,4.509,0,0,1,.521-.031l.094,0h.006l.111.007.105-.006c.01,0,.048,0,.109,0a4.123,4.123,0,0,1,.758.071c.048.256.111.582.192.955a22.071,22.071,0,0,0,1.14,3.792,9.119,9.119,0,0,0,1.066,1.924,5.157,5.157,0,0,0,.794.853,3.777,3.777,0,0,0,1.11.661,7,7,0,0,0,1.3.325,22.008,22.008,0,0,0,2.351.233c.87.047,1.82.068,2.8.068,1.59,0,3.261-.055,4.793-.148s2.916-.222,3.971-.383c.8-.126,1.53-.185,2.354-.394a5.141,5.141,0,0,0,1.893-.9,5.488,5.488,0,0,0,1.192-1.3,12.155,12.155,0,0,0,1.319-2.845c.345-1.008.686-2.23,1.049-3.709h2.066a1.82,1.82,0,0,0,0-3.641Zm-29.481,4.031v0h0Z" transform="translate(-151.476 -257.853)" fill="#3e485c"/>
          <path id="パス_3277" data-name="パス 3277" d="M336.961,264.643v0h0Z" transform="translate(-279.844 -262.55)" fill="#3e485c"/>
        </g>
      </g>
    </g>
    <g id="グループ_203" data-name="グループ 203" transform="translate(622.709 1477.29)">
      <g id="グループ_202" data-name="グループ 202" clip-path="url(#clip-path)">
        <path id="パス_838" data-name="パス 838" d="M42.99,3.726a2.372,2.372,0,0,0-1.668,1.08c-2.408,2.666-4.843,5.31-7.188,8.032-1.175,1.364-2.1,1.38-3.29.011-2.4-2.767-4.93-5.415-7.314-8.192-.866-1.008-1.367-.919-2.181.021C19,7.393,16.519,10,14.18,12.727c-1.2,1.4-2.139,1.563-3.43.08C7.725,9.329,4.6,5.938,1.5,2.531.888,1.865.466,1.374,1.4.558c.892-.784,1.41-.651,2.141.184C6.129,3.7,8.817,6.571,11.4,9.537c.779.894,1.262.911,2.038.019C15.7,6.948,18.05,4.405,20.357,1.83,22.3-.339,22.588-.34,24.6,1.9c2.27,2.518,4.584,5,6.784,7.575.851.995,1.352.963,2.182,0,2.305-2.666,4.694-5.26,7.053-7.88,1.628-1.807,2.095-1.825,3.7-.06,2.418,2.658,4.848,5.306,7.2,8.021.791.914,1.272.849,2.028-.018,2.362-2.706,4.79-5.356,7.2-8.022,1.537-1.7,2.042-1.716,3.56-.048,2.373,2.606,4.782,5.184,7.057,7.874.987,1.168,1.546,1.016,2.461-.045,2.479-2.874,5.073-5.648,7.59-8.49C82.073.065,82.549-.4,83.535.478s.547,1.427-.106,2.145c-3.1,3.41-6.205,6.82-9.253,10.277-1.113,1.262-2.02,1.321-3.151.024-2.406-2.758-4.935-5.411-7.315-8.19-.91-1.062-1.437-1.024-2.321.011-2.246,2.628-4.6,5.166-6.909,7.736-1.8,2-2.07,2-3.94-.058q-3.488-3.839-6.933-7.715a5.466,5.466,0,0,1-.617-.982" fill="#e96f45"/>
        <path id="パス_839" data-name="パス 839" d="M41.209,41.167a11.83,11.83,0,0,1-.831,1.146C37.99,45,35.553,47.638,33.2,50.352c-1.11,1.279-2.018,1.323-3.148.029-2.409-2.756-4.937-5.409-7.318-8.188-.911-1.062-1.443-1.009-2.323.014-2.3,2.672-4.691,5.262-7.057,7.875-1.594,1.761-1.984,1.777-3.519.084C6.783,46.8,3.762,43.408.7,40.053.04,39.33-.426,38.825.6,37.939c1-.863,1.478-.4,2.131.336,2.565,2.89,5.2,5.719,7.728,8.64.821.949,1.3,1.054,2.165.042,2.335-2.729,4.768-5.375,7.18-8.038,1.509-1.666,2.035-1.664,3.574.027,2.282,2.507,4.608,4.978,6.774,7.582,1.077,1.293,1.711,1.48,2.873.065,2.192-2.669,4.624-5.14,6.877-7.761,1.244-1.448,2.25-1.393,3.472.017,2.262,2.614,4.707,5.074,6.887,7.752,1.189,1.459,1.826,1.158,2.87-.079,2.229-2.641,4.624-5.14,6.888-7.753,1.175-1.357,2.152-1.34,3.323,0,2.27,2.607,4.73,5.057,6.888,7.75,1.265,1.577,1.945,1.18,3.024-.086,2.331-2.733,4.783-5.363,7.174-8.044.649-.727,1.138-1.47,2.259-.443,1.17,1.072.285,1.627-.315,2.3-2.984,3.334-6.025,6.618-8.955,10-1.279,1.476-2.226,1.343-3.435-.061-2.3-2.67-4.757-5.205-7.045-7.885-.93-1.089-1.49-1.21-2.474-.051-2.323,2.739-4.816,5.333-7.159,8.056-1.194,1.388-2.121,1.321-3.288-.026-2.353-2.715-4.794-5.352-7.208-8.013a2.558,2.558,0,0,0-1.6-1.1" fill="#e96f45"/>
        <path id="パス_840" data-name="パス 840" d="M83.631,20.067a12.7,12.7,0,0,1-.762,1.054c-3.128,3.479-6.3,6.921-9.384,10.435-1.194,1.36-2.135,1.338-3.3-.012-2.217-2.564-4.636-4.961-6.745-7.608-1.334-1.673-2.057-1.444-3.281.075-1.954,2.424-4.135,4.666-6.227,6.979-2.035,2.25-2.247,2.251-4.222.057-2.267-2.521-4.574-5.008-6.775-7.585-.875-1.025-1.4-1.1-2.317-.025-2.33,2.734-4.825,5.327-7.162,8.056-1.244,1.452-2.21,1.424-3.441-.009-2.341-2.725-4.835-5.319-7.162-8.055-.918-1.079-1.434-.987-2.305.031-2.247,2.627-4.6,5.168-6.914,7.733-1.778,1.964-2.09,1.98-3.807.092-3.012-3.31-5.988-6.652-9-9.958C.158,20.6-.27,20.07.732,19.194s1.471-.4,2.126.339c2.564,2.892,5.2,5.719,7.731,8.64.84.971,1.336,1,2.184.014,2.255-2.62,4.613-5.152,6.926-7.722,1.814-2.016,2.2-2.024,3.967-.065,2.361,2.618,4.757,5.206,7.067,7.869.788.907,1.263.858,2.026-.019,2.313-2.66,4.7-5.254,7.065-7.871,1.723-1.909,2.151-1.914,3.834-.048,2.317,2.567,4.686,5.09,6.919,7.728.979,1.156,1.534,1.036,2.457-.044,2.289-2.68,4.688-5.266,7.059-7.876,1.448-1.593,2-1.6,3.425-.021,2.278,2.51,4.593,4.991,6.776,7.582,1.1,1.3,1.779,1.619,3.036.081,2.356-2.885,4.942-5.583,7.454-8.339.369-.4.689-1.171,1.456-.621a16.731,16.731,0,0,1,1.391,1.246" fill="#e96f45"/>
      </g>
    </g>
    <g id="グループ_205" data-name="グループ 205" transform="translate(663.287 1427.291)">
      <g id="グループ_204" data-name="グループ 204" clip-path="url(#clip-path-2)">
        <path id="パス_841" data-name="パス 841" d="M103.763,153.642c.715.207,1.279.549,1.251,1.414A1.161,1.161,0,0,1,103.8,156.3a1.257,1.257,0,0,1-1.376-1.271c-.04-.772.566-1.215,1.343-1.392" transform="translate(-35.669 -53.508)" fill="#ffb64b"/>
        <path id="パス_842" data-name="パス 842" d="M23.148,42.273c-.149.74-.5,1.289-1.348,1.3a1.145,1.145,0,0,1-1.257-1.2,1.231,1.231,0,0,1,1.2-1.406c.793-.062,1.229.525,1.4,1.3" transform="translate(-7.153 -14.266)" fill="#ffb64b"/>
        <path id="パス_843" data-name="パス 843" d="M93.586,166.546c-.879-.018-1.382-.484-1.374-1.277a1.252,1.252,0,0,1,1.339-1.314,1.273,1.273,0,0,1,1.265,1.259,1.176,1.176,0,0,1-1.23,1.332" transform="translate(-32.114 -57.1)" fill="#ffb64b"/>
        <path id="パス_844" data-name="パス 844" d="M154.807,81.976c.907.107,1.457.444,1.468,1.309a1.216,1.216,0,0,1-1.184,1.309,1.271,1.271,0,0,1-1.429-1.224c-.086-.836.551-1.177,1.145-1.394" transform="translate(-53.512 -28.549)" fill="#ffb64b"/>
        <path id="パス_845" data-name="パス 845" d="M166.507,93.54c-.077.864-.492,1.356-1.338,1.315a1.3,1.3,0,0,1,.054-2.609,1.213,1.213,0,0,1,1.284,1.294" transform="translate(-57.085 -32.126)" fill="#ffb64b"/>
        <path id="パス_846" data-name="パス 846" d="M43.586,103.7c-.114.953-.57,1.4-1.406,1.346a1.219,1.219,0,0,1-1.24-1.255,1.289,1.289,0,0,1,1.331-1.341,1.384,1.384,0,0,1,1.315,1.249" transform="translate(-14.258 -35.679)" fill="#ffb64b"/>
        <path id="パス_847" data-name="パス 847" d="M156.3,103.688c-.058.883-.467,1.358-1.316,1.363a1.234,1.234,0,0,1-1.315-1.18,1.275,1.275,0,0,1,1.249-1.417,1.357,1.357,0,0,1,1.383,1.233" transform="translate(-53.516 -35.68)" fill="#ffb64b"/>
        <path id="パス_848" data-name="パス 848" d="M144.831,115.291a1.148,1.148,0,0,1-1.356-1.124,1.306,1.306,0,1,1,2.607-.111,1.156,1.156,0,0,1-1.251,1.235" transform="translate(-49.965 -39.269)" fill="#ffb64b"/>
        <path id="パス_849" data-name="パス 849" d="M31.694,115.276a1.083,1.083,0,0,1-.947-1.271,1.3,1.3,0,0,1,2.6.078c-.033.848-.57,1.239-1.655,1.193" transform="translate(-10.707 -39.267)" fill="#ffb64b"/>
        <path id="パス_850" data-name="パス 850" d="M53.771,154.8c-.034,1-.385,1.534-1.258,1.528a1.307,1.307,0,0,1-.1-2.611,1.241,1.241,0,0,1,1.356,1.083" transform="translate(-17.826 -53.533)" fill="#ffb64b"/>
        <path id="パス_851" data-name="パス 851" d="M144.778,102.35c.706.249,1.337.609,1.3,1.433a1.215,1.215,0,0,1-1.389,1.23,1.157,1.157,0,0,1-1.217-1.252c-.006-.823.572-1.2,1.3-1.411" transform="translate(-49.967 -35.645)" fill="#ffb64b"/>
        <path id="パス_852" data-name="パス 852" d="M84.64,103.818c-.176.749-.573,1.257-1.416,1.232a1.145,1.145,0,0,1-1.214-1.245,1.244,1.244,0,0,1,1.28-1.356c.764-.007,1.222.57,1.35,1.368" transform="translate(-28.561 -35.68)" fill="#ffb64b"/>
        <path id="パス_853" data-name="パス 853" d="M42.245,135.914c-.789-.167-1.376-.593-1.3-1.416a1.207,1.207,0,0,1,1.339-1.176,1.161,1.161,0,0,1,1.263,1.35c-.042.8-.6,1.106-1.3,1.242" transform="translate(-14.256 -46.431)" fill="#ffb64b"/>
        <path id="パス_854" data-name="パス 854" d="M43.575,154.943c-.061.858-.446,1.372-1.292,1.388a1.249,1.249,0,0,1-1.336-1.3,1.264,1.264,0,0,1,1.231-1.3,1.311,1.311,0,0,1,1.4,1.217" transform="translate(-14.26 -53.536)" fill="#ffb64b"/>
        <path id="パス_855" data-name="パス 855" d="M43.568,21.777a1.258,1.258,0,0,1-1.324,1.34,1.272,1.272,0,1,1,.028-2.543,1.2,1.2,0,0,1,1.3,1.2" transform="translate(-14.258 -7.165)" fill="#ffb64b"/>
        <path id="パス_856" data-name="パス 856" d="M53.759,21.763a1.292,1.292,0,1,1-1.24-1.189,1.114,1.114,0,0,1,1.24,1.189" transform="translate(-17.824 -7.165)" fill="#ffb64b"/>
        <path id="パス_857" data-name="パス 857" d="M84.639,134.586c-.145.8-.6,1.335-1.416,1.29a1.2,1.2,0,0,1-1.214-1.3,1.17,1.17,0,0,1,1.36-1.253c.8.026,1.135.547,1.27,1.261" transform="translate(-28.561 -46.432)" fill="#ffb64b"/>
        <path id="パス_858" data-name="パス 858" d="M115.24,93.63a1.139,1.139,0,0,1-1.291,1.225,1.243,1.243,0,0,1-1.255-1.377,1.227,1.227,0,0,1,1.273-1.236c.817-.01,1.264.477,1.273,1.389" transform="translate(-39.247 -32.124)" fill="#ffb64b"/>
        <path id="パス_859" data-name="パス 859" d="M103.756,92.147c.786.23,1.325.605,1.257,1.466a1.169,1.169,0,0,1-1.265,1.207,1.27,1.27,0,0,1-1.327-1.328c0-.766.617-1.187,1.335-1.346" transform="translate(-35.67 -32.092)" fill="#ffb64b"/>
        <path id="パス_860" data-name="パス 860" d="M105.029,144.79a1.235,1.235,0,0,1-1.209,1.33,1.3,1.3,0,1,1-.029-2.591,1.2,1.2,0,0,1,1.238,1.261" transform="translate(-35.669 -49.986)" fill="#ffb64b"/>
        <path id="パス_861" data-name="パス 861" d="M53.767,93.556c-.055.807-.439,1.333-1.3,1.3a1.306,1.306,0,0,1-.01-2.611,1.208,1.208,0,0,1,1.306,1.314" transform="translate(-17.826 -32.124)" fill="#ffb64b"/>
        <path id="パス_862" data-name="パス 862" d="M2.529,93.672a1.1,1.1,0,0,1-1.158,1.184,1.308,1.308,0,1,1-.036-2.614c.753.018,1.2.493,1.195,1.431" transform="translate(-0.003 -32.124)" fill="#ffb64b"/>
        <path id="パス_863" data-name="パス 863" d="M94.845,134.633a1.306,1.306,0,0,1-1.415,1.239,1.277,1.277,0,1,1,.173-2.548,1.238,1.238,0,0,1,1.242,1.309" transform="translate(-32.112 -46.431)" fill="#ffb64b"/>
        <path id="パス_864" data-name="パス 864" d="M115.229,83.453a1.146,1.146,0,0,1-1.3,1.173,1.294,1.294,0,1,1,.239-2.572,1.134,1.134,0,0,1,1.059,1.4" transform="translate(-39.245 -28.572)" fill="#ffb64b"/>
        <path id="パス_865" data-name="パス 865" d="M83.391,166.542c-.922-.013-1.381-.448-1.383-1.283a1.24,1.24,0,0,1,1.2-1.312,1.266,1.266,0,0,1,1.391,1.26,1.2,1.2,0,0,1-1.2,1.335" transform="translate(-28.56 -57.096)" fill="#ffb64b"/>
        <path id="パス_866" data-name="パス 866" d="M103.72,84.663c-.778-.173-1.376-.611-1.31-1.415a1.251,1.251,0,0,1,1.341-1.2,1.169,1.169,0,0,1,1.256,1.359c-.04.8-.58,1.118-1.287,1.256" transform="translate(-35.664 -28.574)" fill="#ffb64b"/>
        <path id="パス_867" data-name="パス 867" d="M53.76,83.277a1.2,1.2,0,0,1-1.291,1.353,1.237,1.237,0,0,1-1.288-1.257,1.225,1.225,0,0,1,1.337-1.321,1.129,1.129,0,0,1,1.243,1.225" transform="translate(-17.824 -28.576)" fill="#ffb64b"/>
        <path id="パス_868" data-name="パス 868" d="M21.757,84.661c-.778-.183-1.291-.586-1.215-1.452a1.161,1.161,0,0,1,1.322-1.156,1.2,1.2,0,0,1,1.242,1.27c0,.821-.55,1.241-1.349,1.338" transform="translate(-7.151 -28.576)" fill="#ffb64b"/>
        <path id="パス_869" data-name="パス 869" d="M93.581,71.831a1.154,1.154,0,0,1,1.238,1.287,1.305,1.305,0,0,1-2.609-.066,1.213,1.213,0,0,1,1.371-1.221" transform="translate(-32.113 -25.016)" fill="#ffb64b"/>
        <path id="パス_870" data-name="パス 870" d="M83.31,71.827a1.264,1.264,0,1,1-1.3,1.206,1.17,1.17,0,0,1,1.3-1.206" transform="translate(-28.56 -25.015)" fill="#ffb64b"/>
        <path id="パス_871" data-name="パス 871" d="M94.843,144.878c-.155.753-.6,1.3-1.4,1.235a1.251,1.251,0,0,1-1.239-1.407,1.216,1.216,0,0,1,1.309-1.181,1.318,1.318,0,0,1,1.33,1.353" transform="translate(-32.109 -49.984)" fill="#ffb64b"/>
        <path id="パス_872" data-name="パス 872" d="M93.557,53.8A1.182,1.182,0,0,1,92.21,52.64a1.3,1.3,0,1,1,2.6-.072,1.161,1.161,0,0,1-1.257,1.23" transform="translate(-32.112 -17.842)" fill="#ffb64b"/>
        <path id="パス_873" data-name="パス 873" d="M83.678,53.782c-1.14.036-1.611-.356-1.668-1.137a1.3,1.3,0,1,1,2.591-.089,1.155,1.155,0,0,1-.922,1.226" transform="translate(-28.559 -17.841)" fill="#ffb64b"/>
        <path id="パス_874" data-name="パス 874" d="M105.038,42.1c-.059,1-.466,1.474-1.315,1.479a1.258,1.258,0,0,1-1.309-1.208,1.281,1.281,0,0,1,1.268-1.4,1.316,1.316,0,0,1,1.356,1.128" transform="translate(-35.665 -14.267)" fill="#ffb64b"/>
        <path id="パス_875" data-name="パス 875" d="M103.83,33.415a1.393,1.393,0,0,1-1.41-1.307,1.259,1.259,0,0,1,1.315-1.337,1.166,1.166,0,0,1,1.276,1.194,1.307,1.307,0,0,1-1.182,1.451" transform="translate(-35.669 -10.716)" fill="#ffb64b"/>
        <path id="パス_876" data-name="パス 876" d="M115.233,32.127c-.048.763-.428,1.264-1.225,1.253a1.243,1.243,0,0,1-1.313-1.359,1.22,1.22,0,0,1,1.408-1.251,1.137,1.137,0,0,1,1.129,1.357" transform="translate(-39.248 -10.714)" fill="#ffb64b"/>
        <path id="パス_877" data-name="パス 877" d="M71.778,93.473a1.209,1.209,0,0,1,1.257-1.233,1.187,1.187,0,0,1,1.259,1.373,1.165,1.165,0,0,1-1.245,1.245c-.872-.008-1.241-.536-1.27-1.385" transform="translate(-24.998 -32.124)" fill="#ffb64b"/>
        <path id="パス_878" data-name="パス 878" d="M72.988,40.9A1.305,1.305,0,0,1,74.3,42.149a1.18,1.18,0,0,1-1.207,1.406,1.133,1.133,0,0,1-1.29-1.183c-.087-.879.446-1.258,1.189-1.474" transform="translate(-25.002 -14.243)" fill="#ffb64b"/>
        <path id="パス_879" data-name="パス 879" d="M33.381,21.753a1.308,1.308,0,0,1-1.339,1.364,1.215,1.215,0,0,1-1.3-1.227,1.172,1.172,0,0,1,1.167-1.319,1.293,1.293,0,0,1,1.471,1.182" transform="translate(-10.706 -7.162)" fill="#ffb64b"/>
        <path id="パス_880" data-name="パス 880" d="M115.243,165.306a1.1,1.1,0,0,1-1.176,1.225,1.2,1.2,0,0,1-1.37-1.264,1.275,1.275,0,1,1,2.546.039" transform="translate(-39.248 -57.097)" fill="#ffb64b"/>
        <path id="パス_881" data-name="パス 881" d="M125.532,32.181a1.25,1.25,0,1,1-1.141-1.41c.772.048,1.148.563,1.141,1.41" transform="translate(-42.852 -10.715)" fill="#ffb64b"/>
        <path id="パス_882" data-name="パス 882" d="M32.045,40.876c.724.214,1.321.6,1.3,1.414a1.3,1.3,0,0,1-2.6,0c-.018-.81.54-1.219,1.3-1.41" transform="translate(-10.707 -14.236)" fill="#ffb64b"/>
        <path id="パス_883" data-name="パス 883" d="M40.855,42.353c.156-.775.579-1.381,1.356-1.374a1.248,1.248,0,0,1,1.305,1.328,1.172,1.172,0,0,1-1.2,1.272c-.86.064-1.2-.536-1.459-1.225" transform="translate(-14.228 -14.272)" fill="#ffb64b"/>
        <path id="パス_884" data-name="パス 884" d="M53.764,42.3c-.046.836-.453,1.308-1.315,1.276a1.245,1.245,0,0,1-1.263-1.244,1.261,1.261,0,0,1,1.292-1.364A1.225,1.225,0,0,1,53.764,42.3" transform="translate(-17.826 -14.268)" fill="#ffb64b"/>
        <path id="パス_885" data-name="パス 885" d="M103.766,166.549a1.3,1.3,0,1,1,1.249-1.21c-.025.806-.489,1.156-1.249,1.21" transform="translate(-35.667 -57.099)" fill="#ffb64b"/>
        <path id="パス_886" data-name="パス 886" d="M115.244,155.021c-.031.817-.39,1.334-1.267,1.309a1.308,1.308,0,0,1-.038-2.614c.811-.029,1.264.467,1.3,1.305" transform="translate(-39.248 -53.533)" fill="#ffb64b"/>
        <path id="パス_887" data-name="パス 887" d="M84.642,42.365c-.215.731-.609,1.264-1.451,1.211a1.161,1.161,0,0,1-1.179-1.288,1.234,1.234,0,0,1,1.309-1.313c.77.015,1.211.593,1.322,1.39" transform="translate(-28.562 -14.27)" fill="#ffb64b"/>
        <path id="パス_888" data-name="パス 888" d="M94.851,42.254c-.113.832-.528,1.331-1.363,1.318a1.222,1.222,0,0,1-1.282-1.213,1.263,1.263,0,0,1,1.265-1.388c.786-.034,1.219.546,1.38,1.283" transform="translate(-32.111 -14.268)" fill="#ffb64b"/>
        <path id="パス_889" data-name="パス 889" d="M83.343,2.543a1.139,1.139,0,0,1-1.332-1.15A1.208,1.208,0,0,1,83.261,0,1.223,1.223,0,0,1,84.6,1.313c0,.776-.5,1.169-1.26,1.23" transform="translate(-28.561 0)" fill="#ffb64b"/>
        <path id="パス_890" data-name="パス 890" d="M115.229,42.577a1.079,1.079,0,0,1-1.229,1,1.307,1.307,0,1,1,.046-2.613c.79.027,1.229.571,1.183,1.614" transform="translate(-39.25 -14.266)" fill="#ffb64b"/>
        <path id="パス_891" data-name="パス 891" d="M84.643,155.039c-.175.741-.529,1.3-1.377,1.294a1.174,1.174,0,0,1-1.257-1.216,1.233,1.233,0,0,1,1.24-1.389c.8-.044,1.216.548,1.394,1.312" transform="translate(-28.559 -53.537)" fill="#ffb64b"/>
        <path id="パス_892" data-name="パス 892" d="M133.232,42.313c.108-.911.59-1.4,1.374-1.348a1.31,1.31,0,0,1-.121,2.614c-.907,0-1.154-.6-1.253-1.266" transform="translate(-46.4 -14.265)" fill="#ffb64b"/>
        <path id="パス_893" data-name="パス 893" d="M146.128,42.281c-.16.776-.56,1.294-1.39,1.294a1.179,1.179,0,0,1-1.263-1.217,1.249,1.249,0,0,1,1.256-1.385c.78-.035,1.218.553,1.4,1.307" transform="translate(-49.966 -14.269)" fill="#ffb64b"/>
        <path id="パス_894" data-name="パス 894" d="M93.507,2.541a1.155,1.155,0,0,1-1.3-1.213,1.307,1.307,0,1,1,2.611.068,1.148,1.148,0,0,1-1.311,1.144" transform="translate(-32.112 -0.004)" fill="#ffb64b"/>
        <path id="パス_895" data-name="パス 895" d="M32.015,153.637c.751.182,1.328.58,1.327,1.385a1.3,1.3,0,0,1-2.595.044c-.06-.818.543-1.205,1.268-1.429" transform="translate(-10.707 -53.506)" fill="#ffb64b"/>
        <path id="パス_896" data-name="パス 896" d="M115.236,144.812a1.156,1.156,0,0,1-1.18,1.317,1.235,1.235,0,0,1-1.36-1.307,1.219,1.219,0,0,1,1.364-1.294,1.119,1.119,0,0,1,1.176,1.284" transform="translate(-39.248 -49.985)" fill="#ffb64b"/>
        <path id="パス_897" data-name="パス 897" d="M21.694,53.8a1.1,1.1,0,0,1-1.15-1.2,1.286,1.286,0,1,1,2.567,0c-.036.735-.5,1.2-1.418,1.2" transform="translate(-7.154 -17.841)" fill="#ffb64b"/>
        <path id="パス_898" data-name="パス 898" d="M31.969,53.8a1.141,1.141,0,0,1-1.225-1.21,1.3,1.3,0,1,1,2.6.035c-.039.761-.531,1.175-1.375,1.176" transform="translate(-10.707 -17.842)" fill="#ffb64b"/>
        <path id="パス_899" data-name="パス 899" d="M42.134,53.8a1.206,1.206,0,0,1-1.2-1.343,1.305,1.305,0,0,1,2.608.094c0,.869-.5,1.239-1.412,1.249" transform="translate(-14.256 -17.841)" fill="#ffb64b"/>
        <path id="パス_900" data-name="パス 900" d="M83.289,146.165c-.738-.146-1.256-.507-1.283-1.292a1.2,1.2,0,0,1,1.294-1.339,1.218,1.218,0,0,1,1.3,1.234c.031.826-.546,1.236-1.307,1.4" transform="translate(-28.56 -49.988)" fill="#ffb64b"/>
        <path id="パス_901" data-name="パス 901" d="M71.791,144.938c0-.935.458-1.408,1.279-1.411a1.161,1.161,0,0,1,1.232,1.259,1.19,1.19,0,0,1-1.286,1.345,1.16,1.16,0,0,1-1.225-1.192" transform="translate(-25.002 -49.985)" fill="#ffb64b"/>
        <path id="パス_902" data-name="パス 902" d="M53.76,144.851a1.167,1.167,0,0,1-1.269,1.272,1.255,1.255,0,0,1-1.307-1.343,1.241,1.241,0,0,1,1.384-1.255,1.167,1.167,0,0,1,1.191,1.326" transform="translate(-17.826 -49.984)" fill="#ffb64b"/>
        <path id="パス_903" data-name="パス 903" d="M84.644,32.059c-.175.744-.551,1.339-1.375,1.315a1.209,1.209,0,0,1-1.26-1.356,1.2,1.2,0,0,1,1.23-1.25c.817-.025,1.23.523,1.4,1.29" transform="translate(-28.561 -10.715)" fill="#ffb64b"/>
        <path id="パス_904" data-name="パス 904" d="M71.771,32.254c.035-.969.445-1.491,1.289-1.489a1.159,1.159,0,0,1,1.23,1.263,1.265,1.265,0,0,1-2.52.226" transform="translate(-24.995 -10.714)" fill="#ffb64b"/>
        <path id="パス_905" data-name="パス 905" d="M103.823,53.8a1.232,1.232,0,0,1-1.414-1.219,1.249,1.249,0,0,1,1.3-1.348,1.225,1.225,0,0,1,1.3,1.324,1.127,1.127,0,0,1-1.189,1.244" transform="translate(-35.665 -17.842)" fill="#ffb64b"/>
        <path id="パス_906" data-name="パス 906" d="M115.241,52.532c-.022.766-.346,1.236-1.179,1.257a1.2,1.2,0,0,1-1.368-1.259,1.235,1.235,0,0,1,1.352-1.311,1.19,1.19,0,0,1,1.2,1.313" transform="translate(-39.247 -17.837)" fill="#ffb64b"/>
        <path id="パス_907" data-name="パス 907" d="M43.564,144.936a1.312,1.312,0,1,1-1.182-1.41,1.256,1.256,0,0,1,1.182,1.41" transform="translate(-14.259 -49.983)" fill="#ffb64b"/>
        <path id="パス_908" data-name="パス 908" d="M21.775,146.161c-.8-.166-1.292-.587-1.232-1.444a1.171,1.171,0,0,1,1.3-1.187,1.219,1.219,0,0,1,1.261,1.265c.008.815-.536,1.249-1.331,1.366" transform="translate(-7.153 -49.986)" fill="#ffb64b"/>
        <path id="パス_909" data-name="パス 909" d="M145.058,53.8c-1.081.007-1.551-.416-1.583-1.184a1.238,1.238,0,0,1,1.292-1.379,1.257,1.257,0,0,1,1.317,1.365,1.147,1.147,0,0,1-1.026,1.2" transform="translate(-49.967 -17.843)" fill="#ffb64b"/>
        <path id="パス_910" data-name="パス 910" d="M154.959,53.8a1.2,1.2,0,0,1-1.28-1.32,1.3,1.3,0,0,1,2.6.048c0,.858-.488,1.249-1.324,1.272" transform="translate(-53.52 -17.837)" fill="#ffb64b"/>
        <path id="パス_911" data-name="パス 911" d="M64.03,32.164A1.141,1.141,0,0,1,62.8,33.382a1.193,1.193,0,0,1-1.265-1.365,1.165,1.165,0,0,1,1.244-1.251c.847,0,1.258.516,1.248,1.4" transform="translate(-21.431 -10.715)" fill="#ffb64b"/>
        <path id="パス_912" data-name="パス 912" d="M146.12,134.623a1.348,1.348,0,0,1-1.445,1.25,1.211,1.211,0,0,1-1.2-1.323,1.184,1.184,0,0,1,1.4-1.225c.793.046,1.145.548,1.25,1.3" transform="translate(-49.966 -46.431)" fill="#ffb64b"/>
        <path id="パス_913" data-name="パス 913" d="M115.234,134.385c.01,1-.433,1.491-1.26,1.5a1.277,1.277,0,1,1,.013-2.554,1.077,1.077,0,0,1,1.247,1.058" transform="translate(-39.245 -46.433)" fill="#ffb64b"/>
        <path id="パス_914" data-name="パス 914" d="M103.695,133.3c.8.046,1.288.386,1.318,1.2a1.208,1.208,0,0,1-1.272,1.369,1.227,1.227,0,0,1-1.325-1.214,1.255,1.255,0,0,1,1.279-1.357" transform="translate(-35.667 -46.423)" fill="#ffb64b"/>
        <path id="パス_915" data-name="パス 915" d="M53.762,134.482c-.006.887-.452,1.385-1.274,1.4a1.277,1.277,0,1,1,0-2.553,1.119,1.119,0,0,1,1.273,1.154" transform="translate(-17.824 -46.433)" fill="#ffb64b"/>
        <path id="パス_916" data-name="パス 916" d="M33.382,134.52a1.324,1.324,0,0,1-1.335,1.354,1.216,1.216,0,0,1-1.3-1.226,1.169,1.169,0,0,1,1.162-1.323,1.285,1.285,0,0,1,1.473,1.195" transform="translate(-10.707 -46.43)" fill="#ffb64b"/>
        <path id="パス_917" data-name="パス 917" d="M21.833,133.3a1.283,1.283,0,1,1-.038,2.566,1.188,1.188,0,0,1-1.251-1.374,1.172,1.172,0,0,1,1.288-1.191" transform="translate(-7.154 -46.424)" fill="#ffb64b"/>
        <path id="パス_918" data-name="パス 918" d="M144.8,123.051c.862.079,1.337.539,1.28,1.376a1.168,1.168,0,0,1-1.358,1.12,1.13,1.13,0,0,1-1.252-1.217,1.2,1.2,0,0,1,1.33-1.279" transform="translate(-49.966 -42.854)" fill="#ffb64b"/>
        <path id="パス_919" data-name="パス 919" d="M154.982,115.293a1.173,1.173,0,0,1-1.312-1.187,1.232,1.232,0,0,1,1.319-1.346,1.214,1.214,0,0,1,1.291,1.358c-.028.814-.524,1.16-1.3,1.175" transform="translate(-53.518 -39.27)" fill="#ffb64b"/>
        <path id="パス_920" data-name="パス 920" d="M104.039,115.286c-1.115.031-1.62-.461-1.629-1.253a1.222,1.222,0,0,1,1.265-1.272,1.2,1.2,0,0,1,1.337,1.3c.007.815-.436,1.2-.973,1.227" transform="translate(-35.666 -39.271)" fill="#ffb64b"/>
        <path id="パス_921" data-name="パス 921" d="M93.5,115.292a1.154,1.154,0,0,1-1.294-1.194,1.305,1.305,0,1,1,2.608.029,1.151,1.151,0,0,1-1.314,1.165" transform="translate(-32.113 -39.269)" fill="#ffb64b"/>
        <path id="パス_922" data-name="パス 922" d="M82.952,115.3c-.427.01-.9-.379-.942-1.163a1.3,1.3,0,1,1,2.591-.052c-.016.757-.486,1.195-1.65,1.215" transform="translate(-28.56 -39.27)" fill="#ffb64b"/>
        <path id="パス_923" data-name="パス 923" d="M42.6,115.28c-1.154.038-1.657-.439-1.666-1.247a1.308,1.308,0,0,1,2.615.027,1.09,1.09,0,0,1-.95,1.22" transform="translate(-14.255 -39.271)" fill="#ffb64b"/>
        <path id="パス_924" data-name="パス 924" d="M21.426,115.284c-.467-.016-.88-.444-.879-1.229a1.283,1.283,0,1,1,2.566-.024c-.005.821-.492,1.279-1.687,1.253" transform="translate(-7.156 -39.27)" fill="#ffb64b"/>
        <path id="パス_925" data-name="パス 925" d="M166.5,103.734c-.023.821-.392,1.273-1.184,1.318a1.245,1.245,0,0,1-1.4-1.23,1.26,1.26,0,0,1,1.285-1.372,1.239,1.239,0,0,1,1.3,1.283" transform="translate(-57.082 -35.68)" fill="#ffb64b"/>
        <path id="パス_926" data-name="パス 926" d="M144.8,64.051c-.841-.014-1.318-.416-1.324-1.2a1.306,1.306,0,1,1,2.611.054,1.151,1.151,0,0,1-1.287,1.145" transform="translate(-49.967 -21.437)" fill="#ffb64b"/>
        <path id="パス_927" data-name="パス 927" d="M134.567,105.065a1.169,1.169,0,0,1-1.29-1.247,1.269,1.269,0,1,1,1.29,1.247" transform="translate(-46.415 -35.678)" fill="#ffb64b"/>
        <path id="パス_928" data-name="パス 928" d="M115.245,103.6c-.02.926-.348,1.406-1.156,1.451a1.224,1.224,0,0,1-1.4-1.221,1.247,1.247,0,0,1,1.255-1.385,1.2,1.2,0,0,1,1.3,1.155" transform="translate(-39.246 -35.677)" fill="#ffb64b"/>
        <path id="パス_929" data-name="パス 929" d="M93.567,105.068a1.31,1.31,0,1,1-.009-2.618,1.3,1.3,0,0,1,1.257,1.274c.051.843-.465,1.254-1.247,1.344" transform="translate(-32.115 -35.679)" fill="#ffb64b"/>
        <path id="パス_930" data-name="パス 930" d="M53.768,103.8c-.051.791-.422,1.244-1.221,1.253a1.237,1.237,0,0,1-1.358-1.271,1.261,1.261,0,0,1,1.322-1.333,1.248,1.248,0,0,1,1.257,1.351" transform="translate(-17.827 -35.679)" fill="#ffb64b"/>
        <path id="パス_931" data-name="パス 931" d="M32.007,102.355c.721.2,1.324.569,1.335,1.379a1.19,1.19,0,0,1-1.327,1.283,1.174,1.174,0,0,1-1.274-1.2c-.048-.818.521-1.227,1.266-1.46" transform="translate(-10.705 -35.647)" fill="#ffb64b"/>
        <path id="パス_932" data-name="パス 932" d="M33.387,73c-.093.868-.542,1.365-1.364,1.362a1.186,1.186,0,0,1-1.277-1.232,1.158,1.158,0,0,1,1.191-1.288A1.274,1.274,0,0,1,33.387,73" transform="translate(-10.708 -25.018)" fill="#ffb64b"/>
        <path id="パス_933" data-name="パス 933" d="M42.422,71.836a1.126,1.126,0,0,1,1.125,1.255,1.306,1.306,0,0,1-2.612,0c.027-.792.529-1.275,1.487-1.253" transform="translate(-14.256 -25.018)" fill="#ffb64b"/>
        <path id="パス_934" data-name="パス 934" d="M23.145,103.846c-.184.727-.568,1.245-1.421,1.206a1.132,1.132,0,0,1-1.178-1.269,1.224,1.224,0,0,1,1.286-1.333c.765,0,1.224.574,1.313,1.4" transform="translate(-7.155 -35.679)" fill="#ffb64b"/>
        <path id="パス_935" data-name="パス 935" d="M2.523,104.024a1.061,1.061,0,0,1-1.212,1.026,1.2,1.2,0,0,1-1.305-1.326,1.218,1.218,0,0,1,1.249-1.279c.789-.007,1.284.5,1.268,1.578" transform="translate(-0.002 -35.678)" fill="#ffb64b"/>
        <path id="パス_936" data-name="パス 936" d="M155.179,94.906c-.97-.1-1.487-.6-1.5-1.352a1.249,1.249,0,0,1,1.346-1.3,1.225,1.225,0,0,1,1.254,1.242,1.379,1.379,0,0,1-1.1,1.413" transform="translate(-53.521 -32.128)" fill="#ffb64b"/>
        <path id="パス_937" data-name="パス 937" d="M53.759,32.19a1.174,1.174,0,0,1-1.335,1.186,1.274,1.274,0,0,1-1.242-1.41,1.247,1.247,0,0,1,1.32-1.2c.812.019,1.262.493,1.257,1.423" transform="translate(-17.823 -10.715)" fill="#ffb64b"/>
        <path id="パス_938" data-name="パス 938" d="M42.289,30.678c.8.22,1.337.611,1.255,1.462a1.2,1.2,0,0,1-1.286,1.2A1.272,1.272,0,0,1,40.946,32c.013-.781.626-1.176,1.343-1.32" transform="translate(-14.26 -10.684)" fill="#ffb64b"/>
        <path id="パス_939" data-name="パス 939" d="M83.3,94.892c-.809-.114-1.3-.532-1.3-1.362a1.207,1.207,0,0,1,1.21-1.282,1.247,1.247,0,0,1,1.375,1.271A1.33,1.33,0,0,1,83.3,94.892" transform="translate(-28.56 -32.126)" fill="#ffb64b"/>
        <path id="パス_940" data-name="パス 940" d="M93.357,20.525c.869.063,1.408.392,1.459,1.187a1.306,1.306,0,1,1-2.61.07,1.245,1.245,0,0,1,1.15-1.257" transform="translate(-32.112 -7.148)" fill="#ffb64b"/>
        <path id="パス_941" data-name="パス 941" d="M43.579,93.486c-.081.825-.464,1.361-1.3,1.369a1.3,1.3,0,0,1-.087-2.606,1.292,1.292,0,0,1,1.389,1.238" transform="translate(-14.261 -32.126)" fill="#ffb64b"/>
        <path id="パス_942" data-name="パス 942" d="M21.892,94.884c-.84-.07-1.322-.469-1.352-1.309a1.2,1.2,0,0,1,1.148-1.33A1.234,1.234,0,0,1,23.1,93.466a1.314,1.314,0,0,1-1.209,1.418" transform="translate(-7.153 -32.122)" fill="#ffb64b"/>
        <path id="パス_943" data-name="パス 943" d="M146.118,73.054a1.3,1.3,0,0,1-1.373,1.305,1.183,1.183,0,0,1-1.272-1.235,1.151,1.151,0,0,1,1.2-1.282,1.274,1.274,0,0,1,1.446,1.212" transform="translate(-49.966 -25.019)" fill="#ffb64b"/>
        <path id="パス_944" data-name="パス 944" d="M155.135,71.836a1.128,1.128,0,0,1,1.149,1.234,1.306,1.306,0,0,1-2.611.032c.014-.784.5-1.285,1.462-1.266" transform="translate(-53.519 -25.018)" fill="#ffb64b"/>
        <path id="パス_945" data-name="パス 945" d="M115.237,21.779a1.171,1.171,0,0,1-1.266,1.348,1.276,1.276,0,1,1,.021-2.551,1.113,1.113,0,0,1,1.245,1.2" transform="translate(-39.246 -7.166)" fill="#ffb64b"/>
        <path id="パス_946" data-name="パス 946" d="M2.526,83.241c-.005.923-.46,1.373-1.208,1.39a1.289,1.289,0,1,1,.058-2.574,1.077,1.077,0,0,1,1.15,1.184" transform="translate(-0.001 -28.576)" fill="#ffb64b"/>
        <path id="パス_947" data-name="パス 947" d="M144.773,84.667c-.776-.174-1.348-.563-1.3-1.414a1.192,1.192,0,0,1,1.3-1.2,1.218,1.218,0,0,1,1.307,1.214c.044.845-.561,1.221-1.307,1.4" transform="translate(-49.965 -28.575)" fill="#ffb64b"/>
        <path id="パス_948" data-name="パス 948" d="M93.444,81.971c.847.149,1.4.512,1.372,1.364a1.228,1.228,0,0,1-1.244,1.26A1.248,1.248,0,0,1,92.2,83.316c-.025-.812.546-1.2,1.239-1.345" transform="translate(-32.111 -28.548)" fill="#ffb64b"/>
        <path id="パス_949" data-name="パス 949" d="M32.01,82c.784.093,1.338.489,1.334,1.307a1.3,1.3,0,0,1-2.6.063c-.038-.811.467-1.248,1.268-1.37" transform="translate(-10.706 -28.557)" fill="#ffb64b"/>
        <path id="パス_950" data-name="パス 950" d="M42.322,82c.719.139,1.236.485,1.224,1.294a1.216,1.216,0,0,1-1.34,1.306,1.236,1.236,0,0,1-1.267-1.277A1.333,1.333,0,0,1,42.322,82" transform="translate(-14.258 -28.557)" fill="#ffb64b"/>
        <path id="パス_951" data-name="パス 951" d="M23.148,32.11c-.2.738-.577,1.331-1.431,1.269a1.307,1.307,0,0,1,.182-2.606c.753.046,1.139.585,1.249,1.337" transform="translate(-7.155 -10.716)" fill="#ffb64b"/>
        <path id="パス_952" data-name="パス 952" d="M146.124,32.141c-.227.713-.62,1.305-1.446,1.233a1.232,1.232,0,0,1-1.2-1.427,1.2,1.2,0,0,1,1.312-1.178,1.378,1.378,0,0,1,1.334,1.372" transform="translate(-49.966 -10.715)" fill="#ffb64b"/>
        <path id="パス_953" data-name="パス 953" d="M52.48,166.555a1.27,1.27,0,0,1-1.3-1.268,1.25,1.25,0,0,1,1.343-1.333,1.226,1.226,0,0,1,1.225,1.42c-.04.826-.532,1.146-1.272,1.18" transform="translate(-17.825 -57.099)" fill="#ffb64b"/>
        <path id="パス_954" data-name="パス 954" d="M83.292,84.665c-.777-.165-1.329-.546-1.285-1.407a1.176,1.176,0,0,1,1.287-1.208,1.217,1.217,0,0,1,1.3,1.216c.044.834-.536,1.237-1.3,1.4" transform="translate(-28.559 -28.575)" fill="#ffb64b"/>
        <path id="パス_955" data-name="パス 955" d="M33.387,32.14c-.231.7-.6,1.322-1.438,1.232a1.249,1.249,0,0,1-1.2-1.427,1.22,1.22,0,0,1,1.314-1.178c.81.031,1.21.576,1.328,1.373" transform="translate(-10.704 -10.715)" fill="#ffb64b"/>
        <path id="パス_956" data-name="パス 956" d="M93.506,30.7c.762.153,1.326.529,1.307,1.363a1.3,1.3,0,0,1-2.6.022c-.056-.793.525-1.216,1.289-1.386" transform="translate(-32.115 -10.692)" fill="#ffb64b"/>
        <path id="パス_957" data-name="パス 957" d="M134.529,23.146a1.231,1.231,0,0,1-1.247-1.176,1.161,1.161,0,0,1,1.193-1.4,1.179,1.179,0,0,1,1.341,1.271c.021.757-.444,1.2-1.286,1.3" transform="translate(-46.415 -7.164)" fill="#ffb64b"/>
        <path id="パス_958" data-name="パス 958" d="M123.026,83.328a1.163,1.163,0,0,1,1.214-1.272,1.288,1.288,0,0,1,.082,2.574,1.18,1.18,0,0,1-1.3-1.3" transform="translate(-42.846 -28.577)" fill="#ffb64b"/>
        <path id="パス_959" data-name="パス 959" d="M135.84,83.314c-.093.794-.494,1.308-1.259,1.314a1.182,1.182,0,0,1-1.3-1.318,1.156,1.156,0,0,1,1.34-1.257c.782.033,1.122.577,1.219,1.262" transform="translate(-46.417 -28.575)" fill="#ffb64b"/>
        <path id="パス_960" data-name="パス 960" d="M93.553,156.36a1.305,1.305,0,0,1-1.336-1.339,1.3,1.3,0,0,1,2.6-.02,1.275,1.275,0,0,1-1.26,1.359" transform="translate(-32.116 -53.537)" fill="#ffb64b"/>
        <path id="パス_961" data-name="パス 961" d="M71.779,155.086a1.242,1.242,0,0,1,1.294-1.367,1.309,1.309,0,0,1-.062,2.615c-.811-.01-1.167-.5-1.232-1.248" transform="translate(-24.998 -53.535)" fill="#ffb64b"/>
        <path id="パス_962" data-name="パス 962" d="M166.485,83.567a1.146,1.146,0,0,1-1.24,1.057,1.29,1.29,0,1,1,.088-2.572c.757.061,1.182.516,1.152,1.515" transform="translate(-57.084 -28.574)" fill="#ffb64b"/>
        <path id="パス_963" data-name="パス 963" d="M165.212,71.825c.766.035,1.244.364,1.275,1.187a1.17,1.17,0,0,1-1.264,1.344,1.184,1.184,0,0,1-1.311-1.194,1.222,1.222,0,0,1,1.3-1.337" transform="translate(-57.085 -25.014)" fill="#ffb64b"/>
        <path id="パス_964" data-name="パス 964" d="M12.809,93.6c-.089.746-.422,1.268-1.237,1.258a1.311,1.311,0,0,1-.029-2.618c.847-.015,1.238.538,1.266,1.36" transform="translate(-3.591 -32.124)" fill="#ffb64b"/>
        <path id="パス_965" data-name="パス 965" d="M134.586,71.832a1.153,1.153,0,0,1,1.227,1.253,1.166,1.166,0,0,1-1.33,1.273,1.264,1.264,0,0,1,.1-2.527" transform="translate(-46.417 -25.017)" fill="#ffb64b"/>
        <path id="パス_966" data-name="パス 966" d="M33.393,93.569c-.2.727-.545,1.328-1.39,1.283a1.3,1.3,0,0,1,.008-2.606c.8-.014,1.216.551,1.382,1.322" transform="translate(-10.708 -32.126)" fill="#ffb64b"/>
        <path id="パス_967" data-name="パス 967" d="M154.894,40.839c.775.231,1.364.57,1.379,1.4a1.167,1.167,0,0,1-1.19,1.285,1.256,1.256,0,0,1-1.416-1.221c-.085-.828.592-1.172,1.227-1.467" transform="translate(-53.514 -14.223)" fill="#ffb64b"/>
        <path id="パス_968" data-name="パス 968" d="M105.028,21.795a1.231,1.231,0,0,1-1.32,1.323,1.218,1.218,0,0,1-1.294-1.238,1.234,1.234,0,0,1,1.346-1.306,1.166,1.166,0,0,1,1.268,1.221" transform="translate(-35.667 -7.165)" fill="#ffb64b"/>
        <path id="パス_969" data-name="パス 969" d="M64.028,93.706a1.108,1.108,0,0,1-1.188,1.15,1.306,1.306,0,1,1,.038-2.612c.753.041,1.163.542,1.15,1.462" transform="translate(-21.432 -32.125)" fill="#ffb64b"/>
        <path id="パス_970" data-name="パス 970" d="M115.237,73.078a1.143,1.143,0,0,1-1.184,1.285,1.264,1.264,0,1,1-.012-2.52,1.1,1.1,0,0,1,1.2,1.236" transform="translate(-39.246 -25.02)" fill="#ffb64b"/>
        <path id="パス_971" data-name="パス 971" d="M103.805,71.823a1.145,1.145,0,0,1,1.207,1.257,1.3,1.3,0,0,1-2.6.012,1.245,1.245,0,0,1,1.4-1.269" transform="translate(-35.665 -25.013)" fill="#ffb64b"/>
        <path id="パス_972" data-name="パス 972" d="M94.857,93.548c-.151.759-.521,1.329-1.359,1.306a1.3,1.3,0,0,1-.029-2.6c.8-.029,1.233.516,1.388,1.3" transform="translate(-32.115 -32.127)" fill="#ffb64b"/>
        <path id="パス_973" data-name="パス 973" d="M84.636,21.8c-.117.827-.575,1.346-1.386,1.319A1.193,1.193,0,0,1,82,21.855a1.165,1.165,0,0,1,1.2-1.282c.854-.057,1.26.462,1.43,1.223" transform="translate(-28.559 -7.163)" fill="#ffb64b"/>
        <path id="パス_974" data-name="パス 974" d="M144.791,146.165c-.755-.138-1.276-.519-1.318-1.277a1.215,1.215,0,0,1,1.275-1.355,1.2,1.2,0,0,1,1.322,1.188c.035.8-.591,1.2-1.279,1.444" transform="translate(-49.965 -49.987)" fill="#ffb64b"/>
        <path id="パス_975" data-name="パス 975" d="M125.539,93.58c-.055.735-.389,1.258-1.2,1.276a1.161,1.161,0,0,1-1.3-1.312,1.175,1.175,0,0,1,1.319-1.3c.766.029,1.15.551,1.176,1.337" transform="translate(-42.852 -32.125)" fill="#ffb64b"/>
        <path id="パス_976" data-name="パス 976" d="M135.845,93.583c-.176.754-.527,1.34-1.405,1.272a1.173,1.173,0,0,1-1.161-1.329,1.189,1.189,0,0,1,1.217-1.285c.844-.032,1.228.555,1.349,1.342" transform="translate(-46.416 -32.124)" fill="#ffb64b"/>
        <path id="パス_977" data-name="パス 977" d="M144.866,94.914c-.9-.15-1.412-.585-1.389-1.4a1.221,1.221,0,0,1,1.239-1.263,1.264,1.264,0,0,1,1.362,1.288c.022.813-.582,1.181-1.212,1.375" transform="translate(-49.968 -32.128)" fill="#ffb64b"/>
        <path id="パス_978" data-name="パス 978" d="M125.534,144.762c-.02.818-.4,1.364-1.251,1.365a1.152,1.152,0,0,1-1.245-1.234,1.176,1.176,0,0,1,1.244-1.365,1.163,1.163,0,0,1,1.252,1.234" transform="translate(-42.849 -49.986)" fill="#ffb64b"/>
        <path id="パス_979" data-name="パス 979" d="M53.763,52.528a1.121,1.121,0,0,1-1.18,1.26,1.219,1.219,0,0,1-1.4-1.242,1.246,1.246,0,0,1,1.347-1.326,1.223,1.223,0,0,1,1.232,1.307" transform="translate(-17.825 -17.838)" fill="#ffb64b"/>
        <path id="パス_980" data-name="パス 980" d="M64.027,144.836a1.15,1.15,0,0,1-1.183,1.289,1.3,1.3,0,1,1,.023-2.594,1.136,1.136,0,0,1,1.159,1.3" transform="translate(-21.431 -49.986)" fill="#ffb64b"/>
        <path id="パス_981" data-name="パス 981" d="M33.389,144.772c-.135.791-.549,1.355-1.354,1.343a1.245,1.245,0,0,1-1.291-1.345,1.2,1.2,0,0,1,1.23-1.248c.822-.035,1.232.505,1.414,1.25" transform="translate(-10.707 -49.983)" fill="#ffb64b"/>
        <path id="パス_982" data-name="パス 982" d="M134.4,53.8a1.11,1.11,0,0,1-1.114-1.27,1.213,1.213,0,0,1,1.333-1.3,1.184,1.184,0,0,1,1.2,1.3A1.21,1.21,0,0,1,134.4,53.8" transform="translate(-46.418 -17.841)" fill="#ffb64b"/>
        <path id="パス_983" data-name="パス 983" d="M52.485,71.825c.759.038,1.242.36,1.267,1.187a1.171,1.171,0,0,1-1.264,1.344,1.189,1.189,0,0,1-1.309-1.2,1.227,1.227,0,0,1,1.305-1.336" transform="translate(-17.824 -25.014)" fill="#ffb64b"/>
        <path id="パス_984" data-name="パス 984" d="M21.733,71.831a1.206,1.206,0,0,1,1.377,1.3,1.163,1.163,0,0,1-1.263,1.229,1.171,1.171,0,0,1-1.3-1.3,1.134,1.134,0,0,1,1.189-1.221" transform="translate(-7.154 -25.016)" fill="#ffb64b"/>
        <path id="パス_985" data-name="パス 985" d="M21.761,20.518c.878.11,1.346.552,1.352,1.288A1.2,1.2,0,0,1,21.781,23.1a1.159,1.159,0,0,1-1.234-1.238c.005-.862.609-1.158,1.214-1.344" transform="translate(-7.156 -7.146)" fill="#ffb64b"/>
        <path id="パス_986" data-name="パス 986" d="M135.837,134.558c-.074.775-.462,1.3-1.225,1.317a1.179,1.179,0,0,1-1.33-1.281,1.136,1.136,0,0,1,1.185-1.273c.882-.047,1.24.484,1.369,1.238" transform="translate(-46.418 -46.429)" fill="#ffb64b"/>
        <path id="パス_987" data-name="パス 987" d="M32.039,64.052c-.826-.021-1.306-.442-1.294-1.211a1.3,1.3,0,0,1,2.607-.053c.016.865-.516,1.249-1.313,1.264" transform="translate(-10.707 -21.437)" fill="#ffb64b"/>
        <path id="パス_988" data-name="パス 988" d="M83.347,12.851c-.817-.042-1.312-.413-1.335-1.2a1.3,1.3,0,0,1,2.589-.123c.046.849-.486,1.255-1.254,1.322" transform="translate(-28.562 -3.603)" fill="#ffb64b"/>
        <path id="パス_989" data-name="パス 989" d="M93.6,125.568c-.864-.016-1.382-.413-1.393-1.179a1.306,1.306,0,1,1,2.612,0,1.142,1.142,0,0,1-1.219,1.18" transform="translate(-32.113 -42.864)" fill="#ffb64b"/>
        <path id="パス_990" data-name="パス 990" d="M83.314,125.561a1.141,1.141,0,0,1-1.3-1.165,1.157,1.157,0,0,1,1.279-1.323,1.178,1.178,0,0,1,1.313,1.3c-.012.781-.528,1.154-1.289,1.184" transform="translate(-28.561 -42.862)" fill="#ffb64b"/>
        <path id="パス_991" data-name="パス 991" d="M105.028,103.759a1.182,1.182,0,0,1-1.211,1.294,1.247,1.247,0,0,1-1.4-1.234,1.308,1.308,0,1,1,2.615-.06" transform="translate(-35.666 -35.681)" fill="#ffb64b"/>
        <path id="パス_992" data-name="パス 992" d="M32.017,125.566c-.793-.04-1.286-.452-1.272-1.221a1.181,1.181,0,0,1,1.345-1.271,1.161,1.161,0,0,1,1.263,1.223c.011.865-.525,1.242-1.337,1.269" transform="translate(-10.708 -42.862)" fill="#ffb64b"/>
        <path id="パス_993" data-name="パス 993" d="M93.534,10.33c.8.041,1.311.428,1.285,1.3a1.31,1.31,0,0,1-2.608.036,1.2,1.2,0,0,1,1.322-1.335" transform="translate(-32.114 -3.598)" fill="#ffb64b"/>
        <path id="パス_994" data-name="パス 994" d="M134.287,115.291c-.547,0-.977-.4-1.006-1.187a1.2,1.2,0,0,1,1.269-1.35,1.159,1.159,0,0,1,1.26,1.222c.018.806-.4,1.311-1.524,1.315" transform="translate(-46.417 -39.268)" fill="#ffb64b"/>
        <path id="パス_995" data-name="パス 995" d="M53.76,114.214a1.087,1.087,0,0,1-1.262,1.073,1.2,1.2,0,0,1-1.313-1.309,1.214,1.214,0,0,1,1.3-1.223c.8.018,1.29.484,1.276,1.459" transform="translate(-17.826 -39.269)" fill="#ffb64b"/>
        <path id="パス_996" data-name="パス 996" d="M21.764,125.56a1.1,1.1,0,0,1-1.215-1.134,1.157,1.157,0,0,1,1.234-1.356,1.174,1.174,0,0,1,1.331,1.276c.005.761-.471,1.186-1.35,1.214" transform="translate(-7.155 -42.86)" fill="#ffb64b"/>
        <path id="パス_997" data-name="パス 997" d="M134.522,64.049a1.1,1.1,0,0,1-1.238-1.19,1.268,1.268,0,1,1,1.238,1.19" transform="translate(-46.418 -21.435)" fill="#ffb64b"/>
        <path id="パス_998" data-name="パス 998" d="M72.94,20.541c.9.038,1.334.488,1.366,1.232a1.257,1.257,0,1,1-2.51.12,1.2,1.2,0,0,1,1.144-1.352" transform="translate(-25.004 -7.154)" fill="#ffb64b"/>
        <path id="パス_999" data-name="パス 999" d="M12.806,42.371a1.145,1.145,0,0,1-1.186,1.208c-.888.029-1.287-.468-1.3-1.3a1.179,1.179,0,0,1,1.307-1.313c.755.015,1.165.542,1.184,1.406" transform="translate(-3.592 -14.266)" fill="#ffb64b"/>
        <path id="パス_1000" data-name="パス 1000" d="M64.03,42.4a1.11,1.11,0,0,1-1.19,1.172,1.307,1.307,0,0,1-.1-2.61c.812-.027,1.282.479,1.289,1.438" transform="translate(-21.431 -14.267)" fill="#ffb64b"/>
        <path id="パス_1001" data-name="パス 1001" d="M103.852,10.333a1.127,1.127,0,0,1,1.162,1.216c.014.886-.494,1.275-1.314,1.28a1.167,1.167,0,0,1-1.288-1.206c0-.781.49-1.288,1.44-1.29" transform="translate(-35.667 -3.599)" fill="#ffb64b"/>
        <path id="パス_1002" data-name="パス 1002" d="M134.455,146.154a1.276,1.276,0,0,1-1.177-1.454,1.149,1.149,0,0,1,1.3-1.172,1.21,1.21,0,0,1,1.227,1.411,1.282,1.282,0,0,1-1.35,1.215" transform="translate(-46.414 -49.985)" fill="#ffb64b"/>
        <path id="パス_1003" data-name="パス 1003" d="M12.792,52.706a1.063,1.063,0,0,1-1.124,1.08A1.14,1.14,0,0,1,10.3,52.58a1.2,1.2,0,0,1,1.266-1.358c.72-.018,1.207.45,1.221,1.483" transform="translate(-3.588 -17.839)" fill="#ffb64b"/>
        <path id="パス_1004" data-name="パス 1004" d="M62.835,115.291a1.125,1.125,0,0,1-1.3-1.172,1.182,1.182,0,0,1,1.277-1.362,1.145,1.145,0,0,1,1.216,1.278,1.1,1.1,0,0,1-1.191,1.257" transform="translate(-21.429 -39.269)" fill="#ffb64b"/>
        <path id="パス_1005" data-name="パス 1005" d="M1.666,53.79c-1.2.025-1.646-.473-1.658-1.274a1.2,1.2,0,0,1,1.227-1.287,1.186,1.186,0,0,1,1.292,1.326c0,.806-.409,1.192-.862,1.235" transform="translate(-0.003 -17.841)" fill="#ffb64b"/>
        <path id="パス_1006" data-name="パス 1006" d="M103.857,64.052c-.961,0-1.472-.478-1.445-1.285a1.2,1.2,0,0,1,1.3-1.215,1.175,1.175,0,0,1,1.3,1.31,1.094,1.094,0,0,1-1.156,1.189" transform="translate(-35.666 -21.437)" fill="#ffb64b"/>
        <path id="パス_1007" data-name="パス 1007" d="M93.521,64.053c-.858-.029-1.337-.469-1.315-1.229a1.2,1.2,0,0,1,1.366-1.266,1.176,1.176,0,0,1,1.248,1.248c.006.886-.542,1.23-1.3,1.247" transform="translate(-32.112 -21.438)" fill="#ffb64b"/>
        <path id="パス_1008" data-name="パス 1008" d="M83.574,64.042c-1.03.02-1.524-.345-1.561-1.136a1.3,1.3,0,1,1,2.591-.061,1.1,1.1,0,0,1-1.03,1.2" transform="translate(-28.561 -21.436)" fill="#ffb64b"/>
        <path id="パス_1009" data-name="パス 1009" d="M114.475,115.267c-1.264.069-1.759-.415-1.788-1.2a1.2,1.2,0,0,1,1.208-1.3,1.17,1.17,0,0,1,1.338,1.262c.027.808-.391,1.19-.758,1.241" transform="translate(-39.244 -39.271)" fill="#ffb64b"/>
        <path id="パス_1010" data-name="パス 1010" d="M42.229,10.326c.821.038,1.334.408,1.317,1.29a1.151,1.151,0,0,1-1.26,1.212,1.182,1.182,0,0,1-1.349-1.146,1.223,1.223,0,0,1,1.293-1.356" transform="translate(-14.256 -3.596)" fill="#ffb64b"/>
        <path id="パス_1011" data-name="パス 1011" d="M155.185,64.05c-.973.015-1.487-.4-1.513-1.152a1.306,1.306,0,1,1,2.611-.03,1.085,1.085,0,0,1-1.1,1.182" transform="translate(-53.518 -21.441)" fill="#ffb64b"/>
        <path id="パス_1012" data-name="パス 1012" d="M125.536,103.833a1.249,1.249,0,1,1-2.5-.068,1.2,1.2,0,0,1,1.185-1.318c.806-.048,1.277.475,1.312,1.386" transform="translate(-42.85 -35.677)" fill="#ffb64b"/>
        <path id="パス_1013" data-name="パス 1013" d="M64.023,22.059a1.083,1.083,0,0,1-1.207,1.065,1.157,1.157,0,0,1-1.283-1.309,1.162,1.162,0,0,1,1.355-1.234c.78.04,1.156.513,1.135,1.478" transform="translate(-21.429 -7.166)" fill="#ffb64b"/>
        <path id="パス_1014" data-name="パス 1014" d="M73.344,2.541c-1.094-.006-1.514-.4-1.546-1.192a1.259,1.259,0,1,1,2.51.006c-.032.756-.451,1.208-.965,1.186" transform="translate(-25.004 -0.001)" fill="#ffb64b"/>
        <path id="パス_1015" data-name="パス 1015" d="M73.452,166.525c-1.162.038-1.584-.368-1.655-1.15a1.26,1.26,0,1,1,2.507-.1c0,.749-.4,1.232-.852,1.253" transform="translate(-25.002 -57.095)" fill="#ffb64b"/>
        <path id="パス_1016" data-name="パス 1016" d="M64.029,165.364a1.108,1.108,0,0,1-1.261,1.168,1.148,1.148,0,0,1-1.229-1.361,1.184,1.184,0,0,1,1.273-1.222,1.2,1.2,0,0,1,1.217,1.416" transform="translate(-21.431 -57.097)" fill="#ffb64b"/>
        <path id="パス_1017" data-name="パス 1017" d="M64.024,52.772a1.047,1.047,0,0,1-1.189,1.02,1.147,1.147,0,0,1-1.3-1.281,1.177,1.177,0,0,1,1.211-1.283c.791-.019,1.292.461,1.278,1.543" transform="translate(-21.43 -17.841)" fill="#ffb64b"/>
        <path id="パス_1018" data-name="パス 1018" d="M165.543,64.032c-1.12.053-1.63-.431-1.641-1.214a1.208,1.208,0,0,1,1.23-1.271c.886-.053,1.257.482,1.328,1.276a.99.99,0,0,1-.916,1.209" transform="translate(-57.081 -21.433)" fill="#ffb64b"/>
        <path id="パス_1019" data-name="パス 1019" d="M42.389,125.566c-.926-.014-1.477-.431-1.456-1.262a1.189,1.189,0,0,1,1.279-1.229,1.168,1.168,0,0,1,1.335,1.273,1.134,1.134,0,0,1-1.159,1.217" transform="translate(-14.255 -42.863)" fill="#ffb64b"/>
        <path id="パス_1020" data-name="パス 1020" d="M52.613,125.563c-.946-.007-1.462-.475-1.432-1.282a1.163,1.163,0,0,1,1.272-1.21,1.151,1.151,0,0,1,1.3,1.285,1.088,1.088,0,0,1-1.139,1.207" transform="translate(-17.824 -42.861)" fill="#ffb64b"/>
        <path id="パス_1021" data-name="パス 1021" d="M71.773,83.367c.073-.937.563-1.368,1.382-1.313a1.295,1.295,0,0,1-.1,2.579,1.2,1.2,0,0,1-1.281-1.266" transform="translate(-24.996 -28.575)" fill="#ffb64b"/>
        <path id="パス_1022" data-name="パス 1022" d="M64.026,83.4a1.247,1.247,0,1,1-2.494-.066,1.175,1.175,0,0,1,1.328-1.277c.768.024,1.174.5,1.165,1.343" transform="translate(-21.43 -28.577)" fill="#ffb64b"/>
        <path id="パス_1023" data-name="パス 1023" d="M124.506,53.794c-.978.009-1.415-.375-1.469-1.163a1.2,1.2,0,0,1,1.216-1.4,1.168,1.168,0,0,1,1.272,1.334c-.02.767-.4,1.219-1.019,1.232" transform="translate(-42.848 -17.84)" fill="#ffb64b"/>
        <path id="パス_1024" data-name="パス 1024" d="M125.537,155.094c-.061.708-.382,1.225-1.2,1.237a1.162,1.162,0,0,1-1.294-1.315,1.179,1.179,0,0,1,1.2-1.3c.828-.032,1.266.5,1.3,1.377" transform="translate(-42.851 -53.534)" fill="#ffb64b"/>
        <path id="パス_1025" data-name="パス 1025" d="M103.92,125.56c-.987,0-1.5-.443-1.507-1.179a1.2,1.2,0,0,1,1.33-1.305,1.151,1.151,0,0,1,1.27,1.325,1.082,1.082,0,0,1-1.093,1.159" transform="translate(-35.667 -42.863)" fill="#ffb64b"/>
        <path id="パス_1026" data-name="パス 1026" d="M115.223,123.925c.041,1.135-.331,1.582-1.128,1.629a1.25,1.25,0,1,1-.1-2.489c.794.011,1.174.444,1.227.86" transform="translate(-39.247 -42.859)" fill="#ffb64b"/>
        <path id="パス_1027" data-name="パス 1027" d="M134.484,33.414a1.274,1.274,0,0,1-1.2-1.44,1.172,1.172,0,0,1,1.283-1.21,1.2,1.2,0,0,1,1.244,1.274,1.3,1.3,0,0,1-1.323,1.375" transform="translate(-46.415 -10.714)" fill="#ffb64b"/>
        <path id="パス_1028" data-name="パス 1028" d="M134.261,125.55a1.067,1.067,0,0,1-.979-1.245,1.132,1.132,0,0,1,1.244-1.236,1.161,1.161,0,0,1,1.288,1.332c-.026.787-.524,1.178-1.554,1.148" transform="translate(-46.417 -42.861)" fill="#ffb64b"/>
        <path id="パス_1029" data-name="パス 1029" d="M10.3,83.195a1.138,1.138,0,0,1,1.258-1.14,1.292,1.292,0,0,1-.013,2.581c-.828-.018-1.255-.525-1.245-1.441" transform="translate(-3.588 -28.577)" fill="#ffb64b"/>
        <path id="パス_1030" data-name="パス 1030" d="M155.08,125.566c-.878-.012-1.4-.42-1.41-1.18a1.178,1.178,0,0,1,1.313-1.307c.831.02,1.329.429,1.3,1.311a1.131,1.131,0,0,1-1.2,1.176" transform="translate(-53.518 -42.864)" fill="#ffb64b"/>
        <path id="パス_1031" data-name="パス 1031" d="M71.784,103.938c.025-1.066.567-1.517,1.34-1.491a1.2,1.2,0,0,1,1.179,1.339,1.178,1.178,0,0,1-1.349,1.268,1.135,1.135,0,0,1-1.17-1.116" transform="translate(-25 -35.678)" fill="#ffb64b"/>
        <path id="パス_1032" data-name="パス 1032" d="M10.291,134.522a1.157,1.157,0,0,1,1.324-1.2,1.115,1.115,0,0,1,1.172,1.266,1.134,1.134,0,0,1-1.172,1.287c-.8.018-1.3-.418-1.324-1.357" transform="translate(-3.584 -46.433)" fill="#ffb64b"/>
        <path id="パス_1033" data-name="パス 1033" d="M52.533,64.055c-.869-.016-1.377-.482-1.352-1.292a1.286,1.286,0,0,1,2.57.1c0,.833-.469,1.167-1.219,1.2" transform="translate(-17.824 -21.437)" fill="#ffb64b"/>
        <path id="パス_1034" data-name="パス 1034" d="M42.367,64.053c-.919,0-1.448-.438-1.432-1.264a1.308,1.308,0,0,1,2.613.055c.008.834-.5,1.15-1.182,1.21" transform="translate(-14.256 -21.438)" fill="#ffb64b"/>
        <path id="パス_1035" data-name="パス 1035" d="M125.533,42.415a1.12,1.12,0,0,1-1.156,1.161,1.154,1.154,0,0,1-1.333-1.271,1.19,1.19,0,0,1,1.288-1.339c.74,0,1.186.505,1.2,1.448" transform="translate(-42.851 -14.267)" fill="#ffb64b"/>
        <path id="パス_1036" data-name="パス 1036" d="M64.023,104.05a1.069,1.069,0,0,1-1.225,1,1.167,1.167,0,0,1-1.259-1.348,1.191,1.191,0,0,1,1.247-1.259c.8,0,1.266.53,1.237,1.607" transform="translate(-21.432 -35.677)" fill="#ffb64b"/>
        <path id="パス_1037" data-name="パス 1037" d="M64.012,134.219c.051,1.157-.4,1.653-1.219,1.661a1.148,1.148,0,0,1-1.257-1.216,1.161,1.161,0,0,1,1.249-1.341,1.061,1.061,0,0,1,1.227.9" transform="translate(-21.431 -46.431)" fill="#ffb64b"/>
        <path id="パス_1038" data-name="パス 1038" d="M71.786,134.477a1.162,1.162,0,0,1,1.374-1.153,1.282,1.282,0,0,1-.1,2.554,1.212,1.212,0,0,1-1.275-1.4" transform="translate(-25 -46.43)" fill="#ffb64b"/>
        <path id="パス_1039" data-name="パス 1039" d="M125.529,21.678c-.014.991-.464,1.449-1.23,1.446a1.163,1.163,0,0,1-1.262-1.36,1.141,1.141,0,0,1,1.3-1.186,1.091,1.091,0,0,1,1.195,1.1" transform="translate(-42.848 -7.166)" fill="#ffb64b"/>
        <path id="パス_1040" data-name="パス 1040" d="M64.032,73.017a1.134,1.134,0,0,1-1.147,1.34,1.148,1.148,0,0,1-1.35-1.262,1.129,1.129,0,0,1,1.223-1.252,1.116,1.116,0,0,1,1.274,1.174" transform="translate(-21.43 -25.02)" fill="#ffb64b"/>
        <path id="パス_1041" data-name="パス 1041" d="M21.795,64.05c-.82-.03-1.255-.438-1.247-1.228a1.171,1.171,0,0,1,1.328-1.275,1.253,1.253,0,1,1-.081,2.5" transform="translate(-7.156 -21.434)" fill="#ffb64b"/>
        <path id="パス_1042" data-name="パス 1042" d="M64.032,155.162a1.119,1.119,0,0,1-1.231,1.169,1.309,1.309,0,0,1-.014-2.616c.825,0,1.253.538,1.245,1.447" transform="translate(-21.432 -53.534)" fill="#ffb64b"/>
        <path id="パス_1043" data-name="パス 1043" d="M125.526,134.4c.023.965-.407,1.477-1.233,1.479a1.278,1.278,0,0,1-.014-2.555,1.1,1.1,0,0,1,1.247,1.077" transform="translate(-42.85 -46.432)" fill="#ffb64b"/>
        <path id="パス_1044" data-name="パス 1044" d="M12.806,103.893a1.138,1.138,0,0,1-1.246,1.158c-.895,0-1.245-.524-1.248-1.352a1.176,1.176,0,0,1,1.238-1.258c.816-.018,1.25.544,1.256,1.451" transform="translate(-3.591 -35.677)" fill="#ffb64b"/>
        <path id="パス_1045" data-name="パス 1045" d="M103.9.121a1.15,1.15,0,0,1,1.116,1.325c-.054.815-.542,1.139-1.308,1.125a1.171,1.171,0,0,1-1.287-1.317c.044-.71.517-1.189,1.479-1.133" transform="translate(-35.668 -0.041)" fill="#ffb64b"/>
        <path id="パス_1046" data-name="パス 1046" d="M125.526,72.939c-.01,1.013-.482,1.438-1.245,1.423a1.154,1.154,0,0,1-1.24-1.373,1.121,1.121,0,0,1,1.315-1.145,1.067,1.067,0,0,1,1.171,1.095" transform="translate(-42.849 -25.021)" fill="#ffb64b"/>
        <path id="パス_1047" data-name="パス 1047" d="M11.469,71.824c.957.033,1.315.5,1.321,1.279a1.113,1.113,0,0,1-1.218,1.253A1.158,1.158,0,0,1,10.3,73.008a1.123,1.123,0,0,1,1.165-1.184" transform="translate(-3.587 -25.014)" fill="#ffb64b"/>
        <path id="パス_1048" data-name="パス 1048" d="M52.383,10.322c.827.027,1.322.336,1.367,1.157a1.144,1.144,0,0,1-1.232,1.35,1.172,1.172,0,0,1-1.335-1.147,1.214,1.214,0,0,1,1.2-1.36" transform="translate(-17.824 -3.595)" fill="#ffb64b"/>
        <path id="パス_1049" data-name="パス 1049" d="M1.391,71.834A1.089,1.089,0,0,1,2.528,73.05a1.147,1.147,0,0,1-1.274,1.309A1.148,1.148,0,0,1,.009,73.13a1.2,1.2,0,0,1,1.382-1.3" transform="translate(-0.003 -25.017)" fill="#ffb64b"/>
        <path id="パス_1050" data-name="パス 1050" d="M73.028,53.8A1.126,1.126,0,0,1,71.8,52.581a1.2,1.2,0,0,1,1.27-1.356,1.181,1.181,0,0,1,1.236,1.38A1.137,1.137,0,0,1,73.028,53.8" transform="translate(-25.004 -17.84)" fill="#ffb64b"/>
        <path id="パス_1051" data-name="パス 1051" d="M115.237,11.6a1.118,1.118,0,0,1-1.21,1.236,1.17,1.17,0,0,1-1.338-1.265,1.188,1.188,0,0,1,1.379-1.23,1.107,1.107,0,0,1,1.169,1.26" transform="translate(-39.245 -3.6)" fill="#ffb64b"/>
        <path id="パス_1052" data-name="パス 1052" d="M73.277,115.291c-1.017,0-1.439-.394-1.479-1.179a1.19,1.19,0,0,1,1.251-1.359,1.138,1.138,0,0,1,1.251,1.215c.019.819-.379,1.309-1.023,1.323" transform="translate(-25.004 -39.268)" fill="#ffb64b"/>
        <path id="パス_1053" data-name="パス 1053" d="M64.03,1.367a1.1,1.1,0,0,1-1.277,1.167,1.114,1.114,0,0,1-1.216-1.249A1.172,1.172,0,0,1,62.891.01,1.159,1.159,0,0,1,64.03,1.367" transform="translate(-21.431 -0.002)" fill="#ffb64b"/>
        <path id="パス_1054" data-name="パス 1054" d="M115.244,62.777c-.017.882-.442,1.27-1.231,1.271a1.171,1.171,0,0,1-1.318-1.285,1.276,1.276,0,0,1,2.549.014" transform="translate(-39.247 -21.436)" fill="#ffb64b"/>
        <path id="パス_1055" data-name="パス 1055" d="M73.1,125.559c-.758-.012-1.272-.323-1.3-1.152a1.255,1.255,0,1,1,2.508-.107,1.106,1.106,0,0,1-1.209,1.258" transform="translate(-25.006 -42.861)" fill="#ffb64b"/>
        <path id="パス_1056" data-name="パス 1056" d="M73,64.049a1.113,1.113,0,0,1-1.2-1.257,1.128,1.128,0,0,1,1.232-1.245,1.153,1.153,0,0,1,1.273,1.34A1.113,1.113,0,0,1,73,64.049" transform="translate(-25.005 -21.435)" fill="#ffb64b"/>
        <path id="パス_1057" data-name="パス 1057" d="M125.519,114.311c-.053.583-.446,1-1.268.982a1.1,1.1,0,0,1-1.21-1.243,1.167,1.167,0,0,1,1.343-1.282c.766.035,1.174.544,1.135,1.543" transform="translate(-42.85 -39.272)" fill="#ffb64b"/>
        <path id="パス_1058" data-name="パス 1058" d="M73.026,71.833a1.263,1.263,0,0,1,.111,2.522A1.154,1.154,0,0,1,71.8,73.079a1.139,1.139,0,0,1,1.227-1.247" transform="translate(-25.005 -25.016)" fill="#ffb64b"/>
        <path id="パス_1059" data-name="パス 1059" d="M1.278,115.293A1.151,1.151,0,0,1,0,114.091a1.2,1.2,0,0,1,1.292-1.339,1.176,1.176,0,0,1,1.23,1.373,1.1,1.1,0,0,1-1.247,1.168" transform="translate(0 -39.268)" fill="#ffb64b"/>
        <path id="パス_1060" data-name="パス 1060" d="M64.03,11.556c-.023.908-.489,1.287-1.265,1.277a1.117,1.117,0,0,1-1.228-1.24,1.144,1.144,0,0,1,1.345-1.249,1.082,1.082,0,0,1,1.148,1.212" transform="translate(-21.431 -3.602)" fill="#ffb64b"/>
        <path id="パス_1061" data-name="パス 1061" d="M2.527,62.874a1.1,1.1,0,0,1-1.273,1.169A1.13,1.13,0,0,1,0,62.81a1.18,1.18,0,0,1,1.371-1.264,1.143,1.143,0,0,1,1.152,1.328" transform="translate(-0.001 -21.433)" fill="#ffb64b"/>
        <path id="パス_1062" data-name="パス 1062" d="M11.206,64.042c-.441-.017-.892-.4-.9-1.2a1.138,1.138,0,0,1,1.311-1.285A1.131,1.131,0,0,1,12.8,62.846c-.012.793-.434,1.215-1.59,1.2" transform="translate(-3.589 -21.436)" fill="#ffb64b"/>
        <path id="パス_1063" data-name="パス 1063" d="M72.737,10.352c1.058-.038,1.514.364,1.56,1.148a1.106,1.106,0,0,1-1.121,1.33c-.824.04-1.36-.317-1.376-1.214a1.109,1.109,0,0,1,.938-1.264" transform="translate(-25.005 -3.604)" fill="#ffb64b"/>
        <path id="パス_1064" data-name="パス 1064" d="M12.791,114.09a1.115,1.115,0,0,1-1.247,1.2,1.113,1.113,0,0,1-1.238-1.221,1.175,1.175,0,0,1,1.323-1.308,1.131,1.131,0,0,1,1.163,1.327" transform="translate(-3.589 -39.271)" fill="#ffb64b"/>
        <path id="パス_1065" data-name="パス 1065" d="M123.038,11.415a1.1,1.1,0,0,1,1.268-1.072c.9.01,1.252.533,1.212,1.364a1.1,1.1,0,0,1-1.322,1.122c-.794-.042-1.177-.505-1.158-1.414" transform="translate(-42.849 -3.602)" fill="#ffb64b"/>
        <path id="パス_1066" data-name="パス 1066" d="M124.25,125.559a1.112,1.112,0,0,1-1.213-1.238,1.143,1.143,0,0,1,1.342-1.247,1.245,1.245,0,0,1-.129,2.486" transform="translate(-42.849 -42.861)" fill="#ffb64b"/>
        <path id="パス_1067" data-name="パス 1067" d="M64.033,124.194c-.019.979-.471,1.36-1.251,1.361a1.106,1.106,0,0,1-1.245-1.211,1.153,1.153,0,0,1,1.326-1.275,1.086,1.086,0,0,1,1.171,1.124" transform="translate(-21.431 -42.86)" fill="#ffb64b"/>
        <path id="パス_1068" data-name="パス 1068" d="M12.8,124.23c-.022.92-.444,1.338-1.24,1.328a1.112,1.112,0,0,1-1.255-1.2,1.137,1.137,0,0,1,1.3-1.287A1.108,1.108,0,0,1,12.8,124.23" transform="translate(-3.589 -42.861)" fill="#ffb64b"/>
        <path id="パス_1069" data-name="パス 1069" d="M124.021,64.041c-.578-.022-.989-.439-.985-1.235a1.244,1.244,0,1,1,2.486.071c-.023.8-.483,1.183-1.5,1.164" transform="translate(-42.849 -21.435)" fill="#ffb64b"/>
        <path id="パス_1070" data-name="パス 1070" d="M63.157,64.037c-1.111.029-1.586-.353-1.617-1.146a1.157,1.157,0,0,1,1.265-1.343,1.124,1.124,0,0,1,1.223,1.245c.007.794-.378,1.227-.871,1.244" transform="translate(-21.432 -21.435)" fill="#ffb64b"/>
        <path id="パス_1071" data-name="パス 1071" d="M12.852,32.136a1.184,1.184,0,0,1-1.258,1.257,1.031,1.031,0,0,1-1.136-.876c-.074-.426,1.064-1.747,1.431-1.734.463.018.945.641.963,1.353" transform="translate(-3.641 -10.721)" fill="#ffb64b"/>
        <path id="パス_1072" data-name="パス 1072" d="M134.487,153.648c.678.119,1.3.431,1.23,1.132-.086.811-.9,1.22-1.571,1.376-.555.128-.848-.48-.875-1.066-.04-.866.5-1.23,1.216-1.442" transform="translate(-46.413 -53.51)" fill="#ffb64b"/>
        <path id="パス_1073" data-name="パス 1073" d="M154.346,135.678c-.475-.323-.821-.708-.7-1.23a1.265,1.265,0,0,1,1.382-1.129c.307.02.757.036.615.449a3.9,3.9,0,0,1-1.3,1.91" transform="translate(-53.502 -46.429)" fill="#ffb64b"/>
        <path id="パス_1074" data-name="パス 1074" d="M33.54,11.951a1.228,1.228,0,0,1-1.31,1.156c-.441.007-1.106-.1-.992-.586.193-.832,1.083-1.115,1.8-1.365.422-.147.465.392.5.8" transform="translate(-10.875 -3.876)" fill="#ffb64b"/>
        <path id="パス_1075" data-name="パス 1075" d="M164.873,115.291c-.712-.345-1.1-.781-.939-1.491a1.241,1.241,0,0,1,.946-.991c.585-.149.9,0,.707.635-.19.62-.465,1.213-.714,1.846" transform="translate(-57.08 -39.269)" fill="#ffb64b"/>
        <path id="パス_1076" data-name="パス 1076" d="M52.643,2.97c-.533-.038-1.217-.207-1.063-.713.239-.783,1.212-.692,1.873-.964.557-.229.416.282.417.518.007.828-.489,1.149-1.227,1.159" transform="translate(-17.956 -0.43)" fill="#ffb64b"/>
        <path id="パス_1077" data-name="パス 1077" d="M42.507,163.882c.6.233,1.186.519,1.209,1.316.007.242,0,.654-.373.491-.691-.3-1.629-.356-1.9-1.167-.095-.284.57-.573,1.062-.64" transform="translate(-14.431 -57.074)" fill="#ffb64b"/>
        <path id="パス_1078" data-name="パス 1078" d="M2.989,124.347c.01.428-.157,1.035-.5.919-.745-.25-.822-1.13-1.111-1.779-.173-.39.195-.414.448-.41.825.016,1.141.517,1.166,1.27" transform="translate(-0.463 -42.864)" fill="#ffb64b"/>
        <path id="パス_1079" data-name="パス 1079" d="M143.509,22.021a4.44,4.44,0,0,1,1.528,1.416c-1.171.1-1.343-.059-1.528-1.416" transform="translate(-49.979 -7.669)" fill="#ffb64b"/>
      </g>
    </g>
  </g>
</svg>
