<svg xmlns="http://www.w3.org/2000/svg" width="280" height="200" viewBox="0 0 280 200">
  <g id="グループ_3084" data-name="グループ 3084" transform="translate(-500 -1349)">
    <rect id="長方形_156" data-name="長方形 156" width="280" height="200" transform="translate(500 1349)" fill="none"/>
    <g id="グループ_3097" data-name="グループ 3097" transform="translate(19672.711 -4953.65) rotate(13)">
      <g id="_0_0_1_0_23_266_11_12_478_0_191_0_p0" data-name="0_0_1_0_23_266_11_12_478_0_191_0_p0" transform="translate(-17216.381 10469.655)">
        <g id="グループ_3069" data-name="グループ 3069" transform="translate(6.265 15.419)">
          <g id="グループ_3068" data-name="グループ 3068">
            <path id="パス_3388" data-name="パス 3388" d="M183.967,122.69h-.314c-1.3-20.057-10.977-36.127-32.927-36.127S119.1,102.633,117.8,122.69h-.314c-4.3-2.54-10.532,2.339-9.55,8.229,2.061,12.365,2.877,15.431,6.551,17.287a9.232,9.232,0,0,0,3.594.981h.37c1.224,7.777,3.669,13.5,6.8,17.868,4.79,6.671,17.1,13.646,25.472,13.646s20.683-6.975,25.472-13.646c3.135-4.367,5.58-10.091,6.8-17.868h.37a9.232,9.232,0,0,0,3.594-.981c3.673-1.857,4.49-4.922,6.551-17.287C194.5,125.029,188.262,120.15,183.967,122.69Z" transform="translate(-102.6 -81.342)" fill="#ffeae3"/>
            <path id="パス_3389" data-name="パス 3389" d="M188.688,119.431a8.023,8.023,0,0,0-7.451-2.535c-1.654-20.083-12.878-35.839-34.294-35.617C125.453,81.03,114.261,97,112.655,116.9c-5.788-1.256-11.076,4.852-10.008,10.52v0c1.038,6.2,1.746,10.086,2.741,12.853a9.527,9.527,0,0,0,7.978,6.6c1.01,6.17,3.54,12.837,6.865,17.318,5.72,7.506,17.285,14.015,26.713,14.283,9.526-.274,21.074-6.87,26.713-14.283,3.324-4.482,5.852-11.146,6.864-17.318,5.987-.9,8.029-5.092,9.171-10.979.484-2.235.968-4.994,1.549-8.478v0A9.357,9.357,0,0,0,188.688,119.431Zm-.461,7.481c-1.024,6.166-1.753,9.994-2.6,12.315a6.148,6.148,0,0,1-4.615,4.421c.27-2.156.455-4.446.541-6.892a1.527,1.527,0,1,0-3.053-.107,60.241,60.241,0,0,1-2.327,15.373c-2.224,6.717-4.37,10.765-9.544,15.037-5.088,4.164-13.337,8.325-19.685,8.357-8.581-.3-19.149-6.385-24.232-13.009a34.965,34.965,0,0,1-5-10.385,60.218,60.218,0,0,1-2.326-15.373,1.528,1.528,0,0,0-3.053.107h0c.086,2.446.271,4.738.541,6.894-4.082-1.081-4.729-4.225-5.694-8.405-.466-2.141-.971-5.031-1.547-8.485l.025.147c-.735-3.706,2.971-8.155,6.775-6.895-.061,1.244-.1,2.5-.1,3.762a1.528,1.528,0,1,0,3.055,0h0c-.168-20.631,8.731-39.69,31.555-39.44,12.752-.1,22.5,5.931,27.465,17.319,2.788,6.292,4.092,13.938,4.09,22.121a1.528,1.528,0,1,0,3.055,0c0-1.266-.035-2.52-.1-3.764C185.251,118.75,188.964,123.217,188.227,126.912Z" transform="translate(-102.509 -81.277)" fill="#3e485c"/>
          </g>
        </g>
        <g id="グループ_3070" data-name="グループ 3070" transform="translate(4.372 0)">
          <path id="パス_3390" data-name="パス 3390" d="M187.574,63.706c-2.026-3.271-2.866-7.44-5.066-13-2.982-7.44-16.964-26.547-36.911-22a23.9,23.9,0,0,0-9.93,4.748,28.166,28.166,0,0,0-7.006-.9c-14.909,0-21.741,10.711-24.723,18.151-2.229,5.558-5.471,9.727-7.5,13s3.127,3.59,3.127,3.59c-3.3,4.777-3.908,7.151-2.2,7.758s2.2-1.795,2.2-1.795v8.482l2.663-.492,1.592-.724h0l-1.592.724c2.055.868,3.85,4.111,4.892,9.524.261,1.39.608,2.721.955,3.966a1.461,1.461,0,0,0,2.837-.261l.2-2.432h0a36.725,36.725,0,0,0,7.99-20.641,12.373,12.373,0,0,1,1.245-4.14c4.082,12.419,16.472,16.733,20.9,16.472,5.124-.318-2.924-3.706-4.835-11.493,0,0,10.6,12.072,20.091,13.751,9.5,1.708-.9-8.685,2.374-6.861,1.65.926,5.414,2.663,8.743,4.169a32.587,32.587,0,0,0,5.182,8.743l.116-.174.232,2.605a1.462,1.462,0,0,0,2.837.261c.347-1.245.695-2.605.955-3.966,1.013-5.385,2.837-8.627,4.864-9.5l2.577.463V73.259s.463,2.374,2.2,1.795c1.708-.608,1.1-2.982-2.2-7.758C184.419,67.3,189.6,66.977,187.574,63.706Z" transform="translate(-95.969 -28.015)" fill="#3e485c"/>
        </g>
        <g id="グループ_3072" data-name="グループ 3072" transform="translate(41.454 90.489)">
          <g id="グループ_3071" data-name="グループ 3071" transform="translate(0)">
            <path id="パス_3391" data-name="パス 3391" d="M242.67,340.658a.9.9,0,0,0-1.176.5,2.533,2.533,0,0,1-.837,1.086,5.338,5.338,0,0,1-2.319.884,17.935,17.935,0,0,1-3.015.206c-.808,0-1.587-.024-2.277-.025-1.029,0-2.162.008-3.257.008-1.005,0-1.979-.008-2.8-.035a14.359,14.359,0,0,1-1.856-.146.9.9,0,0,0-.331,1.776h0a15.659,15.659,0,0,0,2.127.176c.859.029,1.848.036,2.862.036,1.1,0,2.238-.008,3.257-.008.646,0,1.433.025,2.277.025a16.053,16.053,0,0,0,4.423-.485,6.148,6.148,0,0,0,2.007-.975,4.351,4.351,0,0,0,1.415-1.844A.9.9,0,0,0,242.67,340.658Z" transform="translate(-224.062 -340.592)" fill="#3e485c"/>
            <path id="パス_3392" data-name="パス 3392" d="M251.124,363.182l0,0a1.718,1.718,0,0,1-.488.106,9.352,9.352,0,0,1-1.04.048c-.817,0-1.8-.06-2.7-.122s-1.7-.124-2.229-.125a.695.695,0,1,0,0,1.39h0c.421,0,1.233.06,2.134.122s1.91.125,2.792.125a9.225,9.225,0,0,0,1.433-.089,2.768,2.768,0,0,0,.6-.157,1.206,1.206,0,0,0,.568-.435.7.7,0,0,0-.191-.964A.685.685,0,0,0,251.124,363.182Zm0,0h0l0,0Z" transform="translate(-238.209 -356.488)" fill="#3e485c"/>
          </g>
        </g>
        <g id="グループ_3073" data-name="グループ 3073" transform="translate(45.737 69.619)">
          <path id="パス_3394" data-name="パス 3394" d="M242.837,269.12l-3.855,11.718a2.484,2.484,0,0,0,2.363,3.264h5.339a.9.9,0,1,0,0-1.806h-5.339a.666.666,0,0,1-.485-.2.686.686,0,0,1-.2-.476l.035-.214,3.855-11.72a.9.9,0,1,0-1.716-.563Z" transform="translate(-238.856 -268.499)" fill="#3e485c"/>
        </g>
        <ellipse id="楕円形_145" data-name="楕円形 145" cx="3.875" cy="5.494" rx="3.875" ry="5.494" transform="translate(33.066 63.308)" fill="#3e485c"/>
        <ellipse id="楕円形_146" data-name="楕円形 146" cx="3.875" cy="5.494" rx="3.875" ry="5.494" transform="translate(60.584 63.308)" fill="#3e485c"/>
        <g id="グループ_3076" data-name="グループ 3076" transform="translate(27.92 55.141)">
          <path id="パス_3395" data-name="パス 3395" d="M192.044,231.4c-7.43-.844-10.358,1.731-12.183,4.358,3.4-1.93,14.378-2.534,16.467.367C196.361,236.186,195.458,231.993,192.044,231.4Z" transform="translate(-179.861 -231.239)" fill="#3e485c"/>
        </g>
        <g id="グループ_3077" data-name="グループ 3077" transform="translate(57.012 55.141)">
          <path id="パス_3396" data-name="パス 3396" d="M279.539,231.4c7.43-.844,10.358,1.731,12.183,4.358-3.4-1.93-14.378-2.534-16.467.367C275.222,236.186,276.125,231.993,279.539,231.4Z" transform="translate(-275.254 -231.239)" fill="#3e485c"/>
        </g>
        <g id="グループ_3081" data-name="グループ 3081" transform="translate(0 0.608)">
          <g id="グループ_3080" data-name="グループ 3080">
            <path id="パス_3397" data-name="パス 3397" d="M121.821,82.088c1.628-26.54,12.966-39.983,33.762-39.983s32.134,13.442,33.762,39.983c-.149,2.44-.41,4.731-.723,6.948H196.5c0-26.8-8.525-53.879-40.915-53.879S114.668,62.24,114.668,89.036h7.876C122.231,86.819,121.97,84.528,121.821,82.088Z" transform="translate(-104.883 -33.698)" fill="#939393"/>
            <path id="パス_3398" data-name="パス 3398" d="M102.639,202.641v28.567a1.64,1.64,0,0,1-1.988,1.608c-3.435-.744-10.3-2.443-12.291-4.515-3.25-3.375-2.641-19.393-.4-22.893,1.7-2.656,9.458-3.877,12.958-4.3A1.537,1.537,0,0,1,102.639,202.641Z" transform="translate(-84.586 -151.599)" fill="#939393"/>
            <path id="パス_3399" data-name="パス 3399" d="M368.768,202.641v28.567a1.641,1.641,0,0,0,1.989,1.608c3.433-.744,10.3-2.443,12.291-4.515,3.249-3.375,2.639-19.393.4-22.893-1.7-2.656-9.457-3.877-12.957-4.3A1.538,1.538,0,0,0,368.768,202.641Z" transform="translate(-285.422 -151.599)" fill="#939393"/>
            <path id="パス_3400" data-name="パス 3400" d="M125.534,219.568V245.19" transform="translate(-112.603 -164.715)" fill="#5e7aa5"/>
            <path id="パス_3401" data-name="パス 3401" d="M386.468,219.568V245.19" transform="translate(-297.998 -164.715)" fill="#5e7aa5"/>
            <path id="パス_3402" data-name="パス 3402" d="M181.747,88.391a24.842,24.842,0,0,0-.626-2.986,8.8,8.8,0,0,0-.953-2.3,6.849,6.849,0,0,0-2.865-2.28,21.234,21.234,0,0,0-3.514-1.261c-.569-11.564-2.9-22.887-8.371-31.862a35.23,35.23,0,0,0-13.086-12.757c-5.594-3.092-12.465-4.834-20.763-4.832s-15.17,1.74-20.764,4.832c-8.4,4.638-13.832,12.266-17.115,21.177a79.521,79.521,0,0,0-4.334,23.439,21.213,21.213,0,0,0-3.523,1.263,6.858,6.858,0,0,0-2.865,2.279,8.792,8.792,0,0,0-.954,2.3,41.1,41.1,0,0,0-1.146,10.29,39.79,39.79,0,0,0,.557,7.005,16.625,16.625,0,0,0,.777,2.894,6.714,6.714,0,0,0,1.349,2.274,9.359,9.359,0,0,0,2.722,1.793,36.366,36.366,0,0,0,5.372,1.918c1.859.53,3.657.949,4.967,1.233l.023,0a3.271,3.271,0,0,0,.65.067,3.155,3.155,0,0,0,3.15-3.159V81.159a3.046,3.046,0,0,0-1.142-2.371c-.006-.1-.018-.189-.024-.287.81-13.039,4.009-22.687,9.345-29a25.228,25.228,0,0,1,9.7-7.118,37.781,37.781,0,0,1,26.515,0,26.36,26.36,0,0,1,13.3,12.493c3.186,5.978,5.132,13.858,5.739,23.626-.006.1-.018.187-.024.283a3.045,3.045,0,0,0-1.144,2.371v28.567a3.156,3.156,0,0,0,3.151,3.159,3.313,3.313,0,0,0,.648-.066l.025-.006c1.747-.379,4.358-1,6.832-1.8a30.16,30.16,0,0,0,3.507-1.352,9.353,9.353,0,0,0,2.722-1.794,6.714,6.714,0,0,0,1.348-2.274,19.874,19.874,0,0,0,1.027-4.532,44.088,44.088,0,0,0,.306-5.366A49.666,49.666,0,0,0,181.747,88.391Zm-84.34,21.334-.037.093-.084.037-.052-.006c-.648-.14-1.419-.316-2.254-.521V84.971H92.617v23.735c-.636-.179-1.277-.371-1.9-.573a27.2,27.2,0,0,1-3.146-1.209,6.7,6.7,0,0,1-1.835-1.155,3.871,3.871,0,0,1-.7-1.258,17.025,17.025,0,0,1-.851-3.824,41.037,41.037,0,0,1-.283-4.992,46.683,46.683,0,0,1,.484-6.845,21.854,21.854,0,0,1,.545-2.616,6.064,6.064,0,0,1,.591-1.491,4.135,4.135,0,0,1,1.635-1.188,24.016,24.016,0,0,1,5.172-1.6c1.9-.4,3.775-.669,5.057-.824h.006l.018.03v28.566Zm59.345-62.1a28.16,28.16,0,0,0-10.8-7.929,40.67,40.67,0,0,0-28.764,0,29.3,29.3,0,0,0-14.754,13.814C99,59.965,97,68.209,96.366,78.2c-1.13.147-2.552.362-4.051.661.628-10.959,2.921-21.513,7.894-29.638A32.293,32.293,0,0,1,112.215,37.5c5.114-2.823,11.456-4.467,19.353-4.469s14.238,1.645,19.352,4.469c7.66,4.234,12.659,11.173,15.789,19.633a75.78,75.78,0,0,1,4.107,21.73c-1.505-.3-2.916-.514-4.048-.661C165.918,64.86,162.646,54.614,156.752,47.622Zm21.979,54.528a13.708,13.708,0,0,1-.626,2.361,3.868,3.868,0,0,1-.7,1.257,6.687,6.687,0,0,1-1.835,1.155,33.722,33.722,0,0,1-4.908,1.744l-.141.039V84.97h-2.363v24.357c-.833.2-1.6.38-2.251.52l-.056.008-.085-.037-.037-.093V81.159l.019-.03h.007A53.312,53.312,0,0,1,172.7,82.4a18.982,18.982,0,0,1,3.284,1.153,4.13,4.13,0,0,1,1.634,1.187,6.091,6.091,0,0,1,.591,1.492,38.443,38.443,0,0,1,1.029,9.462A36.91,36.91,0,0,1,178.731,102.15Z" transform="translate(-80.868 -30.117)" fill="#3e485c"/>
          </g>
        </g>
      </g>
    </g>
    <g id="グループ_2547" data-name="グループ 2547" transform="translate(17341.215 -2761.693) rotate(-13)">
      <rect id="長方形_251" data-name="長方形 251" width="98.843" height="4.636" transform="translate(-17222.541 385.05)" fill="#ffb64b"/>
      <path id="パス_1210" data-name="パス 1210" d="M135.792,546.308c0,1.077-5,28.556-5,28.556H48.262s-5-27.479-5-28.556Z" transform="translate(-17262.645 -156.622)" fill="#4287c6"/>
      <path id="前面オブジェクトで型抜き_8" data-name="前面オブジェクトで型抜き 8" d="M92.725,35.254H8.341l-.166-.912c0-.006-.893-4.909-1.885-10.439C4.943,16.4,4.017,11.125,3.537,8.231,3.43,7.584,3.35,7.082,3.291,6.7H0V0H101.066V6.7H97.775c-.028.181-.059.377-.094.6-.13.81-.321,1.952-.568,3.393-.416,2.418-.995,5.706-1.72,9.772-1.248,6.991-2.494,13.838-2.5,13.878l-.166.912ZM5.54,6.7c.1.643.248,1.53.436,2.637.336,1.973.813,4.706,1.42,8.121,1.084,6.105,2.285,12.738,2.751,15.307l.049.271H90.87l.028-.153.372-2.055c.3-1.682.783-4.328,1.331-7.381.93-5.18,2.161-12.1,2.749-15.658.071-.431.129-.787.176-1.088H5.54ZM2.223,2.061V4.477H98.843V2.061H28.808a1.036,1.036,0,0,1-.591,0Z" transform="translate(-17226.727 381.536)" fill="#3e485c"/>
      <rect id="長方形_253" data-name="長方形 253" width="8.028" height="12.81" rx="4.014" transform="matrix(0.848, -0.53, 0.53, 0.848, -17164.313, 344.499)" fill="#3e485c"/>
      <path id="パス_1215" data-name="パス 1215" d="M-16803.074,437.2l-2.385-.181c.926-12.188-5.615-29.468-5.682-29.641l2.234-.854C-16808.629,407.248-16802.109,424.479-16803.074,437.2Z" transform="translate(-344.605 -54.956)" fill="#3e485c"/>
    </g>
  </g>
</svg>
