<svg xmlns="http://www.w3.org/2000/svg" width="280" height="200" viewBox="0 0 280 200">
  <g id="グループ_3086" data-name="グループ 3086" transform="translate(-500 -1349)">
    <rect id="長方形_156" data-name="長方形 156" width="280" height="200" transform="translate(500 1349)" fill="none"/>
    <g id="グループ_3090" data-name="グループ 3090" transform="matrix(0.966, 0.259, -0.259, 0.966, 20192.785, -5111.364)">
      <g id="グループ_3090-2" data-name="グループ 3090" transform="translate(-17305.139 11361.938)">
        <path id="パス_3320" data-name="パス 3320" d="M188.54,124.859h-.334c-1.381-21.26-11.634-38.295-34.9-38.295s-33.522,17.034-34.9,38.295h-.334c-4.553-2.691-11.162,2.479-10.122,8.723,2.185,13.107,3.051,16.357,6.944,18.325a9.789,9.789,0,0,0,3.809,1.04h2.425c1.3,8.244,4.845,14.206,7.04,19.464,2.986,7.146,16.269,13.941,25.141,13.941s22.155-6.8,25.141-13.941c2.2-5.258,5.742-11.22,7.04-19.464h2.425a9.79,9.79,0,0,0,3.809-1.04c3.894-1.968,4.758-5.217,6.944-18.325C199.7,127.337,193.092,122.167,188.54,124.859Z" transform="translate(-102.514 -81.245)" fill="#ffeae3"/>
        <path id="パス_3321" data-name="パス 3321" d="M193.889,121.726a8.973,8.973,0,0,0-6.321-2.876,6.946,6.946,0,0,0-1.6.194c-.854-9.2-3.373-17.613-8.058-24.209a30.955,30.955,0,0,0-11.473-9.91,40.585,40.585,0,0,0-33.594,0c-7.076,3.528-12.092,9.436-15.277,16.646a56.054,56.054,0,0,0-4.272,17.469,6.967,6.967,0,0,0-1.583-.191,8.974,8.974,0,0,0-6.323,2.876,9.942,9.942,0,0,0-2.837,6.881,9.431,9.431,0,0,0,.134,1.586v0c1.1,6.57,1.85,10.691,2.9,13.624a11.648,11.648,0,0,0,1.977,3.627,9.022,9.022,0,0,0,2.928,2.252A11.332,11.332,0,0,0,115,150.907a1.61,1.61,0,0,0,1.133-.438c.957,3.012,1.9,5.917,2.842,8.629a84.3,84.3,0,0,0,5.883,13.91,7.715,7.715,0,0,0,1.681,1.88,30.081,30.081,0,0,0,4.756,3.155,66.118,66.118,0,0,0,9.528,4.291,44.489,44.489,0,0,0,4.724,1.42,18.594,18.594,0,0,0,4.092.559,23.853,23.853,0,0,0,6.511-1.215,64.846,64.846,0,0,0,11-4.6,38.925,38.925,0,0,0,4.44-2.711,10.117,10.117,0,0,0,2.824-2.774A84.318,84.318,0,0,0,180.3,159.1c.941-2.713,1.887-5.616,2.843-8.629a1.611,1.611,0,0,0,1.134.439,11.342,11.342,0,0,0,4.507-1.215,9.018,9.018,0,0,0,2.928-2.252,15.05,15.05,0,0,0,2.722-6.07c.7-2.7,1.339-6.256,2.161-11.182l0-.009a9.77,9.77,0,0,0-2.709-8.455Zm-.489,7.939c-1.084,6.531-1.858,10.586-2.755,13.046a8.466,8.466,0,0,1-1.408,2.642,5.775,5.775,0,0,1-1.912,1.448,8.575,8.575,0,0,1-2.224.752c-.295.056-.534.086-.691.1l-.17.014-.025,0h-.006a1.5,1.5,0,0,0-.2.043q1.109-3.54,2.243-7.2a1.619,1.619,0,0,0-3.093-.961h0c-2.044,6.579-4,12.953-5.919,18.481a81.59,81.59,0,0,1-5.623,13.343,4.819,4.819,0,0,1-.984,1.044,27.1,27.1,0,0,1-4.226,2.787,63,63,0,0,1-9.042,4.072A41.363,41.363,0,0,1,153,180.6a15.5,15.5,0,0,1-3.354.475A21.037,21.037,0,0,1,144.073,180a61.6,61.6,0,0,1-10.424-4.364,35.958,35.958,0,0,1-4.063-2.475,7.63,7.63,0,0,1-1.925-1.779,81.577,81.577,0,0,1-5.622-13.343c-1.917-5.528-3.875-11.9-5.92-18.481a1.619,1.619,0,1,0-3.093.962q1.137,3.659,2.243,7.2a1.5,1.5,0,0,0-.195-.043v0h-.006a8.308,8.308,0,0,1-3.112-.866,5.775,5.775,0,0,1-1.912-1.448,12.048,12.048,0,0,1-2.064-4.8c-.651-2.488-1.283-5.992-2.1-10.9v0a6.275,6.275,0,0,1-.088-1.046,6.71,6.71,0,0,1,1.927-4.63,5.778,5.778,0,0,1,3.994-1.888,3.674,3.674,0,0,1,1.347.285c-.063,1.308-.1,2.626-.1,3.958a1.62,1.62,0,1,0,3.239,0h0c-.006-11.572,2.461-22.109,7.817-29.619a27.713,27.713,0,0,1,10.281-8.89,37.373,37.373,0,0,1,30.7,0c6.317,3.159,10.8,8.384,13.763,15.06s4.338,14.774,4.335,23.449a1.62,1.62,0,1,0,3.239,0c0-1.332-.044-2.649-.108-3.958a3.662,3.662,0,0,1,1.348-.285,5.776,5.776,0,0,1,3.991,1.887,6.53,6.53,0,0,1,1.841,5.689Z" transform="translate(-102.551 -81.286)" fill="#3e485c"/>
      </g>
      <g id="グループ_3091" data-name="グループ 3091" transform="translate(-17309.965 11347.86)">
        <g id="グループ_3037" data-name="グループ 3037" transform="translate(9.665 54.886)">
          <path id="パス_3322" data-name="パス 3322" d="M120.315,216.314l.039.04Z" transform="translate(-119.702 -215.686)" fill="#232256"/>
          <path id="パス_3323" data-name="パス 3323" d="M118.847,214.81l.038.039Z" transform="translate(-118.685 -214.644)" fill="#232256"/>
          <path id="パス_3324" data-name="パス 3324" d="M119.683,215.666l.032.033Z" transform="translate(-119.264 -215.237)" fill="#232256"/>
          <path id="パス_3325" data-name="パス 3325" d="M120.441,216.443Z" transform="translate(-119.79 -215.776)" fill="#232256"/>
          <path id="パス_3326" data-name="パス 3326" d="M118.4,214.35l0,0-.022-.023-.063-.064.084.086Z" transform="translate(-118.319 -214.268)" fill="#232256"/>
          <path id="パス_3327" data-name="パス 3327" d="M119.244,215.216l-.011-.011.048.05.031.031.215.221-.162-.166-.043-.044.011.011-.061-.063-.094-.1.03.03Z" transform="translate(-118.915 -214.879)" fill="#232256"/>
          <path id="パス_3328" data-name="パス 3328" d="M118.592,214.549l0,0,.13.134.1.1-.024-.025-.042-.043.012.013-.064-.065,0,0-.042-.043h0l-.077-.079,0,0Z" transform="translate(-118.508 -214.463)" fill="#232256"/>
        </g>
        <path id="パス_3329" data-name="パス 3329" d="M182.377,68.013c-4.837-4.465-11.528-38.862-32.792-27.977a31.332,31.332,0,0,0-10.846-4.145c-20.777-4.026-34.606,18.723-34.606,18.723-11.5,2.2-25.869,18.9-10.863,36.91L96.488,90.3a8.174,8.174,0,0,1,4.682-2.265L98.209,89.45c2.074.914,3.921,4.4,4.969,10.173.268,1.475.612,2.919.976,4.252a1.474,1.474,0,0,0,2.89-.269l.968-11.465c8.045,8.377,23.825-6.661,35.7-20.833l-1.739,12.365s10.187-5.37,11.936-14.154c1.01,15.615,7.915,29.434,15.48,24.517l.808,9.569a1.474,1.474,0,0,0,2.89.269c.364-1.333.708-2.777.976-4.252,1.048-5.773,2.9-9.259,4.969-10.173l-1.877-.9c1.452-.259,2.655,1.1,4.887,5.209C193.359,89.284,190.8,75.785,182.377,68.013Z" transform="translate(-86.823 -35.413)" fill="#3e485c"/>
      </g>
      <g id="グループ_3096" data-name="グループ 3096" transform="translate(-17267.213 11442.771)">
        <path id="パス_3330" data-name="パス 3330" d="M243.087,344.983c-1.024,1-5.016,1.643-7.994,1.643s-6.97-.647-7.994-1.643c-.845-.821-1.349.293-.587,1.291s4.166,2.477,8.581,2.477,7.818-1.48,8.581-2.477S243.932,344.161,243.087,344.983Z" transform="translate(-226.137 -344.697)" fill="#3e485c"/>
      </g>
      <g id="グループ_3095" data-name="グループ 3095" transform="translate(-17268.732 11420.269)">
        <path id="パス_3332" data-name="パス 3332" d="M279.99,310.778c-1.253-1.035-1.9-1.758-1.709-2.048s1.171.014,2.494,1.106q.658.548,1.28,1.138c1.239,1.188,1.641,2.14,1.388,2.349s-1.059-.335-2.233-1.459Q280.618,311.3,279.99,310.778Z" transform="translate(-260.739 -297.197)" fill="#3e485c"/>
        <path id="パス_3333" data-name="パス 3333" d="M223.027,312.413c.9-1.151,1.707-1.6,1.949-1.361s-.1,1-.987,2.122l-.876,1.136c-.864,1.143-1.51,1.667-1.8,1.5s-.063-1.065.82-2.232Z" transform="translate(-221.192 -298.832)" fill="#3e485c"/>
        <path id="パス_3334" data-name="パス 3334" d="M246.551,308.513a.717.717,0,0,1,.178.473,1.228,1.228,0,0,1-.647.974,6.867,6.867,0,0,1-6.029,0,1.227,1.227,0,0,1-.648-.974.71.71,0,0,1,.177-.47,1.031,1.031,0,1,0-1.564-1.344,2.773,2.773,0,0,0-.676,1.814,3.281,3.281,0,0,0,1.546,2.677,8.791,8.791,0,0,0,8.356,0,3.279,3.279,0,0,0,1.546-2.676,2.78,2.78,0,0,0-.673-1.812,1.031,1.031,0,1,0-1.567,1.341Z" transform="translate(-232.387 -295.936)" fill="#3e485c"/>
        <path id="パス_3335" data-name="パス 3335" d="M247.663,272.26c-.221,1.61-.353,4.048-.435,6.116s-.11,3.739-.11,3.743a1.031,1.031,0,0,0,2.062.036s.028-1.659.108-3.7.216-4.464.418-5.915a1.031,1.031,0,1,0-2.043-.282Z" transform="translate(-239.162 -271.37)" fill="#3e485c"/>
      </g>
      <g id="グループ_3094" data-name="グループ 3094" transform="translate(-17277.74 11417.935)">
        <g id="グループ_3041" data-name="グループ 3041">
          <path id="パス_3336" data-name="パス 3336" d="M191.835,263.765h9.925a1.264,1.264,0,0,1,.935.41c.782.854,2.465,2.872,2.465,4.412h-8.328C194.327,268.587,191.835,263.765,191.835,263.765Z" transform="translate(-191.835 -263.765)" fill="#232256"/>
          <path id="パス_3337" data-name="パス 3337" d="M290.071,263.765h-9.925a1.264,1.264,0,0,0-.935.41c-.782.854-2.465,2.872-2.465,4.412h8.328C287.578,268.587,290.071,263.765,290.071,263.765Z" transform="translate(-250.689 -263.765)" fill="#232256"/>
        </g>
      </g>
      <g id="グループ_3092" data-name="グループ 3092" transform="translate(-17279.529 11407.636)">
        <g id="グループ_3043" data-name="グループ 3043">
          <path id="パス_3338" data-name="パス 3338" d="M186.008,237.44s10.886-.146,13.877,1.252,2,3.307,2,3.307l-15.876-3.724Z" transform="translate(-186.008 -237.436)" fill="#3e485c"/>
          <path id="パス_3339" data-name="パス 3339" d="M289.777,237.44s-10.886-.146-13.877,1.252-2,3.307-2,3.307l15.876-3.724Z" transform="translate(-246.82 -237.436)" fill="#3e485c"/>
        </g>
      </g>
      <g id="グループ_3093" data-name="グループ 3093" transform="translate(-17290.18 11409.854)">
        <path id="パス_3340" data-name="パス 3340" d="M211.781,241.918h-1.244a10.5,10.5,0,0,0-4.814-3.868,21.725,21.725,0,0,0-8.537-1.521,19.324,19.324,0,0,0-10.1,2.626,11.028,11.028,0,0,0-2.968,2.65,10.2,10.2,0,0,0-3.06-.515c-.152,0-.266,0-.352.01s-.2-.009-.345-.009a10.209,10.209,0,0,0-3.074.519,12.4,12.4,0,0,0-5.11-3.765,20.63,20.63,0,0,0-7.94-1.516c-4.517,0-8.092.952-10.639,2.651a9.5,9.5,0,0,0-2.729,2.738h-1.823a.762.762,0,0,0-.763.763v1.309a.762.762,0,0,0,.6.745l.826.181a7.9,7.9,0,0,0-.113,1.272,7.1,7.1,0,0,0,1.285,4.007,12.127,12.127,0,0,0,5.415,4.134,20.616,20.616,0,0,0,7.941,1.517,19.324,19.324,0,0,0,10.1-2.626,10.774,10.774,0,0,0,3.258-3.026,7.1,7.1,0,0,0,1.285-4.007,6.628,6.628,0,0,0-.262-1.784,7.39,7.39,0,0,1,1.746-.25l.182,0,.033,0h0l.139.014.136-.014h0l.207-.007a7.426,7.426,0,0,1,1.746.251,6.654,6.654,0,0,0-.261,1.784,7.1,7.1,0,0,0,1.285,4.007,12.126,12.126,0,0,0,5.415,4.134,20.615,20.615,0,0,0,7.941,1.517,19.324,19.324,0,0,0,10.1-2.626,10.772,10.772,0,0,0,3.258-3.026,7.1,7.1,0,0,0,1.285-4.007,7.916,7.916,0,0,0-.138-1.4l.257-.056a.763.763,0,0,0,.6-.745V242.68A.762.762,0,0,0,211.781,241.918Z" transform="translate(-148.286 -236.529)" fill="#3e485c"/>
        <path id="パス_3341" data-name="パス 3341" d="M185.049,255.319a9.326,9.326,0,0,1-4.156,3.1,17.79,17.79,0,0,1-6.83,1.293,16.517,16.517,0,0,1-8.584-2.194,7.935,7.935,0,0,1-2.4-2.2,4.224,4.224,0,0,1-.791-2.4,4.94,4.94,0,0,1,.661-2.491,7.513,7.513,0,0,1,3.709-3.016,18.943,18.943,0,0,1,7.409-1.289,16.525,16.525,0,0,1,8.584,2.193,7.934,7.934,0,0,1,2.4,2.2,4.029,4.029,0,0,1,0,4.8Z" transform="translate(-158.109 -243.263)" fill="#ffeae3"/>
        <path id="パス_3342" data-name="パス 3342" d="M295.5,255.32a9.325,9.325,0,0,1-4.156,3.1,17.788,17.788,0,0,1-6.83,1.293,16.518,16.518,0,0,1-8.584-2.194,7.935,7.935,0,0,1-2.4-2.2,4.029,4.029,0,0,1,0-4.8,9.324,9.324,0,0,1,4.156-3.1,17.79,17.79,0,0,1,6.831-1.293c4.116,0,7.145.889,9.045,2.168a6.488,6.488,0,0,1,2.072,2.137,4.94,4.94,0,0,1,.661,2.491A4.226,4.226,0,0,1,295.5,255.32Z" transform="translate(-235.618 -243.264)" fill="#ffeae3"/>
        <g id="グループ_3045" data-name="グループ 3045" transform="translate(11.963 7.757)">
          <path id="パス_3343" data-name="パス 3343" d="M194.9,265.577h-4.983a1.526,1.526,0,0,1-1.522-1.522h0a1.526,1.526,0,0,1,1.522-1.522H194.9a1.526,1.526,0,0,1,1.522,1.522h0A1.526,1.526,0,0,1,194.9,265.577Z" transform="translate(-188.394 -262.534)" fill="#3e485c"/>
          <path id="パス_3344" data-name="パス 3344" d="M303.2,265.577h-4.983a1.526,1.526,0,0,1-1.522-1.522h0a1.526,1.526,0,0,1,1.522-1.522H303.2a1.526,1.526,0,0,1,1.522,1.522h0A1.526,1.526,0,0,1,303.2,265.577Z" transform="translate(-264.394 -262.534)" fill="#3e485c"/>
        </g>
      </g>
    </g>
    <g id="j32_1_16" transform="matrix(0.966, -0.259, 0.259, 0.966, 640.718, 1450.091)">
      <path id="パス_335" data-name="パス 335" d="M9.206,25.509V10.847c0-.87,2.582-3.452,5.767-3.452h103.8c3.185,0,5.767,2.582,5.767,3.452V25.509H9.206Z" transform="translate(-4.415 -3.722)" fill="#ffb64b"/>
      <path id="パス_336" data-name="パス 336" d="M117.642,185.744H13.956a5.919,5.919,0,0,1-5.919-5.92v-60.6l115.524-.7v61.3A5.919,5.919,0,0,1,117.642,185.744Z" transform="translate(-3.436 -95.914)" fill="#fff"/>
      <path id="パス_337" data-name="パス 337" d="M71.695,57.583a2.1,2.1,0,1,1-2.1-2.1A2.1,2.1,0,0,1,71.695,57.583Z" transform="translate(-54.852 -45.619)" fill="#ff7373"/>
      <path id="パス_338" data-name="パス 338" d="M127.233,57.583a2.1,2.1,0,1,1-2.1-2.1A2.1,2.1,0,0,1,127.233,57.583Z" transform="translate(-101.338 -45.619)" fill="#43caff"/>
      <path id="パス_339" data-name="パス 339" d="M182.768,57.583a2.1,2.1,0,1,1-2.1-2.1A2.1,2.1,0,0,1,182.768,57.583Z" transform="translate(-147.82 -45.619)" fill="#edff87"/>
      <path id="パス_340" data-name="パス 340" d="M323.022,56.692H263.94a2.846,2.846,0,0,1,0-5.692h59.083a2.846,2.846,0,0,1,0,5.692Z" transform="translate(-218.536 -42.687)" fill="#fff"/>
      <rect id="長方形_160" data-name="長方形 160" width="93.158" height="29.603" transform="translate(15.176 31.421)" fill="#4287c6"/>
      <path id="パス_341" data-name="パス 341" d="M6.78,87.2h103.8a6.78,6.78,0,0,0,6.78-6.78V6.78A6.78,6.78,0,0,0,110.58,0H6.78A6.78,6.78,0,0,0,0,6.78V80.425A6.78,6.78,0,0,0,6.78,87.2ZM2.026,6.78A4.754,4.754,0,0,1,6.78,2.026h103.8a4.754,4.754,0,0,1,4.754,4.755V18.693H2.026Zm0,13.939H115.334V80.425a4.754,4.754,0,0,1-4.754,4.754H6.78a4.754,4.754,0,0,1-4.754-4.754V20.72Z" fill="#3e485c"/>
      <path id="パス_342" data-name="パス 342" d="M61.4,48.094A3.111,3.111,0,1,0,64.515,51.2,3.11,3.11,0,0,0,61.4,48.094Zm0,4.2A1.085,1.085,0,1,1,62.489,51.2,1.087,1.087,0,0,1,61.4,52.289Z" transform="translate(-48.792 -40.255)" fill="#3e485c"/>
      <path id="パス_343" data-name="パス 343" d="M116.942,48.094a3.111,3.111,0,1,0,3.11,3.111A3.11,3.11,0,0,0,116.942,48.094Zm0,4.2a1.085,1.085,0,1,1,1.084-1.084A1.087,1.087,0,0,1,116.942,52.289Z" transform="translate(-95.277 -40.255)" fill="#3e485c"/>
      <path id="パス_344" data-name="パス 344" d="M172.477,48.094a3.111,3.111,0,1,0,3.111,3.111A3.11,3.11,0,0,0,172.477,48.094Zm0,4.2a1.085,1.085,0,1,1,1.085-1.084A1.087,1.087,0,0,1,172.477,52.289Z" transform="translate(-141.76 -40.255)" fill="#3e485c"/>
      <path id="パス_345" data-name="パス 345" d="M314.828,43.606H255.745a3.859,3.859,0,0,0,0,7.718h59.083a3.859,3.859,0,0,0,0-7.718Zm1.293,5.153a1.824,1.824,0,0,1-1.293.54H255.745a1.833,1.833,0,0,1,0-3.667h59.083a1.83,1.83,0,0,1,1.294,3.127Z" transform="translate(-210.829 -36.498)" fill="#3e485c"/>
      <path id="パス_346" data-name="パス 346" d="M161.537,167.438H65.547v31.669h95.99Zm-1.893,29.775H67.44V169.331h92.2v27.881Z" transform="translate(-54.863 -140.146)" fill="#3e485c"/>
      <path id="パス_347" data-name="パス 347" d="M359.533,224.31a9.253,9.253,0,0,1,2.953-3.383,7.442,7.442,0,0,1,3.545-1.435l.732-.054.13-.722a7.763,7.763,0,0,1,14.67-1.9l.248.528.584.016a8.479,8.479,0,0,1,5.822,2.964,10.3,10.3,0,0,1,2.725,6.859h1.894a12.184,12.184,0,0,0-3.218-8.133,10.531,10.531,0,0,0-6.592-3.53,9.649,9.649,0,0,0-17.84,2.181,8.852,8.852,0,0,0-2.318.8,11.631,11.631,0,0,0-4.063,3.4,8.865,8.865,0,0,0-1.859,5.289h1.893A6.5,6.5,0,0,1,359.533,224.31Z" transform="translate(-298.764 -176.144)" fill="#3e485c"/>
      <path id="パス_348" data-name="パス 348" d="M239.957,240.432h1.468v-2.5h2.637v-1.469h-2.637v-2.5h-1.468v2.5h-2.636v1.469h2.636Z" transform="translate(-198.638 -195.829)" fill="#3e485c"/>
      <path id="パス_349" data-name="パス 349" d="M151.043,277.324h-1.352v2.3h-2.428v1.353h2.428v2.3h1.352v-2.3h2.429v-1.353h-2.429Z" transform="translate(-123.259 -232.12)" fill="#3e485c"/>
      <path id="パス_350" data-name="パス 350" d="M145.4,206.3h1.352V204h2.429v-1.353h-2.429v-2.3H145.4v2.3h-2.428V204H145.4Z" transform="translate(-119.664 -167.686)" fill="#3e485c"/>
      <rect id="長方形_161" data-name="長方形 161" width="22.03" height="1.894" transform="translate(11.631 65.813)" fill="#3e485c"/>
      <rect id="長方形_162" data-name="長方形 162" width="22.03" height="1.894" transform="translate(11.631 71.821)" fill="#3e485c"/>
      <rect id="長方形_163" data-name="長方形 163" width="22.03" height="1.894" transform="translate(81.727 65.813)" fill="#3e485c"/>
      <rect id="長方形_164" data-name="長方形 164" width="22.03" height="1.894" transform="translate(81.727 71.821)" fill="#3e485c"/>
      <rect id="長方形_165" data-name="長方形 165" width="22.03" height="1.894" transform="translate(47.28 65.813)" fill="#3e485c"/>
      <rect id="長方形_166" data-name="長方形 166" width="22.03" height="1.894" transform="translate(47.28 71.821)" fill="#3e485c"/>
    </g>
  </g>
</svg>
