<svg xmlns="http://www.w3.org/2000/svg" width="280" height="200" viewBox="0 0 280 200">
  <g id="グループ_3087" data-name="グループ 3087" transform="translate(-500 -1349)">
    <rect id="長方形_156" data-name="長方形 156" width="280" height="200" transform="translate(500 1349)" fill="none"/>
    <g id="_0_0_1_0_302_30_2_2_15_20_0_0_p0" data-name="0_0_1_0_302_30_2_2_15_20_0_0_p0" transform="translate(460.32 1305.056) rotate(16)">
      <g id="グループ_2980" data-name="グループ 2980" transform="translate(102.509 46.522)">
        <g id="グループ_2979" data-name="グループ 2979">
          <path id="パス_3267" data-name="パス 3267" d="M188.816,125.181h-.333c-1.386-21.439-11.676-38.618-35.024-38.618s-33.638,17.178-35.024,38.618H118.1c-4.569-2.715-11.2,2.5-10.158,8.8,2.192,13.217,3.06,16.494,6.968,18.479a9.781,9.781,0,0,0,3.822,1.049h.393c1.3,8.313,3.9,14.432,7.237,19.1,5.095,7.131,18.191,14.587,27.095,14.587s22-7.456,27.095-14.587c3.334-4.668,5.935-10.786,7.237-19.1h.393a9.781,9.781,0,0,0,3.822-1.049c3.907-1.985,4.776-5.261,6.968-18.479C200.018,127.681,193.385,122.466,188.816,125.181Z" transform="translate(-102.19 -81.856)" fill="#ffeae3"/>
          <path id="パス_3268" data-name="パス 3268" d="M194.177,122.055a8.51,8.51,0,0,0-7.925-2.709c-1.759-21.465-13.7-38.3-36.478-38.066-22.859-.267-34.764,16.8-36.473,38.068-6.157-1.343-11.781,5.185-10.645,11.243v0c1.1,6.625,1.857,10.78,2.916,13.737a10.146,10.146,0,0,0,8.487,7.059c1.075,6.594,3.765,13.72,7.3,18.509,6.085,8.023,18.386,14.979,28.414,15.265,10.132-.293,22.417-7.343,28.414-15.265,3.536-4.79,6.225-11.913,7.3-18.509,6.369-.966,8.541-5.442,9.755-11.735.515-2.389,1.029-5.337,1.647-9.062v0A10.031,10.031,0,0,0,194.177,122.055Zm-.49,8c-1.089,6.59-1.865,10.681-2.766,13.162a6.553,6.553,0,0,1-4.908,4.726c.288-2.3.484-4.752.575-7.366a1.625,1.625,0,1,0-3.247-.114,64.668,64.668,0,0,1-2.475,16.43c-2.366,7.179-4.649,11.505-10.152,16.071-5.412,4.45-14.187,8.9-20.939,8.932-9.127-.324-20.369-6.825-25.775-13.9a37.445,37.445,0,0,1-5.316-11.1,64.642,64.642,0,0,1-2.474-16.43,1.625,1.625,0,0,0-3.248.114h0c.091,2.614.288,5.064.576,7.368-4.342-1.155-5.03-4.516-6.057-8.983-.5-2.288-1.033-5.377-1.645-9.068l.027.158c-.782-3.961,3.16-8.716,7.206-7.369-.064,1.329-.107,2.667-.107,4.02a1.625,1.625,0,1,0,3.25,0h0c-.178-22.049,9.287-42.419,33.565-42.153,13.564-.108,23.935,6.339,29.214,18.51,2.966,6.724,4.352,14.9,4.35,23.643a1.625,1.625,0,1,0,3.25,0c0-1.353-.037-2.694-.1-4.023C190.521,121.327,194.47,126.1,193.687,130.051Z" transform="translate(-102.509 -81.277)" fill="#3e485c"/>
        </g>
      </g>
      <g id="グループ_2981" data-name="グループ 2981" transform="translate(109.599 31.059)">
        <path id="パス_3269" data-name="パス 3269" d="M184.833,52.841v2.114s-5.412-5.406-8.97-7.027c-.508,1.261-.966,2.883-.966,2.883l-9.188-5.859-9.188,5.859s-.458-1.622-.967-2.883c-3.558,1.622-8.969,7.027-8.969,7.027V52.841c-8.289,4.524-21.051,12.384-21.051,26.137v22.116c0,1.52,2.653,9.459,4.158,13.511a2.644,2.644,0,0,0,2.9,2v-9.613s-.652-10.425,2.656-12.937,4.373-11.281,4.864-12.307c1.878-3.922,15.3-4.5,25.6-2.905,10.3-1.591,23.721-1.017,25.6,2.905.491,1.026,1.556,9.795,4.864,12.307s2.656,12.937,2.656,12.937v9.613a2.645,2.645,0,0,0,2.9-2c1.5-4.052,4.158-11.991,4.158-13.511V78.979C205.884,65.225,193.121,57.365,184.833,52.841Z" transform="translate(-125.534 -44.952)" fill="#3e485c"/>
      </g>
      <g id="グループ_2983" data-name="グループ 2983" transform="translate(139.527 126.089)">
        <g id="グループ_2982" data-name="グループ 2982">
          <path id="パス_3270" data-name="パス 3270" d="M236.139,345.968a2.857,2.857,0,0,1-.709.425,1.485,1.485,0,0,1-.552.106,3.1,3.1,0,0,1-.98-.207c-.607-.2-1.4-.559-2.462-.859a15.491,15.491,0,0,0-9.11.311c-.594.21-1.084.412-1.489.549a3.093,3.093,0,0,1-.98.207,1.477,1.477,0,0,1-.552-.106,2.855,2.855,0,0,1-.709-.425.868.868,0,0,0-1.316.308,1.227,1.227,0,0,0,.263,1.537,4.653,4.653,0,0,0,1.163.684,3.135,3.135,0,0,0,1.15.219,4.681,4.681,0,0,0,1.51-.295c.722-.247,1.443-.569,2.379-.833a12.974,12.974,0,0,1,3.622-.477,12.8,12.8,0,0,1,4.494.755c.545.191,1.025.391,1.507.555a4.672,4.672,0,0,0,1.51.295,3.139,3.139,0,0,0,1.15-.219,4.649,4.649,0,0,0,1.163-.684,1.228,1.228,0,0,0,.263-1.537.868.868,0,0,0-1.316-.308Z" transform="translate(-217.121 -344.895)" fill="#3e485c"/>
        </g>
      </g>
      <g id="グループ_2984" data-name="グループ 2984" transform="translate(148.005 115.586)">
        <path id="パス_3271" data-name="パス 3271" d="M252.758,310.381a1.154,1.154,0,0,0-1.458.065c-1.154,1.014-1.395,1.713-.5,1.938,1.063.266,2.96.219,3.359-.313C254.418,311.731,253.473,310.921,252.758,310.381Z" transform="translate(-250.258 -310.152)" fill="#3e485c"/>
      </g>
      <g id="グループ_2986" data-name="グループ 2986" transform="translate(131.746 98.654)">
        <g id="グループ_2985" data-name="グループ 2985">
          <path id="パス_3272" data-name="パス 3272" d="M197.776,269c-1.473-.536,2.5-5.221,5-5.232,1.787-.008,1.025,1.659-.633,2.763C200.305,267.753,199.349,269.569,197.776,269Z" transform="translate(-197.458 -263.765)" fill="#3e485c"/>
          <path id="パス_3273" data-name="パス 3273" d="M299.269,269c1.474-.536-2.5-5.221-5-5.232-1.787-.008-1.025,1.659.633,2.763C296.74,267.753,297.7,269.569,299.269,269Z" transform="translate(-263.745 -263.765)" fill="#3e485c"/>
        </g>
      </g>
      <g id="グループ_2988" data-name="グループ 2988" transform="translate(128.134 90.267)">
        <g id="グループ_2987" data-name="グループ 2987">
          <path id="パス_3274" data-name="パス 3274" d="M186.118,240.563c3.436-2.131,9.282-2.863,14.6-.272a.414.414,0,0,0,.507-.627c-1.59-2.01-3.771-4.108-9.657-3.527C186.274,236.659,184.95,241.215,186.118,240.563Z" transform="translate(-185.725 -236.039)" fill="#3e485c"/>
          <path id="パス_3275" data-name="パス 3275" d="M290.843,240.563c-3.436-2.131-9.282-2.863-14.6-.272a.414.414,0,0,1-.507-.627c1.59-2.01,3.771-4.108,9.657-3.527C290.687,236.659,292.011,241.215,290.843,240.563Z" transform="translate(-247.956 -236.039)" fill="#3e485c"/>
        </g>
      </g>
      <g id="グループ_2990" data-name="グループ 2990" transform="translate(117.587 99.631)">
        <g id="グループ_2989" data-name="グループ 2989">
          <path id="パス_3276" data-name="パス 3276" d="M214.028,257.853h-2.8a2.712,2.712,0,0,0-2.637,2.091,39.106,39.106,0,0,1-1.309,4.594,6.912,6.912,0,0,1-.765,1.554,1.632,1.632,0,0,1-.378.4,1.9,1.9,0,0,1-.753.277c-.409.087-1.016.155-1.786.271-.87.134-2.184.26-3.639.348s-3.067.141-4.572.141c-1.239,0-2.409-.036-3.351-.112-.47-.038-.883-.086-1.205-.14a3.867,3.867,0,0,1-.61-.139.806.806,0,0,1-.179-.167,4.812,4.812,0,0,1-.689-1.2,16.843,16.843,0,0,1-.851-2.7c-.1-.433-.184-.829-.246-1.148s-.1-.556-.132-.71v0a2.712,2.712,0,0,0-.407-1,3.058,3.058,0,0,0-1.162-1.016,4.967,4.967,0,0,0-1.578-.473,7.9,7.9,0,0,0-1.1-.076c-.085,0-.154,0-.208,0s-.13,0-.22,0a7.11,7.11,0,0,0-1.884.239,3.862,3.862,0,0,0-1.31.635,2.9,2.9,0,0,0-.651.693,2.715,2.715,0,0,0-.406,1c-.044.237-.124.7-.258,1.328a18.615,18.615,0,0,1-.935,3.144,5.649,5.649,0,0,1-.624,1.154,1.577,1.577,0,0,1-.231.256l-.049.037a3.917,3.917,0,0,1-.612.139,18.707,18.707,0,0,1-1.953.19c-.785.043-1.675.063-2.6.063-1.505,0-3.115-.053-4.572-.141s-2.769-.214-3.638-.349c-.913-.137-1.6-.211-1.994-.32a1.488,1.488,0,0,1-.58-.256,1.842,1.842,0,0,1-.4-.448,8.764,8.764,0,0,1-.9-1.993c-.34-.992-.71-2.329-1.125-4.08a2.714,2.714,0,0,0-2.637-2.09h-2.8a1.82,1.82,0,1,0,0,3.641h2.063a38.544,38.544,0,0,0,1.275,4.332,10.353,10.353,0,0,0,1.211,2.388,5.267,5.267,0,0,0,1.228,1.245,5.486,5.486,0,0,0,2.12.874c.676.139,1.3.2,1.974.306,1.055.162,2.437.29,3.971.384s3.2.147,4.793.147c1.308,0,2.559-.037,3.644-.124.544-.044,1.046-.1,1.508-.177a7.053,7.053,0,0,0,1.3-.324h0a3.947,3.947,0,0,0,1.4-.931,7.454,7.454,0,0,0,1.421-2.173,19.467,19.467,0,0,0,1.127-3.425c.124-.517.221-.983.294-1.355.021-.109.04-.208.057-.3.073-.015.153-.03.237-.039a4.509,4.509,0,0,1,.521-.031l.094,0h.006l.111.007.105-.006c.01,0,.048,0,.109,0a4.123,4.123,0,0,1,.758.071c.048.256.111.582.192.955a22.071,22.071,0,0,0,1.14,3.792,9.119,9.119,0,0,0,1.066,1.924,5.157,5.157,0,0,0,.794.853,3.777,3.777,0,0,0,1.11.661,7,7,0,0,0,1.3.325,22.008,22.008,0,0,0,2.351.233c.87.047,1.82.068,2.8.068,1.59,0,3.261-.055,4.793-.148s2.916-.222,3.971-.383c.8-.126,1.53-.185,2.354-.394a5.141,5.141,0,0,0,1.893-.9,5.488,5.488,0,0,0,1.192-1.3,12.155,12.155,0,0,0,1.319-2.845c.345-1.008.686-2.23,1.049-3.709h2.066a1.82,1.82,0,0,0,0-3.641Zm-29.481,4.031v0h0Z" transform="translate(-151.476 -257.853)" fill="#3e485c"/>
          <path id="パス_3277" data-name="パス 3277" d="M336.961,264.643v0h0Z" transform="translate(-279.844 -262.55)" fill="#3e485c"/>
        </g>
      </g>
    </g>
    <g id="グループ_238" data-name="グループ 238" transform="translate(640 1396.701)">
      <path id="パス_100" data-name="パス 100" d="M24.41,0h0A24.494,24.494,0,0,0,0,24.435V54.694a24.41,24.41,0,1,0,48.819,0V24.435A24.494,24.494,0,0,0,24.41,0Z" transform="matrix(-0.883, 0.469, -0.469, -0.883, 102.065, 101.38)" fill="#2ba7c8"/>
      <path id="パス_101" data-name="パス 101" d="M3.309,0h0A3.321,3.321,0,0,0,0,3.313V14.3a3.309,3.309,0,1,0,6.619,0V3.313A3.321,3.321,0,0,0,3.309,0Z" transform="matrix(-0.883, 0.469, -0.469, -0.883, 60.992, 71.717)" fill="#ffb64b"/>
      <path id="パス_102" data-name="パス 102" d="M4.614,1.306V2.612A2.016,2.016,0,0,0,2.609,4.619V15.61a2.005,2.005,0,0,0,4.01,0V4.619A2.016,2.016,0,0,0,4.614,2.612V0A4.626,4.626,0,0,1,9.228,4.619V15.61A4.614,4.614,0,0,1,0,15.61V4.619A4.626,4.626,0,0,1,4.614,0Z" transform="matrix(-0.883, 0.469, -0.469, -0.883, 58.802, 70.135)" fill="#3e485c"/>
      <path id="パス_103" data-name="パス 103" d="M43.876,74.181a25.644,25.644,0,0,1-16.857,7.527V91.729a3.962,3.962,0,0,0,.433,1.8,5.226,5.226,0,0,0,2.121,2.146,6.973,6.973,0,0,0,3.436.876,9.326,9.326,0,0,1,6,2.1A7.5,7.5,0,0,1,40.9,101a6.579,6.579,0,0,1,.713,2.972v8.573H39v-8.573a3.962,3.962,0,0,0-.433-1.8,5.225,5.225,0,0,0-2.121-2.146,6.972,6.972,0,0,0-3.436-.876,9.326,9.326,0,0,1-6-2.1,7.5,7.5,0,0,1-1.89-2.359,6.579,6.579,0,0,1-.713-2.972V81.708A25.807,25.807,0,0,1,0,56V25.741a25.714,25.714,0,0,1,51.428,0V56A25.68,25.68,0,0,1,43.876,74.181Zm4.943-48.44a23.105,23.105,0,0,0-46.21,0V56a23.1,23.1,0,0,0,46.21,0V25.741Z" transform="matrix(-0.883, 0.469, -0.469, -0.883, 98.247, 99.374)" fill="#3e485c"/>
    </g>
  </g>
</svg>
