<svg xmlns="http://www.w3.org/2000/svg" width="737.622" height="168.157" viewBox="0 0 737.622 168.157">
  <g id="グループ_2596" data-name="グループ 2596" transform="translate(-271.323 -3228.065)">
    <path id="多角形_8" data-name="多角形 8" d="M26.122,0,52.244,71.535H0Z" transform="matrix(0.819, -0.574, 0.574, 0.819, 852.578, 3258.031)" fill="#df7c8f"/>
    <path id="多角形_14" data-name="多角形 14" d="M26.122,0,52.244,71.535H0Z" transform="matrix(0.921, 0.391, -0.391, 0.921, 304.043, 3244.195)" fill="#2ba7c8"/>
    <g id="多角形_11" data-name="多角形 11" transform="matrix(0.819, -0.574, 0.574, 0.819, 843.578, 3258.031)" fill="none">
      <path d="M26.122,0,52.244,71.535H0Z" stroke="none"/>
      <path d="M 26.1221981048584 2.915328979492188 L 1.429752349853516 70.53463745117188 L 50.81464385986328 70.53463745117188 L 26.1221981048584 2.915328979492188 M 26.1221981048584 0 L 52.2443962097168 71.53463745117188 L 0 71.53463745117188 L 26.1221981048584 0 Z" stroke="none" fill="#707070"/>
    </g>
    <g id="多角形_15" data-name="多角形 15" transform="matrix(0.921, 0.391, -0.391, 0.921, 299.273, 3236.563)" fill="none">
      <path d="M26.122,0,52.244,71.535H0Z" stroke="none"/>
      <path d="M 26.1221981048584 2.915328979492188 L 1.429752349853516 70.53463745117188 L 50.81464385986328 70.53463745117188 L 26.1221981048584 2.915328979492188 M 26.1221981048584 0 L 52.2443962097168 71.53463745117188 L 0 71.53463745117188 L 26.1221981048584 0 Z" stroke="none" fill="#707070"/>
    </g>
    <path id="多角形_9" data-name="多角形 9" d="M26.122,0,52.244,39.535H0Z" transform="matrix(-0.07, -0.998, 0.998, -0.07, 969.506, 3297.438)" fill="#ffb64b"/>
    <path id="多角形_17" data-name="多角形 17" d="M26.122,0,52.244,39.535H0Z" transform="translate(332.586 3364.238) rotate(-36)" fill="#e96f45"/>
    <g id="多角形_12" data-name="多角形 12" transform="matrix(-0.07, -0.998, 0.998, -0.07, 963.506, 3291.438)" fill="none">
      <path d="M26.122,0,52.244,39.535H0Z" stroke="none"/>
      <path d="M 26.1221981048584 1.813968658447266 L 1.859306335449219 38.53463745117188 L 50.38508987426758 38.53463745117188 L 26.1221981048584 1.813968658447266 M 26.1221981048584 0 L 52.2443962097168 39.53463745117188 L 0 39.53463745117188 L 26.1221981048584 0 Z" stroke="none" fill="#707070"/>
    </g>
    <g id="多角形_16" data-name="多角形 16" transform="translate(334.496 3355.97) rotate(-36)" fill="none">
      <path d="M26.122,0,52.244,39.535H0Z" stroke="none"/>
      <path d="M 26.1221981048584 1.813968658447266 L 1.859306335449219 38.53463745117188 L 50.38508987426758 38.53463745117188 L 26.1221981048584 1.813968658447266 M 26.1221981048584 0 L 52.2443962097168 39.53463745117188 L 0 39.53463745117188 L 26.1221981048584 0 Z" stroke="none" fill="#707070"/>
    </g>
    <path id="多角形_10" data-name="多角形 10" d="M16.122,0,32.244,26.535H0Z" transform="matrix(0.819, -0.574, 0.574, 0.819, 937.863, 3329.357)" fill="#2ba7c8"/>
    <path id="多角形_18" data-name="多角形 18" d="M16.122,0,32.244,26.535H0Z" transform="matrix(0.921, 0.391, -0.391, 0.921, 288.75, 3354.318)" fill="#20ab9a"/>
    <g id="多角形_13" data-name="多角形 13" transform="matrix(0.819, -0.574, 0.574, 0.819, 932.863, 3329.357)" fill="none">
      <path d="M16.122,0,32.244,26.535H0Z" stroke="none"/>
      <path d="M 16.1221981048584 1.925830841064453 L 1.777706146240234 25.53463935852051 L 30.46669006347656 25.53463935852051 L 16.1221981048584 1.925830841064453 M 16.1221981048584 -1.9073486328125e-06 L 32.2443962097168 26.53463935852051 L 0 26.53463935852051 L 16.1221981048584 -1.9073486328125e-06 Z" stroke="none" fill="#707070"/>
    </g>
    <g id="多角形_19" data-name="多角形 19" transform="matrix(0.921, 0.391, -0.391, 0.921, 286.1, 3350.078)" fill="none">
      <path d="M16.122,0,32.244,26.535H0Z" stroke="none"/>
      <path d="M 16.1221981048584 1.925830841064453 L 1.777706146240234 25.53463935852051 L 30.46669006347656 25.53463935852051 L 16.1221981048584 1.925830841064453 M 16.1221981048584 -1.9073486328125e-06 L 32.2443962097168 26.53463935852051 L 0 26.53463935852051 L 16.1221981048584 -1.9073486328125e-06 Z" stroke="none" fill="#707070"/>
    </g>
  </g>
</svg>
