<svg xmlns="http://www.w3.org/2000/svg" width="157.776" height="120" viewBox="0 0 157.776 120">
  <g id="グループ_190" data-name="グループ 190" transform="translate(-558.13 -1512)">
    <g id="j104_4_1" transform="translate(600 1387.739)">
      <path id="パス_181" data-name="パス 181" d="M88.9,398.337c0,15.832-13.793,19.278-13.793,19.278l0,6.1h-64l.089-4.424a39.209,39.209,0,0,1-6.3-20.957c0-7.031,3.3-19.364,6.3-23.833,0,0,1.107-1.949,2.375-4.016.586-.954,1.205-1.935,1.765-2.761a11.512,11.512,0,0,1,1.5-1.909,21.265,21.265,0,0,1,4.894-3.156,14.522,14.522,0,0,1,5.744-1.491l16.435-12.531,16.995,12.369.224.161a5.81,5.81,0,0,1,1.746.329,18.017,18.017,0,0,1,3.58,1.7C75.133,368.365,88.9,382.716,88.9,398.337Z" transform="translate(1.103 -179.456)" fill="#e96f45"/>
      <path id="パス_182" data-name="パス 182" d="M105.084,366.312s-6.649,1.449-6.85,2.1c-.093.3,4.817,3.354,8.727,8.549a85.8,85.8,0,0,1,8.236,14.371s1.832,1.428,3.138,1.283,3.9-3.529,3.9-3.529L140,364.661l-12.1-1.542-9.564-8.44Z" transform="translate(-78.366 -185.717)" fill="#fff"/>
      <path id="パス_183" data-name="パス 183" d="M100.271,176.128h0v-2.389c0-10.765-11.23-21.042-23.144-21.042s-23.144,10.277-23.144,21.042v2.425a8.091,8.091,0,0,0,.374,16.138c2.04,9.418,12.132,17.612,22.77,17.612s20.723-8.188,22.768-17.6h.376a8.092,8.092,0,1,0,0-16.184Z" transform="translate(-31.761 -19.687)" fill="#ffeae3"/>
      <path id="パス_184" data-name="パス 184" d="M318.23,554.016s6.871,9.407,8.589,9.154,5.748-6.656,1.937-9.154S318.23,554.016,318.23,554.016Z" transform="translate(-248.842 -341.708)" fill="#ffeae3"/>
      <path id="パス_185" data-name="パス 185" d="M123.826,415.846c3.641-.386,10.512-3.821,10.512-3.821a3.307,3.307,0,0,1,0,4.529c-2.03,2.5-3.9,5.31-3.28,6.715s2.066,6.264,2.066,6.264l-9.562,7.835s-14.211-6.916-14.211-8.322,1.575-8.129,1.575-8.129-5.832-3.124-7.3-5.071,1.215-5.108,2.254-5.9,1.436,1.3,6.121,3.484S123.826,415.846,123.826,415.846Z" transform="translate(-77.29 -226.965)" fill="#ffeae3"/>
      <path id="パス_186" data-name="パス 186" d="M140.833,309.581a2.559,2.559,0,0,0,2.552-2.552h0a2.552,2.552,0,1,0-5.1,0h0A2.56,2.56,0,0,0,140.833,309.581Z" transform="translate(-110.313 -145.433)" fill="#3e485c"/>
      <path id="パス_187" data-name="パス 187" d="M228.508,309.581a2.56,2.56,0,0,0,2.552-2.552h0a2.552,2.552,0,0,0-5.1,0h0A2.56,2.56,0,0,0,228.508,309.581Z" transform="translate(-180.256 -145.433)" fill="#3e485c"/>
      <path id="パス_188" data-name="パス 188" d="M184.741,335.477h2.867a.656.656,0,1,0,0-1.311h-1.916a1.2,1.2,0,0,1-1.069-.654l-.172-.336a.31.31,0,0,0-.586.142V334.6A.876.876,0,0,0,184.741,335.477Z" transform="translate(-146.677 -165.784)" fill="#3e485c"/>
      <path id="パス_191" data-name="パス 191" d="M18.636,171.094a14.7,14.7,0,0,1-1.028-5.3,1.372,1.372,0,0,0-2.742,0,16.216,16.216,0,0,0,.109,1.808,6.766,6.766,0,0,1-3.12-1.71,6.4,6.4,0,0,1,0-9.234,6.767,6.767,0,0,1,1.568-1.133V160.1h.252a4.094,4.094,0,0,0,4.153-4.032l7.274-6.989a1.657,1.657,0,0,1,2.811,1.324,2.586,2.586,0,0,0,3.329,2.715,22.07,22.07,0,0,0,9.154-5.092,18.446,18.446,0,0,0,4.378-6.071,1.674,1.674,0,0,1,2.951-.166A34.78,34.78,0,0,0,60.961,154.2v1.866a4.094,4.094,0,0,0,4.154,4.032h.252v-4.573a6.759,6.759,0,0,1,1.567,1.133,6.4,6.4,0,0,1,0,9.234,6.764,6.764,0,0,1-3.116,1.709,16.153,16.153,0,0,0,.106-1.807,1.372,1.372,0,0,0-2.742,0h0a15.331,15.331,0,0,1-1.8,7.01,22.517,22.517,0,0,1-8.161,8.6,22.666,22.666,0,0,1-11.828,3.5,21.8,21.8,0,0,1-8.123-1.622,24.043,24.043,0,0,1-9.765-7.236A19.13,19.13,0,0,1,18.636,171.094ZM40.3,206.184h0Zm5.043-4.06c-1.166.922-2.346,1.858-3.265,2.594-.455.364-.845.679-1.141.922-.282-.127-.649-.305-1.076-.526-1.732-.894-4.366-2.416-6.621-3.8-1.128-.693-2.166-1.355-2.947-1.883-.39-.264-.716-.495-.947-.67-.073-.055-.132-.1-.183-.144a3.269,3.269,0,0,1,.044-.448,12.847,12.847,0,0,1,.295-1.292c.2-.737.455-1.559.668-2.347.106-.395.2-.781.275-1.157a5.988,5.988,0,0,0,.125-1.116,2.906,2.906,0,0,0-.06-.613,2.015,2.015,0,0,0-.3-.711,4.685,4.685,0,0,0-1.091-1.1,16.616,16.616,0,0,0-2.353-1.378c-.621-.317-1.25-.632-1.834-.958a8.732,8.732,0,0,1-2.129-1.538,2.872,2.872,0,0,1-.535-.783,2.047,2.047,0,0,1-.177-.848,3.065,3.065,0,0,1,.164-.945,5.226,5.226,0,0,1,.269-.657c.175-.015.34-.025.487-.025a1.448,1.448,0,0,0,1.047-.445q.979.737,2.029,1.39a25.458,25.458,0,0,0,13.3,3.919,24.618,24.618,0,0,0,9.173-1.825,26.929,26.929,0,0,0,2.711-1.277,3.691,3.691,0,0,1,.069.69,4.018,4.018,0,0,1-.577,2.014,7.444,7.444,0,0,1-1.419,1.723h0a6.175,6.175,0,0,0-2.013,4.542,6.069,6.069,0,0,0,.451,2.294l1.381,3.385C48.306,199.788,46.839,200.943,45.345,202.123Zm38.808,2.006a47.452,47.452,0,0,0-7.592-12.623,62.871,62.871,0,0,0-7.717-7.7,40.424,40.424,0,0,0-4.357-3.232,18.3,18.3,0,0,0-1.858-1.027l-.04-.019c-.049-.022-.1-.048-.145-.07a7.977,7.977,0,0,0-1.956-.633,1.433,1.433,0,0,0-1.66,1.135,1.37,1.37,0,0,0,.132.86,1.419,1.419,0,0,0,.784.684l-9.512,12.93a3.4,3.4,0,0,1-.152-1,3.555,3.555,0,0,1,1.159-2.612,10.079,10.079,0,0,0,1.927-2.36,6.586,6.586,0,0,0,.922-3.306,6.4,6.4,0,0,0-.349-2.075c-.01-.032-.026-.058-.039-.09a26.59,26.59,0,0,0,3.29-2.644,25.114,25.114,0,0,0,2.464-2.676,21.723,21.723,0,0,0,3.267-5.64c.208-.534.386-1.078.543-1.624a9.564,9.564,0,0,0,5.609-2.631,9,9,0,0,0,0-13,9.487,9.487,0,0,0-3.508-2.158v-.381c3.162-.412,6.254-3.5,6.047-4.924-.241-1.64-5.388-2.366-7.443-6.44h-.007c-.184-.521-.382-1.033-.6-1.538a25.027,25.027,0,0,0-9.209-10.846,25.558,25.558,0,0,0-6.643-3.111,25.855,25.855,0,0,0-7.536-1.116H38.814a25.828,25.828,0,0,0-9.864,1.947,25.48,25.48,0,0,0-11.175,8.94,24.336,24.336,0,0,0-3.2,6.449,23.861,23.861,0,0,0-1.15,7.316v3.7a9.5,9.5,0,0,0-3.5,2.158,9,9,0,0,0,0,13,9.544,9.544,0,0,0,5.615,2.631,19.412,19.412,0,0,0,1.419,3.591,23.639,23.639,0,0,0,4.535,6.053c-.31.048-.622.109-.945.182a21.223,21.223,0,0,0-4.318,1.589,29.934,29.934,0,0,0-4.726,2.9,1.368,1.368,0,0,0-.263,1.957,1.425,1.425,0,0,0,.194.2,1.468,1.468,0,0,0,1.821.058,28.191,28.191,0,0,1,2.875-1.883,23.884,23.884,0,0,1,2.717-1.327c.2-.08.389-.153.58-.224a5.143,5.143,0,0,0-.069.831,4.616,4.616,0,0,0,.412,1.928,5.565,5.565,0,0,0,.889,1.359,9.562,9.562,0,0,0,2.114,1.72c1.143.71,2.348,1.269,3.326,1.791a11.715,11.715,0,0,1,1.235.729,2.838,2.838,0,0,1,.5.425,2.764,2.764,0,0,1-.043.412c-.053.336-.161.78-.293,1.266-.2.732-.458,1.557-.672,2.356-.105.4-.2.8-.273,1.18a6.4,6.4,0,0,0-.125,1.145,3.313,3.313,0,0,0,.079.716,2.078,2.078,0,0,0,.4.815,3.106,3.106,0,0,0,.234.249c.145.134.3.259.478.4.336.256.757.553,1.258.889,1.746,1.17,4.43,2.807,6.814,4.169,1.2.684,2.309,1.295,3.2,1.746.448.227.84.412,1.179.553.171.073.329.131.494.185.082.026.168.048.267.07a2.1,2.1,0,0,0,.386.042,1.753,1.753,0,0,0,.428-.058,1.47,1.47,0,0,0,.619-.358l0,0c.01-.01.076-.067.165-.144.362-.3,1.136-.927,2.075-1.675,1.413-1.122,3.208-2.542,4.65-3.677.721-.569,1.354-1.068,1.808-1.423s.725-.569.725-.569l.784-.617-1.074-2.635a1.386,1.386,0,0,0,.6-.464l10.464-14.222c.6.355,1.255.783,1.933,1.273a53.959,53.959,0,0,1,5.431,4.566,55.381,55.381,0,0,1,4.5,4.774,44.76,44.76,0,0,1,7.157,11.882,29.042,29.042,0,0,1,2.111,10.622,24.03,24.03,0,0,1-3.221,12.121,12.046,12.046,0,0,1-4.818,4.777,12.472,12.472,0,0,1-5.856,1.372,16.873,16.873,0,0,1-5.8-1.068,14.624,14.624,0,0,1-4.466-2.545c-.6-.524-1.35-1.225-2.184-2.043-2.925-2.862-6.916-7.146-10.16-10.7-1.62-1.778-3.06-3.376-4.094-4.531-.517-.575-.932-1.039-1.215-1.362-.145-.16-.254-.284-.329-.368l-.112-.128a1.468,1.468,0,0,0-2.026-.15,1.366,1.366,0,0,0-.155,1.966s.7.79,1.831,2.056L20.7,218.661a1.331,1.331,0,0,0,.039-.38l-.306-5.055a1.437,1.437,0,0,0-2.869.163l.306,5.055a1.359,1.359,0,0,0,.231.671l-.771.134a1.4,1.4,0,0,0-1.163,1.618,1.434,1.434,0,0,0,1.67,1.125l25.34-4.406c.965,1.065,2.045,2.251,3.181,3.488,1.966,2.136,4.091,4.412,6.05,6.44.524.54,1.034,1.058,1.525,1.557-1.238.3-7.845,1.864-15.773,3.383-4.14.793-8.639,1.576-12.91,2.155a90.381,90.381,0,0,1-11.521.959,22.409,22.409,0,0,1-4.255-.329,6.5,6.5,0,0,1-1.3-.387c-.066-.029-.122-.058-.178-.086a1.405,1.405,0,0,0-.725-.649,16.686,16.686,0,0,1-3.317-6.369,31.188,31.188,0,0,1-1.087-8.591A62.4,62.4,0,0,1,5.6,202a59.392,59.392,0,0,1,2.388-6.647c.4-.908.777-1.7,1.13-2.34a10.631,10.631,0,0,1,.909-1.436,1.371,1.371,0,0,0-.264-1.957.929.929,0,0,0-.1-.067,1.462,1.462,0,0,0-1.913.323,13,13,0,0,0-1.169,1.832,40.67,40.67,0,0,0-2.19,4.911,72.369,72.369,0,0,0-3.023,10.42A59.486,59.486,0,0,0,0,219.157,33.745,33.745,0,0,0,1.192,228.5a19.315,19.315,0,0,0,4.1,7.661v5.1H8.168v-3.466a14.251,14.251,0,0,0,1.8.352,29.364,29.364,0,0,0,3.761.214,95.076,95.076,0,0,0,12.338-1.046c6.752-.934,13.935-2.331,19.442-3.492s9.327-2.094,9.337-2.1a1.41,1.41,0,0,0,.965-.8c.616.592,1.182,1.116,1.686,1.554a17.557,17.557,0,0,0,5.359,3.073,19.873,19.873,0,0,0,6.821,1.253c.03,0,.059,0,.089,0v4.46h2.872v-4.723a14.573,14.573,0,0,0,4.265-1.445,14.874,14.874,0,0,0,5.951-5.864,26.767,26.767,0,0,0,3.59-13.487A31.808,31.808,0,0,0,84.153,204.129Z" transform="translate(0 0)" fill="#3e485c"/>
      <path id="パス_192" data-name="パス 192" d="M281.815,528.044a1.436,1.436,0,0,0,2.018.224,8.508,8.508,0,0,0,1.322-1.424,14.019,14.019,0,0,0,2.134-4.128h0a4.749,4.749,0,0,0,.24-1.482,4.835,4.835,0,0,0-.674-2.44,6.707,6.707,0,0,0-3.049-2.636,11.525,11.525,0,0,0-4.842-.966,18.518,18.518,0,0,0-4.719.656,1.428,1.428,0,0,0-.95.83l-8.529-8.5a1.436,1.436,0,1,0-2.028,2.033L278.878,526.3a1.436,1.436,0,1,0,2.028-2.033l-5.711-5.7a15.519,15.519,0,0,1,3.77-.507,7.716,7.716,0,0,1,4.432,1.155,3.305,3.305,0,0,1,.977,1.02,1.96,1.96,0,0,1,.284,1,1.867,1.867,0,0,1-.1.586,11.156,11.156,0,0,1-1.69,3.284,7.459,7.459,0,0,1-.641.742c-.076.076-.133.129-.167.159l-.032.028,0,0h0A1.435,1.435,0,0,0,281.815,528.044Z" transform="translate(-209.233 -308.571)" fill="#3e485c"/>
      <ellipse id="楕円形_42" data-name="楕円形 42" cx="3.5" cy="2" rx="3.5" ry="2" transform="translate(36 174.261)" fill="#3e485c"/>
    </g>
    <path id="パス_357" data-name="パス 357" d="M390.872,18.114h0a10.254,10.254,0,0,0-.739-3.811,11.4,11.4,0,0,0-3.362-4.55,12.479,12.479,0,0,0-5.252-2.541c-.407-.09-.815-.159-1.219-.21a12.643,12.643,0,0,0-6.791,1.009,11.264,11.264,0,0,0-4.976,4.337,3.161,3.161,0,1,0,5.391,3.3h0a4.95,4.95,0,0,1,2.2-1.881,6.328,6.328,0,0,1,3.4-.491q.318.04.641.11a6.039,6.039,0,0,1,3.236,1.867,4.83,4.83,0,0,1,.867,1.393,3.92,3.92,0,0,1,.288,1.461,4.12,4.12,0,0,1-.031.505A3.912,3.912,0,0,1,384.075,20a4.671,4.671,0,0,1-1.6,1.685,5.939,5.939,0,0,1-2.532.888,6.344,6.344,0,0,0-3.538,1.582,5.877,5.877,0,0,0-1.233,1.572,5.685,5.685,0,0,0-.632,1.985l-.184,1.486a3.161,3.161,0,1,0,6.273.779l.141-1.138a12.047,12.047,0,0,0,6.584-2.95,10.768,10.768,0,0,0,2.279-2.883,10.246,10.246,0,0,0,1.156-3.614A10.429,10.429,0,0,0,390.872,18.114Z" transform="translate(329.799 1457.142) rotate(8)" fill="#df7c8f"/>
    <path id="パス_389" data-name="パス 389" d="M390.872,18.114h0a10.254,10.254,0,0,0-.739-3.811,11.4,11.4,0,0,0-3.362-4.55,12.479,12.479,0,0,0-5.252-2.541c-.407-.09-.815-.159-1.219-.21a12.643,12.643,0,0,0-6.791,1.009,11.264,11.264,0,0,0-4.976,4.337,3.161,3.161,0,1,0,5.391,3.3h0a4.95,4.95,0,0,1,2.2-1.881,6.328,6.328,0,0,1,3.4-.491q.318.04.641.11a6.039,6.039,0,0,1,3.236,1.867,4.83,4.83,0,0,1,.867,1.393,3.92,3.92,0,0,1,.288,1.461,4.12,4.12,0,0,1-.031.505A3.912,3.912,0,0,1,384.075,20a4.671,4.671,0,0,1-1.6,1.685,5.939,5.939,0,0,1-2.532.888,6.344,6.344,0,0,0-3.538,1.582,5.877,5.877,0,0,0-1.233,1.572,5.685,5.685,0,0,0-.632,1.985l-.184,1.486a3.161,3.161,0,1,0,6.273.779l.141-1.138a12.047,12.047,0,0,0,6.584-2.95,10.768,10.768,0,0,0,2.279-2.883,10.246,10.246,0,0,0,1.156-3.614A10.429,10.429,0,0,0,390.872,18.114Z" transform="translate(243.539 1736.023) rotate(-31)" fill="#df7c8f"/>
    <path id="パス_358" data-name="パス 358" d="M400.839,194.241a3.748,3.748,0,1,0,3.256,4.182A3.746,3.746,0,0,0,400.839,194.241Z" transform="translate(327.92 1296.867) rotate(8)" fill="#df7c8f"/>
    <path id="パス_390" data-name="パス 390" d="M400.839,194.241a3.748,3.748,0,1,0,3.256,4.182A3.746,3.746,0,0,0,400.839,194.241Z" transform="translate(141.217 1612.649) rotate(-31)" fill="#df7c8f"/>
    <path id="パス_365" data-name="パス 365" d="M385.285,8.069a12.464,12.464,0,0,0-3.673-4.976h0a13.541,13.541,0,0,0-5.7-2.758c-.44-.1-.879-.172-1.316-.226A14.1,14.1,0,0,0,372.854,0a13.578,13.578,0,0,0-5.62,1.2,12.325,12.325,0,0,0-5.442,4.749,4.223,4.223,0,1,0,7.2,4.414l0-.006A3.9,3.9,0,0,1,370.726,8.9a5.146,5.146,0,0,1,2.128-.448,5.634,5.634,0,0,1,.7.044h0c.179.022.36.053.543.093h0a4.98,4.98,0,0,1,2.664,1.53h0a3.769,3.769,0,0,1,.677,1.083,2.858,2.858,0,0,1,.213,1.067,3.037,3.037,0,0,1-.023.374,2.836,2.836,0,0,1-.325,1.013,3.61,3.61,0,0,1-1.238,1.3,4.881,4.881,0,0,1-2.078.726h0a7.4,7.4,0,0,0-4.128,1.85h0a6.933,6.933,0,0,0-1.455,1.857h0a6.747,6.747,0,0,0-.751,2.358l-.184,1.486a4.223,4.223,0,1,0,8.381,1.042l.043-.344a13.025,13.025,0,0,0,6.338-3.084h0a11.828,11.828,0,0,0,2.5-3.168h0a11.3,11.3,0,0,0,1.276-3.99h0a11.519,11.519,0,0,0,.088-1.41v-.058l0-.018A11.327,11.327,0,0,0,385.285,8.069Zm-1.38,5.356a9.179,9.179,0,0,1-1.036,3.239h0a9.707,9.707,0,0,1-2.055,2.6h0a10.986,10.986,0,0,1-6.005,2.686l-.821.1-.243,1.96a2.1,2.1,0,0,1-2.078,1.841,2.115,2.115,0,0,1-.263-.016,2.1,2.1,0,0,1-1.84-2.08,2.143,2.143,0,0,1,.017-.262l.185-1.486a4.619,4.619,0,0,1,.513-1.613h0a4.808,4.808,0,0,1,1.01-1.287,5.28,5.28,0,0,1,2.947-1.315h0a7,7,0,0,0,2.987-1.051,5.732,5.732,0,0,0,1.956-2.073h0a4.977,4.977,0,0,0,.563-1.758h0a5.19,5.19,0,0,0,.039-.635h0a4.991,4.991,0,0,0-.364-1.854h0a5.887,5.887,0,0,0-1.056-1.7,7.1,7.1,0,0,0-3.805-2.2q-.372-.082-.737-.127h0a7.744,7.744,0,0,0-.963-.06,7.268,7.268,0,0,0-3.006.638,6.007,6.007,0,0,0-2.666,2.295h0A2.086,2.086,0,0,1,366.4,10a2.113,2.113,0,0,1-1.014.26,2.1,2.1,0,0,1-1.836-1.088,2.119,2.119,0,0,1-.259-1.015,2.085,2.085,0,0,1,.309-1.094,10.2,10.2,0,0,1,4.51-3.924,11.455,11.455,0,0,1,4.741-1.014,12.008,12.008,0,0,1,1.48.092c.372.046.747.11,1.122.193a11.417,11.417,0,0,1,4.806,2.324h0a10.334,10.334,0,0,1,3.051,4.124,9.2,9.2,0,0,1,.663,3.409v.01a9.335,9.335,0,0,1-.071,1.146Z" transform="translate(331.764 1461.735) rotate(8)" fill="#3e485c"/>
    <path id="パス_388" data-name="パス 388" d="M385.285,8.069a12.464,12.464,0,0,0-3.673-4.976h0a13.541,13.541,0,0,0-5.7-2.758c-.44-.1-.879-.172-1.316-.226A14.1,14.1,0,0,0,372.854,0a13.578,13.578,0,0,0-5.62,1.2,12.325,12.325,0,0,0-5.442,4.749,4.223,4.223,0,1,0,7.2,4.414l0-.006A3.9,3.9,0,0,1,370.726,8.9a5.146,5.146,0,0,1,2.128-.448,5.634,5.634,0,0,1,.7.044h0c.179.022.36.053.543.093h0a4.98,4.98,0,0,1,2.664,1.53h0a3.769,3.769,0,0,1,.677,1.083,2.858,2.858,0,0,1,.213,1.067,3.037,3.037,0,0,1-.023.374,2.836,2.836,0,0,1-.325,1.013,3.61,3.61,0,0,1-1.238,1.3,4.881,4.881,0,0,1-2.078.726h0a7.4,7.4,0,0,0-4.128,1.85h0a6.933,6.933,0,0,0-1.455,1.857h0a6.747,6.747,0,0,0-.751,2.358l-.184,1.486a4.223,4.223,0,1,0,8.381,1.042l.043-.344a13.025,13.025,0,0,0,6.338-3.084h0a11.828,11.828,0,0,0,2.5-3.168h0a11.3,11.3,0,0,0,1.276-3.99h0a11.519,11.519,0,0,0,.088-1.41v-.058l0-.018A11.327,11.327,0,0,0,385.285,8.069Zm-1.38,5.356a9.179,9.179,0,0,1-1.036,3.239h0a9.707,9.707,0,0,1-2.055,2.6h0a10.986,10.986,0,0,1-6.005,2.686l-.821.1-.243,1.96a2.1,2.1,0,0,1-2.078,1.841,2.115,2.115,0,0,1-.263-.016,2.1,2.1,0,0,1-1.84-2.08,2.143,2.143,0,0,1,.017-.262l.185-1.486a4.619,4.619,0,0,1,.513-1.613h0a4.808,4.808,0,0,1,1.01-1.287,5.28,5.28,0,0,1,2.947-1.315h0a7,7,0,0,0,2.987-1.051,5.732,5.732,0,0,0,1.956-2.073h0a4.977,4.977,0,0,0,.563-1.758h0a5.19,5.19,0,0,0,.039-.635h0a4.991,4.991,0,0,0-.364-1.854h0a5.887,5.887,0,0,0-1.056-1.7,7.1,7.1,0,0,0-3.805-2.2q-.372-.082-.737-.127h0a7.744,7.744,0,0,0-.963-.06,7.268,7.268,0,0,0-3.006.638,6.007,6.007,0,0,0-2.666,2.295h0A2.086,2.086,0,0,1,366.4,10a2.113,2.113,0,0,1-1.014.26,2.1,2.1,0,0,1-1.836-1.088,2.119,2.119,0,0,1-.259-1.015,2.085,2.085,0,0,1,.309-1.094,10.2,10.2,0,0,1,4.51-3.924,11.455,11.455,0,0,1,4.741-1.014,12.008,12.008,0,0,1,1.48.092c.372.046.747.11,1.122.193a11.417,11.417,0,0,1,4.806,2.324h0a10.334,10.334,0,0,1,3.051,4.124,9.2,9.2,0,0,1,.663,3.409v.01a9.335,9.335,0,0,1-.071,1.146Z" transform="translate(248.547 1736.022) rotate(-31)" fill="#3e485c"/>
    <path id="パス_366" data-name="パス 366" d="M395.136,187.349h0a4.812,4.812,0,1,0,3.02,1.6A4.831,4.831,0,0,0,395.136,187.349Zm2.071,5.106a2.686,2.686,0,0,1-2.659,2.355,2.739,2.739,0,0,1-.335-.021,2.686,2.686,0,0,1-2.353-2.661,2.718,2.718,0,0,1,.021-.335h0a2.685,2.685,0,0,1,2.658-2.355,2.721,2.721,0,0,1,.335.021L395,188.4l-.131,1.055a2.686,2.686,0,0,1,2.332,3Z" transform="translate(329.885 1301.459) rotate(8)" fill="#3e485c"/>
    <path id="パス_391" data-name="パス 391" d="M395.136,187.349h0a4.812,4.812,0,1,0,3.02,1.6A4.831,4.831,0,0,0,395.136,187.349Zm2.071,5.106a2.686,2.686,0,0,1-2.659,2.355,2.739,2.739,0,0,1-.335-.021,2.686,2.686,0,0,1-2.353-2.661,2.718,2.718,0,0,1,.021-.335h0a2.685,2.685,0,0,1,2.658-2.355,2.721,2.721,0,0,1,.335.021L395,188.4l-.131,1.055a2.686,2.686,0,0,1,2.332,3Z" transform="translate(146.225 1612.647) rotate(-31)" fill="#3e485c"/>
  </g>
</svg>
