<svg id="j145_8_1" xmlns="http://www.w3.org/2000/svg" width="169.48" height="193.433" viewBox="0 0 169.48 193.433">
  <path id="パス_1515" data-name="パス 1515" d="M74.872,179.944l.784-3.764c-7.126-10.621-24.222-48.339-28.715-83.745l16.77-2.269c2.794,28.549,19.488,71.659,30.33,71.648h44.035c10.843.011,27.536-43.1,30.33-71.648l16.771,2.269c-4.492,35.406-20.667,73.124-27.794,83.745l.932,3.139Z" transform="translate(-28.42 -60.272)" fill="#20ab9a"/>
  <path id="パス_1516" data-name="パス 1516" d="M221.223,341.216v10.807H133.456V341.216a24.1,24.1,0,0,1,5.692-15.611s6.088-5.533,7.6-6.586a24.729,24.729,0,0,1,5.45-2.857,19.247,19.247,0,0,1,6.4-1.352l18.742-1.941,18.739,1.941C202.938,314.81,221.223,323.478,221.223,341.216Z" transform="translate(-92.169 -216.077)" fill="#20ab9a"/>
  <path id="パス_1539" data-name="パス 1539" d="M0,51.785Z" transform="translate(156.387 127.026)" fill="#fff"/>
  <path id="パス_1517" data-name="パス 1517" d="M206.34,308.1s-8.252,1.8-8.5,2.6,21.052,28.433,21.052,28.433,2.274,1.771,3.895,1.591,3.8-2.943,3.8-2.943l19.15-26.318L234.09,306.3l-11.3-.236Z" transform="translate(-136.632 -211.377)" fill="#fff"/>
  <path id="パス_1518" data-name="パス 1518" d="M97.4,453.938V389.749c0-5.115,3.451-9.261,7.707-9.261h93.408c4.257,0,7.707,4.146,7.707,9.261v64.189H97.4Z" transform="translate(-63.267 -260.776)" fill="#e4f1fa"/>
  <path id="パス_1519" data-name="パス 1519" d="M454.828,16.928,453.054,9.38A4.374,4.374,0,0,0,449.2,6.027l-10.648-.992a4.373,4.373,0,0,0-3.312,1.085l-2.3,2.04a4.5,4.5,0,0,0-.814,5.771l1.18,1.864v0a4.5,4.5,0,0,0-.353,6.252l3.7,4.276-.731,5.033,1.3-3.962,1.61,4.771,9.815.81,1.3-.81V27.932l4.424-7.861A4.369,4.369,0,0,0,454.828,16.928Z" transform="translate(-293.962 -1.464)" fill="#ffeae3"/>
  <path id="パス_1520" data-name="パス 1520" d="M56.1,13.932a4.5,4.5,0,0,0-.814-5.771l-2.3-2.04a4.373,4.373,0,0,0-3.312-1.085L39.03,6.029a4.375,4.375,0,0,0-3.852,3.353L33.4,16.929a4.368,4.368,0,0,0,.446,3.143l4.424,8.3v4.235l1.452.677,8.581-1.116,2.351-5.821L52.3,31.36l-.731-5.033,3.7-4.276a4.5,4.5,0,0,0-.353-6.252v0Z" transform="translate(-18.99 -1.465)" fill="#ffeae3"/>
  <path id="パス_1521" data-name="パス 1521" d="M224.916,167.465h0v-2.583c0-11.638-12.146-22.748-25.033-22.748s-25.032,11.11-25.032,22.748V167.5a8.746,8.746,0,0,0,.4,17.447c2.206,10.181,13.121,19.04,24.627,19.04s22.414-8.852,24.625-19.029h.407a8.748,8.748,0,1,0,0-17.5Z" transform="translate(-111.272 -96.162)" fill="#ffeae3"/>
  <path id="パス_1522" data-name="パス 1522" d="M173.371,46.619,172.58,44.4a13.784,13.784,0,0,0-6.456-7.756l-1.846-.951,1.846-.951a13.786,13.786,0,0,0,6.456-7.756l.791-2.218.791,2.218a13.784,13.784,0,0,0,6.456,7.756l1.846.951-1.846.951a13.784,13.784,0,0,0-6.456,7.756Z" transform="translate(-109.455 -15.106)" fill="#ffb64b"/>
  <path id="パス_1523" data-name="パス 1523" d="M12.987,354.731l-.791-2.218a13.784,13.784,0,0,0-6.456-7.756l-1.846-.951,1.846-.951A13.785,13.785,0,0,0,12.2,335.1l.791-2.218.791,2.218a13.784,13.784,0,0,0,6.456,7.756l1.846.951-1.846.951a13.784,13.784,0,0,0-6.456,7.756Z" transform="translate(1.311 -227.898)" fill="#ffb64b"/>
  <path id="パス_1524" data-name="パス 1524" d="M485.2,306.368l-.791-2.218a13.783,13.783,0,0,0-6.456-7.756l-1.846-.951,1.846-.951a13.787,13.787,0,0,0,6.456-7.756l.791-2.218.791,2.218a13.783,13.783,0,0,0,6.456,7.756l1.846.951-1.846.951a13.785,13.785,0,0,0-6.456,7.756Z" transform="translate(-324.814 -194.497)" fill="#ffb64b"/>
  <path id="パス_1528" data-name="パス 1528" d="M174.274,190.329H163.356c-45.042,0,11.128,0,11.128,0H160.03V125.415a9.258,9.258,0,0,0-9.26-9.256h-4l-.595-2c.829-1.29,1.744-2.867,2.732-4.712,2.012-3.759,4.32-8.622,6.72-14.3,7.194-17.023,15.211-41.344,18.189-64.79l.193-1.527-.943-.127h0V24.875l4.225-7.507h0a5.925,5.925,0,0,0,.6-4.258l-1.775-7.548a5.926,5.926,0,0,0-5.219-4.543L160.258.025c-.184-.017-.368-.025-.55-.025a5.927,5.927,0,0,0-3.937,1.5l-2.3,2.04a6.049,6.049,0,0,0-1.094,7.761l.568.9a6,6,0,0,0-.583,1.041,6.054,6.054,0,0,0,.979,6.367l3.238,3.74-.446,3.073-2.017-.273-.157,1.6a149.669,149.669,0,0,1-4.349,22.992,176.069,176.069,0,0,1-11.233,31.04,10.23,10.23,0,0,0-6.242-12.927v-.426c3.418-.456,6.76-3.89,6.535-5.479-.259-1.824-5.823-2.634-8.044-7.167h-.006c-.2-.578-.414-1.149-.651-1.709a27.633,27.633,0,0,0-17.136-15.535,27.248,27.248,0,0,0-8.143-1.24h-1.254a27.225,27.225,0,0,0-10.664,2.166A27.7,27.7,0,0,0,80.7,49.41a27.238,27.238,0,0,0-4.705,15.317v4.123a10.228,10.228,0,0,0,2.279,19.793,22.069,22.069,0,0,0,1.536,3.995,27.714,27.714,0,0,0,9.878,10.741,26.949,26.949,0,0,0,14.381,4.362,25.941,25.941,0,0,0,9.916-2.031,29.175,29.175,0,0,0,9.721-6.621,1.531,1.531,0,0,0,1.477,2.007h0a6.667,6.667,0,0,0,2.734-.627,14.915,14.915,0,0,0,4.718-3.725,57.758,57.758,0,0,0,7.926-12.36,168.942,168.942,0,0,0,10.493-27.251,166.02,166.02,0,0,0,5.835-27.484l13.646,1.846c-2.322,17.068-7.311,34.646-12.62,49.309-2.733,7.55-5.548,14.329-8.116,19.867-1.284,2.769-2.506,5.226-3.622,7.312s-2.127,3.8-2.976,5.063l-.407.606.745,2.51H119.463l8.847-11.949a1.553,1.553,0,0,0-2.5-1.847L115.6,116.16h-6.488v-4.506H99.02v4.506H92.531l-10.215-13.8a1.553,1.553,0,0,0-2.5,1.847l8.847,11.949H63.876l.536-2.574-.364-.542c-.853-1.271-1.881-2.989-3.023-5.076A236.431,236.431,0,0,1,46.752,74.983a226.969,226.969,0,0,1-10.96-43.49L49.44,29.647a156.738,156.738,0,0,0,4.266,21.881A174.221,174.221,0,0,0,66.136,85.109,57.66,57.66,0,0,0,73.387,96.4a18.177,18.177,0,0,0,3.728,3.361,9.15,9.15,0,0,0,1.961.973,6.338,6.338,0,0,0,2.068.363,1.552,1.552,0,1,0,0-3.1h0a3.582,3.582,0,0,1-1.461-.355A11.988,11.988,0,0,1,76,94.662,54.918,54.918,0,0,1,68.54,82.985,165.909,165.909,0,0,1,58.252,56.252,159.182,159.182,0,0,1,52.36,27.744l-.157-1.6-2.017.273-.446-3.072,3.238-3.74a6.028,6.028,0,0,0,.4-7.407l.568-.9a6.05,6.05,0,0,0-1.094-7.761l-2.3-2.04A5.929,5.929,0,0,0,46.615,0q-.274,0-.552.026l-10.646.992A5.926,5.926,0,0,0,30.2,5.561l-1.775,7.547a5.916,5.916,0,0,0,.6,4.26l4.224,7.506V28.7h0l-.943.128.194,1.527c2.27,17.877,7.7,36.251,13.457,51.519,2.879,7.633,5.841,14.488,8.536,20.114,1.348,2.813,2.63,5.32,3.8,7.466,1.025,1.873,1.966,3.47,2.806,4.766l-.4,1.936H57.362a9.258,9.258,0,0,0-9.26,9.256v64.913H35.414a1.552,1.552,0,1,0,0,3.1h138.86a1.552,1.552,0,1,0,0-3.1Zm-57.423-89.448a23.99,23.99,0,0,1-12.786,3.9,22.976,22.976,0,0,1-8.78-1.8A26.061,26.061,0,0,1,84.73,94.919a21.439,21.439,0,0,1-3.1-5.508,16.788,16.788,0,0,1-1.111-5.9,1.482,1.482,0,0,0-2.964,0,18.551,18.551,0,0,0,.118,2.012,7.262,7.262,0,0,1-1.677-13.44v5.089h.273a4.488,4.488,0,0,0,4.489-4.487l7.863-7.778a1.79,1.79,0,0,1,3.038,1.473,2.82,2.82,0,0,0,3.6,3.022,23.661,23.661,0,0,0,9.9-5.666,20.539,20.539,0,0,0,4.733-6.756,1.785,1.785,0,0,1,3.189-.184,38.056,38.056,0,0,0,14.307,13.814v2.076a4.488,4.488,0,0,0,4.489,4.487h.273V72.082a7.325,7.325,0,0,1,1.694,1.261,7.255,7.255,0,0,1-3.368,12.178,18.533,18.533,0,0,0,.114-2.011,1.482,1.482,0,0,0-2.964,0h0a17.463,17.463,0,0,1-1.943,7.8A24.763,24.763,0,0,1,116.851,100.881ZM130.6,94.356a15.2,15.2,0,0,1-3.07,2.793,6.079,6.079,0,0,1-1.293.648,3.242,3.242,0,0,1-1.055.193,1.546,1.546,0,0,0-.562.109q.59-.671,1.133-1.374a24.378,24.378,0,0,0,3.53-6.274q.336-.893.587-1.81a10.209,10.209,0,0,0,7.234-4.33A53.211,53.211,0,0,1,130.6,94.356Zm25.1-76.786a2.944,2.944,0,0,1,.243-4.109l2.782-2.533,5.928.911a1.388,1.388,0,0,1,1.177,1.368,1.468,1.468,0,0,1-.012.182,1.388,1.388,0,0,1-1.374,1.21,1.443,1.443,0,0,1-.149-.008l-2.691-.283a1.552,1.552,0,1,0-.325,3.087l1.1.116a6.819,6.819,0,0,1,.744.743,5.224,5.224,0,0,1,.8,1.227,3.518,3.518,0,0,1,.328,1.461,3.584,3.584,0,0,1-.176,1.094,1.282,1.282,0,0,0,2.443.776h0a6.011,6.011,0,0,0-.307-4.49,7.411,7.411,0,0,0-.455-.817,4.482,4.482,0,0,0,3.144-3.722v-.006a4.6,4.6,0,0,0,.036-.57A4.494,4.494,0,0,0,165.12,8.77l-7.4-1.137-2.53,2.3-.19-.3a2.946,2.946,0,0,1,.533-3.781l2.3-2.04a2.821,2.821,0,0,1,1.874-.712c.088,0,.174,0,.261.012l10.649.992A2.82,2.82,0,0,1,173.1,6.271l1.775,7.548a2.821,2.821,0,0,1-.288,2.028h0l-4.624,8.216v4.223l-10.75-1.454.645-4.448Zm10.119-4.177h0l-.006.045ZM36.358,24.062l-4.624-8.216a2.815,2.815,0,0,1-.288-2.027l1.775-7.548a2.82,2.82,0,0,1,2.484-2.162l10.648-.992h0c.085-.008.172-.012.26-.012a2.822,2.822,0,0,1,1.874.712l2.3,2.04a2.948,2.948,0,0,1,.533,3.781l-.19.3-2.53-2.3L41.2,8.77a4.489,4.489,0,0,0-.626,8.735,7.228,7.228,0,0,0-.459.815,6.008,6.008,0,0,0-.307,4.491,1.282,1.282,0,0,0,2.443-.776h0a3.447,3.447,0,0,1,.182-2.62,5.867,5.867,0,0,1,1.333-1.747c.061-.056.119-.108.176-.157l1.1-.116a1.552,1.552,0,1,0-.325-3.087l-2.69.283a1.425,1.425,0,0,1-.151.008,1.389,1.389,0,0,1-1.374-1.211v-.007a1.281,1.281,0,0,1-.011-.173,1.389,1.389,0,0,1,1.178-1.369l5.928-.911,2.782,2.533a2.948,2.948,0,0,1,.244,4.11l-4.167,4.813.646,4.447-10.75,1.454Zm16.651,97a6.131,6.131,0,0,1,4.352-1.8h93.408a6.153,6.153,0,0,1,6.154,6.152v56.713H51.207V125.415A6.123,6.123,0,0,1,53.009,121.066Zm-1.8,64.168H156.924v5.1H51.207Z" transform="translate(-19.521)" fill="#3e485c"/>
  <path id="パス_1529" data-name="パス 1529" d="M57.884,44.557v0Z" transform="translate(-39.976 -30.768)" fill="#231815"/>
  <path id="パス_1530" data-name="パス 1530" d="M85.794.083Z" transform="translate(-59.252 -0.057)" fill="#231815"/>
  <path id="パス_1531" data-name="パス 1531" d="M161.036,34.075l1.846.951a12.587,12.587,0,0,1,5.873,7.09l.791,2.218a1.2,1.2,0,0,0,2.269,0l.791-2.218a12.586,12.586,0,0,1,5.873-7.09l1.846-.951a1.2,1.2,0,0,0,0-2.141l-1.846-.951a12.587,12.587,0,0,1-5.873-7.09l-.791-2.218a1.2,1.2,0,0,0-2.269,0l-.791,2.218a12.587,12.587,0,0,1-5.873,7.09l-1.846.951a1.2,1.2,0,0,0,0,2.141Zm9.645-8.495A14.823,14.823,0,0,0,177.159,33a14.823,14.823,0,0,0-6.478,7.425A14.822,14.822,0,0,0,164.2,33,14.825,14.825,0,0,0,170.681,25.58Z" transform="translate(-110.765 -14.417)" fill="#3e485c"/>
  <path id="パス_1532" data-name="パス 1532" d="M18.1,343.139l1.846-.951a1.2,1.2,0,0,0,0-2.141L18.1,339.1a12.587,12.587,0,0,1-5.873-7.09l-.791-2.218a1.2,1.2,0,0,0-2.269,0l-.791,2.218A12.588,12.588,0,0,1,2.5,339.1l-1.846.951a1.2,1.2,0,0,0,0,2.141l1.846.951a12.588,12.588,0,0,1,5.873,7.09l.791,2.218a1.2,1.2,0,0,0,2.269,0l.791-2.218A12.588,12.588,0,0,1,18.1,343.139Zm-7.8,5.4a14.825,14.825,0,0,0-6.478-7.425,14.824,14.824,0,0,0,6.478-7.425,14.825,14.825,0,0,0,6.478,7.425A14.824,14.824,0,0,0,10.3,348.543Z" transform="translate(0 -227.21)" fill="#3e485c"/>
  <path id="パス_1533" data-name="パス 1533" d="M490.309,290.733a12.587,12.587,0,0,1-5.873-7.09l-.791-2.218a1.2,1.2,0,0,0-2.269,0l-.791,2.218a12.587,12.587,0,0,1-5.873,7.09l-1.846.95a1.2,1.2,0,0,0,0,2.141l1.846.951a12.588,12.588,0,0,1,5.873,7.09l.791,2.218a1.2,1.2,0,0,0,2.269,0l.791-2.218a12.586,12.586,0,0,1,5.873-7.09l1.846-.951a1.2,1.2,0,0,0,0-2.141Zm-7.8,9.445a14.825,14.825,0,0,0-6.478-7.425,14.827,14.827,0,0,0,6.478-7.425,14.826,14.826,0,0,0,6.478,7.425A14.822,14.822,0,0,0,482.51,300.179Z" transform="translate(-326.124 -193.808)" fill="#3e485c"/>
  <path id="パス_1535" data-name="パス 1535" d="M266.536,270.685h3.1a.709.709,0,1,0,0-1.418h-2.073a1.3,1.3,0,0,1-1.156-.707l-.186-.363a.335.335,0,0,0-.634.153v1.387A.948.948,0,0,0,266.536,270.685Z" transform="translate(-183.423 -185.099)" fill="#3e485c"/>
  <path id="パス_1536" data-name="パス 1536" d="M238.624,239.7a1,1,0,0,0-.52-.929l-4.845-2.625a1,1,0,1,0-.95,1.752h0l3,1.626-2.906,1.2a1,1,0,1,0,.76,1.842l4.845-2A1,1,0,0,0,238.624,239.7Z" transform="translate(-160.079 -163.003)" fill="#3e485c"/>
  <path id="パス_1537" data-name="パス 1537" d="M298.885,240.717h0l-2.907-1.2,3-1.626a1,1,0,1,0-.95-1.752l-4.845,2.625a1,1,0,0,0,.1,1.8l4.845,2a1,1,0,1,0,.76-1.842Z" transform="translate(-202.122 -163.003)" fill="#3e485c"/>
  <path id="パス_1538" data-name="パス 1538" d="M264.08,291.481a14.739,14.739,0,0,1-10.176,0,.891.891,0,0,0-1.239,1.131,6.312,6.312,0,0,0,6.327,4.333,6.824,6.824,0,0,0,6.327-4.333A.891.891,0,0,0,264.08,291.481Z" transform="translate(-174.448 -201.234)" fill="#3e485c"/>
</svg>
