<svg xmlns="http://www.w3.org/2000/svg" width="152" height="120" viewBox="0 0 152 120">
  <g id="グループ_2571" data-name="グループ 2571" transform="translate(-556.998 -2242.521)">
    <g id="グループ_2522" data-name="グループ 2522" transform="translate(556.998 2263.424)">
      <path id="前面オブジェクトで型抜き_7" data-name="前面オブジェクトで型抜き 7" d="M99.9,77.55H44.01l1.247-4.273a27.5,27.5,0,0,0,.648-9.643L43.762,44.022l-.4-2.611L11.991,55.145a7.8,7.8,0,0,1-3.139.665A7.915,7.915,0,0,1,3.4,53.584a7.742,7.742,0,0,1-2.362-5.605L0,19.867A22.123,22.123,0,0,1,5.228,5.59L7.906,2.432a6.862,6.862,0,0,1,9.248-1.14l3.567,2.565a4.345,4.345,0,0,1,1.6,4.832l-.45,1.434.316.669a6.141,6.141,0,0,1-1.711,7.439l-4.138,3.31a1.278,1.278,0,0,1-.657.282,8.212,8.212,0,0,1-3.385.95l.016,1.089,1.351,11.787a.741.741,0,0,0,.737.661.748.748,0,0,0,.353-.089L32.844,25.968c6.78-4.252,12.563-6.625,17.683-7.254l38.8,1.627a20.416,20.416,0,0,1,6.593,2.229,32.333,32.333,0,0,1,6.036,4.194,49.118,49.118,0,0,1,9.268,10.949c2.894,4.658,6.948,12.761,9.84,18.739a9.107,9.107,0,0,1-3.651,11.855l-5.563,1.434L98.143,71.663,99.9,77.549ZM98.143,49.01h0l0,6.017h3Z" transform="translate(4.193 21.547)" fill="#ffeae3"/>
      <path id="前面オブジェクトで型抜き_6" data-name="前面オブジェクトで型抜き 6" d="M98.869,58.833H42.977l1.251-4.271a27.585,27.585,0,0,0,.644-9.644L42.727,25.306l-.4-2.613L30.419,27.906l-.1-.345-.032.015c-1.84.8-18.059,7.838-21.314,8.733a6.445,6.445,0,0,1-1.711.221,7.616,7.616,0,0,1-4.871-1.759A6.937,6.937,0,0,1,0,29.261V8.049A1.138,1.138,0,0,0,.619,8.9a7.223,7.223,0,0,0,3.719.709c.437,0,.91-.016,1.406-.046L11.612,9.2l1.1,5.167c-.012.022-1.131,2.21-.625,3.04a.719.719,0,0,0,.666.317,2.874,2.874,0,0,0,.969-.218c3.2-1.206,11.457-6.49,11.541-6.543l6.547-3.711C38.588,3,44.371.63,49.492,0L56.3.286,81.479,1.342l6.816.286a20.422,20.422,0,0,1,6.593,2.229,32.317,32.317,0,0,1,6.036,4.193A49.049,49.049,0,0,1,110.189,19c.867,1.394,1.9,3.2,3.067,5.357l.009.014c.48.87,4.739,8.6,6.072,11.94a15.792,15.792,0,0,1,.787,6.624c-.189,2.492-.848,4.4-1.763,5.116-1.961,1.525-7.483,2.965-7.541,2.979l0-.006c-.143-.5-3.506-12.2-4.5-14.061-.68-1.284-2.346-1.742-3.679-1.742a3.038,3.038,0,0,0-1.213.193.371.371,0,0,1-.166.038c-.748,0-2.082-1.928-2.232-2.147l-1.923-3.011-.476,15.99L98.143,52.8l-1.035.147,1.759,5.881Z" transform="translate(5.227 40.261)" fill="#df7c8f"/>
      <path id="パス_724" data-name="パス 724" d="M270.889,210.65s-6.049,2.442-6.231,3.031,15.351,20.753,15.351,20.753,1.658,1.293,2.84,1.161,2.768-2.148,2.768-2.148l15.192-20.9-8.534-4.158a15.318,15.318,0,0,0-18.722.167Z" transform="translate(-208.702 -172.16)" fill="#fff"/>
      <path id="パス_725" data-name="パス 725" d="M285.431,104.135h0v-2c0-9.011-9.4-17.614-19.364-17.614s-19.364,8.6-19.364,17.614v2.03a6.773,6.773,0,0,0,.314,13.509c1.707,7.884,10.15,14.743,19.05,14.743s17.338-6.854,19.049-14.735h.315a6.774,6.774,0,0,0,0-13.547Z" transform="translate(-190.353 -84.521)" fill="#ffeae3"/>
      <path id="パス_726" data-name="パス 726" d="M423.516,369.345l.962-.276-.126-.358-.941.27a2.31,2.31,0,0,1-1.274-4.44l.68-.2-.239-.681-.278.08c-1.22.351-3.7-.02-4.047-1.24s1.552-2.849,2.773-3.2l.017,0-.24-.683a2.309,2.309,0,0,1-1.251-4.446l8.529-2.45a4.436,4.436,0,0,1,3.572,3.3l2.314,8.062c.937,3.462,1.4,5.9,1.094,7.784a1.9,1.9,0,0,1-.93.631l-9.341,2.289a2.31,2.31,0,0,1-1.275-4.441Z" transform="translate(-318.69 -276.048)" fill="#ffeae3"/>
      <path id="パス_728" data-name="パス 728" d="M442.174,46.883l-.612-1.718a10.669,10.669,0,0,0-4.993-6.006l-1.428-.736,1.428-.736a10.668,10.668,0,0,0,4.993-6.006l.612-1.718.612,1.718a10.67,10.67,0,0,0,4.994,6.006l1.428.736-1.428.736a10.668,10.668,0,0,0-4.994,6.006Z" transform="translate(-307.94 2.036)" fill="#ffb64b"/>
      <path id="パス_729" data-name="パス 729" d="M107.516,462.77l-.612-1.718a10.67,10.67,0,0,0-4.994-6.006l-1.428-.736,1.428-.736a10.67,10.67,0,0,0,4.994-6.006l.612-1.717.612,1.717a10.671,10.671,0,0,0,4.993,6.006l1.428.736-1.428.736a10.668,10.668,0,0,0-4.993,6.006Z" transform="translate(37.45 -438.651)" fill="#ffb64b"/>
      <path id="パス_731" data-name="パス 731" d="M467.561,189.138l-.515-1.445a8.978,8.978,0,0,0-4.2-5.052l-1.2-.619,1.2-.619a8.978,8.978,0,0,0,4.2-5.053l.515-1.445.515,1.445a8.977,8.977,0,0,0,4.2,5.053l1.2.619-1.2.619a8.976,8.976,0,0,0-4.2,5.052Z" transform="translate(-344.053 -158.323)" fill="#ffb64b"/>
      <path id="パス_738" data-name="パス 738" d="M449.643,347.712h0Z" transform="translate(-342.614 -275.527)" fill="#231815"/>
      <path id="パス_741" data-name="パス 741" d="M440.588,44.733l.612-1.718a9.744,9.744,0,0,1,4.543-5.49l1.428-.736a.932.932,0,0,0,0-1.658l-1.428-.736a9.744,9.744,0,0,1-4.543-5.49l-.612-1.718a.931.931,0,0,0-1.755,0l-.612,1.718a9.742,9.742,0,0,1-4.543,5.49l-1.428.736a.932.932,0,0,0,0,1.658l1.428.736a9.743,9.743,0,0,1,4.543,5.49l.612,1.718a.931.931,0,0,0,1.755,0Zm-5.9-8.773a11.469,11.469,0,0,0,5.021-5.772,11.466,11.466,0,0,0,5.021,5.772,11.467,11.467,0,0,0-5.021,5.772A11.47,11.47,0,0,0,434.69,35.96Z" transform="translate(-308.236 4.225)" fill="#3e485c"/>
      <path id="パス_742" data-name="パス 742" d="M105.93,460.62l.612-1.718a9.742,9.742,0,0,1,4.543-5.49l1.428-.736a.932.932,0,0,0,0-1.658l-1.428-.736a9.744,9.744,0,0,1-4.543-5.49l-.612-1.717a.931.931,0,0,0-1.755,0l-.612,1.717a9.745,9.745,0,0,1-4.543,5.49l-1.428.736a.932.932,0,0,0,0,1.658l1.428.736a9.744,9.744,0,0,1,4.543,5.49l.612,1.718a.931.931,0,0,0,1.755,0Zm-5.9-8.773a11.473,11.473,0,0,0,5.021-5.773,11.47,11.47,0,0,0,5.02,5.773,11.467,11.467,0,0,0-5.02,5.772A11.471,11.471,0,0,0,100.031,451.847Z" transform="translate(37.149 -436.463)" fill="#3e485c"/>
      <path id="パス_744" data-name="パス 744" d="M458.755,180.387l1.2.619a8.052,8.052,0,0,1,3.75,4.537l.515,1.445a.931.931,0,0,0,1.755,0l.515-1.445a8.051,8.051,0,0,1,3.75-4.536l1.2-.619a.932.932,0,0,0,0-1.658l-1.2-.619a8.05,8.05,0,0,1-3.749-4.537l-.515-1.445a.931.931,0,0,0-1.755,0l-.515,1.445a8.051,8.051,0,0,1-3.75,4.537l-1.2.619a.932.932,0,0,0,0,1.657Zm6.344-5.29a9.774,9.774,0,0,0,3.931,4.462,9.772,9.772,0,0,0-3.931,4.462,9.775,9.775,0,0,0-3.931-4.462A9.773,9.773,0,0,0,465.1,175.1Z" transform="translate(-344.439 -156.146)" fill="#3e485c"/>
      <path id="前面オブジェクトで型抜き_5" data-name="前面オブジェクトで型抜き 5" d="M102.547,83.369h-2.523l-.015-.047a1.269,1.269,0,0,1-.044-.536v0a.151.151,0,0,1-.009-.039l-.145-1.6a1.169,1.169,0,0,1,.067-.519l-.042-.019-.019-.008-.03-.014-.025-.011-.011,0c-.048-.022-.1-.046-.152-.074a3.673,3.673,0,0,1-1.557-1.736,4.432,4.432,0,0,1-.34-1.767,6.767,6.767,0,0,1,.184-1.481,3.853,3.853,0,0,1-.694-.4,3.7,3.7,0,0,1-1.308-1.934l0,.005a3.934,3.934,0,0,1-.134-1.012,3.765,3.765,0,0,1,.483-1.833,3.405,3.405,0,0,1-.453-.295,3.685,3.685,0,0,1-1.311-1.93,3.8,3.8,0,0,1-.136-1.011,3.723,3.723,0,0,1,.624-2.062,5.953,5.953,0,0,1-1.167-1.618,4.1,4.1,0,0,1-.414-1.749A3.836,3.836,0,0,1,94.3,59.2a4.557,4.557,0,0,1,2.011-1.371l.012,0,1.686-.5-.876-14.5a1.23,1.23,0,0,1,1.127-1.31l.072,0a1.216,1.216,0,0,1,1.2,1.159l.454,7.459,3.235,5.652.564-.167a4.8,4.8,0,0,1,1.372-.2,4.908,4.908,0,0,1,2.962,1.007,5.083,5.083,0,0,1,1.815,2.69l3.451,12.351,4.718-1.253a8.113,8.113,0,0,0,2.859-3.029,8.431,8.431,0,0,0,1.01-3.981,8.29,8.29,0,0,0-.8-3.551c-1.78-3.773-3.433-7.174-4.912-10.109-1.893-3.763-3.578-6.883-4.873-9.024a48.834,48.834,0,0,0-9.041-10.971c-4.015-3.573-8.179-5.759-12.042-6.321-.03,0-.2-.007-.477-.007-.356,0-.851,0-1.557.007l-.571,0V20.791c.823.046,2.441.139,2.457.144a1.171,1.171,0,0,1,.32-.048.934.934,0,0,1,.155.012c4.358.643,8.805,2.954,13.218,6.87a51.525,51.525,0,0,1,9.489,11.511c1.321,2.183,2.99,5.272,4.96,9.182,1.465,2.906,3.081,6.232,4.939,10.167a10.793,10.793,0,0,1-.316,9.782,10.408,10.408,0,0,1-3.792,3.922l-.136.079-5.164,1.371a5.247,5.247,0,0,1-.982,3.033,4.946,4.946,0,0,1-2.619,1.864l-7.464,2.2-.015,0a4.316,4.316,0,0,1-.549.1l.141,1.53a1.342,1.342,0,0,1-.006.211l.2.638Zm-2.24-7.678h0a2.592,2.592,0,0,1-.422.093.623.623,0,0,1-.018.145,4.576,4.576,0,0,0-.144,1.064,2.329,2.329,0,0,0,.171.932,1.554,1.554,0,0,0,.405.558,2.092,2.092,0,0,0,1.365.466,2.634,2.634,0,0,0,.615-.075l7.4-2.184a2.939,2.939,0,0,0,1.554-1.108,3.1,3.1,0,0,0,.471-2.646L108,59.693a2.992,2.992,0,0,0-1.074-1.6,2.858,2.858,0,0,0-2.572-.484l-1.495.439L96.941,59.8a2.607,2.607,0,0,0-1.108.752,1.722,1.722,0,0,0-.436,1.121,1.947,1.947,0,0,0,.206.844,4.026,4.026,0,0,0,.819,1.094.621.621,0,0,1,.068.08l0,.007.021.027.012-.007.017-.007c.12-.051.245-.1.376-.145l3.666-1.081a1,1,0,0,1,.28-.04,1.016,1.016,0,0,1,.969.752,1.036,1.036,0,0,1-.691,1.279l-3.67,1.085a1.543,1.543,0,0,0-.816.581,1.642,1.642,0,0,0-.308.958,1.677,1.677,0,0,0,.058.439,1.6,1.6,0,0,0,.567.835,1.544,1.544,0,0,0,.933.321,1.608,1.608,0,0,0,.427-.062L102,67.552a1,1,0,0,1,.28-.04,1.021,1.021,0,0,1,.971.748,1.045,1.045,0,0,1-.692,1.283l-3.67,1.081a1.553,1.553,0,0,0-.814.585,1.614,1.614,0,0,0-.252,1.393,1.568,1.568,0,0,0,.567.84,1.54,1.54,0,0,0,.933.32,1.617,1.617,0,0,0,.428-.062h-.006l3.671-1.08a.993.993,0,0,1,.28-.041,1.018,1.018,0,0,1,.971.748,1.049,1.049,0,0,1-.7,1.284l-3.666,1.081Zm0-20.362h0l.082,1.3.569-.172Zm-.541,28.04H98.81a1.013,1.013,0,0,1,.953,0Zm-54,0H43.1l.343-.719a1.148,1.148,0,0,1,.045-.365l1.755-6.175a27.779,27.779,0,0,0,.771-6.509,27.35,27.35,0,0,0-.154-2.949L43.71,46.511a1.232,1.232,0,0,1,1.066-1.363A1.195,1.195,0,0,1,46.1,46.243l2.148,20.139a31.452,31.452,0,0,1,.168,3.218,30.348,30.348,0,0,1-.846,7.116l0,.021-1.741,6.1a1.214,1.214,0,0,1-.061.529Zm25.379-5.405A1.573,1.573,0,1,1,72.72,76.39,1.576,1.576,0,0,1,71.144,77.964Zm0-12.188A1.573,1.573,0,1,1,72.72,64.2,1.575,1.575,0,0,1,71.144,65.776ZM10,59.658a8.674,8.674,0,0,1-3.4-.693,8.977,8.977,0,0,1-2.856-1.922,9.2,9.2,0,0,1-2.707-6.562H1.033L0,21.6v-.021A24.272,24.272,0,0,1,5.5,6.158L8.178,2.91A7.893,7.893,0,0,1,14.276,0h.036a7.769,7.769,0,0,1,4.654,1.547L22.534,4.18A5.716,5.716,0,0,1,24.82,8.76a5.908,5.908,0,0,1-.252,1.692l-.317,1.033.123.268a7.639,7.639,0,0,1-2.033,9.063l-4.137,3.4a2.473,2.473,0,0,1-.973.488,7.964,7.964,0,0,1-2,.755,11.387,11.387,0,0,1-2.6.312,7.678,7.678,0,0,1-1.537-.14,4.173,4.173,0,0,1-1.411-.536A1.194,1.194,0,0,1,9.3,23.475a1.133,1.133,0,0,1,.979-.567,1.107,1.107,0,0,1,.6.176,2.2,2.2,0,0,0,.669.232,4.949,4.949,0,0,0,1.02.1h.111a8.941,8.941,0,0,0,2.034-.25,5.237,5.237,0,0,0,1.513-.576l.212-.14.25-.031.087-.039,4.138-3.4a5.221,5.221,0,0,0,1.44-6.1l-.007,0-.017.005c-.075.024-.169.054-.267.079l-.049.268A3.463,3.463,0,0,1,20.841,15.3a3.344,3.344,0,0,1-2.157.8.666.666,0,0,1-.095-.008h-.006l-.012,0h0l-.05-.006a3.475,3.475,0,0,1-.942,1.775,3.343,3.343,0,0,1-1.852.958,1,1,0,0,1-.387.295,3.6,3.6,0,0,1-.74,1.126,3.327,3.327,0,0,1-2.38,1.006,3.474,3.474,0,0,1-.48-.03l-.723-.105a1.021,1.021,0,0,1,.141-2.028,1,1,0,0,1,.141.01l.714.106a1.777,1.777,0,0,0,.207.013,1.366,1.366,0,0,0,.981-.418,1.4,1.4,0,0,0,.3-.457L9.691,15.441a1.044,1.044,0,0,1-.21-1.425,1,1,0,0,1,.8-.414.964.964,0,0,1,.587.2l3.9,2.962a.151.151,0,0,0,.029,0h.008l.01,0,.011,0,.051.008a1.337,1.337,0,0,0,.318.039,1.371,1.371,0,0,0,.981-.417A1.448,1.448,0,0,0,16.6,15.38v-.356l-3.568-2.7a1.039,1.039,0,0,1-.207-1.429.983.983,0,0,1,.8-.41.973.973,0,0,1,.59.2l4.454,3.375h.018a1.374,1.374,0,0,0,.894-.329,1.418,1.418,0,0,0,.483-.853l.062-.342L15.947,9.367a1.047,1.047,0,0,1-.213-1.429,1,1,0,0,1,.8-.411.964.964,0,0,1,.587.2l4.348,3.3a2.181,2.181,0,0,0,.437-.141,1.147,1.147,0,0,0,.123-.076l.02-.012.011-.008.317-1.038a3.35,3.35,0,0,0,.148-.984A3.3,3.3,0,0,0,21.193,6.1L17.627,3.459a5.613,5.613,0,0,0-7.7.975L7.248,7.679A21.87,21.87,0,0,0,2.293,21.564L2.518,27.9a6.833,6.833,0,0,0,1.918.792,11.314,11.314,0,0,0,2.839.347h.109a11.273,11.273,0,0,0,5.164-1.173l0-.022a1.156,1.156,0,0,1,1.14-1.314,1.159,1.159,0,0,1,1.14,1.045l1.06,9.455,17.527-10.2a65.087,65.087,0,0,1,8.6-4.747,33.96,33.96,0,0,1,9.52-2.852.976.976,0,0,1,.132-.008,1.2,1.2,0,0,1,.3.039.008.008,0,0,1,0-.01,3.963,3.963,0,0,1,1.126-.067c.239,0,.512,0,.814.007v2.459c-.682-.215-1.09-.454-1.215-.71a1.14,1.14,0,0,1-.876.624,31.924,31.924,0,0,0-8.882,2.673A64.209,64.209,0,0,0,34.6,28.838l-.017.013L16.448,39.4l-.013,0a1.8,1.8,0,0,1-.885.229,1.85,1.85,0,0,1-1.237-.475,1.9,1.9,0,0,1-.639-1.248l0,.005-.848-7.591a13.992,13.992,0,0,1-5.5,1.063,13.851,13.851,0,0,1-3.46-.417,10.8,10.8,0,0,1-1.255-.422l.714,19.867v.022A6.92,6.92,0,0,0,5.339,55.35,6.672,6.672,0,0,0,10,57.3a6.461,6.461,0,0,0,2.676-.585l31.368-14.1a1.121,1.121,0,0,1,.462-.1,1.147,1.147,0,0,1,1.048.707,1.191,1.191,0,0,1-.589,1.551L13.594,58.88A8.794,8.794,0,0,1,10,59.658Zm60.79-11.42a3.874,3.874,0,0,1-1.6-.343,3.681,3.681,0,0,1-1.357-1.053L52.062,27.073a1.2,1.2,0,0,1,1.878-1.5L67.62,42.727v-7.52h6.338v7.52L87.64,25.577a1.2,1.2,0,0,1,1.879,1.5l-15.77,19.77a3.693,3.693,0,0,1-1.357,1.053A3.877,3.877,0,0,1,70.79,48.238Zm.636-25.054A5.522,5.522,0,0,1,67.892,22.1a6.211,6.211,0,0,1-1.858-2.6.742.742,0,0,1,.063-.709.765.765,0,0,1,.636-.343.786.786,0,0,1,.357.087,8.821,8.821,0,0,0,3.795.789c.332,0,.539-.017.541-.017s.208.017.538.017a8.835,8.835,0,0,0,3.8-.788.785.785,0,0,1,.357-.087.764.764,0,0,1,.635.343.742.742,0,0,1,.063.709A5.821,5.821,0,0,1,71.426,23.184Zm1.291-8.171h-2.4a.734.734,0,0,1-.734-.732V13.208a.256.256,0,0,1,.263-.259.251.251,0,0,1,.228.141l.144.281a1,1,0,0,0,.895.546h1.6a.548.548,0,1,1,0,1.1ZM78.84,9.519a2.134,2.134,0,1,1,2.135-2.133A2.137,2.137,0,0,1,78.84,9.519Zm-14.83,0a2.134,2.134,0,1,1,2.135-2.133A2.137,2.137,0,0,1,64.01,9.519ZM76.734,3.14A.884.884,0,0,1,76.515,1.4L80.24.448a.885.885,0,1,1,.437,1.715l-3.725.949A.876.876,0,0,1,76.734,3.14Z" transform="translate(0 14.881)" fill="#3e485c"/>
    </g>
    <g id="j182_2_1" transform="translate(601.477 2242.521)">
      <path id="パス_1509" data-name="パス 1509" d="M449.642,347.712h0Z" transform="translate(-441.748 -324.716)" fill="#3e485c"/>
      <path id="パス_1510" data-name="パス 1510" d="M420.861,409.98h0Z" transform="translate(-420.86 -369.905)" fill="#3e485c"/>
      <path id="パス_1512" data-name="パス 1512" d="M140.113,74.244a21.44,21.44,0,0,0,7.6,8.254,20.806,20.806,0,0,0,11.113,3.374,21.412,21.412,0,0,0,14.177-5.721,21.106,21.106,0,0,0,3.752-4.5c.118.425.807-1.442.816-1.459a17.067,17.067,0,0,0,1.188-3.093,7.912,7.912,0,0,0,2.687-14.909,1.138,1.138,0,0,0-.822-.081V52.6a21.087,21.087,0,0,0-3.636-11.848A21.408,21.408,0,0,0,168.1,33.26a10.642,10.642,0,1,0-18.513.038,21.408,21.408,0,0,0-8.813,7.453A21.087,21.087,0,0,0,137.134,52.6v3.542a1.136,1.136,0,0,0-.927.046A7.912,7.912,0,0,0,138.894,71.1C139.035,71.607,139.945,74.567,140.113,74.244Zm-4.288-7.029a5.616,5.616,0,0,1,1.31-8.916v1.525a1.036,1.036,0,0,0,1.773.73c1.018-1.037,3.13-2.5,4.479-4.569h0c2.772-2.624,7.635-13.19,8.034-17.18.9,8.091,5.17,7.421,25.408,19.936.791.716,1.536,1.315,2.026,1.814a1.036,1.036,0,0,0,1.773-.73V58.362a5.608,5.608,0,0,1-1.4,10.325,14.351,14.351,0,0,0,.091-1.556,1.145,1.145,0,1,0-2.291,0h0a13.518,13.518,0,0,1-1.5,6.034,19.159,19.159,0,0,1-6.817,7.4,18.526,18.526,0,0,1-9.88,3.014,19.137,19.137,0,0,1-12.635-5.123,18.342,18.342,0,0,1-4.063-5.292,13.526,13.526,0,0,1-1.5-6.034,1.145,1.145,0,1,0-2.291,0,14.347,14.347,0,0,0,.091,1.556A5.616,5.616,0,0,1,135.825,67.215Z" transform="translate(-131.887 -17.392)" fill="#3e485c"/>
    </g>
  </g>
</svg>
