<svg id="welcome_main-decoration-green-round" xmlns="http://www.w3.org/2000/svg" xmlns:xlink="http://www.w3.org/1999/xlink" width="189" height="189" viewBox="0 0 189 189">
  <defs>
    <clipPath id="clip-path">
      <rect id="長方形_195" data-name="長方形 195" width="189" height="189" transform="translate(0 0)" fill="#20ab9a"/>
    </clipPath>
  </defs>
  <g id="グループ_204" data-name="グループ 204" transform="translate(0 0)" clip-path="url(#clip-path)">
    <path id="パス_841" data-name="パス 841" d="M104.737,153.642c1.233.356,2.206.946,2.156,2.437a2,2,0,0,1-2.1,2.154,2.166,2.166,0,0,1-2.372-2.191c-.07-1.33.975-2.094,2.316-2.4" transform="translate(12.671 18.955)" fill="#20ab9a"/>
    <path id="パス_842" data-name="パス 842" d="M25.038,43.221c-.257,1.276-.869,2.222-2.325,2.243A1.974,1.974,0,0,1,20.547,43.4a2.121,2.121,0,0,1,2.077-2.424c1.366-.107,2.119.9,2.415,2.249" transform="translate(2.541 5.054)" fill="#20ab9a"/>
    <path id="パス_843" data-name="パス 843" d="M94.581,168.422c-1.515-.031-2.382-.835-2.369-2.2a2.159,2.159,0,0,1,2.309-2.265,2.195,2.195,0,0,1,2.181,2.169,2.028,2.028,0,0,1-2.122,2.3" transform="translate(11.408 20.227)" fill="#20ab9a"/>
    <path id="パス_844" data-name="パス 844" d="M155.642,81.976c1.563.184,2.512.766,2.532,2.256a2.1,2.1,0,0,1-2.042,2.257,2.192,2.192,0,0,1-2.464-2.11c-.148-1.441.95-2.029,1.974-2.4" transform="translate(19.01 10.113)" fill="#20ab9a"/>
    <path id="パス_845" data-name="パス 845" d="M168.385,94.477c-.133,1.49-.848,2.337-2.307,2.266a2.249,2.249,0,0,1,.093-4.5,2.091,2.091,0,0,1,2.214,2.231" transform="translate(20.279 11.38)" fill="#20ab9a"/>
    <path id="パス_846" data-name="パス 846" d="M45.5,104.6c-.2,1.643-.983,2.407-2.424,2.321a2.1,2.1,0,0,1-2.138-2.164,2.222,2.222,0,0,1,2.3-2.311A2.387,2.387,0,0,1,45.5,104.6" transform="translate(5.065 12.639)" fill="#20ab9a"/>
    <path id="パス_847" data-name="パス 847" d="M158.213,104.582c-.1,1.522-.8,2.341-2.27,2.35a2.127,2.127,0,0,1-2.268-2.033,2.2,2.2,0,0,1,2.153-2.442,2.34,2.34,0,0,1,2.385,2.125" transform="translate(19.011 12.64)" fill="#20ab9a"/>
    <path id="パス_848" data-name="パス 848" d="M145.818,117.125a1.979,1.979,0,0,1-2.338-1.937,2.251,2.251,0,1,1,4.495-.192,1.993,1.993,0,0,1-2.156,2.129" transform="translate(17.75 13.911)" fill="#20ab9a"/>
    <path id="パス_849" data-name="パス 849" d="M32.382,117.1a1.867,1.867,0,0,1-1.633-2.191,2.245,2.245,0,0,1,4.487.134c-.057,1.462-.983,2.136-2.854,2.057" transform="translate(3.804 13.91)" fill="#20ab9a"/>
    <path id="パス_850" data-name="パス 850" d="M55.644,155.588c-.058,1.728-.663,2.643-2.17,2.633a2.252,2.252,0,0,1-.167-4.5,2.139,2.139,0,0,1,2.337,1.867" transform="translate(6.333 18.964)" fill="#20ab9a"/>
    <path id="パス_851" data-name="パス 851" d="M145.723,102.35c1.217.429,2.3,1.049,2.245,2.47a2.1,2.1,0,0,1-2.4,2.12,1.994,1.994,0,0,1-2.1-2.158c-.01-1.419.986-2.07,2.249-2.432" transform="translate(17.751 12.627)" fill="#20ab9a"/>
    <path id="パス_852" data-name="パス 852" d="M86.545,104.808c-.3,1.291-.988,2.166-2.442,2.124a1.973,1.973,0,0,1-2.093-2.146,2.144,2.144,0,0,1,2.207-2.337c1.317-.012,2.107.982,2.328,2.358" transform="translate(10.146 12.639)" fill="#20ab9a"/>
    <path id="パス_853" data-name="パス 853" d="M43.194,137.791c-1.361-.288-2.372-1.022-2.249-2.441a2.081,2.081,0,0,1,2.309-2.027,2,2,0,0,1,2.178,2.326c-.073,1.375-1.038,1.906-2.238,2.141" transform="translate(5.064 16.448)" fill="#20ab9a"/>
    <path id="パス_854" data-name="パス 854" d="M45.479,155.826c-.1,1.478-.769,2.365-2.227,2.392a2.153,2.153,0,0,1-2.3-2.247,2.179,2.179,0,0,1,2.123-2.242,2.261,2.261,0,0,1,2.408,2.1" transform="translate(5.066 18.965)" fill="#20ab9a"/>
    <path id="パス_855" data-name="パス 855" d="M45.471,22.648a2.168,2.168,0,0,1-2.282,2.31,2.193,2.193,0,1,1,.048-4.383,2.062,2.062,0,0,1,2.234,2.074" transform="translate(5.065 2.538)" fill="#20ab9a"/>
    <path id="パス_856" data-name="パス 856" d="M55.628,22.623a2.227,2.227,0,1,1-4.449.193,2.082,2.082,0,0,1,2.31-2.242,1.92,1.92,0,0,1,2.138,2.049" transform="translate(6.332 2.538)" fill="#20ab9a"/>
    <path id="パス_857" data-name="パス 857" d="M86.543,135.5c-.251,1.387-1.033,2.3-2.441,2.223a2.06,2.06,0,0,1-2.093-2.237,2.016,2.016,0,0,1,2.344-2.16c1.386.045,1.956.943,2.19,2.174" transform="translate(10.146 16.448)" fill="#20ab9a"/>
    <path id="パス_858" data-name="パス 858" d="M117.085,94.635a1.964,1.964,0,0,1-2.226,2.111,2.142,2.142,0,0,1-2.164-2.374,2.116,2.116,0,0,1,2.195-2.131c1.409-.018,2.179.822,2.2,2.394" transform="translate(13.942 11.38)" fill="#20ab9a"/>
    <path id="パス_859" data-name="パス 859" d="M104.724,92.147c1.355.4,2.285,1.044,2.167,2.528a2.015,2.015,0,0,1-2.181,2.08,2.189,2.189,0,0,1-2.288-2.288c.006-1.321,1.063-2.046,2.3-2.32" transform="translate(12.671 11.368)" fill="#20ab9a"/>
    <path id="パス_860" data-name="パス 860" d="M106.918,145.7a2.13,2.13,0,0,1-2.085,2.292,2.238,2.238,0,1,1-.049-4.465,2.065,2.065,0,0,1,2.134,2.174" transform="translate(12.671 17.707)" fill="#20ab9a"/>
    <path id="パス_861" data-name="パス 861" d="M55.637,94.507c-.1,1.392-.757,2.3-2.235,2.236a2.251,2.251,0,0,1-.017-4.5,2.082,2.082,0,0,1,2.252,2.265" transform="translate(6.333 11.38)" fill="#20ab9a"/>
    <path id="パス_862" data-name="パス 862" d="M4.354,94.708a1.9,1.9,0,0,1-2,2.04,2.254,2.254,0,1,1-.063-4.506c1.3.031,2.061.849,2.06,2.466" transform="translate(0.001 11.38)" fill="#20ab9a"/>
    <path id="パス_863" data-name="パス 863" d="M96.756,135.584a2.251,2.251,0,0,1-2.44,2.136,2.2,2.2,0,1,1,.3-4.392,2.133,2.133,0,0,1,2.142,2.257" transform="translate(11.408 16.448)" fill="#20ab9a"/>
    <path id="パス_864" data-name="パス 864" d="M117.071,84.474a1.975,1.975,0,0,1-2.237,2.022,2.23,2.23,0,1,1,.411-4.434,1.954,1.954,0,0,1,1.826,2.412" transform="translate(13.942 10.121)" fill="#20ab9a"/>
    <path id="パス_865" data-name="パス 865" d="M84.393,168.423c-1.59-.022-2.381-.772-2.385-2.212a2.138,2.138,0,0,1,2.062-2.261,2.182,2.182,0,0,1,2.4,2.173,2.076,2.076,0,0,1-2.077,2.3" transform="translate(10.146 20.226)" fill="#20ab9a"/>
    <path id="パス_866" data-name="パス 866" d="M104.673,86.556c-1.341-.3-2.372-1.054-2.259-2.439a2.157,2.157,0,0,1,2.311-2.068,2.015,2.015,0,0,1,2.165,2.342c-.069,1.383-1,1.927-2.218,2.165" transform="translate(12.67 10.122)" fill="#20ab9a"/>
    <path id="パス_867" data-name="パス 867" d="M55.629,84.163A2.073,2.073,0,0,1,53.4,86.495a2.133,2.133,0,0,1-2.222-2.166,2.111,2.111,0,0,1,2.3-2.277,1.947,1.947,0,0,1,2.143,2.111" transform="translate(6.332 10.123)" fill="#20ab9a"/>
    <path id="パス_868" data-name="パス 868" d="M22.642,86.55c-1.341-.316-2.226-1.01-2.1-2.5a2,2,0,0,1,2.28-1.993,2.075,2.075,0,0,1,2.142,2.189c0,1.414-.948,2.139-2.326,2.306" transform="translate(2.54 10.123)" fill="#20ab9a"/>
    <path id="パス_869" data-name="パス 869" d="M94.574,71.831a1.99,1.99,0,0,1,2.135,2.219,2.251,2.251,0,0,1-4.5-.115,2.09,2.09,0,0,1,2.363-2.1" transform="translate(11.408 8.862)" fill="#20ab9a"/>
    <path id="パス_870" data-name="パス 870" d="M84.253,71.827a2.179,2.179,0,1,1-2.244,2.078,2.017,2.017,0,0,1,2.244-2.078" transform="translate(10.146 8.861)" fill="#20ab9a"/>
    <path id="パス_871" data-name="パス 871" d="M96.759,145.858c-.267,1.3-1.028,2.248-2.414,2.129a2.157,2.157,0,0,1-2.136-2.425,2.1,2.1,0,0,1,2.256-2.036,2.272,2.272,0,0,1,2.294,2.332" transform="translate(11.407 17.707)" fill="#20ab9a"/>
    <path id="パス_872" data-name="パス 872" d="M94.536,55.655a2.037,2.037,0,0,1-2.322-2,2.249,2.249,0,1,1,4.489-.125,2,2,0,0,1-2.168,2.12" transform="translate(11.408 6.32)" fill="#20ab9a"/>
    <path id="パス_873" data-name="パス 873" d="M84.89,55.631c-1.965.062-2.778-.614-2.877-1.96a2.238,2.238,0,1,1,4.467-.153,1.992,1.992,0,0,1-1.59,2.113" transform="translate(10.146 6.32)" fill="#20ab9a"/>
    <path id="パス_874" data-name="パス 874" d="M106.942,42.916c-.1,1.715-.8,2.54-2.267,2.549a2.169,2.169,0,0,1-2.258-2.082,2.209,2.209,0,0,1,2.186-2.411,2.268,2.268,0,0,1,2.338,1.943" transform="translate(12.67 5.054)" fill="#20ab9a"/>
    <path id="パス_875" data-name="パス 875" d="M104.852,35.33a2.4,2.4,0,0,1-2.431-2.253,2.17,2.17,0,0,1,2.268-2.305,2.01,2.01,0,0,1,2.2,2.058,2.253,2.253,0,0,1-2.037,2.5" transform="translate(12.671 3.796)" fill="#20ab9a"/>
    <path id="パス_876" data-name="パス 876" d="M117.071,33.114c-.082,1.314-.738,2.178-2.111,2.16a2.143,2.143,0,0,1-2.263-2.342,2.1,2.1,0,0,1,2.428-2.157,1.96,1.96,0,0,1,1.946,2.339" transform="translate(13.943 3.795)" fill="#20ab9a"/>
    <path id="パス_877" data-name="パス 877" d="M71.778,94.365a2.084,2.084,0,0,1,2.167-2.125,2.047,2.047,0,0,1,2.17,2.366,2.009,2.009,0,0,1-2.147,2.147c-1.5-.013-2.14-.925-2.189-2.387" transform="translate(8.88 11.38)" fill="#20ab9a"/>
    <path id="パス_878" data-name="パス 878" d="M73.855,40.9a2.25,2.25,0,0,1,2.256,2.157,2.034,2.034,0,0,1-2.081,2.423,1.953,1.953,0,0,1-2.225-2.039c-.149-1.514.77-2.168,2.05-2.541" transform="translate(8.882 5.046)" fill="#20ab9a"/>
    <path id="パス_879" data-name="パス 879" d="M35.292,22.613a2.255,2.255,0,0,1-2.309,2.351,2.1,2.1,0,0,1-2.238-2.114,2.02,2.02,0,0,1,2.011-2.274,2.23,2.23,0,0,1,2.536,2.037" transform="translate(3.803 2.537)" fill="#20ab9a"/>
    <path id="パス_880" data-name="パス 880" d="M117.087,166.29a1.889,1.889,0,0,1-2.028,2.112,2.077,2.077,0,0,1-2.362-2.179,2.2,2.2,0,1,1,4.39.067" transform="translate(13.943 20.226)" fill="#20ab9a"/>
    <path id="パス_881" data-name="パス 881" d="M127.334,33.2a2.149,2.149,0,1,1-4.29-.252,2,2,0,0,1,2.324-2.178c1.331.082,1.98.971,1.967,2.43" transform="translate(15.223 3.796)" fill="#20ab9a"/>
    <path id="パス_882" data-name="パス 882" d="M32.988,40.876c1.248.368,2.278,1.041,2.237,2.438a2.079,2.079,0,0,1-2.36,2.152,2.062,2.062,0,0,1-2.122-2.16c-.03-1.4.93-2.1,2.244-2.43" transform="translate(3.804 5.043)" fill="#20ab9a"/>
    <path id="パス_883" data-name="パス 883" d="M40.855,43.347c.27-1.336,1-2.38,2.337-2.368a2.152,2.152,0,0,1,2.251,2.288,2.021,2.021,0,0,1-2.073,2.192c-1.483.11-2.072-.925-2.515-2.112" transform="translate(5.055 5.056)" fill="#20ab9a"/>
    <path id="パス_884" data-name="パス 884" d="M55.633,43.265c-.079,1.441-.781,2.255-2.268,2.2a2.146,2.146,0,0,1-2.178-2.143,2.174,2.174,0,0,1,2.228-2.351,2.112,2.112,0,0,1,2.217,2.3" transform="translate(6.332 5.054)" fill="#20ab9a"/>
    <path id="パス_885" data-name="パス 885" d="M104.746,168.427a2.236,2.236,0,1,1,2.153-2.085c-.043,1.388-.844,1.992-2.153,2.085" transform="translate(12.67 20.227)" fill="#20ab9a"/>
    <path id="パス_886" data-name="パス 886" d="M117.09,155.966c-.054,1.408-.673,2.3-2.185,2.256a2.254,2.254,0,0,1-.065-4.506c1.4-.049,2.18.8,2.25,2.25" transform="translate(13.943 18.964)" fill="#20ab9a"/>
    <path id="パス_887" data-name="パス 887" d="M86.547,43.371c-.371,1.259-1.05,2.179-2.5,2.087a2,2,0,0,1-2.033-2.22,2.127,2.127,0,0,1,2.256-2.264C85.6,41,86.356,42,86.547,43.371" transform="translate(10.146 5.055)" fill="#20ab9a"/>
    <path id="パス_888" data-name="パス 888" d="M96.769,43.183c-.2,1.433-.91,2.3-2.35,2.271a2.106,2.106,0,0,1-2.21-2.091,2.177,2.177,0,0,1,2.181-2.393c1.355-.058,2.1.941,2.379,2.212" transform="translate(11.407 5.054)" fill="#20ab9a"/>
    <path id="パス_889" data-name="パス 889" d="M84.31,4.383a1.963,1.963,0,0,1-2.3-1.982A2.082,2.082,0,0,1,84.169,0a2.108,2.108,0,0,1,2.315,2.262c0,1.337-.868,2.015-2.173,2.12" transform="translate(10.146 0)" fill="#20ab9a"/>
    <path id="パス_890" data-name="パス 890" d="M117.06,43.746a1.86,1.86,0,0,1-2.119,1.722,2.252,2.252,0,1,1,.08-4.5c1.362.047,2.118.984,2.04,2.781" transform="translate(13.943 5.054)" fill="#20ab9a"/>
    <path id="パス_891" data-name="パス 891" d="M86.553,155.99c-.3,1.277-.912,2.242-2.374,2.23a2.025,2.025,0,0,1-2.168-2.1,2.125,2.125,0,0,1,2.138-2.4c1.372-.076,2.1.945,2.4,2.261" transform="translate(10.146 18.965)" fill="#20ab9a"/>
    <path id="パス_892" data-name="パス 892" d="M133.232,43.291c.185-1.57,1.018-2.406,2.369-2.324a2.258,2.258,0,0,1-.209,4.506c-1.563,0-1.99-1.04-2.16-2.182" transform="translate(16.483 5.053)" fill="#20ab9a"/>
    <path id="パス_893" data-name="パス 893" d="M148.051,43.228c-.276,1.338-.965,2.231-2.4,2.231a2.033,2.033,0,0,1-2.178-2.1,2.153,2.153,0,0,1,2.165-2.387c1.345-.06,2.1.954,2.409,2.253" transform="translate(17.75 5.055)" fill="#20ab9a"/>
    <path id="パス_894" data-name="パス 894" d="M94.449,4.372a1.99,1.99,0,0,1-2.242-2.091,2.253,2.253,0,1,1,4.5.118c-.078,1.4-.981,1.961-2.26,1.973" transform="translate(11.408 0.001)" fill="#20ab9a"/>
    <path id="パス_895" data-name="パス 895" d="M32.936,153.637c1.295.315,2.29,1,2.288,2.387a2.238,2.238,0,0,1-4.474.075c-.1-1.41.936-2.077,2.186-2.462" transform="translate(3.804 18.954)" fill="#20ab9a"/>
    <path id="パス_896" data-name="パス 896" d="M117.075,145.741a1.993,1.993,0,0,1-2.035,2.269,2.129,2.129,0,0,1-2.344-2.252,2.1,2.1,0,0,1,2.352-2.23,1.929,1.929,0,0,1,2.027,2.213" transform="translate(13.943 17.707)" fill="#20ab9a"/>
    <path id="パス_897" data-name="パス 897" d="M22.528,55.655a1.891,1.891,0,0,1-1.982-2.065,2.1,2.1,0,0,1,2.2-2.36,2.1,2.1,0,0,1,2.223,2.357c-.062,1.266-.856,2.066-2.444,2.068" transform="translate(2.542 6.32)" fill="#20ab9a"/>
    <path id="パス_898" data-name="パス 898" d="M32.857,55.654a1.967,1.967,0,0,1-2.111-2.086,2.245,2.245,0,1,1,4.483.06c-.067,1.312-.915,2.025-2.371,2.027" transform="translate(3.804 6.32)" fill="#20ab9a"/>
    <path id="パス_899" data-name="パス 899" d="M43,55.661a2.079,2.079,0,0,1-2.063-2.315,2.251,2.251,0,0,1,4.5.162c0,1.5-.868,2.136-2.434,2.154" transform="translate(5.064 6.32)" fill="#20ab9a"/>
    <path id="パス_900" data-name="パス 900" d="M84.219,148.069c-1.273-.252-2.165-.874-2.211-2.227a2.072,2.072,0,0,1,2.231-2.307,2.1,2.1,0,0,1,2.234,2.127c.053,1.423-.942,2.131-2.253,2.407" transform="translate(10.146 17.708)" fill="#20ab9a"/>
    <path id="パス_901" data-name="パス 901" d="M71.791,145.959c0-1.612.79-2.426,2.2-2.432a2,2,0,0,1,2.125,2.169,2.052,2.052,0,0,1-2.217,2.317,2,2,0,0,1-2.113-2.055" transform="translate(8.882 17.707)" fill="#20ab9a"/>
    <path id="パス_902" data-name="パス 902" d="M55.626,145.811A2.012,2.012,0,0,1,53.438,148a2.164,2.164,0,0,1-2.253-2.315,2.14,2.14,0,0,1,2.387-2.163,2.013,2.013,0,0,1,2.054,2.285" transform="translate(6.333 17.707)" fill="#20ab9a"/>
    <path id="パス_903" data-name="パス 903" d="M86.552,32.993c-.3,1.282-.951,2.307-2.37,2.267a2.085,2.085,0,0,1-2.172-2.337,2.061,2.061,0,0,1,2.12-2.155c1.409-.044,2.12.9,2.422,2.224" transform="translate(10.146 3.796)" fill="#20ab9a"/>
    <path id="パス_904" data-name="パス 904" d="M71.771,33.332c.061-1.67.767-2.569,2.223-2.567a2,2,0,0,1,2.122,2.177,2.181,2.181,0,0,1-4.344.39" transform="translate(8.879 3.796)" fill="#20ab9a"/>
    <path id="パス_905" data-name="パス 905" d="M104.849,55.656a2.124,2.124,0,0,1-2.438-2.1,2.153,2.153,0,0,1,2.249-2.324,2.111,2.111,0,0,1,2.24,2.282,1.943,1.943,0,0,1-2.05,2.143" transform="translate(12.67 6.32)" fill="#20ab9a"/>
    <path id="パス_906" data-name="パス 906" d="M117.086,53.483c-.038,1.321-.6,2.13-2.033,2.167a2.066,2.066,0,0,1-2.359-2.17,2.13,2.13,0,0,1,2.331-2.259,2.051,2.051,0,0,1,2.061,2.262" transform="translate(13.942 6.319)" fill="#20ab9a"/>
    <path id="パス_907" data-name="パス 907" d="M45.463,145.962a2.262,2.262,0,1,1-2.037-2.43,2.166,2.166,0,0,1,2.037,2.43" transform="translate(5.066 17.706)" fill="#20ab9a"/>
    <path id="パス_908" data-name="パス 908" d="M22.671,148.065c-1.374-.285-2.227-1.011-2.125-2.489a2.019,2.019,0,0,1,2.245-2.046,2.1,2.1,0,0,1,2.174,2.18c.015,1.405-.925,2.154-2.295,2.355" transform="translate(2.541 17.707)" fill="#20ab9a"/>
    <path id="パス_909" data-name="パス 909" d="M146.206,55.65c-1.864.012-2.674-.718-2.729-2.04a2.134,2.134,0,0,1,2.227-2.377,2.167,2.167,0,0,1,2.271,2.352,1.977,1.977,0,0,1-1.769,2.065" transform="translate(17.75 6.321)" fill="#20ab9a"/>
    <path id="パス_910" data-name="パス 910" d="M155.887,55.662a2.077,2.077,0,0,1-2.207-2.275,2.246,2.246,0,0,1,4.49.083c0,1.478-.842,2.153-2.283,2.192" transform="translate(19.013 6.319)" fill="#20ab9a"/>
    <path id="パス_911" data-name="パス 911" d="M65.835,33.176a1.966,1.966,0,0,1-2.116,2.1,2.057,2.057,0,0,1-2.181-2.352,2.008,2.008,0,0,1,2.145-2.156c1.461,0,2.17.89,2.152,2.409" transform="translate(7.613 3.796)" fill="#20ab9a"/>
    <path id="パス_912" data-name="パス 912" d="M148.039,135.565a2.324,2.324,0,0,1-2.491,2.155,2.088,2.088,0,0,1-2.073-2.28,2.041,2.041,0,0,1,2.409-2.112c1.366.079,1.974.945,2.155,2.238" transform="translate(17.75 16.448)" fill="#20ab9a"/>
    <path id="パス_913" data-name="パス 913" d="M117.079,135.15c.018,1.717-.747,2.569-2.173,2.579a2.2,2.2,0,1,1,.022-4.4,1.857,1.857,0,0,1,2.151,1.823" transform="translate(13.941 16.449)" fill="#20ab9a"/>
    <path id="パス_914" data-name="パス 914" d="M104.622,133.3c1.372.08,2.22.665,2.272,2.073a2.083,2.083,0,0,1-2.192,2.359,2.116,2.116,0,0,1-2.285-2.093,2.164,2.164,0,0,1,2.2-2.339" transform="translate(12.671 16.445)" fill="#20ab9a"/>
    <path id="パス_915" data-name="パス 915" d="M55.631,135.318c-.01,1.529-.78,2.387-2.2,2.412a2.2,2.2,0,1,1,0-4.4,1.93,1.93,0,0,1,2.195,1.99" transform="translate(6.332 16.449)" fill="#20ab9a"/>
    <path id="パス_916" data-name="パス 916" d="M35.292,135.39a2.283,2.283,0,0,1-2.3,2.334,2.1,2.1,0,0,1-2.242-2.113,2.015,2.015,0,0,1,2-2.28,2.215,2.215,0,0,1,2.54,2.059" transform="translate(3.804 16.447)" fill="#20ab9a"/>
    <path id="パス_917" data-name="パス 917" d="M22.768,133.3a2.212,2.212,0,1,1-.065,4.423,2.048,2.048,0,0,1-2.156-2.369,2.021,2.021,0,0,1,2.222-2.054" transform="translate(2.541 16.446)" fill="#20ab9a"/>
    <path id="パス_918" data-name="パス 918" d="M145.766,123.051c1.487.136,2.3.929,2.207,2.371a2.013,2.013,0,0,1-2.342,1.931,1.948,1.948,0,0,1-2.159-2.1,2.075,2.075,0,0,1,2.294-2.205" transform="translate(17.75 15.181)" fill="#20ab9a"/>
    <path id="パス_919" data-name="パス 919" d="M155.933,117.127a2.022,2.022,0,0,1-2.262-2.047,2.124,2.124,0,0,1,2.274-2.32,2.093,2.093,0,0,1,2.226,2.341c-.048,1.4-.9,2-2.238,2.025" transform="translate(19.012 13.911)" fill="#20ab9a"/>
    <path id="パス_920" data-name="パス 920" d="M105.219,117.113c-1.923.054-2.792-.8-2.809-2.159a2.106,2.106,0,0,1,2.181-2.192A2.075,2.075,0,0,1,106.9,115c.012,1.4-.752,2.06-1.678,2.114" transform="translate(12.67 13.912)" fill="#20ab9a"/>
    <path id="パス_921" data-name="パス 921" d="M94.44,117.126a1.989,1.989,0,0,1-2.232-2.058,2.25,2.25,0,1,1,4.5.049c-.057,1.373-.925,2-2.265,2.009" transform="translate(11.408 13.911)" fill="#20ab9a"/>
    <path id="パス_922" data-name="パス 922" d="M83.636,117.139c-.736.018-1.551-.654-1.624-2.005a2.236,2.236,0,1,1,4.468-.09c-.027,1.3-.837,2.059-2.844,2.1" transform="translate(10.146 13.911)" fill="#20ab9a"/>
    <path id="パス_923" data-name="パス 923" d="M43.805,117.1c-1.99.065-2.856-.756-2.872-2.149a2.255,2.255,0,0,1,4.509.046,1.878,1.878,0,0,1-1.637,2.1" transform="translate(5.064 13.912)" fill="#20ab9a"/>
    <path id="パス_924" data-name="パス 924" d="M22.062,117.111c-.8-.028-1.517-.765-1.515-2.119a2.06,2.06,0,0,1,2.295-2.233,2.042,2.042,0,0,1,2.129,2.192c-.009,1.415-.848,2.205-2.909,2.16" transform="translate(2.542 13.911)" fill="#20ab9a"/>
    <path id="パス_925" data-name="パス 925" d="M168.372,104.663c-.04,1.415-.675,2.194-2.041,2.273a2.146,2.146,0,0,1-2.42-2.12,2.171,2.171,0,0,1,2.216-2.365,2.137,2.137,0,0,1,2.245,2.212" transform="translate(20.278 12.639)" fill="#20ab9a"/>
    <path id="パス_926" data-name="パス 926" d="M145.756,65.858c-1.451-.025-2.273-.717-2.283-2.067a2.252,2.252,0,1,1,4.5.093,1.985,1.985,0,0,1-2.218,1.974" transform="translate(17.75 7.594)" fill="#20ab9a"/>
    <path id="パス_927" data-name="パス 927" d="M135.5,106.961a2.015,2.015,0,0,1-2.224-2.149,2.188,2.188,0,1,1,2.224,2.149" transform="translate(16.489 12.639)" fill="#20ab9a"/>
    <path id="パス_928" data-name="パス 928" d="M117.1,104.437c-.034,1.6-.6,2.423-1.992,2.5a2.11,2.11,0,0,1-2.406-2.1,2.149,2.149,0,0,1,2.163-2.387,2.076,2.076,0,0,1,2.235,1.991" transform="translate(13.942 12.638)" fill="#20ab9a"/>
    <path id="パス_929" data-name="パス 929" d="M94.547,106.964a2.257,2.257,0,1,1-.016-4.513,2.233,2.233,0,0,1,2.167,2.2c.089,1.453-.8,2.161-2.151,2.316" transform="translate(11.409 12.639)" fill="#20ab9a"/>
    <path id="パス_930" data-name="パス 930" d="M55.636,104.776c-.088,1.364-.727,2.143-2.106,2.16a2.132,2.132,0,0,1-2.341-2.191,2.173,2.173,0,0,1,2.279-2.3,2.151,2.151,0,0,1,2.168,2.329" transform="translate(6.333 12.639)" fill="#20ab9a"/>
    <path id="パス_931" data-name="パス 931" d="M32.926,102.355c1.244.339,2.283.981,2.3,2.377a2.052,2.052,0,0,1-2.288,2.211,2.023,2.023,0,0,1-2.2-2.072c-.082-1.41.9-2.115,2.182-2.516" transform="translate(3.803 12.628)" fill="#20ab9a"/>
    <path id="パス_932" data-name="パス 932" d="M35.3,73.839c-.161,1.5-.934,2.352-2.352,2.348a2.045,2.045,0,0,1-2.2-2.123,2,2,0,0,1,2.054-2.22,2.2,2.2,0,0,1,2.5,2" transform="translate(3.804 8.863)" fill="#20ab9a"/>
    <path id="パス_933" data-name="パス 933" d="M43.5,71.836A1.942,1.942,0,0,1,45.439,74a2.252,2.252,0,0,1-4.5,0c.046-1.365.911-2.2,2.563-2.16" transform="translate(5.064 8.862)" fill="#20ab9a"/>
    <path id="パス_934" data-name="パス 934" d="M25.027,104.856c-.317,1.254-.979,2.147-2.45,2.078a1.952,1.952,0,0,1-2.032-2.187,2.11,2.11,0,0,1,2.217-2.3c1.319.007,2.11.989,2.264,2.407" transform="translate(2.542 12.639)" fill="#20ab9a"/>
    <path id="パス_935" data-name="パス 935" d="M4.346,105.167a1.83,1.83,0,0,1-2.089,1.768A2.062,2.062,0,0,1,.006,104.65a2.1,2.1,0,0,1,2.153-2.2c1.361-.011,2.214.857,2.187,2.721" transform="translate(0.001 12.639)" fill="#20ab9a"/>
    <path id="パス_936" data-name="パス 936" d="M156.265,96.828c-1.673-.181-2.563-1.037-2.585-2.331A2.153,2.153,0,0,1,156,92.251a2.111,2.111,0,0,1,2.162,2.141,2.377,2.377,0,0,1-1.9,2.435" transform="translate(19.013 11.381)" fill="#20ab9a"/>
    <path id="パス_937" data-name="パス 937" d="M55.629,33.219a2.024,2.024,0,0,1-2.3,2.045,2.2,2.2,0,0,1-2.142-2.431,2.15,2.15,0,0,1,2.277-2.066c1.4.033,2.177.85,2.168,2.452" transform="translate(6.332 3.796)" fill="#20ab9a"/>
    <path id="パス_938" data-name="パス 938" d="M43.262,30.678c1.377.379,2.306,1.053,2.164,2.521a2.075,2.075,0,0,1-2.217,2.074,2.193,2.193,0,0,1-2.263-2.319c.022-1.347,1.079-2.028,2.316-2.276" transform="translate(5.066 3.785)" fill="#20ab9a"/>
    <path id="パス_939" data-name="パス 939" d="M84.243,96.807c-1.4-.2-2.244-.917-2.235-2.348a2.081,2.081,0,0,1,2.086-2.21,2.15,2.15,0,0,1,2.371,2.191,2.293,2.293,0,0,1-2.222,2.367" transform="translate(10.146 11.38)" fill="#20ab9a"/>
    <path id="パス_940" data-name="パス 940" d="M94.19,20.525c1.5.108,2.427.675,2.516,2.047a2.252,2.252,0,1,1-4.5.12,2.147,2.147,0,0,1,1.983-2.167" transform="translate(11.408 2.532)" fill="#20ab9a"/>
    <path id="パス_941" data-name="パス 941" d="M45.483,94.384c-.139,1.422-.8,2.346-2.244,2.359a2.248,2.248,0,0,1-.151-4.492,2.228,2.228,0,0,1,2.395,2.133" transform="translate(5.066 11.38)" fill="#20ab9a"/>
    <path id="パス_942" data-name="パス 942" d="M22.872,96.8c-1.448-.121-2.28-.809-2.331-2.257a2.068,2.068,0,0,1,1.979-2.292,2.128,2.128,0,0,1,2.436,2.1A2.264,2.264,0,0,1,22.872,96.8" transform="translate(2.541 11.379)" fill="#20ab9a"/>
    <path id="パス_943" data-name="パス 943" d="M148.034,73.934a2.235,2.235,0,0,1-2.368,2.25,2.04,2.04,0,0,1-2.193-2.129,1.984,1.984,0,0,1,2.068-2.21,2.2,2.2,0,0,1,2.494,2.088" transform="translate(17.75 8.863)" fill="#20ab9a"/>
    <path id="パス_944" data-name="パス 944" d="M156.194,71.836a1.945,1.945,0,0,1,1.981,2.128,2.252,2.252,0,0,1-4.5.055c.025-1.351.863-2.214,2.521-2.183" transform="translate(19.012 8.862)" fill="#20ab9a"/>
    <path id="パス_945" data-name="パス 945" d="M117.083,22.65a2.018,2.018,0,0,1-2.182,2.323,2.05,2.05,0,0,1-2.21-2.114,2.054,2.054,0,0,1,2.246-2.283,1.918,1.918,0,0,1,2.146,2.074" transform="translate(13.942 2.538)" fill="#20ab9a"/>
    <path id="パス_946" data-name="パス 946" d="M4.353,84.1c-.009,1.591-.793,2.367-2.082,2.4a2.221,2.221,0,1,1,.1-4.437A1.857,1.857,0,0,1,4.353,84.1" transform="translate(0 10.123)" fill="#20ab9a"/>
    <path id="パス_947" data-name="パス 947" d="M145.716,86.562c-1.338-.3-2.324-.971-2.242-2.437a2.055,2.055,0,0,1,2.243-2.076,2.1,2.1,0,0,1,2.253,2.093c.075,1.456-.966,2.1-2.254,2.42" transform="translate(17.75 10.122)" fill="#20ab9a"/>
    <path id="パス_948" data-name="パス 948" d="M94.341,81.971c1.46.256,2.414.882,2.365,2.351a2.117,2.117,0,0,1-2.145,2.171,2.152,2.152,0,0,1-2.356-2.2c-.043-1.4.941-2.068,2.136-2.319" transform="translate(11.407 10.113)" fill="#20ab9a"/>
    <path id="パス_949" data-name="パス 949" d="M32.929,82c1.352.161,2.307.843,2.3,2.253a2.244,2.244,0,0,1-4.486.108c-.065-1.4.8-2.151,2.186-2.361" transform="translate(3.803 10.116)" fill="#20ab9a"/>
    <path id="パス_950" data-name="パス 950" d="M43.324,82c1.239.24,2.131.836,2.11,2.231a2.1,2.1,0,0,1-2.31,2.251,2.132,2.132,0,0,1-2.185-2.2A2.3,2.3,0,0,1,43.324,82" transform="translate(5.065 10.116)" fill="#20ab9a"/>
    <path id="パス_951" data-name="パス 951" d="M25.033,33.08c-.34,1.272-.994,2.3-2.468,2.187a2.039,2.039,0,0,1-2.018-2.3,2.033,2.033,0,0,1,2.332-2.2c1.3.079,1.964,1.008,2.154,2.3" transform="translate(2.542 3.796)" fill="#20ab9a"/>
    <path id="パス_952" data-name="パス 952" d="M148.046,33.135c-.391,1.229-1.069,2.25-2.494,2.125a2.124,2.124,0,0,1-2.069-2.46,2.071,2.071,0,0,1,2.262-2.03,2.376,2.376,0,0,1,2.3,2.365" transform="translate(17.75 3.796)" fill="#20ab9a"/>
    <path id="パス_953" data-name="パス 953" d="M53.419,168.438a2.189,2.189,0,0,1-2.236-2.185,2.155,2.155,0,0,1,2.316-2.3,2.114,2.114,0,0,1,2.113,2.448c-.07,1.424-.917,1.975-2.192,2.034" transform="translate(6.332 20.227)" fill="#20ab9a"/>
    <path id="パス_954" data-name="パス 954" d="M84.224,86.557c-1.339-.284-2.291-.941-2.216-2.425a2.028,2.028,0,0,1,2.218-2.082,2.1,2.1,0,0,1,2.247,2.1c.075,1.437-.925,2.132-2.25,2.411" transform="translate(10.146 10.123)" fill="#20ab9a"/>
    <path id="パス_955" data-name="パス 955" d="M35.306,33.134c-.4,1.212-1.039,2.278-2.479,2.124A2.153,2.153,0,0,1,30.751,32.8a2.1,2.1,0,0,1,2.265-2.031c1.4.054,2.086.993,2.29,2.366" transform="translate(3.803 3.796)" fill="#20ab9a"/>
    <path id="パス_956" data-name="パス 956" d="M94.442,30.7c1.314.263,2.286.911,2.254,2.35a2.239,2.239,0,0,1-4.477.038c-.1-1.366.906-2.1,2.223-2.388" transform="translate(11.409 3.787)" fill="#20ab9a"/>
    <path id="パス_957" data-name="パス 957" d="M135.436,25.009a2.123,2.123,0,0,1-2.151-2.028,2,2,0,0,1,2.056-2.406,2.033,2.033,0,0,1,2.312,2.191c.037,1.305-.766,2.069-2.217,2.243" transform="translate(16.489 2.538)" fill="#20ab9a"/>
    <path id="パス_958" data-name="パス 958" d="M123.026,84.249a2,2,0,0,1,2.092-2.192,2.221,2.221,0,0,1,.142,4.436,2.034,2.034,0,0,1-2.234-2.245" transform="translate(15.221 10.123)" fill="#20ab9a"/>
    <path id="パス_959" data-name="パス 959" d="M137.693,84.228c-.16,1.369-.852,2.255-2.171,2.265a2.037,2.037,0,0,1-2.241-2.273,1.993,1.993,0,0,1,2.31-2.167c1.348.056,1.934.994,2.1,2.175" transform="translate(16.489 10.123)" fill="#20ab9a"/>
    <path id="パス_960" data-name="パス 960" d="M94.521,158.266a2.25,2.25,0,0,1-2.3-2.308,2.239,2.239,0,0,1,4.477-.034,2.2,2.2,0,0,1-2.173,2.342" transform="translate(11.409 18.965)" fill="#20ab9a"/>
    <path id="パス_961" data-name="パス 961" d="M71.779,156.075a2.141,2.141,0,0,1,2.231-2.356,2.256,2.256,0,0,1-.107,4.507c-1.4-.018-2.013-.856-2.124-2.151" transform="translate(8.88 18.964)" fill="#20ab9a"/>
    <path id="パス_962" data-name="パス 962" d="M168.35,84.667a1.977,1.977,0,0,1-2.138,1.822,2.223,2.223,0,1,1,.152-4.433c1.3.1,2.037.889,1.987,2.611" transform="translate(20.279 10.122)" fill="#20ab9a"/>
    <path id="パス_963" data-name="パス 963" d="M166.153,71.825c1.322.06,2.144.628,2.2,2.046a2.017,2.017,0,0,1-2.179,2.316,2.042,2.042,0,0,1-2.26-2.058,2.106,2.106,0,0,1,2.24-2.3" transform="translate(20.279 8.861)" fill="#20ab9a"/>
    <path id="パス_964" data-name="パス 964" d="M14.618,94.583c-.154,1.285-.727,2.185-2.133,2.169a2.259,2.259,0,0,1-.051-4.513c1.46-.026,2.134.928,2.183,2.343" transform="translate(1.276 11.38)" fill="#20ab9a"/>
    <path id="パス_965" data-name="パス 965" d="M135.532,71.832a1.988,1.988,0,0,1,2.115,2.16,2.01,2.01,0,0,1-2.294,2.2,2.18,2.18,0,0,1,.179-4.355" transform="translate(16.489 8.862)" fill="#20ab9a"/>
    <path id="パス_966" data-name="パス 966" d="M35.311,94.526c-.337,1.253-.939,2.289-2.4,2.212a2.247,2.247,0,0,1,.013-4.491c1.386-.024,2.1.95,2.383,2.279" transform="translate(3.804 11.381)" fill="#20ab9a"/>
    <path id="パス_967" data-name="パス 967" d="M155.788,40.839c1.336.4,2.352.982,2.378,2.42a2.012,2.012,0,0,1-2.052,2.214,2.165,2.165,0,0,1-2.442-2.105c-.146-1.427,1.021-2.021,2.116-2.529" transform="translate(19.011 5.038)" fill="#20ab9a"/>
    <path id="パス_968" data-name="パス 968" d="M106.921,22.678a2.122,2.122,0,0,1-2.277,2.28,2.1,2.1,0,0,1-2.231-2.133,2.127,2.127,0,0,1,2.322-2.251,2.01,2.01,0,0,1,2.186,2.1" transform="translate(12.671 2.538)" fill="#20ab9a"/>
    <path id="パス_969" data-name="パス 969" d="M65.83,94.766a1.91,1.91,0,0,1-2.049,1.983,2.252,2.252,0,1,1,.065-4.5c1.3.071,2,.935,1.983,2.52" transform="translate(7.614 11.38)" fill="#20ab9a"/>
    <path id="パス_970" data-name="パス 970" d="M117.082,73.973a1.97,1.97,0,0,1-2.042,2.214,2.178,2.178,0,1,1-.02-4.344,1.9,1.9,0,0,1,2.062,2.13" transform="translate(13.942 8.863)" fill="#20ab9a"/>
    <path id="パス_971" data-name="パス 971" d="M104.816,71.823A1.974,1.974,0,0,1,106.9,73.99a2.244,2.244,0,0,1-4.487.02,2.146,2.146,0,0,1,2.406-2.187" transform="translate(12.67 8.861)" fill="#20ab9a"/>
    <path id="パス_972" data-name="パス 972" d="M96.771,94.488c-.26,1.309-.9,2.291-2.343,2.251a2.245,2.245,0,0,1-.049-4.489c1.381-.049,2.126.89,2.392,2.238" transform="translate(11.409 11.381)" fill="#20ab9a"/>
    <path id="パス_973" data-name="パス 973" d="M86.543,22.684c-.2,1.426-.991,2.321-2.39,2.274A2.056,2.056,0,0,1,82,22.785a2.008,2.008,0,0,1,2.073-2.21c1.472-.1,2.173.8,2.465,2.109" transform="translate(10.145 2.538)" fill="#20ab9a"/>
    <path id="パス_974" data-name="パス 974" d="M145.748,148.07c-1.3-.238-2.2-.9-2.273-2.2a2.244,2.244,0,0,1,4.478-.288c.06,1.387-1.019,2.07-2.2,2.488" transform="translate(17.75 17.708)" fill="#20ab9a"/>
    <path id="パス_975" data-name="パス 975" d="M127.346,94.548c-.1,1.267-.671,2.169-2.062,2.2a2,2,0,0,1-2.24-2.261,2.026,2.026,0,0,1,2.274-2.242c1.32.049,1.982.949,2.027,2.3" transform="translate(15.223 11.38)" fill="#20ab9a"/>
    <path id="パス_976" data-name="パス 976" d="M137.7,94.555c-.3,1.3-.909,2.31-2.423,2.192a2.021,2.021,0,0,1-2-2.291,2.049,2.049,0,0,1,2.1-2.214c1.455-.055,2.117.956,2.326,2.313" transform="translate(16.489 11.38)" fill="#20ab9a"/>
    <path id="パス_977" data-name="パス 977" d="M145.873,96.841c-1.557-.258-2.435-1.009-2.395-2.412a2.1,2.1,0,0,1,2.136-2.177,2.18,2.18,0,0,1,2.349,2.22c.037,1.4-1,2.036-2.09,2.369" transform="translate(17.751 11.381)" fill="#20ab9a"/>
    <path id="パス_978" data-name="パス 978" d="M127.343,145.656c-.034,1.41-.683,2.351-2.158,2.353a1.986,1.986,0,0,1-2.146-2.128,2.027,2.027,0,0,1,2.145-2.352,2.005,2.005,0,0,1,2.159,2.127" transform="translate(15.222 17.707)" fill="#20ab9a"/>
    <path id="パス_979" data-name="パス 979" d="M55.632,53.475A1.933,1.933,0,0,1,53.6,55.647a2.1,2.1,0,0,1-2.414-2.14,2.149,2.149,0,0,1,2.323-2.286,2.108,2.108,0,0,1,2.125,2.253" transform="translate(6.332 6.319)" fill="#20ab9a"/>
    <path id="パス_980" data-name="パス 980" d="M65.831,145.781A1.983,1.983,0,0,1,63.791,148a2.236,2.236,0,1,1,.04-4.471,1.958,1.958,0,0,1,2,2.249" transform="translate(7.613 17.707)" fill="#20ab9a"/>
    <path id="パス_981" data-name="パス 981" d="M35.3,145.678c-.233,1.364-.947,2.335-2.334,2.315a2.147,2.147,0,0,1-2.226-2.319,2.062,2.062,0,0,1,2.122-2.151c1.417-.059,2.125.871,2.438,2.155" transform="translate(3.804 17.706)" fill="#20ab9a"/>
    <path id="パス_982" data-name="パス 982" d="M135.2,55.656a1.914,1.914,0,0,1-1.922-2.188,2.091,2.091,0,0,1,2.3-2.24,2.042,2.042,0,0,1,2.066,2.248,2.085,2.085,0,0,1-2.443,2.18" transform="translate(16.49 6.32)" fill="#20ab9a"/>
    <path id="パス_983" data-name="パス 983" d="M53.431,71.825c1.308.065,2.141.62,2.185,2.047a2.018,2.018,0,0,1-2.179,2.316,2.05,2.05,0,0,1-2.256-2.06,2.115,2.115,0,0,1,2.251-2.3" transform="translate(6.332 8.861)" fill="#20ab9a"/>
    <path id="パス_984" data-name="パス 984" d="M22.595,71.831a2.079,2.079,0,0,1,2.374,2.236,2.005,2.005,0,0,1-2.178,2.118,2.018,2.018,0,0,1-2.247-2.249,1.955,1.955,0,0,1,2.051-2.1" transform="translate(2.542 8.862)" fill="#20ab9a"/>
    <path id="パス_985" data-name="パス 985" d="M22.639,20.518c1.514.19,2.322.951,2.331,2.221a2.07,2.07,0,0,1-2.3,2.229,2,2,0,0,1-2.127-2.133c.009-1.485,1.051-2,2.092-2.316" transform="translate(2.542 2.531)" fill="#20ab9a"/>
    <path id="パス_986" data-name="パス 986" d="M137.687,135.456c-.127,1.336-.8,2.238-2.111,2.269a2.033,2.033,0,0,1-2.292-2.209,1.959,1.959,0,0,1,2.044-2.2c1.521-.081,2.138.834,2.36,2.134" transform="translate(16.49 16.447)" fill="#20ab9a"/>
    <path id="パス_987" data-name="パス 987" d="M32.977,65.86c-1.424-.036-2.252-.762-2.232-2.087a2.053,2.053,0,0,1,2.313-2.215A2.033,2.033,0,0,1,35.24,63.68c.027,1.491-.889,2.152-2.263,2.179" transform="translate(3.804 7.594)" fill="#20ab9a"/>
    <path id="パス_988" data-name="パス 988" d="M84.315,14.664c-1.408-.072-2.262-.711-2.3-2.067a2.236,2.236,0,0,1,4.463-.211c.079,1.464-.837,2.164-2.162,2.278" transform="translate(10.146 1.276)" fill="#20ab9a"/>
    <path id="パス_989" data-name="パス 989" d="M94.61,127.369c-1.489-.027-2.382-.711-2.4-2.032a2.251,2.251,0,1,1,4.5,0,1.968,1.968,0,0,1-2.1,2.034" transform="translate(11.408 15.184)" fill="#20ab9a"/>
    <path id="パス_990" data-name="パス 990" d="M84.258,127.362a1.967,1.967,0,0,1-2.245-2.009,2,2,0,0,1,2.2-2.28,2.031,2.031,0,0,1,2.263,2.249c-.021,1.347-.91,1.989-2.223,2.04" transform="translate(10.146 15.184)" fill="#20ab9a"/>
    <path id="パス_991" data-name="パス 991" d="M106.924,104.7a2.038,2.038,0,0,1-2.088,2.23,2.15,2.15,0,0,1-2.421-2.127,2.255,2.255,0,1,1,4.508-.1" transform="translate(12.67 12.64)" fill="#20ab9a"/>
    <path id="パス_992" data-name="パス 992" d="M32.938,127.37c-1.368-.069-2.217-.778-2.192-2.105a2.037,2.037,0,0,1,2.319-2.191,2,2,0,0,1,2.178,2.109c.019,1.491-.906,2.141-2.3,2.187" transform="translate(3.804 15.184)" fill="#20ab9a"/>
    <path id="パス_993" data-name="パス 993" d="M94.493,10.33c1.371.071,2.261.737,2.216,2.239a2.259,2.259,0,0,1-4.5.062,2.076,2.076,0,0,1,2.28-2.3" transform="translate(11.408 1.274)" fill="#20ab9a"/>
    <path id="パス_994" data-name="パス 994" d="M135.016,117.127c-.943,0-1.684-.7-1.734-2.047a2.063,2.063,0,0,1,2.188-2.326,2,2,0,0,1,2.173,2.106c.03,1.39-.693,2.26-2.627,2.267" transform="translate(16.489 13.91)" fill="#20ab9a"/>
    <path id="パス_995" data-name="パス 995" d="M55.625,115.27a1.874,1.874,0,0,1-2.176,1.85,2.061,2.061,0,0,1-2.264-2.257,2.093,2.093,0,0,1,2.24-2.107c1.371.03,2.225.835,2.2,2.514" transform="translate(6.332 13.911)" fill="#20ab9a"/>
    <path id="パス_996" data-name="パス 996" d="M22.646,127.363a1.89,1.89,0,0,1-2.1-1.955,1.994,1.994,0,0,1,2.127-2.338,2.023,2.023,0,0,1,2.3,2.2c.009,1.311-.812,2.043-2.327,2.093" transform="translate(2.542 15.183)" fill="#20ab9a"/>
    <path id="パス_997" data-name="パス 997" d="M135.418,65.858a1.9,1.9,0,0,1-2.134-2.051,2.186,2.186,0,1,1,2.134,2.051" transform="translate(16.49 7.593)" fill="#20ab9a"/>
    <path id="パス_998" data-name="パス 998" d="M73.769,20.541c1.557.065,2.3.841,2.355,2.124a2.167,2.167,0,1,1-4.327.207,2.063,2.063,0,0,1,1.972-2.331" transform="translate(8.882 2.534)" fill="#20ab9a"/>
    <path id="パス_999" data-name="パス 999" d="M14.61,43.388a1.975,1.975,0,0,1-2.045,2.083c-1.531.051-2.218-.807-2.25-2.242a2.032,2.032,0,0,1,2.253-2.264c1.3.026,2.008.935,2.042,2.423" transform="translate(1.276 5.054)" fill="#20ab9a"/>
    <path id="パス_1000" data-name="パス 1000" d="M65.837,43.445a1.914,1.914,0,0,1-2.052,2.021A2.027,2.027,0,0,1,61.536,43.2a2.041,2.041,0,0,1,2.078-2.236c1.4-.047,2.21.826,2.223,2.478" transform="translate(7.613 5.054)" fill="#20ab9a"/>
    <path id="パス_1001" data-name="パス 1001" d="M104.894,10.333a1.943,1.943,0,0,1,2,2.1c.025,1.527-.852,2.2-2.265,2.206a2.012,2.012,0,0,1-2.22-2.079c0-1.346.845-2.22,2.482-2.223" transform="translate(12.67 1.275)" fill="#20ab9a"/>
    <path id="パス_1002" data-name="パス 1002" d="M135.311,148.057a2.2,2.2,0,0,1-2.029-2.506,1.981,1.981,0,0,1,2.243-2.021,2.086,2.086,0,0,1,2.115,2.432,2.21,2.21,0,0,1-2.328,2.1" transform="translate(16.488 17.707)" fill="#20ab9a"/>
    <path id="パス_1003" data-name="パス 1003" d="M14.6,53.78a1.833,1.833,0,0,1-1.937,1.861,1.965,1.965,0,0,1-2.352-2.078,2.069,2.069,0,0,1,2.183-2.34c1.242-.03,2.081.775,2.106,2.557" transform="translate(1.275 6.319)" fill="#20ab9a"/>
    <path id="パス_1004" data-name="パス 1004" d="M63.78,117.125a1.94,1.94,0,0,1-2.244-2.021,2.038,2.038,0,0,1,2.2-2.348,1.974,1.974,0,0,1,2.1,2.2,1.9,1.9,0,0,1-2.054,2.166" transform="translate(7.613 13.911)" fill="#20ab9a"/>
    <path id="パス_1005" data-name="パス 1005" d="M2.867,55.643C.8,55.687.029,54.827.008,53.447a2.066,2.066,0,0,1,2.116-2.218,2.045,2.045,0,0,1,2.228,2.285c0,1.388-.706,2.055-1.486,2.129" transform="translate(0.001 6.32)" fill="#20ab9a"/>
    <path id="パス_1006" data-name="パス 1006" d="M104.9,65.861c-1.656-.007-2.538-.823-2.491-2.214a2.07,2.07,0,0,1,2.241-2.094,2.026,2.026,0,0,1,2.243,2.258,1.886,1.886,0,0,1-1.992,2.05" transform="translate(12.67 7.594)" fill="#20ab9a"/>
    <path id="パス_1007" data-name="パス 1007" d="M94.474,65.861c-1.48-.051-2.3-.809-2.268-2.119a2.067,2.067,0,0,1,2.355-2.182,2.027,2.027,0,0,1,2.152,2.151c.01,1.528-.935,2.12-2.24,2.149" transform="translate(11.408 7.594)" fill="#20ab9a"/>
    <path id="パス_1008" data-name="パス 1008" d="M84.706,65.845c-1.777.035-2.627-.594-2.691-1.958a2.235,2.235,0,1,1,4.468-.106,1.9,1.9,0,0,1-1.777,2.064" transform="translate(10.146 7.594)" fill="#20ab9a"/>
    <path id="パス_1009" data-name="パス 1009" d="M115.771,117.08c-2.18.119-3.033-.716-3.084-2.074a2.069,2.069,0,0,1,2.083-2.241,2.017,2.017,0,0,1,2.307,2.176c.046,1.393-.674,2.051-1.307,2.139" transform="translate(13.941 13.912)" fill="#20ab9a"/>
    <path id="パス_1010" data-name="パス 1010" d="M43.168,10.326c1.416.066,2.3.7,2.27,2.224a1.985,1.985,0,0,1-2.173,2.089,2.037,2.037,0,0,1-2.326-1.976,2.108,2.108,0,0,1,2.229-2.338" transform="translate(5.064 1.274)" fill="#20ab9a"/>
    <path id="パス_1011" data-name="パス 1011" d="M156.282,65.849c-1.678.026-2.564-.69-2.609-1.986a2.252,2.252,0,1,1,4.5-.052,1.871,1.871,0,0,1-1.893,2.038" transform="translate(19.012 7.595)" fill="#20ab9a"/>
    <path id="パス_1012" data-name="パス 1012" d="M127.344,104.838a2.153,2.153,0,1,1-4.3-.118,2.064,2.064,0,0,1,2.043-2.271c1.39-.082,2.2.819,2.262,2.389" transform="translate(15.222 12.639)" fill="#20ab9a"/>
    <path id="パス_1013" data-name="パス 1013" d="M65.827,23.13a1.867,1.867,0,0,1-2.081,1.836,2,2,0,0,1-2.213-2.256,2,2,0,0,1,2.336-2.128c1.345.07,1.993.884,1.957,2.548" transform="translate(7.613 2.539)" fill="#20ab9a"/>
    <path id="パス_1014" data-name="パス 1014" d="M74.465,4.379c-1.887-.01-2.61-.7-2.665-2.055a2.17,2.17,0,1,1,4.329.01c-.055,1.3-.778,2.082-1.663,2.045" transform="translate(8.883 0)" fill="#20ab9a"/>
    <path id="パス_1015" data-name="パス 1015" d="M74.657,168.394c-2,.065-2.731-.634-2.853-1.983a2.173,2.173,0,1,1,4.323-.176c-.008,1.291-.687,2.123-1.47,2.159" transform="translate(8.882 20.226)" fill="#20ab9a"/>
    <path id="パス_1016" data-name="パス 1016" d="M65.834,166.389A1.911,1.911,0,0,1,63.66,168.4a1.98,1.98,0,0,1-2.119-2.347,2.042,2.042,0,0,1,2.2-2.106,2.065,2.065,0,0,1,2.1,2.44" transform="translate(7.613 20.226)" fill="#20ab9a"/>
    <path id="パス_1017" data-name="パス 1017" d="M65.827,53.889a1.805,1.805,0,0,1-2.05,1.758,1.977,1.977,0,0,1-2.242-2.207,2.029,2.029,0,0,1,2.088-2.211c1.364-.033,2.228.794,2.2,2.66" transform="translate(7.613 6.32)" fill="#20ab9a"/>
    <path id="パス_1018" data-name="パス 1018" d="M166.732,65.833c-1.931.091-2.81-.744-2.83-2.093a2.082,2.082,0,0,1,2.12-2.191c1.528-.091,2.168.831,2.289,2.2a1.707,1.707,0,0,1-1.58,2.084" transform="translate(20.278 7.593)" fill="#20ab9a"/>
    <path id="パス_1019" data-name="パス 1019" d="M43.444,127.369c-1.6-.024-2.547-.743-2.51-2.176a2.051,2.051,0,0,1,2.206-2.118,2.014,2.014,0,0,1,2.3,2.2,1.954,1.954,0,0,1-2,2.1" transform="translate(5.064 15.184)" fill="#20ab9a"/>
    <path id="パス_1020" data-name="パス 1020" d="M53.651,127.367c-1.632-.011-2.521-.819-2.469-2.21a2.005,2.005,0,0,1,2.194-2.086,1.983,1.983,0,0,1,2.24,2.215,1.876,1.876,0,0,1-1.964,2.08" transform="translate(6.332 15.183)" fill="#20ab9a"/>
    <path id="パス_1021" data-name="パス 1021" d="M71.773,84.32c.126-1.614.971-2.358,2.383-2.264a2.231,2.231,0,0,1-.174,4.445,2.072,2.072,0,0,1-2.209-2.182" transform="translate(8.88 10.122)" fill="#20ab9a"/>
    <path id="パス_1022" data-name="パス 1022" d="M65.832,84.373a2.151,2.151,0,1,1-4.3-.113,2.025,2.025,0,0,1,2.29-2.2c1.325.042,2.025.854,2.009,2.315" transform="translate(7.613 10.123)" fill="#20ab9a"/>
    <path id="パス_1023" data-name="パス 1023" d="M125.573,55.652c-1.687.016-2.44-.647-2.533-2a2.067,2.067,0,0,1,2.1-2.42,2.013,2.013,0,0,1,2.192,2.3c-.034,1.322-.688,2.1-1.756,2.124" transform="translate(15.221 6.32)" fill="#20ab9a"/>
    <path id="パス_1024" data-name="パス 1024" d="M127.345,156.092c-.106,1.22-.659,2.111-2.071,2.132a2,2,0,0,1-2.232-2.266,2.032,2.032,0,0,1,2.069-2.24c1.427-.055,2.182.857,2.234,2.374" transform="translate(15.223 18.964)" fill="#20ab9a"/>
    <path id="パス_1025" data-name="パス 1025" d="M105.011,127.358c-1.7,0-2.581-.763-2.6-2.032a2.075,2.075,0,0,1,2.294-2.25,1.984,1.984,0,0,1,2.189,2.284,1.864,1.864,0,0,1-1.884,2" transform="translate(12.67 15.184)" fill="#20ab9a"/>
    <path id="パス_1026" data-name="パス 1026" d="M117.056,124.548c.071,1.957-.571,2.726-1.944,2.807a2.154,2.154,0,1,1-.171-4.29c1.369.019,2.024.765,2.115,1.483" transform="translate(13.942 15.183)" fill="#20ab9a"/>
    <path id="パス_1027" data-name="パス 1027" d="M135.358,35.332a2.2,2.2,0,0,1-2.074-2.482,2.02,2.02,0,0,1,2.211-2.085,2.066,2.066,0,0,1,2.144,2.2,2.247,2.247,0,0,1-2.281,2.37" transform="translate(16.489 3.795)" fill="#20ab9a"/>
    <path id="パス_1028" data-name="パス 1028" d="M134.971,127.346a1.839,1.839,0,0,1-1.688-2.146,1.952,1.952,0,0,1,2.145-2.13,2,2,0,0,1,2.222,2.3c-.045,1.356-.9,2.03-2.679,1.979" transform="translate(16.49 15.183)" fill="#20ab9a"/>
    <path id="パス_1029" data-name="パス 1029" d="M10.3,84.02a1.962,1.962,0,0,1,2.169-1.965A2.226,2.226,0,0,1,12.45,86.5c-1.428-.03-2.163-.905-2.146-2.484" transform="translate(1.275 10.123)" fill="#20ab9a"/>
    <path id="パス_1030" data-name="パス 1030" d="M156.1,127.366c-1.514-.02-2.408-.725-2.431-2.034a2.031,2.031,0,0,1,2.264-2.252c1.433.034,2.291.74,2.242,2.259a1.95,1.95,0,0,1-2.076,2.028" transform="translate(19.012 15.184)" fill="#20ab9a"/>
    <path id="パス_1031" data-name="パス 1031" d="M71.784,105.017c.043-1.838.978-2.615,2.31-2.569a2.064,2.064,0,0,1,2.033,2.307,2.031,2.031,0,0,1-2.326,2.186,1.957,1.957,0,0,1-2.017-1.924" transform="translate(8.881 12.639)" fill="#20ab9a"/>
    <path id="パス_1032" data-name="パス 1032" d="M10.291,135.387a2,2,0,0,1,2.282-2.06,1.921,1.921,0,0,1,2.02,2.182,1.954,1.954,0,0,1-2.02,2.218c-1.379.03-2.249-.72-2.282-2.339" transform="translate(1.273 16.449)" fill="#20ab9a"/>
    <path id="パス_1033" data-name="パス 1033" d="M53.513,65.864c-1.5-.028-2.374-.83-2.331-2.228a2.218,2.218,0,0,1,4.432.167c0,1.436-.808,2.011-2.1,2.06" transform="translate(6.332 7.594)" fill="#20ab9a"/>
    <path id="パス_1034" data-name="パス 1034" d="M43.4,65.861c-1.584,0-2.5-.755-2.469-2.179a2.255,2.255,0,0,1,4.506.094c.015,1.438-.866,1.982-2.037,2.085" transform="translate(5.064 7.594)" fill="#20ab9a"/>
    <path id="パス_1035" data-name="パス 1035" d="M127.337,43.463a1.931,1.931,0,0,1-1.993,2,1.99,1.99,0,0,1-2.3-2.191,2.052,2.052,0,0,1,2.22-2.307c1.277.007,2.044.871,2.072,2.5" transform="translate(15.223 5.054)" fill="#20ab9a"/>
    <path id="パス_1036" data-name="パス 1036" d="M65.822,105.212a1.843,1.843,0,0,1-2.113,1.724,2.011,2.011,0,0,1-2.17-2.323,2.054,2.054,0,0,1,2.15-2.17c1.372,0,2.182.913,2.133,2.769" transform="translate(7.614 12.638)" fill="#20ab9a"/>
    <path id="パス_1037" data-name="パス 1037" d="M65.805,134.869c.088,2-.69,2.85-2.1,2.862a1.98,1.98,0,0,1-2.168-2.1,2,2,0,0,1,2.154-2.312,1.828,1.828,0,0,1,2.115,1.546" transform="translate(7.613 16.448)" fill="#20ab9a"/>
    <path id="パス_1038" data-name="パス 1038" d="M71.786,135.314a2,2,0,0,1,2.369-1.987,2.209,2.209,0,0,1-.171,4.4,2.089,2.089,0,0,1-2.2-2.415" transform="translate(8.881 16.448)" fill="#20ab9a"/>
    <path id="パス_1039" data-name="パス 1039" d="M127.336,22.474c-.024,1.709-.8,2.5-2.12,2.492a2,2,0,0,1-2.177-2.344,1.966,1.966,0,0,1,2.237-2.043,1.881,1.881,0,0,1,2.06,1.9" transform="translate(15.222 2.539)" fill="#20ab9a"/>
    <path id="パス_1040" data-name="パス 1040" d="M65.84,73.867a1.955,1.955,0,0,1-1.978,2.31A1.98,1.98,0,0,1,61.535,74a1.945,1.945,0,0,1,2.108-2.158,1.924,1.924,0,0,1,2.2,2.024" transform="translate(7.613 8.863)" fill="#20ab9a"/>
    <path id="パス_1041" data-name="パス 1041" d="M22.7,65.862c-1.414-.052-2.164-.755-2.15-2.116a2.019,2.019,0,0,1,2.29-2.2,2.159,2.159,0,1,1-.14,4.315" transform="translate(2.542 7.593)" fill="#20ab9a"/>
    <path id="パス_1042" data-name="パス 1042" d="M65.837,156.209a1.929,1.929,0,0,1-2.123,2.015,2.257,2.257,0,0,1-.024-4.509c1.423,0,2.16.927,2.146,2.494" transform="translate(7.614 18.964)" fill="#20ab9a"/>
    <path id="パス_1043" data-name="パス 1043" d="M127.327,135.181c.04,1.664-.7,2.547-2.126,2.549a2.2,2.2,0,0,1-.024-4.4,1.893,1.893,0,0,1,2.15,1.856" transform="translate(15.222 16.448)" fill="#20ab9a"/>
    <path id="パス_1044" data-name="パス 1044" d="M14.612,104.944a1.962,1.962,0,0,1-2.149,2c-1.543-.008-2.147-.9-2.152-2.33a2.028,2.028,0,0,1,2.135-2.168c1.407-.03,2.155.938,2.165,2.5" transform="translate(1.276 12.638)" fill="#20ab9a"/>
    <path id="パス_1045" data-name="パス 1045" d="M104.972.124A1.983,1.983,0,0,1,106.9,2.408c-.093,1.405-.934,1.963-2.255,1.939a2.019,2.019,0,0,1-2.219-2.269c.075-1.224.891-2.049,2.551-1.954" transform="translate(12.671 0.014)" fill="#20ab9a"/>
    <path id="パス_1046" data-name="パス 1046" d="M127.33,73.732c-.018,1.747-.83,2.478-2.147,2.453a1.989,1.989,0,0,1-2.138-2.367,1.932,1.932,0,0,1,2.267-1.974,1.84,1.84,0,0,1,2.019,1.887" transform="translate(15.222 8.863)" fill="#20ab9a"/>
    <path id="パス_1047" data-name="パス 1047" d="M12.315,71.824c1.65.057,2.267.869,2.278,2.2a1.919,1.919,0,0,1-2.1,2.16,2,2,0,0,1-2.186-2.324,1.935,1.935,0,0,1,2.008-2.04" transform="translate(1.274 8.861)" fill="#20ab9a"/>
    <path id="パス_1048" data-name="パス 1048" d="M53.254,10.322c1.426.047,2.279.58,2.358,1.994a1.973,1.973,0,0,1-2.125,2.328,2.021,2.021,0,0,1-2.3-1.977,2.093,2.093,0,0,1,2.069-2.344" transform="translate(6.332 1.273)" fill="#20ab9a"/>
    <path id="パス_1049" data-name="パス 1049" d="M2.391,71.834a1.878,1.878,0,0,1,1.961,2.1,1.978,1.978,0,0,1-2.2,2.257,1.979,1.979,0,0,1-2.146-2.12,2.073,2.073,0,0,1,2.382-2.233" transform="translate(0.001 8.862)" fill="#20ab9a"/>
    <path id="パス_1050" data-name="パス 1050" d="M73.921,55.655A1.941,1.941,0,0,1,71.8,53.563a2.074,2.074,0,0,1,2.19-2.337,2.036,2.036,0,0,1,2.131,2.379,1.959,1.959,0,0,1-2.2,2.05" transform="translate(8.883 6.32)" fill="#20ab9a"/>
    <path id="パス_1051" data-name="パス 1051" d="M117.083,12.514A1.928,1.928,0,0,1,115,14.644a2.017,2.017,0,0,1-2.307-2.18,2.047,2.047,0,0,1,2.378-2.121,1.908,1.908,0,0,1,2.016,2.171" transform="translate(13.942 1.275)" fill="#20ab9a"/>
    <path id="パス_1052" data-name="パス 1052" d="M74.35,117.129c-1.753,0-2.481-.679-2.551-2.032a2.051,2.051,0,0,1,2.158-2.342,1.962,1.962,0,0,1,2.156,2.094c.033,1.412-.653,2.257-1.763,2.28" transform="translate(8.882 13.91)" fill="#20ab9a"/>
    <path id="パス_1053" data-name="パス 1053" d="M65.835,2.353a1.9,1.9,0,0,1-2.2,2.012,1.92,1.92,0,0,1-2.1-2.154,2.021,2.021,0,0,1,2.334-2.2,2,2,0,0,1,1.964,2.34" transform="translate(7.613 0.001)" fill="#20ab9a"/>
    <path id="パス_1054" data-name="パス 1054" d="M117.09,63.664c-.029,1.521-.762,2.188-2.123,2.191a2.019,2.019,0,0,1-2.272-2.214,2.2,2.2,0,0,1,4.395.024" transform="translate(13.942 7.593)" fill="#20ab9a"/>
    <path id="パス_1055" data-name="パス 1055" d="M74.044,127.361c-1.307-.02-2.192-.557-2.24-1.985a2.165,2.165,0,1,1,4.324-.184,1.907,1.907,0,0,1-2.085,2.169" transform="translate(8.883 15.183)" fill="#20ab9a"/>
    <path id="パス_1056" data-name="パス 1056" d="M73.864,65.86A1.919,1.919,0,0,1,71.8,63.694a1.944,1.944,0,0,1,2.125-2.146,1.988,1.988,0,0,1,2.195,2.31,1.919,1.919,0,0,1-2.255,2" transform="translate(8.883 7.593)" fill="#20ab9a"/>
    <path id="パス_1057" data-name="パス 1057" d="M127.314,115.43c-.091,1.005-.77,1.724-2.187,1.692a1.9,1.9,0,0,1-2.087-2.142,2.011,2.011,0,0,1,2.316-2.21c1.321.06,2.025.937,1.958,2.66" transform="translate(15.222 13.912)" fill="#20ab9a"/>
    <path id="パス_1058" data-name="パス 1058" d="M73.915,71.833a2.176,2.176,0,0,1,.192,4.346,1.989,1.989,0,0,1-2.307-2.2,1.963,1.963,0,0,1,2.115-2.149" transform="translate(8.883 8.862)" fill="#20ab9a"/>
    <path id="パス_1059" data-name="パス 1059" d="M2.2,117.132A1.984,1.984,0,0,1,0,115.06a2.067,2.067,0,0,1,2.227-2.307,2.027,2.027,0,0,1,2.122,2.366,1.892,1.892,0,0,1-2.15,2.013" transform="translate(0 13.91)" fill="#20ab9a"/>
    <path id="パス_1060" data-name="パス 1060" d="M65.835,12.435c-.04,1.565-.844,2.218-2.181,2.2A1.925,1.925,0,0,1,61.537,12.5a1.971,1.971,0,0,1,2.319-2.154,1.865,1.865,0,0,1,1.979,2.089" transform="translate(7.613 1.276)" fill="#20ab9a"/>
    <path id="パス_1061" data-name="パス 1061" d="M4.354,63.838a1.894,1.894,0,0,1-2.2,2.015A1.949,1.949,0,0,1,0,63.728,2.035,2.035,0,0,1,2.368,61.55a1.97,1.97,0,0,1,1.986,2.288" transform="translate(0.001 7.593)" fill="#20ab9a"/>
    <path id="パス_1062" data-name="パス 1062" d="M11.858,65.844c-.76-.029-1.537-.682-1.552-2.076a1.961,1.961,0,0,1,2.261-2.215,1.95,1.95,0,0,1,2.033,2.23c-.021,1.366-.748,2.094-2.742,2.061" transform="translate(1.275 7.594)" fill="#20ab9a"/>
    <path id="パス_1063" data-name="パス 1063" d="M73.416,10.353c1.825-.066,2.61.627,2.689,1.979a1.906,1.906,0,0,1-1.933,2.292c-1.42.069-2.345-.546-2.373-2.092a1.911,1.911,0,0,1,1.617-2.179" transform="translate(8.883 1.277)" fill="#20ab9a"/>
    <path id="パス_1064" data-name="パス 1064" d="M14.592,115.05a1.923,1.923,0,0,1-2.151,2.073,1.918,1.918,0,0,1-2.135-2.105,2.026,2.026,0,0,1,2.281-2.255,1.951,1.951,0,0,1,2,2.287" transform="translate(1.275 13.912)" fill="#20ab9a"/>
    <path id="パス_1065" data-name="パス 1065" d="M123.038,12.191a1.9,1.9,0,0,1,2.186-1.848c1.551.017,2.159.919,2.09,2.351a1.893,1.893,0,0,1-2.279,1.934c-1.37-.073-2.029-.871-2-2.438" transform="translate(15.222 1.276)" fill="#20ab9a"/>
    <path id="パス_1066" data-name="パス 1066" d="M125.128,127.359a1.917,1.917,0,0,1-2.091-2.134,1.97,1.97,0,0,1,2.314-2.15,2.146,2.146,0,0,1-.222,4.285" transform="translate(15.222 15.183)" fill="#20ab9a"/>
    <path id="パス_1067" data-name="パス 1067" d="M65.841,125.008c-.033,1.687-.811,2.343-2.158,2.347a1.907,1.907,0,0,1-2.147-2.087,1.989,1.989,0,0,1,2.287-2.2,1.873,1.873,0,0,1,2.018,1.938" transform="translate(7.613 15.183)" fill="#20ab9a"/>
    <path id="パス_1068" data-name="パス 1068" d="M14.608,125.068c-.038,1.586-.765,2.306-2.137,2.289a1.918,1.918,0,0,1-2.164-2.068,1.961,1.961,0,0,1,2.247-2.218,1.911,1.911,0,0,1,2.054,2" transform="translate(1.275 15.183)" fill="#20ab9a"/>
    <path id="パス_1069" data-name="パス 1069" d="M124.735,65.845c-1-.037-1.706-.756-1.7-2.129a2.145,2.145,0,1,1,4.286.122c-.04,1.385-.833,2.039-2.587,2.006" transform="translate(15.222 7.593)" fill="#20ab9a"/>
    <path id="パス_1070" data-name="パス 1070" d="M64.329,65.838c-1.915.049-2.735-.609-2.788-1.975a1.994,1.994,0,0,1,2.181-2.315,1.938,1.938,0,0,1,2.108,2.146c.012,1.369-.652,2.115-1.5,2.145" transform="translate(7.614 7.593)" fill="#20ab9a"/>
    <path id="パス_1071" data-name="パス 1071" d="M14.588,33.115a2.042,2.042,0,0,1-2.169,2.167,1.777,1.777,0,0,1-1.959-1.51c-.128-.734,1.834-3.012,2.468-2.989.8.03,1.629,1.105,1.66,2.332" transform="translate(1.293 3.798)" fill="#20ab9a"/>
    <path id="パス_1072" data-name="パス 1072" d="M135.369,153.648c1.17.2,2.25.743,2.122,1.951-.148,1.4-1.545,2.1-2.709,2.371-.956.221-1.462-.827-1.509-1.838-.069-1.493.855-2.121,2.1-2.485" transform="translate(16.488 18.956)" fill="#20ab9a"/>
    <path id="パス_1073" data-name="パス 1073" d="M154.869,137.388c-.819-.557-1.415-1.221-1.2-2.12a2.182,2.182,0,0,1,2.382-1.947c.529.035,1.3.062,1.061.774a6.731,6.731,0,0,1-2.241,3.293" transform="translate(19.006 16.447)" fill="#20ab9a"/>
    <path id="パス_1074" data-name="パス 1074" d="M35.216,12.544a2.118,2.118,0,0,1-2.259,1.993c-.761.011-1.907-.164-1.71-1.01.333-1.433,1.868-1.922,3.109-2.353.728-.254.8.675.86,1.371" transform="translate(3.863 1.373)" fill="#20ab9a"/>
    <path id="パス_1075" data-name="パス 1075" d="M165.579,117.125c-1.227-.594-1.9-1.346-1.618-2.569a2.14,2.14,0,0,1,1.631-1.708c1.009-.257,1.556,0,1.219,1.094-.328,1.068-.8,2.091-1.232,3.182" transform="translate(20.277 13.911)" fill="#20ab9a"/>
    <path id="パス_1076" data-name="パス 1076" d="M53.429,4.225C52.51,4.16,51.33,3.868,51.6,3c.411-1.35,2.09-1.193,3.23-1.661.96-.394.717.486.719.893.012,1.427-.844,1.981-2.116,2" transform="translate(6.379 0.152)" fill="#20ab9a"/>
    <path id="パス_1077" data-name="パス 1077" d="M43.283,163.882c1.043.4,2.045.9,2.084,2.269.012.417.007,1.127-.643.846-1.192-.516-2.808-.613-3.273-2.012-.163-.49.982-.987,1.832-1.1" transform="translate(5.126 20.218)" fill="#20ab9a"/>
    <path id="パス_1078" data-name="パス 1078" d="M4.191,125.266c.017.737-.271,1.784-.868,1.584-1.284-.431-1.418-1.948-1.916-3.066-.3-.673.336-.714.773-.707,1.423.028,1.967.891,2.01,2.188" transform="translate(0.165 15.184)" fill="#20ab9a"/>
    <path id="パス_1079" data-name="パス 1079" d="M143.509,22.021a7.655,7.655,0,0,1,2.635,2.44c-2.018.165-2.315-.1-2.635-2.44" transform="translate(17.755 2.717)" fill="#20ab9a"/>
  </g>
</svg>
