<svg xmlns="http://www.w3.org/2000/svg" xmlns:xlink="http://www.w3.org/1999/xlink" width="91" height="93" viewBox="0 0 91 93">
  <defs>
    <clipPath id="clip-path">
      <rect id="長方形_191" data-name="長方形 191" width="91" height="93" transform="translate(-0.373 0.09)" fill="#e96f45"/>
    </clipPath>
  </defs>
  <g id="welcome_main-decoration-red-square" transform="translate(0.373 -0.09)">
    <g id="グループ_195" data-name="グループ 195" transform="translate(0 0)" clip-path="url(#clip-path)">
      <path id="パス_766" data-name="パス 766" d="M58.363,46.578q0-22.6-.02-45.205c0-1.013.258-1.359,1.3-1.35C62.367.045,62.367,0,62.367,2.788q0,44.239,0,88.478c0,1.9.359,1.8-1.725,1.79-2.649-.012-2.267.32-2.269-2.245q-.019-22.116-.006-44.232" transform="translate(-18.767 -0.165)" fill="#e96f45"/>
      <path id="パス_767" data-name="パス 767" d="M11.523,46.59q0-22.6-.027-45.2c0-1.172.43-1.367,1.435-1.356,2.6.028,2.6-.01,2.6,2.615q0,44.3,0,88.609c0,1.87.357,1.813-1.725,1.8-2.673-.013-2.273.3-2.275-2.24Q11.51,68.7,11.523,46.59" transform="translate(-3.514 -0.168)" fill="#e96f45"/>
      <path id="パス_768" data-name="パス 768" d="M109.187,46.717c0,14.929-.017,29.857.03,44.785,0,1.276-.336,1.634-1.581,1.589-2.428-.089-2.431-.02-2.431-2.53q.018-37.457.035-74.913c0-4.745.011-9.491-.06-14.235-.016-1.114.338-1.405,1.4-1.388,2.607.042,2.608-.006,2.608,2.6Z" transform="translate(-34.017 -0.166)" fill="#e96f45"/>
      <path id="パス_769" data-name="パス 769" d="M38.9,46.564c0,14.938-.016,29.877.028,44.815,0,1.289-.245,1.783-1.629,1.711C35,92.974,35,93.065,35,90.736q0-44.54-.033-89.08c0-1.378.388-1.7,1.678-1.643C38.9.114,38.9.038,38.9,2.3V46.564" transform="translate(-11.156 -0.16)" fill="#e96f45"/>
      <path id="パス_770" data-name="パス 770" d="M50.628,46.572c0,14.984-.019,29.969.033,44.953,0,1.317-.4,1.609-1.605,1.567-2.327-.081-2.329-.018-2.329-2.347q0-44.4,0-88.8c0-2.105-.3-1.854,2.069-1.9,1.111-.024,1.886-.111,1.877,1.575-.084,14.984-.049,29.969-.049,44.953" transform="translate(-14.983 -0.169)" fill="#e96f45"/>
      <path id="パス_771" data-name="パス 771" d="M128.6,46.512c0-14.933.016-29.867-.029-44.8,0-1.284.233-1.777,1.618-1.7,2.773.15,2.36-.305,2.362,2.477q.015,44.244-.008,88.489c0,.655.381,1.643-.282,1.913a6.315,6.315,0,0,1-3.377.069c-.494-.083-.272-.711-.274-1.091-.016-3.779-.009-7.559-.009-11.339Z" transform="translate(-41.632 -0.159)" fill="#e96f45"/>
      <path id="パス_772" data-name="パス 772" d="M81.79,46.541c0-14.931.021-29.861-.034-44.791-.005-1.4.323-1.82,1.72-1.741,2.619.147,2.236-.27,2.236,2.315q.014,44.514-.008,89.026c0,.55.351,1.437-.345,1.6a6.308,6.308,0,0,1-3.376-.06c-.42-.141-.184-.838-.184-1.277q-.016-22.534-.009-45.068" transform="translate(-26.383 -0.158)" fill="#e96f45"/>
      <path id="パス_773" data-name="パス 773" d="M93.546,46.425c0-14.937.017-29.873-.03-44.81,0-1.28.344-1.647,1.6-1.6,2.315.09,2.317.019,2.317,2.345q0,44.465-.005,88.928c0,1.886.347,1.75-1.75,1.77a3.981,3.981,0,0,0-.548,0c-1.21.183-1.616-.238-1.611-1.553.05-15.028.032-30.056.032-45.085" transform="translate(-30.219 -0.162)" fill="#e96f45"/>
      <path id="パス_774" data-name="パス 774" d="M23.214,46.586c0-15.073.016-30.145-.03-45.218,0-1.187.435-1.348,1.426-1.335,2.485.032,2.485-.005,2.485,2.462V91.273c0,1.79,0,1.79-1.751,1.792a4.71,4.71,0,0,0-.686,0c-1.1.167-1.476-.209-1.472-1.406.049-14.7.04-29.407.046-44.11v-.967h-.018" transform="translate(-7.32 -0.168)" fill="#e96f45"/>
      <path id="パス_775" data-name="パス 775" d="M120.773,46.56V91.218c0,1.84,0,1.84-1.859,1.84a6.641,6.641,0,0,0-.823,0c-.947.122-1.25-.255-1.241-1.231.047-4.746.021-9.493.021-14.239q0-37.883,0-75.768c0-1.777,0-1.778,1.776-1.78a6.151,6.151,0,0,0,.823-.005C120.482-.1,120.8.3,120.8,1.348c-.049,5.253-.022,10.507-.022,15.761V46.56" transform="translate(-37.817 -0.162)" fill="#e96f45"/>
      <path id="パス_776" data-name="パス 776" d="M73.925,46.585V91.246c0,1.812,0,1.813-1.737,1.815a7.518,7.518,0,0,0-.959.006c-.978.128-1.213-.309-1.212-1.253q.037-37.885.023-75.771c0-4.839.047-9.679-.038-14.517-.022-1.28.4-1.539,1.554-1.5,2.367.07,2.369.012,2.369,2.454V46.585" transform="translate(-22.563 -0.164)" fill="#e96f45"/>
      <path id="パス_777" data-name="パス 777" d="M3.851,46.557c0,14.935-.022,29.87.036,44.8.005,1.412-.355,1.944-1.725,1.7a1.741,1.741,0,0,0-.548,0C.4,93.243,0,92.813,0,91.5.049,76.243.032,60.986.032,45.728c0-14.7.018-29.409-.031-44.114C0,.308.388-.025,1.615.02,3.849.1,3.851.036,3.851,2.306V46.557" transform="translate(0.229 -0.163)" fill="#e96f45"/>
    </g>
  </g>
</svg>
