<svg xmlns="http://www.w3.org/2000/svg" width="376.656" height="410.006" viewBox="0 0 376.656 410.006">
  <g id="j154_8_1" transform="translate(0)">
    <path id="パス_1297" data-name="パス 1297" d="M293.456,404.34c2.486,0,23.521,11.6,23.521,11.6l1.891,49.726v42.8l3.354,18.439a10.839,10.839,0,0,0,21.5-1.938V509.3l6.628-48.638,7.73-78.685L325.77,333.787l-46.118,43.906Z" transform="translate(-115.848 -140.864)" fill="#4287c6"/>
    <path id="パス_1298" data-name="パス 1298" d="M559.273,21.25l5.473-15.355a3.544,3.544,0,0,1,6.749,2.148l-3.412,12.241a.2.2,0,0,0,.343.171l9.589-12.583a3.821,3.821,0,0,1,6.1,4.608l-8.521,11.36,11.2-9.369a3.519,3.519,0,1,1,4.5,5.414L578.972,30.4a.2.2,0,0,0,.162.342l7.909-1.577a3.159,3.159,0,0,1,1.879,5.993l-16.315,5.956a5.276,5.276,0,0,0-1.632.958l-7.089,6.105-9.492-4.334-4.788-7.239a4.632,4.632,0,0,0,1.961-4.677c-.521-3.18-3.256-10.063-2.5-12.169s2.223-4.591,4.3-3.561,5.13,7.4,5.13,7.4Z" transform="translate(-231.789 1.312)" fill="#ffeae3"/>
    <path id="パス_1299" data-name="パス 1299" d="M475.458,63.312h-3.868s-49.362,61.72-79.954,67.671l-13.174,14.2V170.1c9.469.37,12.484,4.474,27.94.08l10.115-11.627s47.759-35.1,73.972-82.642Z" transform="translate(-158.39 -24.412)" fill="#d0ece9"/>
    <path id="パス_1300" data-name="パス 1300" d="M75.987,21.25,70.515,5.895a3.544,3.544,0,0,0-6.749,2.148l3.412,12.241a.2.2,0,0,1-.343.171L57.246,7.871a3.821,3.821,0,0,0-6.1,4.608l8.522,11.36-11.2-9.369a3.519,3.519,0,1,0-4.5,5.414L56.288,30.4a.2.2,0,0,1-.162.342l-7.91-1.577a3.159,3.159,0,0,0-1.879,5.993l16.315,5.956a5.268,5.268,0,0,1,1.632.958l7.089,6.105,9.492-4.334,4.787-7.239a4.632,4.632,0,0,1-1.961-4.677c.521-3.18,3.257-10.063,2.5-12.169s-2.223-4.591-4.3-3.561-5.13,7.4-5.13,7.4Z" transform="translate(-13.824 1.312)" fill="#ffeae3"/>
    <path id="パス_1301" data-name="パス 1301" d="M108.091,63.312h3.868s49.362,61.72,79.954,67.671l13.174,14.2V170.1c-9.469.37-7.524,6.49-22.979,2.1l-15.075-13.642s-47.759-35.1-73.972-82.642Z" transform="translate(-35.512 -24.412)" fill="#d0ece9"/>
    <path id="パス_1302" data-name="パス 1302" d="M346.435,231.428l-5.559,53.208,5.559,31.879-9.52,4.138-8.115,2.527a27.217,27.217,0,0,1-24.465-4.246l-5.24-3.946a8.862,8.862,0,0,0-10.661,0l-5.239,3.946a27.217,27.217,0,0,1-24.465,4.246l-8.115-2.527-8.14-3.525a30,30,0,0,1,.572-28.395l4.265-7.567-4.837-49.739v-43.4c0-1.449,19.2-18.311,50.981-18.311s49.969,11.849,49.969,11.849l3.007,11.547v38.318Z" transform="translate(-95.463 -68.577)" fill="#d0ece9"/>
    <path id="パス_1303" data-name="パス 1303" d="M273.949,172.18s-1.632.916,0,4.025c.556,1.059,29.785,40.242,29.785,40.242s3.218,2.507,5.511,2.252,5.37-4.166,5.37-4.166l31.705-42.746-15.559-5.844a41.233,41.233,0,0,0-43.478-.713Z" transform="translate(-117.636 -68.622)" fill="#fff"/>
    <path id="パス_1304" data-name="パス 1304" d="M261.543,475.926l-11.907-74.078a18.114,18.114,0,0,1,17.99-20.78l5.824.023a18.114,18.114,0,0,1,18.044,18.266l-.658,72.111-2.2,27.937a13.726,13.726,0,0,1-27.065-4.59Z" transform="translate(-102.838 -161.22)" fill="#4287c6"/>
    <path id="パス_1305" data-name="パス 1305" d="M134.72,299.328c-10.9,5.74-15.962,18-31.562,17.326-20.023-.862-15.943-21.616-32.815-26.954s-23.084,16.9-41.769,1.448-16.982-15.172-16.982-15.172L3.565,286.6s12.529,10.374,22.4,17.182,13.447,9.367,22.5,6.109S61,300.7,66.626,302.229s9.918,11.781,17.237,18.892,19.394,8.534,26.789,5.87c8.666-3.121,19.271-10.713,25.557-15.564,3.309-2.553.8-3.384-.019-7.481l-1.667-3.545Z" transform="translate(2.885 -115.28)" fill="#ffb64b"/>
    <path id="パス_1306" data-name="パス 1306" d="M229.385,302.318a1.83,1.83,0,0,0,2.489,1.72c17.245-6.989,66.779-6.889,93.39-4.922,19.619,1.449,40.327,8.337,52.458,8.665S402.99,304.5,407.4,300.9s5.4-8.733,11.956-7.48,16.72,3.589,31.474,5.7,20.633-6.883,19.978-12.886c-.372-3.41-5.41-7.892-9.719-8.827a1.174,1.174,0,0,0-1.1,1.934c4.159,4.782,3.135,11.855-10.111,9.115-17.257-3.571-36.3-14.874-46.417-4.15s-30.945,10.1-54.748,3.556c-22.04-6.06-81.587-7.427-112.5-1.783a8.4,8.4,0,0,0-6.837,8.284v7.959Z" transform="translate(-94.205 -116.576)" fill="#ffb64b"/>
    <path id="パス_1307" data-name="パス 1307" d="M335.94,70.566h0V66.687c0-17.473-18.23-34.154-37.573-34.154s-37.573,16.682-37.573,34.154v3.937a13.133,13.133,0,0,0,.608,26.2c3.311,15.287,19.7,28.587,36.964,28.587s33.643-13.29,36.962-28.571h.611a13.134,13.134,0,1,0,0-26.269Z" transform="translate(-107.151 -14.007)" fill="#ffeae3"/>
    <path id="パス_1308" data-name="パス 1308" d="M559.545,342.345l-13.476-13.312,10.46-7.928L570,334.418Z" transform="translate(-230.553 -135.404)" fill="#20ab9a"/>
    <path id="パス_1309" data-name="パス 1309" d="M368.957,376.6l-10.731,11.48-6.816-8.49,10.731-11.48Z" transform="translate(-151.299 -158.49)" fill="#e96f45"/>
    <path id="パス_1310" data-name="パス 1310" d="M202.337,196.3,202.1,180.59l10.8,1.385.24,15.711Z" transform="translate(-82.457 -74.905)" fill="#e96f45"/>
    <path id="パス_1311" data-name="パス 1311" d="M380.342,240.024l15.019-4.626,1.693,10.755-15.02,4.626Z" transform="translate(-159.2 -98.503)" fill="#2ba7c8"/>
    <path id="パス_1312" data-name="パス 1312" d="M465.564,48.856l13.74,7.627-6.586,8.669-13.74-7.627Z" transform="translate(-193.056 -18.188)" fill="#4287c6"/>
    <path id="パス_1313" data-name="パス 1313" d="M462.1,521.749l14.972-4.778,1.8,10.737L463.9,532.486Z" transform="translate(-194.399 -219.733)" fill="#4287c6"/>
    <path id="パス_1314" data-name="パス 1314" d="M165.107,47.735l11.28-10.941,6.392,8.813L171.5,56.548Z" transform="translate(-66.531 -12.994)" fill="#df7c8f"/>
    <path id="パス_1315" data-name="パス 1315" d="M178.024,296.188,169.4,309.323l-8.159-7.209,8.625-13.135Z" transform="translate(-64.866 -121.572)" fill="#ffb64b"/>
    <path id="パス_1316" data-name="パス 1316" d="M103.309,407.2,89.5,414.7l-3.781-10.21,13.811-7.5Z" transform="translate(-32.349 -168.076)" fill="#4287c6"/>
    <path id="パス_1317" data-name="パス 1317" d="M504.068,414.9l-17.98-7.787L493.2,395.55l17.98,7.787Z" transform="translate(-204.728 -167.456)" fill="#e96f45"/>
    <path id="パス_1318" data-name="パス 1318" d="M173.878,560.153l-15.1-4.372,4.488-9.919,15.1,4.372Z" transform="translate(-63.808 -232.172)" fill="#ffb64b"/>
    <path id="パス_1319" data-name="パス 1319" d="M185.585,459.4l13.476-13.311L188.6,438.162l-13.477,13.311Z" transform="translate(-70.844 -185.802)" fill="#df7c8f"/>
    <path id="パス_1320" data-name="パス 1320" d="M99.524,218.626l3.687-18.578-13.108-.7-3.687,18.578Z" transform="translate(-32.651 -82.983)" fill="#2ba7c8"/>
    <path id="パス_1321" data-name="パス 1321" d="M530.156,206.536l14.134,12.611,7.256-10.936L537.413,195.6Z" transform="translate(-223.702 -81.368)" fill="#df7c8f"/>
    <path id="パス_1322" data-name="パス 1322" d="M550.638,23.486h0Z" transform="translate(-237.076 -10.111)" fill="#231815"/>
    <path id="パス_1323" data-name="パス 1323" d="M42.673,51.054h0v0Z" transform="translate(-18.373 -21.98)" fill="#231815"/>
    <path id="パス_1324" data-name="パス 1324" d="M40.705,22.133h0v0Z" transform="translate(-17.526 -9.528)" fill="#231815"/>
    <path id="パス_1325" data-name="パス 1325" d="M82.715.468h0Z" transform="translate(-35.613 -0.201)" fill="#231815"/>
    <path id="パス_1326" data-name="パス 1326" d="M56.969,6.81h0l0,0Z" transform="translate(-24.528 -2.931)" fill="#231815"/>
    <path id="パス_1328" data-name="パス 1328" d="M306.451,702.964c-16.136,0-29.216,2.171-29.216,4.851s13.08,4.851,29.216,4.851,29.216-2.171,29.216-4.851S322.586,702.964,306.451,702.964Z" transform="translate(-119.363 -302.659)" fill="#3e485c"/>
    <path id="パス_1329" data-name="パス 1329" d="M330.763,139.222h4.654a1.064,1.064,0,1,0,0-2.128h-3.11a1.95,1.95,0,0,1-1.736-1.061l-.28-.545a.5.5,0,0,0-.952.229V137.8A1.424,1.424,0,0,0,330.763,139.222Z" transform="translate(-141.796 -58.215)" fill="#3e485c"/>
    <path id="パス_1330" data-name="パス 1330" d="M252.685,56.06a15.346,15.346,0,0,0,3.877,29.53,33.141,33.141,0,0,0,2.307,6A41.6,41.6,0,0,0,273.7,107.72a40.434,40.434,0,0,0,21.586,6.549,41.6,41.6,0,0,0,27.538-11.1q.741-.676,1.445-1.383a2.325,2.325,0,0,0,1.291,2.951,20.582,20.582,0,0,0,2.024.69c.134.038.289.076.433.114a2.3,2.3,0,0,0-.777.662h0l-26.495,35.8V123.159h-12.3v18.659l-23.134-32.251a2.33,2.33,0,1,0-3.787,2.716L288.789,150.3l.01.013a7.2,7.2,0,0,0,11.586,0l30.6-41.341a2.329,2.329,0,0,0-.115-2.911c.346.031.7.055,1.056.056a9.073,9.073,0,0,0,1.253-.083l.063-.009.062-.012a47.669,47.669,0,0,0,12.862-4.843c7.726-4.081,15.807-10.09,23.646-16.811a353.344,353.344,0,0,0,31.2-30.962c8.264-9.186,13.6-15.862,13.625-15.888.044-.056.075-.117.113-.175a2.325,2.325,0,0,0,.438.506h0l13.537,11.349c-12.968,22.876-33.282,45.656-50.526,62.775-8.831,8.771-16.85,16.067-22.656,21.165-2.9,2.549-5.253,4.549-6.874,5.909-.811.68-1.439,1.2-1.864,1.549l-.481.394-.159.129a2.331,2.331,0,1,0,2.93,3.626c.041-.035,14.562-11.759,32.391-29.466s38.969-41.38,52.272-65.49l.926-1.679-.782-.655,6.23-5.365a3.241,3.241,0,0,1,1-.589l16.314-5.956.116-.046a5.189,5.189,0,0,0,2.845-6.413v0a5.187,5.187,0,0,0-5.933-3.429l-1,.2,6.966-5.948h0a5.538,5.538,0,0,0-6.093-9.177,5.843,5.843,0,0,0-10.114-5.609l-3.793,4.977.845-3.03.005-.02a5.649,5.649,0,0,0,.194-1.459,5.575,5.575,0,0,0-10.813-1.911l-.005.014-4.54,12.739-.138-.321a5.789,5.789,0,0,0-10.912,3.8h0l2.188,9.3a4.574,4.574,0,0,1-.78,3.769l-.716.965a2.3,2.3,0,0,0-.859.632,2.265,2.265,0,0,0-.147.217,2.294,2.294,0,0,0-.479-.54,2.33,2.33,0,0,0-3.276.364h0l-.137.17a431.539,431.539,0,0,1-29.713,32.75,230.866,230.866,0,0,1-25.1,21.857A98.389,98.389,0,0,1,343.6,97.251,42.672,42.672,0,0,1,332.5,101.42a4.353,4.353,0,0,1-.569.035,11.818,11.818,0,0,1-3.056-.513c-.464-.133-.861-.268-1.135-.367-.137-.05-.243-.09-.31-.116l-.073-.029-.014-.006h0a2.324,2.324,0,0,0-1.772,0,38.97,38.97,0,0,0,6.13-8.83,33.135,33.135,0,0,0,2.307-6,15.344,15.344,0,0,0,3.42-29.7v-.659c5.13-.686,10.147-5.838,9.808-8.223-.39-2.738-8.74-3.955-12.074-10.762h-.009c-.3-.867-.621-1.726-.978-2.566a41.572,41.572,0,0,0-14.942-18.125,40.93,40.93,0,0,0-23-7.061c-.053-.128-.207-.12-.446,0h-1.436a41.105,41.105,0,0,0-5.229.346c-9.323.256-25.736,0-36.351-4.175a3.088,3.088,0,0,0-4.178,2.4c-.683,4.763,1.17,10.508,2.762,14.345a2.228,2.228,0,0,1-2.648,3l-2.83-.772a3.1,3.1,0,0,0-3.907,3.336,56.062,56.062,0,0,0,3.826,15.048A130.853,130.853,0,0,0,252.685,56.06ZM419.778,16.881h0a1.7,1.7,0,0,1,.866-.236,1.757,1.757,0,0,1,.947.278,1.707,1.707,0,0,1,.652.773l3.084,7.194.153.2h0a16.5,16.5,0,0,1,1.342,2.188A9.348,9.348,0,0,1,428,31.225a3.289,3.289,0,0,1-.137.985,2.37,2.37,0,0,1-.419.79,2.03,2.03,0,1,0,3.172,2.536h0a6.437,6.437,0,0,0,1.125-2.119,7.357,7.357,0,0,0,.321-2.193,13.338,13.338,0,0,0-1.7-5.947,21.084,21.084,0,0,0-1.49-2.433l-.627-1.462a2.016,2.016,0,0,0,.765-.987h0l5.468-15.34a1.5,1.5,0,0,1,.561-.725,1.524,1.524,0,0,1,.86-.269,1.515,1.515,0,0,1,1.514,1.513,1.574,1.574,0,0,1-.054.406L433.95,18.2h0a2.172,2.172,0,0,0-.085.6,2.226,2.226,0,0,0,3.968,1.382l.03-.038,9.588-12.583a1.79,1.79,0,0,1,2.855,2.162l0,0-8.521,11.36a2.03,2.03,0,0,0,2.927,2.776l11.2-9.369a1.463,1.463,0,0,1,.951-.347,1.489,1.489,0,0,1,.949,2.639l-.026.022L445.476,27.322l0,0a2.222,2.222,0,0,0,1.436,3.917,2.349,2.349,0,0,0,.393-.034l.047-.009,7.91-1.577.223-.022a1.127,1.127,0,0,1,.462,2.154l-16.215,5.921A7.305,7.305,0,0,0,437.473,39l-6.733,5.8-11.1-9.3.087-.118a8.633,8.633,0,0,0,1.472-7.117L419,18.913l-.016-.058a1.674,1.674,0,0,1-.068-.477A1.732,1.732,0,0,1,419.778,16.881ZM296.907,48.2a30.843,30.843,0,0,0,7.1-10.145,2.679,2.679,0,0,1,4.787-.277c4.744,8.353,13.751,16.864,21.475,20.741v3.118a6.738,6.738,0,0,0,6.738,6.737h.409v-7.64a10.973,10.973,0,0,1,2.543,1.893A10.895,10.895,0,0,1,334.9,80.91a27.807,27.807,0,0,0,.177-3.021,2.225,2.225,0,0,0-4.449,0h0A26.229,26.229,0,0,1,327.715,89.6a37.188,37.188,0,0,1-13.242,14.367,36,36,0,0,1-19.191,5.85c-9.024.009-17.941-3.924-24.542-9.945A35.6,35.6,0,0,1,262.849,89.6a26.229,26.229,0,0,1-2.916-11.713,2.225,2.225,0,0,0-4.449,0,27.806,27.806,0,0,0,.177,3.021,10.9,10.9,0,0,1-2.519-20.179v7.64h.41a6.738,6.738,0,0,0,6.738-6.737l11.8-11.679a2.687,2.687,0,0,1,4.56,2.212,4.233,4.233,0,0,0,5.4,4.537A35.509,35.509,0,0,0,296.907,48.2Z" transform="translate(-104.168)" fill="#3e485c"/>
    <path id="パス_1332" data-name="パス 1332" d="M301.958,109.9a1.5,1.5,0,0,0,.6,2.028h0l4.5,2.441-4.362,1.8a1.5,1.5,0,1,0,1.141,2.766l7.272-3a1.5,1.5,0,0,0,.143-2.7l-7.272-3.941A1.5,1.5,0,0,0,301.958,109.9Z" transform="translate(-129.929 -46.979)" fill="#3e485c"/>
    <path id="パス_1333" data-name="パス 1333" d="M360.757,116.167h0l-4.363-1.8,4.505-2.441a1.5,1.5,0,0,0-1.426-2.63l-7.273,3.941a1.5,1.5,0,0,0,.143,2.7l7.273,3a1.5,1.5,0,0,0,1.141-2.767Z" transform="translate(-151.302 -46.98)" fill="#3e485c"/>
    <path id="パス_1334" data-name="パス 1334" d="M318.852,156.123c1.485,3.568,4.078,6.505,9.5,6.505a10.242,10.242,0,0,0,9.5-6.505,1.338,1.338,0,0,0-1.859-1.7,22.117,22.117,0,0,1-15.274,0A1.338,1.338,0,0,0,318.852,156.123Z" transform="translate(-137.234 -66.421)" fill="#3e485c"/>
    <path id="パス_1335" data-name="パス 1335" d="M374.07,166.587a8.159,8.159,0,0,0-1.236-3.335,16.31,16.31,0,0,0-3.847-4.167,17.013,17.013,0,0,0-5.107-2.787,3.414,3.414,0,0,0-3.546.908,3.508,3.508,0,0,0-.979,2.416,3.384,3.384,0,0,0,.71,2.068l-.006-.007a5.69,5.69,0,0,1,1.317,3.252,2.2,2.2,0,0,1-.2.955A2.363,2.363,0,0,1,359.951,167a8.425,8.425,0,0,1-3.541.616,24.367,24.367,0,0,1-4.872-.569c-5.794-1.2-11.936-3.336-17.942-5.208s-11.884-3.484-17.349-3.494a20.035,20.035,0,0,0-6.989,1.146,15.644,15.644,0,0,0-6.026,4,22.337,22.337,0,0,1-9.6,5.795,44.652,44.652,0,0,1-13.641,1.868c-8.632,0-18.734-1.712-29.489-4.672-1.919-.526-4.094-1.014-6.48-1.463l1.4-17.152a2.33,2.33,0,0,0-4.646-.378l-1.363,16.747c-4.637-.71-9.87-1.305-15.522-1.785-10.824-.916-23.136-1.4-35.454-1.4-16.335,0-32.652.849-45.575,2.687l-1.4-16.26a2.306,2.306,0,0,0-.177-.683c.007-.009.016-.015.023-.023a2.33,2.33,0,0,0-.335-3.278l-.166-.136c-1.43-1.174-11.936-9.871-25.555-22.874l10.632,1.363a1.923,1.923,0,0,0,2.167-1.937l-.24-15.711a1.922,1.922,0,0,0-1.679-1.878l-10.8-1.385a1.923,1.923,0,0,0-2.167,1.937l.24,15.711c0,.049.011.1.015.143-2.4-2.313-4.881-4.745-7.421-7.29C88.549,93.956,68.557,71.35,55.983,49.189L69.521,37.84a2.306,2.306,0,0,0,.437-.506c.039.058.069.12.114.175h0c.033.04,12.411,15.519,28.676,31.8a245.146,245.146,0,0,0,26.31,23.207,106.421,106.421,0,0,0,13.481,8.657,47.67,47.67,0,0,0,12.862,4.843l.2.039.207,0h.21a27.441,27.441,0,0,0,2.783-.146,17.289,17.289,0,0,0,1.969-.315,8.471,8.471,0,0,0,2.031-.706,2.33,2.33,0,1,0-2.153-4.134,4.1,4.1,0,0,1-.908.294,14.925,14.925,0,0,1-2.161.29c-.65.046-1.2.054-1.481.055a43.493,43.493,0,0,1-11.384-4.348c-7.245-3.82-15.117-9.643-22.786-16.226A348.812,348.812,0,0,1,87.163,50.28c-4.09-4.547-7.458-8.473-9.8-11.26-1.171-1.393-2.086-2.5-2.707-3.261-.31-.379-.547-.671-.706-.867l-.236-.293a2.331,2.331,0,0,0-3.276-.364,2.294,2.294,0,0,0-.479.54,2.385,2.385,0,0,0-.147-.217,2.307,2.307,0,0,0-.859-.631l-.718-.966a4.556,4.556,0,0,1-.778-3.766l2.188-9.3h0A5.791,5.791,0,0,0,58.728,16.1l-.138.321L54.047,3.678l-.006-.015A5.575,5.575,0,0,0,43.427,7.048v0l.845,3.029L40.481,5.106a5.839,5.839,0,0,0-10.116,5.609,5.54,5.54,0,0,0-6.091,9.177v0l6.965,5.949-1.005-.2a5.188,5.188,0,0,0-3.086,9.846l.114.046,16.315,5.956a3.243,3.243,0,0,1,1,.589l6.23,5.365-.783.656.926,1.679C64.263,73.9,86,98.147,104.433,116.455c15.916,15.8,29.355,27.134,32.754,29.955a2.311,2.311,0,0,0-.374,1.462l1.428,16.593a11.962,11.962,0,0,0-9.647,11.746v5.068a2.017,2.017,0,0,0-1.3.713h0a46.881,46.881,0,0,1-9.629,9.086,26.1,26.1,0,0,1-14.83,4.752c-.37,0-.744-.008-1.12-.024a19.731,19.731,0,0,1-5.867-1.069,15.158,15.158,0,0,1-6.605-4.721,39.672,39.672,0,0,1-3.63-5.3,62.054,62.054,0,0,0-5.939-8.942,21.853,21.853,0,0,0-10.248-6.827A19.392,19.392,0,0,0,63.53,168a20.284,20.284,0,0,0-7.1,1.353,90.567,90.567,0,0,0-8.735,4.226,17.881,17.881,0,0,1-7.939,2.276,13.011,13.011,0,0,1-5.078-1.08,25.491,25.491,0,0,1-6.344-4.015c-7.885-6.522-12.123-10.229-14.351-12.3-1.112-1.032-1.724-1.661-2.007-1.983l-.039-.046a1.806,1.806,0,0,0-.062-.185,2.031,2.031,0,0,0-1.818-1.126,2.1,2.1,0,0,0-.384.035,2.059,2.059,0,0,0-1.424,1.017l0,.006L.409,166.554a2.032,2.032,0,0,0,.325,2.787c.023.018,12.554,10.4,22.542,17.29a92.43,92.43,0,0,0,8.856,5.693,16.759,16.759,0,0,0,7.984,2.179,22.107,22.107,0,0,0,7.5-1.525,46.039,46.039,0,0,0,9.862-5.245,27.386,27.386,0,0,1,3.264-1.9,6.052,6.052,0,0,1,2.547-.643,4.8,4.8,0,0,1,1.27.177,7.618,7.618,0,0,1,3.145,2.085,62.418,62.418,0,0,1,5.794,7.342,67.932,67.932,0,0,0,7.416,8.962,26.53,26.53,0,0,0,9.658,5.865,32.234,32.234,0,0,0,10.673,1.831,25.563,25.563,0,0,0,8.559-1.371,69.934,69.934,0,0,0,12.536-6.362c4.14-2.565,8.084-5.366,11.3-7.778a2.37,2.37,0,0,1,1.227-.931,8.8,8.8,0,0,0,2.211-2.814,7.049,7.049,0,0,0,.717-3.075,6.809,6.809,0,0,0-.9-3.385c-.047-.083-.106-.157-.157-.237q1.5-.456,3.235-.871l1.981,23.022-3.328,6.771a35.51,35.51,0,0,0-2.978,22.5l1.2,6.106a2.319,2.319,0,0,0,4.048,1.064l10.923,67.954.024,18.578a16.054,16.054,0,0,0,31.69,5.125l.021-.118,2.217-28.133.35-38.279c.683.262,1.555.661,2.475,1.129,1.571.8,3.269,1.765,4.562,2.53.431.255.81.483,1.134.679L196.134,322v42.967l3.391,18.647a13.17,13.17,0,0,0,26.128-2.355V365.745l6.613-48.53,6.339-66.154a2.323,2.323,0,0,0-1.86-2.495l4.234-1.508a2.33,2.33,0,1,0-1.564-4.39h0l-14.669,5.225A24.881,24.881,0,0,1,202.4,244l-5.239-3.946a11.159,11.159,0,0,0-4.417-2c0-.051.015-.1.015-.152V221.513a2.331,2.331,0,0,0-4.662,0V237.9c0,.052.012.1.015.151a11.146,11.146,0,0,0-1.709.507l.03-3.277v-.152a20.445,20.445,0,0,0-20.365-20.44l-5.824-.023h-.083a20.443,20.443,0,0,0-20.352,18.512,30.732,30.732,0,0,1,3.006-16.7l3.9-7.934-2.139-24.866c11.707-2.109,28.233-3,44.395-3.1,2.18-.071,2.439.082,4.287-.008,12.244.024,24.031.477,33.1,1.147,3.807.281,7.672.777,11.519,1.39l-2.325,28.579,5.253,28.686a2.331,2.331,0,0,0,4.586-.839l-5.143-28.084,2.242-27.551c4.309.783,8.558,1.667,12.633,2.534,4.569.971,8.923,1.912,12.927,2.635a74.629,74.629,0,0,0,10.861,1.32q.8.021,1.608.022a71.743,71.743,0,0,0,17.364-2.221,51.027,51.027,0,0,0,7.017-2.307,20.962,20.962,0,0,0,5.033-2.834,45.383,45.383,0,0,0,4.875-5.237,7.114,7.114,0,0,1,1.781-1.477,4.271,4.271,0,0,1,2.124-.5,8.067,8.067,0,0,1,1.511.157c6.491,1.239,16.741,3.595,31.568,5.714a31.89,31.89,0,0,0,4.508.334c5.93.009,10.444-1.905,13.419-4.695a13.4,13.4,0,0,0,4.416-9.619,10.762,10.762,0,0,0-.059-1.132ZM46.841,19.294l-.005-.019h0ZM47.23,39a7.3,7.3,0,0,0-2.261-1.327L28.753,31.754a1.122,1.122,0,0,1-.6-1.384v0a1.126,1.126,0,0,1,1.065-.766l.224.022L37.347,31.2h0a2.221,2.221,0,0,0,1.876-3.873l0,0L26.909,16.805l-.028-.024a1.486,1.486,0,0,1-.3-1.961l0,0a1.487,1.487,0,0,1,2.2-.326l11.2,9.369a2.03,2.03,0,0,0,2.927-2.776L34.393,9.726a1.764,1.764,0,0,1-.359-1.071,1.782,1.782,0,0,1,.756-1.464l0,0a1.764,1.764,0,0,1,1.03-.329,1.788,1.788,0,0,1,1.428.707L46.839,20.15l-.008-.01a2.226,2.226,0,0,0,4-1.334,2.276,2.276,0,0,0-.077-.583l-.005-.019L47.342,5.966a1.464,1.464,0,0,1-.052-.392,1.521,1.521,0,0,1,.287-.885,1.5,1.5,0,0,1,.767-.556l0,0A1.483,1.483,0,0,1,48.8,4.06a1.519,1.519,0,0,1,.86.269,1.5,1.5,0,0,1,.561.725L55.694,20.4a2.015,2.015,0,0,0,.764.987l-.627,1.462a21.041,21.041,0,0,0-1.49,2.432,13.331,13.331,0,0,0-1.7,5.948,7.347,7.347,0,0,0,.322,2.194,6.441,6.441,0,0,0,1.125,2.118A2.031,2.031,0,0,0,57.262,33h0a2.389,2.389,0,0,1-.42-.791,3.287,3.287,0,0,1-.137-.984,9.515,9.515,0,0,1,1.235-4.065,17.66,17.66,0,0,1,.9-1.526c.122-.185.222-.328.29-.421l.074-.1.015-.021h0l.153-.2L62.457,17.7a1.7,1.7,0,0,1,.652-.774,1.755,1.755,0,0,1,.946-.278,1.709,1.709,0,0,1,.87.237,1.732,1.732,0,0,1,.858,1.5,1.77,1.77,0,0,1-.07.49l-.013.044-2.2,9.349a8.616,8.616,0,0,0,1.471,7.118l.087.117-11.1,9.3ZM186.5,243.779a6.528,6.528,0,0,1,7.854,0l5.239,3.946a29.552,29.552,0,0,0,26.561,4.61l.04-.013,8.28-2.949a2.319,2.319,0,0,0-.509,1.241l-6.331,66.064-6.643,48.749v1.243a24.868,24.868,0,0,1-19.942-.728l-.254-1.4V321.9l-1.939-50.992-1.04-.655c-.022-.014-2.294-1.444-4.921-2.9-1.316-.727-2.717-1.46-4.01-2.035a18.907,18.907,0,0,0-1.873-.732c-.285-.088-.56-.167-.847-.229l.187-20.495C186.4,243.836,186.452,243.814,186.5,243.779ZM148.952,224a15.685,15.685,0,0,1,11.206-4.668h.051l5.837.023a15.783,15.783,0,0,1,15.722,15.78v.134L181.11,307.3,180.9,310c-4.409,2.014-14.21,5.388-24.427,1.609l-.021-.125-11.9-74.064a16.132,16.132,0,0,1-.175-2.348A15.739,15.739,0,0,1,148.952,224ZM123.986,105.918l.181,11.825-6.945-.891-.181-11.825ZM120.2,200.269a66.082,66.082,0,0,1-11.772,5.993,21.556,21.556,0,0,1-7.184,1.131,28.185,28.185,0,0,1-9.315-1.6,22.478,22.478,0,0,1-8.187-4.95c-3.458-3.353-6.309-7.589-9.036-11.289a42.69,42.69,0,0,0-4.155-5,11.514,11.514,0,0,0-4.928-3.11,8.873,8.873,0,0,0-2.336-.319,10.082,10.082,0,0,0-4.238,1.012,53.168,53.168,0,0,0-5.725,3.433,35.482,35.482,0,0,1-7.086,3.581,18.152,18.152,0,0,1-6.122,1.285,12.686,12.686,0,0,1-6.1-1.717,89.773,89.773,0,0,1-8.432-5.438c-4.872-3.359-10.451-7.637-14.8-11.066-2.174-1.715-4.041-3.219-5.364-4.293l-.6-.485,5.313-7.032c2,1.947,6.257,5.743,15.605,13.478a29.525,29.525,0,0,0,7.372,4.635,17.092,17.092,0,0,0,6.64,1.392,18.564,18.564,0,0,0,6.742-1.363c3.1-1.2,5.849-2.89,8.6-4.208a19.162,19.162,0,0,1,8.437-2.284,15.321,15.321,0,0,1,4.665.753,17.783,17.783,0,0,1,8.495,5.721,45.1,45.1,0,0,1,4.258,6.281c2,3.362,3.991,6.945,7.12,9.846a18.557,18.557,0,0,0,5.646,3.605,23.178,23.178,0,0,0,7.821,1.594q.651.028,1.294.028a30.181,30.181,0,0,0,17.1-5.448,49.283,49.283,0,0,0,9.816-9.069c.027.028.048.064.076.091a4.111,4.111,0,0,0,2.324,1.131,2.013,2.013,0,0,0,.387.294h0a2.335,2.335,0,0,1,.839.868,2.743,2.743,0,0,1,.363,1.364,2.983,2.983,0,0,1-.313,1.309,4.745,4.745,0,0,1-1.208,1.507,1.566,1.566,0,0,1-1.006.755C128.057,195.055,124.2,197.793,120.2,200.269ZM366.94,174.375c-2.175,2.023-5.563,3.592-10.645,3.6a27.8,27.8,0,0,1-3.934-.293c-14.682-2.1-24.758-4.418-31.38-5.683a12.111,12.111,0,0,0-2.273-.229,8.371,8.371,0,0,0-4.053.989,10.091,10.091,0,0,0-2.215,1.66,37.613,37.613,0,0,0-2.524,2.86,19.477,19.477,0,0,1-2.556,2.621,17.2,17.2,0,0,1-4.04,2.236,53.439,53.439,0,0,1-10.272,2.973,67.113,67.113,0,0,1-12.533,1.237q-.753,0-1.5-.02a70.832,70.832,0,0,1-10.249-1.257c-11.73-2.113-27.138-6.292-42.114-7.4-9.45-.7-21.726-1.161-34.443-1.161-11.55,0-23.457.381-33.941,1.322-5.243.47-10.13,1.081-14.451,1.859a61.229,61.229,0,0,0-11.1,2.9l0,0-.018.006h0l-.005,0-.034-.028-.011-.047v-6.3a7.906,7.906,0,0,1,6.564-7.808c13.1-2.244,31.168-3.3,49.213-3.3,12.212,0,24.425.48,35.112,1.385,6.11.516,11.726,1.176,16.544,1.957a2.313,2.313,0,0,0,2.236.382c2.681.482,5.074,1,7.1,1.562,11,3.022,21.4,4.815,30.566,4.817a48.66,48.66,0,0,0,14.889-2.065,26.4,26.4,0,0,0,11.308-6.873,11.559,11.559,0,0,1,4.48-2.979,16.008,16.008,0,0,1,5.581-.893c4.642-.01,10.231,1.463,16.142,3.31s12.162,4.029,18.325,5.307a28.351,28.351,0,0,0,5.7.654,10.749,10.749,0,0,0,6.6-1.8,6.092,6.092,0,0,0,1.843-2.245,6.264,6.264,0,0,0,.587-2.692,8.761,8.761,0,0,0-1.077-4.027,14.789,14.789,0,0,1,3.283,2.378,10.932,10.932,0,0,1,1.73,2.092,4.238,4.238,0,0,1,.658,1.647,6.582,6.582,0,0,1,.036.7A9.376,9.376,0,0,1,366.94,174.375Z" fill="#3e485c"/>
    <path id="パス_1336" data-name="パス 1336" d="M556.425,318.284a1.922,1.922,0,0,0-2.514-.165l-10.46,7.928a1.923,1.923,0,0,0-.19,2.9l13.476,13.312a1.922,1.922,0,0,0,2.514.165l10.46-7.928a1.923,1.923,0,0,0,.19-2.9Zm1.831,20.068-10.711-10.58,7.362-5.581,10.711,10.58Z" transform="translate(-233.654 -136.797)" fill="#3e485c"/>
    <path id="パス_1337" data-name="パス 1337" d="M360.758,364.736a1.927,1.927,0,0,0-1.478.609l-10.731,11.48a1.92,1.92,0,0,0-.094,2.517l6.816,8.49a1.924,1.924,0,0,0,2.905.109l10.731-11.48a1.921,1.921,0,0,0,.095-2.517l-6.816-8.49A1.928,1.928,0,0,0,360.758,364.736Zm-3.877,18.957-4.383-5.459,8.077-8.641,4.384,5.459Z" transform="translate(-149.844 -157.036)" fill="#3e485c"/>
    <path id="パス_1338" data-name="パス 1338" d="M394.925,232.312a1.926,1.926,0,0,0-1.585-.207l-15.019,4.626a1.921,1.921,0,0,0-1.334,2.137l1.693,10.755a1.924,1.924,0,0,0,2.467,1.539l15.019-4.626A1.922,1.922,0,0,0,397.5,244.4l-1.693-10.755A1.928,1.928,0,0,0,394.925,232.312Zm-12.79,14.52-1.088-6.915,11.3-3.482,1.089,6.916Z" transform="translate(-162.301 -99.896)" fill="#3e485c"/>
    <path id="パス_1339" data-name="パス 1339" d="M456.588,57.753l13.74,7.627a1.922,1.922,0,0,0,2.466-.518l6.586-8.669a1.923,1.923,0,0,0-.6-2.845l-13.74-7.627a1.922,1.922,0,0,0-2.466.518l-6.586,8.67a1.923,1.923,0,0,0,.6,2.845Zm8.044-7.861,10.341,5.741-4.235,5.575L460.4,55.467Z" transform="translate(-196.157 -19.58)" fill="#3e485c"/>
    <path id="パス_1340" data-name="パス 1340" d="M477.511,515.2a1.923,1.923,0,0,0-2.482-1.514l-14.972,4.778a1.921,1.921,0,0,0-1.313,2.15l1.8,10.737a1.923,1.923,0,0,0,2.482,1.514L478,528.086a1.923,1.923,0,0,0,1.313-2.15Zm-13.538,13.326-1.158-6.9,11.269-3.6,1.158,6.9Z" transform="translate(-197.5 -221.127)" fill="#3e485c"/>
    <path id="パス_1341" data-name="パス 1341" d="M168.487,56.223a1.924,1.924,0,0,0,2.9.251l11.279-10.941a1.922,1.922,0,0,0,.218-2.51l-6.392-8.813a1.924,1.924,0,0,0-2.9-.251L162.313,44.9a1.92,1.92,0,0,0-.218,2.51Zm6.191-17.958,4.11,5.668-8.49,8.235L166.187,46.5Z" transform="translate(-69.631 -14.387)" fill="#3e485c"/>
    <path id="パス_1342" data-name="パス 1342" d="M168.2,309.776a1.928,1.928,0,0,0,1.352-.851l8.625-13.135a1.921,1.921,0,0,0-.334-2.5l-8.159-7.209a1.924,1.924,0,0,0-2.882.386l-8.625,13.135a1.92,1.92,0,0,0,.334,2.5l8.159,7.209A1.926,1.926,0,0,0,168.2,309.776Zm.6-19.34,5.247,4.636-6.492,9.886-5.246-4.636Z" transform="translate(-67.967 -122.965)" fill="#3e485c"/>
    <path id="パス_1343" data-name="パス 1343" d="M99.875,394.869a1.923,1.923,0,0,0-2.721-1.022l-13.812,7.5a1.92,1.92,0,0,0-.885,2.358l3.781,10.209a1.923,1.923,0,0,0,2.721,1.022l13.812-7.5a1.922,1.922,0,0,0,.885-2.358ZM86.643,403.93l10.4-5.644,2.431,6.565-10.4,5.644Z" transform="translate(-35.45 -169.469)" fill="#3e485c"/>
    <path id="パス_1344" data-name="パス 1344" d="M510.493,400.117l-17.981-7.787a1.922,1.922,0,0,0-2.4.757l-7.114,11.561a1.924,1.924,0,0,0,.874,2.773l17.98,7.787a1.922,1.922,0,0,0,2.4-.757l7.115-11.562a1.924,1.924,0,0,0-.874-2.773Zm-8.644,10.9-14.414-6.243,5.077-8.251,14.414,6.242Z" transform="translate(-207.829 -168.848)" fill="#3e485c"/>
    <path id="パス_1345" data-name="パス 1345" d="M177.446,546.931l-15.1-4.372a1.921,1.921,0,0,0-2.287,1.055l-4.488,9.919a1.923,1.923,0,0,0,1.217,2.64l15.1,4.372a1.921,1.921,0,0,0,2.287-1.055l4.488-9.919a1.923,1.923,0,0,0-1.217-2.64Zm-6.089,9.456L159.995,553.1l2.886-6.378,11.362,3.291Z" transform="translate(-66.909 -233.565)" fill="#3e485c"/>
    <path id="パス_1346" data-name="パス 1346" d="M198.769,443.1l-10.459-7.928a1.921,1.921,0,0,0-2.514.165L172.319,448.65a1.923,1.923,0,0,0,.19,2.9l10.46,7.928a1.922,1.922,0,0,0,2.514-.165L198.958,446a1.923,1.923,0,0,0-.19-2.9Zm-14.805,12.3-7.362-5.581,10.711-10.58,7.362,5.581Z" transform="translate(-73.945 -187.195)" fill="#3e485c"/>
    <path id="パス_1347" data-name="パス 1347" d="M84.86,218.4l13.107.7a1.922,1.922,0,0,0,1.989-1.546l3.687-18.578a1.923,1.923,0,0,0-1.785-2.3l-13.108-.7a1.921,1.921,0,0,0-1.989,1.546L83.075,216.1a1.923,1.923,0,0,0,1.785,2.3Zm5.351-18.49,9.226.49-2.93,14.766-9.226-.49Z" transform="translate(-35.752 -84.376)" fill="#3e485c"/>
    <path id="パス_1348" data-name="パス 1348" d="M535.711,192.24a1.926,1.926,0,0,0-1.357.844L527.1,204.02a1.921,1.921,0,0,0,.322,2.5l14.134,12.611a1.923,1.923,0,0,0,2.884-.372l7.257-10.936a1.922,1.922,0,0,0-.322-2.5l-14.134-12.611A1.928,1.928,0,0,0,535.711,192.24Zm6.747,22.541-11.234-10.024,5.107-7.7,11.234,10.023Z" transform="translate(-226.802 -82.762)" fill="#3e485c"/>
  </g>
</svg>
