<svg xmlns="http://www.w3.org/2000/svg" width="206.228" height="171.687" viewBox="0 0 206.228 171.687">
  <g id="j32_1_16" transform="matrix(0.966, -0.259, 0.259, 0.966, 0, 44.975)">
    <path id="パス_335" data-name="パス 335" d="M9.206,34.216V12.506c0-1.288,3.823-5.111,8.539-5.111H171.437c4.716,0,8.539,3.823,8.539,5.111v21.71H9.206Z" transform="translate(-2.112 -1.956)" fill="#ffb64b"/>
    <path id="パス_336" data-name="パス 336" d="M170.324,218.054H16.8a8.765,8.765,0,0,1-8.764-8.765V119.554l171.051-1.03v90.765A8.764,8.764,0,0,1,170.324,218.054Z" transform="translate(-1.225 -85.046)" fill="#fff"/>
    <path id="パス_337" data-name="パス 337" d="M73.711,58.592a3.106,3.106,0,1,1-3.105-3.106A3.106,3.106,0,0,1,73.711,58.592Z" transform="translate(-48.773 -40.877)" fill="#ff7373"/>
    <path id="パス_338" data-name="パス 338" d="M129.249,58.592a3.105,3.105,0,1,1-3.105-3.106A3.106,3.106,0,0,1,129.249,58.592Z" transform="translate(-90.907 -40.877)" fill="#43caff"/>
    <path id="パス_339" data-name="パス 339" d="M184.784,58.592a3.106,3.106,0,1,1-3.105-3.106A3.106,3.106,0,0,1,184.784,58.592Z" transform="translate(-133.039 -40.877)" fill="#edff87"/>
    <path id="パス_340" data-name="パス 340" d="M352.788,59.428H265.308a4.214,4.214,0,0,1,0-8.428h87.481a4.214,4.214,0,0,1,0,8.428Z" transform="translate(-198.08 -38.691)" fill="#fff"/>
    <rect id="長方形_160" data-name="長方形 160" width="137.935" height="43.831" transform="translate(22.47 46.524)" fill="#4287c6"/>
    <path id="パス_341" data-name="パス 341" d="M10.039,129.12H163.731a10.039,10.039,0,0,0,10.038-10.039V10.04A10.039,10.039,0,0,0,163.73,0H10.039A10.039,10.039,0,0,0,0,10.04V119.081A10.039,10.039,0,0,0,10.039,129.12ZM3,10.04A7.039,7.039,0,0,1,10.039,3H163.731a7.039,7.039,0,0,1,7.039,7.04V27.678H3ZM3,30.678H170.769v88.4a7.039,7.039,0,0,1-7.039,7.039H10.039A7.039,7.039,0,0,1,3,119.081v-88.4Z" fill="#3e485c"/>
    <path id="パス_342" data-name="パス 342" d="M62.9,48.094A4.606,4.606,0,1,0,67.5,52.7,4.606,4.606,0,0,0,62.9,48.094Zm0,6.212A1.606,1.606,0,1,1,64.505,52.7,1.609,1.609,0,0,1,62.9,54.306Z" transform="translate(-44.225 -36.487)" fill="#3e485c"/>
    <path id="パス_343" data-name="パス 343" d="M118.437,48.094a4.606,4.606,0,1,0,4.605,4.606A4.606,4.606,0,0,0,118.437,48.094Zm0,6.212a1.606,1.606,0,1,1,1.605-1.606A1.609,1.609,0,0,1,118.437,54.306Z" transform="translate(-86.359 -36.487)" fill="#3e485c"/>
    <path id="パス_344" data-name="パス 344" d="M173.972,48.094a4.606,4.606,0,1,0,4.606,4.606A4.606,4.606,0,0,0,173.972,48.094Zm0,6.212a1.606,1.606,0,1,1,1.606-1.606A1.609,1.609,0,0,1,173.972,54.306Z" transform="translate(-128.491 -36.487)" fill="#3e485c"/>
    <path id="パス_345" data-name="パス 345" d="M345.081,43.606H257.6a5.714,5.714,0,0,0,0,11.428h87.481a5.714,5.714,0,0,0,0-11.428ZM347,51.235a2.7,2.7,0,0,1-1.915.8H257.6a2.715,2.715,0,0,1,0-5.429h87.481A2.709,2.709,0,0,1,347,51.235Z" transform="translate(-191.094 -33.082)" fill="#3e485c"/>
    <path id="パス_346" data-name="パス 346" d="M207.674,167.438H65.547v46.89H207.674Zm-2.8,44.086H68.35V170.241h136.52v41.282Z" transform="translate(-49.728 -127.028)" fill="#3e485c"/>
    <path id="パス_347" data-name="パス 347" d="M360.777,230.974a13.7,13.7,0,0,1,4.372-5.01,11.019,11.019,0,0,1,5.249-2.124l1.084-.079.193-1.069a11.494,11.494,0,0,1,21.721-2.817l.367.782.865.024a12.554,12.554,0,0,1,8.621,4.388,15.247,15.247,0,0,1,4.035,10.156h2.8a18.041,18.041,0,0,0-4.765-12.042,15.593,15.593,0,0,0-9.761-5.227,14.287,14.287,0,0,0-26.415,3.229,13.106,13.106,0,0,0-3.431,1.18,17.222,17.222,0,0,0-6.015,5.031,13.126,13.126,0,0,0-2.753,7.83h2.8A9.624,9.624,0,0,1,360.777,230.974Z" transform="translate(-270.799 -159.656)" fill="#3e485c"/>
    <path id="パス_348" data-name="パス 348" d="M241.225,243.54H243.4v-3.7h3.9v-2.175h-3.9v-3.7h-2.174v3.7h-3.9v2.175h3.9Z" transform="translate(-180.045 -177.498)" fill="#3e485c"/>
    <path id="パス_349" data-name="パス 349" d="M152.861,277.324h-2v3.408h-3.6v2h3.6v3.409h2v-3.409h3.6v-2h-3.6Z" transform="translate(-111.722 -210.393)" fill="#3e485c"/>
    <path id="パス_350" data-name="パス 350" d="M146.563,209.161h2v-3.409h3.6v-2h-3.6v-3.408h-2v3.408h-3.6v2h3.6Z" transform="translate(-108.463 -151.99)" fill="#3e485c"/>
    <rect id="長方形_161" data-name="長方形 161" width="32.619" height="2.804" transform="translate(17.221 97.446)" fill="#3e485c"/>
    <rect id="長方形_162" data-name="長方形 162" width="32.619" height="2.804" transform="translate(17.221 106.343)" fill="#3e485c"/>
    <rect id="長方形_163" data-name="長方形 163" width="32.619" height="2.804" transform="translate(121.01 97.446)" fill="#3e485c"/>
    <rect id="長方形_164" data-name="長方形 164" width="32.619" height="2.804" transform="translate(121.01 106.343)" fill="#3e485c"/>
    <rect id="長方形_165" data-name="長方形 165" width="32.619" height="2.804" transform="translate(70.005 97.446)" fill="#3e485c"/>
    <rect id="長方形_166" data-name="長方形 166" width="32.619" height="2.804" transform="translate(70.005 106.343)" fill="#3e485c"/>
  </g>
</svg>
