<svg xmlns="http://www.w3.org/2000/svg" width="482" height="320" viewBox="0 0 482 320">
  <g id="welcome_illust-yellow" transform="translate(-128 -2194)">
    <path id="img" d="M10,0H472a10,10,0,0,1,10,10V310a10,10,0,0,1-10,10H10A10,10,0,0,1,0,310V10A10,10,0,0,1,10,0Z" transform="translate(128 2194)" fill="#ffe7ab"/>
    <g id="グループ_2586" data-name="グループ 2586" transform="translate(14.756 428.5)">
      <path id="パス_1729" data-name="パス 1729" d="M145.024,224.63C166.982,220.379,188,198.65,183.931,179l-.976-1.277c-6.056,11.432-21.657-2.075-16.274-12.835s21.35-17.18,12.083-35.1c0,4.881-6.412,7.942-11.482,3.7-3.555-2.976-5.038-12.772,1.756-18.794,10.064-8.921,6.881-28.283.392-34.753-1.9,10.087-18.331,6.86-12.592-5.294,2.4-5.085,6.243-13.43-2.549-20.566l-1.495.984c2.072,2.936.317,11.21-5.92,14.11-8.3,3.859-17.216-9.069-15.272-17s2.3-14.111-3.932-19.364a8.961,8.961,0,0,1-9.423,10.089c-7.019-.008-8.73-7.4-5.057-13.032,2.7-4.146,3.311-13.072-7.255-18.2,2.335,2.2,2.2,11.146-5.584,11.915-8.934.883-11.395-13.389-6.8-18.065l-1.138-.6c-8.7,1.461-13.426,9.936-9.633,15.782s5.374,14.028-2.509,17.535S65.361,34.429,66.809,28H64.762c-13.908,8.767-7.18,19.286-6.006,24.169,1.9,7.887-9.2,10.839-11.695,2.426l-1.9-3.857c-12.085,9.161-9.3,20.126-7.179,27.073C41.9,90.667,21.7,90.022,19.8,79.935c-6.489,6.469-9.673,25.832.392,34.753,6.794,6.023,5.311,15.818,1.756,18.794-5.07,4.244-11.482,1.184-11.482-3.7l-1.8,3.971c-5.436,17.742,8.5,20.374,13.885,31.133s-7.916,21.568-13.972,10.136L5.3,179c-4.073,19.651,16.949,41.38,38.907,45.631" transform="translate(262.48 1791.485)" fill="#e96f45"/>
      <path id="パス_1743" data-name="パス 1743" d="M40.622,610.888h0A53.09,53.09,0,0,1,13.9,596.222,45.433,45.433,0,0,1,5.254,584.3a29.816,29.816,0,0,1-3.23-13.026,23.62,23.62,0,0,1,.489-4.814,1.012,1.012,0,0,0-1.982-.411A25.636,25.636,0,0,0,0,571.27a31.83,31.83,0,0,0,3.435,13.913,50.743,50.743,0,0,0,15.079,17.74,53.608,53.608,0,0,0,21.723,9.951,1.012,1.012,0,1,0,.385-1.986Z" transform="translate(261.568 1400.313)" fill="#3e485c" stroke="#3e485c" stroke-width="1"/>
      <path id="パス_1744" data-name="パス 1744" d="M17.213,442.679c2.524,2.5,4.978,5.01,6.584,8.224a10.447,10.447,0,0,1,1.148,4.7,9.591,9.591,0,0,1-2.355,6.311,8.04,8.04,0,0,1-2.4,1.882,5.972,5.972,0,0,1-2.684.669,5.349,5.349,0,0,1-3.048-.969,9.15,9.15,0,0,1-2.836-3.379,1.012,1.012,0,0,0-1.789.947h0a11.15,11.15,0,0,0,3.486,4.1,7.383,7.383,0,0,0,4.187,1.319A8,8,0,0,0,21.1,465.6a10.49,10.49,0,0,0,4.184-3.959,11.666,11.666,0,0,0,1.682-6.041,12.473,12.473,0,0,0-1.362-5.6,26.641,26.641,0,0,0-4.437-6.163c-2.5-2.7-5.189-5-7.2-7.616a16.7,16.7,0,0,1-2.439-4.231,14.545,14.545,0,0,1-.94-5.286,24.242,24.242,0,0,1,1.192-7.088,1.012,1.012,0,0,0-1.936-.592,26.219,26.219,0,0,0-1.281,7.68,16.372,16.372,0,0,0,1.839,7.71C12.106,437.684,14.7,440.176,17.213,442.679Z" transform="translate(255.637 1502.002)" fill="#3e485c" stroke="#3e485c" stroke-width="1"/>
      <path id="パス_1745" data-name="パス 1745" d="M20.633,233.591a7.637,7.637,0,0,0,5.091,1.889,9.112,9.112,0,0,0,5.857-2.248,8.924,8.924,0,0,0,2.456-3.707,14.777,14.777,0,0,0,.909-5.182,15.572,15.572,0,0,0-1.165-5.937,14.946,14.946,0,0,0-3.934-5.5,17.09,17.09,0,0,1-4.675-7.094,25.966,25.966,0,0,1-1.432-8.771A32.315,32.315,0,0,1,25.4,186.854a21.549,21.549,0,0,1,2.96-5.9,9.042,9.042,0,0,0,1.027,1.791,11.238,11.238,0,0,0,4.559,3.536,14.152,14.152,0,0,0,5.643,1.188,10.2,10.2,0,0,0,6.1-1.81,6.811,6.811,0,0,0,2.037-2.413,7.476,7.476,0,0,0,.756-3.382,11.613,11.613,0,0,0-.546-3.377,34.381,34.381,0,0,1-1.828-10.009,18,18,0,0,1,1.771-7.97,22.357,22.357,0,0,1,6.878-7.994,1.012,1.012,0,1,0-1.223-1.612,24.361,24.361,0,0,0-7.477,8.723,20.016,20.016,0,0,0-1.974,8.852A36.289,36.289,0,0,0,46,177.079a9.614,9.614,0,0,1,.458,2.787,5.454,5.454,0,0,1-.542,2.476,5.109,5.109,0,0,1-2.45,2.3,9.051,9.051,0,0,1-3.878.8,11.905,11.905,0,0,1-6.269-1.786,8.556,8.556,0,0,1-2.3-2.114,6.863,6.863,0,0,1-1.237-2.826v0a1,1,0,0,0-.057-.193c-.011-.027-.027-.052-.041-.078a.92.92,0,0,0-.052-.1,1.028,1.028,0,0,0-.127-.156l0,0c-.013-.013-.029-.022-.042-.035a1.047,1.047,0,0,0-.109-.09c-.029-.019-.06-.034-.091-.05s-.054-.031-.082-.043a1.015,1.015,0,0,0-.1-.032c-.03-.009-.058-.02-.089-.026s-.071-.009-.106-.012-.059-.008-.09-.009a1.015,1.015,0,0,0-.164.014c-.01,0-.021,0-.031,0h0a1.012,1.012,0,0,0-.194.057c-.027.011-.05.027-.076.04a.974.974,0,0,0-.1.052.986.986,0,0,0-.156.127h0A20.856,20.856,0,0,0,23.48,186.2a34.32,34.32,0,0,0-1.764,10.835,27.973,27.973,0,0,0,1.552,9.458,19.108,19.108,0,0,0,5.236,7.921,12.923,12.923,0,0,1,3.406,4.76,13.546,13.546,0,0,1,1.012,5.164,12.769,12.769,0,0,1-.778,4.467,6.959,6.959,0,0,1-1.863,2.871,7.086,7.086,0,0,1-4.558,1.776,5.616,5.616,0,0,1-3.742-1.375,4.4,4.4,0,0,1-1.52-3.323,1.012,1.012,0,0,0-2.024,0h0A6.435,6.435,0,0,0,20.633,233.591Z" transform="translate(248.807 1688.59)" fill="#3e485c" stroke="#3e485c" stroke-width="1"/>
      <path id="パス_1746" data-name="パス 1746" d="M319.206,174.045a1.011,1.011,0,0,0-1.87-.737h0a7.683,7.683,0,0,1-2.548,2.954,5.316,5.316,0,0,1-2.936.858,7.6,7.6,0,0,1-3.478-.928,12.451,12.451,0,0,1-4.585-4.3,11.677,11.677,0,0,1-1.931-6.235,9.416,9.416,0,0,1,1-4.255,29.773,29.773,0,0,1,3.978-5.739c2.357-2.8,5.083-5.548,7.257-8.671a22.878,22.878,0,0,0,2.71-5.033,16.7,16.7,0,0,0,1.08-5.906,23.221,23.221,0,0,0-2.947-10.672c-.009-.017-.021-.031-.031-.047a1.026,1.026,0,0,0-.057-.088c-.02-.027-.041-.052-.063-.077s-.043-.045-.066-.067-.052-.045-.079-.066-.05-.035-.076-.052a1,1,0,0,0-.089-.048c-.029-.014-.057-.026-.087-.037a.982.982,0,0,0-.1-.03c-.03-.008-.059-.014-.09-.019a.977.977,0,0,0-.112-.011c-.018,0-.034-.005-.051-.005s-.022,0-.034,0a.939.939,0,0,0-.114.012c-.03,0-.06.009-.09.016s-.063.018-.095.029a.954.954,0,0,0-.1.039c-.012.005-.023.008-.035.014s-.03.021-.047.03a1.052,1.052,0,0,0-.088.058c-.027.02-.052.041-.077.063s-.045.042-.067.066a1.018,1.018,0,0,0-.066.08c-.018.025-.035.05-.052.076s-.034.058-.048.089-.026.057-.037.087a.961.961,0,0,0-.03.1c-.008.03-.014.059-.019.089a1.052,1.052,0,0,0-.011.113c0,.018-.005.034-.005.051h0a4.4,4.4,0,0,1-1.52,3.323,5.616,5.616,0,0,1-3.742,1.375,7.081,7.081,0,0,1-4.557-1.776,6.96,6.96,0,0,1-1.863-2.871,12.762,12.762,0,0,1-.779-4.467,13.539,13.539,0,0,1,1.012-5.164,12.907,12.907,0,0,1,3.407-4.76,19.109,19.109,0,0,0,5.236-7.921,27.988,27.988,0,0,0,1.552-9.458,34.319,34.319,0,0,0-1.764-10.835,20.864,20.864,0,0,0-4.588-8.013l0,0a1.023,1.023,0,0,0-.154-.125,1.009,1.009,0,0,0-.155-.082l-.02-.011a1,1,0,0,0-.2-.058h-.013a1.025,1.025,0,0,0-.184-.016c-.028,0-.055.006-.083.008A1.068,1.068,0,0,0,304.5,75c-.029.006-.056.017-.085.025s-.07.019-.1.033-.052.027-.078.041a.992.992,0,0,0-.1.053,1.01,1.01,0,0,0-.1.082c-.017.014-.035.026-.051.042l0,0a1.011,1.011,0,0,0-.126.154.99.99,0,0,0-.085.16c0,.005-.006.01-.008.015a1.01,1.01,0,0,0-.058.2h0a6.241,6.241,0,0,1-2.27,3.92,6.17,6.17,0,0,1-3.777,1.251,6.107,6.107,0,0,1-4-1.428,4.963,4.963,0,0,1-1.267-1.7,5.693,5.693,0,0,1-.486-2.376,10.262,10.262,0,0,1,1.114-4.345,43.355,43.355,0,0,0,1.988-4.736,18.33,18.33,0,0,0,1.045-5.817,12.893,12.893,0,0,0-1.287-5.689,16.408,16.408,0,0,0-4.572-5.541,1.009,1.009,0,0,0-1.636.934.972.972,0,0,0-1.292,1.4,3.307,3.307,0,0,1,.471,1.1,6.6,6.6,0,0,1,.179,1.6,11.706,11.706,0,0,1-1.53,5.534,10.431,10.431,0,0,1-4.655,4.438,6.363,6.363,0,0,1-2.712.612,7.914,7.914,0,0,1-4.153-1.3,16.894,16.894,0,0,1-7.293-13.074,8.921,8.921,0,0,1,.242-2.125,36.889,36.889,0,0,0,1.283-8.607,15.02,15.02,0,0,0-1.234-6.23,15.434,15.434,0,0,0-4.3-5.5c-.011-.009-.023-.014-.033-.023-.026-.02-.054-.038-.082-.056a.934.934,0,0,0-.082-.047.877.877,0,0,0-.084-.035c-.031-.012-.061-.023-.093-.032s-.058-.013-.087-.018-.066-.011-.1-.013-.057,0-.086,0a.9.9,0,0,0-.108.007c-.012,0-.024,0-.036,0s-.03.009-.045.012a.937.937,0,0,0-.1.029c-.028.01-.055.02-.081.032a.935.935,0,0,0-.089.045c-.027.016-.053.032-.079.05s-.05.037-.073.058a.942.942,0,0,0-.073.071c-.012.012-.025.022-.036.035s-.014.022-.022.033a.952.952,0,0,0-.057.083c-.017.027-.033.053-.046.081s-.025.056-.036.084-.023.061-.031.092-.013.058-.018.087-.011.066-.013.1,0,.057,0,.086a.9.9,0,0,0,.007.107c0,.012,0,.024,0,.037a4.78,4.78,0,0,1,.056.777,8.992,8.992,0,0,1-.365,2.44,7.982,7.982,0,0,1-2.406,3.876,8.465,8.465,0,0,1-5.732,1.86h-.016a6.906,6.906,0,0,1-2.66-.488,5.022,5.022,0,0,1-2.461-2.148,6.723,6.723,0,0,1-.846-3.392,10.214,10.214,0,0,1,1.725-5.5,12.1,12.1,0,0,0,1.839-6.5,12.668,12.668,0,0,0-2.1-6.971,17.831,17.831,0,0,0-7.387-6.133c-.014-.006-.028-.009-.042-.015a1.019,1.019,0,0,0-.1-.035c-.03-.009-.059-.017-.089-.023a.929.929,0,0,0-.092-.014c-.032,0-.065-.006-.1-.006s-.059,0-.089,0-.064.006-.1.012-.059.013-.088.021-.061.018-.09.03a.874.874,0,0,0-.083.038.94.94,0,0,0-.086.048c-.024.016-.048.033-.071.05a1,1,0,0,0-.082.071c-.01.01-.022.017-.031.027s-.017.024-.027.035a.926.926,0,0,0-.063.083.9.9,0,0,0-.052.085c-.007.014-.018.025-.024.04s-.009.028-.015.041a1,1,0,0,0-.036.1c-.009.03-.017.059-.023.089a.931.931,0,0,0-.014.092c0,.033-.006.065-.006.1s0,.059,0,.089.006.064.012.1.013.059.021.088.018.06.03.09.024.056.038.083a.9.9,0,0,0,.048.086c.016.024.033.048.051.071a.923.923,0,0,0,.071.081c.01.01.017.022.028.032a3.047,3.047,0,0,1,.7,1.263,7.011,7.011,0,0,1,.31,2.124A7.47,7.47,0,0,1,240.2,16.2a5.759,5.759,0,0,1-1.829,1.616,7.175,7.175,0,0,1-2.842.846c-.237.023-.466.034-.688.034a5.776,5.776,0,0,1-3.091-.861,8.328,8.328,0,0,1-3.119-3.887,14.178,14.178,0,0,1-1.1-5.506,11.975,11.975,0,0,1,.518-3.594,6.491,6.491,0,0,1,1.468-2.6A.971.971,0,0,0,228.6.626a.973.973,0,0,0-1.072-.619A14.915,14.915,0,0,0,219.01,4.5a11.584,11.584,0,0,0-3.25,7.765,9.135,9.135,0,0,0,1.479,5.014A16.871,16.871,0,0,1,220.212,26a7.731,7.731,0,0,1-1.132,4.2,8.579,8.579,0,0,1-3.93,3.192,9.132,9.132,0,0,1-3.724.826,8.731,8.731,0,0,1-8.557-8.437,6.882,6.882,0,0,1,.167-1.515.974.974,0,0,0-1.9-.428h0a8.824,8.824,0,0,0-.215,1.943,10.676,10.676,0,0,0,10.5,10.383,11.081,11.081,0,0,0,4.516-.994,10.527,10.527,0,0,0,4.785-3.932A9.677,9.677,0,0,0,222.16,26a18.75,18.75,0,0,0-3.287-9.784,7.182,7.182,0,0,1-1.165-3.955,9.649,9.649,0,0,1,2.731-6.443,12.891,12.891,0,0,1,6.789-3.764A9.377,9.377,0,0,0,226.2,4.262a13.908,13.908,0,0,0-.609,4.184,15.305,15.305,0,0,0,2.246,8.138,9.322,9.322,0,0,0,2.9,2.912,7.736,7.736,0,0,0,4.113,1.151q.431,0,.877-.043h0a9.127,9.127,0,0,0,3.6-1.087,7.845,7.845,0,0,0,3.237-3.476,9.776,9.776,0,0,0,.941-4.225,9.459,9.459,0,0,0-.168-1.761,14.224,14.224,0,0,1,4.055,3.986,10.713,10.713,0,0,1,1.78,5.907,10.174,10.174,0,0,1-1.523,5.438,12.146,12.146,0,0,0-2.04,6.561,8.2,8.2,0,0,0,1.99,5.576,7,7,0,0,0,2.517,1.762,8.859,8.859,0,0,0,3.406.637h.03a11.418,11.418,0,0,0,5.135-1.1,9.2,9.2,0,0,0,4.231-4.37,11.259,11.259,0,0,0,.978-3.33,12.367,12.367,0,0,1,2.2,3.3,13.077,13.077,0,0,1,1.064,5.436,35.049,35.049,0,0,1-1.227,8.144,10.876,10.876,0,0,0-.3,2.588,16.132,16.132,0,0,0,1.094,5.6,19.841,19.841,0,0,0,4.866,7.389,13.583,13.583,0,0,0,3.475,2.4,9.317,9.317,0,0,0,3.958.928,8.326,8.326,0,0,0,3.533-.793,12.377,12.377,0,0,0,5.533-5.252,13.629,13.629,0,0,0,1.779-6.485,8.518,8.518,0,0,0-.238-2.071,5.773,5.773,0,0,0-.413-1.132,14.169,14.169,0,0,1,3.733,4.6,10.861,10.861,0,0,1,1.085,4.808,16.346,16.346,0,0,1-.94,5.173,41.49,41.49,0,0,1-1.9,4.516,12.259,12.259,0,0,0-1.308,5.209,7.712,7.712,0,0,0,.666,3.212,7.112,7.112,0,0,0,2.961,3.226A8.338,8.338,0,0,0,297.665,83a8.191,8.191,0,0,0,5.016-1.674,7.911,7.911,0,0,0,2.461-3.274,21.594,21.594,0,0,1,2.95,5.885,32.317,32.317,0,0,1,1.658,10.187,25.973,25.973,0,0,1-1.432,8.771,17.085,17.085,0,0,1-4.674,7.094,14.939,14.939,0,0,0-3.935,5.5,15.566,15.566,0,0,0-1.165,5.937,14.778,14.778,0,0,0,.91,5.182,8.925,8.925,0,0,0,2.457,3.706,9.111,9.111,0,0,0,5.857,2.248,7.64,7.64,0,0,0,5.091-1.889,6.623,6.623,0,0,0,1.447-1.85,19.112,19.112,0,0,1,1.558,7.226,15.1,15.1,0,0,1-1.634,6.777,40.8,40.8,0,0,1-6.455,8.691c-2.494,2.812-5.052,5.649-6.72,8.975a11.436,11.436,0,0,0-1.219,5.161,13.076,13.076,0,0,0,1.057,5.062,15.158,15.158,0,0,0,4.535,5.962,10.613,10.613,0,0,0,6.427,2.464,7.355,7.355,0,0,0,4.035-1.181,8.914,8.914,0,0,0,2.394-2.341,23.77,23.77,0,0,1,.424,4.456,29.816,29.816,0,0,1-3.23,13.026A48.744,48.744,0,0,1,301,210.113a51.6,51.6,0,0,1-20.887,9.579,1.012,1.012,0,1,0,.385,1.987h0a55.094,55.094,0,0,0,27.772-15.227,47.465,47.465,0,0,0,9.03-12.465,31.83,31.83,0,0,0,3.435-13.913,25.713,25.713,0,0,0-.53-5.225A1.018,1.018,0,0,0,319.206,174.045Z" transform="translate(122.515 1791.507)" fill="#3e485c" stroke="#3e485c" stroke-width="1"/>
      <path id="パス_1747" data-name="パス 1747" d="M137.441,102.826h0a8.288,8.288,0,0,0,2.852,4.354,6.868,6.868,0,0,0,4.176,1.4,6.955,6.955,0,0,0,4.678-1.791,6.407,6.407,0,0,0,1.537-2.128,6.822,6.822,0,0,0,.576-2.79,8.462,8.462,0,0,0-.243-1.979c-.166-.689-.417-1.428-.7-2.229a25.721,25.721,0,0,1-1.933-8.478,11.8,11.8,0,0,1,1.65-6.116,19.14,19.14,0,0,1,6.558-6.3.973.973,0,1,0-1.038-1.646,21.06,21.06,0,0,0-7.2,6.957,13.765,13.765,0,0,0-1.918,7.1,21.584,21.584,0,0,0,1.148,6.5c.3.955.619,1.836.894,2.623s.507,1.482.641,2.042a6.515,6.515,0,0,1,.189,1.525,4.876,4.876,0,0,1-.407,2,4.531,4.531,0,0,1-1.8,2.028,5.082,5.082,0,0,1-2.636.735,4.915,4.915,0,0,1-3-1.007,6.347,6.347,0,0,1-2.165-3.359.974.974,0,0,0-1.868.553Z" transform="translate(166.476 1739.609)" fill="#3e485c" stroke="#3e485c" stroke-width="1"/>
    </g>
    <g id="吹き出し-授業" transform="translate(0 420)">
      <g id="グループ_2587" data-name="グループ 2587" transform="translate(-2.104 -409.5)">
        <path id="合体_8" data-name="合体 8" d="M19649.123,1213.69a48.515,48.515,0,1,1,60.148-19.2l10.572,17.2-19.119-6.9a48.554,48.554,0,0,1-51.6,8.894Z" transform="translate(-19464.398 1093)" fill="#fff"/>
        <text id="授業" transform="translate(173.604 2267)" fill="#3e485c" font-size="24" font-family="Jun501Pro-Bold, A-OTF Jun Pro" font-weight="700" letter-spacing="0.05em"><tspan x="0" y="0">授業</tspan></text>
      </g>
      <path id="合体_8-2" data-name="合体 8" d="M19649.119,1213.693a48.544,48.544,0,1,1,60.148-19.2l10.578,17.207-19.121-6.9a48.577,48.577,0,0,1-51.605,8.9Z" transform="translate(-19471.5 679.5)" fill="none" stroke="#3e485c" stroke-linejoin="round" stroke-width="3"/>
      <path id="パス_3632" data-name="パス 3632" d="M19.488-10.68c.24,0,.408.12.408.336,0,.072,0,1.032.024,1.224a2.114,2.114,0,0,0-.528-.072H10.656V-10.32a.34.34,0,0,1,.36-.36Zm-11.52.864a1.142,1.142,0,0,0-.888-.408,3.4,3.4,0,0,0-.912.24v-3.264c.984,0,2.04,0,2.04-1.368,0-1.248-.936-1.248-2.04-1.248v-2.16c0-1.1,0-1.92-1.368-1.92-1.248,0-1.248.936-1.248,1.92v2.16h-.5c-1.08,0-1.92,0-1.92,1.368,0,1.248.912,1.248,1.944,1.248h.48v3.936c-.264.048-1.44.24-1.7.312A1.1,1.1,0,0,0,.96-7.824a1.328,1.328,0,0,0,1.248,1.44A7.888,7.888,0,0,0,3.552-6.6v5.448c0,.144-.072.288-.24.288-.12,0-.7-.192-.84-.192A1.224,1.224,0,0,0,1.3.288c0,.96.624,1.584,2.52,1.584S6.168,1.032,6.168-.36V-7.224C7.9-7.7,7.992-7.92,8.184-8.3c.288.336.5.48,1.272.456,0,.864.288,1.3,1.224,1.368a13.574,13.574,0,0,0,3.1,4.416A18.4,18.4,0,0,1,9.648-.7,1.225,1.225,0,0,0,8.52.624a1.18,1.18,0,0,0,1.344,1.3,15.5,15.5,0,0,0,6.1-2.184c2.976,1.968,4.848,2.088,5.16,2.088,1.152,0,1.344-1.3,1.344-1.68,0-.576-.288-.768-1.3-1.1a17.686,17.686,0,0,1-2.712-1.128C20.88-4.32,21.312-6.5,21.312-7.416a2.571,2.571,0,0,0-.072-.552c1.392,0,1.392-.744,1.392-1.92v-1.848A1.707,1.707,0,0,0,21-13.368a7.792,7.792,0,0,0,.888-2.256,1.282,1.282,0,0,0-1.392-1.3,1.186,1.186,0,0,0-1.008.456c-.12.168-.648,1.32-1.56,3.1h-.744a2.718,2.718,0,0,0-.408-1.608c-.528-1.1-.84-1.776-1.824-1.776a1.18,1.18,0,0,0-1.248,1.2,1.793,1.793,0,0,0,.072.48c.576,1.272.648,1.392.768,1.7h-1.56c.024-.264.048-.432-.456-1.608-.336-.816-.7-1.416-1.512-1.416-.5,0-1.392.336-1.392,1.1a9.2,9.2,0,0,0,.744,1.92h-.48A1.707,1.707,0,0,0,7.968-11.9Zm9.6,3.336c.216,0,.456,0,.456.312a6.8,6.8,0,0,1-1.872,2.52A11.308,11.308,0,0,1,13.728-6.48ZM9.744-19.3C9-19.3,7.9-19.3,7.9-17.976c0,1.272,1.08,1.272,1.56,1.272a105.185,105.185,0,0,0,10.992-.648c1.08-.12,1.824-.216,1.824-1.3A1.161,1.161,0,0,0,21-19.872c-.336,0-2.592.24-3.1.288C14.5-19.32,11.784-19.3,9.744-19.3Zm32.448,5.9c.216-.48.24-.552.552-1.176h3.384c.864,0,1.92,0,1.92-1.248,0-1.272-1.056-1.272-1.92-1.272H45.24c.576-1.08.648-1.2.648-1.56,0-.96-1.368-1.3-1.7-1.3-.552,0-1.008.6-1.32,1.272a5.247,5.247,0,0,0-.528,1.584H40.944v-1.08c0-1.152,0-1.92-1.488-1.92-1.344,0-1.344.84-1.344,1.92v1.08h-1.9v-1.08c0-1.32-.024-1.92-1.488-1.92-1.3,0-1.3.888-1.3,1.92v1.08h-1.32c.048-.432,0-.528-.432-1.464-.408-.888-.744-1.368-1.44-1.368-.408,0-1.56.288-1.56,1.272,0,.192.024.312.624,1.56H28.3c-.864,0-1.92,0-1.92,1.248,0,1.272,1.056,1.272,1.92,1.272h3.48a11.619,11.619,0,0,0,.432,1.176H29.04c-.864,0-1.944,0-1.944,1.248,0,1.272,1.08,1.272,1.944,1.272h6.672v.96h-5.88c-.744,0-1.9,0-1.9,1.1s1.128,1.1,1.9,1.1h5.88V-6.7h-7.56c-.888,0-1.92,0-1.92,1.3,0,1.32,1.008,1.32,1.92,1.32H32.4A11.507,11.507,0,0,1,27.456-1.2,1.434,1.434,0,0,0,26.376.12a1.44,1.44,0,0,0,1.368,1.488c1.152,0,5.52-2.232,7.968-5.208V-.1c0,1.08,0,1.92,1.512,1.92,1.416,0,1.44-.936,1.44-1.92V-3.672c1.488,2.208,6.408,5.28,8.208,5.28,1.344,0,1.344-1.56,1.344-1.632,0-.864-.7-1.1-1.176-1.3a13.54,13.54,0,0,1-5.016-2.76h4.1c.888,0,1.92,0,1.92-1.3,0-1.32-1.032-1.32-1.92-1.32H38.664V-7.7H44.64c.744,0,1.9,0,1.9-1.1s-1.152-1.1-1.9-1.1H38.664v-.96h6.864c.84,0,1.92,0,1.92-1.272,0-1.248-1.08-1.248-1.92-1.248Zm-7.032,0c-.072-.24-.216-.624-.408-1.176h4.872c-.072.192-.408,1.008-.456,1.176Z" transform="translate(171.5 1857.5)" fill="#3e485c"/>
    </g>
    <g id="吹き出し-作品" transform="translate(0 420)">
      <path id="パス_1764" data-name="パス 1764" d="M50,98.5A48.513,48.513,0,0,1,31.122,5.311,48.513,48.513,0,0,1,68.878,94.689,48.2,48.2,0,0,1,50,98.5Z" transform="translate(150.502 1973.502)" fill="#fff"/>
      <path id="パス_1765" data-name="パス 1765" d="M0,20H14L6.947,0Z" transform="translate(256.736 1987.225) rotate(63)" fill="#fff"/>
      <g id="グループ_2588" data-name="グループ 2588" transform="translate(-2.1 -411.894)">
        <path id="合体_10" data-name="合体 10" d="M19649.125,1213.689a48.494,48.494,0,1,1,58.891-72.108l19.373-2.666-13.539,14.227a48.527,48.527,0,0,1-64.725,60.547Z" transform="translate(-19469.398 1262.396)" fill="none" stroke="#3e485c" stroke-linejoin="round" stroke-width="3"/>
        <path id="パス_3633" data-name="パス 3633" d="M12.1-.072c0,1.1,0,1.92,1.416,1.92C15,1.848,15,1.1,15-.072V-4.056h5.376c.792,0,1.92,0,1.92-1.368s-1.128-1.368-1.92-1.368H15V-9.648h5.376c.912,0,1.92,0,1.92-1.344s-1.008-1.344-1.92-1.344H15v-2.616h5.928c.936,0,1.92,0,1.92-1.368s-.984-1.368-1.92-1.368h-8.28a4.469,4.469,0,0,0,.336-1.344A1.424,1.424,0,0,0,11.4-20.3c-.84,0-.984.432-1.368,1.68a20.788,20.788,0,0,1-2.64,5.376A1.2,1.2,0,0,0,7.1-12.5,1.488,1.488,0,0,0,8.52-11.088c.7,0,1.1-.456,1.608-1.176a25.887,25.887,0,0,0,1.512-2.688H12.1Zm-5.712-14.5a17.276,17.276,0,0,0,1.344-4.44c0-1.008-1.056-1.128-1.416-1.128a1.268,1.268,0,0,0-1.392,1.08A33.791,33.791,0,0,1,.888-10.008c-.336.576-.432.744-.432,1.032A1.547,1.547,0,0,0,1.944-7.464c.816,0,1.3-.864,1.7-1.584V-.072c0,1.08,0,1.92,1.416,1.92,1.32,0,1.32-.936,1.32-1.92ZM31.848-19.32C30.24-19.32,30-18.288,30-17.688v4.848a1.732,1.732,0,0,0,1.824,1.92H42.672c.312,0,1.7-.144,1.7-2.016V-17.52c0-1.152-.864-1.8-2.136-1.8Zm9.1,2.64c.408,0,.6.072.6.624v2.04c0,.456-.264.456-.6.456H33.432c-.432,0-.7,0-.7-.456v-1.992c0-.48,0-.672.408-.672Zm-12.6,7.656a1.565,1.565,0,0,0-1.7,1.776V-.5a1.647,1.647,0,0,0,1.7,1.824h6.048A1.581,1.581,0,0,0,36.12-.456V-7.008c0-1.752-1.056-2.016-1.824-2.016ZM33.408-2.04c0,.408,0,.672-.576.672H30c-.5,0-.648-.072-.648-.576v-3.72c0-.384.024-.552.48-.552h3.144c.408,0,.432.168.432.528ZM39.96-9.024a1.8,1.8,0,0,0-1.8,1.752v6.7a1.966,1.966,0,0,0,2.064,1.9h5.544A1.922,1.922,0,0,0,47.76-.7V-7.3a1.68,1.68,0,0,0-1.824-1.728ZM44.5-6.216c.384,0,.528.12.528.7v3.432c0,.336,0,.72-.48.72H41.472c-.48,0-.576-.024-.576-.456v-3.72c0-.6,0-.672.456-.672Z" transform="translate(173.604 2440.396)" fill="#3e485c"/>
      </g>
    </g>
    <g id="吹き出し-時間割" transform="translate(0 420)">
      <path id="合体_12" data-name="合体 12" d="M38757.188,14.557a48.235,48.235,0,0,1-7.863-12.685A48.24,48.24,0,0,1,38745.516-17a48.323,48.323,0,0,1,3.809-18.882,48.332,48.332,0,0,1,10.4-15.412,48.327,48.327,0,0,1,15.414-10.4,48.22,48.22,0,0,1,18.871-3.8,48.263,48.263,0,0,1,18.883,3.8,48.44,48.44,0,0,1,15.41,10.4,48.268,48.268,0,0,1,10.4,15.412A48.326,48.326,0,0,1,38842.52-17a48.243,48.243,0,0,1-3.812,18.872,48.2,48.2,0,0,1-10.4,15.422,48.252,48.252,0,0,1-15.41,10.392,48.1,48.1,0,0,1-18.883,3.812,48.055,48.055,0,0,1-18.871-3.812,48.2,48.2,0,0,1-8.414-4.581l-16.98,9.358Z" transform="translate(-38248.52 1954.504)" fill="#fff"/>
      <g id="グループ_2589" data-name="グループ 2589" transform="translate(-1 -412.985)">
        <path id="合体_9" data-name="合体 9" d="M19631.164,1200.557a48.464,48.464,0,1,1,9.551,8.552l-16.994,9.358Z" transform="translate(-19125.5 1177.488)" fill="none" stroke="#3e485c" stroke-linejoin="round" stroke-width="3"/>
        <path id="パス_3634" data-name="パス 3634" d="M3.744-18.744a2,2,0,0,0-2.208,2.256V-1.824A2,2,0,0,0,3.744.432H7.32a2.018,2.018,0,0,0,2.208-2.28v-14.64A2,2,0,0,0,7.32-18.744Zm.432,7.728v-4.8c0-.12,0-.336.36-.336H6.48c.288,0,.336.144.336.336v4.8Zm2.64,2.688v5.592c0,.216-.048.36-.336.36H4.536c-.36,0-.36-.24-.36-.36V-8.328Zm13.752-2.5c1.584,0,2.28,0,2.28-1.392,0-1.248-.936-1.272-1.92-1.272H17.712v-1.488H20.4c1.176,0,1.92,0,1.92-1.44,0-1.3-.912-1.3-1.92-1.3H17.712c0-1.656,0-2.256-1.56-2.256-1.32,0-1.32.792-1.32,2.256H12.024c-1.056,0-1.92,0-1.92,1.488,0,1.248.936,1.248,1.92,1.248h2.808v1.488H11.5c-1.128,0-1.92.024-1.92,1.416,0,1.248.936,1.248,1.92,1.248h6.216v1.512H11.5c-1.176,0-1.92,0-1.92,1.464,0,1.272.864,1.272,2.112,1.272a1.237,1.237,0,0,0-.576,1.008,1.279,1.279,0,0,0,.312.816c.12.192.888,1.056,1.056,1.272.84,1.008,1.056,1.3,1.7,1.3a1.313,1.313,0,0,0,1.392-1.248,1.892,1.892,0,0,0-.216-.816,17.563,17.563,0,0,0-2.04-2.328h4.392v5.04c0,.312-.144.552-.72.552-.336,0-1.944-.24-2.328-.24A1.384,1.384,0,0,0,13.224.264c0,1.176,1.392,1.632,3.864,1.632,3.48,0,3.48-1.872,3.48-3.312v-5.16h.456c1.176,0,1.92,0,1.92-1.44,0-1.3-.912-1.3-1.92-1.3h-.456Zm9,.216h4.656c2.208,0,2.3-1.44,2.3-2.088v-4.968a1.823,1.823,0,0,0-2.088-1.824H28.68a1.69,1.69,0,0,0-1.8,1.92v17.5c0,1.128,0,1.92,1.416,1.92,1.272,0,1.272-.936,1.272-1.92Zm4.176-3.36v.456c0,.288,0,.432-.384.432H29.568v-.888Zm-4.176-2.3v-.408c0-.192,0-.408.36-.408H33.24c.5,0,.5.072.5.816Zm15.216,5.664v8.88c0,.576-.144.672-.552.672-.168,0-.936-.1-1.1-.1a1.242,1.242,0,0,0-1.2,1.344c0,1.464,1.248,1.464,3.1,1.464.984,0,2.5-.048,2.5-2.184V-17.544a1.835,1.835,0,0,0-1.848-1.968H40.008a1.785,1.785,0,0,0-2.016,1.8V-12.7a2.274,2.274,0,0,0,.72,1.632,2.49,2.49,0,0,0,1.776.456Zm0-3.36v.888H41.16c-.432,0-.456-.1-.456-.384v-.5Zm-4.08-2.3c0-.648,0-.816.384-.816h3.264c.384,0,.432.192.432.36v.456Zm-6.7,6.72a1.7,1.7,0,0,0-1.848,1.8v5.664c0,1.152,1.032,1.728,2.184,1.728H40.2a1.852,1.852,0,0,0,1.944-1.9v-5.5c0-1.8-1.7-1.8-2.16-1.8Zm.744,3.36v-.552c0-.12,0-.5.36-.5h3.96c.48,0,.528.168.528.48v.576Zm4.848,2.3v.744c0,.336-.072.336-.48.336H35.112c-.36,0-.36-.24-.36-.528v-.552Zm17.5-8.736v.672H54.408c-.864,0-1.92,0-1.92,1.152,0,1.128,1.056,1.128,1.92,1.128H57.1v.7H53.088c-.936,0-1.92,0-1.92,1.224s.984,1.224,1.92,1.224h10.7c.936,0,1.9,0,1.9-1.224s-.96-1.224-1.9-1.224H59.976v-.7h2.88c.864,0,1.92,0,1.92-1.128,0-1.152-1.056-1.152-1.92-1.152h-2.88v-.672h1.488c1.008,0,1.584,0,1.848-.792a1.53,1.53,0,0,0,.7.144c1.44,0,1.44-.672,1.44-1.92v-1.752c0-1.224-.936-1.68-1.944-1.68H59.976c0-.768,0-1.68-1.32-1.68-1.344,0-1.56.5-1.56,1.368v.312H53.52a1.74,1.74,0,0,0-1.848,1.752v1.656c0,.96,0,1.92,1.248,1.92a1.277,1.277,0,0,0,.768-.168c.264.84.84.84,1.872.84ZM55.56-15a2.734,2.734,0,0,0-1.32.144v-.768c0-.384.12-.432.36-.432h2.784c-.168.216-.288.36-.288,1.056Zm4.416,0c0-.7-.12-.84-.288-1.056H62.3c.384,0,.408.216.408.432v.72a3.494,3.494,0,0,0-1.248-.1ZM54.792-5.712a2.084,2.084,0,0,0-2.16,2.184v2.9a2.065,2.065,0,0,0,2.16,2.16h7.464a2.078,2.078,0,0,0,2.16-2.16v-2.9a2.1,2.1,0,0,0-2.16-2.184Zm6.432,2.5c.216,0,.36.1.36.384v1.416c0,.312-.192.384-.36.384H55.872c-.216,0-.36-.1-.36-.384V-2.832c0-.312.192-.384.36-.384Zm7.632-13.968c0-1.1,0-1.92-1.368-1.92-1.248,0-1.248.936-1.248,1.92V-5.928c0,1.1,0,1.92,1.368,1.92,1.248,0,1.248-.936,1.248-1.92Zm3.912-.936c0-1.2,0-1.92-1.464-1.92-1.3,0-1.3.888-1.3,1.92V-1.7c0,.432,0,.624-.408.624a5.353,5.353,0,0,1-1.128-.168c-.1-.024-.912-.216-1.032-.216-1.1,0-1.3,1.08-1.3,1.536a1.192,1.192,0,0,0,.36.936c.72.624,2.64.744,3.408.744,2.232,0,2.856-1.176,2.856-2.856Z" transform="translate(505.5 2355.488)" fill="#3e485c"/>
      </g>
    </g>
    <g id="グループ_2585" data-name="グループ 2585" transform="translate(241.395 2178.969)">
      <path id="パス_25" data-name="パス 25" d="M229.379,351.51v13.433H120.336V351.51a29.969,29.969,0,0,1,7.073-19.4s7.563-6.878,9.443-8.187a30.75,30.75,0,0,1,6.772-3.552,23.9,23.9,0,0,1,7.948-1.681l22.739-14.11,23.827,14.11C206.662,318.686,229.379,329.461,229.379,351.51Z" transform="translate(-44.074 -108.946)" fill="#2ba7c8"/>
      <path id="パス_26" data-name="パス 26" d="M216.054,299.771s-11.713,3.176-12.023,4.18,27.617,34.4,27.617,34.4,2.826,2.2,4.839,1.978,4.716-3.659,4.716-3.659L266.22,304.5l-15.689-6.968-14.044-15.7Z" transform="translate(-104.48 -92.53)" fill="#fff"/>
      <path id="パス_27" data-name="パス 27" d="M238.62,122.254h0V111.387c0-14.466-15.091-28.277-31.1-28.277s-31.1,13.811-31.1,28.277V122.3a10.873,10.873,0,0,0,.5,21.687c2.741,12.656,16.3,23.667,30.6,23.667s27.847-11,30.595-23.655h.506a10.874,10.874,0,0,0,0-21.748Z" transform="translate(-77.514 52.294)" fill="#ffeae3"/>
      <path id="パス_28" data-name="パス 28" d="M70.526,516.035V449.662a9.576,9.576,0,0,1,9.576-9.576H196.152a9.576,9.576,0,0,1,9.576,9.576v66.373Z" transform="translate(-5.34 -204.754)" fill="#e4f1fa"/>
      <rect id="長方形_138" data-name="長方形 138" width="133.284" height="9.027" transform="translate(59.622 296.305)" fill="#e4f1fa"/>
      <path id="パス_29" data-name="パス 29" d="M261.8,253.374a3.44,3.44,0,0,0,3.43-3.43h0a3.43,3.43,0,0,0-6.859,0h0A3.44,3.44,0,0,0,261.8,253.374Z" transform="translate(-146.484 -69.821)" fill="#3e485c"/>
      <path id="パス_30" data-name="パス 30" d="M347.408,253.374a3.44,3.44,0,0,0,3.43-3.43h0a3.43,3.43,0,0,0-6.859,0h0A3.44,3.44,0,0,0,347.408,253.374Z" transform="translate(-208.275 -69.821)" fill="#3e485c"/>
      <path id="パス_31" data-name="パス 31" d="M304.056,294.3h3.853a.881.881,0,0,0,0-1.762h-2.575a1.615,1.615,0,0,1-1.437-.878l-.231-.451a.416.416,0,0,0-.787.19v1.724A1.178,1.178,0,0,0,304.056,294.3Z" transform="translate(-178.611 -101.918)" fill="#3e485c"/>
      <path id="パス_33" data-name="パス 33" d="M412.958,365.742h0Z" transform="translate(-258.064 -155.877)" fill="#231815"/>
      <path id="パス_34" data-name="パス 34" d="M297.166,335.2Z" transform="translate(-174.488 -133.829)" fill="#231815"/>
      <path id="パス_35" data-name="パス 35" d="M295.239,329.085a13.383,13.383,0,0,0,10.094,0,1.227,1.227,0,0,0-.97-2.255,10.935,10.935,0,0,1-8.153,0,1.228,1.228,0,1,0-.971,2.255Z" transform="translate(-172.561 -127.718)" fill="#3e485c"/>
      <path id="パス_36" data-name="パス 36" d="M172.516,450.507H156.753V386.064a11.505,11.505,0,0,0-11.505-11.505H141.67a27.5,27.5,0,0,0-4.6-8.665A40.2,40.2,0,0,0,125.4,356.01a43.3,43.3,0,0,0-5.574-2.709,22.875,22.875,0,0,0-4.276-1.3,1.929,1.929,0,0,0-.659,3.8,15.04,15.04,0,0,1,2.107.568,36.124,36.124,0,0,1,5.575,2.478,38.838,38.838,0,0,1,9.479,7.135,25.536,25.536,0,0,1,5.537,8.573H106.353L117.345,359.7a1.929,1.929,0,1,0-3.1-2.3l-12.691,17.149H93.493v-5.6H80.954v5.6H72.893L60.2,357.409a1.929,1.929,0,1,0-3.1,2.3l10.992,14.853H36.377a24.129,24.129,0,0,1,3.574-6.3,36.391,36.391,0,0,1,10.538-8.9,39.507,39.507,0,0,1,5.071-2.467,19.344,19.344,0,0,1,3.515-1.085,1.929,1.929,0,0,0-.659-3.8h0a18.678,18.678,0,0,0-2.676.712,39.912,39.912,0,0,0-6.188,2.745,42.652,42.652,0,0,0-10.431,7.864A28.821,28.821,0,0,0,32.3,374.559H29.2a11.505,11.505,0,0,0-11.505,11.505v64.444H1.929a1.929,1.929,0,1,0,0,3.859H172.517a1.929,1.929,0,1,0,0-3.859ZM23.791,380.657a7.615,7.615,0,0,1,5.407-2.24H145.248a7.646,7.646,0,0,1,7.646,7.647v54.251H21.551V386.064A7.614,7.614,0,0,1,23.791,380.657Zm-2.24,63.516H152.895v6.335H21.551Z" transform="translate(40 -145.938)" fill="#3e485c"/>
      <path id="パス_37" data-name="パス 37" d="M172.1,37.538a33.876,33.876,0,0,0-5.846,19.04V62.27a1.828,1.828,0,0,0-1.49.074,12.714,12.714,0,0,0-6.944,11.332h0a12.712,12.712,0,0,0,11.265,12.63,27.439,27.439,0,0,0,1.909,4.966,34.44,34.44,0,0,0,12.273,13.351,33.468,33.468,0,0,0,17.867,5.422,32.215,32.215,0,0,0,12.319-2.525,36.045,36.045,0,0,0,14.622-11.167,30.329,30.329,0,0,0,4.386-7.8q.416-1.11.729-2.25a12.712,12.712,0,0,0,11.258-12.63h0A12.715,12.715,0,0,0,237.5,62.343a1.829,1.829,0,0,0-1.321-.13V56.577a33.876,33.876,0,0,0-5.846-19.04,34.412,34.412,0,0,0-14.3-12.039,17.11,17.11,0,1,0-29.766.062A34.412,34.412,0,0,0,172.1,37.538Zm18.062,6.521c1.5,13.452,6.661,21.092,43.318,25.408a1.655,1.655,0,0,0,2.7-1.283V65.819a9.08,9.08,0,0,1,3.215,3.076,8.977,8.977,0,0,1,1.367,4.781h0a9.009,9.009,0,0,1-6.83,8.751,23.094,23.094,0,0,0,.142-2.5,1.841,1.841,0,1,0-3.683,0h0a21.719,21.719,0,0,1-2.414,9.7,30.785,30.785,0,0,1-10.96,11.895,29.8,29.8,0,0,1-15.885,4.843,28.536,28.536,0,0,1-10.908-2.244,32.378,32.378,0,0,1-13.114-10.01,26.657,26.657,0,0,1-3.857-6.847,20.878,20.878,0,0,1-1.381-7.335,1.841,1.841,0,0,0-3.683,0,23.052,23.052,0,0,0,.146,2.5,9.009,9.009,0,0,1-6.835-8.753h0a8.98,8.98,0,0,1,1.367-4.781,9.085,9.085,0,0,1,3.384-3.17v2.459a1.666,1.666,0,0,0,2.851,1.172c.635-.646,1.537-1.4,2.528-2.266C182.34,62.014,189.521,50.47,190.162,44.059Z" transform="translate(-73.912 108.108)" fill="#3e485c"/>
      <path id="パス_1755" data-name="パス 1755" d="M270.53,246.569a1.535,1.535,0,1,0,.172-3.066l-4.956-.279a1.536,1.536,0,1,0-.172,3.067Z" transform="matrix(0.927, 0.375, -0.375, 0.927, -40.641, -154.873)" fill="#3e485c"/>
    </g>
  </g>
</svg>
