<svg xmlns="http://www.w3.org/2000/svg" xmlns:xlink="http://www.w3.org/1999/xlink" width="482" height="320" viewBox="0 0 482 320">
  <defs>
    <clipPath id="clip-path">
      <rect id="img" width="482" height="320" rx="10" transform="translate(670 3060)" fill="#d0ece9" opacity="0.204"/>
    </clipPath>
  </defs>
  <g id="マスクグループ_24" data-name="マスクグループ 24" transform="translate(-670 -3060)" clip-path="url(#clip-path)">
    <g id="j247_2_0" transform="translate(601.758 3056.21)">
      <rect id="長方形_271" data-name="長方形 271" width="582.363" height="327.579" transform="translate(0)" fill="#d0ece9"/>
      <path id="パス_1635" data-name="パス 1635" d="M132.133,197.278q.156,1.305.279,2.6c.064.865.241,1.708.339,2.558q.342,2.539.552,5.032.106,1.245.179,2.477c.053.822.176,1.623.243,2.427q.233,2.407.341,4.756c.07,3.146.316,6.128.3,9.021q0,2.169-.118,4.246c-.03,1.371-.06,2.7-.153,4a50.779,50.779,0,0,1-1,7.3,30.061,30.061,0,0,1-1.677,6.064c-1.458,3.6-3.6,6.275-6.472,7.531s-6.235.96-9.9-.8a29.364,29.364,0,0,1-5.7-3.712,51.165,51.165,0,0,1-5.659-5.908c-.945-1.153-1.913-2.376-2.839-3.691q-1.319-2-2.614-4.221a67.878,67.878,0,0,1-4.845-9.759q-1.076-2.659-2.086-5.5c-.325-.947-.688-1.9-.965-2.878s-.529-1.982-.8-2.984q-.774-3.021-1.453-6.176c-.209-1.054-.478-2.106-.614-3.187s-.286-2.167-.43-3.26a87.111,87.111,0,0,1-.84-12.841c.019-2.082.078-4.127.178-6.124.063-1,.078-1.979.209-2.968s.266-1.959.4-2.924q.423-2.881.948-5.59.263-1.353.548-2.657l.294-1.293c.127-.425.255-.848.379-1.267a82.462,82.462,0,0,1,3.373-9.158c.309-.684.6-1.351.938-1.993q.531-.962,1.073-1.861,1.083-1.8,2.2-3.332a28.3,28.3,0,0,1,4.563-5.02c3.214-2.577,6.523-3.589,9.589-3,3.1.6,5.672,2.714,7.881,5.85a31.923,31.923,0,0,1,3.178,5.461q.712,1.532,1.338,3.214.313.838.6,1.711.328.882.668,1.793a68.586,68.586,0,0,1,2.277,7.779c.076.343.153.686.231,1.034.1.349.2.7.294,1.054q.289,1.06.556,2.145.531,2.169.963,4.432.215,1.132.4,2.285c.118.768.334,1.561.483,2.352q.488,2.379.869,4.844C131.05,190.432,131.739,193.8,132.133,197.278Z" transform="translate(21.945 32.78)" fill="#fff"/>
      <path id="パス_1636" data-name="パス 1636" d="M189.479,76.572c-10.984,6.061-21.329,11.1-30.155,14.141-1.108.37-2.249.645-3.285.965s-2.062.584-3.061.8a28.448,28.448,0,0,1-5.691.7,17.538,17.538,0,0,1-4.824-.548,9.242,9.242,0,0,1-3.756-2.043,8.828,8.828,0,0,1-2.35-3.627A12.545,12.545,0,0,1,135.706,82a25.959,25.959,0,0,1,1.132-6.073q.494-1.651,1.2-3.423a34.677,34.677,0,0,1,1.728-3.522,64.467,64.467,0,0,1,4.766-7.467c1.952-2.458,4.17-4.984,6.626-7.532,2.542-2.424,5.367-4.806,8.375-7.183,3.1-2.223,6.434-4.38,9.941-6.411q2.7-1.4,5.377-2.671l2.668-1.228a28.19,28.19,0,0,1,2.676-1.094q2.7-.98,5.333-1.816l2.608-.8,1.287-.371,1.3-.29a97.545,97.545,0,0,1,9.88-1.642,74.854,74.854,0,0,1,8.848-.083q1.018.056,1.99.143c.655.085,1.3.19,1.919.3q1.871.332,3.531.78a25.712,25.712,0,0,1,5.738,2.225c3.235,1.886,5.185,4.332,5.7,7.129.522,2.815-.413,5.714-2.354,8.611a28.888,28.888,0,0,1-3.6,4.491q-1.071,1.106-2.3,2.192l-1.263,1.077q-.637.582-1.31,1.157a62.1,62.1,0,0,1-5.9,4.449c-2.093,1.555-4.326,3.1-6.716,4.536l-.9.539-.889.594q-.9.579-1.819,1.169-1.847,1.151-3.8,2.237c-.659.345-1.3.742-1.941,1.146s-1.3.785-1.965,1.169Q191.577,75.495,189.479,76.572Z" transform="translate(32.252 9.311)" fill="#fff"/>
      <path id="パス_1637" data-name="パス 1637" d="M298.091,75.222q-1.85-1.063-3.6-2.191c-.59-.368-1.147-.775-1.741-1.124L291,70.838c-2.305-1.43-4.453-3.03-6.556-4.365-2.092-1.39-4.012-2.938-5.854-4.364a55.927,55.927,0,0,1-5.139-4.226c-.783-.7-1.5-1.5-2.217-2.145q-1.066-1.011-1.993-2.04a25.545,25.545,0,0,1-3.077-4.141c-1.6-2.806-2.338-5.4-1.754-7.908a9.38,9.38,0,0,1,5.393-6.111,23.463,23.463,0,0,1,5.255-1.813q1.512-.347,3.209-.586a26.776,26.776,0,0,1,3.518-.211,67.358,67.358,0,0,1,7.949.412,73.221,73.221,0,0,1,8.806,1.882,63.609,63.609,0,0,1,9.3,3.287l2.368,1.025c.793.35,1.561.782,2.346,1.187q2.344,1.24,4.7,2.609a51.674,51.674,0,0,1,4.519,2.948q2.18,1.535,4.229,3.107a91.317,91.317,0,0,1,7.322,6.776q1.612,1.782,3.06,3.539a40,40,0,0,1,2.677,3.514,57.966,57.966,0,0,1,4.069,6.915,42.434,42.434,0,0,1,2.362,6.416,20.786,20.786,0,0,1,.7,5.572c-.047,3.36-1.085,5.908-3.08,7.525s-4.745,2.175-7.887,1.935a30.8,30.8,0,0,1-5.016-.912,40.667,40.667,0,0,1-5.588-1.832C316.792,85.864,307.868,80.981,298.091,75.222Z" transform="translate(59.015 9.856)" fill="#fff"/>
      <path id="パス_1638" data-name="パス 1638" d="M367.743,168.436a57.084,57.084,0,0,1-5.714,15.866,42.619,42.619,0,0,1-8.627,11.112,21.734,21.734,0,0,1-8.724,5.09c-2.706.616-4.9.253-6.515-1.013a8.813,8.813,0,0,1-2.931-5.7,33.967,33.967,0,0,1-.246-8.57c.28-3.179.675-6.762,1.355-10.53.533-3.846,1.436-7.867,2.238-12.213l.364-1.6q.152-.806.3-1.6c.213-1.06.46-2.1.715-3.122q.3-1.554.674-3.053c.256-1,.524-1.978.734-2.95.454-1.937,1.067-3.792,1.541-5.57.514-1.774,1.168-3.455,1.707-5.025a37.612,37.612,0,0,1,1.94-4.341,20.024,20.024,0,0,1,2.155-3.486,11.526,11.526,0,0,1,2.541-2.443,6.621,6.621,0,0,1,2.848-1.161,6.384,6.384,0,0,1,3.1.345,9.666,9.666,0,0,1,3.023,1.9,19.015,19.015,0,0,1,2.917,3.393,30.417,30.417,0,0,1,2.507,4.8,36.161,36.161,0,0,1,1.949,6.077,46.515,46.515,0,0,1,1.153,7.17,34.419,34.419,0,0,1,.195,3.923q.017,2.009-.051,4.1c-.1,1.391-.252,2.807-.425,4.243q-.142,1.074-.284,2.164Q367.961,167.34,367.743,168.436Z" transform="translate(73.722 29.667)" fill="#fff"/>
      <path id="パス_1639" data-name="パス 1639" d="M426.122,179.907c1.519-10.222,4.755-19.277,9.058-26.1a31.092,31.092,0,0,1,7.375-8.226,15.343,15.343,0,0,1,8.852-3.222,13.762,13.762,0,0,1,8.849,3.222,25.821,25.821,0,0,1,7.061,9.349c3.9,8.012,5.606,19.447,3.792,31.632-1.788,12.195-6.79,22.571-12.719,29.122-5.978,6.586-12.863,9.364-18.851,7.507a15.045,15.045,0,0,1-7.55-5.581,30.3,30.3,0,0,1-4.722-10.017C425.02,199.769,424.622,190.133,426.122,179.907Z" transform="translate(92.543 32.642)" fill="#fff"/>
      <path id="パス_1640" data-name="パス 1640" d="M430.168,273.368c-.018.383-.045.774-.091,1.165H387a59.783,59.783,0,0,1,18.208-16.388A31.239,31.239,0,0,1,410.1,256a23.194,23.194,0,0,1,4.686-1.119,13.694,13.694,0,0,1,8.427,1.456,12.818,12.818,0,0,1,5.532,6.552,19.6,19.6,0,0,1,1.265,4.85A30.058,30.058,0,0,1,430.168,273.368Z" transform="translate(84.583 56.046)" fill="#fff"/>
      <path id="パス_1641" data-name="パス 1641" d="M404.44,66.7c-5.727-9.169-9.507-18.47-10.98-27.01a37.209,37.209,0,0,1-.616-6.2,29.956,29.956,0,0,1,.393-5.7,16.94,16.94,0,0,1,4.512-9.217,14.867,14.867,0,0,1,9.408-4.169,22.554,22.554,0,0,1,6.08.279,36.142,36.142,0,0,1,6.666,1.948q.866.341,1.749.729.858.41,1.727.865,1.736.914,3.511,2.014a50.17,50.17,0,0,1,7,5.232,58.966,58.966,0,0,1,6.662,6.776,67.809,67.809,0,0,1,5.978,8.179c7.4,11.782,10.435,24.44,9.7,34.249a31.425,31.425,0,0,1-1.165,6.829,23.668,23.668,0,0,1-2.325,5.568,15.146,15.146,0,0,1-7.858,6.712,16.6,16.6,0,0,1-10.216.087,28.121,28.121,0,0,1-5.367-2.1,45.77,45.77,0,0,1-5.312-3.28C416.954,83.394,410.194,75.85,404.44,66.7Z" transform="translate(85.799 5.982)" fill="#fff"/>
      <path id="パス_1642" data-name="パス 1642" d="M7.661,149.785c-.1,2.657-.209,5.441-.527,8.271q-.232,2.115-.591,4.286c-.191,1.447-.437,2.912-.719,4.386s-.6,2.922-.955,4.35c-.336,1.42-.674,2.829-1.056,4.2-.746,2.748-1.693,5.377-2.584,7.889Q.656,184.741,0,186.228V120.922a17.808,17.808,0,0,1,2.312,2.912,26.6,26.6,0,0,1,2.475,5.078c.336.946.646,1.929.92,2.948.3,1.028.564,2.093.791,3.2a51.56,51.56,0,0,1,.937,7.007A67.285,67.285,0,0,1,7.661,149.785Z" transform="translate(0 25.179)" fill="#fff"/>
      <path id="パス_1643" data-name="パス 1643" d="M59.855,55.761q-1.239,1.593-2.532,3.082-.645.744-1.305,1.462-.639.73-1.271,1.451a66.345,66.345,0,0,1-5.277,5.264,68.985,68.985,0,0,1-5.315,4.486c-1.779,1.347-3.62,2.5-5.331,3.557a29.14,29.14,0,0,1-10.144,3.945,12.573,12.573,0,0,1-8.558-1.233,12.086,12.086,0,0,1-5.29-6.966,27.457,27.457,0,0,1-.71-11.379,39.933,39.933,0,0,1,1.452-6.853,59.611,59.611,0,0,1,2.65-7.345,83.6,83.6,0,0,1,3.935-7.525c.374-.633.752-1.27,1.152-1.9q.631-.923,1.274-1.857,1.307-1.855,2.738-3.7t2.911-3.56q1.538-1.673,3.111-3.224a66.333,66.333,0,0,1,6.373-5.631,51.251,51.251,0,0,1,12.863-7.365C60.813,7.292,67.928,7.853,71.826,12c3.921,4.169,4.038,11.012,1.757,18.806a63.7,63.7,0,0,1-5.277,12.208c-1.186,2.078-2.4,4.269-3.838,6.375q-1.066,1.591-2.25,3.161C61.466,53.624,60.681,54.7,59.855,55.761Z" transform="translate(6.885 4.756)" fill="#fff"/>
      <path id="パス_1644" data-name="パス 1644" d="M330.925,198.355c18.936-29.158,10.264-77.582-26.419-101.4S220.058,84.9,201.122,114.06l47.618,64.2Z" transform="translate(45.879 20.533)" fill="#ddd"/>
      <path id="パス_1645" data-name="パス 1645" d="M231.486,130.374l-.82-.532.22-.3.8.521a2.254,2.254,0,1,0,2.456-3.781l-.579-.376.417-.568.236.154c1.039.675,3.458,1.036,4.132,0s-.637-3.1-1.677-3.777l-.015-.01.419-.569a2.253,2.253,0,0,0,2.435-3.793l-7.267-4.719a4.329,4.329,0,0,0-4.276,2.061l-4.458,6.865c-1.861,2.964-2.987,5.112-3.239,6.954a1.842,1.842,0,0,0,.689.853l8.071,4.8a2.254,2.254,0,1,0,2.454-3.782Z" transform="translate(49.866 26.444)" fill="#ffeae3"/>
      <path id="パス_1646" data-name="パス 1646" d="M281.508,162.9l.819.532.184-.323-.8-.52a2.254,2.254,0,1,1,2.456-3.781l.579.376.349-.612-.236-.154c-1.04-.675-2.352-2.737-1.678-3.776s3.093-.679,4.133,0l.015.01.349-.614a2.253,2.253,0,0,1,2.474-3.767l7.267,4.719a4.331,4.331,0,0,1-.143,4.745l-4.459,6.865c-1.952,2.905-3.455,4.807-5.035,5.787a1.851,1.851,0,0,1-1.06-.281l-7.669-5.421a2.255,2.255,0,0,1,2.456-3.781Z" transform="translate(61.892 34.214)" fill="#ffeae3"/>
      <path id="パス_1647" data-name="パス 1647" d="M285.633,143.664s-3.746-8.449-15.094-15.818-22.113-5.8-22.448-5.281-8.579,13.209-8.579,13.209l37.117,24.1,7.4-11.394Z" transform="translate(49.872 25.417)" fill="#768fa5"/>
      <path id="パス_1648" data-name="パス 1648" d="M253.94,122.337a6.248,6.248,0,0,1-.933,1.438c-.391.327,1.3,21.276,1.3,21.276s.568,1.642,1.445,2.082,2.883-.243,2.883-.243l21.233-7.914-4.2-5.694a17.553,17.553,0,0,0-15.358-10.336Z" transform="translate(52.67 25.473)" fill="#fff"/>
      <path id="パス_1649" data-name="パス 1649" d="M284.889,164.945s5.464-10.013,2-19.486-15.629,1.343-19.973,1.373-15.7-8.576-16.689-14.06a65.612,65.612,0,0,1-1-10.292s-8.2.128-15.161,9.46C240.647,135.688,284.889,164.945,284.889,164.945Z" transform="translate(48.738 25.503)" fill="#768fa5"/>
      <path id="パス_1650" data-name="パス 1650" d="M238.52,108.565a2.562,2.562,0,0,0-3.544.754l-3.209,4.941,4.3,2.791,3.209-4.942A2.563,2.563,0,0,0,238.52,108.565Z" transform="translate(48.26 22.52)" fill="#2ba7c8"/>
      <path id="パス_1651" data-name="パス 1651" d="M296.087,145.949a2.562,2.562,0,0,0-3.544.753l-3.209,4.941,4.3,2.791,3.209-4.942A2.561,2.561,0,0,0,296.087,145.949Z" transform="translate(60.246 30.304)" fill="#2ba7c8"/>
      <path id="パス_1652" data-name="パス 1652" d="M336.883,191.759a28.563,28.563,0,0,1,10.22,12.867l4.46,11.181c3.782,9.055,1.53,18.868-5.658,24.661l-5.135,4.14c-8.6,6.935-21.337,7.6-31.975,1.673L261.34,219.832a390.453,390.453,0,0,1-44.182-28.692L173.7,158.546c-9.742-7.307-14.312-19.209-11.477-29.891l1.693-6.375c2.369-8.922,10.417-14.971,20.227-15.2l11.145-.329a33.093,33.093,0,0,1,18.135,4.776c10.022,6.076,28.639,19.053,60.552,39.777C307.214,172.893,327.48,185.216,336.883,191.759Z" transform="translate(37.605 25.225)" fill="#df7c8f"/>
      <path id="パス_1653" data-name="パス 1653" d="M232.842,92.53c9.311-2.7,23.3-4.819,35.015-2.723a3.444,3.444,0,0,1,1.24,6.283c-3.4,2.187-7.378,4.909-10.89,7.358a18.3,18.3,0,0,1-19.141,1.11l-7.072-3.8A4.468,4.468,0,0,1,232.842,92.53Z" transform="translate(47.816 18.523)" fill="#fff"/>
      <path id="パス_1654" data-name="パス 1654" d="M203.686,146.325a15.231,15.231,0,1,1-4.479-21.069A15.232,15.232,0,0,1,203.686,146.325Z" transform="translate(40.581 28.569)" fill="#ffb64b"/>
      <path id="パス_1655" data-name="パス 1655" d="M304.65,211.892a15.231,15.231,0,1,1-4.479-21.069A15.232,15.232,0,0,1,304.65,211.892Z" transform="translate(61.604 42.222)" fill="#ffb64b"/>
      <path id="パス_1656" data-name="パス 1656" d="M193.552,135.209a4.889,4.889,0,1,1-1.437-6.764A4.889,4.889,0,0,1,193.552,135.209Z" transform="translate(38.43 26.581)" fill="#ffe7ac"/>
      <path id="パス_1657" data-name="パス 1657" d="M293,199.792a4.889,4.889,0,1,1-1.437-6.763A4.89,4.89,0,0,1,293,199.792Z" transform="translate(59.138 40.029)" fill="#ffe7ac"/>
      <path id="パス_1660" data-name="パス 1660" d="M290.246,127.2h0l3.044-4.687c4.052-6.239,1.411-16.424-5.494-20.908s-17.283-2.754-21.335,3.485L263.4,109.8a5.592,5.592,0,0,0-5.858,9.5c-2.363,6.227.4,14.775,6.569,18.779s15.094,3.054,19.822-1.633l.218.142a5.593,5.593,0,0,0,6.091-9.382Z" transform="translate(55.141 21.633)" fill="#ffeae3"/>
      <path id="パス_1661" data-name="パス 1661" d="M393.785,38.993a213.935,213.935,0,0,0-51-37.767.834.834,0,0,0-.781,1.473h0a212.274,212.274,0,0,1,50.6,37.473,169.665,169.665,0,0,1,0,239.945,135.567,135.567,0,0,1-191.72,0,107.9,107.9,0,0,1-31.659-73.031.834.834,0,1,0-1.666.055A109.57,109.57,0,0,0,199.706,281.3a137.236,137.236,0,0,0,194.079,0,171.333,171.333,0,0,0,0-242.3Z" transform="translate(34.89 0.235)" fill="#3e485c" stroke="#3e485c" stroke-linecap="round" stroke-width="1"/>
      <path id="パス_1662" data-name="パス 1662" d="M57.771,320.424a265.883,265.883,0,0,1,61.257-280.2,212.245,212.245,0,0,1,51.2-37.79.834.834,0,1,0-.776-1.475,213.909,213.909,0,0,0-51.6,38.086A267.554,267.554,0,0,0,56.209,321a.833.833,0,1,0,1.563-.579Z" transform="translate(8.241 0.18)" fill="#3e485c" stroke="#3e485c" stroke-linecap="round" stroke-width="1"/>
      <path id="パス_1663" data-name="パス 1663" d="M135.042,217.236v-.008q-.11-2.362-.344-4.786h0s0,0,0-.006a.01.01,0,0,1,0,0h0c-.071-.837-.191-1.63-.24-2.4v0q-.074-1.242-.18-2.5-.212-2.5-.555-5.056h0s0,0,0,0,0-.007,0-.01h0c-.106-.894-.277-1.72-.334-2.507v-.018q-.124-1.3-.281-2.619v.006c-.4-3.53-1.091-6.9-1.495-10.151l0-.014v-.01q-.383-2.479-.874-4.872h0l0-.011a0,0,0,0,1,0,0h0c-.159-.829-.37-1.612-.476-2.312v-.007q-.189-1.164-.408-2.307-.433-2.283-.973-4.475-.267-1.1-.561-2.166l0-.011,0,.006c-.1-.346-.193-.69-.288-1.029q-.115-.511-.227-1.016l0-.006a69.2,69.2,0,0,0-2.3-7.874l-.006-.015,0,0q-.341-.912-.667-1.792h0q-.289-.87-.6-1.712h0q-.635-1.708-1.362-3.274a32.775,32.775,0,0,0-3.253-5.59h0l-.009-.011s0,0,0,0h0a18.262,18.262,0,0,0-3.774-4.045,11.022,11.022,0,0,0-4.62-2.128,9.859,9.859,0,0,0-1.884-.18,13.548,13.548,0,0,0-8.385,3.343l-.006,0-.008.006a29.074,29.074,0,0,0-4.7,5.167q-1.142,1.565-2.243,3.392-.552.914-1.09,1.889l0,.008,0,.008c-.357.679-.653,1.36-.96,2.037l0,.006a83.216,83.216,0,0,0-3.408,9.251l0,.006q-.188.628-.379,1.268l-.008.027-.006.027-.294,1.292v.006q-.289,1.314-.553,2.677-.527,2.725-.954,5.629v.008q-.2,1.447-.4,2.924v0c-.137,1.051-.152,2.047-.214,3.024v.011q-.15,3.012-.18,6.158h0q-.024.75-.023,1.5a99.138,99.138,0,0,0,.87,11.442v.012q.217,1.64.43,3.26v0c.145,1.149.421,2.22.623,3.244v0l0,.01q.681,3.167,1.46,6.209v.009q.4,1.5.8,2.983v0l0,.008c.291,1.028.66,1.992.979,2.922l0,.008q1.013,2.85,2.1,5.529h0a68.827,68.827,0,0,0,4.894,9.863l.006.011,0-.008q1.305,2.241,2.638,4.261l.006.01.008.011c.944,1.339,1.925,2.579,2.876,3.739l0,0,0,0a51.915,51.915,0,0,0,5.752,6l.011.011.012.01a30.181,30.181,0,0,0,5.865,3.815,15.094,15.094,0,0,0,6.5,1.652,10.13,10.13,0,0,0,4.1-.838,11.189,11.189,0,0,0,4.071-3.112,17.959,17.959,0,0,0,2.839-4.871,30.855,30.855,0,0,0,1.72-6.2h0a51.576,51.576,0,0,0,1.013-7.416v0c.095-1.322.125-2.66.154-4.028q.115-2.09.118-4.274v0c0-.1,0-.2,0-.3,0-2.845-.235-5.732-.3-8.739v-.01Zm-2.621,24.433,0,.015a29.271,29.271,0,0,1-1.628,5.9,16.3,16.3,0,0,1-2.568,4.42,9.513,9.513,0,0,1-3.463,2.659,8.473,8.473,0,0,1-3.428.7,13.452,13.452,0,0,1-5.778-1.488,28.55,28.55,0,0,1-5.522-3.6,50.277,50.277,0,0,1-5.555-5.8c-.937-1.143-1.889-2.347-2.8-3.635q-1.3-1.97-2.58-4.167a67.137,67.137,0,0,1-4.787-9.636l0-.006,0-.011q-1.069-2.642-2.072-5.462c-.331-.962-.686-1.9-.949-2.826h0q-.393-1.474-.794-2.973h0q-.769-3-1.443-6.136h0c-.215-1.079-.476-2.108-.6-3.116l0-.01v.006q-.212-1.614-.429-3.249h0A97.561,97.561,0,0,1,87.158,192q0-.739.023-1.469v-.02q.028-3.1.176-6.078h0c.064-1.028.081-1.985.2-2.912v0q.2-1.473.4-2.914h0q.42-2.863.941-5.553.261-1.343.545-2.637v.006q.146-.639.288-1.27.186-.62.37-1.236l0,.006a81.827,81.827,0,0,1,3.338-9.065l0,.006c.311-.69.6-1.339.914-1.944q.52-.944,1.051-1.824,1.066-1.768,2.163-3.27a27.427,27.427,0,0,1,4.419-4.867,11.9,11.9,0,0,1,7.334-2.97,8.168,8.168,0,0,1,1.567.15,9.365,9.365,0,0,1,3.927,1.818,16.638,16.638,0,0,1,3.432,3.694l.006.01,0,0a31.147,31.147,0,0,1,3.093,5.319q.7,1.5,1.312,3.152v0c.205.548.4,1.11.592,1.682l0,.012,0,.015c.218.588.442,1.185.668,1.795h0a67.527,67.527,0,0,1,2.246,7.674l0-.006q.114.512.231,1.035l0,.019.006.022c.1.349.2.7.294,1.055v0q.286,1.049.55,2.124.527,2.149.954,4.39.215,1.122.4,2.263v-.007c.129.832.348,1.632.488,2.38l0,.008v0q.483,2.356.861,4.8c.417,3.334,1.1,6.687,1.491,10.114l0,.017,0-.01q.157,1.293.277,2.577h0c.072.93.25,1.78.34,2.574v.007l0,.01q.338,2.519.548,4.991.1,1.234.177,2.456v0c.057.868.18,1.676.243,2.443v.01h0q.232,2.387.338,4.714h0c.069,3.061.3,5.936.3,8.682,0,.1,0,.2,0,.3v0q0,2.145-.116,4.2v.027c-.03,1.371-.061,2.685-.151,3.955v0a49.97,49.97,0,0,1-.98,7.176Z" transform="translate(17.801 29.636)" fill="#3e485c" stroke="#3e485c" stroke-linecap="round" stroke-width="1"/>
      <path id="パス_1664" data-name="パス 1664" d="M190.025,77.445q2.1-1.079,4.1-2.236,1-.581,1.982-1.18l.008,0c.64-.4,1.261-.787,1.885-1.113l.008,0,.01,0q1.972-1.094,3.835-2.259l.008,0h0l1.818-1.169.008,0,.876-.585q.443-.267.884-.53h0c2.412-1.449,4.661-3,6.763-4.566a63.1,63.1,0,0,0,5.964-4.5q.672-.574,1.31-1.157l1.262-1.076,0,0,0,0q1.251-1.1,2.349-2.238a29.66,29.66,0,0,0,3.7-4.606h0l0,0a.057.057,0,0,1,.008-.011h0a13.652,13.652,0,0,0,2.628-7.495,9.444,9.444,0,0,0-.156-1.716,9.621,9.621,0,0,0-2-4.275,14.6,14.6,0,0,0-4.1-3.423l-.006,0-.011-.006a26.519,26.519,0,0,0-5.924-2.3q-1.7-.457-3.6-.8c-.631-.111-1.284-.218-1.957-.3l-.017,0h-.017q-.985-.089-2.018-.145-1.751-.1-3.628-.1-2.551,0-5.319.178h-.018l-.017,0a98.129,98.129,0,0,0-9.965,1.656h-.006l-1.3.289-.025.006-.026.007-1.286.371-.008,0,0,0-2.609.8h0l0,0q-2.639.838-5.349,1.821h0l-.015,0h0a29.236,29.236,0,0,0-2.739,1.12l-2.669,1.229-.006,0h0q-2.691,1.271-5.406,2.686l-.016.008-.016.01c-3.531,2.045-6.883,4.216-10.009,6.455l-.016.012-.015.011c-3.022,2.388-5.866,4.786-8.434,7.234l-.012.012-.012.012c-2.473,2.566-4.708,5.111-6.679,7.593l-.006.008-.007.01a65.545,65.545,0,0,0-4.828,7.563l0,.006,0,.006a35.39,35.39,0,0,0-1.767,3.607q-.713,1.8-1.221,3.491a26.716,26.716,0,0,0-1.165,6.259h0q-.028.462-.028.912a13.073,13.073,0,0,0,.726,4.378h0a9.659,9.659,0,0,0,2.572,3.962,10.086,10.086,0,0,0,4.09,2.23,18.238,18.238,0,0,0,4.988.579h.075a29.338,29.338,0,0,0,5.859-.717c1.022-.223,2.067-.5,3.126-.819l.007,0h0c1-.309,2.15-.586,3.3-.971l.006,0h0c8.9-3.07,19.275-8.124,30.283-14.2ZM159.2,90.067c-1.061.354-2.19.627-3.258.957-1.018.311-2.018.572-3,.785a27.664,27.664,0,0,1-5.524.679h-.054a16.633,16.633,0,0,1-4.531-.516,8.4,8.4,0,0,1-3.421-1.855,7.982,7.982,0,0,1-2.126-3.29l0,0a11.408,11.408,0,0,1-.628-3.817c0-.266.008-.535.025-.807v-.01a25.131,25.131,0,0,1,1.1-5.875c.323-1.075.714-2.2,1.174-3.355v0a33.7,33.7,0,0,1,1.686-3.432,63.97,63.97,0,0,1,4.7-7.36c1.926-2.425,4.118-4.922,6.547-7.441,2.508-2.391,5.3-4.749,8.285-7.106,3.074-2.2,6.373-4.339,9.848-6.35q2.673-1.394,5.329-2.647l-.007,0,2.668-1.228a27.618,27.618,0,0,1,2.6-1.064l.007,0,.009,0q2.68-.973,5.292-1.8h0l2.605-.8,1.253-.362,1.275-.283-.007,0a96.243,96.243,0,0,1,9.776-1.626c1.8-.117,3.537-.175,5.2-.175q1.833,0,3.538.093.992.055,1.941.139c.633.083,1.257.185,1.868.292q1.834.325,3.459.764a24.878,24.878,0,0,1,5.544,2.146,12.931,12.931,0,0,1,3.629,3.018,7.935,7.935,0,0,1,1.664,3.538,7.68,7.68,0,0,1,.129,1.413,12.017,12.017,0,0,1-2.355,6.582l0,.006-.006.01a28.009,28.009,0,0,1-3.5,4.359q-1.043,1.079-2.247,2.141l-1.259,1.074-.012.011-.01.009q-.626.573-1.288,1.139a61.251,61.251,0,0,1-5.82,4.388l-.017.011-.018.013c-2.077,1.542-4.288,3.072-6.648,4.491h0l-.9.54-.017.011-.895.6q-.9.579-1.818,1.168h0q-1.824,1.137-3.752,2.211h0c-.689.362-1.342.767-1.981,1.167h0q-.957.585-1.939,1.154-1.974,1.142-4.052,2.207l-.012.006-.01.006C178.259,82.033,167.947,87.05,159.2,90.067Z" transform="translate(28.109 6.167)" fill="#3e485c" stroke="#3e485c" stroke-linecap="round" stroke-width="1"/>
      <path id="パス_1665" data-name="パス 1665" d="M136.988,64.983h0v0Z" transform="translate(28.524 13.531)" fill="#231815"/>
      <path id="パス_1666" data-name="パス 1666" d="M115.054,174.123a.834.834,0,0,0-1.087.456c-1.3,3.175-2.515,6.417-3.767,9.72l0,.01h0c-.294.806-.64,1.648-.92,2.52l0,0-.789,2.506-1,3.233L105.22,188.5l-.8-1.445h0c-.244-.468-.471-.958-.72-1.466l0,0-1.443-3,0,0-2.894-6.115,0-.007c-.484-.975-.863-2-1.3-3.07l0,.006-1.258-3.175a.834.834,0,0,0-1.551.614l1.263,3.188,0-.006c.419,1.03.81,2.093,1.341,3.169h0l2.891,6.107,0,0,1.443,3,0,0c.239.485.47.988.738,1.5l0,.01.811,1.474,4.17,7.48,2.147-6.955,0,0,.789-2.506,0,0c.253-.786.588-1.607.9-2.45h0c1.254-3.307,2.465-6.535,3.751-9.68A.832.832,0,0,0,115.054,174.123Z" transform="translate(19.825 35.34)" fill="#3e485c" stroke="#3e485c" stroke-linecap="round" stroke-width="1"/>
      <path id="パス_1667" data-name="パス 1667" d="M175.661,53.25l-.491-.53-.594.41c-1.538,1.061-3.019,2.177-4.5,3.243l-.006,0-.006,0c-1.45,1.083-2.983,2.105-4.447,3.3l0,0-4.24,3.495c-1.4,1.156-2.843,2.3-4.191,3.624a.833.833,0,0,0,1.167,1.19c1.266-1.242,2.669-2.36,4.085-3.527l4.24-3.495,0,0c1.377-1.126,2.884-2.133,4.378-3.247h0c1.3-.937,2.585-1.889,3.881-2.8q4.093,4.442,8.012,8.978a.834.834,0,0,0,1.263-1.089Q180.036,57.975,175.661,53.25Z" transform="translate(32.678 10.978)" fill="#3e485c" stroke="#3e485c" stroke-linecap="round" stroke-width="1"/>
      <path id="パス_1668" data-name="パス 1668" d="M265.585,50.122a26.329,26.329,0,0,0,3.176,4.279q.949,1.054,2.04,2.088l.01.009.007.006c.674.6,1.391,1.4,2.217,2.145h0a57.014,57.014,0,0,0,5.186,4.266h0c1.833,1.418,3.769,2.981,5.9,4.4l.009.006.006,0c2.067,1.311,4.221,2.915,6.564,4.37l0,0,1.752,1.069h0l.009,0c.544.318,1.093.718,1.712,1.106h0l.01.006h0q1.762,1.134,3.62,2.2h0c9.786,5.761,18.73,10.66,26.643,13.662h0a41.336,41.336,0,0,0,5.7,1.869l.01,0h0a31.631,31.631,0,0,0,5.146.933h.009c.48.036.953.056,1.417.056a10.957,10.957,0,0,0,7.051-2.174A8.5,8.5,0,0,0,346.3,87a12.9,12.9,0,0,0,.872-4.72V82.17a21.5,21.5,0,0,0-.735-5.7v0a43.157,43.157,0,0,0-2.408-6.543l0-.006,0-.01A58.6,58.6,0,0,0,339.9,62.9h0a41.077,41.077,0,0,0-2.723-3.577l0-.006q-1.458-1.769-3.086-3.569l-.007-.008,0-.006a91.961,91.961,0,0,0-7.39-6.84l-.015-.013-.016-.012q-2.059-1.578-4.257-3.126l0,0a52.861,52.861,0,0,0-4.576-2.985h0q-2.369-1.376-4.733-2.624l-.007,0h0c-.767-.395-1.547-.836-2.391-1.209l0,0h0l-2.367-1.025,0,0-.006,0a64.366,64.366,0,0,0-9.407-3.324h0a73.8,73.8,0,0,0-8.909-1.9h-.008l-.011,0a69.465,69.465,0,0,0-7.383-.42c-.223,0-.445,0-.666,0H281.9a27.547,27.547,0,0,0-3.611.22h0l-.01,0h-.007q-1.718.244-3.262.6a24.318,24.318,0,0,0-5.438,1.88A10.21,10.21,0,0,0,263.74,41.6a8.486,8.486,0,0,0-.22,1.936,13.435,13.435,0,0,0,2.063,6.574Zm-.223-8.139c.514-2.206,2.165-4.183,4.948-5.551l0,0h0a22.686,22.686,0,0,1,5.067-1.746q1.472-.337,3.138-.573h.008l.01,0a25.971,25.971,0,0,1,3.4-.2h0q.319,0,.645,0a67.937,67.937,0,0,1,7.2.41,72.477,72.477,0,0,1,8.69,1.86l.006,0,.008,0a62.859,62.859,0,0,1,9.171,3.246l2.36,1.021-.006,0c.741.326,1.492.748,2.292,1.161h0q2.331,1.231,4.675,2.592l.008,0,.008,0a51.3,51.3,0,0,1,4.445,2.9l0,0q2.158,1.52,4.187,3.075a90.4,90.4,0,0,1,7.234,6.694q1.594,1.762,3.024,3.5a39.247,39.247,0,0,1,2.621,3.438l0,.006,0,.006a57.047,57.047,0,0,1,4.009,6.81,41.693,41.693,0,0,1,2.311,6.276v0a19.867,19.867,0,0,1,.675,5.261v.078a11.266,11.266,0,0,1-.747,4.112,6.828,6.828,0,0,1-2.025,2.777,9.306,9.306,0,0,1-6,1.8q-.633,0-1.3-.051h-.008a30.035,30.035,0,0,1-4.878-.892h0a39.61,39.61,0,0,1-5.473-1.795l-.01,0-.009,0c-7.747-2.933-16.643-7.8-26.406-13.546l0,0,0,0q-1.832-1.053-3.566-2.17l0,0,0,0c-.552-.344-1.112-.752-1.748-1.128h0l-.007,0,0,0h0q-.877-.534-1.738-1.061l0,0c-2.261-1.4-4.4-2.994-6.535-4.352h0c-2.05-1.362-3.954-2.9-5.806-4.328l-.012-.01-.006,0a55.29,55.29,0,0,1-5.062-4.163l0,0-.008-.007c-.735-.659-1.441-1.443-2.2-2.13h0Q270.9,54.287,270,53.284a24.692,24.692,0,0,1-2.972-4,11.8,11.8,0,0,1-1.843-5.746A6.959,6.959,0,0,1,265.362,41.982Z" transform="translate(54.871 6.712)" fill="#3e485c" stroke="#3e485c" stroke-linecap="round" stroke-width="1"/>
      <path id="パス_1669" data-name="パス 1669" d="M268.527,34.472l0,0,0,0Z" transform="translate(55.914 7.177)" fill="#231815"/>
      <path id="パス_1670" data-name="パス 1670" d="M297.746,57.642l.143.446,4.741,1.136,4.229,1.255-.007,0c1.427.438,2.866.85,4.267,1.314l4.221,1.545a.833.833,0,1,0,.573-1.565l-4.247-1.554-.011,0c-1.448-.479-2.9-.9-4.314-1.329h0l-4.274-1.27-3.884-.931c-1.54-4.7-3.436-9.184-5.472-13.83a.834.834,0,0,0-1.527.67A147.92,147.92,0,0,1,297.746,57.642Z" transform="translate(60.824 8.819)" fill="#3e485c" stroke="#3e485c" stroke-linecap="round" stroke-width="1"/>
      <path id="パス_1671" data-name="パス 1671" d="M334.3,185.308v.014c-.081,1.434-.144,2.795-.144,4.094a23.3,23.3,0,0,0,.4,4.658h0l0,.011a.179.179,0,0,1,0,.02h0a9.613,9.613,0,0,0,3.234,6.186,7.289,7.289,0,0,0,4.6,1.483,11.8,11.8,0,0,0,2.612-.314l.017,0,.015,0a22.526,22.526,0,0,0,9.057-5.268h0l0,0,.015-.013h0a43.429,43.429,0,0,0,8.787-11.314l.008-.015,0-.006a57.878,57.878,0,0,0,5.8-16.1h0q.22-1.092.435-2.168l.006-.027,0-.028q.144-1.092.285-2.165l0-.01c.173-1.443.324-2.872.428-4.281l0-.021v-.014q.055-1.68.054-3.311c0-.277,0-.553,0-.827v0a35.134,35.134,0,0,0-.2-4.006h0s0,0,0,0a.019.019,0,0,1,0-.006h0a47.169,47.169,0,0,0-1.175-7.288h0a36.914,36.914,0,0,0-1.99-6.192h0a31.177,31.177,0,0,0-2.579-4.936l-.007-.011a19.832,19.832,0,0,0-3.047-3.541,10.5,10.5,0,0,0-3.286-2.063h0l-.008,0a7.447,7.447,0,0,0-2.522-.455,6.76,6.76,0,0,0-.973.07,7.445,7.445,0,0,0-3.2,1.3h0l0,0,0,0h0a12.343,12.343,0,0,0-2.721,2.613,20.82,20.82,0,0,0-2.248,3.631h0a38.222,38.222,0,0,0-1.975,4.424l0,.012v0c-.531,1.548-1.192,3.244-1.72,5.064l0,0,0,.012c-.465,1.746-1.081,3.611-1.546,5.594l0,.006v.008c-.2.942-.468,1.914-.726,2.919l0,.006q-.374,1.5-.674,3.053h0c-.256,1.03-.507,2.08-.723,3.159l0,.011v0q-.148.786-.3,1.582-.18.791-.362,1.589l0,.017,0,.018c-.8,4.326-1.7,8.356-2.244,12.25h0c-.682,3.79-1.08,7.388-1.36,10.572Zm3.01-10.342,0-.013c.525-3.793,1.423-7.8,2.229-12.162.121-.531.24-1.058.36-1.581l0-.015,0-.015q.152-.8.3-1.6h0c.209-1.036.452-2.059.705-3.076l0-.02,0-.023q.3-1.534.664-3.01v0c.252-.984.522-1.97.738-2.967h0c.442-1.887,1.047-3.726,1.531-5.533.5-1.721,1.143-3.38,1.689-4.966h0a36.831,36.831,0,0,1,1.9-4.245l.006-.012h0a19.184,19.184,0,0,1,2.064-3.341,10.737,10.737,0,0,1,2.354-2.269l0,0,0,0a5.792,5.792,0,0,1,2.491-1.02,5.2,5.2,0,0,1,.735-.053,5.781,5.781,0,0,1,1.957.357,8.837,8.837,0,0,1,2.751,1.741,18.149,18.149,0,0,1,2.782,3.24,29.6,29.6,0,0,1,2.432,4.666l0,.011a35.324,35.324,0,0,1,1.9,5.937l0,.014h0a45.663,45.663,0,0,1,1.128,7.04v.011a33.3,33.3,0,0,1,.188,3.827v.006q0,.4,0,.813,0,1.594-.054,3.243c-.1,1.365-.248,2.758-.418,4.175h0q-.139,1.063-.281,2.139-.215,1.068-.43,2.147l0,.01a56.266,56.266,0,0,1-5.629,15.625A41.794,41.794,0,0,1,353,194.926l-.011.01-.007.006a20.9,20.9,0,0,1-8.36,4.893,10.067,10.067,0,0,1-2.227.269,5.617,5.617,0,0,1-3.573-1.128A8.012,8.012,0,0,1,336.2,193.8l0-.015,0-.016a21.645,21.645,0,0,1-.373-4.353c0-1.24.061-2.565.141-3.981.278-3.163.671-6.718,1.344-10.449Z" transform="translate(69.578 26.523)" fill="#3e485c" stroke="#3e485c" stroke-linecap="round" stroke-linejoin="round" stroke-width="1"/>
      <path id="パス_1672" data-name="パス 1672" d="M342.977,170.769q1.284-.689,2.587-1.426l.01,0,.01-.006c.841-.506,1.668-1.03,2.5-1.563l.006,0c1.639-1.067,3.4-2.189,5.016-3.439l.354-.275-.3-4.018h0c-.078-1.237-.3-2.438-.43-3.566l0-.015v-.006c-.167-1.149-.29-2.31-.508-3.5l-.668-3.439a.833.833,0,0,0-1.636.318l.665,3.423c.2,1.1.324,2.238.495,3.421h0c.145,1.2.356,2.373.423,3.482v.018l.235,3.106c-1.439,1.084-3.025,2.1-4.55,3.1l.006,0c-.828.53-1.639,1.044-2.456,1.535q-1.281.723-2.542,1.4a.834.834,0,0,0,.789,1.47Z" transform="translate(71.16 30.99)" fill="#3e485c" stroke="#3e485c" stroke-linecap="round" stroke-width="1"/>
      <path id="パス_1673" data-name="パス 1673" d="M468.218,154.725a.018.018,0,0,0,0-.006s0-.006,0-.009h0a26.661,26.661,0,0,0-7.288-9.635,14.637,14.637,0,0,0-9.2-3.407h-.181a16.178,16.178,0,0,0-9.332,3.383,31.9,31.9,0,0,0-7.579,8.44l-.006.01,0,0c-4.378,6.945-7.642,16.1-9.178,26.422v0a82.615,82.615,0,0,0-.9,11.949,58.7,58.7,0,0,0,2.067,16.076h0l0,.011v0h0a31.1,31.1,0,0,0,4.854,10.284l0,.006,0,0a15.88,15.88,0,0,0,7.971,5.877h0a13.483,13.483,0,0,0,4.009.6c5.323-.006,10.844-2.991,15.706-8.345,6.062-6.7,11.113-17.212,12.927-29.561v0a66.809,66.809,0,0,0,.734-9.824c0-8.541-1.693-16.3-4.593-22.28Zm2.211,31.859v0c-1.762,12.04-6.716,22.284-12.512,28.683-4.654,5.13-9.8,7.8-14.471,7.8a11.812,11.812,0,0,1-3.514-.527h0a14.209,14.209,0,0,1-7.128-5.286l0,0a29.46,29.46,0,0,1-4.587-9.739l0-.008v0a56.984,56.984,0,0,1-2.005-15.628,80.882,80.882,0,0,1,.883-11.707v0c1.5-10.119,4.709-19.07,8.934-25.77a30.284,30.284,0,0,1,7.164-8,14.516,14.516,0,0,1,8.372-3.063h.159a12.96,12.96,0,0,1,8.16,3.043,25.008,25.008,0,0,1,6.824,9.046l0,.006,0,.01c2.772,5.7,4.434,13.239,4.432,21.566A65.041,65.041,0,0,1,470.428,186.583Z" transform="translate(88.4 29.499)" fill="#3e485c" stroke="#3e485c" stroke-linecap="round" stroke-width="1"/>
      <path id="パス_1674" data-name="パス 1674" d="M429.691,262.72a14.83,14.83,0,0,0-2.42-4.068,12.392,12.392,0,0,0-3.476-2.9,13.7,13.7,0,0,0-6.8-1.684,17.009,17.009,0,0,0-2.138.128,24.18,24.18,0,0,0-4.851,1.156,32.962,32.962,0,0,0-5.023,2.2v.009a60.91,60.91,0,0,0-18.845,17.116h2.084a58.59,58.59,0,0,1,17.562-15.66,30.96,30.96,0,0,1,4.75-2.084h.009a22.037,22.037,0,0,1,4.514-1.083,15.632,15.632,0,0,1,1.938-.118,12.086,12.086,0,0,1,5.978,1.474,11.884,11.884,0,0,1,5.168,6.142,19.264,19.264,0,0,1,1.219,4.64,28.059,28.059,0,0,1,.209,3.476c0,.646-.018,1.319-.063,1.992v.009c-.019.4-.045.8-.082,1.211h1.665q.055-.559.082-1.119c.045-.71.064-1.411.064-2.092a28.373,28.373,0,0,0-.228-3.695A20.9,20.9,0,0,0,429.691,262.72Z" transform="translate(80.404 52.902)" fill="#3e485c" stroke="#3e485c" stroke-linecap="round" stroke-width="1"/>
      <path id="パス_1675" data-name="パス 1675" d="M450.914,185.642l-.008-.023.006.019c-1.164-3.2-2.249-6.345-3.526-9.484l-.53-1.3-.888,1.087c-1.7,2.079-3.585,4.113-5.382,6.141l0-.006c-.912,1.009-1.8,2.005-2.709,2.979l-2.807,2.916a.834.834,0,1,0,1.2,1.157h0l2.812-2.92.008-.009c.933-1,1.826-2,2.732-3l.006-.006c1.479-1.669,3.023-3.377,4.509-5.126,1.045,2.671,1.992,5.376,3,8.148l0,0c1.14,3.178,2.114,6.392,3.167,9.694a.834.834,0,0,0,1.589-.507C453.051,192.107,452.072,188.874,450.914,185.642Z" transform="translate(90.545 36.409)" fill="#3e485c" stroke="#3e485c" stroke-linecap="round" stroke-width="1"/>
      <path id="パス_1676" data-name="パス 1676" d="M410.1,265.67a.836.836,0,0,0-1.11.4c-.973,2.093-2.047,4.14-3.12,6.206h1.883c.946-1.811,1.875-3.631,2.748-5.5A.836.836,0,0,0,410.1,265.67Z" transform="translate(84.513 55.303)" fill="#3e485c" stroke="#3e485c" stroke-linecap="round" stroke-width="1"/>
      <path id="パス_1677" data-name="パス 1677" d="M409.844,13.947h0Z" transform="translate(85.339 2.904)" fill="#231815"/>
      <path id="パス_1678" data-name="パス 1678" d="M392.485,25.377l0-.019v-.008Z" transform="translate(81.725 5.278)" fill="#231815"/>
      <path id="パス_1679" data-name="パス 1679" d="M392.152,33.642v0a38.167,38.167,0,0,0,.629,6.339v-.007c1.5,8.675,5.322,18.064,11.095,27.309l0,0c5.8,9.222,12.62,16.842,19.754,22.026l.01.007.01.006a46.475,46.475,0,0,0,5.411,3.337l-.007,0a28.974,28.974,0,0,0,5.52,2.16h0a19.893,19.893,0,0,0,5.422.793,15.686,15.686,0,0,0,5.3-.9,15.976,15.976,0,0,0,8.291-7.065l.006-.011,0,0a24.493,24.493,0,0,0,2.41-5.764l0-.007a32.228,32.228,0,0,0,1.192-6.988h0v-.007s0-.011,0-.015h0q.107-1.449.109-2.972c0-9.509-3.169-20.993-9.933-31.761l0-.008,0,0a68.645,68.645,0,0,0-6.044-8.268h0l0-.006,0,0h0a59.66,59.66,0,0,0-6.739-6.85h0l-.01-.008h0a51.137,51.137,0,0,0-7.094-5.3h0l0,0-.007,0h0q-1.791-1.113-3.553-2.038-.883-.463-1.756-.88l-.01,0-.012,0q-.9-.394-1.779-.742a37.009,37.009,0,0,0-6.821-1.992,22.843,22.843,0,0,0-4.2-.382c-.723,0-1.428.032-2.107.091h0A15.713,15.713,0,0,0,397.3,18.13a17.777,17.777,0,0,0-4.743,9.661v0a29.508,29.508,0,0,0-.408,5.352C392.151,33.314,392.151,33.478,392.152,33.642ZM394.2,28.09l0-.011a16.107,16.107,0,0,1,4.279-8.766,14.024,14.024,0,0,1,8.895-3.928h0c.633-.055,1.289-.086,1.962-.086a21.087,21.087,0,0,1,3.891.354h0a35.374,35.374,0,0,1,6.512,1.9c.565.222,1.136.46,1.711.713q.836.4,1.681.843,1.709.9,3.459,1.985l.007,0h0a49.437,49.437,0,0,1,6.879,5.146l.008.007,0,0a58.242,58.242,0,0,1,6.567,6.68l0,0,0,.006a66.726,66.726,0,0,1,5.9,8.075c6.606,10.507,9.678,21.729,9.675,30.868q0,1.473-.1,2.87v.023a30.512,30.512,0,0,1-1.135,6.641,22.9,22.9,0,0,1-2.237,5.366,14.3,14.3,0,0,1-7.424,6.356,13.989,13.989,0,0,1-4.741.8,18.258,18.258,0,0,1-4.966-.729h0l0,0a27.281,27.281,0,0,1-5.208-2.038l-.007,0h0a44.857,44.857,0,0,1-5.2-3.209C417.7,82.944,411,75.478,405.29,66.4l-.01-.016.011.018c-5.681-9.095-9.417-18.3-10.867-26.709v-.008a36.464,36.464,0,0,1-.6-6.061v0c0-.161,0-.321,0-.48A27.764,27.764,0,0,1,394.2,28.09Z" transform="translate(81.655 2.838)" fill="#3e485c" stroke="#3e485c" stroke-linecap="round" stroke-width="1"/>
      <path id="パス_1680" data-name="パス 1680" d="M408.543,55.494q8.038-2.3,16.3-4.254l1.05-.248-2.983-5.648h0l-1.255-2.371-1.34-2.312-2.689-4.631L414.754,31.5a.833.833,0,1,0-1.407.893l2.854,4.5,2.673,4.6h0l1.327,2.29,1.238,2.338,1.981,3.752q-7.765,1.855-15.336,4.014a.834.834,0,0,0,.459,1.6Z" transform="translate(84.847 6.479)" fill="#3e485c" stroke="#3e485c" stroke-linecap="round" stroke-width="1"/>
      <path id="パス_1681" data-name="パス 1681" d="M8.262,142.193a52.029,52.029,0,0,0-.946-7.106c-.237-1.111-.5-2.2-.8-3.249l-.01-.018c-.273-1.038-.582-2.038-.937-2.993a26.722,26.722,0,0,0-2.557-5.241A17.739,17.739,0,0,0,0,119.973v2.375a17.038,17.038,0,0,1,1.61,2.139A25.438,25.438,0,0,1,4,129.4c.328.91.628,1.874.9,2.875v.009c.291,1.01.556,2.057.774,3.139a51.508,51.508,0,0,1,.919,6.9v.009c.163,1.9.255,3.868.255,5.888,0,.573,0,1.147-.018,1.738v.009c-.1,2.657-.218,5.4-.528,8.19v.009c-.154,1.393-.354,2.812-.582,4.241v.018c-.2,1.437-.436,2.893-.718,4.349s-.592,2.894-.946,4.3v.009c-.346,1.42-.674,2.82-1.047,4.167v.009c-.737,2.7-1.674,5.305-2.566,7.817v.009c-.145.383-.291.764-.446,1.147v4.259q1.079-2.321,2.011-4.832v-.01c.9-2.52,1.847-5.16,2.6-7.952.391-1.4.728-2.812,1.065-4.232.355-1.437.683-2.893.964-4.377l-.819-.164.819.155c.282-1.475.527-2.957.728-4.413v-.018c.227-1.447.437-2.884.591-4.314.318-2.867.437-5.66.537-8.317v-.01c.019-.6.028-1.2.028-1.792,0-2.075-.1-4.077-.264-6.015v-.008Z" transform="translate(0 24.981)" fill="#231815"/>
      <path id="パス_1682" data-name="パス 1682" d="M59.529,37.382l-.006.009,0,.008Z" transform="translate(12.394 7.784)" fill="#231815"/>
      <path id="パス_1683" data-name="パス 1683" d="M39.343,61.19l.006,0,0,0Z" transform="translate(8.192 12.74)" fill="#231815"/>
      <path id="パス_1684" data-name="パス 1684" d="M56.319,42.713v0l0,0Z" transform="translate(11.726 8.894)" fill="#231815"/>
      <path id="パス_1685" data-name="パス 1685" d="M50.166,67.786a67.473,67.473,0,0,0,5.343-5.33l0,0,0,0q.633-.721,1.271-1.451.66-.719,1.308-1.464,1.308-1.5,2.561-3.117h0q1.254-1.612,2.389-3.25h0Q64.231,51.593,65.3,50c1.465-2.147,2.689-4.358,3.87-6.428l0-.006A64.552,64.552,0,0,0,74.52,31.2l0-.011,0-.012a34.3,34.3,0,0,0,1.534-9.488c0-3.989-1.038-7.524-3.484-10.124C70.162,9,66.63,7.737,62.534,7.741A28.41,28.41,0,0,0,52.442,9.831h0l-.017.006h0a52.149,52.149,0,0,0-13.059,7.474l0,0a67.171,67.171,0,0,0-6.455,5.7l0,0q-1.585,1.564-3.139,3.253l-.008.008-.01.011q-1.5,1.736-2.938,3.592h0q-1.443,1.855-2.761,3.729l0,0,0,0q-.641.933-1.275,1.857l-.01.015-.006.01c-.409.644-.792,1.288-1.166,1.923v0a84.514,84.514,0,0,0-3.974,7.6l0,.006,0,0a60.584,60.584,0,0,0-2.688,7.447l0,.007a40.794,40.794,0,0,0-1.48,7h0a38.767,38.767,0,0,0-.269,4.437,23.972,23.972,0,0,0,1.014,7.281l0,.006v0a12.921,12.921,0,0,0,5.663,7.426,12.335,12.335,0,0,0,6.249,1.585,17.059,17.059,0,0,0,2.867-.252h0a29.944,29.944,0,0,0,10.432-4.051l0,0,.006,0c1.714-1.059,3.577-2.225,5.393-3.6a69.856,69.856,0,0,0,5.37-4.53ZM49.05,66.546A68.17,68.17,0,0,1,43.8,70.979l0,0v0c-1.74,1.316-3.555,2.455-5.261,3.51a28.331,28.331,0,0,1-9.844,3.834h-.009a15.422,15.422,0,0,1-2.587.229A10.662,10.662,0,0,1,20.679,77.2a11.253,11.253,0,0,1-4.914-6.5,22.332,22.332,0,0,1-.934-6.768,37.083,37.083,0,0,1,.26-4.255v-.011a39.191,39.191,0,0,1,1.424-6.708l0,.007a58.829,58.829,0,0,1,2.61-7.238,82.93,82.93,0,0,1,3.894-7.448h0c.372-.629.745-1.258,1.135-1.872q.622-.906,1.255-1.826,1.295-1.839,2.714-3.665h0Q29.537,29.1,30.994,27.4q1.52-1.654,3.074-3.186a65.768,65.768,0,0,1,6.288-5.559A50.5,50.5,0,0,1,53,11.4l.011,0,.01,0a26.782,26.782,0,0,1,9.511-1.984c3.772,0,6.792,1.139,8.829,3.3,2.077,2.209,3.027,5.263,3.031,8.982A32.644,32.644,0,0,1,72.929,30.7a62.818,62.818,0,0,1-5.2,12.038l-.008.015.006-.012c-1.189,2.084-2.392,4.254-3.8,6.318l0,.006h0Q62.865,50.64,61.7,52.192l-.011.013-.008.013q-1.115,1.6-2.338,3.179l.658.512-.658-.511q-1.225,1.576-2.5,3.046-.639.734-1.29,1.444l-.006.008-.006.007q-.639.729-1.269,1.447a65.813,65.813,0,0,1-5.206,5.194Z" transform="translate(2.741 1.612)" fill="#3e485c" stroke="#3e485c" stroke-linecap="round" stroke-width="1"/>
      <path id="パス_1686" data-name="パス 1686" d="M52.086,43.4a.834.834,0,0,0-.35-1.126q-5.576-2.931-11.22-5.78l-.677-.342-.4.642c-3.188,5.063-6.063,10.289-8.917,15.459a.834.834,0,0,0,1.46.806c2.731-4.948,5.477-9.916,8.47-14.724q5.284,2.674,10.513,5.416A.835.835,0,0,0,52.086,43.4Z" transform="translate(6.333 7.527)" fill="#3e485c" stroke="#3e485c" stroke-linecap="round" stroke-width="1"/>
      <path id="パス_1687" data-name="パス 1687" d="M277.687,160.765a.993.993,0,0,0,1.3-.538,27.132,27.132,0,0,0,2.178-10.4,22.182,22.182,0,0,0-5-14.186.992.992,0,1,0-1.521,1.275h0a20.212,20.212,0,0,1,4.535,12.912,25.141,25.141,0,0,1-2.029,9.64A.993.993,0,0,0,277.687,160.765Z" transform="translate(57.139 28.17)" fill="#3e485c"/>
      <path id="パス_1688" data-name="パス 1688" d="M292.47,95.663a7.887,7.887,0,0,0-11.655,3.772,17.708,17.708,0,0,0-9.384,1.208,17.416,17.416,0,0,0-7.854,6.575l-1.6,2.459a.935.935,0,0,0-.654-.389,6.07,6.07,0,0,0-.688-.037,6.534,6.534,0,0,0-4.164,11.579,14.7,14.7,0,0,0-.67,4.436,18,18,0,0,0,7.84,14.782,17.236,17.236,0,0,0,9.371,2.666,16.823,16.823,0,0,0,11.092-3.947,6.53,6.53,0,0,0,9.463-5.831,6.563,6.563,0,0,0-.876-3.276.942.942,0,0,0-.535-.423l1.581-2.435a17.421,17.421,0,0,0,2.812-9.85,17.7,17.7,0,0,0-2.759-9.137,7.892,7.892,0,0,0-1.322-12.153Zm-.794,37.276a4.619,4.619,0,0,1-6.174,4.371,12.014,12.014,0,0,0,.788-1.023.947.947,0,1,0-1.588-1.031h0c-2.268,3.52-6.907,5.573-11.685,5.567a15.352,15.352,0,0,1-8.34-2.36,16.138,16.138,0,0,1-6.978-13.195,11.682,11.682,0,0,1,1.762-6.4.946.946,0,1,0-1.587-1.032,11.767,11.767,0,0,0-.637,1.125,4.657,4.657,0,0,1-1.25-3.171,4.652,4.652,0,0,1,4.652-4.641c.128,0,.252.01.376.02l-.688,1.059a.857.857,0,0,0,.9,1.3,23.015,23.015,0,0,0,5.165-1.15c3.105-.573,11.231-5.7,13.3-8.29-2.294,4.575-.957,6.51,3.51,15,.518,1.011,1.063,2.089,1.638,3.15,1.042,2.034,2.211,4.383,3.5,7.111.226.853.474,1.6.589,2.17a.857.857,0,0,0,1.558.294l.658-1.013A4.675,4.675,0,0,1,291.675,132.939Z" transform="translate(52.908 19.654)" fill="#3e485c"/>
      <path id="パス_1690" data-name="パス 1690" d="M266.316,116.994a1.764,1.764,0,1,0-.518-2.44A1.769,1.769,0,0,0,266.316,116.994Z" transform="translate(55.287 23.686)" fill="#3e485c"/>
      <path id="パス_1691" data-name="パス 1691" d="M276.741,119.559a1.769,1.769,0,0,0-2.44.518h0a1.763,1.763,0,1,0,2.44-.519Z" transform="translate(57.057 24.836)" fill="#3e485c"/>
      <path id="パス_1692" data-name="パス 1692" d="M269.95,122.547l-1.11-.721a.832.832,0,0,1-.375-.781l.027-.259a.215.215,0,0,0-.393-.139l-.483.743a.606.606,0,0,0,.178.839l1.661,1.079a.453.453,0,0,0,.494-.76Z" transform="translate(55.704 25.101)" fill="#3e485c"/>
      <path id="パス_1693" data-name="パス 1693" d="M270.126,126.16a.7.7,0,0,0-.641.357,5.6,5.6,0,0,1-4.013-2.606.7.7,0,0,0,.064-.732.669.669,0,0,0-.764-.4l-.92.3c-.3.09-.416.55-.21.989a.773.773,0,0,0,.738.514,6.882,6.882,0,0,0,4.932,3.2.773.773,0,0,0,.769.465c.485.011.857-.287.819-.594s-.064-.642-.1-.964A.67.67,0,0,0,270.126,126.16Z" transform="translate(54.875 25.56)" fill="#3e485c"/>
      <path id="パス_1694" data-name="パス 1694" d="M281.712,153.45h0v0Z" transform="translate(58.659 31.951)" fill="#231815"/>
      <path id="パス_1695" data-name="パス 1695" d="M200.462,113.637a.992.992,0,0,0,1.665,1.081C212.71,98.4,232.6,87.547,254.463,85.623a.992.992,0,1,0-.174-1.976h0C231.89,85.627,211.462,96.713,200.462,113.637Z" transform="translate(41.708 17.416)" fill="#3e485c" stroke="#3e485c" stroke-width="1"/>
      <path id="パス_1696" data-name="パス 1696" d="M250.289,85.375q.5-.009,1-.008,1.219,0,2.446.038a77.96,77.96,0,0,1,40.207,12.548,78.788,78.788,0,0,1,35.691,65.641c0,12.56-3.206,24.6-9.564,34.391a.992.992,0,1,0,1.665,1.081h0c6.6-10.16,9.883-22.577,9.884-35.472a80.764,80.764,0,0,0-36.594-67.305,79.934,79.934,0,0,0-41.226-12.867q-1.255-.039-2.507-.04-.513,0-1.027.007a.993.993,0,0,0,.031,1.986Z" transform="translate(51.906 17.362)" fill="#3e485c" stroke="#3e485c" stroke-width="1"/>
      <path id="パス_1697" data-name="パス 1697" d="M173.271,159.507,216.734,192.1a391.552,391.552,0,0,0,44.294,28.766l47.455,26.448a32.35,32.35,0,0,0,15.705,4.153,27.543,27.543,0,0,0,17.375-5.919l5.135-4.14a21.087,21.087,0,0,0,7.84-16.587,23.947,23.947,0,0,0-1.889-9.229l-5.424-12.988a.992.992,0,1,0-1.83.764h0l5.424,12.988a21.95,21.95,0,0,1,1.736,8.465,19.1,19.1,0,0,1-7.1,15.042L340.318,244a25.565,25.565,0,0,1-16.13,5.48,30.365,30.365,0,0,1-14.739-3.9l-47.455-26.448a389.547,389.547,0,0,1-44.07-28.619l-43.463-32.595c-7.586-5.688-11.915-14.239-11.912-22.677a23.935,23.935,0,0,1,.8-6.165l1.693-6.375c2.256-8.476,9.875-14.231,19.292-14.462l14.071-.328a.992.992,0,0,0-.045-1.983l-14.071.327c-10.2.227-18.682,6.567-21.163,15.937l-1.693,6.375a25.938,25.938,0,0,0-.865,6.675C160.568,144.361,165.216,153.463,173.271,159.507Z" transform="translate(33.434 22.057)" fill="#3e485c" stroke="#3e485c" stroke-width="1"/>
      <path id="パス_1698" data-name="パス 1698" d="M188.069,124.224a.992.992,0,1,0-.42-1.939,16.18,16.18,0,1,0,7.263.088.993.993,0,1,0-.468,1.929h0a14.245,14.245,0,1,1-6.374-.078Z" transform="translate(36.409 25.458)" fill="#3e485c" stroke="#3e485c" stroke-width="1"/>
      <path id="パス_1699" data-name="パス 1699" d="M283.211,217.373a16.223,16.223,0,1,0,9.141-29.83.993.993,0,1,0-.036,1.985h0a14.243,14.243,0,1,1-5.837,1.132.992.992,0,1,0-.772-1.827,16.222,16.222,0,0,0-2.494,28.541Z" transform="translate(57.432 39.051)" fill="#3e485c" stroke="#3e485c" stroke-width="1"/>
      <path id="パス_1700" data-name="パス 1700" d="M322.892,187.651l-15.135-9.829,5.968-9.19a4.7,4.7,0,0,0-1.382-6.5l-.048-.031c.017-.021.04-.032.054-.056h0l2.659-4.094a3.18,3.18,0,0,0-.934-4.4l-.415-.269a3.176,3.176,0,0,0-4.4.936L306.6,158.31c-.015.023-.016.049-.028.072l-.575-.374L305.98,158a4.29,4.29,0,0,0-2.18-.61,3.424,3.424,0,0,0-2.462.989,4.555,4.555,0,0,0-1.181,3.082c0,.018.007.034.008.052a3.27,3.27,0,0,0-2.934,4.227,3.29,3.29,0,0,0-2.874,3.274c0,.04.013.078.015.119l-27.386-17.784c.083-.023.167-.037.249-.068l20.514-7.669a.91.91,0,1,0-.637-1.7h0l-17.865,6.679,4.444-6.842-2.2-1.426-2.2-1.426-4.4,6.781-.786-17a.91.91,0,0,0-1.817.085l.92,19.889v.012c0,.09.028.172.041.26l-22.36-14.52a.979.979,0,0,0,.935-.3c5.8-6.485,12.073-8.3,17.078-8.31a19.1,19.1,0,0,1,5.206.706.992.992,0,0,0,.546-1.908h0a21.06,21.06,0,0,0-5.751-.782c-5.488-.011-12.41,2.068-18.559,8.973a.978.978,0,0,0-.047,1.233l-2.431-1.579a3.291,3.291,0,0,0,1.566-1.254l0,0a3.336,3.336,0,0,0,.535-1.81,3.292,3.292,0,0,0-.145-.929,3.318,3.318,0,0,0,2.337-1.459l0,0a3.2,3.2,0,0,0,.32-2.925c.018-.007.037-.006.055-.015a5.127,5.127,0,0,0,1.926-1.579,3.366,3.366,0,0,0,.628-1.945,4.027,4.027,0,0,0-1.762-3.2l-.023-.016-.569-.37c.016-.02.039-.032.053-.054l2.659-4.1,0,0a3.181,3.181,0,0,0-.937-4.4l-.415-.269a3.175,3.175,0,0,0-4.4.935l-2.659,4.094a.77.77,0,0,0-.028.072l-.049-.032a4.7,4.7,0,0,0-6.5,1.382l-5.968,9.191-17.667-11.473a.992.992,0,1,0-1.081,1.665l116.058,75.368a.991.991,0,1,0,1.081-1.661Zm-14.84-28.4,2.658-4.1a1.448,1.448,0,0,1,2.006-.427l.416.27a1.45,1.45,0,0,1,.425,2.005L310.9,161.1c-.015.023-.016.049-.028.072L308,159.307C308.014,159.287,308.038,159.275,308.052,159.252Zm-8.142,13.2-3.126-2.03a1.676,1.676,0,0,1-.76-1.408,1.653,1.653,0,0,1,.268-.9,1.675,1.675,0,0,1,2.313-.491l3.125,2.03a.834.834,0,0,0,.909-1.4h0l-3.125-2.03a1.676,1.676,0,0,1-.759-1.408,1.64,1.64,0,0,1,.266-.9l0,0a1.678,1.678,0,0,1,1.408-.759,1.645,1.645,0,0,1,.9.268l3.125,2.03a.834.834,0,0,0,.909-1.4l-3.125-2.03a3.249,3.249,0,0,0-.476-.254.829.829,0,0,0,.056-.22,2.924,2.924,0,0,1,.7-1.99,1.752,1.752,0,0,1,1.28-.5,2.628,2.628,0,0,1,1.319.372l5.045,3.276,1.272.826a3.034,3.034,0,0,1,.891,4.2l-5.968,9.189-6.1-3.958A.826.826,0,0,0,299.911,172.449Zm-58.753-62.46a1.448,1.448,0,0,1,2.006-.427l.416.269a1.454,1.454,0,0,1,.425,2.009l0,0-2.659,4.094c-.015.023-.016.049-.028.071l-2.872-1.865c.016-.021.04-.032.054-.055h0Zm-9.29,5.484a3.027,3.027,0,0,1,4.195-.892l1.271.826,5.046,3.277a2.387,2.387,0,0,1,1.049,1.836,1.69,1.69,0,0,1-.326.988,3.491,3.491,0,0,1-1.316,1.049.8.8,0,0,0-.2.155,3.3,3.3,0,0,0-.408-.346l-3.125-2.029a.834.834,0,0,0-.908,1.4l3.125,2.029a1.671,1.671,0,0,1-1.82,2.8h0l-3.125-2.029a.834.834,0,0,0-.908,1.4h0l3.125,2.029a1.671,1.671,0,0,1-1.822,2.8l-3.125-2.029a.829.829,0,0,0-.607-.116l-6.095-3.958Z" transform="translate(42.749 22.404)" fill="#3e485c" stroke="#3e485c" stroke-width="0.4"/>
      <path id="パス_1701" data-name="パス 1701" d="M223.861,145.795Z" transform="translate(46.613 30.358)" fill="#231815"/>
      <path id="パス_1702" data-name="パス 1702" d="M206.987,129.5Z" transform="translate(43.1 26.964)" fill="#231815"/>
      <path id="パス_1703" data-name="パス 1703" d="M220.361,141.573a.835.835,0,0,0-.023-1.179c-3.991-3.833-8.1-7.838-12.136-11.836a.834.834,0,0,0-1.174,1.185c4.039,4,8.158,8.014,12.154,11.854A.835.835,0,0,0,220.361,141.573Z" transform="translate(43.057 26.719)" fill="#3e485c" stroke="#3e485c" stroke-width="1"/>
      <path id="パス_1704" data-name="パス 1704" d="M298.51,186.866a.835.835,0,0,0-.474-1.08h0c-20.2-7.854-40.988-16.748-48.63-20.334a5.3,5.3,0,0,0-4.512-.01c0-.022,0-.044,0-.066a5.354,5.354,0,0,0-1.852-4.054c-3.524-3.048-10.169-9.112-18-16.493a.834.834,0,1,0-1.143,1.214c7.842,7.394,14.488,13.46,18.049,16.541a3.691,3.691,0,0,1,.68,4.8h0l-11.119,17.121a.834.834,0,0,0,1.4.909L244.032,168.3l0,0a3.683,3.683,0,0,1,4.661-1.331c7.711,3.617,28.5,12.507,48.733,20.379A.838.838,0,0,0,298.51,186.866Z" transform="translate(46.568 30.11)" fill="#3e485c" stroke="#3e485c" stroke-width="1"/>
      <path id="パス_1705" data-name="パス 1705" d="M211.157,171.487Z" transform="translate(43.968 35.708)" fill="#231815"/>
      <path id="パス_1706" data-name="パス 1706" d="M250.675,197.379a.834.834,0,1,0,.755-1.487,258.044,258.044,0,0,1-23.877-14.523c-3.878-2.6-7.4-5.05-10.093-6.987-1.349-.968-2.493-1.809-3.372-2.474s-1.5-1.162-1.758-1.4a.833.833,0,1,0-1.128,1.228c.354.324.981.822,1.879,1.5C219.338,177.971,238.353,191.117,250.675,197.379Z" transform="translate(43.921 35.458)" fill="#3e485c" stroke="#3e485c" stroke-width="1"/>
    </g>
  </g>
</svg>
