<svg xmlns="http://www.w3.org/2000/svg" width="214" height="196" viewBox="0 0 214 196">
  <g id="グループ_2608" data-name="グループ 2608" transform="translate(-1026 -444)">
    <g id="グループ_2607" data-name="グループ 2607" transform="translate(19350 1119)" opacity="0.798">
      <circle id="楕円形_85" data-name="楕円形 85" cx="98" cy="98" r="98" transform="translate(-18315 -675)" fill="#df7c8f"/>
    </g>
    <g id="グループ_125" data-name="グループ 125" transform="translate(19044 1050.372)">
      <g id="グループ_124" data-name="グループ 124" transform="translate(-18018 -575.372)">
        <g id="j32_3_1">
          <path id="パス_40" data-name="パス 40" d="M267.965,233.593,125.591,234.8V132.2l142.374-1.21Z" transform="translate(-88.217 -122.435)" fill="#fff"/>
          <path id="前面オブジェクトで型抜き_3" data-name="前面オブジェクトで型抜き 3" d="M159.392,113.549H0V15.526A15.621,15.621,0,0,1,15.68,0H143.711a15.622,15.622,0,0,1,15.681,15.526v98.023h0ZM15.68,8.485a7.1,7.1,0,0,0-5.029,2.062,6.964,6.964,0,0,0-2.083,4.979v89.932H150.825V15.526a6.963,6.963,0,0,0-2.082-4.979,7.1,7.1,0,0,0-5.029-2.062Z" transform="translate(28.979 5.208)" fill="#2ba7c8"/>
          <path id="パス_43" data-name="パス 43" d="M149.07,400.587v4.35H108.14v-4.35H25.373v3.158a7.423,7.423,0,0,0,3.385,6.226l3.028,1.965a22.506,22.506,0,0,0,12.252,3.626H213.171a22.508,22.508,0,0,0,12.252-3.626l3.028-1.965a7.422,7.422,0,0,0,3.384-6.226v-3.158Z" transform="translate(-17.836 -282.509)" fill="#d2eef6"/>
          <path id="パス_44" data-name="パス 44" d="M185.41,16.782A16.872,16.872,0,0,0,168.483,0H40.477A16.872,16.872,0,0,0,23.55,16.782v97.653H0v4.375a8.594,8.594,0,0,0,3.953,7.221l3.028,1.951a23.877,23.877,0,0,0,12.933,3.8H189.047a23.874,23.874,0,0,0,12.932-3.8l3.028-1.951a8.6,8.6,0,0,0,3.953-7.222v-4.375H185.41ZM30.279,6.672a14.442,14.442,0,0,1,10.2-4.2H168.483a14.44,14.44,0,0,1,10.2,4.2,14.2,14.2,0,0,1,4.231,10.11v97.653H123.7v4.32H85.264v-4.32H26.049V16.782A14.2,14.2,0,0,1,30.279,6.672Zm176.182,110.24v1.9a6.124,6.124,0,0,1-2.817,5.145l-3.028,1.951a21.365,21.365,0,0,1-11.571,3.4H19.914a21.364,21.364,0,0,1-11.571-3.4l-3.028-1.951A6.123,6.123,0,0,1,2.5,118.81v-1.9H82.766v4.32h43.428v-4.32h80.268Z" fill="#3e485c"/>
          <path id="パス_45" data-name="パス 45" d="M252.689,129.035v-91.9a8.351,8.351,0,0,0-8.355-8.346H116.409a8.351,8.351,0,0,0-8.355,8.346v91.9H252.689Zm-142.138-91.9a5.856,5.856,0,0,1,5.859-5.852H244.334a5.856,5.856,0,0,1,5.858,5.852V51.8H110.551Zm0,14.664H250.192v74.74H110.551Z" transform="translate(-76.328 -20.238)" fill="#3e485c"/>
        </g>
      </g>
    </g>
    <text id="text" transform="translate(1133 517.526)" fill="#101010" font-size="14" font-family="HiraginoSans-W3, Hiragino Sans" letter-spacing="0.1em"><tspan x="-54.87" y="0">２年</tspan><tspan y="0" font-family="Helvetica">Web</tspan><tspan y="0">専攻の</tspan><tspan y="0" font-family="Helvetica"></tspan><tspan x="-60.83" y="24">ポートフォリオが</tspan><tspan y="24" font-family="Helvetica"></tspan><tspan x="-37.8" y="48">見れるよ！</tspan></text>
  </g>
</svg>
