<svg xmlns="http://www.w3.org/2000/svg" width="482" height="320" viewBox="0 0 482 320">
  <g id="グループ_3117" data-name="グループ 3117" transform="translate(-128 -3060)">
    <path id="img02" d="M10,0H472a10,10,0,0,1,10,10V310a10,10,0,0,1-10,10H10A10,10,0,0,1,0,310V10A10,10,0,0,1,10,0Z" transform="translate(128 3060)" fill="#ffdde3" opacity="0.997"/>
    <g id="グループ_2584" data-name="グループ 2584" transform="translate(18.512 141)">
      <g id="j145_8_1" transform="translate(181.488 2983)">
        <path id="パス_1515" data-name="パス 1515" d="M74.872,179.944l.784-3.764c-7.126-10.621-24.222-48.339-28.715-83.745l16.77-2.269c2.794,28.549,19.488,71.659,30.33,71.648h44.035c10.843.011,27.536-43.1,30.33-71.648l16.771,2.269c-4.492,35.406-20.667,73.124-27.794,83.745l.932,3.139Z" transform="translate(-28.42 -60.272)" fill="#20ab9a"/>
        <path id="パス_1516" data-name="パス 1516" d="M221.223,341.216v10.807H133.456V341.216a24.1,24.1,0,0,1,5.692-15.611s6.088-5.533,7.6-6.586a24.729,24.729,0,0,1,5.45-2.857,19.247,19.247,0,0,1,6.4-1.352l18.742-1.941,18.739,1.941C202.938,314.81,221.223,323.478,221.223,341.216Z" transform="translate(-92.169 -216.077)" fill="#20ab9a"/>
        <path id="パス_1539" data-name="パス 1539" d="M0,51.785Z" transform="translate(156.387 127.026)" fill="#fff"/>
        <path id="パス_1517" data-name="パス 1517" d="M206.34,308.1s-8.252,1.8-8.5,2.6,21.052,28.433,21.052,28.433,2.274,1.771,3.895,1.591,3.8-2.943,3.8-2.943l19.15-26.318L234.09,306.3l-11.3-.236Z" transform="translate(-136.632 -211.377)" fill="#fff"/>
        <path id="パス_1518" data-name="パス 1518" d="M97.4,453.938V389.749c0-5.115,3.451-9.261,7.707-9.261h93.408c4.257,0,7.707,4.146,7.707,9.261v64.189H97.4Z" transform="translate(-63.267 -260.776)" fill="#e4f1fa"/>
        <path id="パス_1519" data-name="パス 1519" d="M454.828,16.928,453.054,9.38A4.374,4.374,0,0,0,449.2,6.027l-10.648-.992a4.373,4.373,0,0,0-3.312,1.085l-2.3,2.04a4.5,4.5,0,0,0-.814,5.771l1.18,1.864v0a4.5,4.5,0,0,0-.353,6.252l3.7,4.276-.731,5.033,1.3-3.962,1.61,4.771,9.815.81,1.3-.81V27.932l4.424-7.861A4.369,4.369,0,0,0,454.828,16.928Z" transform="translate(-293.962 -1.464)" fill="#ffeae3"/>
        <path id="パス_1520" data-name="パス 1520" d="M56.1,13.932a4.5,4.5,0,0,0-.814-5.771l-2.3-2.04a4.373,4.373,0,0,0-3.312-1.085L39.03,6.029a4.375,4.375,0,0,0-3.852,3.353L33.4,16.929a4.368,4.368,0,0,0,.446,3.143l4.424,8.3v4.235l1.452.677,8.581-1.116,2.351-5.821L52.3,31.36l-.731-5.033,3.7-4.276a4.5,4.5,0,0,0-.353-6.252v0Z" transform="translate(-18.99 -1.465)" fill="#ffeae3"/>
        <path id="パス_1521" data-name="パス 1521" d="M224.916,167.465h0v-2.583c0-11.638-12.146-22.748-25.033-22.748s-25.032,11.11-25.032,22.748V167.5a8.746,8.746,0,0,0,.4,17.447c2.206,10.181,13.121,19.04,24.627,19.04s22.414-8.852,24.625-19.029h.407a8.748,8.748,0,1,0,0-17.5Z" transform="translate(-111.272 -96.162)" fill="#ffeae3"/>
        <path id="パス_1522" data-name="パス 1522" d="M173.371,46.619,172.58,44.4a13.784,13.784,0,0,0-6.456-7.756l-1.846-.951,1.846-.951a13.786,13.786,0,0,0,6.456-7.756l.791-2.218.791,2.218a13.784,13.784,0,0,0,6.456,7.756l1.846.951-1.846.951a13.784,13.784,0,0,0-6.456,7.756Z" transform="translate(-109.455 -15.106)" fill="#ffb64b"/>
        <path id="パス_1523" data-name="パス 1523" d="M12.987,354.731l-.791-2.218a13.784,13.784,0,0,0-6.456-7.756l-1.846-.951,1.846-.951A13.785,13.785,0,0,0,12.2,335.1l.791-2.218.791,2.218a13.784,13.784,0,0,0,6.456,7.756l1.846.951-1.846.951a13.784,13.784,0,0,0-6.456,7.756Z" transform="translate(1.311 -227.898)" fill="#ffb64b"/>
        <path id="パス_1524" data-name="パス 1524" d="M485.2,306.368l-.791-2.218a13.783,13.783,0,0,0-6.456-7.756l-1.846-.951,1.846-.951a13.787,13.787,0,0,0,6.456-7.756l.791-2.218.791,2.218a13.783,13.783,0,0,0,6.456,7.756l1.846.951-1.846.951a13.785,13.785,0,0,0-6.456,7.756Z" transform="translate(-324.814 -194.497)" fill="#ffb64b"/>
        <path id="パス_1528" data-name="パス 1528" d="M174.274,190.329H163.356c-45.042,0,11.128,0,11.128,0H160.03V125.415a9.258,9.258,0,0,0-9.26-9.256h-4l-.595-2c.829-1.29,1.744-2.867,2.732-4.712,2.012-3.759,4.32-8.622,6.72-14.3,7.194-17.023,15.211-41.344,18.189-64.79l.193-1.527-.943-.127h0V24.875l4.225-7.507h0a5.925,5.925,0,0,0,.6-4.258l-1.775-7.548a5.926,5.926,0,0,0-5.219-4.543L160.258.025c-.184-.017-.368-.025-.55-.025a5.927,5.927,0,0,0-3.937,1.5l-2.3,2.04a6.049,6.049,0,0,0-1.094,7.761l.568.9a6,6,0,0,0-.583,1.041,6.054,6.054,0,0,0,.979,6.367l3.238,3.74-.446,3.073-2.017-.273-.157,1.6a149.669,149.669,0,0,1-4.349,22.992,176.069,176.069,0,0,1-11.233,31.04,10.23,10.23,0,0,0-6.242-12.927v-.426c3.418-.456,6.76-3.89,6.535-5.479-.259-1.824-5.823-2.634-8.044-7.167h-.006c-.2-.578-.414-1.149-.651-1.709a27.633,27.633,0,0,0-17.136-15.535,27.248,27.248,0,0,0-8.143-1.24h-1.254a27.225,27.225,0,0,0-10.664,2.166A27.7,27.7,0,0,0,80.7,49.41a27.238,27.238,0,0,0-4.705,15.317v4.123a10.228,10.228,0,0,0,2.279,19.793,22.069,22.069,0,0,0,1.536,3.995,27.714,27.714,0,0,0,9.878,10.741,26.949,26.949,0,0,0,14.381,4.362,25.941,25.941,0,0,0,9.916-2.031,29.175,29.175,0,0,0,9.721-6.621,1.531,1.531,0,0,0,1.477,2.007h0a6.667,6.667,0,0,0,2.734-.627,14.915,14.915,0,0,0,4.718-3.725,57.758,57.758,0,0,0,7.926-12.36,168.942,168.942,0,0,0,10.493-27.251,166.02,166.02,0,0,0,5.835-27.484l13.646,1.846c-2.322,17.068-7.311,34.646-12.62,49.309-2.733,7.55-5.548,14.329-8.116,19.867-1.284,2.769-2.506,5.226-3.622,7.312s-2.127,3.8-2.976,5.063l-.407.606.745,2.51H119.463l8.847-11.949a1.553,1.553,0,0,0-2.5-1.847L115.6,116.16h-6.488v-4.506H99.02v4.506H92.531l-10.215-13.8a1.553,1.553,0,0,0-2.5,1.847l8.847,11.949H63.876l.536-2.574-.364-.542c-.853-1.271-1.881-2.989-3.023-5.076A236.431,236.431,0,0,1,46.752,74.983a226.969,226.969,0,0,1-10.96-43.49L49.44,29.647a156.738,156.738,0,0,0,4.266,21.881A174.221,174.221,0,0,0,66.136,85.109,57.66,57.66,0,0,0,73.387,96.4a18.177,18.177,0,0,0,3.728,3.361,9.15,9.15,0,0,0,1.961.973,6.338,6.338,0,0,0,2.068.363,1.552,1.552,0,1,0,0-3.1h0a3.582,3.582,0,0,1-1.461-.355A11.988,11.988,0,0,1,76,94.662,54.918,54.918,0,0,1,68.54,82.985,165.909,165.909,0,0,1,58.252,56.252,159.182,159.182,0,0,1,52.36,27.744l-.157-1.6-2.017.273-.446-3.072,3.238-3.74a6.028,6.028,0,0,0,.4-7.407l.568-.9a6.05,6.05,0,0,0-1.094-7.761l-2.3-2.04A5.929,5.929,0,0,0,46.615,0q-.274,0-.552.026l-10.646.992A5.926,5.926,0,0,0,30.2,5.561l-1.775,7.547a5.916,5.916,0,0,0,.6,4.26l4.224,7.506V28.7h0l-.943.128.194,1.527c2.27,17.877,7.7,36.251,13.457,51.519,2.879,7.633,5.841,14.488,8.536,20.114,1.348,2.813,2.63,5.32,3.8,7.466,1.025,1.873,1.966,3.47,2.806,4.766l-.4,1.936H57.362a9.258,9.258,0,0,0-9.26,9.256v64.913H35.414a1.552,1.552,0,1,0,0,3.1h138.86a1.552,1.552,0,1,0,0-3.1Zm-57.423-89.448a23.99,23.99,0,0,1-12.786,3.9,22.976,22.976,0,0,1-8.78-1.8A26.061,26.061,0,0,1,84.73,94.919a21.439,21.439,0,0,1-3.1-5.508,16.788,16.788,0,0,1-1.111-5.9,1.482,1.482,0,0,0-2.964,0,18.551,18.551,0,0,0,.118,2.012,7.262,7.262,0,0,1-1.677-13.44v5.089h.273a4.488,4.488,0,0,0,4.489-4.487l7.863-7.778a1.79,1.79,0,0,1,3.038,1.473,2.82,2.82,0,0,0,3.6,3.022,23.661,23.661,0,0,0,9.9-5.666,20.539,20.539,0,0,0,4.733-6.756,1.785,1.785,0,0,1,3.189-.184,38.056,38.056,0,0,0,14.307,13.814v2.076a4.488,4.488,0,0,0,4.489,4.487h.273V72.082a7.325,7.325,0,0,1,1.694,1.261,7.255,7.255,0,0,1-3.368,12.178,18.533,18.533,0,0,0,.114-2.011,1.482,1.482,0,0,0-2.964,0h0a17.463,17.463,0,0,1-1.943,7.8A24.763,24.763,0,0,1,116.851,100.881ZM130.6,94.356a15.2,15.2,0,0,1-3.07,2.793,6.079,6.079,0,0,1-1.293.648,3.242,3.242,0,0,1-1.055.193,1.546,1.546,0,0,0-.562.109q.59-.671,1.133-1.374a24.378,24.378,0,0,0,3.53-6.274q.336-.893.587-1.81a10.209,10.209,0,0,0,7.234-4.33A53.211,53.211,0,0,1,130.6,94.356Zm25.1-76.786a2.944,2.944,0,0,1,.243-4.109l2.782-2.533,5.928.911a1.388,1.388,0,0,1,1.177,1.368,1.468,1.468,0,0,1-.012.182,1.388,1.388,0,0,1-1.374,1.21,1.443,1.443,0,0,1-.149-.008l-2.691-.283a1.552,1.552,0,1,0-.325,3.087l1.1.116a6.819,6.819,0,0,1,.744.743,5.224,5.224,0,0,1,.8,1.227,3.518,3.518,0,0,1,.328,1.461,3.584,3.584,0,0,1-.176,1.094,1.282,1.282,0,0,0,2.443.776h0a6.011,6.011,0,0,0-.307-4.49,7.411,7.411,0,0,0-.455-.817,4.482,4.482,0,0,0,3.144-3.722v-.006a4.6,4.6,0,0,0,.036-.57A4.494,4.494,0,0,0,165.12,8.77l-7.4-1.137-2.53,2.3-.19-.3a2.946,2.946,0,0,1,.533-3.781l2.3-2.04a2.821,2.821,0,0,1,1.874-.712c.088,0,.174,0,.261.012l10.649.992A2.82,2.82,0,0,1,173.1,6.271l1.775,7.548a2.821,2.821,0,0,1-.288,2.028h0l-4.624,8.216v4.223l-10.75-1.454.645-4.448Zm10.119-4.177h0l-.006.045ZM36.358,24.062l-4.624-8.216a2.815,2.815,0,0,1-.288-2.027l1.775-7.548a2.82,2.82,0,0,1,2.484-2.162l10.648-.992h0c.085-.008.172-.012.26-.012a2.822,2.822,0,0,1,1.874.712l2.3,2.04a2.948,2.948,0,0,1,.533,3.781l-.19.3-2.53-2.3L41.2,8.77a4.489,4.489,0,0,0-.626,8.735,7.228,7.228,0,0,0-.459.815,6.008,6.008,0,0,0-.307,4.491,1.282,1.282,0,0,0,2.443-.776h0a3.447,3.447,0,0,1,.182-2.62,5.867,5.867,0,0,1,1.333-1.747c.061-.056.119-.108.176-.157l1.1-.116a1.552,1.552,0,1,0-.325-3.087l-2.69.283a1.425,1.425,0,0,1-.151.008,1.389,1.389,0,0,1-1.374-1.211v-.007a1.281,1.281,0,0,1-.011-.173,1.389,1.389,0,0,1,1.178-1.369l5.928-.911,2.782,2.533a2.948,2.948,0,0,1,.244,4.11l-4.167,4.813.646,4.447-10.75,1.454Zm16.651,97a6.131,6.131,0,0,1,4.352-1.8h93.408a6.153,6.153,0,0,1,6.154,6.152v56.713H51.207V125.415A6.123,6.123,0,0,1,53.009,121.066Zm-1.8,64.168H156.924v5.1H51.207Z" transform="translate(-19.521)" fill="#3e485c"/>
        <path id="パス_1529" data-name="パス 1529" d="M57.884,44.557v0Z" transform="translate(-39.976 -30.768)" fill="#231815"/>
        <path id="パス_1530" data-name="パス 1530" d="M85.794.083Z" transform="translate(-59.252 -0.057)" fill="#231815"/>
        <path id="パス_1531" data-name="パス 1531" d="M161.036,34.075l1.846.951a12.587,12.587,0,0,1,5.873,7.09l.791,2.218a1.2,1.2,0,0,0,2.269,0l.791-2.218a12.586,12.586,0,0,1,5.873-7.09l1.846-.951a1.2,1.2,0,0,0,0-2.141l-1.846-.951a12.587,12.587,0,0,1-5.873-7.09l-.791-2.218a1.2,1.2,0,0,0-2.269,0l-.791,2.218a12.587,12.587,0,0,1-5.873,7.09l-1.846.951a1.2,1.2,0,0,0,0,2.141Zm9.645-8.495A14.823,14.823,0,0,0,177.159,33a14.823,14.823,0,0,0-6.478,7.425A14.822,14.822,0,0,0,164.2,33,14.825,14.825,0,0,0,170.681,25.58Z" transform="translate(-110.765 -14.417)" fill="#3e485c"/>
        <path id="パス_1532" data-name="パス 1532" d="M18.1,343.139l1.846-.951a1.2,1.2,0,0,0,0-2.141L18.1,339.1a12.587,12.587,0,0,1-5.873-7.09l-.791-2.218a1.2,1.2,0,0,0-2.269,0l-.791,2.218A12.588,12.588,0,0,1,2.5,339.1l-1.846.951a1.2,1.2,0,0,0,0,2.141l1.846.951a12.588,12.588,0,0,1,5.873,7.09l.791,2.218a1.2,1.2,0,0,0,2.269,0l.791-2.218A12.588,12.588,0,0,1,18.1,343.139Zm-7.8,5.4a14.825,14.825,0,0,0-6.478-7.425,14.824,14.824,0,0,0,6.478-7.425,14.825,14.825,0,0,0,6.478,7.425A14.824,14.824,0,0,0,10.3,348.543Z" transform="translate(0 -227.21)" fill="#3e485c"/>
        <path id="パス_1533" data-name="パス 1533" d="M490.309,290.733a12.587,12.587,0,0,1-5.873-7.09l-.791-2.218a1.2,1.2,0,0,0-2.269,0l-.791,2.218a12.587,12.587,0,0,1-5.873,7.09l-1.846.95a1.2,1.2,0,0,0,0,2.141l1.846.951a12.588,12.588,0,0,1,5.873,7.09l.791,2.218a1.2,1.2,0,0,0,2.269,0l.791-2.218a12.586,12.586,0,0,1,5.873-7.09l1.846-.951a1.2,1.2,0,0,0,0-2.141Zm-7.8,9.445a14.825,14.825,0,0,0-6.478-7.425,14.827,14.827,0,0,0,6.478-7.425,14.826,14.826,0,0,0,6.478,7.425A14.822,14.822,0,0,0,482.51,300.179Z" transform="translate(-326.124 -193.808)" fill="#3e485c"/>
        <path id="パス_1535" data-name="パス 1535" d="M266.536,270.685h3.1a.709.709,0,1,0,0-1.418h-2.073a1.3,1.3,0,0,1-1.156-.707l-.186-.363a.335.335,0,0,0-.634.153v1.387A.948.948,0,0,0,266.536,270.685Z" transform="translate(-183.423 -185.099)" fill="#3e485c"/>
        <path id="パス_1536" data-name="パス 1536" d="M238.624,239.7a1,1,0,0,0-.52-.929l-4.845-2.625a1,1,0,1,0-.95,1.752h0l3,1.626-2.906,1.2a1,1,0,1,0,.76,1.842l4.845-2A1,1,0,0,0,238.624,239.7Z" transform="translate(-160.079 -163.003)" fill="#3e485c"/>
        <path id="パス_1537" data-name="パス 1537" d="M298.885,240.717h0l-2.907-1.2,3-1.626a1,1,0,1,0-.95-1.752l-4.845,2.625a1,1,0,0,0,.1,1.8l4.845,2a1,1,0,1,0,.76-1.842Z" transform="translate(-202.122 -163.003)" fill="#3e485c"/>
        <path id="パス_1538" data-name="パス 1538" d="M264.08,291.481a14.739,14.739,0,0,1-10.176,0,.891.891,0,0,0-1.239,1.131,6.312,6.312,0,0,0,6.327,4.333,6.824,6.824,0,0,0,6.327-4.333A.891.891,0,0,0,264.08,291.481Z" transform="translate(-174.448 -201.234)" fill="#3e485c"/>
      </g>
      <g id="j185_15_1" transform="translate(414 2948)">
        <path id="パス_1707" data-name="パス 1707" d="M81.205,409.084,86.186,478.6s10.359,1.123,11.9,11.071v1.67a2.036,2.036,0,0,1-2.038,2.035H71.328a2.037,2.037,0,0,1-2.028-1.835L51.945,409.031H51.18L35.122,478.6l-1.3,12.941a2.037,2.037,0,0,1-2.028,1.835H7.077a2.036,2.036,0,0,1-2.038-2.035v-1.67c1.541-9.949,11.9-11.071,11.9-11.071l4.474-69.512,29.713-16.966Z" transform="translate(-3.201 -249.128)" fill="#ffeae3"/>
        <path id="パス_1708" data-name="パス 1708" d="M84.687,384l11.051,35.158H8l15.3-43.12L51.076,340.11Z" transform="translate(-5.081 -216.085)" fill="#20ab9a"/>
        <path id="パス_1709" data-name="パス 1709" d="M108.806,227.038v51.121l-5.728,2.486L98.2,282.163a16.4,16.4,0,0,1-14.721-2.551l-3.153-2.371a5.338,5.338,0,0,0-6.414,0l-3.153,2.371a16.4,16.4,0,0,1-14.721,2.551l-4.883-1.518-4.9-2.118V200.962c0-.87,11.555-11,30.677-11S107,197.079,107,197.079l1.809,6.937v23.022Z" transform="translate(-29.385 -120.689)" fill="#ffe7ab"/>
        <path id="パス_1710" data-name="パス 1710" d="M75.326,186.906s-.517,1.968-.729,2.655S92.52,213.738,92.52,213.738s1.936,1.506,3.316,1.353,3.232-2.5,3.232-2.5l19.078-25.682-8.733-3.972-1.138-.659a24.449,24.449,0,0,0-24.778.168Z" transform="translate(-47.393 -113.717)" fill="#fff"/>
        <path id="パス_1711" data-name="パス 1711" d="M102.91,74.422h0V66.536c0-10.5-10.97-20.52-22.609-20.52S57.692,56.038,57.692,66.536v7.921A7.889,7.889,0,0,0,58.058,90.2C60.051,99.38,69.909,107.37,80.3,107.37s20.244-7.985,22.241-17.166h.368a7.891,7.891,0,1,0,0-15.782Z" transform="translate(-32.096 -29.236)" fill="#ffeae3"/>
        <path id="パス_1712" data-name="パス 1712" d="M56.1,281.863c-25.692-11.89-40.2-31.058-40.2-45.8,0-23.352,13.465-32.709,22.134-35.364l5.956,37.71Z" transform="translate(-10.103 -127.515)" fill="#ffe7ab"/>
        <path id="パス_1713" data-name="パス 1713" d="M139.04,288.567,125.348,304.6l-6.779-19.954L159.7,70.56l20.472,3.919Z" transform="translate(-75.332 -44.83)" fill="#ffe7ab"/>
        <path id="パス_1714" data-name="パス 1714" d="M139.04,288.567l-3.03-2.655-3.294,1.444-3.063-3.623-4.761,2.125-3.007-2.282-3.317,1.071L159.7,70.56l20.472,3.919Z" transform="translate(-75.332 -44.83)" fill="#df7c8f"/>
        <path id="パス_1715" data-name="パス 1715" d="M226.182,239.748l1.356.26.069-.518-1.326-.254a3.181,3.181,0,1,1,1.2-6.247l.959.184.13-.986-.391-.075c-1.721-.329-4.538-2.326-4.208-4.044s3.687-2.533,5.408-2.2l.024,0,.131-.988a3.18,3.18,0,0,1,1.233-6.239l12.027,2.3a6.105,6.105,0,0,1,2.339,6.277l-2.179,11.344c-1.007,4.836-1.962,8.12-3.508,10.241a2.619,2.619,0,0,1-1.537.2L224.982,246a3.181,3.181,0,1,1,1.2-6.248Z" transform="translate(-141.297 -138.876)" fill="#ffeae3"/>
        <path id="パス_1716" data-name="パス 1716" d="M164.7,367.152l-1.356-.26-.068.518,1.326.254a3.181,3.181,0,1,1-1.2,6.248l-.959-.184-.13.986.391.075c1.721.329,4.538,2.326,4.208,4.044s-3.687,2.533-5.408,2.2l-.024,0-.13.988a3.18,3.18,0,0,1-1.233,6.239l-12.027-2.3a6.106,6.106,0,0,1-2.339-6.277l2.18-11.344c1.007-4.836,1.962-8.12,3.508-10.241a2.613,2.613,0,0,1,1.537-.2L165.9,360.9a3.181,3.181,0,1,1-1.2,6.247Z" transform="translate(-92.515 -227.36)" fill="#ffeae3"/>
        <path id="パス_1717" data-name="パス 1717" d="M128.82,321.134a1.836,1.836,0,1,0-1.839-1.835A1.837,1.837,0,0,0,128.82,321.134Z" transform="translate(-80.676 -201.697)" fill="#3e485c"/>
        <ellipse id="楕円形_75" data-name="楕円形 75" cx="1.839" cy="1.835" rx="1.839" ry="1.835" transform="translate(46.305 129.046)" fill="#3e485c"/>
        <path id="パス_1718" data-name="パス 1718" d="M95.959,215.1h-3.7v11.409L78.244,207.006a1.285,1.285,0,0,0-2.09,1.5l16.408,22.839,0,.006a4.219,4.219,0,0,0,6.784,0l18.412-24.838a1.285,1.285,0,0,0-2.068-1.528h0L99.658,226.617V215.105h-3.7Z" transform="translate(-48.23 -129.904)" fill="#3e485c"/>
        <path id="パス_1719" data-name="パス 1719" d="M64.552,310.708A35.563,35.563,0,0,0,75.1,321.421a72.2,72.2,0,0,0,15.371,7.441,1.4,1.4,0,1,0,.974-2.626,85.306,85.306,0,0,1-10.459-4.563,37.79,37.79,0,0,1-11.3-8.709,36.475,36.475,0,0,1-6.98-13.107,1.4,1.4,0,0,0-2.675.842h0A42.784,42.784,0,0,0,64.552,310.708Z" transform="translate(-38.097 -189.888)" fill="#3e485c"/>
        <path id="パス_1720" data-name="パス 1720" d="M223.541,243.974v0h0Z" transform="translate(-142.024 -155.004)" fill="#231815"/>
        <path id="パス_1721" data-name="パス 1721" d="M238.689,233.724h0Z" transform="translate(-151.649 -148.494)" fill="#231815"/>
        <path id="パス_1722" data-name="パス 1722" d="M219.883,263.017h0Z" transform="translate(-139.7 -167.105)" fill="#231815"/>
        <path id="パス_1723" data-name="パス 1723" d="M94.311,77.014a1.4,1.4,0,0,0,2.755.527l9.414-49L83.255,24.092l-4.784,24.9c-.078-.14-.156-.28-.241-.415a9.27,9.27,0,0,0-3.646-3.337,1.331,1.331,0,0,0-.961-.094v-4.09a24.55,24.55,0,0,0-4.25-13.817A25.013,25.013,0,0,0,58.986,18.5a12.438,12.438,0,1,0-21.659.044,25.015,25.015,0,0,0-10.289,8.7,24.55,24.55,0,0,0-4.25,13.817v4.131a1.331,1.331,0,0,0-1.083.054,9.225,9.225,0,0,0,3.142,17.39,19.873,19.873,0,0,0,1.388,3.6,25.01,25.01,0,0,0,8.922,9.689A24.359,24.359,0,0,0,48.144,79.86,23.46,23.46,0,0,0,57.1,78.028a26.2,26.2,0,0,0,10.629-8.1,21.991,21.991,0,0,0,3.188-5.66q.3-.806.53-1.633a9.225,9.225,0,0,0,4.792-2.022L73.881,72.882a1.407,1.407,0,0,0-.277-.156c-.419-.172-1.476-.6-2.631-.988-.579-.2-1.181-.383-1.755-.528-.288-.072-.569-.134-.844-.179a5.125,5.125,0,0,0-.829-.077,1.4,1.4,0,1,0,0,2.8h0a2.455,2.455,0,0,1,.369.039,10.563,10.563,0,0,1,1.17.283c1.347.392,2.953,1.033,3.45,1.238a1.4,1.4,0,0,0,.868.062L63,129.53l-.261-.05a6.637,6.637,0,0,0-5.46,1.381,6.611,6.611,0,0,0-2.317,3.884l-3.487,18.15a6.462,6.462,0,0,0-.032,2.306,6.729,6.729,0,0,0-3.712-1.119c-.119,0-.238.008-.357.014a1.4,1.4,0,0,0-.787-1.017c-12.677-5.866-22.564-13.519-29.249-21.461A49.183,49.183,0,0,1,9.754,119.7,28.227,28.227,0,0,1,7.2,108.553,45.919,45.919,0,0,1,9.37,93.99a31.083,31.083,0,0,1,8.688-13.561,27.854,27.854,0,0,1,10.286-5.9,1.4,1.4,0,1,0-.822-2.677h0a29.827,29.827,0,0,0-7.47,3.528A32.253,32.253,0,0,0,9.284,87.135C6.34,92.559,4.4,99.6,4.4,108.553a31,31,0,0,0,2.783,12.258,52.263,52.263,0,0,0,8.284,12.931v23.21a1.4,1.4,0,0,0,2.805,0V136.825q1.323,1.371,2.76,2.718a92.354,92.354,0,0,0,23.2,15.52c-.189.115-.375.237-.555.372l-3.152,2.371a15,15,0,0,1-13.461,2.333l-4.883-1.518a1.4,1.4,0,1,0-.834,2.674l4.883,1.518a17.8,17.8,0,0,0,15.982-2.77l3.153-2.371a3.934,3.934,0,0,1,4.727,0l3.153,2.371a1.4,1.4,0,0,0,1.7-.013,6.631,6.631,0,0,0,1.805.629l.262.05-7.874,40.985a1.39,1.39,0,0,0-.156-.016H4.9l14.634-41.253a1.4,1.4,0,0,0-2.644-.935h0L.931,204.476H13.662l-1.681,23.806c-.2.045-.43.1-.676.162a17.089,17.089,0,0,0-6.341,3.132,13.5,13.5,0,0,0-3.09,3.524,14.22,14.22,0,0,0-1.856,5.225L0,240.433v1.777a3.438,3.438,0,0,0,3.441,3.435h24.72a3.438,3.438,0,0,0,3.424-3.1h0l1.291-12.882,4.756-25.191H48.6l-6.809,35.44,7.691,22.639,15.535-18.191a3.406,3.406,0,0,0,.366.391,3.44,3.44,0,0,0,2.31.889h24.72a3.438,3.438,0,0,0,3.441-3.435v-1.778l-.016-.106a13.866,13.866,0,0,0-2.794-6.58,14.1,14.1,0,0,0-3.3-3.008,17.458,17.458,0,0,0-4.775-2.177c-.409-.117-.777-.208-1.092-.278l-1.557-23.807H92.568L80.945,167.5a1.4,1.4,0,0,0-.982-.931l10.645-55.406a1.381,1.381,0,0,0-.052-.7l3.78.724A6.639,6.639,0,0,0,99.8,109.8a6.611,6.611,0,0,0,2.317-3.883L105.6,87.769a6.634,6.634,0,0,0-5.274-7.763l-2.1-.4-7.714-1.477a1.149,1.149,0,0,0,.183-.434L99.96,30.14l3.238.62Zm-22.323-17.2a16.7,16.7,0,0,0,.1-1.814,1.339,1.339,0,0,0-2.677,0h0A15.744,15.744,0,0,1,67.66,65.04a22.354,22.354,0,0,1-7.968,8.632,21.688,21.688,0,0,1-11.548,3.515,20.78,20.78,0,0,1-7.93-1.628,23.538,23.538,0,0,1-9.533-7.264,19.329,19.329,0,0,1-2.8-4.969,15.13,15.13,0,0,1-1-5.323A1.339,1.339,0,0,0,24.2,58a16.723,16.723,0,0,0,.106,1.815A6.544,6.544,0,0,1,22.788,47.7v1.784a1.211,1.211,0,0,0,2.072.851c1.193-1.212,3.677-2.923,5.253-5.346,3.242-3.088,8.907-15.373,9.373-20.017C40.288,32.14,43.355,33.4,55.164,40c1.349.775,3.1,1.715,4.408,2.493,2.8,1.6,5.978,3.476,9.6,5.71.929.84,1.805,1.541,2.38,2.125a1.211,1.211,0,0,0,2.072-.851V47.765A6.6,6.6,0,0,1,75.959,50a6.543,6.543,0,0,1-3.971,9.82ZM30.318,228.1H14.806l1.668-23.62h18.3ZM54.68,156.855a4.256,4.256,0,0,1-.893-3.518l3.487-18.151a4.287,4.287,0,0,1,4.2-3.475,4.335,4.335,0,0,1,.814.078l10.458,2a3.7,3.7,0,0,1,1.787,1,2.7,2.7,0,0,1,.539.791,2.275,2.275,0,0,1,.192.922,2.982,2.982,0,0,1-.26,1.174,5.714,5.714,0,0,1-.974,1.492,1.155,1.155,0,0,0-.172.273,4.691,4.691,0,0,0-.719-.2l-5.173-.99a1.176,1.176,0,1,0-.444,2.311l5.173.99a2.352,2.352,0,0,1,1.049,4.137,2.376,2.376,0,0,1-1.5.537,2.343,2.343,0,0,1-.442-.042l-5.173-.99a1.176,1.176,0,1,0-.444,2.31h0l5.173.99a2.352,2.352,0,0,1,1.05,4.137,2.355,2.355,0,0,1-1.941.495h0l-5.173-.99a1.176,1.176,0,1,0-.444,2.31l5.173.99h0a4.769,4.769,0,0,0,.741.077,1.16,1.16,0,0,0,.059.319,5.6,5.6,0,0,1,.353,1.835,2.841,2.841,0,0,1-.253,1.231,2.4,2.4,0,0,1-1.078,1.1,3.562,3.562,0,0,1-1.655.393,3.747,3.747,0,0,1-.555-.041l-8.353-1.6-2.1-.4A4.261,4.261,0,0,1,54.68,156.855ZM75.813,140.71c.111-.128.211-.256.312-.383l-.132.678c-.03-.039-.058-.08-.089-.119s-.084-.095-.126-.142c.012-.012.025-.021.036-.034ZM48.373,250.575l-3.539-10.417a3.324,3.324,0,0,1,1.318-.278,2.743,2.743,0,0,1,1.243.281,2.055,2.055,0,0,1,.858.8,1.9,1.9,0,0,0,.169.24,1.15,1.15,0,0,0,2.008.582,1.978,1.978,0,0,0,.267-.106h0a2.3,2.3,0,0,0,.5-.348,7.676,7.676,0,0,0,.549-.569,3.3,3.3,0,0,1,.684-.614,1.5,1.5,0,0,1,.369-.166,1.738,1.738,0,0,1,.494-.066,2.781,2.781,0,0,1,.523.054,2.132,2.132,0,0,1,.928.379,1.537,1.537,0,0,1,.352.383,4.054,4.054,0,0,1,.382.826c.061.162.124.335.209.525a2.439,2.439,0,0,0,.4.63,1.935,1.935,0,0,0,.21.2,1.15,1.15,0,0,0,2.079.2,1.825,1.825,0,0,0,.247-.163h0a2.085,2.085,0,0,1,1.312-.439,3,3,0,0,1,1.567.476,3.335,3.335,0,0,1,.592.479l-7.146,8.369Zm8.479-11.367a3.8,3.8,0,0,0-1.328-1.089,4.833,4.833,0,0,0-1.269-.419,5.1,5.1,0,0,0-.959-.1,3.942,3.942,0,0,0-1.665.354c-.12.055-.23.116-.337.179l13.7-71.3a1.157,1.157,0,0,0-2.274-.435L48.894,238.366a4.512,4.512,0,0,0-.447-.263,5.056,5.056,0,0,0-2.3-.533,5.688,5.688,0,0,0-1.075.108l14.686-76.442,7.491,1.434.025,0a6.131,6.131,0,0,0,2.793-.223,5.217,5.217,0,0,0,1.965-1.144Zm16.326-83.765c-.04-.129-.075-.257-.121-.389-.006-.016-.015-.029-.021-.045.085-.043.171-.087.253-.135Zm1.465-7.517,0-.005.005,0Zm6.41,80.167H68.142l4.548-23.674a1.393,1.393,0,0,0,.378.058h6.441Zm7.694-26.416H73.218l5.891-30.663Zm-.895-91.041h0L62.793,241.067c-.02-.013-.038-.027-.058-.039a5.309,5.309,0,0,0-2.8-.829,4.5,4.5,0,0,0-.939.1L84.529,109.308l3.631.7A1.388,1.388,0,0,0,87.853,110.635ZM99.882,82.317a4.273,4.273,0,0,1,3.4,5.01L99.8,105.478a4.288,4.288,0,0,1-4.205,3.474,4.321,4.321,0,0,1-.814-.077l-10.456-2a3.7,3.7,0,0,1-1.789-1,2.7,2.7,0,0,1-.539-.791,2.275,2.275,0,0,1-.192-.922,2.981,2.981,0,0,1,.26-1.173,5.723,5.723,0,0,1,.974-1.492,1.161,1.161,0,0,0,.172-.273,4.732,4.732,0,0,0,.719.2l5.173.99a1.176,1.176,0,1,0,.444-2.31l-5.173-.991A2.373,2.373,0,0,1,82.455,96.8a2.314,2.314,0,0,1,.042-.441h0a2.336,2.336,0,0,1,.825-1.377,2.376,2.376,0,0,1,1.5-.537,2.325,2.325,0,0,1,.442.042l5.173.99a1.176,1.176,0,1,0,.444-2.31h0l-5.173-.99a2.373,2.373,0,0,1-1.917-2.319,2.292,2.292,0,0,1,.042-.439v0a2.338,2.338,0,0,1,.826-1.377,2.376,2.376,0,0,1,1.5-.537,2.331,2.331,0,0,1,.441.042h0l5.173.99a1.176,1.176,0,1,0,.444-2.31l-5.172-.99a4.69,4.69,0,0,0-.744-.078,1.16,1.16,0,0,0-.059-.318A5.593,5.593,0,0,1,85.886,83a2.841,2.841,0,0,1,.253-1.231,2.406,2.406,0,0,1,1.078-1.1,3.562,3.562,0,0,1,1.655-.393,3.73,3.73,0,0,1,.553.041l8.355,1.6ZM88.418,77.252a1.146,1.146,0,0,0,.077.683,6.032,6.032,0,0,0-1.5.278,5.08,5.08,0,0,0-2.434,1.649A4.952,4.952,0,0,0,83.528,83a7.907,7.907,0,0,0,.486,2.613c.005.016.015.028.02.044a4.777,4.777,0,0,0-.868.558,4.692,4.692,0,0,0-1.65,2.755,4.636,4.636,0,0,0-.085.886,4.71,4.71,0,0,0,1,2.889,4.749,4.749,0,0,0-.6.413,4.692,4.692,0,0,0-.666,6.623c.04.049.085.1.127.143-.011.012-.025.021-.036.034h0a8.051,8.051,0,0,0-1.365,2.115,5.331,5.331,0,0,0-.449,2.094,4.632,4.632,0,0,0,.389,1.863,5.243,5.243,0,0,0,1.658,2.063,6.054,6.054,0,0,0,.816.511l-5.074,26.032a5.247,5.247,0,0,0-1.656-2.059,6.118,6.118,0,0,0-2.311-1.078l-.019,0-7.5-1.435L85.481,27.369l3.809.729L84.126,54.982a1.157,1.157,0,0,0,2.274.435l5.165-26.883,6.122,1.172Z" transform="translate(0 0)" fill="#3e485c"/>
        <path id="パス_1724" data-name="パス 1724" d="M206.052,165.485a1.157,1.157,0,0,0-1.355.917l-13,67.654a1.157,1.157,0,0,0,2.274.435l13-67.654A1.156,1.156,0,0,0,206.052,165.485Z" transform="translate(-121.781 -105.126)" fill="#3e485c"/>
        <ellipse id="楕円形_76" data-name="楕円形 76" cx="2.493" cy="2.489" rx="2.493" ry="2.489" transform="translate(36.993 48.489)" fill="#3e485c"/>
        <path id="パス_1726" data-name="パス 1726" d="M151.421,132.969a2.489,2.489,0,1,0,2.493,2.489A2.5,2.5,0,0,0,151.421,132.969Z" transform="translate(-94.62 -84.48)" fill="#3e485c"/>
        <path id="パス_1727" data-name="パス 1727" d="M126.987,160h2.8a.639.639,0,1,0,0-1.279h-1.872a1.174,1.174,0,0,1-1.044-.637l-.168-.327a.3.3,0,0,0-.572.138v1.251A.856.856,0,0,0,126.987,160Z" transform="translate(-80.135 -100.123)" fill="#3e485c"/>
        <path id="パス_1728" data-name="パス 1728" d="M126.542,175.1a.95.95,0,0,0-1.216-.11.987.987,0,0,0-.486.915,7.929,7.929,0,0,1-6.764,0,.983.983,0,0,0-.486-.915.948.948,0,0,0-1.216.11l-.856,1.067c-.281.334-.07.97.513,1.331a1.1,1.1,0,0,0,1.27.041,9.746,9.746,0,0,0,8.313,0,1.1,1.1,0,0,0,1.271-.041c.583-.361.795-1,.513-1.331Z" transform="translate(-73.314 -111.073)" fill="#3e485c"/>
      </g>
    </g>
  </g>
</svg>
