<svg id="welcome_main-decoration-blue-square" xmlns="http://www.w3.org/2000/svg" xmlns:xlink="http://www.w3.org/1999/xlink" width="172" height="172" viewBox="0 0 172 172">
  <defs>
    <clipPath id="clip-path">
      <rect id="長方形_189" data-name="長方形 189" width="172" height="172" fill="#4287c6"/>
    </clipPath>
  </defs>
  <g id="グループ_191" data-name="グループ 191" clip-path="url(#clip-path)">
    <path id="パス_577" data-name="パス 577" d="M106.713,0a3.182,3.182,0,0,1,3.029,2.842,2.94,2.94,0,0,1-2.787,3.166,3.212,3.212,0,0,1-3.225-2.841A3.44,3.44,0,0,1,106.713,0" transform="translate(-13.317 0)" fill="#4287c6"/>
    <path id="パス_578" data-name="パス 578" d="M17.022,176.513a2.9,2.9,0,0,1,3.263-2.7,2.974,2.974,0,0,1,2.727,3.1,3.121,3.121,0,0,1-3.125,2.78,3.062,3.062,0,0,1-2.866-3.181" transform="translate(-2.185 -22.695)" fill="#4287c6"/>
    <path id="パス_579" data-name="パス 579" d="M54.666,6.011a3.17,3.17,0,0,1-2.984-3.057A3.371,3.371,0,0,1,54.675,0a3.12,3.12,0,0,1,2.979,3.057,2.883,2.883,0,0,1-2.988,2.953" transform="translate(-6.635 0)" fill="#4287c6"/>
    <path id="パス_580" data-name="パス 580" d="M158.9,173.814a2.8,2.8,0,0,1,2.937,2.835,3.055,3.055,0,0,1-3,3.056,3.19,3.19,0,0,1-3-2.927,3.023,3.023,0,0,1,3.067-2.964" transform="translate(-20.007 -22.696)" fill="#4287c6"/>
    <path id="パス_581" data-name="パス 581" d="M20.1,69.6a3.011,3.011,0,0,1,2.925,2.933A3.155,3.155,0,0,1,19.9,75.528a3.117,3.117,0,0,1-2.88-3.006A2.927,2.927,0,0,1,20.1,69.6" transform="translate(-2.185 -9.089)" fill="#4287c6"/>
    <path id="パス_582" data-name="パス 582" d="M161.839,3.133a2.946,2.946,0,0,1-3.09,2.878,3.182,3.182,0,0,1-2.915-2.952A3.326,3.326,0,0,1,158.907,0a3.2,3.2,0,0,1,2.931,3.131" transform="translate(-20.008 0)" fill="#4287c6"/>
    <path id="パス_583" data-name="パス 583" d="M54.719,58.116a3.194,3.194,0,0,1-3.041-3.02A3.263,3.263,0,0,1,54.8,52.114,3.115,3.115,0,0,1,57.654,55.1a2.9,2.9,0,0,1-2.935,3.019" transform="translate(-6.635 -6.805)" fill="#4287c6"/>
    <path id="パス_584" data-name="パス 584" d="M20.063,196.947a2.837,2.837,0,0,1-3.041-2.913,3.089,3.089,0,0,1,2.916-2.967,3.14,3.14,0,0,1,3.081,3.018,2.9,2.9,0,0,1-2.957,2.862" transform="translate(-2.185 -24.948)" fill="#4287c6"/>
    <path id="パス_585" data-name="パス 585" d="M158.827,144.87a3.02,3.02,0,0,1-2.991-2.853,3.18,3.18,0,0,1,3.07-3.04,3.058,3.058,0,0,1,2.933,2.951,2.816,2.816,0,0,1-3.011,2.943" transform="translate(-20.008 -18.147)" fill="#4287c6"/>
    <path id="パス_586" data-name="パス 586" d="M54.691,104.208a3.079,3.079,0,0,1,2.963,2.916,2.928,2.928,0,0,1-2.916,3.094,3.221,3.221,0,0,1-3.054-2.872,3.269,3.269,0,0,1,3.008-3.139" transform="translate(-6.635 -13.607)" fill="#4287c6"/>
    <path id="パス_587" data-name="パス 587" d="M23.012,3.284A3.119,3.119,0,0,1,19.723,6.01a3.05,3.05,0,0,1-2.7-3.279A3.273,3.273,0,0,1,20.185.008a3.286,3.286,0,0,1,2.828,3.276" transform="translate(-2.184 0)" fill="#4287c6"/>
    <path id="パス_588" data-name="パス 588" d="M127.167,3.144a3.064,3.064,0,0,1-3.184,2.866,2.943,2.943,0,0,1-2.771-3.05A3.169,3.169,0,0,1,124.167,0a3.252,3.252,0,0,1,3,3.142" transform="translate(-15.562 0)" fill="#4287c6"/>
    <path id="パス_589" data-name="パス 589" d="M179.264,3.066a3.088,3.088,0,0,1-2.942,2.946,2.9,2.9,0,0,1-3.016-2.971A3.154,3.154,0,0,1,176.176,0a3.29,3.29,0,0,1,3.088,3.062" transform="translate(-22.251 0)" fill="#4287c6"/>
    <path id="パス_590" data-name="パス 590" d="M23.02,20.462a3.118,3.118,0,0,1-2.967,2.96A3.078,3.078,0,0,1,17.022,20.4a2.909,2.909,0,0,1,3.092-2.9,3.054,3.054,0,0,1,2.907,2.962" transform="translate(-2.185 -2.285)" fill="#4287c6"/>
    <path id="パス_591" data-name="パス 591" d="M72.162,0A3.3,3.3,0,0,1,75.094,3.22a3.085,3.085,0,0,1-3.089,2.791,2.96,2.96,0,0,1-2.887-3.124A3.225,3.225,0,0,1,72.162,0" transform="translate(-8.873 0)" fill="#4287c6"/>
    <path id="パス_592" data-name="パス 592" d="M158.855,196.946a3.031,3.031,0,0,1-3.019-2.817,3.185,3.185,0,0,1,3.04-3.067,3.1,3.1,0,0,1,2.963,2.927,2.79,2.79,0,0,1-2.984,2.957" transform="translate(-20.008 -24.948)" fill="#4287c6"/>
    <path id="パス_593" data-name="パス 593" d="M158.829,69.6a2.876,2.876,0,0,1,3.01,2.967,3.106,3.106,0,0,1-2.929,2.96,3.178,3.178,0,0,1-3.074-3.046,3.08,3.08,0,0,1,2.993-2.882" transform="translate(-20.008 -9.089)" fill="#4287c6"/>
    <path id="パス_594" data-name="パス 594" d="M72.139,196.947a2.816,2.816,0,0,1-3.021-2.919,2.991,2.991,0,1,1,5.982.065,2.936,2.936,0,0,1-2.961,2.853" transform="translate(-8.874 -24.948)" fill="#4287c6"/>
    <path id="パス_595" data-name="パス 595" d="M72.118,173.814a2.941,2.941,0,0,1,2.981,2.845,3.118,3.118,0,0,1-3.045,3.044,3.064,3.064,0,0,1-2.936-2.939,2.841,2.841,0,0,1,3-2.95" transform="translate(-8.874 -22.696)" fill="#4287c6"/>
    <path id="パス_596" data-name="パス 596" d="M109.742,55.225a2.941,2.941,0,0,1-3.076,2.892,3.27,3.27,0,0,1-2.943-2.968,3.335,3.335,0,0,1,3.1-3.033,3.127,3.127,0,0,1,2.917,3.11" transform="translate(-13.317 -6.805)" fill="#4287c6"/>
    <path id="パス_597" data-name="パス 597" d="M109.742,159.4a3,3,0,0,1-3.066,2.927,3.006,3.006,0,1,1,.137-6.011,3.09,3.09,0,0,1,2.929,3.084" transform="translate(-13.317 -20.411)" fill="#4287c6"/>
    <path id="パス_598" data-name="パス 598" d="M54.728,156.311a3.048,3.048,0,0,1,2.925,3.076,2.941,2.941,0,0,1-2.864,2.936,3.007,3.007,0,1,1-.061-6.012" transform="translate(-6.635 -20.41)" fill="#4287c6"/>
    <path id="パス_599" data-name="パス 599" d="M72.144,144.871a2.841,2.841,0,0,1-3.026-2.928,3.058,3.058,0,0,1,2.918-2.966A3.135,3.135,0,0,1,75.1,142a2.93,2.93,0,0,1-2.955,2.867" transform="translate(-8.874 -18.147)" fill="#4287c6"/>
    <path id="パス_600" data-name="パス 600" d="M20.06,144.87a2.854,2.854,0,0,1-3.038-2.926,3.081,3.081,0,0,1,2.921-2.966A3.139,3.139,0,0,1,23.019,142a2.923,2.923,0,0,1-2.958,2.869" transform="translate(-2.185 -18.147)" fill="#4287c6"/>
    <path id="パス_601" data-name="パス 601" d="M158.9,121.7a2.842,2.842,0,0,1,2.942,2.846,2.923,2.923,0,0,1-2.988,3.018,3.07,3.07,0,0,1-3.016-2.884,3.024,3.024,0,0,1,3.062-2.98" transform="translate(-20.008 -15.891)" fill="#4287c6"/>
    <path id="パス_602" data-name="パス 602" d="M23.02,124.7a3.014,3.014,0,0,1-3.2,2.854,2.954,2.954,0,0,1-2.8-3.025,2.876,2.876,0,0,1,3.142-2.823A3,3,0,0,1,23.02,124.7" transform="translate(-2.185 -15.891)" fill="#4287c6"/>
    <path id="パス_603" data-name="パス 603" d="M106.827,110.218a3.265,3.265,0,0,1-3.1-2.989,3.4,3.4,0,0,1,3.119-3.02,3.1,3.1,0,0,1,2.9,2.945,2.977,2.977,0,0,1-2.916,3.065" transform="translate(-13.317 -13.607)" fill="#4287c6"/>
    <path id="パス_604" data-name="パス 604" d="M72.094,58.117a3.006,3.006,0,0,1-2.977-2.877,3.14,3.14,0,0,1,2.958-3.127A3.225,3.225,0,0,1,75.1,55.22a3.124,3.124,0,0,1-3,2.9" transform="translate(-8.874 -6.805)" fill="#4287c6"/>
    <path id="パス_605" data-name="パス 605" d="M92.32,159.4a2.822,2.822,0,0,1-2.865,2.923,3.007,3.007,0,0,1-.018-6.012A2.873,2.873,0,0,1,92.32,159.4" transform="translate(-11.109 -20.411)" fill="#4287c6"/>
    <path id="パス_606" data-name="パス 606" d="M127.168,159.4a3.108,3.108,0,0,1-3.126,2.92,3.008,3.008,0,0,1,.154-6.011,3.174,3.174,0,0,1,2.971,3.091" transform="translate(-15.562 -20.41)" fill="#4287c6"/>
    <path id="パス_607" data-name="パス 607" d="M141.519,156.312a2.932,2.932,0,0,1,2.926,2.907,2.917,2.917,0,1,1-5.828.207,2.958,2.958,0,0,1,2.9-3.114" transform="translate(-17.797 -20.41)" fill="#4287c6"/>
    <path id="パス_608" data-name="パス 608" d="M92.323,55.114a2.8,2.8,0,0,1-2.94,3,2.889,2.889,0,0,1-2.858-2.953,3,3,0,0,1,2.984-3.048,2.931,2.931,0,0,1,2.814,3" transform="translate(-11.109 -6.805)" fill="#4287c6"/>
    <path id="パス_609" data-name="パス 609" d="M75.1,107.208a3.142,3.142,0,0,1-2.9,3.009,3.012,3.012,0,0,1-3.085-2.954,3.149,3.149,0,0,1,3.027-3.055,3.258,3.258,0,0,1,2.957,3" transform="translate(-8.874 -13.607)" fill="#4287c6"/>
    <path id="パス_610" data-name="パス 610" d="M124.157,75.533a3.077,3.077,0,0,1-2.945-3.1A2.863,2.863,0,0,1,124.17,69.6a3,3,0,0,1,3,3.02,3.147,3.147,0,0,1-3.013,2.909" transform="translate(-15.562 -9.089)" fill="#4287c6"/>
    <path id="パス_611" data-name="パス 611" d="M127.158,55.4a3.064,3.064,0,0,1-3.294,2.715,3.008,3.008,0,0,1-2.651-3.313,3.138,3.138,0,0,1,3.16-2.68,3.2,3.2,0,0,1,2.784,3.279" transform="translate(-15.561 -6.805)" fill="#4287c6"/>
    <path id="パス_612" data-name="パス 612" d="M127.17,107.281a3.106,3.106,0,0,1-2.963,2.938,2.987,2.987,0,0,1-3-3.033,3.088,3.088,0,0,1,3.088-2.977,3.232,3.232,0,0,1,2.87,3.072" transform="translate(-15.562 -13.607)" fill="#4287c6"/>
    <path id="パス_613" data-name="パス 613" d="M106.786,69.6a2.835,2.835,0,0,1,2.957,3,3.055,3.055,0,0,1-2.949,2.924,3.3,3.3,0,0,1-3.066-3.083,3.143,3.143,0,0,1,3.058-2.846" transform="translate(-13.317 -9.089)" fill="#4287c6"/>
    <path id="パス_614" data-name="パス 614" d="M161.839,107.272a3,3,0,0,1-3.049,2.946,3.24,3.24,0,0,1-2.956-2.933,3.287,3.287,0,0,1,3.031-3.078,3.134,3.134,0,0,1,2.974,3.064" transform="translate(-20.008 -13.607)" fill="#4287c6"/>
    <path id="パス_615" data-name="パス 615" d="M173.307,107.222a3.083,3.083,0,0,1,3.045-3.013,3.257,3.257,0,0,1,2.914,3.041,3.143,3.143,0,0,1-2.942,2.968,2.947,2.947,0,0,1-3.018-3" transform="translate(-22.251 -13.607)" fill="#4287c6"/>
    <path id="パス_616" data-name="パス 616" d="M161.838,159.259a3.008,3.008,0,0,1-2.939,3.065,3.231,3.231,0,0,1-3.066-3.02,3.291,3.291,0,0,1,2.923-2.992,3.1,3.1,0,0,1,3.082,2.947" transform="translate(-20.007 -20.41)" fill="#4287c6"/>
    <path id="パス_617" data-name="パス 617" d="M124.2,173.814a2.944,2.944,0,0,1,2.972,2.85,3.116,3.116,0,0,1-3.043,3.035,3.028,3.028,0,0,1-2.915-2.938,2.827,2.827,0,0,1,2.985-2.947" transform="translate(-15.562 -22.696)" fill="#4287c6"/>
    <path id="パス_618" data-name="パス 618" d="M158.95,52.115a3.144,3.144,0,0,1,2.889,3.153,2.979,2.979,0,0,1-3.131,2.847,3.194,3.194,0,0,1-2.875-3.008,3.279,3.279,0,0,1,3.117-2.993" transform="translate(-20.007 -6.805)" fill="#4287c6"/>
    <path id="パス_619" data-name="パス 619" d="M124.26,144.869a2.817,2.817,0,0,1-3.048-2.887,3.031,3.031,0,0,1,2.86-3,3.112,3.112,0,0,1,3.1,2.986,2.923,2.923,0,0,1-2.91,2.9" transform="translate(-15.562 -18.147)" fill="#4287c6"/>
    <path id="パス_620" data-name="パス 620" d="M72.061,69.6A3.017,3.017,0,0,1,75.1,72.593a3.176,3.176,0,0,1-2.991,2.944,3.127,3.127,0,0,1-2.993-2.9A2.89,2.89,0,0,1,72.061,69.6" transform="translate(-8.874 -9.089)" fill="#4287c6"/>
    <path id="パス_621" data-name="パス 621" d="M72.121,121.7a2.933,2.933,0,1,1-.077,5.863,2.957,2.957,0,0,1-2.926-2.9,2.881,2.881,0,0,1,3-2.963" transform="translate(-8.874 -15.891)" fill="#4287c6"/>
    <path id="パス_622" data-name="パス 622" d="M127.17,20.507a3.084,3.084,0,0,1-3.175,2.906,3.021,3.021,0,0,1-2.783-3.065,2.862,2.862,0,0,1,3.11-2.849,3.033,3.033,0,0,1,2.848,3.007" transform="translate(-15.562 -2.285)" fill="#4287c6"/>
    <path id="パス_623" data-name="パス 623" d="M196.479,159.33a2.811,2.811,0,0,1-2.787,2.993,2.971,2.971,0,0,1-3.025-3.012,3.007,3.007,0,0,1,2.864-3,2.885,2.885,0,0,1,2.949,3.019" transform="translate(-24.48 -20.41)" fill="#4287c6"/>
    <path id="パス_624" data-name="パス 624" d="M20.044,58.116a3.031,3.031,0,0,1-3.022-2.98,3.145,3.145,0,0,1,3.026-3.024,3.275,3.275,0,0,1,2.97,2.949,3.071,3.071,0,0,1-2.975,3.055" transform="translate(-2.185 -6.805)" fill="#4287c6"/>
    <path id="パス_625" data-name="パス 625" d="M57.654,72.562a3.047,3.047,0,0,1-2.889,2.969,3.183,3.183,0,0,1-3.084-3.03,3.089,3.089,0,0,1,2.981-2.9,2.823,2.823,0,0,1,2.991,2.958" transform="translate(-6.635 -9.089)" fill="#4287c6"/>
    <path id="パス_626" data-name="パス 626" d="M109.742,20.392a3.017,3.017,0,0,1-2.827,3.022,3.264,3.264,0,0,1-3.194-2.942,3.185,3.185,0,0,1,2.943-2.973,2.883,2.883,0,0,1,3.078,2.893" transform="translate(-13.317 -2.285)" fill="#4287c6"/>
    <path id="パス_627" data-name="パス 627" d="M75.1,20.488a3.127,3.127,0,0,1-2.987,2.936,3.056,3.056,0,0,1-3-3.048A2.92,2.92,0,0,1,72.225,17.5,3.065,3.065,0,0,1,75.1,20.488" transform="translate(-8.874 -2.285)" fill="#4287c6"/>
    <path id="パス_628" data-name="パス 628" d="M54.8,17.5a2.864,2.864,0,0,1,2.853,3.1,2.966,2.966,0,0,1-3.018,2.817,3.166,3.166,0,0,1-2.956-2.979A3.09,3.09,0,0,1,54.8,17.5" transform="translate(-6.635 -2.285)" fill="#4287c6"/>
    <path id="パス_629" data-name="パス 629" d="M37.293,52.115a3.011,3.011,0,0,1,3,2.851,2.924,2.924,0,0,1-2.838,3.152,2.819,2.819,0,0,1-2.979-2.8,2.967,2.967,0,0,1,2.814-3.2" transform="translate(-4.427 -6.805)" fill="#4287c6"/>
    <path id="パス_630" data-name="パス 630" d="M158.913,92.751a2.972,2.972,0,0,1-3.077-2.912,3.094,3.094,0,0,1,2.981-2.908,2.967,2.967,0,0,1,3.022,3,2.752,2.752,0,0,1-2.926,2.815" transform="translate(-20.008 -11.351)" fill="#4287c6"/>
    <path id="パス_631" data-name="パス 631" d="M57.654,176.75a3.006,3.006,0,0,1-2.9,2.949,3.16,3.16,0,0,1-3.076-3.02,3.029,3.029,0,0,1,2.988-2.866,2.771,2.771,0,0,1,2.984,2.936" transform="translate(-6.636 -22.696)" fill="#4287c6"/>
    <path id="パス_632" data-name="パス 632" d="M121.212,124.4a2.855,2.855,0,0,1,3.228-2.7,2.991,2.991,0,0,1,2.72,3.106,2.96,2.96,0,0,1-3.116,2.745,2.919,2.919,0,0,1-2.833-3.149" transform="translate(-15.562 -15.89)" fill="#4287c6"/>
    <path id="パス_633" data-name="パス 633" d="M106.838,127.557a3.144,3.144,0,0,1-3.113-2.983,3.109,3.109,0,0,1,3.02-2.876,2.84,2.84,0,0,1,3,2.952,2.91,2.91,0,0,1-2.9,2.907" transform="translate(-13.317 -15.891)" fill="#4287c6"/>
    <path id="パス_634" data-name="パス 634" d="M106.891,173.814a2.8,2.8,0,0,1,2.85,3.084,3.012,3.012,0,0,1-3.053,2.8,3.238,3.238,0,0,1-2.963-2.988,3.078,3.078,0,0,1,3.167-2.893" transform="translate(-13.317 -22.696)" fill="#4287c6"/>
    <path id="パス_635" data-name="パス 635" d="M106.871,144.869a3.045,3.045,0,0,1-3.145-2.9,3.269,3.269,0,0,1,2.968-2.986,3.028,3.028,0,0,1,3.049,2.992,2.794,2.794,0,0,1-2.872,2.894" transform="translate(-13.317 -18.147)" fill="#4287c6"/>
    <path id="パス_636" data-name="パス 636" d="M176.207,58.116a2.938,2.938,0,0,1-2.9-3.106,3.1,3.1,0,0,1,2.987-2.9,3.191,3.191,0,0,1,2.964,3.158,3.123,3.123,0,0,1-3.052,2.846" transform="translate(-22.251 -6.805)" fill="#4287c6"/>
    <path id="パス_637" data-name="パス 637" d="M176.166,156.312a3.007,3.007,0,1,1,.168,6.012,3,3,0,0,1-3.027-2.827,3.044,3.044,0,0,1,2.859-3.185" transform="translate(-22.251 -20.41)" fill="#4287c6"/>
    <path id="パス_638" data-name="パス 638" d="M161.838,20.37a3,3,0,0,1-2.815,3.043,3.144,3.144,0,0,1-3.19-2.919,3.066,3.066,0,0,1,3.066-3,2.894,2.894,0,0,1,2.939,2.871" transform="translate(-20.007 -2.285)" fill="#4287c6"/>
    <path id="パス_639" data-name="パス 639" d="M179.263,72.5a3.159,3.159,0,0,1-2.888,3.032,3.05,3.05,0,0,1-3.068-2.97,2.824,2.824,0,0,1,2.819-2.953,3.022,3.022,0,0,1,3.137,2.892" transform="translate(-22.251 -9.088)" fill="#4287c6"/>
    <path id="パス_640" data-name="パス 640" d="M23.019,107.182a3.129,3.129,0,0,1-3.008,3.038,3.076,3.076,0,0,1-2.989-2.848,3.16,3.16,0,0,1,2.881-3.161,3.237,3.237,0,0,1,3.116,2.972" transform="translate(-2.185 -13.607)" fill="#4287c6"/>
    <path id="パス_641" data-name="パス 641" d="M124.124,196.946a2.791,2.791,0,0,1-2.911-2.832,3.057,3.057,0,0,1,2.992-3.053,3.134,3.134,0,0,1,2.965,2.95,2.906,2.906,0,0,1-3.046,2.935" transform="translate(-15.563 -24.948)" fill="#4287c6"/>
    <path id="パス_642" data-name="パス 642" d="M34.477,159.363a2.911,2.911,0,0,1,2.952-3.051,2.993,2.993,0,0,1,2.882,2.972,2.952,2.952,0,0,1-2.987,3.04,2.865,2.865,0,0,1-2.847-2.961" transform="translate(-4.426 -20.41)" fill="#4287c6"/>
    <path id="パス_643" data-name="パス 643" d="M20.058,162.324a3.007,3.007,0,1,1-.025-6.013,3.23,3.23,0,0,1,2.984,2.916,3.133,3.133,0,0,1-2.959,3.1" transform="translate(-2.185 -20.41)" fill="#4287c6"/>
    <path id="パス_644" data-name="パス 644" d="M72.051,92.751a2.766,2.766,0,0,1-2.933-2.8,2.983,2.983,0,0,1,3.005-3.021A3.063,3.063,0,0,1,75.1,89.832a2.892,2.892,0,0,1-3.049,2.919" transform="translate(-8.874 -11.35)" fill="#4287c6"/>
    <path id="パス_645" data-name="パス 645" d="M75.1,159.379a3.179,3.179,0,0,1-2.984,2.945,3.051,3.051,0,0,1-3-3.057,3.1,3.1,0,0,1,3.113-2.954,3.232,3.232,0,0,1,2.869,3.066" transform="translate(-8.874 -20.41)" fill="#4287c6"/>
    <path id="パス_646" data-name="パス 646" d="M106.863,196.946a3.069,3.069,0,0,1-3.14-2.9,3.275,3.275,0,0,1,2.985-2.977,3.068,3.068,0,0,1,3.033,3.013,2.745,2.745,0,0,1-2.879,2.868" transform="translate(-13.317 -24.948)" fill="#4287c6"/>
    <path id="パス_647" data-name="パス 647" d="M54.784,196.946a3.047,3.047,0,0,1-3.1-2.911,3.2,3.2,0,0,1,2.949-2.973,3.073,3.073,0,0,1,3.024,3.016,2.743,2.743,0,0,1-2.869,2.867" transform="translate(-6.635 -24.948)" fill="#4287c6"/>
    <path id="パス_648" data-name="パス 648" d="M176.2,196.946a2.734,2.734,0,0,1-2.889-2.846,3.049,3.049,0,0,1,3.005-3.04,3.162,3.162,0,0,1,2.951,2.966,2.954,2.954,0,0,1-3.068,2.92" transform="translate(-22.251 -24.948)" fill="#4287c6"/>
    <path id="パス_649" data-name="パス 649" d="M176.242,144.87a2.786,2.786,0,0,1-2.934-3,3.031,3.031,0,0,1,2.965-2.9,3.144,3.144,0,0,1,2.99,3.1,2.939,2.939,0,0,1-3.021,2.8" transform="translate(-22.251 -18.147)" fill="#4287c6"/>
    <path id="パス_650" data-name="パス 650" d="M106.757,92.751a3.024,3.024,0,0,1-3.032-2.807,3.176,3.176,0,0,1,3.088-3.011,2.947,2.947,0,0,1,2.929,2.9,2.727,2.727,0,0,1-2.984,2.916" transform="translate(-13.317 -11.351)" fill="#4287c6"/>
    <path id="パス_651" data-name="パス 651" d="M92.321,107.182a2.812,2.812,0,0,1-2.908,3.036,2.9,2.9,0,0,1-2.889-2.929,3.014,3.014,0,0,1,2.962-3.08,2.891,2.891,0,0,1,2.834,2.973" transform="translate(-11.109 -13.607)" fill="#4287c6"/>
    <path id="パス_652" data-name="パス 652" d="M124.215,92.752a2.768,2.768,0,0,1-3-2.893,2.952,2.952,0,0,1,2.9-2.922,3.025,3.025,0,0,1,3.06,2.987,2.857,2.857,0,0,1-2.956,2.828" transform="translate(-15.562 -11.352)" fill="#4287c6"/>
    <path id="パス_653" data-name="パス 653" d="M141.527,104.209a2.943,2.943,0,0,1,2.918,2.925,2.917,2.917,0,1,1-5.828.2,2.96,2.96,0,0,1,2.91-3.12" transform="translate(-17.797 -13.607)" fill="#4287c6"/>
    <path id="パス_654" data-name="パス 654" d="M176.29,173.814a2.952,2.952,0,0,1,2.973,2.853,3.128,3.128,0,0,1-3.05,3.033,3.013,3.013,0,0,1-2.905-2.945,2.778,2.778,0,0,1,2.982-2.941" transform="translate(-22.251 -22.696)" fill="#4287c6"/>
    <path id="パス_655" data-name="パス 655" d="M179.262,124.538a2.963,2.963,0,0,1-2.849,3.01,2.892,2.892,0,0,1-3.106-2.861,2.831,2.831,0,0,1,2.773-2.987,3.015,3.015,0,0,1,3.182,2.839" transform="translate(-22.251 -15.891)" fill="#4287c6"/>
    <path id="パス_656" data-name="パス 656" d="M173.307,20.2a2.906,2.906,0,0,1,3.252-2.7,3.067,3.067,0,0,1,2.689,3.158,3.1,3.1,0,0,1-3.139,2.756,3.014,3.014,0,0,1-2.8-3.21" transform="translate(-22.25 -2.283)" fill="#4287c6"/>
    <path id="パス_657" data-name="パス 657" d="M19.966,92.752a2.794,2.794,0,0,1-2.944-2.8,2.983,2.983,0,0,1,3.007-3.017,3.057,3.057,0,0,1,2.99,2.9,2.879,2.879,0,0,1-3.053,2.921" transform="translate(-2.185 -11.351)" fill="#4287c6"/>
    <path id="パス_658" data-name="パス 658" d="M176.321,92.753a2.73,2.73,0,0,1-3.013-2.874,2.934,2.934,0,0,1,2.876-2.941,3.04,3.04,0,0,1,3.079,2.97,2.9,2.9,0,0,1-2.943,2.846" transform="translate(-22.251 -11.352)" fill="#4287c6"/>
    <path id="パス_659" data-name="パス 659" d="M196.477,55.178a2.769,2.769,0,0,1-2.815,2.939,2.948,2.948,0,0,1-2.994-3.022,3.034,3.034,0,0,1,2.89-2.98,2.93,2.93,0,0,1,2.919,3.064" transform="translate(-24.48 -6.805)" fill="#4287c6"/>
    <path id="パス_660" data-name="パス 660" d="M196.479,107.2a2.806,2.806,0,0,1-2.922,3.016,2.934,2.934,0,0,1-2.889-2.953,3.045,3.045,0,0,1,3-3.057,2.9,2.9,0,0,1,2.812,2.993" transform="translate(-24.48 -13.607)" fill="#4287c6"/>
    <path id="パス_661" data-name="パス 661" d="M141.536,58.117a2.862,2.862,0,0,1-2.919-2.887,2.921,2.921,0,1,1,5.829-.005,2.857,2.857,0,0,1-2.91,2.893" transform="translate(-17.797 -6.805)" fill="#4287c6"/>
    <path id="パス_662" data-name="パス 662" d="M54.677,121.7a2.819,2.819,0,0,1,2.977,2.958,2.867,2.867,0,0,1-2.892,2.9,2.931,2.931,0,1,1-.085-5.858" transform="translate(-6.635 -15.891)" fill="#4287c6"/>
    <path id="パス_663" data-name="パス 663" d="M144.445,20.57a2.918,2.918,0,1,1-5.828-.278,2.829,2.829,0,0,1,2.97-2.793,2.8,2.8,0,0,1,2.857,3.071" transform="translate(-17.797 -2.285)" fill="#4287c6"/>
    <path id="パス_664" data-name="パス 664" d="M34.477,2.982A3.011,3.011,0,0,1,37.36,0a3.047,3.047,0,0,1,2.945,3.114,2.859,2.859,0,0,1-3.088,2.893,2.805,2.805,0,0,1-2.74-3.028" transform="translate(-4.426 0)" fill="#4287c6"/>
    <path id="パス_665" data-name="パス 665" d="M92.323,20.509a2.824,2.824,0,0,1-2.864,2.911,2.94,2.94,0,0,1-2.929-3.077A2.834,2.834,0,0,1,89.448,17.5a2.76,2.76,0,0,1,2.875,3.009" transform="translate(-11.109 -2.285)" fill="#4287c6"/>
    <path id="パス_666" data-name="パス 666" d="M92.322,3.054a2.76,2.76,0,0,1-2.786,2.958,2.867,2.867,0,0,1-3.012-2.962A3.074,3.074,0,0,1,89.542,0a2.972,2.972,0,0,1,2.78,3.051" transform="translate(-11.109 0)" fill="#4287c6"/>
    <path id="パス_667" data-name="パス 667" d="M196.477,20.378a2.836,2.836,0,0,1-2.9,3.042,3,3,0,0,1-2.91-2.938,2.9,2.9,0,0,1,2.989-2.982,2.732,2.732,0,0,1,2.821,2.878" transform="translate(-24.48 -2.285)" fill="#4287c6"/>
    <path id="パス_668" data-name="パス 668" d="M176.181,40.7a2.8,2.8,0,0,1-2.874-3.06,2.876,2.876,0,0,1,3.027-2.77,3.024,3.024,0,0,1,2.929,2.922,2.926,2.926,0,0,1-3.082,2.908" transform="translate(-22.25 -4.553)" fill="#4287c6"/>
    <path id="パス_669" data-name="パス 669" d="M54.773,144.868a3.04,3.04,0,0,1-3.092-2.927,3.218,3.218,0,0,1,2.963-2.966A3.028,3.028,0,0,1,57.654,142a2.774,2.774,0,0,1-2.881,2.871" transform="translate(-6.635 -18.147)" fill="#4287c6"/>
    <path id="パス_670" data-name="パス 670" d="M92.323,72.545a2.861,2.861,0,0,1-2.8,2.986,2.971,2.971,0,0,1-3-3.017A2.838,2.838,0,0,1,89.56,69.6a2.72,2.72,0,0,1,2.763,2.941" transform="translate(-11.109 -9.088)" fill="#4287c6"/>
    <path id="パス_671" data-name="パス 671" d="M54.785,40.7a3.021,3.021,0,0,1-3.1-2.909A3.067,3.067,0,0,1,54.63,34.87a2.866,2.866,0,0,1,3.024,2.945A2.78,2.78,0,0,1,54.785,40.7" transform="translate(-6.635 -4.553)" fill="#4287c6"/>
    <path id="パス_672" data-name="パス 672" d="M106.838,40.7a3.027,3.027,0,0,1-3.114-2.926,3.11,3.11,0,0,1,3-2.9,2.875,2.875,0,0,1,3.02,2.964,2.781,2.781,0,0,1-2.9,2.866" transform="translate(-13.317 -4.553)" fill="#4287c6"/>
    <path id="パス_673" data-name="パス 673" d="M34.477,20.389A2.793,2.793,0,0,1,37.5,17.5a2.853,2.853,0,0,1,2.811,2.97,2.951,2.951,0,0,1-2.884,2.952,2.9,2.9,0,0,1-2.951-3.032" transform="translate(-4.426 -2.285)" fill="#4287c6"/>
    <path id="パス_674" data-name="パス 674" d="M144.45,72.584a2.919,2.919,0,1,1-5.835-.1,2.918,2.918,0,1,1,5.835.1" transform="translate(-17.797 -9.089)" fill="#4287c6"/>
    <path id="パス_675" data-name="パス 675" d="M196.478,72.462a2.88,2.88,0,0,1-2.881,3.069,3.039,3.039,0,0,1-2.931-2.928,2.89,2.89,0,0,1,2.974-3,2.685,2.685,0,0,1,2.838,2.857" transform="translate(-24.48 -9.089)" fill="#4287c6"/>
    <path id="パス_676" data-name="パス 676" d="M141.6,196.947a2.733,2.733,0,0,1-2.986-2.909,2.946,2.946,0,0,1,2.858-2.972,2.981,2.981,0,0,1,2.974,3.02,2.717,2.717,0,0,1-2.846,2.86" transform="translate(-17.797 -24.948)" fill="#4287c6"/>
    <path id="パス_677" data-name="パス 677" d="M54.7,92.751a2.988,2.988,0,0,1-3.022-2.787,3.091,3.091,0,0,1,3.029-3.031,2.948,2.948,0,0,1,2.943,2.877,2.729,2.729,0,0,1-2.95,2.941" transform="translate(-6.635 -11.351)" fill="#4287c6"/>
    <path id="パス_678" data-name="パス 678" d="M34.478,107.155a2.934,2.934,0,0,1,2.892-2.946,2.988,2.988,0,0,1,2.936,3.1,2.906,2.906,0,0,1-2.922,2.906,2.846,2.846,0,0,1-2.906-3.062" transform="translate(-4.427 -13.607)" fill="#4287c6"/>
    <path id="パス_679" data-name="パス 679" d="M5.612,159.318a2.935,2.935,0,0,1-2.991,3.006A2.613,2.613,0,0,1,0,159.417c-.025-1.895.946-3.055,2.6-3.106a3.015,3.015,0,0,1,3.011,3.006" transform="translate(0 -20.41)" fill="#4287c6"/>
    <path id="パス_680" data-name="パス 680" d="M89.417,196.947a2.791,2.791,0,0,1-2.889-2.837,2.968,2.968,0,0,1,2.969-3.044,2.9,2.9,0,0,1,2.824,2.948,2.658,2.658,0,0,1-2.9,2.933" transform="translate(-11.109 -24.948)" fill="#4287c6"/>
    <path id="パス_681" data-name="パス 681" d="M5.613,107.188a2.912,2.912,0,0,1-2.954,3.031A2.583,2.583,0,0,1,0,107.366c-.04-1.951,1.036-3.193,2.738-3.156a3.016,3.016,0,0,1,2.872,2.978" transform="translate(0 -13.607)" fill="#4287c6"/>
    <path id="パス_682" data-name="パス 682" d="M144.448,124.573a2.917,2.917,0,1,1-5.834.083,2.917,2.917,0,1,1,5.834-.083" transform="translate(-17.797 -15.89)" fill="#4287c6"/>
    <path id="パス_683" data-name="パス 683" d="M37.333,69.6a2.819,2.819,0,0,1,2.97,2.8,2.97,2.97,0,0,1-2.882,3.126,2.923,2.923,0,0,1-2.942-2.871A2.759,2.759,0,0,1,37.333,69.6" transform="translate(-4.426 -9.089)" fill="#4287c6"/>
    <path id="パス_684" data-name="パス 684" d="M144.445,3.135a2.807,2.807,0,0,1-2.909,2.877,2.842,2.842,0,0,1-2.919-3.053,2.918,2.918,0,1,1,5.828.176" transform="translate(-17.797 -0.001)" fill="#4287c6"/>
    <path id="パス_685" data-name="パス 685" d="M196.477,194.146a2.643,2.643,0,0,1-3.03,2.8,2.856,2.856,0,0,1-2.778-2.97,3.027,3.027,0,0,1,2.936-2.91,2.939,2.939,0,0,1,2.871,3.079" transform="translate(-24.48 -24.949)" fill="#4287c6"/>
    <path id="パス_686" data-name="パス 686" d="M72,40.7a2.831,2.831,0,0,1-2.881-2.9,2.917,2.917,0,0,1,3.064-2.93A3,3,0,0,1,75.1,37.8,2.921,2.921,0,0,1,72,40.7" transform="translate(-8.874 -4.553)" fill="#4287c6"/>
    <path id="パス_687" data-name="パス 687" d="M124.106,40.7a2.809,2.809,0,0,1-2.894-3.042,2.915,2.915,0,0,1,3.011-2.792,3.008,3.008,0,0,1,2.948,2.906,2.915,2.915,0,0,1-3.065,2.927" transform="translate(-15.562 -4.553)" fill="#4287c6"/>
    <path id="パス_688" data-name="パス 688" d="M37.313,144.868a2.711,2.711,0,0,1-2.836-2.879,2.948,2.948,0,0,1,2.977-3.013,2.979,2.979,0,0,1,2.851,2.973,2.8,2.8,0,0,1-2.992,2.918" transform="translate(-4.427 -18.147)" fill="#4287c6"/>
    <path id="パス_689" data-name="パス 689" d="M158.881,40.7a3.005,3.005,0,0,1-3.045-2.971,3.055,3.055,0,0,1,3.012-2.863,2.908,2.908,0,0,1,2.991,2.83,2.844,2.844,0,0,1-2.957,3" transform="translate(-20.008 -4.553)" fill="#4287c6"/>
    <path id="パス_690" data-name="パス 690" d="M196.477,3.126a2.744,2.744,0,0,1-2.847,2.886,2.907,2.907,0,0,1-2.961-3.038A3.126,3.126,0,0,1,193.6,0a2.974,2.974,0,0,1,2.879,3.122" transform="translate(-24.48 -0.001)" fill="#4287c6"/>
    <path id="パス_691" data-name="パス 691" d="M19.956,40.7a2.856,2.856,0,0,1-2.934-3.033,2.945,2.945,0,0,1,3.022-2.8,3,3,0,0,1,2.975,2.89A2.924,2.924,0,0,1,19.956,40.7" transform="translate(-2.185 -4.553)" fill="#4287c6"/>
    <path id="パス_692" data-name="パス 692" d="M193.693,144.868a2.857,2.857,0,0,1-3.021-2.913,3.027,3.027,0,0,1,2.868-2.978,2.911,2.911,0,0,1,2.936,2.833,2.68,2.68,0,0,1-2.784,3.059" transform="translate(-24.48 -18.147)" fill="#4287c6"/>
    <path id="パス_693" data-name="パス 693" d="M5.613,55.221a2.872,2.872,0,0,1-2.9,2.9C.936,58.125-.052,56.977,0,54.969a2.637,2.637,0,0,1,2.681-2.855,3.069,3.069,0,0,1,2.927,3.107" transform="translate(0 -6.805)" fill="#4287c6"/>
    <path id="パス_694" data-name="パス 694" d="M141.531,173.814a2.76,2.76,0,0,1,2.918,2.989,2.919,2.919,0,1,1-5.834-.163,2.761,2.761,0,0,1,2.916-2.826" transform="translate(-17.797 -22.696)" fill="#4287c6"/>
    <path id="パス_695" data-name="パス 695" d="M89.585,173.814a2.7,2.7,0,0,1,2.729,3.118A2.847,2.847,0,0,1,89.33,179.7a2.968,2.968,0,0,1-2.8-3.024,2.8,2.8,0,0,1,3.058-2.86" transform="translate(-11.109 -22.696)" fill="#4287c6"/>
    <path id="パス_696" data-name="パス 696" d="M0,37.655c.041-1.874,1.046-2.859,2.837-2.78a2.826,2.826,0,0,1,2.773,2.988A2.758,2.758,0,0,1,2.547,40.7C.763,40.643-.043,39.681,0,37.655" transform="translate(0 -4.553)" fill="#4287c6"/>
    <path id="パス_697" data-name="パス 697" d="M5.612,193.977A2.722,2.722,0,0,1,2.7,196.947c-1.776,0-2.647-.876-2.7-2.72-.056-2.022.919-3.168,2.689-3.162a3.047,3.047,0,0,1,2.921,2.913" transform="translate(0 -24.948)" fill="#4287c6"/>
    <path id="パス_698" data-name="パス 698" d="M196.479,124.6a2.775,2.775,0,0,1-2.937,2.96,2.931,2.931,0,1,1,.156-5.861,2.7,2.7,0,0,1,2.781,2.9" transform="translate(-24.48 -15.891)" fill="#4287c6"/>
    <path id="パス_699" data-name="パス 699" d="M37.381,196.947a2.694,2.694,0,0,1-2.9-2.789,2.936,2.936,0,0,1,2.9-3.093,3,3,0,0,1,2.927,3.079,2.78,2.78,0,0,1-2.924,2.8" transform="translate(-4.426 -24.948)" fill="#4287c6"/>
    <path id="パス_700" data-name="パス 700" d="M92.324,124.694a2.757,2.757,0,0,1-2.864,2.866,2.886,2.886,0,0,1-2.931-3.036,2.816,2.816,0,0,1,2.923-2.826,2.746,2.746,0,0,1,2.873,3" transform="translate(-11.109 -15.891)" fill="#4287c6"/>
    <path id="パス_701" data-name="パス 701" d="M5.613,2.982a2.865,2.865,0,0,1-2.929,3.03C1.007,6.008.046,5,0,3.2-.043,1.235,1.015-.014,2.714,0a3.094,3.094,0,0,1,2.9,2.979" transform="translate(0 0)" fill="#4287c6"/>
    <path id="パス_702" data-name="パス 702" d="M196.48,89.8a2.615,2.615,0,0,1-2.722,2.949,2.833,2.833,0,0,1-3.085-2.852,2.947,2.947,0,0,1,2.894-2.957,2.838,2.838,0,0,1,2.913,2.86" transform="translate(-24.481 -11.352)" fill="#4287c6"/>
    <path id="パス_703" data-name="パス 703" d="M5.612,89.94a2.694,2.694,0,0,1-3.048,2.809c-1.8-.037-2.6-.98-2.563-3,.037-1.828.943-2.79,2.652-2.814A2.934,2.934,0,0,1,5.612,89.94" transform="translate(0 -11.351)" fill="#4287c6"/>
    <path id="パス_704" data-name="パス 704" d="M34.477,176.652a2.732,2.732,0,0,1,3.051-2.839,2.809,2.809,0,0,1,2.783,2.967,2.962,2.962,0,0,1-2.9,2.918,2.906,2.906,0,0,1-2.93-3.046" transform="translate(-4.426 -22.696)" fill="#4287c6"/>
    <path id="パス_705" data-name="パス 705" d="M0,176.66c.019-1.948.924-2.88,2.765-2.846a2.751,2.751,0,0,1,2.846,3.048,2.978,2.978,0,0,1-2.977,2.84C.9,179.663-.017,178.6,0,176.66" transform="translate(0 -22.696)" fill="#4287c6"/>
    <path id="パス_706" data-name="パス 706" d="M196.479,176.666a2.871,2.871,0,0,1-2.9,3.033,2.981,2.981,0,0,1-2.91-2.93,2.854,2.854,0,0,1,2.99-2.955,2.66,2.66,0,0,1,2.821,2.852" transform="translate(-24.48 -22.696)" fill="#4287c6"/>
    <path id="パス_707" data-name="パス 707" d="M141.551,144.868a2.753,2.753,0,0,1-2.935-2.8,2.92,2.92,0,1,1,5.83-.021,2.736,2.736,0,0,1-2.9,2.821" transform="translate(-17.797 -18.147)" fill="#4287c6"/>
    <path id="パス_708" data-name="パス 708" d="M5.613,20.506a2.969,2.969,0,0,1-2.9,2.911C.987,23.425,0,22.349,0,20.451,0,18.515.922,17.5,2.691,17.5a2.83,2.83,0,0,1,2.922,3.006" transform="translate(0 -2.285)" fill="#4287c6"/>
    <path id="パス_709" data-name="パス 709" d="M92.322,141.965a2.692,2.692,0,0,1-2.944,2.9,2.787,2.787,0,0,1-2.849-2.892,2.993,2.993,0,0,1,3.012-3,2.906,2.906,0,0,1,2.781,2.989" transform="translate(-11.109 -18.147)" fill="#4287c6"/>
    <path id="パス_710" data-name="パス 710" d="M0,141.859a2.607,2.607,0,0,1,2.794-2.878,3,3,0,0,1,2.818,3.006,2.751,2.751,0,0,1-3.022,2.88c-1.8-.034-2.621-.992-2.59-3.008" transform="translate(0 -18.147)" fill="#4287c6"/>
    <path id="パス_711" data-name="パス 711" d="M37.4,121.7a2.84,2.84,0,0,1,2.913,3.026,2.887,2.887,0,0,1-2.952,2.836,2.839,2.839,0,0,1-2.881-2.884A2.776,2.776,0,0,1,37.4,121.7" transform="translate(-4.426 -15.891)" fill="#4287c6"/>
    <path id="パス_712" data-name="パス 712" d="M37.307,40.7a2.752,2.752,0,0,1-2.829-3.06,2.823,2.823,0,0,1,2.981-2.771,2.866,2.866,0,0,1,2.847,2.921,2.811,2.811,0,0,1-3,2.909" transform="translate(-4.426 -4.553)" fill="#4287c6"/>
    <path id="パス_713" data-name="パス 713" d="M5.613,72.5a2.994,2.994,0,0,1-2.979,3.029C.967,75.493.035,74.473,0,72.65-.031,70.7.863,69.645,2.591,69.6a2.8,2.8,0,0,1,3.022,2.9" transform="translate(0 -9.089)" fill="#4287c6"/>
    <path id="パス_714" data-name="パス 714" d="M37.412,92.751a2.673,2.673,0,0,1-2.936-2.777,2.869,2.869,0,0,1,2.962-3.034,2.919,2.919,0,0,1,2.868,2.966,2.761,2.761,0,0,1-2.895,2.845" transform="translate(-4.426 -11.352)" fill="#4287c6"/>
    <path id="パス_715" data-name="パス 715" d="M0,124.552c.022-1.914.959-2.879,2.773-2.853a2.8,2.8,0,0,1,2.838,3.066,2.892,2.892,0,0,1-2.977,2.793C.869,127.521-.021,126.505,0,124.552" transform="translate(0 -15.891)" fill="#4287c6"/>
    <path id="パス_716" data-name="パス 716" d="M193.543,40.7a2.85,2.85,0,0,1-2.871-2.93,2.892,2.892,0,0,1,2.934-2.9,2.781,2.781,0,0,1,2.875,3.054,2.69,2.69,0,0,1-2.937,2.775" transform="translate(-24.48 -4.553)" fill="#4287c6"/>
    <path id="パス_717" data-name="パス 717" d="M141.5,40.7a2.767,2.767,0,0,1-2.883-2.851,2.918,2.918,0,1,1,5.832.084A2.754,2.754,0,0,1,141.5,40.7" transform="translate(-17.797 -4.553)" fill="#4287c6"/>
    <path id="パス_718" data-name="パス 718" d="M92.322,37.767A2.7,2.7,0,0,1,89.543,40.7a2.814,2.814,0,0,1-3.015-2.947,2.867,2.867,0,0,1,2.937-2.883,2.765,2.765,0,0,1,2.856,2.9" transform="translate(-11.109 -4.553)" fill="#4287c6"/>
    <path id="パス_719" data-name="パス 719" d="M141.5,92.751a2.71,2.71,0,0,1-2.888-2.846,2.917,2.917,0,1,1,5.832.07,2.689,2.689,0,0,1-2.943,2.776" transform="translate(-17.797 -11.352)" fill="#4287c6"/>
    <path id="パス_720" data-name="パス 720" d="M92.321,89.868a2.627,2.627,0,0,1-2.793,2.884,2.782,2.782,0,0,1-3-2.919,2.909,2.909,0,0,1,2.949-2.893,2.827,2.827,0,0,1,2.844,2.927" transform="translate(-11.109 -11.352)" fill="#4287c6"/>
  </g>
</svg>
