<svg xmlns="http://www.w3.org/2000/svg" width="189.999" height="120" viewBox="0 0 189.999 120">
  <g id="グループ_2545" data-name="グループ 2545" transform="translate(18093 351.5)">
    <g id="j32_3_1" transform="translate(-18093 -351.5)">
      <path id="パス_38" data-name="パス 38" d="M239,120.192V31.572a13.992,13.992,0,0,0-13.915-14.037H111.475A13.992,13.992,0,0,0,97.56,31.572v88.62" transform="translate(-71.792 -12.904)" fill="#2ba7c8"/>
      <path id="パス_39" data-name="パス 39" d="M126.381,133.243V52.637a6.316,6.316,0,0,1,6.319-6.312H246.449a6.316,6.316,0,0,1,6.319,6.312v80.606H126.381Z" transform="translate(-93.089 -34.09)" fill="#2ba7c8"/>
      <path id="パス_40" data-name="パス 40" d="M252.187,195.544l-126.6.761V131.748l126.6-.761Z" transform="translate(-92.507 -95.824)" fill="#fff"/>
      <path id="パス_41" data-name="パス 41" d="M170.4,81.107a2.3,2.3,0,1,1-2.3-2.3A2.3,2.3,0,0,1,170.4,81.107Z" transform="translate(-122.051 -57.835)" fill="#e96f45"/>
      <ellipse id="楕円形_33" data-name="楕円形 33" cx="2.298" cy="2.296" rx="2.298" ry="2.296" transform="translate(53.664 20.976)" fill="#d2eef6"/>
      <ellipse id="楕円形_34" data-name="楕円形 34" cx="2.298" cy="2.296" rx="2.298" ry="2.296" transform="translate(63.575 20.976)" fill="#d0ece9"/>
      <path id="パス_42" data-name="パス 42" d="M364.594,82.01H299.848a3.115,3.115,0,1,1,0-6.23h64.745a3.115,3.115,0,1,1,0,6.23Z" transform="translate(-218.468 -55.609)" fill="#fff"/>
      <path id="パス_43" data-name="パス 43" d="M135.191,400.587v3.868H98.853v-3.868H25.373V403.4a6.6,6.6,0,0,0,3,5.536l2.688,1.747A19.959,19.959,0,0,0,41.944,413.9H192.1a19.96,19.96,0,0,0,10.877-3.224l2.689-1.747a6.6,6.6,0,0,0,3-5.536v-2.808Z" transform="translate(-18.671 -293.902)" fill="#d2eef6"/>
      <path id="パス_44" data-name="パス 44" d="M164.609,15.138A15.1,15.1,0,0,0,149.582,0H35.936A15.1,15.1,0,0,0,20.908,15.138v88.085H0v3.946a7.783,7.783,0,0,0,3.509,6.514l2.688,1.76a20.956,20.956,0,0,0,11.482,3.428H167.838a20.954,20.954,0,0,0,11.482-3.429l2.688-1.76a7.784,7.784,0,0,0,3.51-6.514v-3.946H164.609ZM26.882,6.018a12.72,12.72,0,0,1,9.054-3.784H149.582a12.719,12.719,0,0,1,9.053,3.784,12.906,12.906,0,0,1,3.757,9.119v88.085H109.819v3.9H75.7v-3.9H23.126V15.138A12.907,12.907,0,0,1,26.882,6.018ZM183.3,105.457v1.712a5.546,5.546,0,0,1-2.5,4.641l-2.688,1.76a18.751,18.751,0,0,1-10.273,3.068H17.68A18.751,18.751,0,0,1,7.407,113.57l-2.688-1.76a5.545,5.545,0,0,1-2.5-4.64v-1.712H73.481v3.9h38.556v-3.9H183.3Z" fill="#3e485c"/>
      <path id="パス_45" data-name="パス 45" d="M236.661,117.926V36.211a7.426,7.426,0,0,0-7.429-7.421H115.483a7.425,7.425,0,0,0-7.429,7.421v81.715H236.661ZM110.274,36.211a5.207,5.207,0,0,1,5.21-5.2H229.232a5.207,5.207,0,0,1,5.209,5.2V49.25H110.274Zm0,15.256H234.441v64.24H110.274Z" transform="translate(-79.593 -21.186)" fill="#3e485c"/>
      <path id="パス_46" data-name="パス 46" d="M150.885,61.275a3.4,3.4,0,1,0,3.408,3.405A3.407,3.407,0,0,0,150.885,61.275Zm0,4.592a1.187,1.187,0,1,1,1.188-1.187A1.19,1.19,0,0,1,150.885,65.867Z" transform="translate(-108.56 -45.091)" fill="#3e485c"/>
      <path id="パス_47" data-name="パス 47" d="M188.444,61.275a3.4,3.4,0,1,0,3.408,3.405A3.407,3.407,0,0,0,188.444,61.275Zm0,4.592a1.187,1.187,0,1,1,1.188-1.187A1.19,1.19,0,0,1,188.444,65.867Z" transform="translate(-136.208 -45.091)" fill="#3e485c"/>
      <path id="パス_48" data-name="パス 48" d="M226,61.275a3.4,3.4,0,1,0,3.408,3.405A3.407,3.407,0,0,0,226,61.275Zm0,4.592a1.187,1.187,0,1,1,1.188-1.187A1.19,1.19,0,0,1,226,65.867Z" transform="translate(-163.856 -45.091)" fill="#3e485c"/>
      <path id="パス_49" data-name="パス 49" d="M347.376,58.245H282.631a4.234,4.234,0,0,0-4.229,4.224h0a4.234,4.234,0,0,0,4.229,4.224h64.746a4.234,4.234,0,0,0,4.228-4.224h0A4.234,4.234,0,0,0,347.376,58.245Zm2.008,4.224a2.017,2.017,0,0,1-2.008,2.006H282.631a2.017,2.017,0,0,1-2.009-2.006h0a2.016,2.016,0,0,1,2.008-2.006h64.746a2.017,2.017,0,0,1,2.008,2.006Z" transform="translate(-204.976 -42.861)" fill="#3e485c"/>
    </g>
    <rect id="長方形_237" data-name="長方形 237" width="20.221" height="12.518" transform="translate(-18043.414 -286.073)" fill="#ffb64b"/>
    <rect id="長方形_238" data-name="長方形 238" width="20.221" height="12.518" transform="translate(-18006.197 -286.073)" fill="#ffb64b"/>
    <rect id="長方形_239" data-name="長方形 239" width="20.221" height="12.518" transform="translate(-17970.537 -286.073)" fill="#ffb64b"/>
    <rect id="長方形_240" data-name="長方形 240" width="10.11" height="9.389" transform="translate(-18041.207 -302.048)" fill="#ffb64b"/>
    <rect id="長方形_241" data-name="長方形 241" width="20.066" height="1.727" transform="translate(-18044.822 -273.418)" fill="#3e485c"/>
    <rect id="長方形_242" data-name="長方形 242" width="20.066" height="1.727" transform="translate(-18044.822 -267.896)" fill="#3e485c"/>
    <rect id="長方形_243" data-name="長方形 243" width="20.066" height="1.727" transform="translate(-17972.07 -273.418)" fill="#3e485c"/>
    <rect id="長方形_244" data-name="長方形 244" width="20.066" height="1.727" transform="translate(-17972.07 -267.896)" fill="#3e485c"/>
    <rect id="長方形_245" data-name="長方形 245" width="20.066" height="1.727" transform="translate(-18007.881 -273.418)" fill="#3e485c"/>
    <rect id="長方形_246" data-name="長方形 246" width="20.066" height="1.727" transform="translate(-18007.881 -267.896)" fill="#3e485c"/>
    <path id="パス_1204" data-name="パス 1204" d="M156.473,226.479h21.791v-13.6H156.473v13.6ZM158.2,214.6h18.342v10.148H158.2Z" transform="translate(-18202.156 -505.727)" fill="#3e485c"/>
    <path id="パス_1205" data-name="パス 1205" d="M447.31,226.479H469.1v-13.6H447.31Zm1.724-11.875h18.342v10.148H449.034Z" transform="translate(-18420.242 -505.727)" fill="#3e485c"/>
    <path id="パス_1206" data-name="パス 1206" d="M304.384,226.479h21.791v-13.6H304.384Zm1.724-11.875H324.45v10.148H306.109V214.6Z" transform="translate(-18313.127 -505.727)" fill="#3e485c"/>
    <path id="パス_1207" data-name="パス 1207" d="M174.317,147.894v-9.751H162.859v10.614h11.458v-.864Zm-9.733-.864v-7.16h8.008v7.16Z" transform="translate(-18207.139 -447.546)" fill="#3e485c"/>
    <rect id="長方形_247" data-name="長方形 247" width="12.309" height="1.727" transform="translate(-18016.535 -305.674)" fill="#3e485c"/>
    <rect id="長方形_248" data-name="長方形 248" width="12.309" height="1.727" transform="translate(-17991.207 -305.674)" fill="#3e485c"/>
    <rect id="長方形_249" data-name="長方形 249" width="12.31" height="1.727" transform="translate(-17965.527 -305.674)" fill="#3e485c"/>
  </g>
</svg>
