<svg id="welcome_main-decoration-pink-triangle" xmlns="http://www.w3.org/2000/svg" xmlns:xlink="http://www.w3.org/1999/xlink" width="112.08" height="101.527" viewBox="0 0 112.08 101.527">
  <defs>
    <clipPath id="clip-path">
      <rect id="長方形_190" data-name="長方形 190" width="112.08" height="101.527" fill="#df7c8f"/>
    </clipPath>
  </defs>
  <g id="グループ_193" data-name="グループ 193" clip-path="url(#clip-path)">
    <path id="パス_753" data-name="パス 753" d="M110.432,0a1.964,1.964,0,0,1,.241,1.3q.008,49.472.028,98.943c0,.972-.285,1.254-1.205,1.174a19.344,19.344,0,0,0-2.471-.008c-.59.024-.814-.214-.756-.786a7.118,7.118,0,0,0,0-.721V13.019a3.11,3.11,0,0,0,0-.412A13.438,13.438,0,0,1,109.01,2.39,25.253,25.253,0,0,0,110.432,0" transform="translate(-52.387 0)" fill="#df7c8f"/>
    <path id="パス_754" data-name="パス 754" d="M124.236,16.38q2.066,3.6,4.129,7.207a2.348,2.348,0,0,1,.151,1.213q-.005,33.238-.014,66.475c0,5.7-.014,11.406.041,17.108.009.947-.286,1.193-1.16,1.117a14.729,14.729,0,0,0-2.368,0c-.79.06-1.046-.181-1.04-1.017.038-6.011.02-12.023.02-18.035V16.458l.242-.078" transform="translate(-61.19 -8.085)" fill="#df7c8f"/>
    <path id="パス_755" data-name="パス 755" d="M92.8,30.591a1.857,1.857,0,0,1,.226,1.266q.009,32.71.006,65.419c0,6.043-.015,12.086.017,18.13,0,.835-.2,1.191-1.079,1.109a12.376,12.376,0,0,0-2.263,0c-.877.081-1.163-.17-1.155-1.114.049-6.01.025-12.02.025-18.029q0-29.105-.014-58.21a4.5,4.5,0,0,1,.665-2.425c1.2-1.993,2.34-4.016,3.572-6.145" transform="translate(-43.708 -15.099)" fill="#df7c8f"/>
    <path id="パス_756" data-name="パス 756" d="M141.9,47.326c1.332,2.31,2.68,4.613,3.981,6.94a2.383,2.383,0,0,1,.14,1.106q.009,34.2.022,68.406c0,.748-.158,1.076-.955.99-1.116-.12-2.565.475-3.27-.247-.653-.667-.186-2.1-.187-3.189q-.014-36.262-.007-72.524V47.387l.276-.061" transform="translate(-69.826 -23.359)" fill="#df7c8f"/>
    <path id="パス_757" data-name="パス 757" d="M75.28,61.344v1.125q0,33.955.025,67.909c0,1.041-.245,1.419-1.292,1.289a9.281,9.281,0,0,0-2.057,0c-.9.09-1.17-.208-1.161-1.135.056-5.633.057-11.266.056-16.9q-.006-16.745-.033-33.489c0-3.434.009-6.867-.007-10.3a4.2,4.2,0,0,1,.606-2.245c1.241-2.088,2.435-4.2,3.648-6.307l.214.055" transform="translate(-34.943 -30.25)" fill="#df7c8f"/>
    <path id="パス_758" data-name="パス 758" d="M159.613,77.789c.6,1.017,1.119,2.088,1.805,3.04,2.009,2.786,2.559,5.828,2.528,9.266-.147,16.141-.077,32.284-.039,48.426,0,1.07-.3,1.406-1.319,1.287a8.694,8.694,0,0,0-1.954,0c-.96.108-1.279-.174-1.267-1.211.06-5.151.027-10.3.027-15.456q0-22.049,0-44.1v-1.19l.217-.064" transform="translate(-78.659 -38.394)" fill="#df7c8f"/>
    <path id="パス_759" data-name="パス 759" d="M57.687,91.814v1.935q0,25.9.024,51.808c0,.98-.3,1.252-1.211,1.174a14.709,14.709,0,0,0-2.367,0c-.77.059-.978-.205-.972-.979.035-5.287.018-10.574.018-15.862,0-9.716.013-19.433-.017-29.149a5.28,5.28,0,0,1,.792-2.907c1.04-1.695,2-3.437,3-5.156a1.715,1.715,0,0,1,.732-.862" transform="translate(-26.239 -45.317)" fill="#df7c8f"/>
    <path id="パス_760" data-name="パス 760" d="M177.506,108.777q1.987,3.469,3.972,6.941a2.359,2.359,0,0,1,.165,1.212q0,18.605.021,37.21c0,.806-.267,1.012-1,.961a14.333,14.333,0,0,0-2.265,0c-.876.078-1.194-.168-1.162-1.117.076-2.3.025-4.6.025-6.905V108.851l.249-.074" transform="translate(-87.476 -53.689)" fill="#df7c8f"/>
    <path id="パス_761" data-name="パス 761" d="M39.757,122.638a2.1,2.1,0,0,1,.153,1.187q.008,18.49.026,36.98c0,.9-.2,1.228-1.127,1.144a24.181,24.181,0,0,0-2.676-.015c-.478.01-.7-.172-.668-.662.015-.205,0-.412,0-.618q0-14.677-.011-29.355a4.522,4.522,0,0,1,.647-2.437c1.06-1.763,2.061-3.562,3.091-5.343.164-.283.352-.55.564-.88" transform="translate(-17.5 -60.53)" fill="#df7c8f"/>
    <path id="パス_762" data-name="パス 762" d="M195.083,139.262c1.383,2.4,2.779,4.793,4.131,7.211a2.4,2.4,0,0,1,.139,1.108c.007,7.208,0,14.416.019,21.624,0,.692-.149.993-.9.946a26.48,26.48,0,0,0-2.778,0c-.651.027-.882-.169-.879-.868.03-5.6.018-11.19.019-16.785q0-6.023,0-12.047v-1.108l.249-.076" transform="translate(-96.156 -68.736)" fill="#df7c8f"/>
    <path id="パス_763" data-name="パス 763" d="M21.967,153.484a1.468,1.468,0,0,1,.216,1.107c.007,7.14-.01,14.281.026,21.421,0,.889-.2,1.246-1.136,1.16a21.8,21.8,0,0,0-2.573-.012c-.5.013-.734-.117-.732-.687.019-5.081.013-10.162.01-15.243a1.712,1.712,0,0,1,.233-.882c1.3-2.256,2.6-4.513,3.956-6.866" transform="translate(-8.77 -75.755)" fill="#df7c8f"/>
    <path id="パス_764" data-name="パス 764" d="M212.937,170.237c1.314,2.278,2.636,4.552,3.929,6.841a1.911,1.911,0,0,1,.159.895c.013,2.227-.008,4.454.02,6.681.008.569-.151.8-.746.779-.992-.037-1.987-.016-2.98-.009-.389,0-.654-.074-.653-.558q.013-7.283.005-14.564l.266-.065" transform="translate(-104.966 -84.024)" fill="#df7c8f"/>
    <path id="パス_765" data-name="パス 765" d="M4.473,184.18c0,2.494-.007,4.987.007,7.481,0,.436-.147.618-.587.613-1.094-.013-2.19-.016-3.284,0-.605.01-.7-.281-.535-.778a1.631,1.631,0,0,1,.106-.288q2.032-3.55,4.07-7.1l.224.067" transform="translate(0 -90.873)" fill="#df7c8f"/>
  </g>
</svg>
