<svg id="welcome_main-decoration-orange-round" xmlns="http://www.w3.org/2000/svg" xmlns:xlink="http://www.w3.org/1999/xlink" width="118" height="118" viewBox="0 0 118 118">
  <defs>
    <clipPath id="clip-path">
      <rect id="長方形_193" data-name="長方形 193" width="118" height="118" fill="#ffb64b"/>
    </clipPath>
  </defs>
  <g id="グループ_200" data-name="グループ 200" clip-path="url(#clip-path)">
    <path id="パス_825" data-name="パス 825" d="M62.058,58.974q0,28.293-.018,56.584c0,.742.437,1.811-.519,2.154a7.351,7.351,0,0,1-3.791.076c-.363-.067-.387-.5-.39-.84,0-.535-.01-1.07-.01-1.6q0-56.386.025-112.77c0-.781-.566-1.947.5-2.308a5.834,5.834,0,0,1,3.769.1c.688.246.417,1.057.419,1.625.019,4.68.011,9.361.011,14.042V58.974" transform="translate(-0.423 0)" fill="#ffb64b"/>
    <path id="パス_826" data-name="パス 826" d="M43.041,58.955q0,27.3,0,54.59c0,2.213.023,2.109-2.187,1.513-1.941-.522-2.7-1.37-2.693-3.576.094-35.055.063-70.109.084-105.164,0-.813-.474-1.911.45-2.4A14.419,14.419,0,0,1,42.479,2.59c.869-.177.539.748.543,1.176.033,3.879.02,7.759.02,11.639V58.955" transform="translate(-0.282 -0.035)" fill="#ffb64b"/>
    <path id="パス_827" data-name="パス 827" d="M76.46,115.223v-1.992q0-54.162,0-108.326c0-2.366-.046-2.177,2.223-1.595,2.157.553,2.529,1.727,2.526,3.74q-.092,51.551-.045,103.1c0,4.31,0,4.31-4.706,5.072" transform="translate(-0.566 -0.04)" fill="#ffb64b"/>
    <path id="パス_828" data-name="パス 828" d="M52.447,58.964q0,28.1-.038,56.2c0,.725.764,2.058-.747,2.178-2.689.216-3.807-.566-3.807-2.4q0-50.583,0-101.167c0-3.613-.019-7.226.014-10.839,0-.607-.365-1.518.508-1.741A14.109,14.109,0,0,1,52.153.72c.483.013.283.931.285,1.438.016,4.483.01,8.966.01,13.449V58.964" transform="translate(-0.354 -0.01)" fill="#ffb64b"/>
    <path id="パス_829" data-name="パス 829" d="M66.909,58.827q0-27.9.041-55.8c0-.769-.815-2.206,1-2.267,2.719-.091,3.629.513,3.63,2.375q0,55.906-.012,111.816c0,.609.349,1.516-.529,1.737a7.212,7.212,0,0,1-3.762.4c-.642-.191-.354-1.2-.355-1.848q-.021-15.156-.01-30.31v-26.1" transform="translate(-0.494 -0.01)" fill="#ffb64b"/>
    <path id="パス_830" data-name="パス 830" d="M33.513,59.054q0,25.388,0,50.776c0,2.323.026,2.241-2.091,1.332a3.8,3.8,0,0,1-2.642-4.064q.138-48.269.064-96.538A4.842,4.842,0,0,1,32.8,6.379c.956-.059.69.655.695,1.1.031,2.741.018,5.483.018,8.225V59.054" transform="translate(-0.213 -0.087)" fill="#ffb64b"/>
    <path id="パス_831" data-name="パス 831" d="M85.9,59.05q0-25.184,0-50.369c0-2.347-.013-2.229,2.105-1.28,2.141.959,2.725,2.35,2.719,4.653q-.127,47.362-.057,94.724a4.907,4.907,0,0,1-4.013,4.614c-.55.1-.74-.057-.743-.566,0-.535-.012-1.07-.012-1.6V59.05" transform="translate(-0.636 -0.092)" fill="#ffb64b"/>
    <path id="パス_832" data-name="パス 832" d="M23.745,106.254c-2.86-1.766-4.727-3.505-4.695-7.381q.323-39.531,0-79.066c-.031-3.853,1.454-5.97,4.693-7.676Z" transform="translate(-0.141 -0.166)" fill="#ffb64b"/>
    <path id="パス_833" data-name="パス 833" d="M95.746,12.714c2.81,1.771,4.471,3.587,4.445,7.221q-.287,39.213-.006,78.428c.025,3.6-1.511,5.523-4.439,7.23Z" transform="translate(-0.709 -0.174)" fill="#ffb64b"/>
    <path id="パス_834" data-name="パス 834" d="M14.347,21.239v76.11c-2.073-2.363-4.721-4.134-4.7-7.86.123-19.854.182-39.712-.045-59.565-.048-4.066,2.445-6.174,4.743-8.685" transform="translate(-0.071 -0.29)" fill="#ffb64b"/>
    <path id="パス_835" data-name="パス 835" d="M105.094,97.088c-.278-3.715-.186-73.489.089-75.315,2.5,3.089,4.8,5.748,4.73,10.187-.279,18.318-.169,36.643-.061,54.964a9.66,9.66,0,0,1-2.433,7.133c-.756.816-1.366,1.768-2.326,3.031" transform="translate(-0.777 -0.297)" fill="#ffb64b"/>
    <path id="パス_836" data-name="パス 836" d="M4.751,36.233V82.487c-5.887-9.284-6.766-33.846,0-46.254" transform="translate(0 -0.495)" fill="#ffb64b"/>
    <path id="パス_837" data-name="パス 837" d="M114.8,38.761a55.177,55.177,0,0,1,0,41.472Z" transform="translate(-0.85 -0.529)" fill="#ffb64b"/>
  </g>
</svg>
